<?xml version="1.0" encoding="UTF-8" standalone="no"?>
<!DOCTYPE svg PUBLIC "-//W3C//DTD SVG 1.1//EN"
 "http://www.w3.org/Graphics/SVG/1.1/DTD/svg11.dtd">
<!-- Generated by graphviz version 2.43.0 (0)
 -->
<!-- Title: include/fire/io/Atomic.h Pages: 1 -->
<svg width="577pt" height="632pt"
 viewBox="0.00 0.00 577.50 632.00" xmlns="http://www.w3.org/2000/svg" xmlns:xlink="http://www.w3.org/1999/xlink">
<g id="graph0" class="graph" transform="scale(1 1) rotate(0) translate(4 628)">
<title>include/fire/io/Atomic.h</title>
<!-- Node1 -->
<g id="node1" class="node">
<title>Node1</title>
<g id="a_node1"><a xlink:title=" ">
<polygon fill="#bfbfbf" stroke="black" points="256.5,-604.5 256.5,-623.5 385.5,-623.5 385.5,-604.5 256.5,-604.5"/>
<text text-anchor="middle" x="321" y="-611.5" font-family="Helvetica,sans-Serif" font-size="10.00">include/fire/io/Atomic.h</text>
</a>
</g>
</g>
<!-- Node2 -->
<g id="node2" class="node">
<title>Node2</title>
<g id="a_node2"><a xlink:href="Writer_8h_source.html" target="_top" xlink:title=" ">
<polygon fill="none" stroke="black" points="195,-543 195,-562 319,-562 319,-543 195,-543"/>
<text text-anchor="middle" x="257" y="-550" font-family="Helvetica,sans-Serif" font-size="10.00">include/fire/io/Writer.h</text>
</a>
</g>
</g>
<!-- Node1&#45;&gt;Node2 -->
<g id="edge1" class="edge">
<title>Node1&#45;&gt;Node2</title>
<path fill="none" stroke="midnightblue" d="M304.49,-597.65C292.29,-586.31 276.13,-571.28 266.15,-562.01"/>
<polygon fill="midnightblue" stroke="midnightblue" points="302.12,-600.23 311.83,-604.48 306.89,-595.1 302.12,-600.23"/>
</g>
<!-- Node18 -->
<g id="node18" class="node">
<title>Node18</title>
<g id="a_node18"><a xlink:href="h5_2Reader_8h_source.html" target="_top" xlink:title=" ">
<polygon fill="none" stroke="black" points="337,-537.5 337,-567.5 435,-567.5 435,-537.5 337,-537.5"/>
<text text-anchor="start" x="345" y="-555.5" font-family="Helvetica,sans-Serif" font-size="10.00">include/fire/io/h5</text>
<text text-anchor="middle" x="386" y="-544.5" font-family="Helvetica,sans-Serif" font-size="10.00">/Reader.h</text>
</a>
</g>
</g>
<!-- Node1&#45;&gt;Node18 -->
<g id="edge27" class="edge">
<title>Node1&#45;&gt;Node18</title>
<path fill="none" stroke="midnightblue" d="M337.77,-597.65C347.93,-588.35 360.8,-576.57 370.68,-567.52"/>
<polygon fill="midnightblue" stroke="midnightblue" points="335.33,-595.14 330.31,-604.48 340.05,-600.3 335.33,-595.14"/>
</g>
<!-- Node3 -->
<g id="node3" class="node">
<title>Node3</title>
<g id="a_node3"><a xlink:href="Data_8h_source.html" target="_top" xlink:title=" ">
<polygon fill="none" stroke="black" points="262,-481.5 262,-500.5 380,-500.5 380,-481.5 262,-481.5"/>
<text text-anchor="middle" x="321" y="-488.5" font-family="Helvetica,sans-Serif" font-size="10.00">include/fire/io/Data.h</text>
</a>
</g>
</g>
<!-- Node2&#45;&gt;Node3 -->
<g id="edge2" class="edge">
<title>Node2&#45;&gt;Node3</title>
<path fill="none" stroke="midnightblue" d="M273.51,-536.15C285.71,-524.81 301.87,-509.78 311.85,-500.51"/>
<polygon fill="midnightblue" stroke="midnightblue" points="271.11,-533.6 266.17,-542.98 275.88,-538.73 271.11,-533.6"/>
</g>
<!-- Node4 -->
<g id="node4" class="node">
<title>Node4</title>
<g id="a_node4"><a xlink:href="Event_8h_source.html" target="_top" xlink:title=" ">
<polygon fill="none" stroke="black" points="55,-297 55,-316 165,-316 165,-297 55,-297"/>
<text text-anchor="middle" x="110" y="-304" font-family="Helvetica,sans-Serif" font-size="10.00">include/fire/Event.h</text>
</a>
</g>
</g>
<!-- Node3&#45;&gt;Node4 -->
<g id="edge3" class="edge">
<title>Node3&#45;&gt;Node4</title>
<path fill="none" stroke="midnightblue" d="M303.27,-474.77C278.22,-453.25 231.06,-412.69 191,-378 165.35,-355.79 135.23,-329.53 119.96,-316.2"/>
<polygon fill="midnightblue" stroke="midnightblue" points="301.01,-477.44 310.87,-481.3 305.57,-472.13 301.01,-477.44"/>
</g>
<!-- Node10 -->
<g id="node10" class="node">
<title>Node10</title>
<g id="a_node10"><a xlink:href="EventHeader_8h_source.html" target="_top" xlink:title=" ">
<polygon fill="none" stroke="black" points="200.5,-358.5 200.5,-377.5 345.5,-377.5 345.5,-358.5 200.5,-358.5"/>
<text text-anchor="middle" x="273" y="-365.5" font-family="Helvetica,sans-Serif" font-size="10.00">include/fire/EventHeader.h</text>
</a>
</g>
</g>
<!-- Node3&#45;&gt;Node10 -->
<g id="edge10" class="edge">
<title>Node3&#45;&gt;Node10</title>
<path fill="none" stroke="midnightblue" d="M308.13,-472.97C302.51,-464.85 296.24,-454.79 292,-445 281.95,-421.79 276.47,-392.19 274.23,-377.73"/>
<polygon fill="midnightblue" stroke="midnightblue" points="305.38,-475.13 314.07,-481.19 311.06,-471.03 305.38,-475.13"/>
</g>
<!-- Node16 -->
<g id="node16" class="node">
<title>Node16</title>
<g id="a_node16"><a xlink:href="RunHeader_8h_source.html" target="_top" xlink:title=" ">
<polygon fill="none" stroke="black" points="418,-297 418,-316 554,-316 554,-297 418,-297"/>
<text text-anchor="middle" x="486" y="-304" font-family="Helvetica,sans-Serif" font-size="10.00">include/fire/RunHeader.h</text>
</a>
</g>
</g>
<!-- Node3&#45;&gt;Node16 -->
<g id="edge20" class="edge">
<title>Node3&#45;&gt;Node16</title>
<path fill="none" stroke="midnightblue" d="M387.11,-478.65C408.39,-472.02 430.46,-461.55 446,-445 481.41,-407.31 485.68,-340.1 486.04,-316.21"/>
<polygon fill="midnightblue" stroke="midnightblue" points="386.06,-475.31 377.41,-481.43 387.99,-482.04 386.06,-475.31"/>
</g>
<!-- Node17 -->
<g id="node17" class="node">
<title>Node17</title>
<g id="a_node17"><a xlink:href="ParameterStorage_8h_source.html" target="_top" xlink:title=" ">
<polygon fill="none" stroke="black" points="301,-414.5 301,-444.5 437,-444.5 437,-414.5 301,-414.5"/>
<text text-anchor="start" x="309" y="-432.5" font-family="Helvetica,sans-Serif" font-size="10.00">include/fire/io/Parameter</text>
<text text-anchor="middle" x="369" y="-421.5" font-family="Helvetica,sans-Serif" font-size="10.00">Storage.h</text>
</a>
</g>
</g>
<!-- Node3&#45;&gt;Node17 -->
<g id="edge24" class="edge">
<title>Node3&#45;&gt;Node17</title>
<path fill="none" stroke="midnightblue" d="M334.29,-473.53C341.64,-464.42 350.68,-453.21 357.69,-444.52"/>
<polygon fill="midnightblue" stroke="midnightblue" points="331.43,-471.49 327.88,-481.48 336.88,-475.89 331.43,-471.49"/>
</g>
<!-- Node5 -->
<g id="node5" class="node">
<title>Node5</title>
<g id="a_node5"><a xlink:href="Process_8h_source.html" target="_top" xlink:title=" ">
<polygon fill="none" stroke="black" points="0,-56.5 0,-75.5 120,-75.5 120,-56.5 0,-56.5"/>
<text text-anchor="middle" x="60" y="-63.5" font-family="Helvetica,sans-Serif" font-size="10.00">include/fire/Process.h</text>
</a>
</g>
</g>
<!-- Node4&#45;&gt;Node5 -->
<g id="edge4" class="edge">
<title>Node4&#45;&gt;Node5</title>
<path fill="none" stroke="midnightblue" d="M69.71,-293.34C50.84,-285.49 29.94,-273.27 18,-255 -21.16,-195.09 34.5,-103.97 53.82,-75.68"/>
<polygon fill="midnightblue" stroke="midnightblue" points="68.46,-296.6 79.05,-296.94 70.98,-290.07 68.46,-296.6"/>
</g>
<!-- Node7 -->
<g id="node7" class="node">
<title>Node7</title>
<g id="a_node7"><a xlink:href="Processor_8h_source.html" target="_top" xlink:title=" ">
<polygon fill="none" stroke="black" points="88.5,-112.5 88.5,-131.5 217.5,-131.5 217.5,-112.5 88.5,-112.5"/>
<text text-anchor="middle" x="153" y="-119.5" font-family="Helvetica,sans-Serif" font-size="10.00">include/fire/Processor.h</text>
</a>
</g>
</g>
<!-- Node4&#45;&gt;Node7 -->
<g id="edge6" class="edge">
<title>Node4&#45;&gt;Node7</title>
<path fill="none" stroke="midnightblue" d="M75.24,-292.64C58.69,-284.54 40.48,-272.31 31,-255 12.43,-221.09 8.89,-199.72 31,-168 44.3,-148.92 66.64,-137.91 88.6,-131.57"/>
<polygon fill="midnightblue" stroke="midnightblue" points="74.16,-295.99 84.72,-296.93 77.05,-289.61 74.16,-295.99"/>
</g>
<!-- Node9 -->
<g id="node9" class="node">
<title>Node9</title>
<g id="a_node9"><a xlink:href="UserReader_8h_source.html" target="_top" xlink:title=" ">
<polygon fill="none" stroke="black" points="40.5,-235.5 40.5,-254.5 179.5,-254.5 179.5,-235.5 40.5,-235.5"/>
<text text-anchor="middle" x="110" y="-242.5" font-family="Helvetica,sans-Serif" font-size="10.00">include/fire/UserReader.h</text>
</a>
</g>
</g>
<!-- Node4&#45;&gt;Node9 -->
<g id="edge9" class="edge">
<title>Node4&#45;&gt;Node9</title>
<path fill="none" stroke="midnightblue" d="M110,-286.82C110,-276 110,-262.9 110,-254.51"/>
<polygon fill="midnightblue" stroke="midnightblue" points="106.5,-286.98 110,-296.98 113.5,-286.98 106.5,-286.98"/>
</g>
<!-- Node6 -->
<g id="node6" class="node">
<title>Node6</title>
<g id="a_node6"><a xlink:href="fire_8cxx.html" target="_top" xlink:title="main definition for fire executable">
<polygon fill="none" stroke="black" points="23,-0.5 23,-19.5 97,-19.5 97,-0.5 23,-0.5"/>
<text text-anchor="middle" x="60" y="-7.5" font-family="Helvetica,sans-Serif" font-size="10.00">app/fire.cxx</text>
</a>
</g>
</g>
<!-- Node5&#45;&gt;Node6 -->
<g id="edge5" class="edge">
<title>Node5&#45;&gt;Node6</title>
<path fill="none" stroke="midnightblue" d="M60,-45.8C60,-36.91 60,-26.78 60,-19.75"/>
<polygon fill="midnightblue" stroke="midnightblue" points="56.5,-46.08 60,-56.08 63.5,-46.08 56.5,-46.08"/>
</g>
<!-- Node7&#45;&gt;Node5 -->
<g id="edge8" class="edge">
<title>Node7&#45;&gt;Node5</title>
<path fill="none" stroke="midnightblue" d="M129.19,-107.18C112.08,-97.24 89.53,-84.15 74.9,-75.65"/>
<polygon fill="midnightblue" stroke="midnightblue" points="127.65,-110.33 138.06,-112.32 131.17,-104.28 127.65,-110.33"/>
</g>
<!-- Node8 -->
<g id="node8" class="node">
<title>Node8</title>
<g id="a_node8"><a xlink:href="EventProcessor_8h.html" target="_top" xlink:title="Re&#45;interpretation of ROOT&#45;based framework code into fire.">
<polygon fill="none" stroke="black" points="138,-56.5 138,-75.5 334,-75.5 334,-56.5 138,-56.5"/>
<text text-anchor="middle" x="236" y="-63.5" font-family="Helvetica,sans-Serif" font-size="10.00">include/Framework/EventProcessor.h</text>
</a>
</g>
</g>
<!-- Node7&#45;&gt;Node8 -->
<g id="edge7" class="edge">
<title>Node7&#45;&gt;Node8</title>
<path fill="none" stroke="midnightblue" d="M175.1,-106.62C190.26,-96.76 209.88,-83.99 222.7,-75.65"/>
<polygon fill="midnightblue" stroke="midnightblue" points="172.81,-103.94 166.34,-112.32 176.63,-109.8 172.81,-103.94"/>
</g>
<!-- Node10&#45;&gt;Node4 -->
<g id="edge19" class="edge">
<title>Node10&#45;&gt;Node4</title>
<path fill="none" stroke="midnightblue" d="M239.94,-354.93C208.26,-343.37 161.25,-326.21 133.31,-316.01"/>
<polygon fill="midnightblue" stroke="midnightblue" points="239.05,-358.33 249.65,-358.48 241.45,-351.76 239.05,-358.33"/>
</g>
<!-- Node11 -->
<g id="node11" class="node">
<title>Node11</title>
<g id="a_node11"><a xlink:href="Conditions_8h_source.html" target="_top" xlink:title=" ">
<polygon fill="none" stroke="black" points="40,-174 40,-193 174,-193 174,-174 40,-174"/>
<text text-anchor="middle" x="107" y="-181" font-family="Helvetica,sans-Serif" font-size="10.00">include/fire/Conditions.h</text>
</a>
</g>
</g>
<!-- Node10&#45;&gt;Node11 -->
<g id="edge11" class="edge">
<title>Node10&#45;&gt;Node11</title>
<path fill="none" stroke="midnightblue" d="M254.21,-351.59C245.16,-343.47 234.63,-332.95 227,-322 202.76,-287.24 215.86,-266.93 188,-235 171.22,-215.77 145.32,-201.4 127.34,-193"/>
<polygon fill="midnightblue" stroke="midnightblue" points="252.13,-354.42 261.99,-358.31 256.71,-349.12 252.13,-354.42"/>
</g>
<!-- Node12 -->
<g id="node12" class="node">
<title>Node12</title>
<g id="a_node12"><a xlink:href="ConditionsIntervalOfValidity_8h_source.html" target="_top" xlink:title=" ">
<polygon fill="none" stroke="black" points="236.5,-291.5 236.5,-321.5 399.5,-321.5 399.5,-291.5 236.5,-291.5"/>
<text text-anchor="start" x="244.5" y="-309.5" font-family="Helvetica,sans-Serif" font-size="10.00">include/fire/ConditionsInterval</text>
<text text-anchor="middle" x="318" y="-298.5" font-family="Helvetica,sans-Serif" font-size="10.00">OfValidity.h</text>
</a>
</g>
</g>
<!-- Node10&#45;&gt;Node12 -->
<g id="edge14" class="edge">
<title>Node10&#45;&gt;Node12</title>
<path fill="none" stroke="midnightblue" d="M285.67,-350.25C292.52,-341.19 300.89,-330.12 307.39,-321.52"/>
<polygon fill="midnightblue" stroke="midnightblue" points="282.69,-348.39 279.45,-358.48 288.27,-352.61 282.69,-348.39"/>
</g>
<!-- Node11&#45;&gt;Node5 -->
<g id="edge12" class="edge">
<title>Node11&#45;&gt;Node5</title>
<path fill="none" stroke="midnightblue" d="M96.05,-165.03C90.42,-155.52 83.76,-143.4 79,-132 70.85,-112.47 64.77,-88.27 61.87,-75.62"/>
<polygon fill="midnightblue" stroke="midnightblue" points="93.24,-167.14 101.43,-173.86 99.22,-163.5 93.24,-167.14"/>
</g>
<!-- Node11&#45;&gt;Node7 -->
<g id="edge13" class="edge">
<title>Node11&#45;&gt;Node7</title>
<path fill="none" stroke="midnightblue" d="M119.88,-165.84C128.52,-154.67 139.53,-140.43 146.42,-131.51"/>
<polygon fill="midnightblue" stroke="midnightblue" points="116.94,-163.92 113.59,-173.98 122.48,-168.2 116.94,-163.92"/>
</g>
<!-- Node13 -->
<g id="node13" class="node">
<title>Node13</title>
<g id="a_node13"><a xlink:href="ConditionsProvider_8h_source.html" target="_top" xlink:title=" ">
<polygon fill="none" stroke="black" points="236,-235.5 236,-254.5 410,-254.5 410,-235.5 236,-235.5"/>
<text text-anchor="middle" x="323" y="-242.5" font-family="Helvetica,sans-Serif" font-size="10.00">include/fire/ConditionsProvider.h</text>
</a>
</g>
</g>
<!-- Node12&#45;&gt;Node13 -->
<g id="edge15" class="edge">
<title>Node12&#45;&gt;Node13</title>
<path fill="none" stroke="midnightblue" d="M320.03,-281.29C320.83,-271.86 321.68,-261.65 322.27,-254.66"/>
<polygon fill="midnightblue" stroke="midnightblue" points="316.53,-281.14 319.18,-291.4 323.51,-281.73 316.53,-281.14"/>
</g>
<!-- Node13&#45;&gt;Node11 -->
<g id="edge17" class="edge">
<title>Node13&#45;&gt;Node11</title>
<path fill="none" stroke="midnightblue" d="M282.16,-232.75C240.19,-221.19 175.8,-203.45 137.89,-193.01"/>
<polygon fill="midnightblue" stroke="midnightblue" points="281.48,-236.19 292.05,-235.48 283.34,-229.44 281.48,-236.19"/>
</g>
<!-- Node14 -->
<g id="node14" class="node">
<title>Node14</title>
<g id="a_node14"><a xlink:href="ConditionsObjectProvider_8h_source.html" target="_top" xlink:title=" ">
<polygon fill="none" stroke="black" points="192,-168.5 192,-198.5 356,-198.5 356,-168.5 192,-168.5"/>
<text text-anchor="start" x="200" y="-186.5" font-family="Helvetica,sans-Serif" font-size="10.00">include/Framework/Conditions</text>
<text text-anchor="middle" x="274" y="-175.5" font-family="Helvetica,sans-Serif" font-size="10.00">ObjectProvider.h</text>
</a>
</g>
</g>
<!-- Node13&#45;&gt;Node14 -->
<g id="edge16" class="edge">
<title>Node13&#45;&gt;Node14</title>
<path fill="none" stroke="midnightblue" d="M309.44,-227.53C301.93,-218.42 292.71,-207.21 285.55,-198.52"/>
<polygon fill="midnightblue" stroke="midnightblue" points="306.92,-229.98 315.98,-235.48 312.32,-225.53 306.92,-229.98"/>
</g>
<!-- Node15 -->
<g id="node15" class="node">
<title>Node15</title>
<g id="a_node15"><a xlink:href="RandomNumberSeedService_8h.html" target="_top" xlink:title="Conditions object for random number seeds.">
<polygon fill="none" stroke="black" points="374.5,-168.5 374.5,-198.5 527.5,-198.5 527.5,-168.5 374.5,-168.5"/>
<text text-anchor="start" x="382.5" y="-186.5" font-family="Helvetica,sans-Serif" font-size="10.00">include/fire/RandomNumber</text>
<text text-anchor="middle" x="451" y="-175.5" font-family="Helvetica,sans-Serif" font-size="10.00">SeedService.h</text>
</a>
</g>
</g>
<!-- Node13&#45;&gt;Node15 -->
<g id="edge18" class="edge">
<title>Node13&#45;&gt;Node15</title>
<path fill="none" stroke="midnightblue" d="M350.54,-231.2C371.22,-221.58 399.54,-208.42 420.83,-198.52"/>
<polygon fill="midnightblue" stroke="midnightblue" points="348.93,-228.09 341.34,-235.48 351.88,-234.43 348.93,-228.09"/>
</g>
<!-- Node16&#45;&gt;Node5 -->
<g id="edge22" class="edge">
<title>Node16&#45;&gt;Node5</title>
<path fill="none" stroke="midnightblue" d="M510.33,-291.45C523.31,-282.66 538.35,-270.13 547,-255 566.29,-221.25 580.59,-198.11 556,-168 528.45,-134.27 246.11,-92.21 120.13,-74.95"/>
<polygon fill="midnightblue" stroke="midnightblue" points="508.31,-288.59 501.78,-296.93 512.09,-294.48 508.31,-288.59"/>
</g>
<!-- Node16&#45;&gt;Node7 -->
<g id="edge23" class="edge">
<title>Node16&#45;&gt;Node7</title>
<path fill="none" stroke="midnightblue" d="M501.42,-289.34C526.17,-261.46 568.9,-203.86 537,-168 516.17,-144.59 321.38,-131.39 217.52,-125.96"/>
<polygon fill="midnightblue" stroke="midnightblue" points="498.59,-287.25 494.42,-296.98 503.76,-291.97 498.59,-287.25"/>
</g>
<!-- Node16&#45;&gt;Node13 -->
<g id="edge21" class="edge">
<title>Node16&#45;&gt;Node13</title>
<path fill="none" stroke="midnightblue" d="M452.94,-293.43C421.26,-281.87 374.25,-264.71 346.31,-254.51"/>
<polygon fill="midnightblue" stroke="midnightblue" points="452.05,-296.83 462.65,-296.98 454.45,-290.26 452.05,-296.83"/>
</g>
<!-- Node17&#45;&gt;Node10 -->
<g id="edge25" class="edge">
<title>Node17&#45;&gt;Node10</title>
<path fill="none" stroke="midnightblue" d="M337.65,-409.07C320.54,-398.46 300.2,-385.86 286.97,-377.66"/>
<polygon fill="midnightblue" stroke="midnightblue" points="335.91,-412.11 346.25,-414.4 339.59,-406.16 335.91,-412.11"/>
</g>
<!-- Node17&#45;&gt;Node16 -->
<g id="edge26" class="edge">
<title>Node17&#45;&gt;Node16</title>
<path fill="none" stroke="midnightblue" d="M390.09,-406.69C416.27,-379.61 459.68,-334.72 477.73,-316.05"/>
<polygon fill="midnightblue" stroke="midnightblue" points="387.32,-404.52 382.88,-414.14 392.35,-409.39 387.32,-404.52"/>
</g>
<!-- Node18&#45;&gt;Node3 -->
<g id="edge28" class="edge">
<title>Node18&#45;&gt;Node3</title>
<path fill="none" stroke="midnightblue" d="M363.17,-530.6C351.93,-520.32 339.01,-508.48 330.46,-500.66"/>
<polygon fill="midnightblue" stroke="midnightblue" points="360.86,-533.23 370.6,-537.4 365.58,-528.07 360.86,-533.23"/>
</g>
</g>
</svg>
