<?xml version="1.0" encoding="UTF-8" standalone="no"?>
<!DOCTYPE svg PUBLIC "-//W3C//DTD SVG 1.1//EN"
 "http://www.w3.org/Graphics/SVG/1.1/DTD/svg11.dtd">
<!-- Generated by graphviz version 2.43.0 (0)
 -->
<!-- Title: include/fire/io/Atomic.h Pages: 1 -->
<svg width="492pt" height="632pt"
 viewBox="0.00 0.00 492.00 632.00" xmlns="http://www.w3.org/2000/svg" xmlns:xlink="http://www.w3.org/1999/xlink">
<g id="graph0" class="graph" transform="scale(1 1) rotate(0) translate(4 628)">
<title>include/fire/io/Atomic.h</title>
<!-- Node1 -->
<g id="node1" class="node">
<title>Node1</title>
<g id="a_node1"><a xlink:title=" ">
<polygon fill="#bfbfbf" stroke="black" points="174.5,-604.5 174.5,-623.5 303.5,-623.5 303.5,-604.5 174.5,-604.5"/>
<text text-anchor="middle" x="239" y="-611.5" font-family="Helvetica,sans-Serif" font-size="10.00">include/fire/io/Atomic.h</text>
</a>
</g>
</g>
<!-- Node2 -->
<g id="node2" class="node">
<title>Node2</title>
<g id="a_node2"><a xlink:href="Writer_8h_source.html" target="_top" xlink:title=" ">
<polygon fill="none" stroke="black" points="113,-543 113,-562 237,-562 237,-543 113,-543"/>
<text text-anchor="middle" x="175" y="-550" font-family="Helvetica,sans-Serif" font-size="10.00">include/fire/io/Writer.h</text>
</a>
</g>
</g>
<!-- Node1&#45;&gt;Node2 -->
<g id="edge1" class="edge">
<title>Node1&#45;&gt;Node2</title>
<path fill="none" stroke="midnightblue" d="M222.49,-597.65C210.29,-586.31 194.13,-571.28 184.15,-562.01"/>
<polygon fill="midnightblue" stroke="midnightblue" points="220.12,-600.23 229.83,-604.48 224.89,-595.1 220.12,-600.23"/>
</g>
<!-- Node16 -->
<g id="node16" class="node">
<title>Node16</title>
<g id="a_node16"><a xlink:href="h5_2Reader_8h_source.html" target="_top" xlink:title=" ">
<polygon fill="none" stroke="black" points="255,-537.5 255,-567.5 353,-567.5 353,-537.5 255,-537.5"/>
<text text-anchor="start" x="263" y="-555.5" font-family="Helvetica,sans-Serif" font-size="10.00">include/fire/io/h5</text>
<text text-anchor="middle" x="304" y="-544.5" font-family="Helvetica,sans-Serif" font-size="10.00">/Reader.h</text>
</a>
</g>
</g>
<!-- Node1&#45;&gt;Node16 -->
<g id="edge25" class="edge">
<title>Node1&#45;&gt;Node16</title>
<path fill="none" stroke="midnightblue" d="M255.77,-597.65C265.93,-588.35 278.8,-576.57 288.68,-567.52"/>
<polygon fill="midnightblue" stroke="midnightblue" points="253.33,-595.14 248.31,-604.48 258.05,-600.3 253.33,-595.14"/>
</g>
<!-- Node3 -->
<g id="node3" class="node">
<title>Node3</title>
<g id="a_node3"><a xlink:href="Data_8h_source.html" target="_top" xlink:title=" ">
<polygon fill="none" stroke="black" points="180,-481.5 180,-500.5 298,-500.5 298,-481.5 180,-481.5"/>
<text text-anchor="middle" x="239" y="-488.5" font-family="Helvetica,sans-Serif" font-size="10.00">include/fire/io/Data.h</text>
</a>
</g>
</g>
<!-- Node2&#45;&gt;Node3 -->
<g id="edge2" class="edge">
<title>Node2&#45;&gt;Node3</title>
<path fill="none" stroke="midnightblue" d="M191.51,-536.15C203.71,-524.81 219.87,-509.78 229.85,-500.51"/>
<polygon fill="midnightblue" stroke="midnightblue" points="189.11,-533.6 184.17,-542.98 193.88,-538.73 189.11,-533.6"/>
</g>
<!-- Node4 -->
<g id="node4" class="node">
<title>Node4</title>
<g id="a_node4"><a xlink:href="Event_8h_source.html" target="_top" xlink:title=" ">
<polygon fill="none" stroke="black" points="0,-235.5 0,-254.5 110,-254.5 110,-235.5 0,-235.5"/>
<text text-anchor="middle" x="55" y="-242.5" font-family="Helvetica,sans-Serif" font-size="10.00">include/fire/Event.h</text>
</a>
</g>
</g>
<!-- Node3&#45;&gt;Node4 -->
<g id="edge3" class="edge">
<title>Node3&#45;&gt;Node4</title>
<path fill="none" stroke="midnightblue" d="M216.93,-475.89C188.54,-456.75 139.31,-420.1 109,-378 79.34,-336.81 62.56,-276.94 57.04,-254.72"/>
<polygon fill="midnightblue" stroke="midnightblue" points="215.09,-478.87 225.36,-481.47 218.95,-473.03 215.09,-478.87"/>
</g>
<!-- Node9 -->
<g id="node9" class="node">
<title>Node9</title>
<g id="a_node9"><a xlink:href="EventHeader_8h_source.html" target="_top" xlink:title=" ">
<polygon fill="none" stroke="black" points="118.5,-358.5 118.5,-377.5 263.5,-377.5 263.5,-358.5 118.5,-358.5"/>
<text text-anchor="middle" x="191" y="-365.5" font-family="Helvetica,sans-Serif" font-size="10.00">include/fire/EventHeader.h</text>
</a>
</g>
</g>
<!-- Node3&#45;&gt;Node9 -->
<g id="edge9" class="edge">
<title>Node3&#45;&gt;Node9</title>
<path fill="none" stroke="midnightblue" d="M226.13,-472.97C220.51,-464.85 214.24,-454.79 210,-445 199.95,-421.79 194.47,-392.19 192.23,-377.73"/>
<polygon fill="midnightblue" stroke="midnightblue" points="223.38,-475.13 232.07,-481.19 229.06,-471.03 223.38,-475.13"/>
</g>
<!-- Node14 -->
<g id="node14" class="node">
<title>Node14</title>
<g id="a_node14"><a xlink:href="RunHeader_8h_source.html" target="_top" xlink:title=" ">
<polygon fill="none" stroke="black" points="348,-297 348,-316 484,-316 484,-297 348,-297"/>
<text text-anchor="middle" x="416" y="-304" font-family="Helvetica,sans-Serif" font-size="10.00">include/fire/RunHeader.h</text>
</a>
</g>
</g>
<!-- Node3&#45;&gt;Node14 -->
<g id="edge18" class="edge">
<title>Node3&#45;&gt;Node14</title>
<path fill="none" stroke="midnightblue" d="M301.85,-478.72C323.82,-472.07 347.17,-461.56 364,-445 401.84,-407.76 412.52,-340.27 415.19,-316.26"/>
<polygon fill="midnightblue" stroke="midnightblue" points="300.89,-475.36 292.21,-481.43 302.79,-482.1 300.89,-475.36"/>
</g>
<!-- Node15 -->
<g id="node15" class="node">
<title>Node15</title>
<g id="a_node15"><a xlink:href="ParameterStorage_8h_source.html" target="_top" xlink:title=" ">
<polygon fill="none" stroke="black" points="219,-414.5 219,-444.5 355,-444.5 355,-414.5 219,-414.5"/>
<text text-anchor="start" x="227" y="-432.5" font-family="Helvetica,sans-Serif" font-size="10.00">include/fire/io/Parameter</text>
<text text-anchor="middle" x="287" y="-421.5" font-family="Helvetica,sans-Serif" font-size="10.00">Storage.h</text>
</a>
</g>
</g>
<!-- Node3&#45;&gt;Node15 -->
<g id="edge22" class="edge">
<title>Node3&#45;&gt;Node15</title>
<path fill="none" stroke="midnightblue" d="M252.29,-473.53C259.64,-464.42 268.68,-453.21 275.69,-444.52"/>
<polygon fill="midnightblue" stroke="midnightblue" points="249.43,-471.49 245.88,-481.48 254.88,-475.89 249.43,-471.49"/>
</g>
<!-- Node5 -->
<g id="node5" class="node">
<title>Node5</title>
<g id="a_node5"><a xlink:href="Process_8h_source.html" target="_top" xlink:title=" ">
<polygon fill="none" stroke="black" points="42,-56.5 42,-75.5 162,-75.5 162,-56.5 42,-56.5"/>
<text text-anchor="middle" x="102" y="-63.5" font-family="Helvetica,sans-Serif" font-size="10.00">include/fire/Process.h</text>
</a>
</g>
</g>
<!-- Node4&#45;&gt;Node5 -->
<g id="edge4" class="edge">
<title>Node4&#45;&gt;Node5</title>
<path fill="none" stroke="midnightblue" d="M52.75,-225.08C51.44,-209.56 50.77,-187.09 55,-168 63.06,-131.55 85.68,-92.66 96.33,-75.72"/>
<polygon fill="midnightblue" stroke="midnightblue" points="49.31,-225.84 53.81,-235.44 56.28,-225.13 49.31,-225.84"/>
</g>
<!-- Node7 -->
<g id="node7" class="node">
<title>Node7</title>
<g id="a_node7"><a xlink:href="Processor_8h_source.html" target="_top" xlink:title=" ">
<polygon fill="none" stroke="black" points="130.5,-112.5 130.5,-131.5 259.5,-131.5 259.5,-112.5 130.5,-112.5"/>
<text text-anchor="middle" x="195" y="-119.5" font-family="Helvetica,sans-Serif" font-size="10.00">include/fire/Processor.h</text>
</a>
</g>
</g>
<!-- Node4&#45;&gt;Node7 -->
<g id="edge6" class="edge">
<title>Node4&#45;&gt;Node7</title>
<path fill="none" stroke="midnightblue" d="M54.7,-224.99C55.43,-208.08 59.12,-183.67 73,-168 89.92,-148.91 115.67,-137.9 139.16,-131.56"/>
<polygon fill="midnightblue" stroke="midnightblue" points="51.19,-225.25 54.57,-235.3 58.19,-225.34 51.19,-225.25"/>
</g>
<!-- Node6 -->
<g id="node6" class="node">
<title>Node6</title>
<g id="a_node6"><a xlink:href="fire_8cxx.html" target="_top" xlink:title="main definition for fire executable">
<polygon fill="none" stroke="black" points="65,-0.5 65,-19.5 139,-19.5 139,-0.5 65,-0.5"/>
<text text-anchor="middle" x="102" y="-7.5" font-family="Helvetica,sans-Serif" font-size="10.00">app/fire.cxx</text>
</a>
</g>
</g>
<!-- Node5&#45;&gt;Node6 -->
<g id="edge5" class="edge">
<title>Node5&#45;&gt;Node6</title>
<path fill="none" stroke="midnightblue" d="M102,-45.8C102,-36.91 102,-26.78 102,-19.75"/>
<polygon fill="midnightblue" stroke="midnightblue" points="98.5,-46.08 102,-56.08 105.5,-46.08 98.5,-46.08"/>
</g>
<!-- Node7&#45;&gt;Node5 -->
<g id="edge8" class="edge">
<title>Node7&#45;&gt;Node5</title>
<path fill="none" stroke="midnightblue" d="M171.19,-107.18C154.08,-97.24 131.53,-84.15 116.9,-75.65"/>
<polygon fill="midnightblue" stroke="midnightblue" points="169.65,-110.33 180.06,-112.32 173.17,-104.28 169.65,-110.33"/>
</g>
<!-- Node8 -->
<g id="node8" class="node">
<title>Node8</title>
<g id="a_node8"><a xlink:href="EventProcessor_8h.html" target="_top" xlink:title="Re&#45;interpretation of ROOT&#45;based framework code into fire.">
<polygon fill="none" stroke="black" points="180,-56.5 180,-75.5 376,-75.5 376,-56.5 180,-56.5"/>
<text text-anchor="middle" x="278" y="-63.5" font-family="Helvetica,sans-Serif" font-size="10.00">include/Framework/EventProcessor.h</text>
</a>
</g>
</g>
<!-- Node7&#45;&gt;Node8 -->
<g id="edge7" class="edge">
<title>Node7&#45;&gt;Node8</title>
<path fill="none" stroke="midnightblue" d="M217.1,-106.62C232.26,-96.76 251.88,-83.99 264.7,-75.65"/>
<polygon fill="midnightblue" stroke="midnightblue" points="214.81,-103.94 208.34,-112.32 218.63,-109.8 214.81,-103.94"/>
</g>
<!-- Node9&#45;&gt;Node4 -->
<g id="edge17" class="edge">
<title>Node9&#45;&gt;Node4</title>
<path fill="none" stroke="midnightblue" d="M167.54,-353.21C154.21,-344.9 137.53,-333.69 124,-322 98.65,-300.1 73.32,-269.38 61.65,-254.6"/>
<polygon fill="midnightblue" stroke="midnightblue" points="165.8,-356.25 176.16,-358.47 169.45,-350.27 165.8,-356.25"/>
</g>
<!-- Node10 -->
<g id="node10" class="node">
<title>Node10</title>
<g id="a_node10"><a xlink:href="Conditions_8h_source.html" target="_top" xlink:title=" ">
<polygon fill="none" stroke="black" points="82,-174 82,-193 216,-193 216,-174 82,-174"/>
<text text-anchor="middle" x="149" y="-181" font-family="Helvetica,sans-Serif" font-size="10.00">include/fire/Conditions.h</text>
</a>
</g>
</g>
<!-- Node9&#45;&gt;Node10 -->
<g id="edge10" class="edge">
<title>Node9&#45;&gt;Node10</title>
<path fill="none" stroke="midnightblue" d="M175.1,-350.86C168.24,-342.86 160.91,-332.64 157,-322 140.07,-276 145.13,-215.5 147.81,-193.22"/>
<polygon fill="midnightblue" stroke="midnightblue" points="172.58,-353.3 181.9,-358.33 177.75,-348.58 172.58,-353.3"/>
</g>
<!-- Node11 -->
<g id="node11" class="node">
<title>Node11</title>
<g id="a_node11"><a xlink:href="ConditionsIntervalOfValidity_8h_source.html" target="_top" xlink:title=" ">
<polygon fill="none" stroke="black" points="166.5,-291.5 166.5,-321.5 329.5,-321.5 329.5,-291.5 166.5,-291.5"/>
<text text-anchor="start" x="174.5" y="-309.5" font-family="Helvetica,sans-Serif" font-size="10.00">include/fire/ConditionsInterval</text>
<text text-anchor="middle" x="248" y="-298.5" font-family="Helvetica,sans-Serif" font-size="10.00">OfValidity.h</text>
</a>
</g>
</g>
<!-- Node9&#45;&gt;Node11 -->
<g id="edge13" class="edge">
<title>Node9&#45;&gt;Node11</title>
<path fill="none" stroke="midnightblue" d="M206.24,-351.09C215.06,-341.88 226.07,-330.39 234.57,-321.52"/>
<polygon fill="midnightblue" stroke="midnightblue" points="203.56,-348.83 199.17,-358.48 208.61,-353.68 203.56,-348.83"/>
</g>
<!-- Node10&#45;&gt;Node5 -->
<g id="edge11" class="edge">
<title>Node10&#45;&gt;Node5</title>
<path fill="none" stroke="midnightblue" d="M138.05,-165.03C132.42,-155.52 125.76,-143.4 121,-132 112.85,-112.47 106.77,-88.27 103.87,-75.62"/>
<polygon fill="midnightblue" stroke="midnightblue" points="135.24,-167.14 143.43,-173.86 141.22,-163.5 135.24,-167.14"/>
</g>
<!-- Node10&#45;&gt;Node7 -->
<g id="edge12" class="edge">
<title>Node10&#45;&gt;Node7</title>
<path fill="none" stroke="midnightblue" d="M161.88,-165.84C170.52,-154.67 181.53,-140.43 188.42,-131.51"/>
<polygon fill="midnightblue" stroke="midnightblue" points="158.94,-163.92 155.59,-173.98 164.48,-168.2 158.94,-163.92"/>
</g>
<!-- Node12 -->
<g id="node12" class="node">
<title>Node12</title>
<g id="a_node12"><a xlink:href="ConditionsProvider_8h_source.html" target="_top" xlink:title=" ">
<polygon fill="none" stroke="black" points="190,-235.5 190,-254.5 364,-254.5 364,-235.5 190,-235.5"/>
<text text-anchor="middle" x="277" y="-242.5" font-family="Helvetica,sans-Serif" font-size="10.00">include/fire/ConditionsProvider.h</text>
</a>
</g>
</g>
<!-- Node11&#45;&gt;Node12 -->
<g id="edge14" class="edge">
<title>Node11&#45;&gt;Node12</title>
<path fill="none" stroke="midnightblue" d="M259.36,-282.2C264.07,-272.52 269.26,-261.88 272.78,-254.66"/>
<polygon fill="midnightblue" stroke="midnightblue" points="256.11,-280.88 254.87,-291.4 262.4,-283.94 256.11,-280.88"/>
</g>
<!-- Node12&#45;&gt;Node10 -->
<g id="edge15" class="edge">
<title>Node12&#45;&gt;Node10</title>
<path fill="none" stroke="midnightblue" d="M249.41,-231.17C224.57,-219.63 188.77,-202.99 167.31,-193.01"/>
<polygon fill="midnightblue" stroke="midnightblue" points="248.12,-234.43 258.66,-235.48 251.07,-228.09 248.12,-234.43"/>
</g>
<!-- Node13 -->
<g id="node13" class="node">
<title>Node13</title>
<g id="a_node13"><a xlink:href="RandomNumberSeedService_8h.html" target="_top" xlink:title="Conditions object for random number seeds.">
<polygon fill="none" stroke="black" points="234.5,-168.5 234.5,-198.5 387.5,-198.5 387.5,-168.5 234.5,-168.5"/>
<text text-anchor="start" x="242.5" y="-186.5" font-family="Helvetica,sans-Serif" font-size="10.00">include/fire/RandomNumber</text>
<text text-anchor="middle" x="311" y="-175.5" font-family="Helvetica,sans-Serif" font-size="10.00">SeedService.h</text>
</a>
</g>
</g>
<!-- Node12&#45;&gt;Node13 -->
<g id="edge16" class="edge">
<title>Node12&#45;&gt;Node13</title>
<path fill="none" stroke="midnightblue" d="M286.9,-226.68C292.01,-217.73 298.17,-206.94 302.99,-198.52"/>
<polygon fill="midnightblue" stroke="midnightblue" points="283.79,-225.06 281.87,-235.48 289.87,-228.53 283.79,-225.06"/>
</g>
<!-- Node14&#45;&gt;Node5 -->
<g id="edge20" class="edge">
<title>Node14&#45;&gt;Node5</title>
<path fill="none" stroke="midnightblue" d="M424.5,-287.7C428.55,-278.22 432.96,-266.24 435,-255 442.04,-216.32 445.07,-197.43 419,-168 382.66,-126.98 226.03,-91.28 147.4,-75.55"/>
<polygon fill="midnightblue" stroke="midnightblue" points="421.29,-286.28 420.36,-296.84 427.67,-289.17 421.29,-286.28"/>
</g>
<!-- Node14&#45;&gt;Node7 -->
<g id="edge21" class="edge">
<title>Node14&#45;&gt;Node7</title>
<path fill="none" stroke="midnightblue" d="M419.49,-286.55C423.73,-257.15 426.98,-200.54 397,-168 378.59,-148.02 311.42,-135.94 259.54,-129.4"/>
<polygon fill="midnightblue" stroke="midnightblue" points="415.99,-286.26 417.83,-296.7 422.9,-287.4 415.99,-286.26"/>
</g>
<!-- Node14&#45;&gt;Node12 -->
<g id="edge19" class="edge">
<title>Node14&#45;&gt;Node12</title>
<path fill="none" stroke="midnightblue" d="M386.75,-292.98C359.75,-281.42 320.4,-264.58 296.88,-254.51"/>
<polygon fill="midnightblue" stroke="midnightblue" points="385.51,-296.26 396.08,-296.98 388.27,-289.82 385.51,-296.26"/>
</g>
<!-- Node15&#45;&gt;Node9 -->
<g id="edge23" class="edge">
<title>Node15&#45;&gt;Node9</title>
<path fill="none" stroke="midnightblue" d="M255.65,-409.07C238.54,-398.46 218.2,-385.86 204.97,-377.66"/>
<polygon fill="midnightblue" stroke="midnightblue" points="253.91,-412.11 264.25,-414.4 257.59,-406.16 253.91,-412.11"/>
</g>
<!-- Node15&#45;&gt;Node14 -->
<g id="edge24" class="edge">
<title>Node15&#45;&gt;Node14</title>
<path fill="none" stroke="midnightblue" d="M309.61,-407.3C338.38,-380.3 386.76,-334.92 406.84,-316.09"/>
<polygon fill="midnightblue" stroke="midnightblue" points="306.95,-404.99 302.05,-414.38 311.74,-410.09 306.95,-404.99"/>
</g>
<!-- Node16&#45;&gt;Node3 -->
<g id="edge26" class="edge">
<title>Node16&#45;&gt;Node3</title>
<path fill="none" stroke="midnightblue" d="M281.17,-530.6C269.93,-520.32 257.01,-508.48 248.46,-500.66"/>
<polygon fill="midnightblue" stroke="midnightblue" points="278.86,-533.23 288.6,-537.4 283.58,-528.07 278.86,-533.23"/>
</g>
</g>
</svg>
