<?xml version="1.0" encoding="UTF-8" standalone="no"?>
<!DOCTYPE svg PUBLIC "-//W3C//DTD SVG 1.1//EN"
 "http://www.w3.org/Graphics/SVG/1.1/DTD/svg11.dtd">
<!-- Generated by graphviz version 2.43.0 (0)
 -->
<!-- Title: include/fire/io/ClassVersion.h Pages: 1 -->
<svg width="492pt" height="755pt"
 viewBox="0.00 0.00 492.00 755.00" xmlns="http://www.w3.org/2000/svg" xmlns:xlink="http://www.w3.org/1999/xlink">
<g id="graph0" class="graph" transform="scale(1 1) rotate(0) translate(4 751)">
<title>include/fire/io/ClassVersion.h</title>
<!-- Node1 -->
<g id="node1" class="node">
<title>Node1</title>
<g id="a_node1"><a xlink:title="Serialization class version deduction.">
<polygon fill="#bfbfbf" stroke="black" points="43.5,-727.5 43.5,-746.5 200.5,-746.5 200.5,-727.5 43.5,-727.5"/>
<text text-anchor="middle" x="122" y="-734.5" font-family="Helvetica,sans-Serif" font-size="10.00">include/fire/io/ClassVersion.h</text>
</a>
</g>
</g>
<!-- Node2 -->
<g id="node2" class="node">
<title>Node2</title>
<g id="a_node2"><a xlink:href="Event_8h_source.html" target="_top" xlink:title=" ">
<polygon fill="none" stroke="black" points="0,-297 0,-316 110,-316 110,-297 0,-297"/>
<text text-anchor="middle" x="55" y="-304" font-family="Helvetica,sans-Serif" font-size="10.00">include/fire/Event.h</text>
</a>
</g>
</g>
<!-- Node1&#45;&gt;Node2 -->
<g id="edge1" class="edge">
<title>Node1&#45;&gt;Node2</title>
<path fill="none" stroke="midnightblue" d="M106.01,-719.83C86.2,-697.99 55,-656.95 55,-615 55,-615 55,-615 55,-428.5 55,-386.28 55,-335.76 55,-316.01"/>
<polygon fill="midnightblue" stroke="midnightblue" points="103.56,-722.33 112.96,-727.22 108.66,-717.54 103.56,-722.33"/>
</g>
<!-- Node7 -->
<g id="node7" class="node">
<title>Node7</title>
<g id="a_node7"><a xlink:href="AbstractData_8h_source.html" target="_top" xlink:title=" ">
<polygon fill="none" stroke="black" points="131,-660.5 131,-690.5 257,-690.5 257,-660.5 131,-660.5"/>
<text text-anchor="start" x="139" y="-678.5" font-family="Helvetica,sans-Serif" font-size="10.00">include/fire/io/Abstract</text>
<text text-anchor="middle" x="194" y="-667.5" font-family="Helvetica,sans-Serif" font-size="10.00">Data.h</text>
</a>
</g>
</g>
<!-- Node1&#45;&gt;Node7 -->
<g id="edge7" class="edge">
<title>Node1&#45;&gt;Node7</title>
<path fill="none" stroke="midnightblue" d="M140.25,-720.92C151.55,-711.58 165.97,-699.66 177.03,-690.52"/>
<polygon fill="midnightblue" stroke="midnightblue" points="137.79,-718.41 132.32,-727.48 142.25,-723.8 137.79,-718.41"/>
</g>
<!-- Node3 -->
<g id="node3" class="node">
<title>Node3</title>
<g id="a_node3"><a xlink:href="Process_8h_source.html" target="_top" xlink:title=" ">
<polygon fill="none" stroke="black" points="42,-56.5 42,-75.5 162,-75.5 162,-56.5 42,-56.5"/>
<text text-anchor="middle" x="102" y="-63.5" font-family="Helvetica,sans-Serif" font-size="10.00">include/fire/Process.h</text>
</a>
</g>
</g>
<!-- Node2&#45;&gt;Node3 -->
<g id="edge2" class="edge">
<title>Node2&#45;&gt;Node3</title>
<path fill="none" stroke="midnightblue" d="M50.91,-287.08C49,-277.55 46.95,-265.71 46,-255 45.22,-246.15 45.47,-243.87 46,-235 47.78,-205.06 45.68,-196.81 54,-168 64.45,-131.82 86.63,-92.47 96.76,-75.54"/>
<polygon fill="midnightblue" stroke="midnightblue" points="47.51,-287.93 53.01,-296.98 54.36,-286.48 47.51,-287.93"/>
</g>
<!-- Node5 -->
<g id="node5" class="node">
<title>Node5</title>
<g id="a_node5"><a xlink:href="Processor_8h_source.html" target="_top" xlink:title=" ">
<polygon fill="none" stroke="black" points="130.5,-112.5 130.5,-131.5 259.5,-131.5 259.5,-112.5 130.5,-112.5"/>
<text text-anchor="middle" x="195" y="-119.5" font-family="Helvetica,sans-Serif" font-size="10.00">include/fire/Processor.h</text>
</a>
</g>
</g>
<!-- Node2&#45;&gt;Node5 -->
<g id="edge4" class="edge">
<title>Node2&#45;&gt;Node5</title>
<path fill="none" stroke="midnightblue" d="M51.89,-287.03C48.14,-258.28 45.42,-202.55 73,-168 88.28,-148.86 112.53,-137.86 135.39,-131.54"/>
<polygon fill="midnightblue" stroke="midnightblue" points="48.43,-287.56 53.37,-296.94 55.35,-286.53 48.43,-287.56"/>
</g>
<!-- Node4 -->
<g id="node4" class="node">
<title>Node4</title>
<g id="a_node4"><a xlink:href="fire_8cxx.html" target="_top" xlink:title="main definition for fire executable">
<polygon fill="none" stroke="black" points="65,-0.5 65,-19.5 139,-19.5 139,-0.5 65,-0.5"/>
<text text-anchor="middle" x="102" y="-7.5" font-family="Helvetica,sans-Serif" font-size="10.00">app/fire.cxx</text>
</a>
</g>
</g>
<!-- Node3&#45;&gt;Node4 -->
<g id="edge3" class="edge">
<title>Node3&#45;&gt;Node4</title>
<path fill="none" stroke="midnightblue" d="M102,-45.8C102,-36.91 102,-26.78 102,-19.75"/>
<polygon fill="midnightblue" stroke="midnightblue" points="98.5,-46.08 102,-56.08 105.5,-46.08 98.5,-46.08"/>
</g>
<!-- Node5&#45;&gt;Node3 -->
<g id="edge6" class="edge">
<title>Node5&#45;&gt;Node3</title>
<path fill="none" stroke="midnightblue" d="M171.19,-107.18C154.08,-97.24 131.53,-84.15 116.9,-75.65"/>
<polygon fill="midnightblue" stroke="midnightblue" points="169.65,-110.33 180.06,-112.32 173.17,-104.28 169.65,-110.33"/>
</g>
<!-- Node6 -->
<g id="node6" class="node">
<title>Node6</title>
<g id="a_node6"><a xlink:href="EventProcessor_8h.html" target="_top" xlink:title="Re&#45;interpretation of ROOT&#45;based framework code into fire.">
<polygon fill="none" stroke="black" points="180,-56.5 180,-75.5 376,-75.5 376,-56.5 180,-56.5"/>
<text text-anchor="middle" x="278" y="-63.5" font-family="Helvetica,sans-Serif" font-size="10.00">include/Framework/EventProcessor.h</text>
</a>
</g>
</g>
<!-- Node5&#45;&gt;Node6 -->
<g id="edge5" class="edge">
<title>Node5&#45;&gt;Node6</title>
<path fill="none" stroke="midnightblue" d="M217.1,-106.62C232.26,-96.76 251.88,-83.99 264.7,-75.65"/>
<polygon fill="midnightblue" stroke="midnightblue" points="214.81,-103.94 208.34,-112.32 218.63,-109.8 214.81,-103.94"/>
</g>
<!-- Node8 -->
<g id="node8" class="node">
<title>Node8</title>
<g id="a_node8"><a xlink:href="Data_8h_source.html" target="_top" xlink:title=" ">
<polygon fill="none" stroke="black" points="179,-481.5 179,-500.5 297,-500.5 297,-481.5 179,-481.5"/>
<text text-anchor="middle" x="238" y="-488.5" font-family="Helvetica,sans-Serif" font-size="10.00">include/fire/io/Data.h</text>
</a>
</g>
</g>
<!-- Node7&#45;&gt;Node8 -->
<g id="edge8" class="edge">
<title>Node7&#45;&gt;Node8</title>
<path fill="none" stroke="midnightblue" d="M194.65,-650.41C196.02,-622.47 200.2,-575.34 213,-537 217.53,-523.44 226.16,-509.25 232,-500.52"/>
<polygon fill="midnightblue" stroke="midnightblue" points="191.15,-650.32 194.25,-660.45 198.15,-650.6 191.15,-650.32"/>
</g>
<!-- Node16 -->
<g id="node16" class="node">
<title>Node16</title>
<g id="a_node16"><a xlink:href="Reader_8h_source.html" target="_top" xlink:title=" ">
<polygon fill="none" stroke="black" points="253,-604.5 253,-623.5 381,-623.5 381,-604.5 253,-604.5"/>
<text text-anchor="middle" x="317" y="-611.5" font-family="Helvetica,sans-Serif" font-size="10.00">include/fire/io/Reader.h</text>
</a>
</g>
</g>
<!-- Node7&#45;&gt;Node16 -->
<g id="edge26" class="edge">
<title>Node7&#45;&gt;Node16</title>
<path fill="none" stroke="midnightblue" d="M232.37,-655.94C254.65,-645.16 281.68,-632.08 299.1,-623.66"/>
<polygon fill="midnightblue" stroke="midnightblue" points="230.63,-652.89 223.15,-660.4 233.68,-659.2 230.63,-652.89"/>
</g>
<!-- Node8&#45;&gt;Node2 -->
<g id="edge9" class="edge">
<title>Node8&#45;&gt;Node2</title>
<path fill="none" stroke="midnightblue" d="M218.9,-474.7C193.43,-453.93 147.43,-415.12 112,-378 92.01,-357.05 71.31,-329.79 61.25,-316.12"/>
<polygon fill="midnightblue" stroke="midnightblue" points="217.03,-477.69 227.01,-481.27 221.44,-472.25 217.03,-477.69"/>
</g>
<!-- Node9 -->
<g id="node9" class="node">
<title>Node9</title>
<g id="a_node9"><a xlink:href="EventHeader_8h_source.html" target="_top" xlink:title=" ">
<polygon fill="none" stroke="black" points="121.5,-358.5 121.5,-377.5 266.5,-377.5 266.5,-358.5 121.5,-358.5"/>
<text text-anchor="middle" x="194" y="-365.5" font-family="Helvetica,sans-Serif" font-size="10.00">include/fire/EventHeader.h</text>
</a>
</g>
</g>
<!-- Node8&#45;&gt;Node9 -->
<g id="edge10" class="edge">
<title>Node8&#45;&gt;Node9</title>
<path fill="none" stroke="midnightblue" d="M231.35,-471.7C221.71,-445.2 204.24,-397.17 197.14,-377.62"/>
<polygon fill="midnightblue" stroke="midnightblue" points="228.13,-473.1 234.84,-481.3 234.71,-470.7 228.13,-473.1"/>
</g>
<!-- Node14 -->
<g id="node14" class="node">
<title>Node14</title>
<g id="a_node14"><a xlink:href="RunHeader_8h_source.html" target="_top" xlink:title=" ">
<polygon fill="none" stroke="black" points="348,-297 348,-316 484,-316 484,-297 348,-297"/>
<text text-anchor="middle" x="416" y="-304" font-family="Helvetica,sans-Serif" font-size="10.00">include/fire/RunHeader.h</text>
</a>
</g>
</g>
<!-- Node8&#45;&gt;Node14 -->
<g id="edge19" class="edge">
<title>Node8&#45;&gt;Node14</title>
<path fill="none" stroke="midnightblue" d="M253.94,-473.66C290.55,-436.13 379.61,-344.81 407.5,-316.21"/>
<polygon fill="midnightblue" stroke="midnightblue" points="251.06,-471.6 246.59,-481.2 256.07,-476.48 251.06,-471.6"/>
</g>
<!-- Node15 -->
<g id="node15" class="node">
<title>Node15</title>
<g id="a_node15"><a xlink:href="ParameterStorage_8h_source.html" target="_top" xlink:title=" ">
<polygon fill="none" stroke="black" points="323,-414.5 323,-444.5 459,-444.5 459,-414.5 323,-414.5"/>
<text text-anchor="start" x="331" y="-432.5" font-family="Helvetica,sans-Serif" font-size="10.00">include/fire/io/Parameter</text>
<text text-anchor="middle" x="391" y="-421.5" font-family="Helvetica,sans-Serif" font-size="10.00">Storage.h</text>
</a>
</g>
</g>
<!-- Node8&#45;&gt;Node15 -->
<g id="edge23" class="edge">
<title>Node8&#45;&gt;Node15</title>
<path fill="none" stroke="midnightblue" d="M269.25,-477.85C294.1,-468.18 328.91,-454.65 354.94,-444.52"/>
<polygon fill="midnightblue" stroke="midnightblue" points="267.97,-474.59 259.92,-481.48 270.51,-481.11 267.97,-474.59"/>
</g>
<!-- Node9&#45;&gt;Node2 -->
<g id="edge18" class="edge">
<title>Node9&#45;&gt;Node2</title>
<path fill="none" stroke="midnightblue" d="M164.75,-354.48C137.75,-342.92 98.4,-326.08 74.88,-316.01"/>
<polygon fill="midnightblue" stroke="midnightblue" points="163.51,-357.76 174.08,-358.48 166.27,-351.32 163.51,-357.76"/>
</g>
<!-- Node10 -->
<g id="node10" class="node">
<title>Node10</title>
<g id="a_node10"><a xlink:href="Conditions_8h_source.html" target="_top" xlink:title=" ">
<polygon fill="none" stroke="black" points="82,-174 82,-193 216,-193 216,-174 82,-174"/>
<text text-anchor="middle" x="149" y="-181" font-family="Helvetica,sans-Serif" font-size="10.00">include/fire/Conditions.h</text>
</a>
</g>
</g>
<!-- Node9&#45;&gt;Node10 -->
<g id="edge11" class="edge">
<title>Node9&#45;&gt;Node10</title>
<path fill="none" stroke="midnightblue" d="M176.94,-351.35C169.41,-343.37 161.31,-333.02 157,-322 139.13,-276.35 144.75,-215.64 147.7,-193.26"/>
<polygon fill="midnightblue" stroke="midnightblue" points="174.55,-353.92 184.11,-358.49 179.49,-348.96 174.55,-353.92"/>
</g>
<!-- Node11 -->
<g id="node11" class="node">
<title>Node11</title>
<g id="a_node11"><a xlink:href="ConditionsIntervalOfValidity_8h_source.html" target="_top" xlink:title=" ">
<polygon fill="none" stroke="black" points="166.5,-291.5 166.5,-321.5 329.5,-321.5 329.5,-291.5 166.5,-291.5"/>
<text text-anchor="start" x="174.5" y="-309.5" font-family="Helvetica,sans-Serif" font-size="10.00">include/fire/ConditionsInterval</text>
<text text-anchor="middle" x="248" y="-298.5" font-family="Helvetica,sans-Serif" font-size="10.00">OfValidity.h</text>
</a>
</g>
</g>
<!-- Node9&#45;&gt;Node11 -->
<g id="edge14" class="edge">
<title>Node9&#45;&gt;Node11</title>
<path fill="none" stroke="midnightblue" d="M208.69,-350.81C217.01,-341.65 227.3,-330.3 235.27,-321.52"/>
<polygon fill="midnightblue" stroke="midnightblue" points="205.87,-348.72 201.74,-358.48 211.05,-353.42 205.87,-348.72"/>
</g>
<!-- Node10&#45;&gt;Node3 -->
<g id="edge12" class="edge">
<title>Node10&#45;&gt;Node3</title>
<path fill="none" stroke="midnightblue" d="M138.05,-165.03C132.42,-155.52 125.76,-143.4 121,-132 112.85,-112.47 106.77,-88.27 103.87,-75.62"/>
<polygon fill="midnightblue" stroke="midnightblue" points="135.24,-167.14 143.43,-173.86 141.22,-163.5 135.24,-167.14"/>
</g>
<!-- Node10&#45;&gt;Node5 -->
<g id="edge13" class="edge">
<title>Node10&#45;&gt;Node5</title>
<path fill="none" stroke="midnightblue" d="M161.88,-165.84C170.52,-154.67 181.53,-140.43 188.42,-131.51"/>
<polygon fill="midnightblue" stroke="midnightblue" points="158.94,-163.92 155.59,-173.98 164.48,-168.2 158.94,-163.92"/>
</g>
<!-- Node12 -->
<g id="node12" class="node">
<title>Node12</title>
<g id="a_node12"><a xlink:href="ConditionsProvider_8h_source.html" target="_top" xlink:title=" ">
<polygon fill="none" stroke="black" points="190,-235.5 190,-254.5 364,-254.5 364,-235.5 190,-235.5"/>
<text text-anchor="middle" x="277" y="-242.5" font-family="Helvetica,sans-Serif" font-size="10.00">include/fire/ConditionsProvider.h</text>
</a>
</g>
</g>
<!-- Node11&#45;&gt;Node12 -->
<g id="edge15" class="edge">
<title>Node11&#45;&gt;Node12</title>
<path fill="none" stroke="midnightblue" d="M259.36,-282.2C264.07,-272.52 269.26,-261.88 272.78,-254.66"/>
<polygon fill="midnightblue" stroke="midnightblue" points="256.11,-280.88 254.87,-291.4 262.4,-283.94 256.11,-280.88"/>
</g>
<!-- Node12&#45;&gt;Node10 -->
<g id="edge16" class="edge">
<title>Node12&#45;&gt;Node10</title>
<path fill="none" stroke="midnightblue" d="M249.41,-231.17C224.57,-219.63 188.77,-202.99 167.31,-193.01"/>
<polygon fill="midnightblue" stroke="midnightblue" points="248.12,-234.43 258.66,-235.48 251.07,-228.09 248.12,-234.43"/>
</g>
<!-- Node13 -->
<g id="node13" class="node">
<title>Node13</title>
<g id="a_node13"><a xlink:href="RandomNumberSeedService_8h.html" target="_top" xlink:title="Conditions object for random number seeds.">
<polygon fill="none" stroke="black" points="234.5,-168.5 234.5,-198.5 387.5,-198.5 387.5,-168.5 234.5,-168.5"/>
<text text-anchor="start" x="242.5" y="-186.5" font-family="Helvetica,sans-Serif" font-size="10.00">include/fire/RandomNumber</text>
<text text-anchor="middle" x="311" y="-175.5" font-family="Helvetica,sans-Serif" font-size="10.00">SeedService.h</text>
</a>
</g>
</g>
<!-- Node12&#45;&gt;Node13 -->
<g id="edge17" class="edge">
<title>Node12&#45;&gt;Node13</title>
<path fill="none" stroke="midnightblue" d="M286.9,-226.68C292.01,-217.73 298.17,-206.94 302.99,-198.52"/>
<polygon fill="midnightblue" stroke="midnightblue" points="283.79,-225.06 281.87,-235.48 289.87,-228.53 283.79,-225.06"/>
</g>
<!-- Node14&#45;&gt;Node3 -->
<g id="edge21" class="edge">
<title>Node14&#45;&gt;Node3</title>
<path fill="none" stroke="midnightblue" d="M424.5,-287.7C428.55,-278.22 432.96,-266.24 435,-255 442.04,-216.32 445.04,-197.45 419,-168 382.7,-126.94 226.06,-91.26 147.41,-75.54"/>
<polygon fill="midnightblue" stroke="midnightblue" points="421.29,-286.28 420.36,-296.84 427.67,-289.17 421.29,-286.28"/>
</g>
<!-- Node14&#45;&gt;Node5 -->
<g id="edge22" class="edge">
<title>Node14&#45;&gt;Node5</title>
<path fill="none" stroke="midnightblue" d="M419.49,-286.55C423.73,-257.15 426.98,-200.54 397,-168 378.59,-148.02 311.42,-135.94 259.54,-129.4"/>
<polygon fill="midnightblue" stroke="midnightblue" points="415.99,-286.26 417.83,-296.7 422.9,-287.4 415.99,-286.26"/>
</g>
<!-- Node14&#45;&gt;Node12 -->
<g id="edge20" class="edge">
<title>Node14&#45;&gt;Node12</title>
<path fill="none" stroke="midnightblue" d="M386.75,-292.98C359.75,-281.42 320.4,-264.58 296.88,-254.51"/>
<polygon fill="midnightblue" stroke="midnightblue" points="385.51,-296.26 396.08,-296.98 388.27,-289.82 385.51,-296.26"/>
</g>
<!-- Node15&#45;&gt;Node9 -->
<g id="edge24" class="edge">
<title>Node15&#45;&gt;Node9</title>
<path fill="none" stroke="midnightblue" d="M334.72,-411.5C298,-400.41 251.62,-386.4 222.38,-377.57"/>
<polygon fill="midnightblue" stroke="midnightblue" points="333.73,-414.86 344.31,-414.4 335.75,-408.16 333.73,-414.86"/>
</g>
<!-- Node15&#45;&gt;Node14 -->
<g id="edge25" class="edge">
<title>Node15&#45;&gt;Node14</title>
<path fill="none" stroke="midnightblue" d="M396.02,-404.2C401.65,-376.94 410.49,-334.16 414.23,-316.05"/>
<polygon fill="midnightblue" stroke="midnightblue" points="392.56,-403.64 393.97,-414.14 399.42,-405.06 392.56,-403.64"/>
</g>
<!-- Node16&#45;&gt;Node15 -->
<g id="edge27" class="edge">
<title>Node16&#45;&gt;Node15</title>
<path fill="none" stroke="midnightblue" d="M324.37,-594.83C339.11,-558.48 371.95,-477.49 385.24,-444.69"/>
<polygon fill="midnightblue" stroke="midnightblue" points="321.08,-593.62 320.57,-604.2 327.57,-596.25 321.08,-593.62"/>
</g>
<!-- Node17 -->
<g id="node17" class="node">
<title>Node17</title>
<g id="a_node17"><a xlink:href="h5_2Reader_8h_source.html" target="_top" xlink:title=" ">
<polygon fill="none" stroke="black" points="222,-537.5 222,-567.5 320,-567.5 320,-537.5 222,-537.5"/>
<text text-anchor="start" x="230" y="-555.5" font-family="Helvetica,sans-Serif" font-size="10.00">include/fire/io/h5</text>
<text text-anchor="middle" x="271" y="-544.5" font-family="Helvetica,sans-Serif" font-size="10.00">/Reader.h</text>
</a>
</g>
</g>
<!-- Node16&#45;&gt;Node17 -->
<g id="edge28" class="edge">
<title>Node16&#45;&gt;Node17</title>
<path fill="none" stroke="midnightblue" d="M304.27,-596.53C297.22,-587.42 288.56,-576.21 281.84,-567.52"/>
<polygon fill="midnightblue" stroke="midnightblue" points="301.52,-598.7 310.41,-604.48 307.06,-594.42 301.52,-598.7"/>
</g>
<!-- Node18 -->
<g id="node18" class="node">
<title>Node18</title>
<g id="a_node18"><a xlink:href="root_2Reader_8h_source.html" target="_top" xlink:title=" ">
<polygon fill="none" stroke="black" points="376.5,-537.5 376.5,-567.5 481.5,-567.5 481.5,-537.5 376.5,-537.5"/>
<text text-anchor="start" x="384.5" y="-555.5" font-family="Helvetica,sans-Serif" font-size="10.00">include/fire/io/root</text>
<text text-anchor="middle" x="429" y="-544.5" font-family="Helvetica,sans-Serif" font-size="10.00">/Reader.h</text>
</a>
</g>
</g>
<!-- Node16&#45;&gt;Node18 -->
<g id="edge30" class="edge">
<title>Node16&#45;&gt;Node18</title>
<path fill="none" stroke="midnightblue" d="M342.33,-599.54C360.31,-589.99 384.39,-577.2 402.6,-567.52"/>
<polygon fill="midnightblue" stroke="midnightblue" points="340.24,-596.69 333.05,-604.48 343.52,-602.87 340.24,-596.69"/>
</g>
<!-- Node17&#45;&gt;Node8 -->
<g id="edge29" class="edge">
<title>Node17&#45;&gt;Node8</title>
<path fill="none" stroke="midnightblue" d="M258.24,-528.5C252.83,-518.74 246.85,-507.96 242.8,-500.66"/>
<polygon fill="midnightblue" stroke="midnightblue" points="255.27,-530.35 263.18,-537.4 261.39,-526.96 255.27,-530.35"/>
</g>
</g>
</svg>
