<?xml version="1.0" encoding="UTF-8" standalone="no"?>
<!DOCTYPE svg PUBLIC "-//W3C//DTD SVG 1.1//EN"
 "http://www.w3.org/Graphics/SVG/1.1/DTD/svg11.dtd">
<!-- Generated by graphviz version 2.43.0 (0)
 -->
<!-- Title: fire::io::Data&lt; ParameterStorage &gt; Pages: 1 -->
<svg width="242pt" height="309pt"
 viewBox="0.00 0.00 241.50 309.00" xmlns="http://www.w3.org/2000/svg" xmlns:xlink="http://www.w3.org/1999/xlink">
<g id="graph0" class="graph" transform="scale(1 1) rotate(0) translate(4 305)">
<title>fire::io::Data&lt; ParameterStorage &gt;</title>
<!-- Node1 -->
<g id="node1" class="node">
<title>Node1</title>
<g id="a_node1"><a xlink:title="io::Data specialization for ParameterStorage">
<polygon fill="#bfbfbf" stroke="black" points="57.5,-0.5 57.5,-30.5 195.5,-30.5 195.5,-0.5 57.5,-0.5"/>
<text text-anchor="start" x="65.5" y="-18.5" font-family="Helvetica,sans-Serif" font-size="10.00">fire::io::Data&lt; Parameter</text>
<text text-anchor="middle" x="126.5" y="-7.5" font-family="Helvetica,sans-Serif" font-size="10.00">Storage &gt;</text>
</a>
</g>
</g>
<!-- Node2 -->
<g id="node2" class="node">
<title>Node2</title>
<g id="a_node2"><a xlink:href="classfire_1_1io_1_1AbstractData.html" target="_top" xlink:title=" ">
<polygon fill="none" stroke="black" points="0,-78.5 0,-108.5 127,-108.5 127,-78.5 0,-78.5"/>
<text text-anchor="start" x="8" y="-96.5" font-family="Helvetica,sans-Serif" font-size="10.00">fire::io::AbstractData</text>
<text text-anchor="middle" x="63.5" y="-85.5" font-family="Helvetica,sans-Serif" font-size="10.00">&lt; ParameterStorage &gt;</text>
</a>
</g>
</g>
<!-- Node2&#45;&gt;Node1 -->
<g id="edge1" class="edge">
<title>Node2&#45;&gt;Node1</title>
<path fill="none" stroke="midnightblue" d="M81.9,-70.31C92.49,-57.53 105.48,-41.86 114.7,-30.73"/>
<polygon fill="midnightblue" stroke="midnightblue" points="79.04,-68.27 75.35,-78.2 84.43,-72.74 79.04,-68.27"/>
</g>
<!-- Node3 -->
<g id="node3" class="node">
<title>Node3</title>
<g id="a_node3"><a xlink:href="classfire_1_1io_1_1BaseData.html" target="_top" xlink:title="Empty data base allowing recursion.">
<polygon fill="none" stroke="black" points="13,-146.5 13,-165.5 114,-165.5 114,-146.5 13,-146.5"/>
<text text-anchor="middle" x="63.5" y="-153.5" font-family="Helvetica,sans-Serif" font-size="10.00">fire::io::BaseData</text>
</a>
</g>
</g>
<!-- Node3&#45;&gt;Node2 -->
<g id="edge2" class="edge">
<title>Node3&#45;&gt;Node2</title>
<path fill="none" stroke="midnightblue" d="M63.5,-136.22C63.5,-127.36 63.5,-116.96 63.5,-108.76"/>
<polygon fill="midnightblue" stroke="midnightblue" points="60,-136.33 63.5,-146.33 67,-136.33 60,-136.33"/>
</g>
<!-- Node4 -->
<g id="node4" class="node">
<title>Node4</title>
<g id="a_node4"><a target="_parent" xlink:href="http://en.cppreference.com/w/cpp/string/basic_string.html" xlink:title=" ">
<polygon fill="none" stroke="black" points="31,-213.5 31,-232.5 96,-232.5 96,-213.5 31,-213.5"/>
<text text-anchor="middle" x="63.5" y="-220.5" font-family="Helvetica,sans-Serif" font-size="10.00">std::string</text>
</a>
</g>
</g>
<!-- Node4&#45;&gt;Node3 -->
<g id="edge3" class="edge">
<title>Node4&#45;&gt;Node3</title>
<path fill="none" stroke="#9a32cd" stroke-dasharray="5,2" d="M63.5,-203.04C63.5,-190.67 63.5,-175.12 63.5,-165.63"/>
<polygon fill="#9a32cd" stroke="#9a32cd" points="60,-203.23 63.5,-213.23 67,-203.23 60,-203.23"/>
<text text-anchor="middle" x="79" y="-187" font-family="Helvetica,sans-Serif" font-size="10.00"> path_</text>
</g>
<!-- Node5 -->
<g id="node5" class="node">
<title>Node5</title>
<g id="a_node5"><a target="_parent" xlink:href="http://en.cppreference.com/w/cpp/string/basic_string.html" xlink:title=" ">
<polygon fill="none" stroke="black" points="11.5,-270.5 11.5,-300.5 115.5,-300.5 115.5,-270.5 11.5,-270.5"/>
<text text-anchor="start" x="19.5" y="-288.5" font-family="Helvetica,sans-Serif" font-size="10.00">std::basic_string&lt;</text>
<text text-anchor="middle" x="63.5" y="-277.5" font-family="Helvetica,sans-Serif" font-size="10.00"> char &gt;</text>
</a>
</g>
</g>
<!-- Node5&#45;&gt;Node4 -->
<g id="edge4" class="edge">
<title>Node5&#45;&gt;Node4</title>
<path fill="none" stroke="midnightblue" d="M63.5,-260.35C63.5,-250.51 63.5,-239.78 63.5,-232.54"/>
<polygon fill="midnightblue" stroke="midnightblue" points="60,-260.47 63.5,-270.47 67,-260.47 60,-260.47"/>
</g>
<!-- Node6 -->
<g id="node6" class="node">
<title>Node6</title>
<g id="a_node6"><a xlink:href="classfire_1_1io_1_1Reader.html" target="_top" xlink:title="Prototype for reading files within fire.">
<polygon fill="none" stroke="black" points="145.5,-84 145.5,-103 233.5,-103 233.5,-84 145.5,-84"/>
<text text-anchor="middle" x="189.5" y="-91" font-family="Helvetica,sans-Serif" font-size="10.00">fire::io::Reader</text>
</a>
</g>
</g>
<!-- Node6&#45;&gt;Node1 -->
<g id="edge5" class="edge">
<title>Node6&#45;&gt;Node1</title>
<path fill="none" stroke="#9a32cd" stroke-dasharray="5,2" d="M175.62,-75.75C164.37,-62.19 148.71,-43.3 138.12,-30.52"/>
<polygon fill="#9a32cd" stroke="#9a32cd" points="173.2,-78.32 182.27,-83.78 178.59,-73.85 173.2,-78.32"/>
<text text-anchor="middle" x="188.5" y="-52" font-family="Helvetica,sans-Serif" font-size="10.00"> input_file_</text>
</g>
</g>
</svg>
