<?xml version="1.0" encoding="UTF-8" standalone="no"?>
<!DOCTYPE svg PUBLIC "-//W3C//DTD SVG 1.1//EN"
 "http://www.w3.org/Graphics/SVG/1.1/DTD/svg11.dtd">
<!-- Generated by graphviz version 2.43.0 (0)
 -->
<!-- Title: fire::Producer Pages: 1 -->
<svg width="1016pt" height="287pt"
 viewBox="0.00 0.00 1016.00 287.00" xmlns="http://www.w3.org/2000/svg" xmlns:xlink="http://www.w3.org/1999/xlink">
<g id="graph0" class="graph" transform="scale(1 1) rotate(0) translate(4 283)">
<title>fire::Producer</title>
<!-- Node1 -->
<g id="node1" class="node">
<title>Node1</title>
<g id="a_node1"><a xlink:title="Base class for a module which produces a data product.">
<polygon fill="#bfbfbf" stroke="black" points="927,-117.5 927,-136.5 1008,-136.5 1008,-117.5 927,-117.5"/>
<text text-anchor="middle" x="967.5" y="-124.5" font-family="Helvetica,sans-Serif" font-size="10.00">fire::Producer</text>
</a>
</g>
</g>
<!-- Node2 -->
<g id="node2" class="node">
<title>Node2</title>
<g id="a_node2"><a xlink:href="classfire_1_1Processor.html" target="_top" xlink:title="Base class for all event processing components.">
<polygon fill="none" stroke="black" points="802,-117.5 802,-136.5 888,-136.5 888,-117.5 802,-117.5"/>
<text text-anchor="middle" x="845" y="-124.5" font-family="Helvetica,sans-Serif" font-size="10.00">fire::Processor</text>
</a>
</g>
</g>
<!-- Node2&#45;&gt;Node1 -->
<g id="edge1" class="edge">
<title>Node2&#45;&gt;Node1</title>
<path fill="none" stroke="midnightblue" d="M898.29,-127C907.78,-127 917.54,-127 926.61,-127"/>
<polygon fill="midnightblue" stroke="midnightblue" points="898.15,-123.5 888.15,-127 898.15,-130.5 898.15,-123.5"/>
</g>
<!-- Node3 -->
<g id="node3" class="node">
<title>Node3</title>
<g id="a_node3"><a xlink:title=" ">
<polygon fill="none" stroke="#bfbfbf" points="180.5,-93.5 180.5,-112.5 245.5,-112.5 245.5,-93.5 180.5,-93.5"/>
<text text-anchor="middle" x="213" y="-100.5" font-family="Helvetica,sans-Serif" font-size="10.00">std::string</text>
</a>
</g>
</g>
<!-- Node3&#45;&gt;Node2 -->
<g id="edge2" class="edge">
<title>Node3&#45;&gt;Node2</title>
<path fill="none" stroke="#9a32cd" stroke-dasharray="5,2" d="M255.77,-104.59C370.09,-108.95 687.14,-121.02 801.87,-125.4"/>
<polygon fill="#9a32cd" stroke="#9a32cd" points="255.8,-101.09 245.67,-104.21 255.53,-108.08 255.8,-101.09"/>
<text text-anchor="middle" x="568.5" y="-121" font-family="Helvetica,sans-Serif" font-size="10.00"> name_</text>
</g>
<!-- Node9 -->
<g id="node9" class="node">
<title>Node9</title>
<g id="a_node9"><a xlink:href="classfire_1_1Event.html" target="_top" xlink:title="Event class for interfacing with processors.">
<polygon fill="none" stroke="black" points="419.5,-160.5 419.5,-179.5 485.5,-179.5 485.5,-160.5 419.5,-160.5"/>
<text text-anchor="middle" x="452.5" y="-167.5" font-family="Helvetica,sans-Serif" font-size="10.00">fire::Event</text>
</a>
</g>
</g>
<!-- Node3&#45;&gt;Node9 -->
<g id="edge12" class="edge">
<title>Node3&#45;&gt;Node9</title>
<path fill="none" stroke="#9a32cd" stroke-dasharray="5,2" d="M255.33,-114.66C302.01,-127.83 376.99,-148.98 419.45,-160.96"/>
<polygon fill="#9a32cd" stroke="#9a32cd" points="256.11,-111.24 245.54,-111.9 254.21,-117.98 256.11,-111.24"/>
<text text-anchor="middle" x="341" y="-151" font-family="Helvetica,sans-Serif" font-size="10.00"> pass_</text>
</g>
<!-- Node11 -->
<g id="node11" class="node">
<title>Node11</title>
<g id="a_node11"><a xlink:href="classfire_1_1RunHeader.html" target="_top" xlink:title="Container for run parameters.">
<polygon fill="none" stroke="black" points="406.5,-34.5 406.5,-53.5 498.5,-53.5 498.5,-34.5 406.5,-34.5"/>
<text text-anchor="middle" x="452.5" y="-41.5" font-family="Helvetica,sans-Serif" font-size="10.00">fire::RunHeader</text>
</a>
</g>
</g>
<!-- Node3&#45;&gt;Node11 -->
<g id="edge14" class="edge">
<title>Node3&#45;&gt;Node11</title>
<path fill="none" stroke="#9a32cd" stroke-dasharray="5,2" d="M232.13,-86.65C249.07,-72.54 275.78,-53.19 303,-45 336.58,-34.9 376.39,-35.25 406.34,-37.8"/>
<polygon fill="#9a32cd" stroke="#9a32cd" points="229.51,-84.28 224.21,-93.46 234.07,-89.59 229.51,-84.28"/>
<text text-anchor="middle" x="341" y="-81" font-family="Helvetica,sans-Serif" font-size="10.00"> NAME</text>
<text text-anchor="middle" x="341" y="-70" font-family="Helvetica,sans-Serif" font-size="10.00">description_</text>
<text text-anchor="middle" x="341" y="-59" font-family="Helvetica,sans-Serif" font-size="10.00">detectorName_</text>
<text text-anchor="middle" x="341" y="-48" font-family="Helvetica,sans-Serif" font-size="10.00">softwareTag_</text>
</g>
<!-- Node4 -->
<g id="node4" class="node">
<title>Node4</title>
<g id="a_node4"><a xlink:title=" ">
<polygon fill="none" stroke="#bfbfbf" points="0,-88 0,-118 104,-118 104,-88 0,-88"/>
<text text-anchor="start" x="8" y="-106" font-family="Helvetica,sans-Serif" font-size="10.00">std::basic_string&lt;</text>
<text text-anchor="middle" x="52" y="-95" font-family="Helvetica,sans-Serif" font-size="10.00"> Char &gt;</text>
</a>
</g>
</g>
<!-- Node4&#45;&gt;Node3 -->
<g id="edge3" class="edge">
<title>Node4&#45;&gt;Node3</title>
<path fill="none" stroke="midnightblue" d="M114.37,-103C136.91,-103 161.5,-103 180.37,-103"/>
<polygon fill="midnightblue" stroke="midnightblue" points="114.18,-99.5 104.18,-103 114.18,-106.5 114.18,-99.5"/>
</g>
<!-- Node5 -->
<g id="node5" class="node">
<title>Node5</title>
<g id="a_node5"><a xlink:href="classfire_1_1Process.html" target="_top" xlink:title=" ">
<polygon fill="none" stroke="black" points="629,-160.5 629,-179.5 705,-179.5 705,-160.5 629,-160.5"/>
<text text-anchor="middle" x="667" y="-167.5" font-family="Helvetica,sans-Serif" font-size="10.00">fire::Process</text>
</a>
</g>
</g>
<!-- Node5&#45;&gt;Node2 -->
<g id="edge4" class="edge">
<title>Node5&#45;&gt;Node2</title>
<path fill="none" stroke="#9a32cd" stroke-dasharray="5,2" d="M707.23,-157.41C712.51,-155.85 717.87,-154.34 723,-153 748.98,-146.21 778.44,-139.85 801.79,-135.12"/>
<polygon fill="#9a32cd" stroke="#9a32cd" points="705.82,-154.18 697.26,-160.43 707.85,-160.88 705.82,-154.18"/>
<text text-anchor="middle" x="752.5" y="-156" font-family="Helvetica,sans-Serif" font-size="10.00"> process_</text>
</g>
<!-- Node8 -->
<g id="node8" class="node">
<title>Node8</title>
<g id="a_node8"><a xlink:href="classfire_1_1Conditions.html" target="_top" xlink:title="Container and cache for conditions and conditions providers.">
<polygon fill="none" stroke="black" points="800,-169.5 800,-188.5 890,-188.5 890,-169.5 800,-169.5"/>
<text text-anchor="middle" x="845" y="-176.5" font-family="Helvetica,sans-Serif" font-size="10.00">fire::Conditions</text>
</a>
</g>
</g>
<!-- Node5&#45;&gt;Node8 -->
<g id="edge8" class="edge">
<title>Node5&#45;&gt;Node8</title>
<path fill="none" stroke="#9a32cd" stroke-dasharray="5,2" d="M715.33,-169.08C717.92,-169.05 720.49,-169.02 723,-169 749.22,-168.76 755.86,-166.91 782,-169 787.76,-169.46 793.79,-170.16 799.74,-170.98"/>
<polygon fill="#9a32cd" stroke="#9a32cd" points="715.22,-165.59 705.28,-169.23 715.33,-172.58 715.22,-165.59"/>
<text text-anchor="middle" x="752.5" y="-172" font-family="Helvetica,sans-Serif" font-size="10.00"> process_</text>
</g>
<!-- Node6 -->
<g id="node6" class="node">
<title>Node6</title>
<g id="a_node6"><a xlink:href="classfire_1_1h5_1_1Writer.html" target="_top" xlink:title="Write the fire DataSets into a deterministic structure in the output HDF5 data file.">
<polygon fill="none" stroke="black" points="170,-209.5 170,-228.5 256,-228.5 256,-209.5 170,-209.5"/>
<text text-anchor="middle" x="213" y="-216.5" font-family="Helvetica,sans-Serif" font-size="10.00">fire::h5::Writer</text>
</a>
</g>
</g>
<!-- Node6&#45;&gt;Node5 -->
<g id="edge5" class="edge">
<title>Node6&#45;&gt;Node5</title>
<path fill="none" stroke="#9a32cd" stroke-dasharray="5,2" d="M266.28,-219.12C298.76,-218.86 341.36,-217.88 379,-215 482.67,-207.06 509.05,-205.39 611,-185 618.47,-183.51 626.43,-181.55 633.89,-179.55"/>
<polygon fill="#9a32cd" stroke="#9a32cd" points="266.09,-215.63 256.11,-219.19 266.13,-222.63 266.09,-215.63"/>
<text text-anchor="middle" x="452.5" y="-216" font-family="Helvetica,sans-Serif" font-size="10.00"> output_file_</text>
</g>
<!-- Node6&#45;&gt;Node9 -->
<g id="edge11" class="edge">
<title>Node6&#45;&gt;Node9</title>
<path fill="none" stroke="#9a32cd" stroke-dasharray="5,2" d="M266.12,-208.25C312.83,-198.61 379.87,-184.78 419.23,-176.66"/>
<polygon fill="#9a32cd" stroke="#9a32cd" points="265.27,-204.85 256.19,-210.3 266.69,-211.7 265.27,-204.85"/>
<text text-anchor="middle" x="341" y="-203" font-family="Helvetica,sans-Serif" font-size="10.00"> output_file_</text>
</g>
<!-- Node7 -->
<g id="node7" class="node">
<title>Node7</title>
<g id="a_node7"><a xlink:href="classfire_1_1StorageControl.html" target="_top" xlink:title="Isolation of voting system deciding if events should be kept.">
<polygon fill="none" stroke="black" points="397,-259.5 397,-278.5 508,-278.5 508,-259.5 397,-259.5"/>
<text text-anchor="middle" x="452.5" y="-266.5" font-family="Helvetica,sans-Serif" font-size="10.00">fire::StorageControl</text>
</a>
</g>
</g>
<!-- Node7&#45;&gt;Node5 -->
<g id="edge6" class="edge">
<title>Node7&#45;&gt;Node5</title>
<path fill="none" stroke="#9a32cd" stroke-dasharray="5,2" d="M518.03,-269.72C548.14,-267.42 583.34,-260.75 611,-244 636.74,-228.41 654.34,-195.81 661.87,-179.59"/>
<polygon fill="#9a32cd" stroke="#9a32cd" points="517.79,-266.23 508.03,-270.34 518.23,-273.22 517.79,-266.23"/>
<text text-anchor="middle" x="568.5" y="-271" font-family="Helvetica,sans-Serif" font-size="10.00"> storage_control_</text>
</g>
<!-- Node8&#45;&gt;Node5 -->
<g id="edge7" class="edge">
<title>Node8&#45;&gt;Node5</title>
<path fill="none" stroke="#9a32cd" stroke-dasharray="5,2" d="M789.91,-183.38C768.96,-184.29 744.81,-184.35 723,-182 717.17,-181.37 711.05,-180.38 705.1,-179.23"/>
<polygon fill="#9a32cd" stroke="#9a32cd" points="790.1,-186.88 799.92,-182.88 789.75,-179.89 790.1,-186.88"/>
<text text-anchor="middle" x="752.5" y="-186" font-family="Helvetica,sans-Serif" font-size="10.00"> conditions_</text>
</g>
<!-- Node9&#45;&gt;Node5 -->
<g id="edge9" class="edge">
<title>Node9&#45;&gt;Node5</title>
<path fill="none" stroke="#9a32cd" stroke-dasharray="5,2" d="M496.22,-170C535.04,-170 591.75,-170 628.76,-170"/>
<polygon fill="#9a32cd" stroke="#9a32cd" points="495.77,-166.5 485.77,-170 495.77,-173.5 495.77,-166.5"/>
<text text-anchor="middle" x="568.5" y="-173" font-family="Helvetica,sans-Serif" font-size="10.00"> event_</text>
</g>
<!-- Node10 -->
<g id="node10" class="node">
<title>Node10</title>
<g id="a_node10"><a xlink:href="classfire_1_1h5_1_1Reader.html" target="_top" xlink:title="Reading a file generated by fire.">
<polygon fill="none" stroke="black" points="167.5,-160.5 167.5,-179.5 258.5,-179.5 258.5,-160.5 167.5,-160.5"/>
<text text-anchor="middle" x="213" y="-167.5" font-family="Helvetica,sans-Serif" font-size="10.00">fire::h5::Reader</text>
</a>
</g>
</g>
<!-- Node10&#45;&gt;Node9 -->
<g id="edge10" class="edge">
<title>Node10&#45;&gt;Node9</title>
<path fill="none" stroke="#9a32cd" stroke-dasharray="5,2" d="M268.89,-170C315.44,-170 380.63,-170 419.21,-170"/>
<polygon fill="#9a32cd" stroke="#9a32cd" points="268.67,-166.5 258.67,-170 268.67,-173.5 268.67,-166.5"/>
<text text-anchor="middle" x="341" y="-173" font-family="Helvetica,sans-Serif" font-size="10.00"> input_file_</text>
</g>
<!-- Node11&#45;&gt;Node5 -->
<g id="edge13" class="edge">
<title>Node11&#45;&gt;Node5</title>
<path fill="none" stroke="#9a32cd" stroke-dasharray="5,2" d="M508.74,-41.56C541.19,-42.77 581.5,-49.13 611,-70 643.03,-92.66 658.41,-140.09 663.74,-160.42"/>
<polygon fill="#9a32cd" stroke="#9a32cd" points="508.58,-38.06 498.5,-41.34 508.42,-45.06 508.58,-38.06"/>
<text text-anchor="middle" x="568.5" y="-73" font-family="Helvetica,sans-Serif" font-size="10.00"> run_header_</text>
</g>
<!-- Node12 -->
<g id="node12" class="node">
<title>Node12</title>
<g id="a_node12"><a xlink:href="classfire_1_1h5_1_1ParameterStorage.html" target="_top" xlink:title="Provides dynamic parameter storage by interfacing between a map to variants storing parameters and a ...">
<polygon fill="none" stroke="black" points="141,-0.5 141,-19.5 285,-19.5 285,-0.5 141,-0.5"/>
<text text-anchor="middle" x="213" y="-7.5" font-family="Helvetica,sans-Serif" font-size="10.00">fire::h5::ParameterStorage</text>
</a>
</g>
</g>
<!-- Node12&#45;&gt;Node11 -->
<g id="edge15" class="edge">
<title>Node12&#45;&gt;Node11</title>
<path fill="none" stroke="#9a32cd" stroke-dasharray="5,2" d="M295.52,-3.76C322.37,-3.48 352.21,-5.1 379,-11 399.66,-15.55 421.52,-26.45 435.77,-34.48"/>
<polygon fill="#9a32cd" stroke="#9a32cd" points="295.31,-0.26 285.38,-3.95 295.45,-7.26 295.31,-0.26"/>
<text text-anchor="middle" x="341" y="-14" font-family="Helvetica,sans-Serif" font-size="10.00"> parameters_</text>
</g>
</g>
</svg>
