<?xml version="1.0" encoding="UTF-8" standalone="no"?>
<!DOCTYPE svg PUBLIC "-//W3C//DTD SVG 1.1//EN"
 "http://www.w3.org/Graphics/SVG/1.1/DTD/svg11.dtd">
<!-- Generated by graphviz version 2.43.0 (0)
 -->
<!-- Title: fire::h5::DataSet&lt; AtomicType, std::enable_if_t&lt; is_atomic_v&lt; AtomicType &gt; &gt; &gt; Pages: 1 -->
<svg width="217pt" height="173pt"
 viewBox="0.00 0.00 217.00 173.00" xmlns="http://www.w3.org/2000/svg" xmlns:xlink="http://www.w3.org/1999/xlink">
<g id="graph0" class="graph" transform="scale(1 1) rotate(0) translate(4 169)">
<title>fire::h5::DataSet&lt; AtomicType, std::enable_if_t&lt; is_atomic_v&lt; AtomicType &gt; &gt; &gt;</title>
<!-- Node1 -->
<g id="node1" class="node">
<title>Node1</title>
<g id="a_node1"><a xlink:title="Atomic types.">
<polygon fill="#bfbfbf" stroke="black" points="0,-0.5 0,-41.5 209,-41.5 209,-0.5 0,-0.5"/>
<text text-anchor="start" x="8" y="-29.5" font-family="Helvetica,sans-Serif" font-size="10.00">fire::h5::DataSet&lt;</text>
<text text-anchor="start" x="8" y="-18.5" font-family="Helvetica,sans-Serif" font-size="10.00"> AtomicType, std::enable</text>
<text text-anchor="middle" x="104.5" y="-7.5" font-family="Helvetica,sans-Serif" font-size="10.00">_if_t&lt; is_atomic_v&lt; AtomicType &gt; &gt; &gt;</text>
</a>
</g>
</g>
<!-- Node2 -->
<g id="node2" class="node">
<title>Node2</title>
<g id="a_node2"><a xlink:href="classfire_1_1h5_1_1AbstractDataSet.html" target="_top" xlink:title=" ">
<polygon fill="none" stroke="black" points="36.5,-78.5 36.5,-108.5 172.5,-108.5 172.5,-78.5 36.5,-78.5"/>
<text text-anchor="start" x="44.5" y="-96.5" font-family="Helvetica,sans-Serif" font-size="10.00">fire::h5::AbstractDataSet</text>
<text text-anchor="middle" x="104.5" y="-85.5" font-family="Helvetica,sans-Serif" font-size="10.00">&lt; AtomicType &gt;</text>
</a>
</g>
</g>
<!-- Node2&#45;&gt;Node1 -->
<g id="edge1" class="edge">
<title>Node2&#45;&gt;Node1</title>
<path fill="none" stroke="midnightblue" d="M104.5,-67.98C104.5,-59.35 104.5,-49.76 104.5,-41.59"/>
<polygon fill="midnightblue" stroke="midnightblue" points="101,-68.23 104.5,-78.23 108,-68.23 101,-68.23"/>
</g>
<!-- Node3 -->
<g id="node3" class="node">
<title>Node3</title>
<g id="a_node3"><a xlink:href="classfire_1_1h5_1_1BaseDataSet.html" target="_top" xlink:title="Empty dataset base allowing recursion.">
<polygon fill="none" stroke="black" points="45,-145.5 45,-164.5 164,-164.5 164,-145.5 45,-145.5"/>
<text text-anchor="middle" x="104.5" y="-152.5" font-family="Helvetica,sans-Serif" font-size="10.00">fire::h5::BaseDataSet</text>
</a>
</g>
</g>
<!-- Node3&#45;&gt;Node2 -->
<g id="edge2" class="edge">
<title>Node3&#45;&gt;Node2</title>
<path fill="none" stroke="midnightblue" d="M104.5,-135.23C104.5,-126.59 104.5,-116.5 104.5,-108.52"/>
<polygon fill="midnightblue" stroke="midnightblue" points="101,-135.48 104.5,-145.48 108,-135.48 101,-135.48"/>
</g>
</g>
</svg>
