<?xml version="1.0" encoding="UTF-8" standalone="no"?>
<!DOCTYPE svg PUBLIC "-//W3C//DTD SVG 1.1//EN"
 "http://www.w3.org/Graphics/SVG/1.1/DTD/svg11.dtd">
<!-- Generated by graphviz version 2.43.0 (0)
 -->
<!-- Title: include/fire/io/ClassVersion.h Pages: 1 -->
<svg width="764pt" height="755pt"
 viewBox="0.00 0.00 764.04 755.00" xmlns="http://www.w3.org/2000/svg" xmlns:xlink="http://www.w3.org/1999/xlink">
<g id="graph0" class="graph" transform="scale(1 1) rotate(0) translate(4 751)">
<title>include/fire/io/ClassVersion.h</title>
<!-- Node1 -->
<g id="node1" class="node">
<title>Node1</title>
<g id="a_node1"><a xlink:title="Serialization class version deduction.">
<polygon fill="#bfbfbf" stroke="black" points="501.04,-727.5 501.04,-746.5 658.04,-746.5 658.04,-727.5 501.04,-727.5"/>
<text text-anchor="middle" x="579.54" y="-734.5" font-family="Helvetica,sans-Serif" font-size="10.00">include/fire/io/ClassVersion.h</text>
</a>
</g>
</g>
<!-- Node2 -->
<g id="node2" class="node">
<title>Node2</title>
<g id="a_node2"><a xlink:href="Event_8h_source.html" target="_top" xlink:title=" ">
<polygon fill="none" stroke="black" points="502.54,-297 502.54,-316 612.54,-316 612.54,-297 502.54,-297"/>
<text text-anchor="middle" x="557.54" y="-304" font-family="Helvetica,sans-Serif" font-size="10.00">include/fire/Event.h</text>
</a>
</g>
</g>
<!-- Node1&#45;&gt;Node2 -->
<g id="edge1" class="edge">
<title>Node1&#45;&gt;Node2</title>
<path fill="none" stroke="midnightblue" d="M591.44,-718.89C596.68,-710.74 602.53,-700.68 606.54,-691 619.87,-658.83 625.54,-649.82 625.54,-615 625.54,-615 625.54,-615 625.54,-490 625.54,-418.99 579.79,-341.68 563.34,-316.18"/>
<polygon fill="midnightblue" stroke="midnightblue" points="588.38,-717.18 585.73,-727.44 594.2,-721.07 588.38,-717.18"/>
</g>
<!-- Node8 -->
<g id="node8" class="node">
<title>Node8</title>
<g id="a_node8"><a xlink:href="AbstractData_8h_source.html" target="_top" xlink:title=" ">
<polygon fill="none" stroke="black" points="471.54,-660.5 471.54,-690.5 597.54,-690.5 597.54,-660.5 471.54,-660.5"/>
<text text-anchor="start" x="479.54" y="-678.5" font-family="Helvetica,sans-Serif" font-size="10.00">include/fire/io/Abstract</text>
<text text-anchor="middle" x="534.54" y="-667.5" font-family="Helvetica,sans-Serif" font-size="10.00">Data.h</text>
</a>
</g>
</g>
<!-- Node1&#45;&gt;Node8 -->
<g id="edge8" class="edge">
<title>Node1&#45;&gt;Node8</title>
<path fill="none" stroke="midnightblue" d="M566.87,-719.25C560.02,-710.19 551.65,-699.12 545.15,-690.52"/>
<polygon fill="midnightblue" stroke="midnightblue" points="564.27,-721.61 573.1,-727.48 569.86,-717.39 564.27,-721.61"/>
</g>
<!-- Node3 -->
<g id="node3" class="node">
<title>Node3</title>
<g id="a_node3"><a xlink:href="Process_8h_source.html" target="_top" xlink:title=" ">
<polygon fill="none" stroke="black" points="442.54,-56.5 442.54,-75.5 562.54,-75.5 562.54,-56.5 442.54,-56.5"/>
<text text-anchor="middle" x="502.54" y="-63.5" font-family="Helvetica,sans-Serif" font-size="10.00">include/fire/Process.h</text>
</a>
</g>
</g>
<!-- Node2&#45;&gt;Node3 -->
<g id="edge2" class="edge">
<title>Node2&#45;&gt;Node3</title>
<path fill="none" stroke="midnightblue" d="M564.97,-287.38C569.9,-273.21 575.04,-252.98 572.54,-235 563.49,-169.9 522.94,-99.68 508.05,-75.64"/>
<polygon fill="midnightblue" stroke="midnightblue" points="561.63,-286.3 561.37,-296.89 568.18,-288.77 561.63,-286.3"/>
</g>
<!-- Node5 -->
<g id="node5" class="node">
<title>Node5</title>
<g id="a_node5"><a xlink:href="Processor_8h_source.html" target="_top" xlink:title=" ">
<polygon fill="none" stroke="black" points="345.04,-112.5 345.04,-131.5 474.04,-131.5 474.04,-112.5 345.04,-112.5"/>
<text text-anchor="middle" x="409.54" y="-119.5" font-family="Helvetica,sans-Serif" font-size="10.00">include/fire/Processor.h</text>
</a>
</g>
</g>
<!-- Node2&#45;&gt;Node5 -->
<g id="edge4" class="edge">
<title>Node2&#45;&gt;Node5</title>
<path fill="none" stroke="midnightblue" d="M559.39,-286.91C561.21,-258 560.36,-202.06 531.54,-168 515.36,-148.87 490.27,-137.87 467.05,-131.54"/>
<polygon fill="midnightblue" stroke="midnightblue" points="555.91,-286.63 558.59,-296.88 562.88,-287.19 555.91,-286.63"/>
</g>
<!-- Node7 -->
<g id="node7" class="node">
<title>Node7</title>
<g id="a_node7"><a xlink:href="UserReader_8h_source.html" target="_top" xlink:title=" ">
<polygon fill="none" stroke="black" points="617.04,-235.5 617.04,-254.5 756.04,-254.5 756.04,-235.5 617.04,-235.5"/>
<text text-anchor="middle" x="686.54" y="-242.5" font-family="Helvetica,sans-Serif" font-size="10.00">include/fire/UserReader.h</text>
</a>
</g>
</g>
<!-- Node2&#45;&gt;Node7 -->
<g id="edge7" class="edge">
<title>Node2&#45;&gt;Node7</title>
<path fill="none" stroke="midnightblue" d="M585.35,-292.67C610.38,-281.13 646.46,-264.49 668.1,-254.51"/>
<polygon fill="midnightblue" stroke="midnightblue" points="583.64,-289.61 576.03,-296.98 586.57,-295.96 583.64,-289.61"/>
</g>
<!-- Node4 -->
<g id="node4" class="node">
<title>Node4</title>
<g id="a_node4"><a xlink:href="fire_8cxx.html" target="_top" xlink:title="main definition for fire executable">
<polygon fill="none" stroke="black" points="465.54,-0.5 465.54,-19.5 539.54,-19.5 539.54,-0.5 465.54,-0.5"/>
<text text-anchor="middle" x="502.54" y="-7.5" font-family="Helvetica,sans-Serif" font-size="10.00">app/fire.cxx</text>
</a>
</g>
</g>
<!-- Node3&#45;&gt;Node4 -->
<g id="edge3" class="edge">
<title>Node3&#45;&gt;Node4</title>
<path fill="none" stroke="midnightblue" d="M502.54,-45.8C502.54,-36.91 502.54,-26.78 502.54,-19.75"/>
<polygon fill="midnightblue" stroke="midnightblue" points="499.04,-46.08 502.54,-56.08 506.04,-46.08 499.04,-46.08"/>
</g>
<!-- Node5&#45;&gt;Node3 -->
<g id="edge6" class="edge">
<title>Node5&#45;&gt;Node3</title>
<path fill="none" stroke="midnightblue" d="M433.35,-107.18C450.46,-97.24 473.01,-84.15 487.64,-75.65"/>
<polygon fill="midnightblue" stroke="midnightblue" points="431.38,-104.28 424.49,-112.32 434.89,-110.33 431.38,-104.28"/>
</g>
<!-- Node6 -->
<g id="node6" class="node">
<title>Node6</title>
<g id="a_node6"><a xlink:href="EventProcessor_8h.html" target="_top" xlink:title="Re&#45;interpretation of ROOT&#45;based framework code into fire.">
<polygon fill="none" stroke="black" points="228.54,-56.5 228.54,-75.5 424.54,-75.5 424.54,-56.5 228.54,-56.5"/>
<text text-anchor="middle" x="326.54" y="-63.5" font-family="Helvetica,sans-Serif" font-size="10.00">include/Framework/EventProcessor.h</text>
</a>
</g>
</g>
<!-- Node5&#45;&gt;Node6 -->
<g id="edge5" class="edge">
<title>Node5&#45;&gt;Node6</title>
<path fill="none" stroke="midnightblue" d="M387.44,-106.62C372.28,-96.76 352.66,-83.99 339.85,-75.65"/>
<polygon fill="midnightblue" stroke="midnightblue" points="385.92,-109.8 396.21,-112.32 389.74,-103.94 385.92,-109.8"/>
</g>
<!-- Node9 -->
<g id="node9" class="node">
<title>Node9</title>
<g id="a_node9"><a xlink:href="Data_8h_source.html" target="_top" xlink:title=" ">
<polygon fill="none" stroke="black" points="401.54,-481.5 401.54,-500.5 519.54,-500.5 519.54,-481.5 401.54,-481.5"/>
<text text-anchor="middle" x="460.54" y="-488.5" font-family="Helvetica,sans-Serif" font-size="10.00">include/fire/io/Data.h</text>
</a>
</g>
</g>
<!-- Node8&#45;&gt;Node9 -->
<g id="edge9" class="edge">
<title>Node8&#45;&gt;Node9</title>
<path fill="none" stroke="midnightblue" d="M538.48,-650.04C541.88,-621.07 543.53,-572.29 523.54,-537 514.01,-520.16 495.27,-508.02 480.69,-500.63"/>
<polygon fill="midnightblue" stroke="midnightblue" points="534.99,-649.73 537.14,-660.11 541.93,-650.66 534.99,-649.73"/>
</g>
<!-- Node18 -->
<g id="node18" class="node">
<title>Node18</title>
<g id="a_node18"><a xlink:href="Reader_8h_source.html" target="_top" xlink:title=" ">
<polygon fill="none" stroke="black" points="334.54,-604.5 334.54,-623.5 462.54,-623.5 462.54,-604.5 334.54,-604.5"/>
<text text-anchor="middle" x="398.54" y="-611.5" font-family="Helvetica,sans-Serif" font-size="10.00">include/fire/io/Reader.h</text>
</a>
</g>
</g>
<!-- Node8&#45;&gt;Node18 -->
<g id="edge28" class="edge">
<title>Node8&#45;&gt;Node18</title>
<path fill="none" stroke="midnightblue" d="M493.11,-656.37C468.28,-645.51 437.85,-632.2 418.33,-623.66"/>
<polygon fill="midnightblue" stroke="midnightblue" points="491.75,-659.6 502.31,-660.4 494.56,-653.18 491.75,-659.6"/>
</g>
<!-- Node9&#45;&gt;Node2 -->
<g id="edge10" class="edge">
<title>Node9&#45;&gt;Node2</title>
<path fill="none" stroke="midnightblue" d="M472.63,-472.99C487.52,-451.55 513,-413.22 530.54,-378 541.18,-356.65 550.34,-330.02 554.75,-316.41"/>
<polygon fill="midnightblue" stroke="midnightblue" points="469.65,-471.14 466.78,-481.34 475.38,-475.16 469.65,-471.14"/>
</g>
<!-- Node10 -->
<g id="node10" class="node">
<title>Node10</title>
<g id="a_node10"><a xlink:href="EventHeader_8h_source.html" target="_top" xlink:title=" ">
<polygon fill="none" stroke="black" points="376.04,-358.5 376.04,-377.5 521.04,-377.5 521.04,-358.5 376.04,-358.5"/>
<text text-anchor="middle" x="448.54" y="-365.5" font-family="Helvetica,sans-Serif" font-size="10.00">include/fire/EventHeader.h</text>
</a>
</g>
</g>
<!-- Node9&#45;&gt;Node10 -->
<g id="edge11" class="edge">
<title>Node9&#45;&gt;Node10</title>
<path fill="none" stroke="midnightblue" d="M458.69,-471.35C456.06,-444.77 451.33,-397.08 449.4,-377.62"/>
<polygon fill="midnightblue" stroke="midnightblue" points="455.21,-471.69 459.68,-481.3 462.18,-471 455.21,-471.69"/>
</g>
<!-- Node16 -->
<g id="node16" class="node">
<title>Node16</title>
<g id="a_node16"><a xlink:href="RunHeader_8h_source.html" target="_top" xlink:title=" ">
<polygon fill="none" stroke="black" points="109.54,-297 109.54,-316 245.54,-316 245.54,-297 109.54,-297"/>
<text text-anchor="middle" x="177.54" y="-304" font-family="Helvetica,sans-Serif" font-size="10.00">include/fire/RunHeader.h</text>
</a>
</g>
</g>
<!-- Node9&#45;&gt;Node16 -->
<g id="edge21" class="edge">
<title>Node9&#45;&gt;Node16</title>
<path fill="none" stroke="midnightblue" d="M438.84,-476C383.03,-440.01 235.77,-345.05 190.79,-316.04"/>
<polygon fill="midnightblue" stroke="midnightblue" points="436.97,-478.96 447.27,-481.44 440.77,-473.08 436.97,-478.96"/>
</g>
<!-- Node17 -->
<g id="node17" class="node">
<title>Node17</title>
<g id="a_node17"><a xlink:href="ParameterStorage_8h_source.html" target="_top" xlink:title=" ">
<polygon fill="none" stroke="black" points="142.54,-414.5 142.54,-444.5 278.54,-444.5 278.54,-414.5 142.54,-414.5"/>
<text text-anchor="start" x="150.54" y="-432.5" font-family="Helvetica,sans-Serif" font-size="10.00">include/fire/io/Parameter</text>
<text text-anchor="middle" x="210.54" y="-421.5" font-family="Helvetica,sans-Serif" font-size="10.00">Storage.h</text>
</a>
</g>
</g>
<!-- Node9&#45;&gt;Node17 -->
<g id="edge25" class="edge">
<title>Node9&#45;&gt;Node17</title>
<path fill="none" stroke="midnightblue" d="M414.78,-479.11C373.93,-469.39 313.89,-455.1 269.46,-444.52"/>
<polygon fill="midnightblue" stroke="midnightblue" points="414.19,-482.56 424.73,-481.48 415.81,-475.75 414.19,-482.56"/>
</g>
<!-- Node10&#45;&gt;Node2 -->
<g id="edge20" class="edge">
<title>Node10&#45;&gt;Node2</title>
<path fill="none" stroke="midnightblue" d="M473.17,-353.56C494.27,-342.04 524,-325.81 541.96,-316.01"/>
<polygon fill="midnightblue" stroke="midnightblue" points="471.26,-350.61 464.16,-358.48 474.62,-356.76 471.26,-350.61"/>
</g>
<!-- Node11 -->
<g id="node11" class="node">
<title>Node11</title>
<g id="a_node11"><a xlink:href="Conditions_8h_source.html" target="_top" xlink:title=" ">
<polygon fill="none" stroke="black" points="388.54,-174 388.54,-193 522.54,-193 522.54,-174 388.54,-174"/>
<text text-anchor="middle" x="455.54" y="-181" font-family="Helvetica,sans-Serif" font-size="10.00">include/fire/Conditions.h</text>
</a>
</g>
</g>
<!-- Node10&#45;&gt;Node11 -->
<g id="edge12" class="edge">
<title>Node10&#45;&gt;Node11</title>
<path fill="none" stroke="midnightblue" d="M449.28,-347.72C450.79,-308.56 454.14,-221.09 455.21,-193.21"/>
<polygon fill="midnightblue" stroke="midnightblue" points="445.77,-348.07 448.88,-358.2 452.76,-348.34 445.77,-348.07"/>
</g>
<!-- Node12 -->
<g id="node12" class="node">
<title>Node12</title>
<g id="a_node12"><a xlink:href="ConditionsIntervalOfValidity_8h_source.html" target="_top" xlink:title=" ">
<polygon fill="none" stroke="black" points="264.04,-291.5 264.04,-321.5 427.04,-321.5 427.04,-291.5 264.04,-291.5"/>
<text text-anchor="start" x="272.04" y="-309.5" font-family="Helvetica,sans-Serif" font-size="10.00">include/fire/ConditionsInterval</text>
<text text-anchor="middle" x="345.54" y="-298.5" font-family="Helvetica,sans-Serif" font-size="10.00">OfValidity.h</text>
</a>
</g>
</g>
<!-- Node10&#45;&gt;Node12 -->
<g id="edge15" class="edge">
<title>Node10&#45;&gt;Node12</title>
<path fill="none" stroke="midnightblue" d="M424.79,-353.28C408.3,-343.75 386.41,-331.11 369.82,-321.52"/>
<polygon fill="midnightblue" stroke="midnightblue" points="423.38,-356.5 433.79,-358.48 426.88,-350.44 423.38,-356.5"/>
</g>
<!-- Node11&#45;&gt;Node3 -->
<g id="edge13" class="edge">
<title>Node11&#45;&gt;Node3</title>
<path fill="none" stroke="midnightblue" d="M466.49,-165.03C472.12,-155.52 478.79,-143.4 483.54,-132 491.69,-112.47 497.78,-88.27 500.67,-75.62"/>
<polygon fill="midnightblue" stroke="midnightblue" points="463.33,-163.5 461.12,-173.86 469.31,-167.14 463.33,-163.5"/>
</g>
<!-- Node11&#45;&gt;Node5 -->
<g id="edge14" class="edge">
<title>Node11&#45;&gt;Node5</title>
<path fill="none" stroke="midnightblue" d="M442.66,-165.84C434.03,-154.67 423.02,-140.43 416.12,-131.51"/>
<polygon fill="midnightblue" stroke="midnightblue" points="440.07,-168.2 448.95,-173.98 445.61,-163.92 440.07,-168.2"/>
</g>
<!-- Node13 -->
<g id="node13" class="node">
<title>Node13</title>
<g id="a_node13"><a xlink:href="ConditionsProvider_8h_source.html" target="_top" xlink:title=" ">
<polygon fill="none" stroke="black" points="201.54,-235.5 201.54,-254.5 375.54,-254.5 375.54,-235.5 201.54,-235.5"/>
<text text-anchor="middle" x="288.54" y="-242.5" font-family="Helvetica,sans-Serif" font-size="10.00">include/fire/ConditionsProvider.h</text>
</a>
</g>
</g>
<!-- Node12&#45;&gt;Node13 -->
<g id="edge16" class="edge">
<title>Node12&#45;&gt;Node13</title>
<path fill="none" stroke="midnightblue" d="M324.95,-284C315.24,-273.86 304.19,-262.33 296.84,-254.66"/>
<polygon fill="midnightblue" stroke="midnightblue" points="322.59,-286.6 332.04,-291.4 327.65,-281.76 322.59,-286.6"/>
</g>
<!-- Node13&#45;&gt;Node11 -->
<g id="edge18" class="edge">
<title>Node13&#45;&gt;Node11</title>
<path fill="none" stroke="midnightblue" d="M321.99,-232.08C354.45,-220.52 402.91,-203.25 431.66,-193.01"/>
<polygon fill="midnightblue" stroke="midnightblue" points="320.72,-228.82 312.47,-235.48 323.07,-235.42 320.72,-228.82"/>
</g>
<!-- Node14 -->
<g id="node14" class="node">
<title>Node14</title>
<g id="a_node14"><a xlink:href="ConditionsObjectProvider_8h_source.html" target="_top" xlink:title=" ">
<polygon fill="none" stroke="black" points="206.54,-168.5 206.54,-198.5 370.54,-198.5 370.54,-168.5 206.54,-168.5"/>
<text text-anchor="start" x="214.54" y="-186.5" font-family="Helvetica,sans-Serif" font-size="10.00">include/Framework/Conditions</text>
<text text-anchor="middle" x="288.54" y="-175.5" font-family="Helvetica,sans-Serif" font-size="10.00">ObjectProvider.h</text>
</a>
</g>
</g>
<!-- Node13&#45;&gt;Node14 -->
<g id="edge17" class="edge">
<title>Node13&#45;&gt;Node14</title>
<path fill="none" stroke="midnightblue" d="M288.54,-225.23C288.54,-216.59 288.54,-206.5 288.54,-198.52"/>
<polygon fill="midnightblue" stroke="midnightblue" points="285.04,-225.48 288.54,-235.48 292.04,-225.48 285.04,-225.48"/>
</g>
<!-- Node15 -->
<g id="node15" class="node">
<title>Node15</title>
<g id="a_node15"><a xlink:href="RandomNumberSeedService_8h.html" target="_top" xlink:title="Conditions object for random number seeds.">
<polygon fill="none" stroke="black" points="35.04,-168.5 35.04,-198.5 188.04,-198.5 188.04,-168.5 35.04,-168.5"/>
<text text-anchor="start" x="43.04" y="-186.5" font-family="Helvetica,sans-Serif" font-size="10.00">include/fire/RandomNumber</text>
<text text-anchor="middle" x="111.54" y="-175.5" font-family="Helvetica,sans-Serif" font-size="10.00">SeedService.h</text>
</a>
</g>
</g>
<!-- Node13&#45;&gt;Node15 -->
<g id="edge19" class="edge">
<title>Node13&#45;&gt;Node15</title>
<path fill="none" stroke="midnightblue" d="M253.53,-232.23C224.71,-222.54 183.78,-208.78 153.26,-198.52"/>
<polygon fill="midnightblue" stroke="midnightblue" points="252.59,-235.61 263.18,-235.48 254.82,-228.97 252.59,-235.61"/>
</g>
<!-- Node16&#45;&gt;Node3 -->
<g id="edge23" class="edge">
<title>Node16&#45;&gt;Node3</title>
<path fill="none" stroke="midnightblue" d="M114.64,-294.46C87.91,-287.08 58.03,-274.91 36.54,-255 7.04,-227.65 -13.88,-199.18 11.54,-168 38.73,-134.65 316.89,-92.56 442.07,-75.13"/>
<polygon fill="midnightblue" stroke="midnightblue" points="113.77,-297.85 124.33,-296.97 115.52,-291.07 113.77,-297.85"/>
</g>
<!-- Node16&#45;&gt;Node5 -->
<g id="edge24" class="edge">
<title>Node16&#45;&gt;Node5</title>
<path fill="none" stroke="midnightblue" d="M144.34,-293.21C87.16,-270.3 -19.62,-218.77 25.54,-168 46.37,-144.59 241.16,-131.39 345.02,-125.96"/>
<polygon fill="midnightblue" stroke="midnightblue" points="143.14,-296.5 153.73,-296.9 145.7,-289.98 143.14,-296.5"/>
</g>
<!-- Node16&#45;&gt;Node13 -->
<g id="edge22" class="edge">
<title>Node16&#45;&gt;Node13</title>
<path fill="none" stroke="midnightblue" d="M202.33,-292.21C223.83,-280.69 254.3,-264.36 272.67,-254.51"/>
<polygon fill="midnightblue" stroke="midnightblue" points="200.61,-289.17 193.45,-296.98 203.92,-295.34 200.61,-289.17"/>
</g>
<!-- Node17&#45;&gt;Node10 -->
<g id="edge26" class="edge">
<title>Node17&#45;&gt;Node10</title>
<path fill="none" stroke="midnightblue" d="M276.57,-411.99C321.34,-400.8 378.68,-386.47 414.52,-377.51"/>
<polygon fill="midnightblue" stroke="midnightblue" points="275.5,-408.65 266.65,-414.47 277.2,-415.44 275.5,-408.65"/>
</g>
<!-- Node17&#45;&gt;Node16 -->
<g id="edge27" class="edge">
<title>Node17&#45;&gt;Node16</title>
<path fill="none" stroke="midnightblue" d="M203.92,-404.2C196.48,-376.94 184.81,-334.16 179.88,-316.05"/>
<polygon fill="midnightblue" stroke="midnightblue" points="200.62,-405.42 206.63,-414.14 207.37,-403.58 200.62,-405.42"/>
</g>
<!-- Node18&#45;&gt;Node7 -->
<g id="edge29" class="edge">
<title>Node18&#45;&gt;Node7</title>
<path fill="none" stroke="midnightblue" d="M457.13,-601.73C479.91,-595 504.95,-584.43 523.54,-568 629.41,-474.42 675.24,-295.86 684.66,-254.64"/>
<polygon fill="midnightblue" stroke="midnightblue" points="455.9,-598.44 447.19,-604.48 457.76,-605.19 455.9,-598.44"/>
</g>
<!-- Node18&#45;&gt;Node17 -->
<g id="edge31" class="edge">
<title>Node18&#45;&gt;Node17</title>
<path fill="none" stroke="midnightblue" d="M324.32,-610.05C258.03,-605.68 168.03,-594.83 145.54,-568 112.99,-529.14 165.83,-471.23 194.28,-444.7"/>
<polygon fill="midnightblue" stroke="midnightblue" points="324.13,-613.55 334.33,-610.68 324.56,-606.56 324.13,-613.55"/>
</g>
<!-- Node19 -->
<g id="node19" class="node">
<title>Node19</title>
<g id="a_node19"><a xlink:href="Open_8h.html" target="_top" xlink:title="Helper function for opening files of various type.">
<polygon fill="none" stroke="black" points="154.54,-543 154.54,-562 274.54,-562 274.54,-543 154.54,-543"/>
<text text-anchor="middle" x="214.54" y="-550" font-family="Helvetica,sans-Serif" font-size="10.00">include/fire/io/Open.h</text>
</a>
</g>
</g>
<!-- Node18&#45;&gt;Node19 -->
<g id="edge30" class="edge">
<title>Node18&#45;&gt;Node19</title>
<path fill="none" stroke="midnightblue" d="M362.61,-601.38C326.85,-589.82 272.81,-572.34 240.86,-562.01"/>
<polygon fill="midnightblue" stroke="midnightblue" points="361.59,-604.73 372.18,-604.48 363.74,-598.07 361.59,-604.73"/>
</g>
<!-- Node20 -->
<g id="node20" class="node">
<title>Node20</title>
<g id="a_node20"><a xlink:href="h5_2Reader_8h_source.html" target="_top" xlink:title=" ">
<polygon fill="none" stroke="black" points="416.54,-537.5 416.54,-567.5 514.54,-567.5 514.54,-537.5 416.54,-537.5"/>
<text text-anchor="start" x="424.54" y="-555.5" font-family="Helvetica,sans-Serif" font-size="10.00">include/fire/io/h5</text>
<text text-anchor="middle" x="465.54" y="-544.5" font-family="Helvetica,sans-Serif" font-size="10.00">/Reader.h</text>
</a>
</g>
</g>
<!-- Node18&#45;&gt;Node20 -->
<g id="edge32" class="edge">
<title>Node18&#45;&gt;Node20</title>
<path fill="none" stroke="midnightblue" d="M415.83,-597.65C426.31,-588.35 439.56,-576.57 449.75,-567.52"/>
<polygon fill="midnightblue" stroke="midnightblue" points="413.3,-595.22 408.14,-604.48 417.95,-600.45 413.3,-595.22"/>
</g>
<!-- Node21 -->
<g id="node21" class="node">
<title>Node21</title>
<g id="a_node21"><a xlink:href="root_2Reader_8h_source.html" target="_top" xlink:title=" ">
<polygon fill="none" stroke="black" points="293.04,-537.5 293.04,-567.5 398.04,-567.5 398.04,-537.5 293.04,-537.5"/>
<text text-anchor="start" x="301.04" y="-555.5" font-family="Helvetica,sans-Serif" font-size="10.00">include/fire/io/root</text>
<text text-anchor="middle" x="345.54" y="-544.5" font-family="Helvetica,sans-Serif" font-size="10.00">/Reader.h</text>
</a>
</g>
</g>
<!-- Node18&#45;&gt;Node21 -->
<g id="edge34" class="edge">
<title>Node18&#45;&gt;Node21</title>
<path fill="none" stroke="midnightblue" d="M384.12,-596.81C375.96,-587.65 365.86,-576.3 358.04,-567.52"/>
<polygon fill="midnightblue" stroke="midnightblue" points="381.69,-599.34 390.95,-604.48 386.91,-594.68 381.69,-599.34"/>
</g>
<!-- Node20&#45;&gt;Node9 -->
<g id="edge33" class="edge">
<title>Node20&#45;&gt;Node9</title>
<path fill="none" stroke="midnightblue" d="M463.51,-527.29C462.72,-517.86 461.86,-507.65 461.27,-500.66"/>
<polygon fill="midnightblue" stroke="midnightblue" points="460.03,-527.73 464.36,-537.4 467.01,-527.14 460.03,-527.73"/>
</g>
</g>
</svg>
