<?xml version="1.0" encoding="UTF-8" standalone="no"?>
<!DOCTYPE svg PUBLIC "-//W3C//DTD SVG 1.1//EN"
 "http://www.w3.org/Graphics/SVG/1.1/DTD/svg11.dtd">
<!-- Generated by graphviz version 2.43.0 (0)
 -->
<!-- Title: fire::io::h5::Reader Pages: 1 -->
<svg width="216pt" height="117pt"
 viewBox="0.00 0.00 216.00 117.00" xmlns="http://www.w3.org/2000/svg" xmlns:xlink="http://www.w3.org/1999/xlink">
<g id="graph0" class="graph" transform="scale(1 1) rotate(0) translate(4 113)">
<title>fire::io::h5::Reader</title>
<!-- Node1 -->
<g id="node1" class="node">
<title>Node1</title>
<g id="a_node1"><a xlink:title="Reading a file generated by fire.">
<polygon fill="#bfbfbf" stroke="black" points="38,-0.5 38,-19.5 144,-19.5 144,-0.5 38,-0.5"/>
<text text-anchor="middle" x="91" y="-7.5" font-family="Helvetica,sans-Serif" font-size="10.00">fire::io::h5::Reader</text>
</a>
</g>
</g>
<!-- Node2 -->
<g id="node2" class="node">
<title>Node2</title>
<g id="a_node2"><a xlink:href="classfire_1_1io_1_1Reader.html" target="_top" xlink:title="Prototype for reading files within fire.">
<polygon fill="none" stroke="black" points="0,-89.5 0,-108.5 88,-108.5 88,-89.5 0,-89.5"/>
<text text-anchor="middle" x="44" y="-96.5" font-family="Helvetica,sans-Serif" font-size="10.00">fire::io::Reader</text>
</a>
</g>
</g>
<!-- Node2&#45;&gt;Node1 -->
<g id="edge1" class="edge">
<title>Node2&#45;&gt;Node1</title>
<path fill="none" stroke="midnightblue" d="M53.46,-80.49C63.43,-62.03 78.72,-33.74 86.34,-19.62"/>
<polygon fill="midnightblue" stroke="midnightblue" points="50.35,-78.88 48.68,-89.34 56.51,-82.21 50.35,-78.88"/>
</g>
<!-- Node3 -->
<g id="node3" class="node">
<title>Node3</title>
<g id="a_node3"><a target="_parent" xlink:href="http://en.cppreference.com/w/cpp/types/size_t.html" xlink:title=" ">
<polygon fill="none" stroke="black" points="106,-89.5 106,-108.5 172,-108.5 172,-89.5 106,-89.5"/>
<text text-anchor="middle" x="139" y="-96.5" font-family="Helvetica,sans-Serif" font-size="10.00">std::size_t</text>
</a>
</g>
</g>
<!-- Node3&#45;&gt;Node1 -->
<g id="edge2" class="edge">
<title>Node3&#45;&gt;Node1</title>
<path fill="none" stroke="#9a32cd" stroke-dasharray="5,2" d="M129.34,-80.49C119.16,-62.03 103.54,-33.74 95.76,-19.62"/>
<polygon fill="#9a32cd" stroke="#9a32cd" points="126.33,-82.28 134.22,-89.34 132.46,-78.89 126.33,-82.28"/>
<text text-anchor="middle" x="165.5" y="-63" font-family="Helvetica,sans-Serif" font-size="10.00"> entries_</text>
<text text-anchor="middle" x="165.5" y="-52" font-family="Helvetica,sans-Serif" font-size="10.00">rows_per_chunk_</text>
<text text-anchor="middle" x="165.5" y="-41" font-family="Helvetica,sans-Serif" font-size="10.00">runs_</text>
</g>
</g>
</svg>
