<?xml version="1.0" encoding="UTF-8" standalone="no"?>
<!DOCTYPE svg PUBLIC "-//W3C//DTD SVG 1.1//EN"
 "http://www.w3.org/Graphics/SVG/1.1/DTD/svg11.dtd">
<!-- Generated by graphviz version 2.43.0 (0)
 -->
<!-- Title: fire::ConditionsProvider Pages: 1 -->
<svg width="674pt" height="265pt"
 viewBox="0.00 0.00 673.50 265.00" xmlns="http://www.w3.org/2000/svg" xmlns:xlink="http://www.w3.org/1999/xlink">
<g id="graph0" class="graph" transform="scale(1 1) rotate(0) translate(4 261)">
<title>fire::ConditionsProvider</title>
<!-- Node1 -->
<g id="node1" class="node">
<title>Node1</title>
<g id="a_node1"><a xlink:title="Base class for all providers of conditions objects.">
<polygon fill="#bfbfbf" stroke="black" points="458,-0.5 458,-19.5 589,-19.5 589,-0.5 458,-0.5"/>
<text text-anchor="middle" x="523.5" y="-7.5" font-family="Helvetica,sans-Serif" font-size="10.00">fire::ConditionsProvider</text>
</a>
</g>
</g>
<!-- Node2 -->
<g id="node2" class="node">
<title>Node2</title>
<g id="a_node2"><a xlink:href="classfire_1_1Conditions.html" target="_top" xlink:title="Container and cache for conditions and conditions providers.">
<polygon fill="none" stroke="black" points="434.5,-68.5 434.5,-87.5 524.5,-87.5 524.5,-68.5 434.5,-68.5"/>
<text text-anchor="middle" x="479.5" y="-75.5" font-family="Helvetica,sans-Serif" font-size="10.00">fire::Conditions</text>
</a>
</g>
</g>
<!-- Node2&#45;&gt;Node1 -->
<g id="edge1" class="edge">
<title>Node2&#45;&gt;Node1</title>
<path fill="none" stroke="#9a32cd" stroke-dasharray="5,2" d="M480.63,-57.95C481.72,-51.24 483.76,-43.91 487.5,-38 492.35,-30.34 500.2,-24.08 507.33,-19.52"/>
<polygon fill="#9a32cd" stroke="#9a32cd" points="477.11,-57.98 479.55,-68.29 484.07,-58.7 477.11,-57.98"/>
<text text-anchor="middle" x="517" y="-41" font-family="Helvetica,sans-Serif" font-size="10.00"> conditions_</text>
</g>
<!-- Node3 -->
<g id="node3" class="node">
<title>Node3</title>
<g id="a_node3"><a xlink:href="classfire_1_1Process.html" target="_top" xlink:title=" ">
<polygon fill="none" stroke="black" points="180.5,-0.5 180.5,-19.5 256.5,-19.5 256.5,-0.5 180.5,-0.5"/>
<text text-anchor="middle" x="218.5" y="-7.5" font-family="Helvetica,sans-Serif" font-size="10.00">fire::Process</text>
</a>
</g>
</g>
<!-- Node2&#45;&gt;Node3 -->
<g id="edge5" class="edge">
<title>Node2&#45;&gt;Node3</title>
<path fill="none" stroke="#9a32cd" stroke-dasharray="5,2" d="M424.52,-66.74C383.71,-59.1 334.76,-49.84 332.5,-49 323.36,-45.59 322.48,-41.81 313.5,-38 295.34,-30.31 274.33,-24.08 256.69,-19.55"/>
<polygon fill="#9a32cd" stroke="#9a32cd" points="423.94,-70.2 434.41,-68.6 425.23,-63.32 423.94,-70.2"/>
<text text-anchor="middle" x="362" y="-41" font-family="Helvetica,sans-Serif" font-size="10.00"> conditions_</text>
</g>
<!-- Node3&#45;&gt;Node2 -->
<g id="edge2" class="edge">
<title>Node3&#45;&gt;Node2</title>
<path fill="none" stroke="#9a32cd" stroke-dasharray="5,2" d="M267.06,-14.68C303.1,-18.29 353.11,-25.21 395.5,-38 420.74,-45.62 448.12,-59.48 464.53,-68.46"/>
<polygon fill="#9a32cd" stroke="#9a32cd" points="267.11,-11.16 256.82,-13.7 266.45,-18.13 267.11,-11.16"/>
<text text-anchor="middle" x="446.5" y="-41" font-family="Helvetica,sans-Serif" font-size="10.00"> process_</text>
</g>
<!-- Node4 -->
<g id="node4" class="node">
<title>Node4</title>
<g id="a_node4"><a xlink:href="classfire_1_1h5_1_1Writer.html" target="_top" xlink:title="Write the fire DataSets into a deterministic structure in the output HDF5 data file.">
<polygon fill="none" stroke="black" points="117.5,-169.5 117.5,-188.5 203.5,-188.5 203.5,-169.5 117.5,-169.5"/>
<text text-anchor="middle" x="160.5" y="-176.5" font-family="Helvetica,sans-Serif" font-size="10.00">fire::h5::Writer</text>
</a>
</g>
</g>
<!-- Node4&#45;&gt;Node3 -->
<g id="edge3" class="edge">
<title>Node4&#45;&gt;Node3</title>
<path fill="none" stroke="#9a32cd" stroke-dasharray="5,2" d="M159.37,-159.33C158.53,-136.96 158.77,-98.53 167.5,-67 171.37,-53.02 173.13,-49.08 182.5,-38 188.56,-30.84 196.84,-24.46 203.94,-19.7"/>
<polygon fill="#9a32cd" stroke="#9a32cd" points="155.88,-159.63 159.86,-169.45 162.87,-159.29 155.88,-159.63"/>
<text text-anchor="middle" x="198" y="-75.5" font-family="Helvetica,sans-Serif" font-size="10.00"> output_file_</text>
</g>
<!-- Node6 -->
<g id="node6" class="node">
<title>Node6</title>
<g id="a_node6"><a xlink:href="classfire_1_1Event.html" target="_top" xlink:title="Event class for interfacing with processors.">
<polygon fill="none" stroke="black" points="237.5,-68.5 237.5,-87.5 303.5,-87.5 303.5,-68.5 237.5,-68.5"/>
<text text-anchor="middle" x="270.5" y="-75.5" font-family="Helvetica,sans-Serif" font-size="10.00">fire::Event</text>
</a>
</g>
</g>
<!-- Node4&#45;&gt;Node6 -->
<g id="edge8" class="edge">
<title>Node4&#45;&gt;Node6</title>
<path fill="none" stroke="#9a32cd" stroke-dasharray="5,2" d="M168.06,-160.18C175.55,-144.38 188.38,-121.61 205.5,-107 215.6,-98.39 228.74,-92.06 240.57,-87.62"/>
<polygon fill="#9a32cd" stroke="#9a32cd" points="164.83,-158.85 163.92,-169.4 171.21,-161.72 164.83,-158.85"/>
<text text-anchor="middle" x="236" y="-126.5" font-family="Helvetica,sans-Serif" font-size="10.00"> output_file_</text>
</g>
<!-- Node5 -->
<g id="node5" class="node">
<title>Node5</title>
<g id="a_node5"><a xlink:href="classfire_1_1StorageControl.html" target="_top" xlink:title="Isolation of voting system deciding if events should be kept.">
<polygon fill="none" stroke="black" points="0,-68.5 0,-87.5 111,-87.5 111,-68.5 0,-68.5"/>
<text text-anchor="middle" x="55.5" y="-75.5" font-family="Helvetica,sans-Serif" font-size="10.00">fire::StorageControl</text>
</a>
</g>
</g>
<!-- Node5&#45;&gt;Node3 -->
<g id="edge4" class="edge">
<title>Node5&#45;&gt;Node3</title>
<path fill="none" stroke="#9a32cd" stroke-dasharray="5,2" d="M51.3,-58.42C50.78,-51.26 51.72,-43.5 56.5,-38 72.26,-19.87 137.46,-13.91 180.18,-11.95"/>
<polygon fill="#9a32cd" stroke="#9a32cd" points="47.86,-59.11 52.89,-68.44 54.78,-58.01 47.86,-59.11"/>
<text text-anchor="middle" x="99" y="-41" font-family="Helvetica,sans-Serif" font-size="10.00"> storage_control_</text>
</g>
<!-- Node6&#45;&gt;Node3 -->
<g id="edge6" class="edge">
<title>Node6&#45;&gt;Node3</title>
<path fill="none" stroke="#9a32cd" stroke-dasharray="5,2" d="M227.41,-66.94C210.69,-62.09 194.37,-55.84 189.5,-49 182.18,-38.73 193.78,-27.26 204.41,-19.63"/>
<polygon fill="#9a32cd" stroke="#9a32cd" points="226.65,-70.36 237.22,-69.63 228.51,-63.61 226.65,-70.36"/>
<text text-anchor="middle" x="208" y="-41" font-family="Helvetica,sans-Serif" font-size="10.00"> event_</text>
</g>
<!-- Node7 -->
<g id="node7" class="node">
<title>Node7</title>
<g id="a_node7"><a xlink:href="classfire_1_1h5_1_1Reader.html" target="_top" xlink:title="Reading a file generated by fire.">
<polygon fill="none" stroke="black" points="227,-169.5 227,-188.5 318,-188.5 318,-169.5 227,-169.5"/>
<text text-anchor="middle" x="272.5" y="-176.5" font-family="Helvetica,sans-Serif" font-size="10.00">fire::h5::Reader</text>
</a>
</g>
</g>
<!-- Node7&#45;&gt;Node6 -->
<g id="edge7" class="edge">
<title>Node7&#45;&gt;Node6</title>
<path fill="none" stroke="#9a32cd" stroke-dasharray="5,2" d="M272.12,-159.03C271.68,-137.54 270.99,-103.47 270.67,-87.62"/>
<polygon fill="#9a32cd" stroke="#9a32cd" points="268.62,-159.29 272.32,-169.21 275.62,-159.15 268.62,-159.29"/>
<text text-anchor="middle" x="298.5" y="-126.5" font-family="Helvetica,sans-Serif" font-size="10.00"> input_file_</text>
</g>
<!-- Node8 -->
<g id="node8" class="node">
<title>Node8</title>
<g id="a_node8"><a xlink:title=" ">
<polygon fill="none" stroke="#bfbfbf" points="371,-169.5 371,-188.5 436,-188.5 436,-169.5 371,-169.5"/>
<text text-anchor="middle" x="403.5" y="-176.5" font-family="Helvetica,sans-Serif" font-size="10.00">std::string</text>
</a>
</g>
</g>
<!-- Node8&#45;&gt;Node1 -->
<g id="edge14" class="edge">
<title>Node8&#45;&gt;Node1</title>
<path fill="none" stroke="#9a32cd" stroke-dasharray="5,2" d="M445.51,-165.94C455.78,-162.02 466.41,-157.07 475.5,-151 506.88,-130.05 514.32,-121.5 533.5,-89 545.39,-68.86 554.58,-59.95 546.5,-38 543.95,-31.07 538.73,-24.7 533.92,-19.89"/>
<polygon fill="#9a32cd" stroke="#9a32cd" points="444.09,-162.73 435.85,-169.39 446.44,-169.32 444.09,-162.73"/>
<text text-anchor="middle" x="579.5" y="-81" font-family="Helvetica,sans-Serif" font-size="10.00"> objectName_</text>
<text text-anchor="middle" x="579.5" y="-70" font-family="Helvetica,sans-Serif" font-size="10.00">tagname_</text>
</g>
<!-- Node8&#45;&gt;Node6 -->
<g id="edge9" class="edge">
<title>Node8&#45;&gt;Node6</title>
<path fill="none" stroke="#9a32cd" stroke-dasharray="5,2" d="M366.31,-165.17C359.1,-161.43 352.06,-156.76 346.5,-151 331.7,-135.68 342.19,-122.43 327.5,-107 319.29,-98.38 307.86,-92.05 297.39,-87.61"/>
<polygon fill="#9a32cd" stroke="#9a32cd" points="364.9,-168.37 375.45,-169.41 367.85,-162.02 364.9,-168.37"/>
<text text-anchor="middle" x="362" y="-126.5" font-family="Helvetica,sans-Serif" font-size="10.00"> pass_</text>
</g>
<!-- Node10 -->
<g id="node10" class="node">
<title>Node10</title>
<g id="a_node10"><a xlink:href="classfire_1_1RunHeader.html" target="_top" xlink:title="Container for run parameters.">
<polygon fill="none" stroke="black" points="324.5,-68.5 324.5,-87.5 416.5,-87.5 416.5,-68.5 324.5,-68.5"/>
<text text-anchor="middle" x="370.5" y="-75.5" font-family="Helvetica,sans-Serif" font-size="10.00">fire::RunHeader</text>
</a>
</g>
</g>
<!-- Node8&#45;&gt;Node10 -->
<g id="edge12" class="edge">
<title>Node8&#45;&gt;Node10</title>
<path fill="none" stroke="#9a32cd" stroke-dasharray="5,2" d="M398.17,-159.5C393.93,-145.1 387.7,-124.66 381.5,-107 379.22,-100.49 376.36,-93.25 374.14,-87.77"/>
<polygon fill="#9a32cd" stroke="#9a32cd" points="394.84,-160.57 401,-169.19 401.56,-158.61 394.84,-160.57"/>
<text text-anchor="middle" x="433.5" y="-143" font-family="Helvetica,sans-Serif" font-size="10.00"> NAME</text>
<text text-anchor="middle" x="433.5" y="-132" font-family="Helvetica,sans-Serif" font-size="10.00">description_</text>
<text text-anchor="middle" x="433.5" y="-121" font-family="Helvetica,sans-Serif" font-size="10.00">detectorName_</text>
<text text-anchor="middle" x="433.5" y="-110" font-family="Helvetica,sans-Serif" font-size="10.00">softwareTag_</text>
</g>
<!-- Node9 -->
<g id="node9" class="node">
<title>Node9</title>
<g id="a_node9"><a xlink:title=" ">
<polygon fill="none" stroke="#bfbfbf" points="351.5,-226.5 351.5,-256.5 455.5,-256.5 455.5,-226.5 351.5,-226.5"/>
<text text-anchor="start" x="359.5" y="-244.5" font-family="Helvetica,sans-Serif" font-size="10.00">std::basic_string&lt;</text>
<text text-anchor="middle" x="403.5" y="-233.5" font-family="Helvetica,sans-Serif" font-size="10.00"> Char &gt;</text>
</a>
</g>
</g>
<!-- Node9&#45;&gt;Node8 -->
<g id="edge10" class="edge">
<title>Node9&#45;&gt;Node8</title>
<path fill="none" stroke="midnightblue" d="M403.5,-216.35C403.5,-206.51 403.5,-195.78 403.5,-188.54"/>
<polygon fill="midnightblue" stroke="midnightblue" points="400,-216.47 403.5,-226.47 407,-216.47 400,-216.47"/>
</g>
<!-- Node10&#45;&gt;Node3 -->
<g id="edge11" class="edge">
<title>Node10&#45;&gt;Node3</title>
<path fill="none" stroke="#9a32cd" stroke-dasharray="5,2" d="M317.44,-66.38C287.77,-60.15 255.56,-52.78 249.5,-49 237.79,-41.71 228.49,-28.43 223.23,-19.66"/>
<polygon fill="#9a32cd" stroke="#9a32cd" points="316.85,-69.83 327.36,-68.44 318.28,-62.98 316.85,-69.83"/>
<text text-anchor="middle" x="281.5" y="-41" font-family="Helvetica,sans-Serif" font-size="10.00"> run_header_</text>
</g>
<!-- Node11 -->
<g id="node11" class="node">
<title>Node11</title>
<g id="a_node11"><a xlink:href="classfire_1_1h5_1_1ParameterStorage.html" target="_top" xlink:title="Provides dynamic parameter storage by interfacing between a map to variants storing parameters and a ...">
<polygon fill="none" stroke="black" points="521.5,-169.5 521.5,-188.5 665.5,-188.5 665.5,-169.5 521.5,-169.5"/>
<text text-anchor="middle" x="593.5" y="-176.5" font-family="Helvetica,sans-Serif" font-size="10.00">fire::h5::ParameterStorage</text>
</a>
</g>
</g>
<!-- Node11&#45;&gt;Node10 -->
<g id="edge13" class="edge">
<title>Node11&#45;&gt;Node10</title>
<path fill="none" stroke="#9a32cd" stroke-dasharray="5,2" d="M573.23,-163.37C550.45,-147.52 511.87,-122.43 475.5,-107 455.7,-98.6 432.71,-92.13 413.3,-87.54"/>
<polygon fill="#9a32cd" stroke="#9a32cd" points="571.52,-166.44 581.7,-169.35 575.55,-160.72 571.52,-166.44"/>
<text text-anchor="middle" x="585" y="-126.5" font-family="Helvetica,sans-Serif" font-size="10.00"> parameters_</text>
</g>
</g>
</svg>
