<?xml version="1.0" encoding="UTF-8" standalone="no"?>
<!DOCTYPE svg PUBLIC "-//W3C//DTD SVG 1.1//EN"
 "http://www.w3.org/Graphics/SVG/1.1/DTD/svg11.dtd">
<!-- Generated by graphviz version 2.43.0 (0)
 -->
<!-- Title: fire::Conditions Pages: 1 -->
<svg width="584pt" height="263pt"
 viewBox="0.00 0.00 584.00 263.00" xmlns="http://www.w3.org/2000/svg" xmlns:xlink="http://www.w3.org/1999/xlink">
<g id="graph0" class="graph" transform="scale(1 1) rotate(0) translate(4 259)">
<title>fire::Conditions</title>
<!-- Node1 -->
<g id="node1" class="node">
<title>Node1</title>
<g id="a_node1"><a xlink:title="Container and cache for conditions and conditions providers.">
<polygon fill="#bfbfbf" stroke="black" points="0,-67.5 0,-86.5 90,-86.5 90,-67.5 0,-67.5"/>
<text text-anchor="middle" x="45" y="-74.5" font-family="Helvetica,sans-Serif" font-size="10.00">fire::Conditions</text>
</a>
</g>
</g>
<!-- Node2 -->
<g id="node2" class="node">
<title>Node2</title>
<g id="a_node2"><a xlink:href="classfire_1_1Process.html" target="_top" xlink:title=" ">
<polygon fill="none" stroke="black" points="156,-0.5 156,-19.5 232,-19.5 232,-0.5 156,-0.5"/>
<text text-anchor="middle" x="194" y="-7.5" font-family="Helvetica,sans-Serif" font-size="10.00">fire::Process</text>
</a>
</g>
</g>
<!-- Node1&#45;&gt;Node2 -->
<g id="edge4" class="edge">
<title>Node1&#45;&gt;Node2</title>
<path fill="none" stroke="#9a32cd" stroke-dasharray="5,2" d="M22.74,-60.79C15.04,-53.71 9.75,-45.27 16,-38 33.68,-17.44 109.15,-12.35 155.96,-11.2"/>
<polygon fill="#9a32cd" stroke="#9a32cd" points="20.9,-63.8 30.89,-67.32 25.27,-58.34 20.9,-63.8"/>
<text text-anchor="middle" x="45.5" y="-41" font-family="Helvetica,sans-Serif" font-size="10.00"> conditions_</text>
</g>
<!-- Node2&#45;&gt;Node1 -->
<g id="edge1" class="edge">
<title>Node2&#45;&gt;Node1</title>
<path fill="none" stroke="#9a32cd" stroke-dasharray="5,2" d="M145.83,-20.76C129.84,-24.95 112.24,-30.61 97,-38 80.9,-45.8 64.61,-58.7 54.66,-67.27"/>
<polygon fill="#9a32cd" stroke="#9a32cd" points="146.68,-24.16 155.54,-18.35 144.99,-17.37 146.68,-24.16"/>
<text text-anchor="middle" x="120" y="-41" font-family="Helvetica,sans-Serif" font-size="10.00"> process_</text>
</g>
<!-- Node3 -->
<g id="node3" class="node">
<title>Node3</title>
<g id="a_node3"><a xlink:href="classfire_1_1h5_1_1Writer.html" target="_top" xlink:title="Write the fire DataSets into a deterministic structure in the output HDF5 data file.">
<polygon fill="none" stroke="black" points="119,-167.5 119,-186.5 205,-186.5 205,-167.5 119,-167.5"/>
<text text-anchor="middle" x="162" y="-174.5" font-family="Helvetica,sans-Serif" font-size="10.00">fire::h5::Writer</text>
</a>
</g>
</g>
<!-- Node3&#45;&gt;Node2 -->
<g id="edge2" class="edge">
<title>Node3&#45;&gt;Node2</title>
<path fill="none" stroke="#9a32cd" stroke-dasharray="5,2" d="M161.21,-157.11C160.74,-135.13 161.37,-97.9 169,-67 173.34,-49.43 182.94,-30.5 188.9,-19.76"/>
<polygon fill="#9a32cd" stroke="#9a32cd" points="157.71,-157.48 161.53,-167.36 164.71,-157.26 157.71,-157.48"/>
<text text-anchor="middle" x="199.5" y="-74.5" font-family="Helvetica,sans-Serif" font-size="10.00"> output_file_</text>
</g>
<!-- Node5 -->
<g id="node5" class="node">
<title>Node5</title>
<g id="a_node5"><a xlink:href="classfire_1_1Event.html" target="_top" xlink:title="Event class for interfacing with processors.">
<polygon fill="none" stroke="black" points="239,-67.5 239,-86.5 305,-86.5 305,-67.5 239,-67.5"/>
<text text-anchor="middle" x="272" y="-74.5" font-family="Helvetica,sans-Serif" font-size="10.00">fire::Event</text>
</a>
</g>
</g>
<!-- Node3&#45;&gt;Node5 -->
<g id="edge7" class="edge">
<title>Node3&#45;&gt;Node5</title>
<path fill="none" stroke="#9a32cd" stroke-dasharray="5,2" d="M169.52,-158.13C176.98,-142.29 189.78,-119.5 207,-105 216.72,-96.82 229.27,-90.82 240.75,-86.6"/>
<polygon fill="#9a32cd" stroke="#9a32cd" points="166.27,-156.81 165.4,-167.37 172.67,-159.67 166.27,-156.81"/>
<text text-anchor="middle" x="237.5" y="-124.5" font-family="Helvetica,sans-Serif" font-size="10.00"> output_file_</text>
</g>
<!-- Node4 -->
<g id="node4" class="node">
<title>Node4</title>
<g id="a_node4"><a xlink:href="classfire_1_1StorageControl.html" target="_top" xlink:title="Isolation of voting system deciding if events should be kept.">
<polygon fill="none" stroke="black" points="450.5,-67.5 450.5,-86.5 561.5,-86.5 561.5,-67.5 450.5,-67.5"/>
<text text-anchor="middle" x="506" y="-74.5" font-family="Helvetica,sans-Serif" font-size="10.00">fire::StorageControl</text>
</a>
</g>
</g>
<!-- Node4&#45;&gt;Node2 -->
<g id="edge3" class="edge">
<title>Node4&#45;&gt;Node2</title>
<path fill="none" stroke="#9a32cd" stroke-dasharray="5,2" d="M470.33,-64.25C444.18,-55.97 407.68,-45.14 375,-38 326.11,-27.31 268.87,-19.56 232.06,-15.17"/>
<polygon fill="#9a32cd" stroke="#9a32cd" points="469.58,-67.68 480.17,-67.39 471.71,-61.01 469.58,-67.68"/>
<text text-anchor="middle" x="460.5" y="-41" font-family="Helvetica,sans-Serif" font-size="10.00"> storage_control_</text>
</g>
<!-- Node5&#45;&gt;Node2 -->
<g id="edge5" class="edge">
<title>Node5&#45;&gt;Node2</title>
<path fill="none" stroke="#9a32cd" stroke-dasharray="5,2" d="M253.66,-60.71C238.29,-47.91 216.91,-30.09 204.35,-19.63"/>
<polygon fill="#9a32cd" stroke="#9a32cd" points="251.56,-63.52 261.48,-67.23 256.04,-58.14 251.56,-63.52"/>
<text text-anchor="middle" x="255.5" y="-41" font-family="Helvetica,sans-Serif" font-size="10.00"> event_</text>
</g>
<!-- Node6 -->
<g id="node6" class="node">
<title>Node6</title>
<g id="a_node6"><a xlink:href="classfire_1_1h5_1_1Reader.html" target="_top" xlink:title="Reading a file generated by fire.">
<polygon fill="none" stroke="black" points="228.5,-167.5 228.5,-186.5 319.5,-186.5 319.5,-167.5 228.5,-167.5"/>
<text text-anchor="middle" x="274" y="-174.5" font-family="Helvetica,sans-Serif" font-size="10.00">fire::h5::Reader</text>
</a>
</g>
</g>
<!-- Node6&#45;&gt;Node5 -->
<g id="edge6" class="edge">
<title>Node6&#45;&gt;Node5</title>
<path fill="none" stroke="#9a32cd" stroke-dasharray="5,2" d="M273.62,-157.22C273.18,-135.95 272.49,-102.22 272.17,-86.54"/>
<polygon fill="#9a32cd" stroke="#9a32cd" points="270.12,-157.38 273.82,-167.3 277.12,-157.23 270.12,-157.38"/>
<text text-anchor="middle" x="300" y="-124.5" font-family="Helvetica,sans-Serif" font-size="10.00"> input_file_</text>
</g>
<!-- Node7 -->
<g id="node7" class="node">
<title>Node7</title>
<g id="a_node7"><a xlink:title=" ">
<polygon fill="none" stroke="#bfbfbf" points="343.5,-167.5 343.5,-186.5 408.5,-186.5 408.5,-167.5 343.5,-167.5"/>
<text text-anchor="middle" x="376" y="-174.5" font-family="Helvetica,sans-Serif" font-size="10.00">std::string</text>
</a>
</g>
</g>
<!-- Node7&#45;&gt;Node5 -->
<g id="edge8" class="edge">
<title>Node7&#45;&gt;Node5</title>
<path fill="none" stroke="#9a32cd" stroke-dasharray="5,2" d="M357.64,-160.36C354.16,-156.85 350.76,-152.98 348,-149 335.87,-131.49 343.8,-120.32 329,-105 321.09,-96.81 310.2,-90.82 300.05,-86.59"/>
<polygon fill="#9a32cd" stroke="#9a32cd" points="355.45,-163.09 365.15,-167.36 360.22,-157.98 355.45,-163.09"/>
<text text-anchor="middle" x="363.5" y="-124.5" font-family="Helvetica,sans-Serif" font-size="10.00"> pass_</text>
</g>
<!-- Node9 -->
<g id="node9" class="node">
<title>Node9</title>
<g id="a_node9"><a xlink:href="classfire_1_1RunHeader.html" target="_top" xlink:title="Container for run parameters.">
<polygon fill="none" stroke="black" points="340,-67.5 340,-86.5 432,-86.5 432,-67.5 340,-67.5"/>
<text text-anchor="middle" x="386" y="-74.5" font-family="Helvetica,sans-Serif" font-size="10.00">fire::RunHeader</text>
</a>
</g>
</g>
<!-- Node7&#45;&gt;Node9 -->
<g id="edge11" class="edge">
<title>Node7&#45;&gt;Node9</title>
<path fill="none" stroke="#9a32cd" stroke-dasharray="5,2" d="M381.41,-157.22C382.04,-154.48 382.6,-151.68 383,-149 386.31,-126.79 386.43,-100.27 386.22,-86.8"/>
<polygon fill="#9a32cd" stroke="#9a32cd" points="377.97,-156.54 378.81,-167.1 384.74,-158.32 377.97,-156.54"/>
<text text-anchor="middle" x="424" y="-141" font-family="Helvetica,sans-Serif" font-size="10.00"> NAME</text>
<text text-anchor="middle" x="424" y="-130" font-family="Helvetica,sans-Serif" font-size="10.00">description_</text>
<text text-anchor="middle" x="424" y="-119" font-family="Helvetica,sans-Serif" font-size="10.00">detectorName_</text>
<text text-anchor="middle" x="424" y="-108" font-family="Helvetica,sans-Serif" font-size="10.00">softwareTag_</text>
</g>
<!-- Node8 -->
<g id="node8" class="node">
<title>Node8</title>
<g id="a_node8"><a xlink:title=" ">
<polygon fill="none" stroke="#bfbfbf" points="324,-224.5 324,-254.5 428,-254.5 428,-224.5 324,-224.5"/>
<text text-anchor="start" x="332" y="-242.5" font-family="Helvetica,sans-Serif" font-size="10.00">std::basic_string&lt;</text>
<text text-anchor="middle" x="376" y="-231.5" font-family="Helvetica,sans-Serif" font-size="10.00"> Char &gt;</text>
</a>
</g>
</g>
<!-- Node8&#45;&gt;Node7 -->
<g id="edge9" class="edge">
<title>Node8&#45;&gt;Node7</title>
<path fill="none" stroke="midnightblue" d="M376,-214.35C376,-204.51 376,-193.78 376,-186.54"/>
<polygon fill="midnightblue" stroke="midnightblue" points="372.5,-214.47 376,-224.47 379.5,-214.47 372.5,-214.47"/>
</g>
<!-- Node9&#45;&gt;Node2 -->
<g id="edge10" class="edge">
<title>Node9&#45;&gt;Node2</title>
<path fill="none" stroke="#9a32cd" stroke-dasharray="5,2" d="M352.49,-63.94C331.2,-56.35 303.04,-46.43 278,-38 259.13,-31.65 237.76,-24.78 221.3,-19.57"/>
<polygon fill="#9a32cd" stroke="#9a32cd" points="351.45,-67.29 362.04,-67.36 353.81,-60.7 351.45,-67.29"/>
<text text-anchor="middle" x="339" y="-41" font-family="Helvetica,sans-Serif" font-size="10.00"> run_header_</text>
</g>
<!-- Node10 -->
<g id="node10" class="node">
<title>Node10</title>
<g id="a_node10"><a xlink:href="classfire_1_1h5_1_1ParameterStorage.html" target="_top" xlink:title="Provides dynamic parameter storage by interfacing between a map to variants storing parameters and a ...">
<polygon fill="none" stroke="black" points="432,-167.5 432,-186.5 576,-186.5 576,-167.5 432,-167.5"/>
<text text-anchor="middle" x="504" y="-174.5" font-family="Helvetica,sans-Serif" font-size="10.00">fire::h5::ParameterStorage</text>
</a>
</g>
</g>
<!-- Node10&#45;&gt;Node9 -->
<g id="edge12" class="edge">
<title>Node10&#45;&gt;Node9</title>
<path fill="none" stroke="#9a32cd" stroke-dasharray="5,2" d="M498.4,-157.4C492.68,-141.41 482.3,-118.8 466,-105 455.93,-96.48 443.05,-90.61 430.59,-86.58"/>
<polygon fill="#9a32cd" stroke="#9a32cd" points="495.18,-158.82 501.63,-167.23 501.83,-156.63 495.18,-158.82"/>
<text text-anchor="middle" x="526.5" y="-124.5" font-family="Helvetica,sans-Serif" font-size="10.00"> parameters_</text>
</g>
</g>
</svg>
