<?xml version="1.0" encoding="UTF-8" standalone="no"?>
<!DOCTYPE svg PUBLIC "-//W3C//DTD SVG 1.1//EN"
 "http://www.w3.org/Graphics/SVG/1.1/DTD/svg11.dtd">
<!-- Generated by graphviz version 2.43.0 (0)
 -->
<!-- Title: fire::Conditions Pages: 1 -->
<svg width="461pt" height="362pt"
 viewBox="0.00 0.00 461.00 362.00" xmlns="http://www.w3.org/2000/svg" xmlns:xlink="http://www.w3.org/1999/xlink">
<g id="graph0" class="graph" transform="scale(1 1) rotate(0) translate(4 358)">
<title>fire::Conditions</title>
<!-- Node1 -->
<g id="node1" class="node">
<title>Node1</title>
<g id="a_node1"><a xlink:title="Container and cache for conditions and conditions providers.">
<polygon fill="#bfbfbf" stroke="black" points="170,-0.5 170,-19.5 260,-19.5 260,-0.5 170,-0.5"/>
<text text-anchor="middle" x="215" y="-7.5" font-family="Helvetica,sans-Serif" font-size="10.00">fire::Conditions</text>
</a>
</g>
</g>
<!-- Node2 -->
<g id="node2" class="node">
<title>Node2</title>
<g id="a_node2"><a xlink:href="classfire_1_1Process.html" target="_top" xlink:title="The central object managing the data processing.">
<polygon fill="none" stroke="black" points="177,-67.5 177,-86.5 253,-86.5 253,-67.5 177,-67.5"/>
<text text-anchor="middle" x="215" y="-74.5" font-family="Helvetica,sans-Serif" font-size="10.00">fire::Process</text>
</a>
</g>
</g>
<!-- Node2&#45;&gt;Node1 -->
<g id="edge1" class="edge">
<title>Node2&#45;&gt;Node1</title>
<path fill="none" stroke="#9a32cd" stroke-dasharray="5,2" d="M215,-57.04C215,-44.67 215,-29.12 215,-19.63"/>
<polygon fill="#9a32cd" stroke="#9a32cd" points="211.5,-57.23 215,-67.23 218.5,-57.23 211.5,-57.23"/>
<text text-anchor="middle" x="238" y="-41" font-family="Helvetica,sans-Serif" font-size="10.00"> process_</text>
</g>
<!-- Node3 -->
<g id="node3" class="node">
<title>Node3</title>
<g id="a_node3"><a xlink:href="classfire_1_1h5_1_1Writer.html" target="_top" xlink:title="Write the fire DataSets into a deterministic structure in the output HDF5 data file.">
<polygon fill="none" stroke="black" points="0,-234.5 0,-253.5 86,-253.5 86,-234.5 0,-234.5"/>
<text text-anchor="middle" x="43" y="-241.5" font-family="Helvetica,sans-Serif" font-size="10.00">fire::h5::Writer</text>
</a>
</g>
</g>
<!-- Node3&#45;&gt;Node2 -->
<g id="edge2" class="edge">
<title>Node3&#45;&gt;Node2</title>
<path fill="none" stroke="#9a32cd" stroke-dasharray="5,2" d="M39.7,-224.37C36.61,-200.66 35.16,-159.69 56,-134 85.41,-97.75 139.89,-84.93 176.79,-80.42"/>
<polygon fill="#9a32cd" stroke="#9a32cd" points="36.27,-225.14 41.25,-234.49 43.19,-224.07 36.27,-225.14"/>
<text text-anchor="middle" x="86.5" y="-141.5" font-family="Helvetica,sans-Serif" font-size="10.00"> output_file_</text>
</g>
<!-- Node6 -->
<g id="node6" class="node">
<title>Node6</title>
<g id="a_node6"><a xlink:href="classfire_1_1Event.html" target="_top" xlink:title="Event class for interfacing with processors.">
<polygon fill="none" stroke="black" points="126,-134.5 126,-153.5 192,-153.5 192,-134.5 126,-134.5"/>
<text text-anchor="middle" x="159" y="-141.5" font-family="Helvetica,sans-Serif" font-size="10.00">fire::Event</text>
</a>
</g>
</g>
<!-- Node3&#45;&gt;Node6 -->
<g id="edge8" class="edge">
<title>Node3&#45;&gt;Node6</title>
<path fill="none" stroke="#9a32cd" stroke-dasharray="5,2" d="M49.58,-224.95C56.25,-208.99 68.01,-186.11 85,-172 96.68,-162.3 112.14,-155.94 125.91,-151.84"/>
<polygon fill="#9a32cd" stroke="#9a32cd" points="46.32,-223.69 45.93,-234.27 52.84,-226.24 46.32,-223.69"/>
<text text-anchor="middle" x="115.5" y="-191.5" font-family="Helvetica,sans-Serif" font-size="10.00"> output_file_</text>
</g>
<!-- Node4 -->
<g id="node4" class="node">
<title>Node4</title>
<g id="a_node4"><a target="_parent" xlink:href="http://en.cppreference.com/w/cpp/types/size_t.html" xlink:title=" ">
<polygon fill="none" stroke="black" points="64,-329 64,-348 130,-348 130,-329 64,-329"/>
<text text-anchor="middle" x="97" y="-336" font-family="Helvetica,sans-Serif" font-size="10.00">std::size_t</text>
</a>
</g>
</g>
<!-- Node4&#45;&gt;Node3 -->
<g id="edge3" class="edge">
<title>Node4&#45;&gt;Node3</title>
<path fill="none" stroke="#9a32cd" stroke-dasharray="5,2" d="M63.94,-324.16C56.05,-319.34 48.59,-313.04 44,-305 34.81,-288.89 37.91,-266.18 40.66,-253.83"/>
<polygon fill="#9a32cd" stroke="#9a32cd" points="62.44,-327.33 72.91,-328.99 65.76,-321.17 62.44,-327.33"/>
<text text-anchor="middle" x="86.5" y="-291.5" font-family="Helvetica,sans-Serif" font-size="10.00"> entries_</text>
<text text-anchor="middle" x="86.5" y="-280.5" font-family="Helvetica,sans-Serif" font-size="10.00">rows_per_chunk_</text>
</g>
<!-- Node7 -->
<g id="node7" class="node">
<title>Node7</title>
<g id="a_node7"><a xlink:href="classfire_1_1h5_1_1Reader.html" target="_top" xlink:title="Reading a file generated by fire.">
<polygon fill="none" stroke="black" points="105.5,-234.5 105.5,-253.5 196.5,-253.5 196.5,-234.5 105.5,-234.5"/>
<text text-anchor="middle" x="151" y="-241.5" font-family="Helvetica,sans-Serif" font-size="10.00">fire::h5::Reader</text>
</a>
</g>
</g>
<!-- Node4&#45;&gt;Node7 -->
<g id="edge7" class="edge">
<title>Node4&#45;&gt;Node7</title>
<path fill="none" stroke="#9a32cd" stroke-dasharray="5,2" d="M115.23,-321.7C120.18,-316.73 125.22,-310.97 129,-305 139.57,-288.32 146.07,-265.83 149.06,-253.67"/>
<polygon fill="#9a32cd" stroke="#9a32cd" points="112.59,-319.37 107.7,-328.77 117.39,-324.47 112.59,-319.37"/>
<text text-anchor="middle" x="186.5" y="-297" font-family="Helvetica,sans-Serif" font-size="10.00"> entries_</text>
<text text-anchor="middle" x="186.5" y="-286" font-family="Helvetica,sans-Serif" font-size="10.00">rows_per_chunk_</text>
<text text-anchor="middle" x="186.5" y="-275" font-family="Helvetica,sans-Serif" font-size="10.00">runs_</text>
</g>
<!-- Node5 -->
<g id="node5" class="node">
<title>Node5</title>
<g id="a_node5"><a xlink:href="classfire_1_1StorageControl.html" target="_top" xlink:title="Isolation of voting system deciding if events should be kept.">
<polygon fill="none" stroke="black" points="337.5,-134.5 337.5,-153.5 448.5,-153.5 448.5,-134.5 337.5,-134.5"/>
<text text-anchor="middle" x="393" y="-141.5" font-family="Helvetica,sans-Serif" font-size="10.00">fire::StorageControl</text>
</a>
</g>
</g>
<!-- Node5&#45;&gt;Node2 -->
<g id="edge4" class="edge">
<title>Node5&#45;&gt;Node2</title>
<path fill="none" stroke="#9a32cd" stroke-dasharray="5,2" d="M368.39,-129.52C353.3,-121.63 333.4,-111.89 315,-105 294.96,-97.49 271.94,-91.13 253.05,-86.47"/>
<polygon fill="#9a32cd" stroke="#9a32cd" points="367.08,-132.78 377.55,-134.39 370.36,-126.6 367.08,-132.78"/>
<text text-anchor="middle" x="381.5" y="-108" font-family="Helvetica,sans-Serif" font-size="10.00"> storage_control_</text>
</g>
<!-- Node6&#45;&gt;Node2 -->
<g id="edge5" class="edge">
<title>Node6&#45;&gt;Node2</title>
<path fill="none" stroke="#9a32cd" stroke-dasharray="5,2" d="M170.7,-125.86C175.51,-119.15 181.28,-111.53 187,-105 192.7,-98.5 199.7,-91.75 205.27,-86.62"/>
<polygon fill="#9a32cd" stroke="#9a32cd" points="167.7,-124.03 164.83,-134.23 173.44,-128.05 167.7,-124.03"/>
<text text-anchor="middle" x="205.5" y="-108" font-family="Helvetica,sans-Serif" font-size="10.00"> event_</text>
</g>
<!-- Node7&#45;&gt;Node6 -->
<g id="edge6" class="edge">
<title>Node7&#45;&gt;Node6</title>
<path fill="none" stroke="#9a32cd" stroke-dasharray="5,2" d="M150.04,-224.11C149.61,-209.75 149.64,-189.55 152,-172 152.83,-165.86 154.58,-159.11 156.12,-153.89"/>
<polygon fill="#9a32cd" stroke="#9a32cd" points="146.55,-224.36 150.45,-234.21 153.54,-224.07 146.55,-224.36"/>
<text text-anchor="middle" x="179" y="-191.5" font-family="Helvetica,sans-Serif" font-size="10.00"> input_file_</text>
</g>
<!-- Node8 -->
<g id="node8" class="node">
<title>Node8</title>
<g id="a_node8"><a target="_parent" xlink:href="http://en.cppreference.com/w/cpp/string/basic_string.html" xlink:title=" ">
<polygon fill="none" stroke="black" points="222.5,-234.5 222.5,-253.5 287.5,-253.5 287.5,-234.5 222.5,-234.5"/>
<text text-anchor="middle" x="255" y="-241.5" font-family="Helvetica,sans-Serif" font-size="10.00">std::string</text>
</a>
</g>
</g>
<!-- Node8&#45;&gt;Node6 -->
<g id="edge9" class="edge">
<title>Node8&#45;&gt;Node6</title>
<path fill="none" stroke="#9a32cd" stroke-dasharray="5,2" d="M235.6,-227.8C231.77,-224.2 228.01,-220.19 225,-216 212.57,-198.7 220.18,-187.89 206,-172 198.98,-164.14 189.11,-157.98 180.22,-153.55"/>
<polygon fill="#9a32cd" stroke="#9a32cd" points="233.49,-230.6 243.34,-234.5 238.07,-225.31 233.49,-230.6"/>
<text text-anchor="middle" x="240.5" y="-191.5" font-family="Helvetica,sans-Serif" font-size="10.00"> pass_</text>
</g>
<!-- Node10 -->
<g id="node10" class="node">
<title>Node10</title>
<g id="a_node10"><a xlink:href="classfire_1_1RunHeader.html" target="_top" xlink:title="Container for run parameters.">
<polygon fill="none" stroke="black" points="227,-134.5 227,-153.5 319,-153.5 319,-134.5 227,-134.5"/>
<text text-anchor="middle" x="273" y="-141.5" font-family="Helvetica,sans-Serif" font-size="10.00">fire::RunHeader</text>
</a>
</g>
</g>
<!-- Node8&#45;&gt;Node10 -->
<g id="edge12" class="edge">
<title>Node8&#45;&gt;Node10</title>
<path fill="none" stroke="#9a32cd" stroke-dasharray="5,2" d="M258.45,-224.37C258.97,-221.57 259.5,-218.71 260,-216 264.13,-193.57 268.96,-167.15 271.4,-153.75"/>
<polygon fill="#9a32cd" stroke="#9a32cd" points="254.96,-224.02 256.58,-234.49 261.84,-225.29 254.96,-224.02"/>
<text text-anchor="middle" x="306" y="-208" font-family="Helvetica,sans-Serif" font-size="10.00"> NAME</text>
<text text-anchor="middle" x="306" y="-197" font-family="Helvetica,sans-Serif" font-size="10.00">description_</text>
<text text-anchor="middle" x="306" y="-186" font-family="Helvetica,sans-Serif" font-size="10.00">detectorName_</text>
<text text-anchor="middle" x="306" y="-175" font-family="Helvetica,sans-Serif" font-size="10.00">softwareTag_</text>
</g>
<!-- Node9 -->
<g id="node9" class="node">
<title>Node9</title>
<g id="a_node9"><a target="_parent" xlink:href="http://en.cppreference.com/w/cpp/string/basic_string.html" xlink:title=" ">
<polygon fill="none" stroke="black" points="203,-323.5 203,-353.5 307,-353.5 307,-323.5 203,-323.5"/>
<text text-anchor="start" x="211" y="-341.5" font-family="Helvetica,sans-Serif" font-size="10.00">std::basic_string&lt;</text>
<text text-anchor="middle" x="255" y="-330.5" font-family="Helvetica,sans-Serif" font-size="10.00"> char &gt;</text>
</a>
</g>
</g>
<!-- Node9&#45;&gt;Node8 -->
<g id="edge10" class="edge">
<title>Node9&#45;&gt;Node8</title>
<path fill="none" stroke="midnightblue" d="M255,-313.38C255,-293.74 255,-267.12 255,-253.62"/>
<polygon fill="midnightblue" stroke="midnightblue" points="251.5,-313.45 255,-323.45 258.5,-313.45 251.5,-313.45"/>
</g>
<!-- Node10&#45;&gt;Node2 -->
<g id="edge11" class="edge">
<title>Node10&#45;&gt;Node2</title>
<path fill="none" stroke="#9a32cd" stroke-dasharray="5,2" d="M258.4,-126.63C247.05,-113.92 231.77,-96.8 222.7,-86.63"/>
<polygon fill="#9a32cd" stroke="#9a32cd" points="255.91,-129.1 265.18,-134.23 261.13,-124.44 255.91,-129.1"/>
<text text-anchor="middle" x="279" y="-108" font-family="Helvetica,sans-Serif" font-size="10.00"> run_header_</text>
</g>
<!-- Node11 -->
<g id="node11" class="node">
<title>Node11</title>
<g id="a_node11"><a xlink:href="classfire_1_1h5_1_1ParameterStorage.html" target="_top" xlink:title="Provides dynamic parameter storage by interfacing between a map to variants storing parameters and a ...">
<polygon fill="none" stroke="black" points="309,-234.5 309,-253.5 453,-253.5 453,-234.5 309,-234.5"/>
<text text-anchor="middle" x="381" y="-241.5" font-family="Helvetica,sans-Serif" font-size="10.00">fire::h5::ParameterStorage</text>
</a>
</g>
</g>
<!-- Node11&#45;&gt;Node10 -->
<g id="edge13" class="edge">
<title>Node11&#45;&gt;Node10</title>
<path fill="none" stroke="#9a32cd" stroke-dasharray="5,2" d="M376.7,-224.5C372.11,-208.58 363.32,-186.01 348,-172 338.71,-163.5 326.54,-157.63 314.72,-153.6"/>
<polygon fill="#9a32cd" stroke="#9a32cd" points="373.34,-225.48 379.24,-234.28 380.12,-223.72 373.34,-225.48"/>
<text text-anchor="middle" x="405.5" y="-191.5" font-family="Helvetica,sans-Serif" font-size="10.00"> parameters_</text>
</g>
</g>
</svg>
