<?xml version="1.0" encoding="UTF-8" standalone="no"?>
<!DOCTYPE svg PUBLIC "-//W3C//DTD SVG 1.1//EN"
 "http://www.w3.org/Graphics/SVG/1.1/DTD/svg11.dtd">
<!-- Generated by graphviz version 2.43.0 (0)
 -->
<!-- Title: fire::RandomNumberSeedService Pages: 1 -->
<svg width="810pt" height="497pt"
 viewBox="0.00 0.00 809.50 497.00" xmlns="http://www.w3.org/2000/svg" xmlns:xlink="http://www.w3.org/1999/xlink">
<g id="graph0" class="graph" transform="scale(1 1) rotate(0) translate(4 493)">
<title>fire::RandomNumberSeedService</title>
<!-- Node1 -->
<g id="node1" class="node">
<title>Node1</title>
<g id="a_node1"><a xlink:title="System for consistent seeding of random number generators.">
<polygon fill="#bfbfbf" stroke="black" points="534.5,-0.5 534.5,-19.5 712.5,-19.5 712.5,-0.5 534.5,-0.5"/>
<text text-anchor="middle" x="623.5" y="-7.5" font-family="Helvetica,sans-Serif" font-size="10.00">fire::RandomNumberSeedService</text>
</a>
</g>
</g>
<!-- Node2 -->
<g id="node2" class="node">
<title>Node2</title>
<g id="a_node2"><a xlink:href="classfire_1_1ConditionsObject.html" target="_top" xlink:title="Base class for all conditions objects, very simple.">
<polygon fill="none" stroke="black" points="679.5,-231.5 679.5,-250.5 801.5,-250.5 801.5,-231.5 679.5,-231.5"/>
<text text-anchor="middle" x="740.5" y="-238.5" font-family="Helvetica,sans-Serif" font-size="10.00">fire::ConditionsObject</text>
</a>
</g>
</g>
<!-- Node2&#45;&gt;Node1 -->
<g id="edge1" class="edge">
<title>Node2&#45;&gt;Node1</title>
<path fill="none" stroke="midnightblue" d="M755.99,-223.64C767.24,-209.99 780.5,-189.47 780.5,-168.5 780.5,-168.5 780.5,-168.5 780.5,-66 780.5,-43.69 723.32,-28.28 677.97,-19.56"/>
<polygon fill="midnightblue" stroke="midnightblue" points="753.33,-221.35 749.38,-231.18 758.6,-225.97 753.33,-221.35"/>
</g>
<!-- Node3 -->
<g id="node3" class="node">
<title>Node3</title>
<g id="a_node3"><a target="_parent" xlink:href="http://en.cppreference.com/w/cpp/string/basic_string.html" xlink:title=" ">
<polygon fill="none" stroke="black" points="495,-369.5 495,-388.5 560,-388.5 560,-369.5 495,-369.5"/>
<text text-anchor="middle" x="527.5" y="-376.5" font-family="Helvetica,sans-Serif" font-size="10.00">std::string</text>
</a>
</g>
</g>
<!-- Node3&#45;&gt;Node1 -->
<g id="edge19" class="edge">
<title>Node3&#45;&gt;Node1</title>
<path fill="none" stroke="#9a32cd" stroke-dasharray="5,2" d="M555.57,-364.38C583.9,-348.44 623.5,-319.16 623.5,-280 623.5,-280 623.5,-280 623.5,-66 623.5,-49.58 623.5,-30.39 623.5,-19.57"/>
<polygon fill="#9a32cd" stroke="#9a32cd" points="553.62,-361.46 546.47,-369.27 556.93,-367.62 553.62,-361.46"/>
<text text-anchor="middle" x="694.5" y="-165" font-family="Helvetica,sans-Serif" font-size="10.00"> CONDITIONS_OBJECT_NAME</text>
</g>
<!-- Node3&#45;&gt;Node2 -->
<g id="edge2" class="edge">
<title>Node3&#45;&gt;Node2</title>
<path fill="none" stroke="#9a32cd" stroke-dasharray="5,2" d="M570.22,-373.32C591.53,-369.58 617.05,-362.9 637.5,-351 683.18,-324.41 721.18,-271.45 734.96,-250.66"/>
<polygon fill="#9a32cd" stroke="#9a32cd" points="569.46,-369.89 560.13,-374.92 570.56,-376.81 569.46,-369.89"/>
<text text-anchor="middle" x="707" y="-326.5" font-family="Helvetica,sans-Serif" font-size="10.00"> name_</text>
</g>
<!-- Node5 -->
<g id="node5" class="node">
<title>Node5</title>
<g id="a_node5"><a xlink:href="classfire_1_1ConditionsProvider.html" target="_top" xlink:title="Base class for all providers of conditions objects.">
<polygon fill="none" stroke="black" points="462,-57.5 462,-76.5 593,-76.5 593,-57.5 462,-57.5"/>
<text text-anchor="middle" x="527.5" y="-64.5" font-family="Helvetica,sans-Serif" font-size="10.00">fire::ConditionsProvider</text>
</a>
</g>
</g>
<!-- Node3&#45;&gt;Node5 -->
<g id="edge18" class="edge">
<title>Node3&#45;&gt;Node5</title>
<path fill="none" stroke="#9a32cd" stroke-dasharray="5,2" d="M527.5,-359.28C527.5,-339.55 527.5,-307.59 527.5,-280 527.5,-280 527.5,-280 527.5,-133 527.5,-112.91 527.5,-89.33 527.5,-76.83"/>
<polygon fill="#9a32cd" stroke="#9a32cd" points="524,-359.35 527.5,-369.35 531,-359.35 524,-359.35"/>
<text text-anchor="middle" x="561.5" y="-205" font-family="Helvetica,sans-Serif" font-size="10.00"> objectName_</text>
<text text-anchor="middle" x="561.5" y="-194" font-family="Helvetica,sans-Serif" font-size="10.00">tagname_</text>
</g>
<!-- Node11 -->
<g id="node11" class="node">
<title>Node11</title>
<g id="a_node11"><a xlink:href="classfire_1_1Event.html" target="_top" xlink:title="Event class for interfacing with processors.">
<polygon fill="none" stroke="black" points="93.5,-269.5 93.5,-288.5 159.5,-288.5 159.5,-269.5 93.5,-269.5"/>
<text text-anchor="middle" x="126.5" y="-276.5" font-family="Helvetica,sans-Serif" font-size="10.00">fire::Event</text>
</a>
</g>
</g>
<!-- Node3&#45;&gt;Node11 -->
<g id="edge14" class="edge">
<title>Node3&#45;&gt;Node11</title>
<path fill="none" stroke="#9a32cd" stroke-dasharray="5,2" d="M484.58,-374.65C446.81,-370.92 395.43,-363.67 379.5,-351 362.83,-337.74 377.71,-319.56 360.5,-307 327.31,-282.78 217.19,-294.64 176.5,-289 171,-288.24 165.17,-287.3 159.52,-286.33"/>
<polygon fill="#9a32cd" stroke="#9a32cd" points="484.55,-378.16 494.83,-375.61 485.2,-371.2 484.55,-378.16"/>
<text text-anchor="middle" x="395" y="-326.5" font-family="Helvetica,sans-Serif" font-size="10.00"> pass_</text>
</g>
<!-- Node13 -->
<g id="node13" class="node">
<title>Node13</title>
<g id="a_node13"><a xlink:href="classfire_1_1RunHeader.html" target="_top" xlink:title="Container for run parameters.">
<polygon fill="none" stroke="black" points="277.5,-269.5 277.5,-288.5 369.5,-288.5 369.5,-269.5 277.5,-269.5"/>
<text text-anchor="middle" x="323.5" y="-276.5" font-family="Helvetica,sans-Serif" font-size="10.00">fire::RunHeader</text>
</a>
</g>
</g>
<!-- Node3&#45;&gt;Node13 -->
<g id="edge16" class="edge">
<title>Node3&#45;&gt;Node13</title>
<path fill="none" stroke="#9a32cd" stroke-dasharray="5,2" d="M484.75,-372.39C468.55,-368.53 450.83,-362.01 437.5,-351 420.49,-336.95 431.54,-321.03 414.5,-307 406.42,-300.35 383.96,-293.65 363.38,-288.59"/>
<polygon fill="#9a32cd" stroke="#9a32cd" points="484.07,-375.83 494.58,-374.47 485.51,-368.98 484.07,-375.83"/>
<text text-anchor="middle" x="475.5" y="-343" font-family="Helvetica,sans-Serif" font-size="10.00"> NAME</text>
<text text-anchor="middle" x="475.5" y="-332" font-family="Helvetica,sans-Serif" font-size="10.00">description_</text>
<text text-anchor="middle" x="475.5" y="-321" font-family="Helvetica,sans-Serif" font-size="10.00">detectorName_</text>
<text text-anchor="middle" x="475.5" y="-310" font-family="Helvetica,sans-Serif" font-size="10.00">softwareTag_</text>
</g>
<!-- Node4 -->
<g id="node4" class="node">
<title>Node4</title>
<g id="a_node4"><a target="_parent" xlink:href="http://en.cppreference.com/w/cpp/string/basic_string.html" xlink:title=" ">
<polygon fill="none" stroke="black" points="475.5,-458.5 475.5,-488.5 579.5,-488.5 579.5,-458.5 475.5,-458.5"/>
<text text-anchor="start" x="483.5" y="-476.5" font-family="Helvetica,sans-Serif" font-size="10.00">std::basic_string&lt;</text>
<text text-anchor="middle" x="527.5" y="-465.5" font-family="Helvetica,sans-Serif" font-size="10.00"> char &gt;</text>
</a>
</g>
</g>
<!-- Node4&#45;&gt;Node3 -->
<g id="edge3" class="edge">
<title>Node4&#45;&gt;Node3</title>
<path fill="none" stroke="midnightblue" d="M527.5,-448.38C527.5,-428.74 527.5,-402.12 527.5,-388.62"/>
<polygon fill="midnightblue" stroke="midnightblue" points="524,-448.45 527.5,-458.45 531,-448.45 524,-448.45"/>
</g>
<!-- Node5&#45;&gt;Node1 -->
<g id="edge4" class="edge">
<title>Node5&#45;&gt;Node1</title>
<path fill="none" stroke="midnightblue" d="M551.25,-52.39C569.2,-42.11 593.29,-28.31 608.61,-19.53"/>
<polygon fill="midnightblue" stroke="midnightblue" points="549.44,-49.4 542.5,-57.41 552.92,-55.47 549.44,-49.4"/>
</g>
<!-- Node6 -->
<g id="node6" class="node">
<title>Node6</title>
<g id="a_node6"><a xlink:href="classfire_1_1Conditions.html" target="_top" xlink:title="Container and cache for conditions and conditions providers.">
<polygon fill="none" stroke="black" points="360.5,-124.5 360.5,-143.5 450.5,-143.5 450.5,-124.5 360.5,-124.5"/>
<text text-anchor="middle" x="405.5" y="-131.5" font-family="Helvetica,sans-Serif" font-size="10.00">fire::Conditions</text>
</a>
</g>
</g>
<!-- Node6&#45;&gt;Node5 -->
<g id="edge5" class="edge">
<title>Node6&#45;&gt;Node5</title>
<path fill="none" stroke="#9a32cd" stroke-dasharray="5,2" d="M422.79,-117.48C431.78,-109.97 443.23,-101.26 454.5,-95 468.2,-87.39 484.48,-81.13 498.18,-76.56"/>
<polygon fill="#9a32cd" stroke="#9a32cd" points="420.3,-115.01 415.01,-124.19 424.87,-120.31 420.3,-115.01"/>
<text text-anchor="middle" x="484" y="-98" font-family="Helvetica,sans-Serif" font-size="10.00"> conditions_</text>
</g>
<!-- Node7 -->
<g id="node7" class="node">
<title>Node7</title>
<g id="a_node7"><a xlink:href="classfire_1_1Process.html" target="_top" xlink:title="The central object managing the data processing.">
<polygon fill="none" stroke="black" points="285.5,-192.5 285.5,-211.5 361.5,-211.5 361.5,-192.5 285.5,-192.5"/>
<text text-anchor="middle" x="323.5" y="-199.5" font-family="Helvetica,sans-Serif" font-size="10.00">fire::Process</text>
</a>
</g>
</g>
<!-- Node7&#45;&gt;Node6 -->
<g id="edge6" class="edge">
<title>Node7&#45;&gt;Node6</title>
<path fill="none" stroke="#9a32cd" stroke-dasharray="5,2" d="M342.02,-186.1C358.29,-173 381.39,-154.4 394.78,-143.63"/>
<polygon fill="#9a32cd" stroke="#9a32cd" points="339.82,-183.37 334.22,-192.37 344.2,-188.83 339.82,-183.37"/>
<text text-anchor="middle" x="395.5" y="-165" font-family="Helvetica,sans-Serif" font-size="10.00"> process_</text>
</g>
<!-- Node8 -->
<g id="node8" class="node">
<title>Node8</title>
<g id="a_node8"><a xlink:href="classfire_1_1h5_1_1Writer.html" target="_top" xlink:title="Write the fire DataSets into a deterministic structure in the output HDF5 data file.">
<polygon fill="none" stroke="black" points="110.5,-369.5 110.5,-388.5 196.5,-388.5 196.5,-369.5 110.5,-369.5"/>
<text text-anchor="middle" x="153.5" y="-376.5" font-family="Helvetica,sans-Serif" font-size="10.00">fire::h5::Writer</text>
</a>
</g>
</g>
<!-- Node8&#45;&gt;Node7 -->
<g id="edge7" class="edge">
<title>Node8&#45;&gt;Node7</title>
<path fill="none" stroke="#9a32cd" stroke-dasharray="5,2" d="M174.39,-362.83C178.18,-359.3 181.78,-355.3 184.5,-351 204.73,-319.01 184.19,-298.82 207.5,-269 230.33,-239.79 269.94,-221.31 296.43,-211.56"/>
<polygon fill="#9a32cd" stroke="#9a32cd" points="172,-360.26 166.58,-369.36 176.49,-365.63 172,-360.26"/>
<text text-anchor="middle" x="238" y="-276.5" font-family="Helvetica,sans-Serif" font-size="10.00"> output_file_</text>
</g>
<!-- Node8&#45;&gt;Node11 -->
<g id="edge13" class="edge">
<title>Node8&#45;&gt;Node11</title>
<path fill="none" stroke="#9a32cd" stroke-dasharray="5,2" d="M131.72,-362.6C128.38,-359.19 125.41,-355.29 123.5,-351 114.26,-330.26 119.85,-302.66 123.73,-288.77"/>
<polygon fill="#9a32cd" stroke="#9a32cd" points="129.53,-365.33 139.36,-369.27 134.13,-360.06 129.53,-365.33"/>
<text text-anchor="middle" x="154" y="-326.5" font-family="Helvetica,sans-Serif" font-size="10.00"> output_file_</text>
</g>
<!-- Node9 -->
<g id="node9" class="node">
<title>Node9</title>
<g id="a_node9"><a target="_parent" xlink:href="http://en.cppreference.com/w/cpp/types/size_t.html" xlink:title=" ">
<polygon fill="none" stroke="black" points="66.5,-464 66.5,-483 132.5,-483 132.5,-464 66.5,-464"/>
<text text-anchor="middle" x="99.5" y="-471" font-family="Helvetica,sans-Serif" font-size="10.00">std::size_t</text>
</a>
</g>
</g>
<!-- Node9&#45;&gt;Node8 -->
<g id="edge8" class="edge">
<title>Node9&#45;&gt;Node8</title>
<path fill="none" stroke="#9a32cd" stroke-dasharray="5,2" d="M117.73,-456.7C122.68,-451.73 127.72,-445.97 131.5,-440 142.07,-423.32 148.57,-400.83 151.56,-388.67"/>
<polygon fill="#9a32cd" stroke="#9a32cd" points="115.09,-454.37 110.2,-463.77 119.89,-459.47 115.09,-454.37"/>
<text text-anchor="middle" x="189" y="-426.5" font-family="Helvetica,sans-Serif" font-size="10.00"> entries_</text>
<text text-anchor="middle" x="189" y="-415.5" font-family="Helvetica,sans-Serif" font-size="10.00">rows_per_chunk_</text>
</g>
<!-- Node12 -->
<g id="node12" class="node">
<title>Node12</title>
<g id="a_node12"><a xlink:href="classfire_1_1h5_1_1Reader.html" target="_top" xlink:title="Reading a file generated by fire.">
<polygon fill="none" stroke="black" points="0,-369.5 0,-388.5 91,-388.5 91,-369.5 0,-369.5"/>
<text text-anchor="middle" x="45.5" y="-376.5" font-family="Helvetica,sans-Serif" font-size="10.00">fire::h5::Reader</text>
</a>
</g>
</g>
<!-- Node9&#45;&gt;Node12 -->
<g id="edge12" class="edge">
<title>Node9&#45;&gt;Node12</title>
<path fill="none" stroke="#9a32cd" stroke-dasharray="5,2" d="M63.31,-459.36C55.04,-454.57 47.29,-448.25 42.5,-440 33.17,-423.95 38.27,-401.21 42.24,-388.85"/>
<polygon fill="#9a32cd" stroke="#9a32cd" points="61.86,-462.55 72.36,-463.96 65.03,-456.31 61.86,-462.55"/>
<text text-anchor="middle" x="85" y="-432" font-family="Helvetica,sans-Serif" font-size="10.00"> entries_</text>
<text text-anchor="middle" x="85" y="-421" font-family="Helvetica,sans-Serif" font-size="10.00">rows_per_chunk_</text>
<text text-anchor="middle" x="85" y="-410" font-family="Helvetica,sans-Serif" font-size="10.00">runs_</text>
</g>
<!-- Node10 -->
<g id="node10" class="node">
<title>Node10</title>
<g id="a_node10"><a xlink:href="classfire_1_1StorageControl.html" target="_top" xlink:title="Isolation of voting system deciding if events should be kept.">
<polygon fill="none" stroke="black" points="388,-269.5 388,-288.5 499,-288.5 499,-269.5 388,-269.5"/>
<text text-anchor="middle" x="443.5" y="-276.5" font-family="Helvetica,sans-Serif" font-size="10.00">fire::StorageControl</text>
</a>
</g>
</g>
<!-- Node10&#45;&gt;Node7 -->
<g id="edge9" class="edge">
<title>Node10&#45;&gt;Node7</title>
<path fill="none" stroke="#9a32cd" stroke-dasharray="5,2" d="M428.75,-262.11C418.92,-252.2 405.31,-239.71 391.5,-231 378.65,-222.89 363.05,-216.27 350.04,-211.51"/>
<polygon fill="#9a32cd" stroke="#9a32cd" points="426.3,-264.61 435.76,-269.39 431.35,-259.76 426.3,-264.61"/>
<text text-anchor="middle" x="460" y="-238.5" font-family="Helvetica,sans-Serif" font-size="10.00"> storage_control_</text>
</g>
<!-- Node11&#45;&gt;Node7 -->
<g id="edge10" class="edge">
<title>Node11&#45;&gt;Node7</title>
<path fill="none" stroke="#9a32cd" stroke-dasharray="5,2" d="M130.31,-259.32C133.31,-249.4 138.54,-237.87 147.5,-231 168.49,-214.9 239.97,-207.82 285.12,-204.89"/>
<polygon fill="#9a32cd" stroke="#9a32cd" points="126.88,-258.61 127.86,-269.16 133.67,-260.3 126.88,-258.61"/>
<text text-anchor="middle" x="166" y="-238.5" font-family="Helvetica,sans-Serif" font-size="10.00"> event_</text>
</g>
<!-- Node12&#45;&gt;Node11 -->
<g id="edge11" class="edge">
<title>Node12&#45;&gt;Node11</title>
<path fill="none" stroke="#9a32cd" stroke-dasharray="5,2" d="M44.85,-359.42C45.27,-343.77 48.29,-321.63 60.5,-307 68.83,-297.02 81.43,-290.68 93.39,-286.68"/>
<polygon fill="#9a32cd" stroke="#9a32cd" points="41.35,-359.5 44.9,-369.48 48.35,-359.46 41.35,-359.5"/>
<text text-anchor="middle" x="87.5" y="-326.5" font-family="Helvetica,sans-Serif" font-size="10.00"> input_file_</text>
</g>
<!-- Node13&#45;&gt;Node7 -->
<g id="edge15" class="edge">
<title>Node13&#45;&gt;Node7</title>
<path fill="none" stroke="#9a32cd" stroke-dasharray="5,2" d="M323.5,-259.02C323.5,-243.74 323.5,-222.98 323.5,-211.5"/>
<polygon fill="#9a32cd" stroke="#9a32cd" points="320,-259.4 323.5,-269.4 327,-259.4 320,-259.4"/>
<text text-anchor="middle" x="355.5" y="-238.5" font-family="Helvetica,sans-Serif" font-size="10.00"> run_header_</text>
</g>
<!-- Node14 -->
<g id="node14" class="node">
<title>Node14</title>
<g id="a_node14"><a xlink:href="classfire_1_1h5_1_1ParameterStorage.html" target="_top" xlink:title="Provides dynamic parameter storage by interfacing between a map to variants storing parameters and a ...">
<polygon fill="none" stroke="black" points="222.5,-369.5 222.5,-388.5 366.5,-388.5 366.5,-369.5 222.5,-369.5"/>
<text text-anchor="middle" x="294.5" y="-376.5" font-family="Helvetica,sans-Serif" font-size="10.00">fire::h5::ParameterStorage</text>
</a>
</g>
</g>
<!-- Node14&#45;&gt;Node13 -->
<g id="edge17" class="edge">
<title>Node14&#45;&gt;Node13</title>
<path fill="none" stroke="#9a32cd" stroke-dasharray="5,2" d="M290.96,-359.28C289.03,-344.46 288.31,-323.59 295.5,-307 298.67,-299.69 304.86,-293.38 310.62,-288.7"/>
<polygon fill="#9a32cd" stroke="#9a32cd" points="287.52,-359.93 292.55,-369.25 294.43,-358.82 287.52,-359.93"/>
<text text-anchor="middle" x="328" y="-326.5" font-family="Helvetica,sans-Serif" font-size="10.00"> parameters_</text>
</g>
</g>
</svg>
