<?xml version="1.0" encoding="UTF-8" standalone="no"?>
<!DOCTYPE svg PUBLIC "-//W3C//DTD SVG 1.1//EN"
 "http://www.w3.org/Graphics/SVG/1.1/DTD/svg11.dtd">
<!-- Generated by graphviz version 2.43.0 (0)
 -->
<!-- Title: fire::RunHeader Pages: 1 -->
<svg width="255pt" height="196pt"
 viewBox="0.00 0.00 255.00 196.00" xmlns="http://www.w3.org/2000/svg" xmlns:xlink="http://www.w3.org/1999/xlink">
<g id="graph0" class="graph" transform="scale(1 1) rotate(0) translate(4 192)">
<title>fire::RunHeader</title>
<!-- Node1 -->
<g id="node1" class="node">
<title>Node1</title>
<g id="a_node1"><a xlink:title="Container for run parameters.">
<polygon fill="#bfbfbf" stroke="black" points="67,-0.5 67,-19.5 159,-19.5 159,-0.5 67,-0.5"/>
<text text-anchor="middle" x="113" y="-7.5" font-family="Helvetica,sans-Serif" font-size="10.00">fire::RunHeader</text>
</a>
</g>
</g>
<!-- Node2 -->
<g id="node2" class="node">
<title>Node2</title>
<g id="a_node2"><a target="_parent" xlink:href="http://en.cppreference.com/w/cpp/string/basic_string.html" xlink:title=" ">
<polygon fill="none" stroke="black" points="19.5,-100.5 19.5,-119.5 84.5,-119.5 84.5,-100.5 19.5,-100.5"/>
<text text-anchor="middle" x="52" y="-107.5" font-family="Helvetica,sans-Serif" font-size="10.00">std::string</text>
</a>
</g>
</g>
<!-- Node2&#45;&gt;Node1 -->
<g id="edge1" class="edge">
<title>Node2&#45;&gt;Node1</title>
<path fill="none" stroke="#9a32cd" stroke-dasharray="5,2" d="M55.47,-90.15C58.97,-74.95 65.54,-53.62 77,-38 82.45,-30.57 90.53,-24.25 97.65,-19.6"/>
<polygon fill="#9a32cd" stroke="#9a32cd" points="51.95,-89.87 53.36,-100.37 58.81,-91.29 51.95,-89.87"/>
<text text-anchor="middle" x="115" y="-74" font-family="Helvetica,sans-Serif" font-size="10.00"> NAME</text>
<text text-anchor="middle" x="115" y="-63" font-family="Helvetica,sans-Serif" font-size="10.00">description_</text>
<text text-anchor="middle" x="115" y="-52" font-family="Helvetica,sans-Serif" font-size="10.00">detectorName_</text>
<text text-anchor="middle" x="115" y="-41" font-family="Helvetica,sans-Serif" font-size="10.00">softwareTag_</text>
</g>
<!-- Node3 -->
<g id="node3" class="node">
<title>Node3</title>
<g id="a_node3"><a target="_parent" xlink:href="http://en.cppreference.com/w/cpp/string/basic_string.html" xlink:title=" ">
<polygon fill="none" stroke="black" points="0,-157.5 0,-187.5 104,-187.5 104,-157.5 0,-157.5"/>
<text text-anchor="start" x="8" y="-175.5" font-family="Helvetica,sans-Serif" font-size="10.00">std::basic_string&lt;</text>
<text text-anchor="middle" x="52" y="-164.5" font-family="Helvetica,sans-Serif" font-size="10.00"> char &gt;</text>
</a>
</g>
</g>
<!-- Node3&#45;&gt;Node2 -->
<g id="edge2" class="edge">
<title>Node3&#45;&gt;Node2</title>
<path fill="none" stroke="midnightblue" d="M52,-147.35C52,-137.51 52,-126.78 52,-119.54"/>
<polygon fill="midnightblue" stroke="midnightblue" points="48.5,-147.47 52,-157.47 55.5,-147.47 48.5,-147.47"/>
</g>
<!-- Node4 -->
<g id="node4" class="node">
<title>Node4</title>
<g id="a_node4"><a xlink:href="classfire_1_1h5_1_1ParameterStorage.html" target="_top" xlink:title="Provides dynamic parameter storage by interfacing between a map to variants storing parameters and a ...">
<polygon fill="none" stroke="black" points="103,-100.5 103,-119.5 247,-119.5 247,-100.5 103,-100.5"/>
<text text-anchor="middle" x="175" y="-107.5" font-family="Helvetica,sans-Serif" font-size="10.00">fire::h5::ParameterStorage</text>
</a>
</g>
</g>
<!-- Node4&#45;&gt;Node1 -->
<g id="edge3" class="edge">
<title>Node4&#45;&gt;Node1</title>
<path fill="none" stroke="#9a32cd" stroke-dasharray="5,2" d="M172.65,-90.01C169.98,-74.73 164.4,-53.36 153,-38 147.31,-30.33 138.75,-24.14 131.01,-19.63"/>
<polygon fill="#9a32cd" stroke="#9a32cd" points="169.25,-90.92 174.17,-100.3 176.17,-89.89 169.25,-90.92"/>
<text text-anchor="middle" x="203.5" y="-57.5" font-family="Helvetica,sans-Serif" font-size="10.00"> parameters_</text>
</g>
</g>
</svg>
