<?xml version="1.0" encoding="UTF-8" standalone="no"?>
<!DOCTYPE svg PUBLIC "-//W3C//DTD SVG 1.1//EN"
 "http://www.w3.org/Graphics/SVG/1.1/DTD/svg11.dtd">
<!-- Generated by graphviz version 2.43.0 (0)
 -->
<!-- Title: fire::Event Pages: 1 -->
<svg width="307pt" height="163pt"
 viewBox="0.00 0.00 306.50 163.00" xmlns="http://www.w3.org/2000/svg" xmlns:xlink="http://www.w3.org/1999/xlink">
<g id="graph0" class="graph" transform="scale(1 1) rotate(0) translate(4 159)">
<title>fire::Event</title>
<!-- Node1 -->
<g id="node1" class="node">
<title>Node1</title>
<g id="a_node1"><a xlink:title="Event class for interfacing with processors.">
<polygon fill="#bfbfbf" stroke="black" points="119.5,-0.5 119.5,-19.5 185.5,-19.5 185.5,-0.5 119.5,-0.5"/>
<text text-anchor="middle" x="152.5" y="-7.5" font-family="Helvetica,sans-Serif" font-size="10.00">fire::Event</text>
</a>
</g>
</g>
<!-- Node2 -->
<g id="node2" class="node">
<title>Node2</title>
<g id="a_node2"><a xlink:href="classfire_1_1h5_1_1Reader.html" target="_top" xlink:title="Reading a file generated by fire.">
<polygon fill="none" stroke="black" points="0,-67.5 0,-86.5 91,-86.5 91,-67.5 0,-67.5"/>
<text text-anchor="middle" x="45.5" y="-74.5" font-family="Helvetica,sans-Serif" font-size="10.00">fire::h5::Reader</text>
</a>
</g>
</g>
<!-- Node2&#45;&gt;Node1 -->
<g id="edge1" class="edge">
<title>Node2&#45;&gt;Node1</title>
<path fill="none" stroke="#9a32cd" stroke-dasharray="5,2" d="M63.02,-60.87C72.07,-53.46 83.5,-44.71 94.5,-38 106.16,-30.89 120.01,-24.38 131.25,-19.53"/>
<polygon fill="#9a32cd" stroke="#9a32cd" points="60.58,-58.35 55.16,-67.45 65.07,-63.71 60.58,-58.35"/>
<text text-anchor="middle" x="121.5" y="-41" font-family="Helvetica,sans-Serif" font-size="10.00"> input_file_</text>
</g>
<!-- Node3 -->
<g id="node3" class="node">
<title>Node3</title>
<g id="a_node3"><a xlink:href="classfire_1_1h5_1_1Writer.html" target="_top" xlink:title="Write the fire DataSets into a deterministic structure in the output HDF5 data file.">
<polygon fill="none" stroke="black" points="109.5,-67.5 109.5,-86.5 195.5,-86.5 195.5,-67.5 109.5,-67.5"/>
<text text-anchor="middle" x="152.5" y="-74.5" font-family="Helvetica,sans-Serif" font-size="10.00">fire::h5::Writer</text>
</a>
</g>
</g>
<!-- Node3&#45;&gt;Node1 -->
<g id="edge2" class="edge">
<title>Node3&#45;&gt;Node1</title>
<path fill="none" stroke="#9a32cd" stroke-dasharray="5,2" d="M152.5,-57.04C152.5,-44.67 152.5,-29.12 152.5,-19.63"/>
<polygon fill="#9a32cd" stroke="#9a32cd" points="149,-57.23 152.5,-67.23 156,-57.23 149,-57.23"/>
<text text-anchor="middle" x="183" y="-41" font-family="Helvetica,sans-Serif" font-size="10.00"> output_file_</text>
</g>
<!-- Node4 -->
<g id="node4" class="node">
<title>Node4</title>
<g id="a_node4"><a xlink:title=" ">
<polygon fill="none" stroke="#bfbfbf" points="214,-67.5 214,-86.5 279,-86.5 279,-67.5 214,-67.5"/>
<text text-anchor="middle" x="246.5" y="-74.5" font-family="Helvetica,sans-Serif" font-size="10.00">std::string</text>
</a>
</g>
</g>
<!-- Node4&#45;&gt;Node1 -->
<g id="edge3" class="edge">
<title>Node4&#45;&gt;Node1</title>
<path fill="none" stroke="#9a32cd" stroke-dasharray="5,2" d="M236.35,-58.94C231.39,-51.73 224.9,-43.7 217.5,-38 207.04,-29.95 193.84,-23.88 182.07,-19.56"/>
<polygon fill="#9a32cd" stroke="#9a32cd" points="233.43,-60.86 241.76,-67.39 239.32,-57.08 233.43,-60.86"/>
<text text-anchor="middle" x="244" y="-41" font-family="Helvetica,sans-Serif" font-size="10.00"> pass_</text>
</g>
<!-- Node5 -->
<g id="node5" class="node">
<title>Node5</title>
<g id="a_node5"><a xlink:title=" ">
<polygon fill="none" stroke="#bfbfbf" points="194.5,-124.5 194.5,-154.5 298.5,-154.5 298.5,-124.5 194.5,-124.5"/>
<text text-anchor="start" x="202.5" y="-142.5" font-family="Helvetica,sans-Serif" font-size="10.00">std::basic_string&lt;</text>
<text text-anchor="middle" x="246.5" y="-131.5" font-family="Helvetica,sans-Serif" font-size="10.00"> Char &gt;</text>
</a>
</g>
</g>
<!-- Node5&#45;&gt;Node4 -->
<g id="edge4" class="edge">
<title>Node5&#45;&gt;Node4</title>
<path fill="none" stroke="midnightblue" d="M246.5,-114.35C246.5,-104.51 246.5,-93.78 246.5,-86.54"/>
<polygon fill="midnightblue" stroke="midnightblue" points="243,-114.47 246.5,-124.47 250,-114.47 243,-114.47"/>
</g>
</g>
</svg>
