<?xml version="1.0" encoding="UTF-8" standalone="no"?>
<!DOCTYPE svg PUBLIC "-//W3C//DTD SVG 1.1//EN"
 "http://www.w3.org/Graphics/SVG/1.1/DTD/svg11.dtd">
<!-- Generated by graphviz version 2.43.0 (0)
 -->
<!-- Title: fire::h5::AbstractData&lt; DataType &gt; Pages: 1 -->
<svg width="128pt" height="231pt"
 viewBox="0.00 0.00 128.00 231.00" xmlns="http://www.w3.org/2000/svg" xmlns:xlink="http://www.w3.org/1999/xlink">
<g id="graph0" class="graph" transform="scale(1 1) rotate(0) translate(4 227)">
<title>fire::h5::AbstractData&lt; DataType &gt;</title>
<!-- Node1 -->
<g id="node1" class="node">
<title>Node1</title>
<g id="a_node1"><a xlink:title="Type&#45;specific base class to hold common data methods.">
<polygon fill="#bfbfbf" stroke="black" points="0,-0.5 0,-30.5 120,-30.5 120,-0.5 0,-0.5"/>
<text text-anchor="start" x="8" y="-18.5" font-family="Helvetica,sans-Serif" font-size="10.00">fire::h5::AbstractData</text>
<text text-anchor="middle" x="60" y="-7.5" font-family="Helvetica,sans-Serif" font-size="10.00">&lt; DataType &gt;</text>
</a>
</g>
</g>
<!-- Node2 -->
<g id="node2" class="node">
<title>Node2</title>
<g id="a_node2"><a xlink:href="classfire_1_1h5_1_1BaseData.html" target="_top" xlink:title="Empty data base allowing recursion.">
<polygon fill="none" stroke="black" points="8,-68.5 8,-87.5 112,-87.5 112,-68.5 8,-68.5"/>
<text text-anchor="middle" x="60" y="-75.5" font-family="Helvetica,sans-Serif" font-size="10.00">fire::h5::BaseData</text>
</a>
</g>
</g>
<!-- Node2&#45;&gt;Node1 -->
<g id="edge1" class="edge">
<title>Node2&#45;&gt;Node1</title>
<path fill="none" stroke="midnightblue" d="M60,-58.22C60,-49.36 60,-38.96 60,-30.76"/>
<polygon fill="midnightblue" stroke="midnightblue" points="56.5,-58.33 60,-68.33 63.5,-58.33 56.5,-58.33"/>
</g>
<!-- Node3 -->
<g id="node3" class="node">
<title>Node3</title>
<g id="a_node3"><a target="_parent" xlink:href="http://en.cppreference.com/w/cpp/string/basic_string.html" xlink:title=" ">
<polygon fill="none" stroke="black" points="27.5,-135.5 27.5,-154.5 92.5,-154.5 92.5,-135.5 27.5,-135.5"/>
<text text-anchor="middle" x="60" y="-142.5" font-family="Helvetica,sans-Serif" font-size="10.00">std::string</text>
</a>
</g>
</g>
<!-- Node3&#45;&gt;Node2 -->
<g id="edge2" class="edge">
<title>Node3&#45;&gt;Node2</title>
<path fill="none" stroke="#9a32cd" stroke-dasharray="5,2" d="M60,-125.04C60,-112.67 60,-97.12 60,-87.63"/>
<polygon fill="#9a32cd" stroke="#9a32cd" points="56.5,-125.23 60,-135.23 63.5,-125.23 56.5,-125.23"/>
<text text-anchor="middle" x="75.5" y="-109" font-family="Helvetica,sans-Serif" font-size="10.00"> path_</text>
</g>
<!-- Node4 -->
<g id="node4" class="node">
<title>Node4</title>
<g id="a_node4"><a target="_parent" xlink:href="http://en.cppreference.com/w/cpp/string/basic_string.html" xlink:title=" ">
<polygon fill="none" stroke="black" points="8,-192.5 8,-222.5 112,-222.5 112,-192.5 8,-192.5"/>
<text text-anchor="start" x="16" y="-210.5" font-family="Helvetica,sans-Serif" font-size="10.00">std::basic_string&lt;</text>
<text text-anchor="middle" x="60" y="-199.5" font-family="Helvetica,sans-Serif" font-size="10.00"> char &gt;</text>
</a>
</g>
</g>
<!-- Node4&#45;&gt;Node3 -->
<g id="edge3" class="edge">
<title>Node4&#45;&gt;Node3</title>
<path fill="none" stroke="midnightblue" d="M60,-182.35C60,-172.51 60,-161.78 60,-154.54"/>
<polygon fill="midnightblue" stroke="midnightblue" points="56.5,-182.47 60,-192.47 63.5,-182.47 56.5,-182.47"/>
</g>
</g>
</svg>
