<?xml version="1.0" encoding="UTF-8" standalone="no"?>
<!DOCTYPE svg PUBLIC "-//W3C//DTD SVG 1.1//EN"
 "http://www.w3.org/Graphics/SVG/1.1/DTD/svg11.dtd">
<!-- Generated by graphviz version 2.43.0 (0)
 -->
<!-- Title: fire::io::h5::Reader::MirrorObject Pages: 1 -->
<svg width="216pt" height="195pt"
 viewBox="0.00 0.00 216.00 195.00" xmlns="http://www.w3.org/2000/svg" xmlns:xlink="http://www.w3.org/1999/xlink">
<g id="graph0" class="graph" transform="scale(1 1) rotate(0) translate(4 191)">
<title>fire::io::h5::Reader::MirrorObject</title>
<!-- Node1 -->
<g id="node1" class="node">
<title>Node1</title>
<g id="a_node1"><a xlink:title="A mirror event object.">
<polygon fill="#bfbfbf" stroke="black" points="38,-0.5 38,-30.5 144,-30.5 144,-0.5 38,-0.5"/>
<text text-anchor="start" x="46" y="-18.5" font-family="Helvetica,sans-Serif" font-size="10.00">fire::io::h5::Reader</text>
<text text-anchor="middle" x="91" y="-7.5" font-family="Helvetica,sans-Serif" font-size="10.00">::MirrorObject</text>
</a>
</g>
</g>
<!-- Node2 -->
<g id="node2" class="node">
<title>Node2</title>
<g id="a_node2"><a xlink:href="classfire_1_1io_1_1h5_1_1Reader.html" target="_top" xlink:title="Reading a file generated by fire.">
<polygon fill="none" stroke="black" points="38,-78.5 38,-97.5 144,-97.5 144,-78.5 38,-78.5"/>
<text text-anchor="middle" x="91" y="-85.5" font-family="Helvetica,sans-Serif" font-size="10.00">fire::io::h5::Reader</text>
</a>
</g>
</g>
<!-- Node2&#45;&gt;Node1 -->
<g id="edge1" class="edge">
<title>Node2&#45;&gt;Node1</title>
<path fill="none" stroke="#9a32cd" stroke-dasharray="5,2" d="M91,-68.24C91,-56.41 91,-41.38 91,-30.58"/>
<polygon fill="#9a32cd" stroke="#9a32cd" points="87.5,-68.36 91,-78.36 94.5,-68.36 87.5,-68.36"/>
<text text-anchor="middle" x="111" y="-52" font-family="Helvetica,sans-Serif" font-size="10.00"> reader_</text>
</g>
<!-- Node3 -->
<g id="node3" class="node">
<title>Node3</title>
<g id="a_node3"><a xlink:href="classfire_1_1io_1_1Reader.html" target="_top" xlink:title="Prototype for reading files within fire.">
<polygon fill="none" stroke="black" points="0,-167.5 0,-186.5 88,-186.5 88,-167.5 0,-167.5"/>
<text text-anchor="middle" x="44" y="-174.5" font-family="Helvetica,sans-Serif" font-size="10.00">fire::io::Reader</text>
</a>
</g>
</g>
<!-- Node3&#45;&gt;Node2 -->
<g id="edge2" class="edge">
<title>Node3&#45;&gt;Node2</title>
<path fill="none" stroke="midnightblue" d="M53.46,-158.49C63.43,-140.03 78.72,-111.74 86.34,-97.62"/>
<polygon fill="midnightblue" stroke="midnightblue" points="50.35,-156.88 48.68,-167.34 56.51,-160.21 50.35,-156.88"/>
</g>
<!-- Node4 -->
<g id="node4" class="node">
<title>Node4</title>
<g id="a_node4"><a target="_parent" xlink:href="http://en.cppreference.com/w/cpp/types/size_t.html" xlink:title=" ">
<polygon fill="none" stroke="black" points="106,-167.5 106,-186.5 172,-186.5 172,-167.5 106,-167.5"/>
<text text-anchor="middle" x="139" y="-174.5" font-family="Helvetica,sans-Serif" font-size="10.00">std::size_t</text>
</a>
</g>
</g>
<!-- Node4&#45;&gt;Node2 -->
<g id="edge3" class="edge">
<title>Node4&#45;&gt;Node2</title>
<path fill="none" stroke="#9a32cd" stroke-dasharray="5,2" d="M129.34,-158.49C119.16,-140.03 103.54,-111.74 95.76,-97.62"/>
<polygon fill="#9a32cd" stroke="#9a32cd" points="126.33,-160.28 134.22,-167.34 132.46,-156.89 126.33,-160.28"/>
<text text-anchor="middle" x="165.5" y="-141" font-family="Helvetica,sans-Serif" font-size="10.00"> entries_</text>
<text text-anchor="middle" x="165.5" y="-130" font-family="Helvetica,sans-Serif" font-size="10.00">rows_per_chunk_</text>
<text text-anchor="middle" x="165.5" y="-119" font-family="Helvetica,sans-Serif" font-size="10.00">runs_</text>
</g>
</g>
</svg>
