<?xml version="1.0" encoding="UTF-8" standalone="no"?>
<!DOCTYPE svg PUBLIC "-//W3C//DTD SVG 1.1//EN"
 "http://www.w3.org/Graphics/SVG/1.1/DTD/svg11.dtd">
<!-- Generated by graphviz version 2.43.0 (0)
 -->
<!-- Title: fire::h5::Writer::Buffer&lt; AtomicType &gt; Pages: 1 -->
<svg width="207pt" height="174pt"
 viewBox="0.00 0.00 207.00 174.00" xmlns="http://www.w3.org/2000/svg" xmlns:xlink="http://www.w3.org/1999/xlink">
<g id="graph0" class="graph" transform="scale(1 1) rotate(0) translate(4 170)">
<title>fire::h5::Writer::Buffer&lt; AtomicType &gt;</title>
<!-- Node1 -->
<g id="node1" class="node">
<title>Node1</title>
<g id="a_node1"><a xlink:title="Buffer atomic data types in&#45;memory for efficient disk operations.">
<polygon fill="#bfbfbf" stroke="black" points="0,-0.5 0,-30.5 122,-30.5 122,-0.5 0,-0.5"/>
<text text-anchor="start" x="8" y="-18.5" font-family="Helvetica,sans-Serif" font-size="10.00">fire::h5::Writer::Buffer</text>
<text text-anchor="middle" x="61" y="-7.5" font-family="Helvetica,sans-Serif" font-size="10.00">&lt; AtomicType &gt;</text>
</a>
</g>
</g>
<!-- Node2 -->
<g id="node2" class="node">
<title>Node2</title>
<g id="a_node2"><a xlink:href="classfire_1_1h5_1_1Writer_1_1BufferHandle.html" target="_top" xlink:title="Type&#45;less handle to buffers.">
<polygon fill="none" stroke="black" points="77,-68.5 77,-98.5 199,-98.5 199,-68.5 77,-68.5"/>
<text text-anchor="start" x="85" y="-86.5" font-family="Helvetica,sans-Serif" font-size="10.00">fire::h5::Writer::Buffer</text>
<text text-anchor="middle" x="138" y="-75.5" font-family="Helvetica,sans-Serif" font-size="10.00">Handle</text>
</a>
</g>
</g>
<!-- Node2&#45;&gt;Node1 -->
<g id="edge1" class="edge">
<title>Node2&#45;&gt;Node1</title>
<path fill="none" stroke="midnightblue" d="M113.52,-61.52C101.73,-51.41 87.91,-39.57 77.41,-30.57"/>
<polygon fill="midnightblue" stroke="midnightblue" points="111.42,-64.33 121.29,-68.18 115.98,-59.01 111.42,-64.33"/>
</g>
<!-- Node3 -->
<g id="node3" class="node">
<title>Node3</title>
<g id="a_node3"><a target="_parent" xlink:href="http://en.cppreference.com/w/cpp/types/size_t.html" xlink:title=" ">
<polygon fill="none" stroke="black" points="10,-146.5 10,-165.5 76,-165.5 76,-146.5 10,-146.5"/>
<text text-anchor="middle" x="43" y="-153.5" font-family="Helvetica,sans-Serif" font-size="10.00">std::size_t</text>
</a>
</g>
</g>
<!-- Node3&#45;&gt;Node1 -->
<g id="edge3" class="edge">
<title>Node3&#45;&gt;Node1</title>
<path fill="none" stroke="#9a32cd" stroke-dasharray="5,2" d="M38.31,-136.58C34.53,-118.8 30.66,-91.25 36,-68 39.07,-54.63 46.1,-40.71 51.92,-30.72"/>
<polygon fill="#9a32cd" stroke="#9a32cd" points="34.94,-137.54 40.62,-146.48 41.75,-135.94 34.94,-137.54"/>
<text text-anchor="middle" x="52" y="-81" font-family="Helvetica,sans-Serif" font-size="10.00"> i_file_</text>
</g>
<!-- Node3&#45;&gt;Node2 -->
<g id="edge2" class="edge">
<title>Node3&#45;&gt;Node2</title>
<path fill="none" stroke="#9a32cd" stroke-dasharray="5,2" d="M63.04,-140.13C79.56,-127.87 102.82,-110.61 119.03,-98.58"/>
<polygon fill="#9a32cd" stroke="#9a32cd" points="60.59,-137.59 54.65,-146.36 64.76,-143.21 60.59,-137.59"/>
<text text-anchor="middle" x="118.5" y="-120" font-family="Helvetica,sans-Serif" font-size="10.00"> max_len_</text>
</g>
</g>
</svg>
