<?xml version="1.0" encoding="UTF-8" standalone="no"?>
<!DOCTYPE svg PUBLIC "-//W3C//DTD SVG 1.1//EN"
 "http://www.w3.org/Graphics/SVG/1.1/DTD/svg11.dtd">
<!-- Generated by graphviz version 2.43.0 (0)
 -->
<!-- Title: fire::Process Pages: 1 -->
<svg width="461pt" height="295pt"
 viewBox="0.00 0.00 461.00 295.00" xmlns="http://www.w3.org/2000/svg" xmlns:xlink="http://www.w3.org/1999/xlink">
<g id="graph0" class="graph" transform="scale(1 1) rotate(0) translate(4 291)">
<title>fire::Process</title>
<!-- Node1 -->
<g id="node1" class="node">
<title>Node1</title>
<g id="a_node1"><a xlink:title="The central object managing the data processing.">
<polygon fill="#bfbfbf" stroke="black" points="177,-0.5 177,-19.5 253,-19.5 253,-0.5 177,-0.5"/>
<text text-anchor="middle" x="215" y="-7.5" font-family="Helvetica,sans-Serif" font-size="10.00">fire::Process</text>
</a>
</g>
</g>
<!-- Node2 -->
<g id="node2" class="node">
<title>Node2</title>
<g id="a_node2"><a xlink:href="classfire_1_1h5_1_1Writer.html" target="_top" xlink:title="Write the fire DataSets into a deterministic structure in the output HDF5 data file.">
<polygon fill="none" stroke="black" points="0,-167.5 0,-186.5 86,-186.5 86,-167.5 0,-167.5"/>
<text text-anchor="middle" x="43" y="-174.5" font-family="Helvetica,sans-Serif" font-size="10.00">fire::h5::Writer</text>
</a>
</g>
</g>
<!-- Node2&#45;&gt;Node1 -->
<g id="edge1" class="edge">
<title>Node2&#45;&gt;Node1</title>
<path fill="none" stroke="#9a32cd" stroke-dasharray="5,2" d="M39.7,-157.37C36.61,-133.66 35.16,-92.69 56,-67 85.41,-30.75 139.89,-17.93 176.79,-13.42"/>
<polygon fill="#9a32cd" stroke="#9a32cd" points="36.27,-158.14 41.25,-167.49 43.19,-157.07 36.27,-158.14"/>
<text text-anchor="middle" x="86.5" y="-74.5" font-family="Helvetica,sans-Serif" font-size="10.00"> output_file_</text>
</g>
<!-- Node5 -->
<g id="node5" class="node">
<title>Node5</title>
<g id="a_node5"><a xlink:href="classfire_1_1Event.html" target="_top" xlink:title="Event class for interfacing with processors.">
<polygon fill="none" stroke="black" points="126,-67.5 126,-86.5 192,-86.5 192,-67.5 126,-67.5"/>
<text text-anchor="middle" x="159" y="-74.5" font-family="Helvetica,sans-Serif" font-size="10.00">fire::Event</text>
</a>
</g>
</g>
<!-- Node2&#45;&gt;Node5 -->
<g id="edge7" class="edge">
<title>Node2&#45;&gt;Node5</title>
<path fill="none" stroke="#9a32cd" stroke-dasharray="5,2" d="M49.58,-157.95C56.25,-141.99 68.01,-119.11 85,-105 96.68,-95.3 112.14,-88.94 125.91,-84.84"/>
<polygon fill="#9a32cd" stroke="#9a32cd" points="46.32,-156.69 45.93,-167.27 52.84,-159.24 46.32,-156.69"/>
<text text-anchor="middle" x="115.5" y="-124.5" font-family="Helvetica,sans-Serif" font-size="10.00"> output_file_</text>
</g>
<!-- Node3 -->
<g id="node3" class="node">
<title>Node3</title>
<g id="a_node3"><a target="_parent" xlink:href="http://en.cppreference.com/w/cpp/types/size_t.html" xlink:title=" ">
<polygon fill="none" stroke="black" points="64,-262 64,-281 130,-281 130,-262 64,-262"/>
<text text-anchor="middle" x="97" y="-269" font-family="Helvetica,sans-Serif" font-size="10.00">std::size_t</text>
</a>
</g>
</g>
<!-- Node3&#45;&gt;Node2 -->
<g id="edge2" class="edge">
<title>Node3&#45;&gt;Node2</title>
<path fill="none" stroke="#9a32cd" stroke-dasharray="5,2" d="M63.94,-257.16C56.05,-252.34 48.59,-246.04 44,-238 34.81,-221.89 37.91,-199.18 40.66,-186.83"/>
<polygon fill="#9a32cd" stroke="#9a32cd" points="62.44,-260.33 72.91,-261.99 65.76,-254.17 62.44,-260.33"/>
<text text-anchor="middle" x="86.5" y="-224.5" font-family="Helvetica,sans-Serif" font-size="10.00"> entries_</text>
<text text-anchor="middle" x="86.5" y="-213.5" font-family="Helvetica,sans-Serif" font-size="10.00">rows_per_chunk_</text>
</g>
<!-- Node6 -->
<g id="node6" class="node">
<title>Node6</title>
<g id="a_node6"><a xlink:href="classfire_1_1h5_1_1Reader.html" target="_top" xlink:title="Reading a file generated by fire.">
<polygon fill="none" stroke="black" points="105.5,-167.5 105.5,-186.5 196.5,-186.5 196.5,-167.5 105.5,-167.5"/>
<text text-anchor="middle" x="151" y="-174.5" font-family="Helvetica,sans-Serif" font-size="10.00">fire::h5::Reader</text>
</a>
</g>
</g>
<!-- Node3&#45;&gt;Node6 -->
<g id="edge6" class="edge">
<title>Node3&#45;&gt;Node6</title>
<path fill="none" stroke="#9a32cd" stroke-dasharray="5,2" d="M115.23,-254.7C120.18,-249.73 125.22,-243.97 129,-238 139.57,-221.32 146.07,-198.83 149.06,-186.67"/>
<polygon fill="#9a32cd" stroke="#9a32cd" points="112.59,-252.37 107.7,-261.77 117.39,-257.47 112.59,-252.37"/>
<text text-anchor="middle" x="186.5" y="-230" font-family="Helvetica,sans-Serif" font-size="10.00"> entries_</text>
<text text-anchor="middle" x="186.5" y="-219" font-family="Helvetica,sans-Serif" font-size="10.00">rows_per_chunk_</text>
<text text-anchor="middle" x="186.5" y="-208" font-family="Helvetica,sans-Serif" font-size="10.00">runs_</text>
</g>
<!-- Node4 -->
<g id="node4" class="node">
<title>Node4</title>
<g id="a_node4"><a xlink:href="classfire_1_1StorageControl.html" target="_top" xlink:title="Isolation of voting system deciding if events should be kept.">
<polygon fill="none" stroke="black" points="337.5,-67.5 337.5,-86.5 448.5,-86.5 448.5,-67.5 337.5,-67.5"/>
<text text-anchor="middle" x="393" y="-74.5" font-family="Helvetica,sans-Serif" font-size="10.00">fire::StorageControl</text>
</a>
</g>
</g>
<!-- Node4&#45;&gt;Node1 -->
<g id="edge3" class="edge">
<title>Node4&#45;&gt;Node1</title>
<path fill="none" stroke="#9a32cd" stroke-dasharray="5,2" d="M368.39,-62.52C353.3,-54.63 333.4,-44.89 315,-38 294.96,-30.49 271.94,-24.13 253.05,-19.47"/>
<polygon fill="#9a32cd" stroke="#9a32cd" points="367.08,-65.78 377.55,-67.39 370.36,-59.6 367.08,-65.78"/>
<text text-anchor="middle" x="381.5" y="-41" font-family="Helvetica,sans-Serif" font-size="10.00"> storage_control_</text>
</g>
<!-- Node5&#45;&gt;Node1 -->
<g id="edge4" class="edge">
<title>Node5&#45;&gt;Node1</title>
<path fill="none" stroke="#9a32cd" stroke-dasharray="5,2" d="M170.7,-58.86C175.51,-52.15 181.28,-44.53 187,-38 192.7,-31.5 199.7,-24.75 205.27,-19.62"/>
<polygon fill="#9a32cd" stroke="#9a32cd" points="167.7,-57.03 164.83,-67.23 173.44,-61.05 167.7,-57.03"/>
<text text-anchor="middle" x="205.5" y="-41" font-family="Helvetica,sans-Serif" font-size="10.00"> event_</text>
</g>
<!-- Node6&#45;&gt;Node5 -->
<g id="edge5" class="edge">
<title>Node6&#45;&gt;Node5</title>
<path fill="none" stroke="#9a32cd" stroke-dasharray="5,2" d="M150.04,-157.11C149.61,-142.75 149.64,-122.55 152,-105 152.83,-98.86 154.58,-92.11 156.12,-86.89"/>
<polygon fill="#9a32cd" stroke="#9a32cd" points="146.55,-157.36 150.45,-167.21 153.54,-157.07 146.55,-157.36"/>
<text text-anchor="middle" x="179" y="-124.5" font-family="Helvetica,sans-Serif" font-size="10.00"> input_file_</text>
</g>
<!-- Node7 -->
<g id="node7" class="node">
<title>Node7</title>
<g id="a_node7"><a target="_parent" xlink:href="http://en.cppreference.com/w/cpp/string/basic_string.html" xlink:title=" ">
<polygon fill="none" stroke="black" points="222.5,-167.5 222.5,-186.5 287.5,-186.5 287.5,-167.5 222.5,-167.5"/>
<text text-anchor="middle" x="255" y="-174.5" font-family="Helvetica,sans-Serif" font-size="10.00">std::string</text>
</a>
</g>
</g>
<!-- Node7&#45;&gt;Node5 -->
<g id="edge8" class="edge">
<title>Node7&#45;&gt;Node5</title>
<path fill="none" stroke="#9a32cd" stroke-dasharray="5,2" d="M235.6,-160.8C231.77,-157.2 228.01,-153.19 225,-149 212.57,-131.7 220.18,-120.89 206,-105 198.98,-97.14 189.11,-90.98 180.22,-86.55"/>
<polygon fill="#9a32cd" stroke="#9a32cd" points="233.49,-163.6 243.34,-167.5 238.07,-158.31 233.49,-163.6"/>
<text text-anchor="middle" x="240.5" y="-124.5" font-family="Helvetica,sans-Serif" font-size="10.00"> pass_</text>
</g>
<!-- Node9 -->
<g id="node9" class="node">
<title>Node9</title>
<g id="a_node9"><a xlink:href="classfire_1_1RunHeader.html" target="_top" xlink:title="Container for run parameters.">
<polygon fill="none" stroke="black" points="227,-67.5 227,-86.5 319,-86.5 319,-67.5 227,-67.5"/>
<text text-anchor="middle" x="273" y="-74.5" font-family="Helvetica,sans-Serif" font-size="10.00">fire::RunHeader</text>
</a>
</g>
</g>
<!-- Node7&#45;&gt;Node9 -->
<g id="edge11" class="edge">
<title>Node7&#45;&gt;Node9</title>
<path fill="none" stroke="#9a32cd" stroke-dasharray="5,2" d="M258.45,-157.37C258.97,-154.57 259.5,-151.71 260,-149 264.13,-126.57 268.96,-100.15 271.4,-86.75"/>
<polygon fill="#9a32cd" stroke="#9a32cd" points="254.96,-157.02 256.58,-167.49 261.84,-158.29 254.96,-157.02"/>
<text text-anchor="middle" x="306" y="-141" font-family="Helvetica,sans-Serif" font-size="10.00"> NAME</text>
<text text-anchor="middle" x="306" y="-130" font-family="Helvetica,sans-Serif" font-size="10.00">description_</text>
<text text-anchor="middle" x="306" y="-119" font-family="Helvetica,sans-Serif" font-size="10.00">detectorName_</text>
<text text-anchor="middle" x="306" y="-108" font-family="Helvetica,sans-Serif" font-size="10.00">softwareTag_</text>
</g>
<!-- Node8 -->
<g id="node8" class="node">
<title>Node8</title>
<g id="a_node8"><a target="_parent" xlink:href="http://en.cppreference.com/w/cpp/string/basic_string.html" xlink:title=" ">
<polygon fill="none" stroke="black" points="203,-256.5 203,-286.5 307,-286.5 307,-256.5 203,-256.5"/>
<text text-anchor="start" x="211" y="-274.5" font-family="Helvetica,sans-Serif" font-size="10.00">std::basic_string&lt;</text>
<text text-anchor="middle" x="255" y="-263.5" font-family="Helvetica,sans-Serif" font-size="10.00"> char &gt;</text>
</a>
</g>
</g>
<!-- Node8&#45;&gt;Node7 -->
<g id="edge9" class="edge">
<title>Node8&#45;&gt;Node7</title>
<path fill="none" stroke="midnightblue" d="M255,-246.38C255,-226.74 255,-200.12 255,-186.62"/>
<polygon fill="midnightblue" stroke="midnightblue" points="251.5,-246.45 255,-256.45 258.5,-246.45 251.5,-246.45"/>
</g>
<!-- Node9&#45;&gt;Node1 -->
<g id="edge10" class="edge">
<title>Node9&#45;&gt;Node1</title>
<path fill="none" stroke="#9a32cd" stroke-dasharray="5,2" d="M258.4,-59.63C247.05,-46.92 231.77,-29.8 222.7,-19.63"/>
<polygon fill="#9a32cd" stroke="#9a32cd" points="255.91,-62.1 265.18,-67.23 261.13,-57.44 255.91,-62.1"/>
<text text-anchor="middle" x="279" y="-41" font-family="Helvetica,sans-Serif" font-size="10.00"> run_header_</text>
</g>
<!-- Node10 -->
<g id="node10" class="node">
<title>Node10</title>
<g id="a_node10"><a xlink:href="classfire_1_1h5_1_1ParameterStorage.html" target="_top" xlink:title="Provides dynamic parameter storage by interfacing between a map to variants storing parameters and a ...">
<polygon fill="none" stroke="black" points="309,-167.5 309,-186.5 453,-186.5 453,-167.5 309,-167.5"/>
<text text-anchor="middle" x="381" y="-174.5" font-family="Helvetica,sans-Serif" font-size="10.00">fire::h5::ParameterStorage</text>
</a>
</g>
</g>
<!-- Node10&#45;&gt;Node9 -->
<g id="edge12" class="edge">
<title>Node10&#45;&gt;Node9</title>
<path fill="none" stroke="#9a32cd" stroke-dasharray="5,2" d="M376.7,-157.5C372.11,-141.58 363.32,-119.01 348,-105 338.71,-96.5 326.54,-90.63 314.72,-86.6"/>
<polygon fill="#9a32cd" stroke="#9a32cd" points="373.34,-158.48 379.24,-167.28 380.12,-156.72 373.34,-158.48"/>
<text text-anchor="middle" x="405.5" y="-124.5" font-family="Helvetica,sans-Serif" font-size="10.00"> parameters_</text>
</g>
</g>
</svg>
