<?xml version="1.0" encoding="UTF-8" standalone="no"?>
<!DOCTYPE svg PUBLIC "-//W3C//DTD SVG 1.1//EN"
 "http://www.w3.org/Graphics/SVG/1.1/DTD/svg11.dtd">
<!-- Generated by graphviz version 2.43.0 (0)
 -->
<!-- Title: fire::Conditions Pages: 1 -->
<svg width="492pt" height="351pt"
 viewBox="0.00 0.00 492.11 351.00" xmlns="http://www.w3.org/2000/svg" xmlns:xlink="http://www.w3.org/1999/xlink">
<g id="graph0" class="graph" transform="scale(1 1) rotate(0) translate(4 347)">
<title>fire::Conditions</title>
<!-- Node1 -->
<g id="node1" class="node">
<title>Node1</title>
<g id="a_node1"><a xlink:title="Container and cache for conditions and conditions providers.">
<polygon fill="#bfbfbf" stroke="black" points="141.61,-0.5 141.61,-19.5 231.61,-19.5 231.61,-0.5 141.61,-0.5"/>
<text text-anchor="middle" x="186.61" y="-7.5" font-family="Helvetica,sans-Serif" font-size="10.00">fire::Conditions</text>
</a>
</g>
</g>
<!-- Node2 -->
<g id="node2" class="node">
<title>Node2</title>
<g id="a_node2"><a xlink:href="classfire_1_1Process.html" target="_top" xlink:title="The central object managing the data processing.">
<polygon fill="none" stroke="black" points="148.61,-67.5 148.61,-86.5 224.61,-86.5 224.61,-67.5 148.61,-67.5"/>
<text text-anchor="middle" x="186.61" y="-74.5" font-family="Helvetica,sans-Serif" font-size="10.00">fire::Process</text>
</a>
</g>
</g>
<!-- Node2&#45;&gt;Node1 -->
<g id="edge1" class="edge">
<title>Node2&#45;&gt;Node1</title>
<path fill="none" stroke="#9a32cd" stroke-dasharray="5,2" d="M186.61,-57.04C186.61,-44.67 186.61,-29.12 186.61,-19.63"/>
<polygon fill="#9a32cd" stroke="#9a32cd" points="183.11,-57.23 186.61,-67.23 190.11,-57.23 183.11,-57.23"/>
<text text-anchor="middle" x="209.61" y="-41" font-family="Helvetica,sans-Serif" font-size="10.00"> process_</text>
</g>
<!-- Node3 -->
<g id="node3" class="node">
<title>Node3</title>
<g id="a_node3"><a xlink:href="classfire_1_1io_1_1Writer.html" target="_top" xlink:title="Write the fire DataSets into a deterministic structure in the output HDF5 data file.">
<polygon fill="none" stroke="black" points="8.11,-234.5 8.11,-253.5 91.11,-253.5 91.11,-234.5 8.11,-234.5"/>
<text text-anchor="middle" x="49.61" y="-241.5" font-family="Helvetica,sans-Serif" font-size="10.00">fire::io::Writer</text>
</a>
</g>
</g>
<!-- Node3&#45;&gt;Node2 -->
<g id="edge2" class="edge">
<title>Node3&#45;&gt;Node2</title>
<path fill="none" stroke="#9a32cd" stroke-dasharray="5,2" d="M34.12,-226.66C14.68,-204.12 -13.69,-162.98 7.61,-134 39.81,-90.18 106.17,-79.7 148.42,-77.71"/>
<polygon fill="#9a32cd" stroke="#9a32cd" points="31.72,-229.23 41.01,-234.33 36.93,-224.55 31.72,-229.23"/>
<text text-anchor="middle" x="38.11" y="-141.5" font-family="Helvetica,sans-Serif" font-size="10.00"> output_file_</text>
</g>
<!-- Node6 -->
<g id="node6" class="node">
<title>Node6</title>
<g id="a_node6"><a xlink:href="classfire_1_1Event.html" target="_top" xlink:title="Event class for interfacing with processors.">
<polygon fill="none" stroke="black" points="206.61,-134.5 206.61,-153.5 272.61,-153.5 272.61,-134.5 206.61,-134.5"/>
<text text-anchor="middle" x="239.61" y="-141.5" font-family="Helvetica,sans-Serif" font-size="10.00">fire::Event</text>
</a>
</g>
</g>
<!-- Node3&#45;&gt;Node6 -->
<g id="edge7" class="edge">
<title>Node3&#45;&gt;Node6</title>
<path fill="none" stroke="#9a32cd" stroke-dasharray="5,2" d="M60.17,-225.77C71.18,-209.32 89.98,-185.16 112.61,-172 145.99,-152.58 159.84,-162.05 197.61,-154 200.53,-153.38 203.56,-152.73 206.6,-152.08"/>
<polygon fill="#9a32cd" stroke="#9a32cd" points="57.07,-224.11 54.62,-234.42 62.96,-227.89 57.07,-224.11"/>
<text text-anchor="middle" x="143.11" y="-191.5" font-family="Helvetica,sans-Serif" font-size="10.00"> output_file_</text>
</g>
<!-- Node4 -->
<g id="node4" class="node">
<title>Node4</title>
<g id="a_node4"><a target="_parent" xlink:href="http://en.cppreference.com/w/cpp/types/size_t.html" xlink:title=" ">
<polygon fill="none" stroke="black" points="16.61,-318 16.61,-337 82.61,-337 82.61,-318 16.61,-318"/>
<text text-anchor="middle" x="49.61" y="-325" font-family="Helvetica,sans-Serif" font-size="10.00">std::size_t</text>
</a>
</g>
</g>
<!-- Node4&#45;&gt;Node3 -->
<g id="edge3" class="edge">
<title>Node4&#45;&gt;Node3</title>
<path fill="none" stroke="#9a32cd" stroke-dasharray="5,2" d="M49.61,-307.38C49.61,-290.4 49.61,-266.37 49.61,-253.66"/>
<polygon fill="#9a32cd" stroke="#9a32cd" points="46.11,-307.78 49.61,-317.78 53.11,-307.78 46.11,-307.78"/>
<text text-anchor="middle" x="92.11" y="-286" font-family="Helvetica,sans-Serif" font-size="10.00"> entries_</text>
<text text-anchor="middle" x="92.11" y="-275" font-family="Helvetica,sans-Serif" font-size="10.00">rows_per_chunk_</text>
</g>
<!-- Node5 -->
<g id="node5" class="node">
<title>Node5</title>
<g id="a_node5"><a xlink:href="classfire_1_1StorageControl.html" target="_top" xlink:title="Isolation of voting system deciding if events should be kept.">
<polygon fill="none" stroke="black" points="77.11,-134.5 77.11,-153.5 188.11,-153.5 188.11,-134.5 77.11,-134.5"/>
<text text-anchor="middle" x="132.61" y="-141.5" font-family="Helvetica,sans-Serif" font-size="10.00">fire::StorageControl</text>
</a>
</g>
</g>
<!-- Node5&#45;&gt;Node2 -->
<g id="edge4" class="edge">
<title>Node5&#45;&gt;Node2</title>
<path fill="none" stroke="#9a32cd" stroke-dasharray="5,2" d="M126.72,-124.33C125.75,-117.79 126.03,-110.66 129.61,-105 135,-96.49 143.87,-90.61 153.04,-86.56"/>
<polygon fill="#9a32cd" stroke="#9a32cd" points="123.41,-125.55 129.17,-134.44 130.21,-123.9 123.41,-125.55"/>
<text text-anchor="middle" x="172.11" y="-108" font-family="Helvetica,sans-Serif" font-size="10.00"> storage_control_</text>
</g>
<!-- Node6&#45;&gt;Node2 -->
<g id="edge5" class="edge">
<title>Node6&#45;&gt;Node2</title>
<path fill="none" stroke="#9a32cd" stroke-dasharray="5,2" d="M231.53,-125.28C228.05,-118.58 223.62,-111.11 218.61,-105 212.89,-98.03 205.2,-91.48 198.8,-86.58"/>
<polygon fill="#9a32cd" stroke="#9a32cd" points="228.39,-126.83 235.92,-134.3 234.69,-123.77 228.39,-126.83"/>
<text text-anchor="middle" x="244.11" y="-108" font-family="Helvetica,sans-Serif" font-size="10.00"> event_</text>
</g>
<!-- Node7 -->
<g id="node7" class="node">
<title>Node7</title>
<g id="a_node7"><a xlink:href="classfire_1_1io_1_1Reader.html" target="_top" xlink:title="Prototype for reading files within fire.">
<polygon fill="none" stroke="black" points="139.61,-234.5 139.61,-253.5 227.61,-253.5 227.61,-234.5 139.61,-234.5"/>
<text text-anchor="middle" x="183.61" y="-241.5" font-family="Helvetica,sans-Serif" font-size="10.00">fire::io::Reader</text>
</a>
</g>
</g>
<!-- Node7&#45;&gt;Node6 -->
<g id="edge6" class="edge">
<title>Node7&#45;&gt;Node6</title>
<path fill="none" stroke="#9a32cd" stroke-dasharray="5,2" d="M179.57,-224.47C177.29,-209.18 176.63,-187.54 186.61,-172 192.02,-163.57 200.94,-157.65 209.94,-153.55"/>
<polygon fill="#9a32cd" stroke="#9a32cd" points="176.13,-225.11 181.38,-234.31 183.01,-223.84 176.13,-225.11"/>
<text text-anchor="middle" x="213.61" y="-191.5" font-family="Helvetica,sans-Serif" font-size="10.00"> input_file_</text>
</g>
<!-- Node8 -->
<g id="node8" class="node">
<title>Node8</title>
<g id="a_node8"><a target="_parent" xlink:href="http://en.cppreference.com/w/cpp/string/basic_string.html" xlink:title=" ">
<polygon fill="none" stroke="black" points="253.11,-234.5 253.11,-253.5 318.11,-253.5 318.11,-234.5 253.11,-234.5"/>
<text text-anchor="middle" x="285.61" y="-241.5" font-family="Helvetica,sans-Serif" font-size="10.00">std::string</text>
</a>
</g>
</g>
<!-- Node8&#45;&gt;Node6 -->
<g id="edge8" class="edge">
<title>Node8&#45;&gt;Node6</title>
<path fill="none" stroke="#9a32cd" stroke-dasharray="5,2" d="M269.16,-226.69C266.37,-223.34 263.7,-219.7 261.61,-216 249.94,-195.32 243.68,-167.69 241.08,-153.78"/>
<polygon fill="#9a32cd" stroke="#9a32cd" points="266.76,-229.25 276.09,-234.27 271.93,-224.53 266.76,-229.25"/>
<text text-anchor="middle" x="277.11" y="-191.5" font-family="Helvetica,sans-Serif" font-size="10.00"> pass_</text>
</g>
<!-- Node10 -->
<g id="node10" class="node">
<title>Node10</title>
<g id="a_node10"><a xlink:href="classfire_1_1RunHeader.html" target="_top" xlink:title="Container for run parameters.">
<polygon fill="none" stroke="black" points="290.61,-134.5 290.61,-153.5 382.61,-153.5 382.61,-134.5 290.61,-134.5"/>
<text text-anchor="middle" x="336.61" y="-141.5" font-family="Helvetica,sans-Serif" font-size="10.00">fire::RunHeader</text>
</a>
</g>
</g>
<!-- Node8&#45;&gt;Node10 -->
<g id="edge11" class="edge">
<title>Node8&#45;&gt;Node10</title>
<path fill="none" stroke="#9a32cd" stroke-dasharray="5,2" d="M291.77,-224.89C297.12,-210.16 305.59,-189.09 315.61,-172 319.45,-165.44 324.7,-158.69 328.99,-153.58"/>
<polygon fill="#9a32cd" stroke="#9a32cd" points="288.46,-223.76 288.44,-234.35 295.06,-226.08 288.46,-223.76"/>
<text text-anchor="middle" x="353.61" y="-208" font-family="Helvetica,sans-Serif" font-size="10.00"> NAME</text>
<text text-anchor="middle" x="353.61" y="-197" font-family="Helvetica,sans-Serif" font-size="10.00">description_</text>
<text text-anchor="middle" x="353.61" y="-186" font-family="Helvetica,sans-Serif" font-size="10.00">detectorName_</text>
<text text-anchor="middle" x="353.61" y="-175" font-family="Helvetica,sans-Serif" font-size="10.00">softwareTag_</text>
</g>
<!-- Node9 -->
<g id="node9" class="node">
<title>Node9</title>
<g id="a_node9"><a target="_parent" xlink:href="http://en.cppreference.com/w/cpp/string/basic_string.html" xlink:title=" ">
<polygon fill="none" stroke="black" points="233.61,-312.5 233.61,-342.5 337.61,-342.5 337.61,-312.5 233.61,-312.5"/>
<text text-anchor="start" x="241.61" y="-330.5" font-family="Helvetica,sans-Serif" font-size="10.00">std::basic_string&lt;</text>
<text text-anchor="middle" x="285.61" y="-319.5" font-family="Helvetica,sans-Serif" font-size="10.00"> char &gt;</text>
</a>
</g>
</g>
<!-- Node9&#45;&gt;Node8 -->
<g id="edge9" class="edge">
<title>Node9&#45;&gt;Node8</title>
<path fill="none" stroke="midnightblue" d="M285.61,-302.25C285.61,-285.78 285.61,-264.99 285.61,-253.54"/>
<polygon fill="midnightblue" stroke="midnightblue" points="282.11,-302.3 285.61,-312.3 289.11,-302.3 282.11,-302.3"/>
</g>
<!-- Node10&#45;&gt;Node2 -->
<g id="edge10" class="edge">
<title>Node10&#45;&gt;Node2</title>
<path fill="none" stroke="#9a32cd" stroke-dasharray="5,2" d="M313.51,-129.15C300.1,-121.45 282.72,-112.03 266.61,-105 250.22,-97.85 231.28,-91.38 215.95,-86.57"/>
<polygon fill="#9a32cd" stroke="#9a32cd" points="312.09,-132.38 322.49,-134.4 315.62,-126.33 312.09,-132.38"/>
<text text-anchor="middle" x="319.61" y="-108" font-family="Helvetica,sans-Serif" font-size="10.00"> run_header_</text>
</g>
<!-- Node11 -->
<g id="node11" class="node">
<title>Node11</title>
<g id="a_node11"><a xlink:href="classfire_1_1io_1_1ParameterStorage.html" target="_top" xlink:title="Provides dynamic parameter storage by interfacing between a map to variants storing parameters and a ...">
<polygon fill="none" stroke="black" points="343.11,-234.5 343.11,-253.5 484.11,-253.5 484.11,-234.5 343.11,-234.5"/>
<text text-anchor="middle" x="413.61" y="-241.5" font-family="Helvetica,sans-Serif" font-size="10.00">fire::io::ParameterStorage</text>
</a>
</g>
</g>
<!-- Node11&#45;&gt;Node10 -->
<g id="edge12" class="edge">
<title>Node11&#45;&gt;Node10</title>
<path fill="none" stroke="#9a32cd" stroke-dasharray="5,2" d="M411.87,-224.03C409.56,-208.46 404.16,-186.68 391.61,-172 384.56,-163.75 374.39,-157.79 364.72,-153.6"/>
<polygon fill="#9a32cd" stroke="#9a32cd" points="408.41,-224.56 413.07,-234.07 415.36,-223.72 408.41,-224.56"/>
<text text-anchor="middle" x="442.11" y="-191.5" font-family="Helvetica,sans-Serif" font-size="10.00"> parameters_</text>
</g>
</g>
</svg>
