<?xml version="1.0" encoding="UTF-8" standalone="no"?>
<!DOCTYPE svg PUBLIC "-//W3C//DTD SVG 1.1//EN"
 "http://www.w3.org/Graphics/SVG/1.1/DTD/svg11.dtd">
<!-- Generated by graphviz version 2.43.0 (0)
 -->
<!-- Title: fire::h5::Data&lt; std::map&lt; KeyType, ValType &gt; &gt; Pages: 1 -->
<svg width="196pt" height="299pt"
 viewBox="0.00 0.00 196.00 299.00" xmlns="http://www.w3.org/2000/svg" xmlns:xlink="http://www.w3.org/1999/xlink">
<g id="graph0" class="graph" transform="scale(1 1) rotate(0) translate(4 295)">
<title>fire::h5::Data&lt; std::map&lt; KeyType, ValType &gt; &gt;</title>
<!-- Node1 -->
<g id="node1" class="node">
<title>Node1</title>
<g id="a_node1"><a xlink:title="Our wrapper around std::map.">
<polygon fill="#bfbfbf" stroke="black" points="13,-0.5 13,-30.5 175,-30.5 175,-0.5 13,-0.5"/>
<text text-anchor="start" x="21" y="-18.5" font-family="Helvetica,sans-Serif" font-size="10.00">fire::h5::Data&lt; std</text>
<text text-anchor="middle" x="94" y="-7.5" font-family="Helvetica,sans-Serif" font-size="10.00">::map&lt; KeyType, ValType &gt; &gt;</text>
</a>
</g>
</g>
<!-- Node2 -->
<g id="node2" class="node">
<title>Node2</title>
<g id="a_node2"><a xlink:href="classfire_1_1h5_1_1AbstractData.html" target="_top" xlink:title=" ">
<polygon fill="none" stroke="black" points="0,-68.5 0,-98.5 188,-98.5 188,-68.5 0,-68.5"/>
<text text-anchor="start" x="8" y="-86.5" font-family="Helvetica,sans-Serif" font-size="10.00">fire::h5::AbstractData</text>
<text text-anchor="middle" x="94" y="-75.5" font-family="Helvetica,sans-Serif" font-size="10.00">&lt; std::map&lt; KeyType, ValType &gt; &gt;</text>
</a>
</g>
</g>
<!-- Node2&#45;&gt;Node1 -->
<g id="edge1" class="edge">
<title>Node2&#45;&gt;Node1</title>
<path fill="none" stroke="midnightblue" d="M94,-58.03C94,-48.86 94,-38.74 94,-30.79"/>
<polygon fill="midnightblue" stroke="midnightblue" points="90.5,-58.18 94,-68.18 97.5,-58.18 90.5,-58.18"/>
</g>
<!-- Node3 -->
<g id="node3" class="node">
<title>Node3</title>
<g id="a_node3"><a xlink:href="classfire_1_1h5_1_1BaseData.html" target="_top" xlink:title="Empty data base allowing recursion.">
<polygon fill="none" stroke="black" points="42,-136.5 42,-155.5 146,-155.5 146,-136.5 42,-136.5"/>
<text text-anchor="middle" x="94" y="-143.5" font-family="Helvetica,sans-Serif" font-size="10.00">fire::h5::BaseData</text>
</a>
</g>
</g>
<!-- Node3&#45;&gt;Node2 -->
<g id="edge2" class="edge">
<title>Node3&#45;&gt;Node2</title>
<path fill="none" stroke="midnightblue" d="M94,-126.22C94,-117.36 94,-106.96 94,-98.76"/>
<polygon fill="midnightblue" stroke="midnightblue" points="90.5,-126.33 94,-136.33 97.5,-126.33 90.5,-126.33"/>
</g>
<!-- Node4 -->
<g id="node4" class="node">
<title>Node4</title>
<g id="a_node4"><a xlink:title=" ">
<polygon fill="none" stroke="#bfbfbf" points="61.5,-203.5 61.5,-222.5 126.5,-222.5 126.5,-203.5 61.5,-203.5"/>
<text text-anchor="middle" x="94" y="-210.5" font-family="Helvetica,sans-Serif" font-size="10.00">std::string</text>
</a>
</g>
</g>
<!-- Node4&#45;&gt;Node3 -->
<g id="edge3" class="edge">
<title>Node4&#45;&gt;Node3</title>
<path fill="none" stroke="#9a32cd" stroke-dasharray="5,2" d="M94,-193.04C94,-180.67 94,-165.12 94,-155.63"/>
<polygon fill="#9a32cd" stroke="#9a32cd" points="90.5,-193.23 94,-203.23 97.5,-193.23 90.5,-193.23"/>
<text text-anchor="middle" x="109.5" y="-177" font-family="Helvetica,sans-Serif" font-size="10.00"> path_</text>
</g>
<!-- Node5 -->
<g id="node5" class="node">
<title>Node5</title>
<g id="a_node5"><a xlink:title=" ">
<polygon fill="none" stroke="#bfbfbf" points="42,-260.5 42,-290.5 146,-290.5 146,-260.5 42,-260.5"/>
<text text-anchor="start" x="50" y="-278.5" font-family="Helvetica,sans-Serif" font-size="10.00">std::basic_string&lt;</text>
<text text-anchor="middle" x="94" y="-267.5" font-family="Helvetica,sans-Serif" font-size="10.00"> Char &gt;</text>
</a>
</g>
</g>
<!-- Node5&#45;&gt;Node4 -->
<g id="edge4" class="edge">
<title>Node5&#45;&gt;Node4</title>
<path fill="none" stroke="midnightblue" d="M94,-250.35C94,-240.51 94,-229.78 94,-222.54"/>
<polygon fill="midnightblue" stroke="midnightblue" points="90.5,-250.47 94,-260.47 97.5,-250.47 90.5,-250.47"/>
</g>
</g>
</svg>
