<?xml version="1.0" encoding="UTF-8" standalone="no"?>
<!DOCTYPE svg PUBLIC "-//W3C//DTD SVG 1.1//EN"
 "http://www.w3.org/Graphics/SVG/1.1/DTD/svg11.dtd">
<!-- Generated by graphviz version 2.43.0 (0)
 -->
<!-- Title: fire::RandomNumberSeedService Pages: 1 -->
<svg width="280pt" height="84pt"
 viewBox="0.00 0.00 279.50 84.00" xmlns="http://www.w3.org/2000/svg" xmlns:xlink="http://www.w3.org/1999/xlink">
<g id="graph0" class="graph" transform="scale(1 1) rotate(0) translate(4 80)">
<title>fire::RandomNumberSeedService</title>
<!-- Node1 -->
<g id="node1" class="node">
<title>Node1</title>
<g id="a_node1"><a xlink:title="System for consistent seeding of random number generators.">
<polygon fill="#bfbfbf" stroke="black" points="44,-0.5 44,-19.5 222,-19.5 222,-0.5 44,-0.5"/>
<text text-anchor="middle" x="133" y="-7.5" font-family="Helvetica,sans-Serif" font-size="10.00">fire::RandomNumberSeedService</text>
</a>
</g>
</g>
<!-- Node2 -->
<g id="node2" class="node">
<title>Node2</title>
<g id="a_node2"><a xlink:href="classfire_1_1ConditionsObject.html" target="_top" xlink:title="Base class for all conditions objects, very simple.">
<polygon fill="none" stroke="black" points="0,-56.5 0,-75.5 122,-75.5 122,-56.5 0,-56.5"/>
<text text-anchor="middle" x="61" y="-63.5" font-family="Helvetica,sans-Serif" font-size="10.00">fire::ConditionsObject</text>
</a>
</g>
</g>
<!-- Node2&#45;&gt;Node1 -->
<g id="edge1" class="edge">
<title>Node2&#45;&gt;Node1</title>
<path fill="none" stroke="midnightblue" d="M80.87,-50.1C93.82,-40.38 110.3,-28.03 121.22,-19.83"/>
<polygon fill="midnightblue" stroke="midnightblue" points="78.47,-47.52 72.57,-56.32 82.67,-53.12 78.47,-47.52"/>
</g>
<!-- Node3 -->
<g id="node3" class="node">
<title>Node3</title>
<g id="a_node3"><a xlink:href="classfire_1_1ConditionsProvider.html" target="_top" xlink:title="Base class for all providers of conditions objects.">
<polygon fill="none" stroke="black" points="140.5,-56.5 140.5,-75.5 271.5,-75.5 271.5,-56.5 140.5,-56.5"/>
<text text-anchor="middle" x="206" y="-63.5" font-family="Helvetica,sans-Serif" font-size="10.00">fire::ConditionsProvider</text>
</a>
</g>
</g>
<!-- Node3&#45;&gt;Node1 -->
<g id="edge2" class="edge">
<title>Node3&#45;&gt;Node1</title>
<path fill="none" stroke="midnightblue" d="M185.86,-50.1C172.72,-40.38 156.02,-28.03 144.94,-19.83"/>
<polygon fill="midnightblue" stroke="midnightblue" points="184.15,-53.19 194.27,-56.32 188.31,-47.56 184.15,-53.19"/>
</g>
</g>
</svg>
