<?xml version="1.0" encoding="UTF-8" standalone="no"?>
<!DOCTYPE svg PUBLIC "-//W3C//DTD SVG 1.1//EN"
 "http://www.w3.org/Graphics/SVG/1.1/DTD/svg11.dtd">
<!-- Generated by graphviz version 2.43.0 (0)
 -->
<!-- Title: fire::h5::Reader::Buffer&lt; AtomicType &gt; Pages: 1 -->
<svg width="230pt" height="176pt"
 viewBox="0.00 0.00 230.00 176.00" xmlns="http://www.w3.org/2000/svg" xmlns:xlink="http://www.w3.org/1999/xlink">
<g id="graph0" class="graph" transform="scale(1 1) rotate(0) translate(4 172)">
<title>fire::h5::Reader::Buffer&lt; AtomicType &gt;</title>
<!-- Node1 -->
<g id="node1" class="node">
<title>Node1</title>
<g id="a_node1"><a xlink:title="Read buffer allowing individual element access from a dataset.">
<polygon fill="#bfbfbf" stroke="black" points="0,-0.5 0,-30.5 126,-30.5 126,-0.5 0,-0.5"/>
<text text-anchor="start" x="8" y="-18.5" font-family="Helvetica,sans-Serif" font-size="10.00">fire::h5::Reader::Buffer</text>
<text text-anchor="middle" x="63" y="-7.5" font-family="Helvetica,sans-Serif" font-size="10.00">&lt; AtomicType &gt;</text>
</a>
</g>
</g>
<!-- Node2 -->
<g id="node2" class="node">
<title>Node2</title>
<g id="a_node2"><a xlink:href="classfire_1_1h5_1_1Reader_1_1BufferHandle.html" target="_top" xlink:title="Type&#45;less handle to the Buffer.">
<polygon fill="none" stroke="black" points="96,-69.5 96,-99.5 222,-99.5 222,-69.5 96,-69.5"/>
<text text-anchor="start" x="104" y="-87.5" font-family="Helvetica,sans-Serif" font-size="10.00">fire::h5::Reader::Buffer</text>
<text text-anchor="middle" x="159" y="-76.5" font-family="Helvetica,sans-Serif" font-size="10.00">Handle</text>
</a>
</g>
</g>
<!-- Node2&#45;&gt;Node1 -->
<g id="edge1" class="edge">
<title>Node2&#45;&gt;Node1</title>
<path fill="none" stroke="midnightblue" d="M130.16,-63.37C115.06,-52.84 96.94,-40.19 83.33,-30.69"/>
<polygon fill="midnightblue" stroke="midnightblue" points="128.44,-66.44 138.64,-69.29 132.44,-60.7 128.44,-66.44"/>
</g>
<!-- Node3 -->
<g id="node3" class="node">
<title>Node3</title>
<g id="a_node3"><a target="_parent" xlink:href="http://en.cppreference.com/w/cpp/types/size_t.html" xlink:title=" ">
<polygon fill="none" stroke="black" points="6,-148.5 6,-167.5 72,-167.5 72,-148.5 6,-148.5"/>
<text text-anchor="middle" x="39" y="-155.5" font-family="Helvetica,sans-Serif" font-size="10.00">std::size_t</text>
</a>
</g>
</g>
<!-- Node3&#45;&gt;Node1 -->
<g id="edge3" class="edge">
<title>Node3&#45;&gt;Node1</title>
<path fill="none" stroke="#9a32cd" stroke-dasharray="5,2" d="M33.91,-138.58C29.7,-120.33 25.4,-91.74 32,-68 35.8,-54.32 44.31,-40.64 51.45,-30.82"/>
<polygon fill="#9a32cd" stroke="#9a32cd" points="30.56,-139.64 36.41,-148.47 37.35,-137.92 30.56,-139.64"/>
<text text-anchor="middle" x="59.5" y="-93" font-family="Helvetica,sans-Serif" font-size="10.00"> entries_</text>
<text text-anchor="middle" x="59.5" y="-82" font-family="Helvetica,sans-Serif" font-size="10.00">i_file_</text>
<text text-anchor="middle" x="59.5" y="-71" font-family="Helvetica,sans-Serif" font-size="10.00">i_memory_</text>
</g>
<!-- Node3&#45;&gt;Node2 -->
<g id="edge2" class="edge">
<title>Node3&#45;&gt;Node2</title>
<path fill="none" stroke="#9a32cd" stroke-dasharray="5,2" d="M62.37,-143.07C83.47,-130.5 114.35,-112.1 135.49,-99.51"/>
<polygon fill="#9a32cd" stroke="#9a32cd" points="60.51,-140.11 53.71,-148.23 64.1,-146.12 60.51,-140.11"/>
<text text-anchor="middle" x="127.5" y="-122" font-family="Helvetica,sans-Serif" font-size="10.00"> max_len_</text>
</g>
</g>
</svg>
