<?xml version="1.0" encoding="UTF-8" standalone="no"?>
<!DOCTYPE svg PUBLIC "-//W3C//DTD SVG 1.1//EN"
 "http://www.w3.org/Graphics/SVG/1.1/DTD/svg11.dtd">
<!-- Generated by graphviz version 2.43.0 (0)
 -->
<!-- Title: fire::h5::Data&lt; DataType, Enable &gt; Pages: 1 -->
<svg width="148pt" height="299pt"
 viewBox="0.00 0.00 148.00 299.00" xmlns="http://www.w3.org/2000/svg" xmlns:xlink="http://www.w3.org/1999/xlink">
<g id="graph0" class="graph" transform="scale(1 1) rotate(0) translate(4 295)">
<title>fire::h5::Data&lt; DataType, Enable &gt;</title>
<!-- Node1 -->
<g id="node1" class="node">
<title>Node1</title>
<g id="a_node1"><a xlink:title="General data set.">
<polygon fill="#bfbfbf" stroke="black" points="0,-0.5 0,-30.5 140,-30.5 140,-0.5 0,-0.5"/>
<text text-anchor="start" x="8" y="-18.5" font-family="Helvetica,sans-Serif" font-size="10.00">fire::h5::Data&lt; DataType,</text>
<text text-anchor="middle" x="70" y="-7.5" font-family="Helvetica,sans-Serif" font-size="10.00"> Enable &gt;</text>
</a>
</g>
</g>
<!-- Node2 -->
<g id="node2" class="node">
<title>Node2</title>
<g id="a_node2"><a xlink:href="classfire_1_1h5_1_1AbstractData.html" target="_top" xlink:title="Type&#45;specific base class to hold common data methods.">
<polygon fill="none" stroke="black" points="10,-68.5 10,-98.5 130,-98.5 130,-68.5 10,-68.5"/>
<text text-anchor="start" x="18" y="-86.5" font-family="Helvetica,sans-Serif" font-size="10.00">fire::h5::AbstractData</text>
<text text-anchor="middle" x="70" y="-75.5" font-family="Helvetica,sans-Serif" font-size="10.00">&lt; DataType &gt;</text>
</a>
</g>
</g>
<!-- Node2&#45;&gt;Node1 -->
<g id="edge1" class="edge">
<title>Node2&#45;&gt;Node1</title>
<path fill="none" stroke="midnightblue" d="M70,-58.03C70,-48.86 70,-38.74 70,-30.79"/>
<polygon fill="midnightblue" stroke="midnightblue" points="66.5,-58.18 70,-68.18 73.5,-58.18 66.5,-58.18"/>
</g>
<!-- Node3 -->
<g id="node3" class="node">
<title>Node3</title>
<g id="a_node3"><a xlink:href="classfire_1_1h5_1_1BaseData.html" target="_top" xlink:title="Empty data base allowing recursion.">
<polygon fill="none" stroke="black" points="18,-136.5 18,-155.5 122,-155.5 122,-136.5 18,-136.5"/>
<text text-anchor="middle" x="70" y="-143.5" font-family="Helvetica,sans-Serif" font-size="10.00">fire::h5::BaseData</text>
</a>
</g>
</g>
<!-- Node3&#45;&gt;Node2 -->
<g id="edge2" class="edge">
<title>Node3&#45;&gt;Node2</title>
<path fill="none" stroke="midnightblue" d="M70,-126.22C70,-117.36 70,-106.96 70,-98.76"/>
<polygon fill="midnightblue" stroke="midnightblue" points="66.5,-126.33 70,-136.33 73.5,-126.33 66.5,-126.33"/>
</g>
<!-- Node4 -->
<g id="node4" class="node">
<title>Node4</title>
<g id="a_node4"><a target="_parent" xlink:href="http://en.cppreference.com/w/cpp/string/basic_string.html" xlink:title=" ">
<polygon fill="none" stroke="black" points="37.5,-203.5 37.5,-222.5 102.5,-222.5 102.5,-203.5 37.5,-203.5"/>
<text text-anchor="middle" x="70" y="-210.5" font-family="Helvetica,sans-Serif" font-size="10.00">std::string</text>
</a>
</g>
</g>
<!-- Node4&#45;&gt;Node3 -->
<g id="edge3" class="edge">
<title>Node4&#45;&gt;Node3</title>
<path fill="none" stroke="#9a32cd" stroke-dasharray="5,2" d="M70,-193.04C70,-180.67 70,-165.12 70,-155.63"/>
<polygon fill="#9a32cd" stroke="#9a32cd" points="66.5,-193.23 70,-203.23 73.5,-193.23 66.5,-193.23"/>
<text text-anchor="middle" x="85.5" y="-177" font-family="Helvetica,sans-Serif" font-size="10.00"> path_</text>
</g>
<!-- Node5 -->
<g id="node5" class="node">
<title>Node5</title>
<g id="a_node5"><a target="_parent" xlink:href="http://en.cppreference.com/w/cpp/string/basic_string.html" xlink:title=" ">
<polygon fill="none" stroke="black" points="18,-260.5 18,-290.5 122,-290.5 122,-260.5 18,-260.5"/>
<text text-anchor="start" x="26" y="-278.5" font-family="Helvetica,sans-Serif" font-size="10.00">std::basic_string&lt;</text>
<text text-anchor="middle" x="70" y="-267.5" font-family="Helvetica,sans-Serif" font-size="10.00"> char &gt;</text>
</a>
</g>
</g>
<!-- Node5&#45;&gt;Node4 -->
<g id="edge4" class="edge">
<title>Node5&#45;&gt;Node4</title>
<path fill="none" stroke="midnightblue" d="M70,-250.35C70,-240.51 70,-229.78 70,-222.54"/>
<polygon fill="midnightblue" stroke="midnightblue" points="66.5,-250.47 70,-260.47 73.5,-250.47 66.5,-250.47"/>
</g>
</g>
</svg>
