<?xml version="1.0" encoding="UTF-8" standalone="no"?>
<!DOCTYPE svg PUBLIC "-//W3C//DTD SVG 1.1//EN"
 "http://www.w3.org/Graphics/SVG/1.1/DTD/svg11.dtd">
<!-- Generated by graphviz version 2.43.0 (0)
 -->
<!-- Title: framework::Analyzer Pages: 1 -->
<svg width="1306pt" height="240pt"
 viewBox="0.00 0.00 1306.00 240.00" xmlns="http://www.w3.org/2000/svg" xmlns:xlink="http://www.w3.org/1999/xlink">
<g id="graph0" class="graph" transform="scale(1 1) rotate(0) translate(4 236)">
<title>framework::Analyzer</title>
<!-- Node1 -->
<g id="node1" class="node">
<title>Node1</title>
<g id="a_node1"><a xlink:title="Legacy analyzer class.">
<polygon fill="#bfbfbf" stroke="black" points="1179,-93.5 1179,-112.5 1298,-112.5 1298,-93.5 1179,-93.5"/>
<text text-anchor="middle" x="1238.5" y="-100.5" font-family="Helvetica,sans-Serif" font-size="10.00">framework::Analyzer</text>
</a>
</g>
</g>
<!-- Node2 -->
<g id="node2" class="node">
<title>Node2</title>
<g id="a_node2"><a xlink:href="classframework_1_1EventProcessor.html" target="_top" xlink:title="Wrapper class for fire::Processor which does the necessary modifications on the constructors and adds...">
<polygon fill="none" stroke="black" points="991,-93.5 991,-112.5 1142,-112.5 1142,-93.5 991,-93.5"/>
<text text-anchor="middle" x="1066.5" y="-100.5" font-family="Helvetica,sans-Serif" font-size="10.00">framework::EventProcessor</text>
</a>
</g>
</g>
<!-- Node2&#45;&gt;Node1 -->
<g id="edge1" class="edge">
<title>Node2&#45;&gt;Node1</title>
<path fill="none" stroke="midnightblue" d="M1152.21,-103C1161.21,-103 1170.22,-103 1178.83,-103"/>
<polygon fill="midnightblue" stroke="midnightblue" points="1152.06,-99.5 1142.06,-103 1152.06,-106.5 1152.06,-99.5"/>
</g>
<!-- Node3 -->
<g id="node3" class="node">
<title>Node3</title>
<g id="a_node3"><a xlink:href="classfire_1_1Processor.html" target="_top" xlink:title="Base class for all event processing components.">
<polygon fill="none" stroke="black" points="868,-93.5 868,-112.5 954,-112.5 954,-93.5 868,-93.5"/>
<text text-anchor="middle" x="911" y="-100.5" font-family="Helvetica,sans-Serif" font-size="10.00">fire::Processor</text>
</a>
</g>
</g>
<!-- Node3&#45;&gt;Node2 -->
<g id="edge2" class="edge">
<title>Node3&#45;&gt;Node2</title>
<path fill="none" stroke="midnightblue" d="M964.49,-103C973,-103 981.96,-103 990.89,-103"/>
<polygon fill="midnightblue" stroke="midnightblue" points="964.35,-99.5 954.35,-103 964.35,-106.5 964.35,-99.5"/>
</g>
<!-- Node4 -->
<g id="node4" class="node">
<title>Node4</title>
<g id="a_node4"><a target="_parent" xlink:href="http://en.cppreference.com/w/cpp/string/basic_string.html" xlink:title=" ">
<polygon fill="none" stroke="black" points="263,-112.5 263,-131.5 328,-131.5 328,-112.5 263,-112.5"/>
<text text-anchor="middle" x="295.5" y="-119.5" font-family="Helvetica,sans-Serif" font-size="10.00">std::string</text>
</a>
</g>
</g>
<!-- Node4&#45;&gt;Node3 -->
<g id="edge3" class="edge">
<title>Node4&#45;&gt;Node3</title>
<path fill="none" stroke="#9a32cd" stroke-dasharray="5,2" d="M338.09,-121.77C430.3,-121.08 658.92,-118.37 850,-108 855.74,-107.69 861.78,-107.28 867.74,-106.83"/>
<polygon fill="#9a32cd" stroke="#9a32cd" points="338.02,-118.27 328.04,-121.84 338.07,-125.27 338.02,-118.27"/>
<text text-anchor="middle" x="649.5" y="-121" font-family="Helvetica,sans-Serif" font-size="10.00"> name_</text>
</g>
<!-- Node10 -->
<g id="node10" class="node">
<title>Node10</title>
<g id="a_node10"><a xlink:href="classfire_1_1Event.html" target="_top" xlink:title="Event class for interfacing with processors.">
<polygon fill="none" stroke="black" points="500.5,-36.5 500.5,-55.5 566.5,-55.5 566.5,-36.5 500.5,-36.5"/>
<text text-anchor="middle" x="533.5" y="-43.5" font-family="Helvetica,sans-Serif" font-size="10.00">fire::Event</text>
</a>
</g>
</g>
<!-- Node4&#45;&gt;Node10 -->
<g id="edge12" class="edge">
<title>Node4&#45;&gt;Node10</title>
<path fill="none" stroke="#9a32cd" stroke-dasharray="5,2" d="M337.72,-109.51C370.85,-99.39 418.52,-84.62 460,-71 475.05,-66.06 491.78,-60.31 505.37,-55.57"/>
<polygon fill="#9a32cd" stroke="#9a32cd" points="336.48,-106.23 327.93,-112.5 338.52,-112.93 336.48,-106.23"/>
<text text-anchor="middle" x="422" y="-99" font-family="Helvetica,sans-Serif" font-size="10.00"> pass_</text>
</g>
<!-- Node12 -->
<g id="node12" class="node">
<title>Node12</title>
<g id="a_node12"><a xlink:href="classfire_1_1RunHeader.html" target="_top" xlink:title="Container for run parameters.">
<polygon fill="none" stroke="black" points="487.5,-150.5 487.5,-169.5 579.5,-169.5 579.5,-150.5 487.5,-150.5"/>
<text text-anchor="middle" x="533.5" y="-157.5" font-family="Helvetica,sans-Serif" font-size="10.00">fire::RunHeader</text>
</a>
</g>
</g>
<!-- Node4&#45;&gt;Node12 -->
<g id="edge14" class="edge">
<title>Node4&#45;&gt;Node12</title>
<path fill="none" stroke="#9a32cd" stroke-dasharray="5,2" d="M338.21,-128.72C380.1,-135.46 444.45,-145.82 487.48,-152.75"/>
<polygon fill="#9a32cd" stroke="#9a32cd" points="338.76,-125.26 328.33,-127.12 337.64,-132.17 338.76,-125.26"/>
<text text-anchor="middle" x="422" y="-183" font-family="Helvetica,sans-Serif" font-size="10.00"> NAME</text>
<text text-anchor="middle" x="422" y="-172" font-family="Helvetica,sans-Serif" font-size="10.00">description_</text>
<text text-anchor="middle" x="422" y="-161" font-family="Helvetica,sans-Serif" font-size="10.00">detectorName_</text>
<text text-anchor="middle" x="422" y="-150" font-family="Helvetica,sans-Serif" font-size="10.00">softwareTag_</text>
</g>
<!-- Node5 -->
<g id="node5" class="node">
<title>Node5</title>
<g id="a_node5"><a target="_parent" xlink:href="http://en.cppreference.com/w/cpp/string/basic_string.html" xlink:title=" ">
<polygon fill="none" stroke="black" points="0,-107 0,-137 104,-137 104,-107 0,-107"/>
<text text-anchor="start" x="8" y="-125" font-family="Helvetica,sans-Serif" font-size="10.00">std::basic_string&lt;</text>
<text text-anchor="middle" x="52" y="-114" font-family="Helvetica,sans-Serif" font-size="10.00"> char &gt;</text>
</a>
</g>
</g>
<!-- Node5&#45;&gt;Node4 -->
<g id="edge4" class="edge">
<title>Node5&#45;&gt;Node4</title>
<path fill="none" stroke="midnightblue" d="M114.36,-122C161.74,-122 225.34,-122 262.92,-122"/>
<polygon fill="midnightblue" stroke="midnightblue" points="114.22,-118.5 104.22,-122 114.22,-125.5 114.22,-118.5"/>
</g>
<!-- Node6 -->
<g id="node6" class="node">
<title>Node6</title>
<g id="a_node6"><a xlink:href="classfire_1_1Process.html" target="_top" xlink:title="The central object managing the data processing.">
<polygon fill="none" stroke="black" points="710,-74.5 710,-93.5 786,-93.5 786,-74.5 710,-74.5"/>
<text text-anchor="middle" x="748" y="-81.5" font-family="Helvetica,sans-Serif" font-size="10.00">fire::Process</text>
</a>
</g>
</g>
<!-- Node6&#45;&gt;Node3 -->
<g id="edge5" class="edge">
<title>Node6&#45;&gt;Node3</title>
<path fill="none" stroke="#9a32cd" stroke-dasharray="5,2" d="M796.4,-89.59C819.01,-92.26 845.84,-95.43 867.75,-98.01"/>
<polygon fill="#9a32cd" stroke="#9a32cd" points="796.68,-86.1 786.34,-88.41 795.86,-93.05 796.68,-86.1"/>
<text text-anchor="middle" x="827" y="-99" font-family="Helvetica,sans-Serif" font-size="10.00"> process_</text>
</g>
<!-- Node7 -->
<g id="node7" class="node">
<title>Node7</title>
<g id="a_node7"><a xlink:href="classfire_1_1io_1_1Writer.html" target="_top" xlink:title="Write the fire DataSets into a deterministic structure in the output HDF5 data file.">
<polygon fill="none" stroke="black" points="254,-0.5 254,-19.5 337,-19.5 337,-0.5 254,-0.5"/>
<text text-anchor="middle" x="295.5" y="-7.5" font-family="Helvetica,sans-Serif" font-size="10.00">fire::io::Writer</text>
</a>
</g>
</g>
<!-- Node7&#45;&gt;Node6 -->
<g id="edge6" class="edge">
<title>Node7&#45;&gt;Node6</title>
<path fill="none" stroke="#9a32cd" stroke-dasharray="5,2" d="M347.24,-6.24C405.95,-2.99 505.3,-0.91 589,-16 636.72,-24.6 647.95,-31.71 692,-52 706.05,-58.47 721.18,-67.43 732.01,-74.23"/>
<polygon fill="#9a32cd" stroke="#9a32cd" points="346.89,-2.75 337.11,-6.83 347.3,-9.74 346.89,-2.75"/>
<text text-anchor="middle" x="533.5" y="-19" font-family="Helvetica,sans-Serif" font-size="10.00"> output_file_</text>
</g>
<!-- Node7&#45;&gt;Node10 -->
<g id="edge11" class="edge">
<title>Node7&#45;&gt;Node10</title>
<path fill="none" stroke="#9a32cd" stroke-dasharray="5,2" d="M347.23,-17.74C393.67,-24.82 460.99,-35.09 500.4,-41.1"/>
<polygon fill="#9a32cd" stroke="#9a32cd" points="347.48,-14.24 337.07,-16.19 346.43,-21.16 347.48,-14.24"/>
<text text-anchor="middle" x="422" y="-38" font-family="Helvetica,sans-Serif" font-size="10.00"> output_file_</text>
</g>
<!-- Node8 -->
<g id="node8" class="node">
<title>Node8</title>
<g id="a_node8"><a target="_parent" xlink:href="http://en.cppreference.com/w/cpp/types/size_t.html" xlink:title=" ">
<polygon fill="none" stroke="black" points="19,-0.5 19,-19.5 85,-19.5 85,-0.5 19,-0.5"/>
<text text-anchor="middle" x="52" y="-7.5" font-family="Helvetica,sans-Serif" font-size="10.00">std::size_t</text>
</a>
</g>
</g>
<!-- Node8&#45;&gt;Node7 -->
<g id="edge7" class="edge">
<title>Node8&#45;&gt;Node7</title>
<path fill="none" stroke="#9a32cd" stroke-dasharray="5,2" d="M95.29,-10C139.93,-10 209.8,-10 253.82,-10"/>
<polygon fill="#9a32cd" stroke="#9a32cd" points="95.07,-6.5 85.07,-10 95.07,-13.5 95.07,-6.5"/>
<text text-anchor="middle" x="164.5" y="-24" font-family="Helvetica,sans-Serif" font-size="10.00"> entries_</text>
<text text-anchor="middle" x="164.5" y="-13" font-family="Helvetica,sans-Serif" font-size="10.00">rows_per_chunk_</text>
</g>
<!-- Node9 -->
<g id="node9" class="node">
<title>Node9</title>
<g id="a_node9"><a xlink:href="classfire_1_1StorageControl.html" target="_top" xlink:title="Isolation of voting system deciding if events should be kept.">
<polygon fill="none" stroke="black" points="478,-74.5 478,-93.5 589,-93.5 589,-74.5 478,-74.5"/>
<text text-anchor="middle" x="533.5" y="-81.5" font-family="Helvetica,sans-Serif" font-size="10.00">fire::StorageControl</text>
</a>
</g>
</g>
<!-- Node9&#45;&gt;Node6 -->
<g id="edge8" class="edge">
<title>Node9&#45;&gt;Node6</title>
<path fill="none" stroke="#9a32cd" stroke-dasharray="5,2" d="M599.23,-84C635.47,-84 679.37,-84 709.86,-84"/>
<polygon fill="#9a32cd" stroke="#9a32cd" points="599.22,-80.5 589.22,-84 599.22,-87.5 599.22,-80.5"/>
<text text-anchor="middle" x="649.5" y="-87" font-family="Helvetica,sans-Serif" font-size="10.00"> storage_control_</text>
</g>
<!-- Node10&#45;&gt;Node6 -->
<g id="edge9" class="edge">
<title>Node10&#45;&gt;Node6</title>
<path fill="none" stroke="#9a32cd" stroke-dasharray="5,2" d="M576.96,-50.78C608.8,-54.71 653.36,-60.94 692,-69 699.36,-70.54 707.2,-72.48 714.59,-74.46"/>
<polygon fill="#9a32cd" stroke="#9a32cd" points="577.02,-47.27 566.68,-49.54 576.18,-54.22 577.02,-47.27"/>
<text text-anchor="middle" x="649.5" y="-72" font-family="Helvetica,sans-Serif" font-size="10.00"> event_</text>
</g>
<!-- Node11 -->
<g id="node11" class="node">
<title>Node11</title>
<g id="a_node11"><a xlink:href="classfire_1_1io_1_1Reader.html" target="_top" xlink:title="Prototype for reading files within fire.">
<polygon fill="none" stroke="black" points="251.5,-52.5 251.5,-71.5 339.5,-71.5 339.5,-52.5 251.5,-52.5"/>
<text text-anchor="middle" x="295.5" y="-59.5" font-family="Helvetica,sans-Serif" font-size="10.00">fire::io::Reader</text>
</a>
</g>
</g>
<!-- Node11&#45;&gt;Node10 -->
<g id="edge10" class="edge">
<title>Node11&#45;&gt;Node10</title>
<path fill="none" stroke="#9a32cd" stroke-dasharray="5,2" d="M349.67,-58.4C396,-55.25 461.65,-50.8 500.38,-48.18"/>
<polygon fill="#9a32cd" stroke="#9a32cd" points="349.25,-54.92 339.51,-59.08 349.73,-61.9 349.25,-54.92"/>
<text text-anchor="middle" x="422" y="-59" font-family="Helvetica,sans-Serif" font-size="10.00"> input_file_</text>
</g>
<!-- Node12&#45;&gt;Node6 -->
<g id="edge13" class="edge">
<title>Node12&#45;&gt;Node6</title>
<path fill="none" stroke="#9a32cd" stroke-dasharray="5,2" d="M590.03,-159.61C621.35,-157.45 660.4,-151.43 692,-136 712.31,-126.08 730.16,-106.02 739.68,-93.92"/>
<polygon fill="#9a32cd" stroke="#9a32cd" points="589.52,-156.13 579.73,-160.2 589.92,-163.12 589.52,-156.13"/>
<text text-anchor="middle" x="649.5" y="-160" font-family="Helvetica,sans-Serif" font-size="10.00"> run_header_</text>
</g>
<!-- Node13 -->
<g id="node13" class="node">
<title>Node13</title>
<g id="a_node13"><a xlink:href="classfire_1_1io_1_1ParameterStorage.html" target="_top" xlink:title="Provides dynamic parameter storage by interfacing between a map to variants storing parameters and a ...">
<polygon fill="none" stroke="black" points="225,-212.5 225,-231.5 366,-231.5 366,-212.5 225,-212.5"/>
<text text-anchor="middle" x="295.5" y="-219.5" font-family="Helvetica,sans-Serif" font-size="10.00">fire::io::ParameterStorage</text>
</a>
</g>
</g>
<!-- Node13&#45;&gt;Node12 -->
<g id="edge15" class="edge">
<title>Node13&#45;&gt;Node12</title>
<path fill="none" stroke="#9a32cd" stroke-dasharray="5,2" d="M376.5,-213.45C403.42,-209.35 433.37,-203.43 460,-195 480.12,-188.63 501.73,-177.6 516.07,-169.62"/>
<polygon fill="#9a32cd" stroke="#9a32cd" points="375.73,-210.03 366.34,-214.94 376.74,-216.96 375.73,-210.03"/>
<text text-anchor="middle" x="422" y="-215" font-family="Helvetica,sans-Serif" font-size="10.00"> parameters_</text>
</g>
</g>
</svg>
