<?xml version="1.0" encoding="UTF-8" standalone="no"?>
<!DOCTYPE svg PUBLIC "-//W3C//DTD SVG 1.1//EN"
 "http://www.w3.org/Graphics/SVG/1.1/DTD/svg11.dtd">
<!-- Generated by graphviz version 2.43.0 (0)
 -->
<!-- Title: fire::Exception Pages: 1 -->
<svg width="197pt" height="185pt"
 viewBox="0.00 0.00 197.00 185.00" xmlns="http://www.w3.org/2000/svg" xmlns:xlink="http://www.w3.org/1999/xlink">
<g id="graph0" class="graph" transform="scale(1 1) rotate(0) translate(4 181)">
<title>fire::Exception</title>
<!-- Node1 -->
<g id="node1" class="node">
<title>Node1</title>
<g id="a_node1"><a xlink:title="Standard base exception class with some useful output information.">
<polygon fill="#bfbfbf" stroke="black" points="16,-0.5 16,-19.5 102,-19.5 102,-0.5 16,-0.5"/>
<text text-anchor="middle" x="59" y="-7.5" font-family="Helvetica,sans-Serif" font-size="10.00">fire::Exception</text>
</a>
</g>
</g>
<!-- Node2 -->
<g id="node2" class="node">
<title>Node2</title>
<g id="a_node2"><a xlink:title=" ">
<polygon fill="none" stroke="#bfbfbf" points="0,-89.5 0,-108.5 86,-108.5 86,-89.5 0,-89.5"/>
<text text-anchor="middle" x="43" y="-96.5" font-family="Helvetica,sans-Serif" font-size="10.00">std::exception</text>
</a>
</g>
</g>
<!-- Node2&#45;&gt;Node1 -->
<g id="edge1" class="edge">
<title>Node2&#45;&gt;Node1</title>
<path fill="none" stroke="midnightblue" d="M46.41,-79.46C49.81,-61 54.87,-33.48 57.41,-19.62"/>
<polygon fill="midnightblue" stroke="midnightblue" points="42.96,-78.87 44.59,-89.34 49.84,-80.14 42.96,-78.87"/>
</g>
<!-- Node3 -->
<g id="node3" class="node">
<title>Node3</title>
<g id="a_node3"><a xlink:title=" ">
<polygon fill="none" stroke="#bfbfbf" points="104.5,-89.5 104.5,-108.5 169.5,-108.5 169.5,-89.5 104.5,-89.5"/>
<text text-anchor="middle" x="137" y="-96.5" font-family="Helvetica,sans-Serif" font-size="10.00">std::string</text>
</a>
</g>
</g>
<!-- Node3&#45;&gt;Node1 -->
<g id="edge2" class="edge">
<title>Node3&#45;&gt;Node1</title>
<path fill="none" stroke="#9a32cd" stroke-dasharray="5,2" d="M122.43,-81.74C105.93,-63.35 79.68,-34.06 66.73,-19.62"/>
<polygon fill="#9a32cd" stroke="#9a32cd" points="119.95,-84.23 129.24,-89.34 125.17,-79.56 119.95,-84.23"/>
<text text-anchor="middle" x="142" y="-63" font-family="Helvetica,sans-Serif" font-size="10.00"> category_</text>
<text text-anchor="middle" x="142" y="-52" font-family="Helvetica,sans-Serif" font-size="10.00">message_</text>
<text text-anchor="middle" x="142" y="-41" font-family="Helvetica,sans-Serif" font-size="10.00">stack_trace_</text>
</g>
<!-- Node4 -->
<g id="node4" class="node">
<title>Node4</title>
<g id="a_node4"><a xlink:title=" ">
<polygon fill="none" stroke="#bfbfbf" points="85,-146.5 85,-176.5 189,-176.5 189,-146.5 85,-146.5"/>
<text text-anchor="start" x="93" y="-164.5" font-family="Helvetica,sans-Serif" font-size="10.00">std::basic_string&lt;</text>
<text text-anchor="middle" x="137" y="-153.5" font-family="Helvetica,sans-Serif" font-size="10.00"> Char &gt;</text>
</a>
</g>
</g>
<!-- Node4&#45;&gt;Node3 -->
<g id="edge3" class="edge">
<title>Node4&#45;&gt;Node3</title>
<path fill="none" stroke="midnightblue" d="M137,-136.35C137,-126.51 137,-115.78 137,-108.54"/>
<polygon fill="midnightblue" stroke="midnightblue" points="133.5,-136.47 137,-146.47 140.5,-136.47 133.5,-136.47"/>
</g>
</g>
</svg>
