<?xml version="1.0" encoding="UTF-8" standalone="no"?>
<!DOCTYPE svg PUBLIC "-//W3C//DTD SVG 1.1//EN"
 "http://www.w3.org/Graphics/SVG/1.1/DTD/svg11.dtd">
<!-- Generated by graphviz version 2.43.0 (0)
 -->
<!-- Title: fire::h5::Data&lt; ParameterStorage &gt; Pages: 1 -->
<svg width="149pt" height="299pt"
 viewBox="0.00 0.00 149.00 299.00" xmlns="http://www.w3.org/2000/svg" xmlns:xlink="http://www.w3.org/1999/xlink">
<g id="graph0" class="graph" transform="scale(1 1) rotate(0) translate(4 295)">
<title>fire::h5::Data&lt; ParameterStorage &gt;</title>
<!-- Node1 -->
<g id="node1" class="node">
<title>Node1</title>
<g id="a_node1"><a xlink:title="h5::Data specialization for ParameterStorage">
<polygon fill="#bfbfbf" stroke="black" points="0,-0.5 0,-30.5 141,-30.5 141,-0.5 0,-0.5"/>
<text text-anchor="start" x="8" y="-18.5" font-family="Helvetica,sans-Serif" font-size="10.00">fire::h5::Data&lt; Parameter</text>
<text text-anchor="middle" x="70.5" y="-7.5" font-family="Helvetica,sans-Serif" font-size="10.00">Storage &gt;</text>
</a>
</g>
</g>
<!-- Node2 -->
<g id="node2" class="node">
<title>Node2</title>
<g id="a_node2"><a xlink:href="classfire_1_1h5_1_1AbstractData.html" target="_top" xlink:title=" ">
<polygon fill="none" stroke="black" points="7,-68.5 7,-98.5 134,-98.5 134,-68.5 7,-68.5"/>
<text text-anchor="start" x="15" y="-86.5" font-family="Helvetica,sans-Serif" font-size="10.00">fire::h5::AbstractData</text>
<text text-anchor="middle" x="70.5" y="-75.5" font-family="Helvetica,sans-Serif" font-size="10.00">&lt; ParameterStorage &gt;</text>
</a>
</g>
</g>
<!-- Node2&#45;&gt;Node1 -->
<g id="edge1" class="edge">
<title>Node2&#45;&gt;Node1</title>
<path fill="none" stroke="midnightblue" d="M70.5,-58.03C70.5,-48.86 70.5,-38.74 70.5,-30.79"/>
<polygon fill="midnightblue" stroke="midnightblue" points="67,-58.18 70.5,-68.18 74,-58.18 67,-58.18"/>
</g>
<!-- Node3 -->
<g id="node3" class="node">
<title>Node3</title>
<g id="a_node3"><a xlink:href="classfire_1_1h5_1_1BaseData.html" target="_top" xlink:title="Empty data base allowing recursion.">
<polygon fill="none" stroke="black" points="18.5,-136.5 18.5,-155.5 122.5,-155.5 122.5,-136.5 18.5,-136.5"/>
<text text-anchor="middle" x="70.5" y="-143.5" font-family="Helvetica,sans-Serif" font-size="10.00">fire::h5::BaseData</text>
</a>
</g>
</g>
<!-- Node3&#45;&gt;Node2 -->
<g id="edge2" class="edge">
<title>Node3&#45;&gt;Node2</title>
<path fill="none" stroke="midnightblue" d="M70.5,-126.22C70.5,-117.36 70.5,-106.96 70.5,-98.76"/>
<polygon fill="midnightblue" stroke="midnightblue" points="67,-126.33 70.5,-136.33 74,-126.33 67,-126.33"/>
</g>
<!-- Node4 -->
<g id="node4" class="node">
<title>Node4</title>
<g id="a_node4"><a target="_parent" xlink:href="http://en.cppreference.com/w/cpp/string/basic_string.html" xlink:title=" ">
<polygon fill="none" stroke="black" points="38,-203.5 38,-222.5 103,-222.5 103,-203.5 38,-203.5"/>
<text text-anchor="middle" x="70.5" y="-210.5" font-family="Helvetica,sans-Serif" font-size="10.00">std::string</text>
</a>
</g>
</g>
<!-- Node4&#45;&gt;Node3 -->
<g id="edge3" class="edge">
<title>Node4&#45;&gt;Node3</title>
<path fill="none" stroke="#9a32cd" stroke-dasharray="5,2" d="M70.5,-193.04C70.5,-180.67 70.5,-165.12 70.5,-155.63"/>
<polygon fill="#9a32cd" stroke="#9a32cd" points="67,-193.23 70.5,-203.23 74,-193.23 67,-193.23"/>
<text text-anchor="middle" x="86" y="-177" font-family="Helvetica,sans-Serif" font-size="10.00"> path_</text>
</g>
<!-- Node5 -->
<g id="node5" class="node">
<title>Node5</title>
<g id="a_node5"><a target="_parent" xlink:href="http://en.cppreference.com/w/cpp/string/basic_string.html" xlink:title=" ">
<polygon fill="none" stroke="black" points="18.5,-260.5 18.5,-290.5 122.5,-290.5 122.5,-260.5 18.5,-260.5"/>
<text text-anchor="start" x="26.5" y="-278.5" font-family="Helvetica,sans-Serif" font-size="10.00">std::basic_string&lt;</text>
<text text-anchor="middle" x="70.5" y="-267.5" font-family="Helvetica,sans-Serif" font-size="10.00"> char &gt;</text>
</a>
</g>
</g>
<!-- Node5&#45;&gt;Node4 -->
<g id="edge4" class="edge">
<title>Node5&#45;&gt;Node4</title>
<path fill="none" stroke="midnightblue" d="M70.5,-250.35C70.5,-240.51 70.5,-229.78 70.5,-222.54"/>
<polygon fill="midnightblue" stroke="midnightblue" points="67,-250.47 70.5,-260.47 74,-250.47 67,-250.47"/>
</g>
</g>
</svg>
