<?xml version="1.0" encoding="UTF-8" standalone="no"?>
<!DOCTYPE svg PUBLIC "-//W3C//DTD SVG 1.1//EN"
 "http://www.w3.org/Graphics/SVG/1.1/DTD/svg11.dtd">
<!-- Generated by graphviz version 2.43.0 (0)
 -->
<!-- Title: fire::h5::DataSet&lt; std::map&lt; KeyType, ValType &gt; &gt; Pages: 1 -->
<svg width="196pt" height="173pt"
 viewBox="0.00 0.00 196.00 173.00" xmlns="http://www.w3.org/2000/svg" xmlns:xlink="http://www.w3.org/1999/xlink">
<g id="graph0" class="graph" transform="scale(1 1) rotate(0) translate(4 169)">
<title>fire::h5::DataSet&lt; std::map&lt; KeyType, ValType &gt; &gt;</title>
<!-- Node1 -->
<g id="node1" class="node">
<title>Node1</title>
<g id="a_node1"><a xlink:title="Maps.">
<polygon fill="#bfbfbf" stroke="black" points="35.5,-0.5 35.5,-41.5 152.5,-41.5 152.5,-0.5 35.5,-0.5"/>
<text text-anchor="start" x="43.5" y="-29.5" font-family="Helvetica,sans-Serif" font-size="10.00">fire::h5::DataSet&lt;</text>
<text text-anchor="start" x="43.5" y="-18.5" font-family="Helvetica,sans-Serif" font-size="10.00"> std::map&lt; KeyType,</text>
<text text-anchor="middle" x="94" y="-7.5" font-family="Helvetica,sans-Serif" font-size="10.00"> ValType &gt; &gt;</text>
</a>
</g>
</g>
<!-- Node2 -->
<g id="node2" class="node">
<title>Node2</title>
<g id="a_node2"><a xlink:href="classfire_1_1h5_1_1AbstractDataSet.html" target="_top" xlink:title=" ">
<polygon fill="none" stroke="black" points="0,-78.5 0,-108.5 188,-108.5 188,-78.5 0,-78.5"/>
<text text-anchor="start" x="8" y="-96.5" font-family="Helvetica,sans-Serif" font-size="10.00">fire::h5::AbstractDataSet</text>
<text text-anchor="middle" x="94" y="-85.5" font-family="Helvetica,sans-Serif" font-size="10.00">&lt; std::map&lt; KeyType, ValType &gt; &gt;</text>
</a>
</g>
</g>
<!-- Node2&#45;&gt;Node1 -->
<g id="edge1" class="edge">
<title>Node2&#45;&gt;Node1</title>
<path fill="none" stroke="midnightblue" d="M94,-67.98C94,-59.35 94,-49.76 94,-41.59"/>
<polygon fill="midnightblue" stroke="midnightblue" points="90.5,-68.23 94,-78.23 97.5,-68.23 90.5,-68.23"/>
</g>
<!-- Node3 -->
<g id="node3" class="node">
<title>Node3</title>
<g id="a_node3"><a xlink:href="classfire_1_1h5_1_1BaseDataSet.html" target="_top" xlink:title=" ">
<polygon fill="none" stroke="black" points="34.5,-145.5 34.5,-164.5 153.5,-164.5 153.5,-145.5 34.5,-145.5"/>
<text text-anchor="middle" x="94" y="-152.5" font-family="Helvetica,sans-Serif" font-size="10.00">fire::h5::BaseDataSet</text>
</a>
</g>
</g>
<!-- Node3&#45;&gt;Node2 -->
<g id="edge2" class="edge">
<title>Node3&#45;&gt;Node2</title>
<path fill="none" stroke="midnightblue" d="M94,-135.23C94,-126.59 94,-116.5 94,-108.52"/>
<polygon fill="midnightblue" stroke="midnightblue" points="90.5,-135.48 94,-145.48 97.5,-135.48 90.5,-135.48"/>
</g>
</g>
</svg>
