<?xml version="1.0" encoding="UTF-8" standalone="no"?>
<!DOCTYPE svg PUBLIC "-//W3C//DTD SVG 1.1//EN"
 "http://www.w3.org/Graphics/SVG/1.1/DTD/svg11.dtd">
<!-- Generated by graphviz version 2.43.0 (0)
 -->
<!-- Title: fire::ConditionsProvider Pages: 1 -->
<svg width="710pt" height="162pt"
 viewBox="0.00 0.00 709.50 162.00" xmlns="http://www.w3.org/2000/svg" xmlns:xlink="http://www.w3.org/1999/xlink">
<g id="graph0" class="graph" transform="scale(1 1) rotate(0) translate(4 158)">
<title>fire::ConditionsProvider</title>
<!-- Node1 -->
<g id="node1" class="node">
<title>Node1</title>
<g id="a_node1"><a xlink:title="Base class for all providers of conditions objects.">
<polygon fill="#bfbfbf" stroke="black" points="0,-0.5 0,-19.5 131,-19.5 131,-0.5 0,-0.5"/>
<text text-anchor="middle" x="65.5" y="-7.5" font-family="Helvetica,sans-Serif" font-size="10.00">fire::ConditionsProvider</text>
</a>
</g>
</g>
<!-- Node2 -->
<g id="node2" class="node">
<title>Node2</title>
<g id="a_node2"><a xlink:href="classfire_1_1Conditions.html" target="_top" xlink:title="Container and cache for conditions and conditions providers.">
<polygon fill="none" stroke="black" points="102.5,-67.5 102.5,-86.5 192.5,-86.5 192.5,-67.5 102.5,-67.5"/>
<text text-anchor="middle" x="147.5" y="-74.5" font-family="Helvetica,sans-Serif" font-size="10.00">fire::Conditions</text>
</a>
</g>
</g>
<!-- Node2&#45;&gt;Node1 -->
<g id="edge1" class="edge">
<title>Node2&#45;&gt;Node1</title>
<path fill="none" stroke="#9a32cd" stroke-dasharray="5,2" d="M92.9,-67.87C82.62,-63.83 73.05,-57.85 66.5,-49 60.29,-40.62 61.37,-28.11 63.1,-19.76"/>
<polygon fill="#9a32cd" stroke="#9a32cd" points="91.89,-71.22 102.48,-71.06 94.1,-64.58 91.89,-71.22"/>
<text text-anchor="middle" x="96" y="-41" font-family="Helvetica,sans-Serif" font-size="10.00"> conditions_</text>
</g>
<!-- Node3 -->
<g id="node3" class="node">
<title>Node3</title>
<g id="a_node3"><a xlink:href="classfire_1_1Process.html" target="_top" xlink:title=" ">
<polygon fill="none" stroke="black" points="308.5,-0.5 308.5,-19.5 384.5,-19.5 384.5,-0.5 308.5,-0.5"/>
<text text-anchor="middle" x="346.5" y="-7.5" font-family="Helvetica,sans-Serif" font-size="10.00">fire::Process</text>
</a>
</g>
</g>
<!-- Node2&#45;&gt;Node3 -->
<g id="edge5" class="edge">
<title>Node2&#45;&gt;Node3</title>
<path fill="none" stroke="#9a32cd" stroke-dasharray="5,2" d="M140.82,-57.39C139.61,-50.56 139.92,-43.23 144.5,-38 165.36,-14.17 255.81,-10.47 308.33,-10.39"/>
<polygon fill="#9a32cd" stroke="#9a32cd" points="137.54,-58.65 143.61,-67.34 144.28,-56.76 137.54,-58.65"/>
<text text-anchor="middle" x="174" y="-41" font-family="Helvetica,sans-Serif" font-size="10.00"> conditions_</text>
</g>
<!-- Node3&#45;&gt;Node2 -->
<g id="edge2" class="edge">
<title>Node3&#45;&gt;Node2</title>
<path fill="none" stroke="#9a32cd" stroke-dasharray="5,2" d="M298.27,-19.77C277.16,-24.24 252.3,-30.35 230.5,-38 219.81,-41.75 217.78,-44.23 207.5,-49 193.93,-55.3 178.53,-62.22 166.74,-67.48"/>
<polygon fill="#9a32cd" stroke="#9a32cd" points="299.2,-23.16 308.29,-17.72 297.79,-16.3 299.2,-23.16"/>
<text text-anchor="middle" x="253.5" y="-41" font-family="Helvetica,sans-Serif" font-size="10.00"> process_</text>
</g>
<!-- Node4 -->
<g id="node4" class="node">
<title>Node4</title>
<g id="a_node4"><a xlink:href="classfire_1_1h5_1_1Writer.html" target="_top" xlink:title="A HighFive::File specialized to fire&#39;s usecase.">
<polygon fill="none" stroke="black" points="252.5,-134.5 252.5,-153.5 338.5,-153.5 338.5,-134.5 252.5,-134.5"/>
<text text-anchor="middle" x="295.5" y="-141.5" font-family="Helvetica,sans-Serif" font-size="10.00">fire::h5::Writer</text>
</a>
</g>
</g>
<!-- Node4&#45;&gt;Node3 -->
<g id="edge3" class="edge">
<title>Node4&#45;&gt;Node3</title>
<path fill="none" stroke="#9a32cd" stroke-dasharray="5,2" d="M293.24,-124.08C292.11,-108.26 292.25,-85.4 299.5,-67 307.23,-47.4 324.69,-29.67 336.02,-19.63"/>
<polygon fill="#9a32cd" stroke="#9a32cd" points="289.77,-124.57 294.21,-134.19 296.74,-123.9 289.77,-124.57"/>
<text text-anchor="middle" x="330" y="-74.5" font-family="Helvetica,sans-Serif" font-size="10.00"> output_file_</text>
</g>
<!-- Node6 -->
<g id="node6" class="node">
<title>Node6</title>
<g id="a_node6"><a xlink:href="classfire_1_1Event.html" target="_top" xlink:title="Event class for interfacing with processors.">
<polygon fill="none" stroke="black" points="369.5,-67.5 369.5,-86.5 435.5,-86.5 435.5,-67.5 369.5,-67.5"/>
<text text-anchor="middle" x="402.5" y="-74.5" font-family="Helvetica,sans-Serif" font-size="10.00">fire::Event</text>
</a>
</g>
</g>
<!-- Node4&#45;&gt;Node6 -->
<g id="edge8" class="edge">
<title>Node4&#45;&gt;Node6</title>
<path fill="none" stroke="#9a32cd" stroke-dasharray="5,2" d="M311.59,-127.42C319.8,-120.01 330.21,-111.4 340.5,-105 352.37,-97.63 366.6,-91.27 378.43,-86.59"/>
<polygon fill="#9a32cd" stroke="#9a32cd" points="309.13,-124.93 304.2,-134.31 313.91,-130.05 309.13,-124.93"/>
<text text-anchor="middle" x="371" y="-108" font-family="Helvetica,sans-Serif" font-size="10.00"> output_file_</text>
</g>
<!-- Node5 -->
<g id="node5" class="node">
<title>Node5</title>
<g id="a_node5"><a xlink:href="classfire_1_1StorageControl.html" target="_top" xlink:title="Isolation of voting system deciding if events should be kept.">
<polygon fill="none" stroke="black" points="454,-67.5 454,-86.5 565,-86.5 565,-67.5 454,-67.5"/>
<text text-anchor="middle" x="509.5" y="-74.5" font-family="Helvetica,sans-Serif" font-size="10.00">fire::StorageControl</text>
</a>
</g>
</g>
<!-- Node5&#45;&gt;Node3 -->
<g id="edge4" class="edge">
<title>Node5&#45;&gt;Node3</title>
<path fill="none" stroke="#9a32cd" stroke-dasharray="5,2" d="M480.28,-63.27C462.74,-55.72 439.93,-46.09 419.5,-38 403.29,-31.58 384.88,-24.78 370.61,-19.61"/>
<polygon fill="#9a32cd" stroke="#9a32cd" points="479.37,-66.69 489.94,-67.44 482.15,-60.26 479.37,-66.69"/>
<text text-anchor="middle" x="487" y="-41" font-family="Helvetica,sans-Serif" font-size="10.00"> storage_control_</text>
</g>
<!-- Node6&#45;&gt;Node3 -->
<g id="edge6" class="edge">
<title>Node6&#45;&gt;Node3</title>
<path fill="none" stroke="#9a32cd" stroke-dasharray="5,2" d="M388.4,-59.63C377.45,-46.92 362.7,-29.8 353.93,-19.63"/>
<polygon fill="#9a32cd" stroke="#9a32cd" points="385.77,-61.94 394.95,-67.23 391.07,-57.37 385.77,-61.94"/>
<text text-anchor="middle" x="397" y="-41" font-family="Helvetica,sans-Serif" font-size="10.00"> event_</text>
</g>
<!-- Node7 -->
<g id="node7" class="node">
<title>Node7</title>
<g id="a_node7"><a xlink:href="classfire_1_1h5_1_1Reader.html" target="_top" xlink:title="A HighFive::File specialized to fire&#39;s usecase.">
<polygon fill="none" stroke="black" points="362,-134.5 362,-153.5 453,-153.5 453,-134.5 362,-134.5"/>
<text text-anchor="middle" x="407.5" y="-141.5" font-family="Helvetica,sans-Serif" font-size="10.00">fire::h5::Reader</text>
</a>
</g>
</g>
<!-- Node7&#45;&gt;Node6 -->
<g id="edge7" class="edge">
<title>Node7&#45;&gt;Node6</title>
<path fill="none" stroke="#9a32cd" stroke-dasharray="5,2" d="M406.04,-124.04C405.09,-111.67 403.89,-96.12 403.16,-86.63"/>
<polygon fill="#9a32cd" stroke="#9a32cd" points="402.57,-124.53 406.83,-134.23 409.55,-123.99 402.57,-124.53"/>
<text text-anchor="middle" x="432.5" y="-108" font-family="Helvetica,sans-Serif" font-size="10.00"> input_file_</text>
</g>
<!-- Node8 -->
<g id="node8" class="node">
<title>Node8</title>
<g id="a_node8"><a xlink:href="classfire_1_1RunHeader.html" target="_top" xlink:title="Container for run parameters.">
<polygon fill="none" stroke="black" points="583.5,-67.5 583.5,-86.5 675.5,-86.5 675.5,-67.5 583.5,-67.5"/>
<text text-anchor="middle" x="629.5" y="-74.5" font-family="Helvetica,sans-Serif" font-size="10.00">fire::RunHeader</text>
</a>
</g>
</g>
<!-- Node8&#45;&gt;Node3 -->
<g id="edge9" class="edge">
<title>Node8&#45;&gt;Node3</title>
<path fill="none" stroke="#9a32cd" stroke-dasharray="5,2" d="M602.33,-63.27C583.42,-54.9 557.4,-44.36 533.5,-38 482.94,-24.54 422.79,-17.37 384.63,-13.88"/>
<polygon fill="#9a32cd" stroke="#9a32cd" points="600.97,-66.5 611.53,-67.41 603.85,-60.11 600.97,-66.5"/>
<text text-anchor="middle" x="598.5" y="-41" font-family="Helvetica,sans-Serif" font-size="10.00"> run_header_</text>
</g>
<!-- Node9 -->
<g id="node9" class="node">
<title>Node9</title>
<g id="a_node9"><a xlink:href="classfire_1_1h5_1_1ParameterStorage.html" target="_top" xlink:title="Provides dynamic parameter storage by interfacing between a map to variants storing parameters and a ...">
<polygon fill="none" stroke="black" points="557.5,-134.5 557.5,-153.5 701.5,-153.5 701.5,-134.5 557.5,-134.5"/>
<text text-anchor="middle" x="629.5" y="-141.5" font-family="Helvetica,sans-Serif" font-size="10.00">fire::h5::ParameterStorage</text>
</a>
</g>
</g>
<!-- Node9&#45;&gt;Node8 -->
<g id="edge10" class="edge">
<title>Node9&#45;&gt;Node8</title>
<path fill="none" stroke="#9a32cd" stroke-dasharray="5,2" d="M629.5,-124.04C629.5,-111.67 629.5,-96.12 629.5,-86.63"/>
<polygon fill="#9a32cd" stroke="#9a32cd" points="626,-124.23 629.5,-134.23 633,-124.23 626,-124.23"/>
<text text-anchor="middle" x="662" y="-108" font-family="Helvetica,sans-Serif" font-size="10.00"> parameters_</text>
</g>
</g>
</svg>
