<?xml version="1.0" encoding="UTF-8" standalone="no"?>
<!DOCTYPE svg PUBLIC "-//W3C//DTD SVG 1.1//EN"
 "http://www.w3.org/Graphics/SVG/1.1/DTD/svg11.dtd">
<!-- Generated by graphviz version 2.43.0 (0)
 -->
<!-- Title: fire::RandomNumberSeedService Pages: 1 -->
<svg width="770pt" height="486pt"
 viewBox="0.00 0.00 769.50 486.00" xmlns="http://www.w3.org/2000/svg" xmlns:xlink="http://www.w3.org/1999/xlink">
<g id="graph0" class="graph" transform="scale(1 1) rotate(0) translate(4 482)">
<title>fire::RandomNumberSeedService</title>
<!-- Node1 -->
<g id="node1" class="node">
<title>Node1</title>
<g id="a_node1"><a xlink:title="System for consistent seeding of random number generators.">
<polygon fill="#bfbfbf" stroke="black" points="484.5,-0.5 484.5,-19.5 662.5,-19.5 662.5,-0.5 484.5,-0.5"/>
<text text-anchor="middle" x="573.5" y="-7.5" font-family="Helvetica,sans-Serif" font-size="10.00">fire::RandomNumberSeedService</text>
</a>
</g>
</g>
<!-- Node2 -->
<g id="node2" class="node">
<title>Node2</title>
<g id="a_node2"><a xlink:href="classfire_1_1ConditionsObject.html" target="_top" xlink:title="Base class for all conditions objects, very simple.">
<polygon fill="none" stroke="black" points="639.5,-231.5 639.5,-250.5 761.5,-250.5 761.5,-231.5 639.5,-231.5"/>
<text text-anchor="middle" x="700.5" y="-238.5" font-family="Helvetica,sans-Serif" font-size="10.00">fire::ConditionsObject</text>
</a>
</g>
</g>
<!-- Node2&#45;&gt;Node1 -->
<g id="edge1" class="edge">
<title>Node2&#45;&gt;Node1</title>
<path fill="none" stroke="midnightblue" d="M712.31,-222.7C720.71,-208.72 730.5,-188.19 730.5,-168.5 730.5,-168.5 730.5,-168.5 730.5,-66 730.5,-43.69 673.32,-28.28 627.97,-19.56"/>
<polygon fill="midnightblue" stroke="midnightblue" points="709.29,-220.93 706.86,-231.24 715.19,-224.7 709.29,-220.93"/>
</g>
<!-- Node3 -->
<g id="node3" class="node">
<title>Node3</title>
<g id="a_node3"><a target="_parent" xlink:href="http://en.cppreference.com/w/cpp/string/basic_string.html" xlink:title=" ">
<polygon fill="none" stroke="black" points="445,-369.5 445,-388.5 510,-388.5 510,-369.5 445,-369.5"/>
<text text-anchor="middle" x="477.5" y="-376.5" font-family="Helvetica,sans-Serif" font-size="10.00">std::string</text>
</a>
</g>
</g>
<!-- Node3&#45;&gt;Node1 -->
<g id="edge18" class="edge">
<title>Node3&#45;&gt;Node1</title>
<path fill="none" stroke="#9a32cd" stroke-dasharray="5,2" d="M505.57,-364.38C533.9,-348.44 573.5,-319.16 573.5,-280 573.5,-280 573.5,-280 573.5,-66 573.5,-49.58 573.5,-30.39 573.5,-19.57"/>
<polygon fill="#9a32cd" stroke="#9a32cd" points="503.62,-361.46 496.47,-369.27 506.93,-367.62 503.62,-361.46"/>
<text text-anchor="middle" x="644.5" y="-165" font-family="Helvetica,sans-Serif" font-size="10.00"> CONDITIONS_OBJECT_NAME</text>
</g>
<!-- Node3&#45;&gt;Node2 -->
<g id="edge2" class="edge">
<title>Node3&#45;&gt;Node2</title>
<path fill="none" stroke="#9a32cd" stroke-dasharray="5,2" d="M520.45,-372.83C541.61,-368.98 566.93,-362.34 587.5,-351 635.95,-324.28 678.62,-271.4 694.21,-250.65"/>
<polygon fill="#9a32cd" stroke="#9a32cd" points="519.72,-369.41 510.43,-374.51 520.87,-376.31 519.72,-369.41"/>
<text text-anchor="middle" x="661" y="-326.5" font-family="Helvetica,sans-Serif" font-size="10.00"> name_</text>
</g>
<!-- Node5 -->
<g id="node5" class="node">
<title>Node5</title>
<g id="a_node5"><a xlink:href="classfire_1_1ConditionsProvider.html" target="_top" xlink:title="Base class for all providers of conditions objects.">
<polygon fill="none" stroke="black" points="412,-57.5 412,-76.5 543,-76.5 543,-57.5 412,-57.5"/>
<text text-anchor="middle" x="477.5" y="-64.5" font-family="Helvetica,sans-Serif" font-size="10.00">fire::ConditionsProvider</text>
</a>
</g>
</g>
<!-- Node3&#45;&gt;Node5 -->
<g id="edge17" class="edge">
<title>Node3&#45;&gt;Node5</title>
<path fill="none" stroke="#9a32cd" stroke-dasharray="5,2" d="M477.5,-359.28C477.5,-339.55 477.5,-307.59 477.5,-280 477.5,-280 477.5,-280 477.5,-133 477.5,-112.91 477.5,-89.33 477.5,-76.83"/>
<polygon fill="#9a32cd" stroke="#9a32cd" points="474,-359.35 477.5,-369.35 481,-359.35 474,-359.35"/>
<text text-anchor="middle" x="511.5" y="-205" font-family="Helvetica,sans-Serif" font-size="10.00"> objectName_</text>
<text text-anchor="middle" x="511.5" y="-194" font-family="Helvetica,sans-Serif" font-size="10.00">tagname_</text>
</g>
<!-- Node11 -->
<g id="node11" class="node">
<title>Node11</title>
<g id="a_node11"><a xlink:href="classfire_1_1Event.html" target="_top" xlink:title="Event class for interfacing with processors.">
<polygon fill="none" stroke="black" points="121.5,-269.5 121.5,-288.5 187.5,-288.5 187.5,-269.5 121.5,-269.5"/>
<text text-anchor="middle" x="154.5" y="-276.5" font-family="Helvetica,sans-Serif" font-size="10.00">fire::Event</text>
</a>
</g>
</g>
<!-- Node3&#45;&gt;Node11 -->
<g id="edge13" class="edge">
<title>Node3&#45;&gt;Node11</title>
<path fill="none" stroke="#9a32cd" stroke-dasharray="5,2" d="M434.58,-374.65C396.81,-370.92 345.43,-363.67 329.5,-351 312.83,-337.74 327.33,-320.06 310.5,-307 269.97,-275.56 246.93,-298.38 196.5,-289 193.71,-288.48 190.83,-287.92 187.94,-287.34"/>
<polygon fill="#9a32cd" stroke="#9a32cd" points="434.55,-378.16 444.83,-375.61 435.2,-371.2 434.55,-378.16"/>
<text text-anchor="middle" x="345" y="-326.5" font-family="Helvetica,sans-Serif" font-size="10.00"> pass_</text>
</g>
<!-- Node13 -->
<g id="node13" class="node">
<title>Node13</title>
<g id="a_node13"><a xlink:href="classfire_1_1RunHeader.html" target="_top" xlink:title="Container for run parameters.">
<polygon fill="none" stroke="black" points="205.5,-269.5 205.5,-288.5 297.5,-288.5 297.5,-269.5 205.5,-269.5"/>
<text text-anchor="middle" x="251.5" y="-276.5" font-family="Helvetica,sans-Serif" font-size="10.00">fire::RunHeader</text>
</a>
</g>
</g>
<!-- Node3&#45;&gt;Node13 -->
<g id="edge15" class="edge">
<title>Node3&#45;&gt;Node13</title>
<path fill="none" stroke="#9a32cd" stroke-dasharray="5,2" d="M434.75,-372.39C418.55,-368.53 400.83,-362.01 387.5,-351 370.49,-336.95 381.91,-320.56 364.5,-307 358.81,-302.57 324.22,-294.66 294.79,-288.55"/>
<polygon fill="#9a32cd" stroke="#9a32cd" points="434.07,-375.83 444.58,-374.47 435.51,-368.98 434.07,-375.83"/>
<text text-anchor="middle" x="425.5" y="-343" font-family="Helvetica,sans-Serif" font-size="10.00"> NAME</text>
<text text-anchor="middle" x="425.5" y="-332" font-family="Helvetica,sans-Serif" font-size="10.00">description_</text>
<text text-anchor="middle" x="425.5" y="-321" font-family="Helvetica,sans-Serif" font-size="10.00">detectorName_</text>
<text text-anchor="middle" x="425.5" y="-310" font-family="Helvetica,sans-Serif" font-size="10.00">softwareTag_</text>
</g>
<!-- Node4 -->
<g id="node4" class="node">
<title>Node4</title>
<g id="a_node4"><a target="_parent" xlink:href="http://en.cppreference.com/w/cpp/string/basic_string.html" xlink:title=" ">
<polygon fill="none" stroke="black" points="425.5,-447.5 425.5,-477.5 529.5,-477.5 529.5,-447.5 425.5,-447.5"/>
<text text-anchor="start" x="433.5" y="-465.5" font-family="Helvetica,sans-Serif" font-size="10.00">std::basic_string&lt;</text>
<text text-anchor="middle" x="477.5" y="-454.5" font-family="Helvetica,sans-Serif" font-size="10.00"> char &gt;</text>
</a>
</g>
</g>
<!-- Node4&#45;&gt;Node3 -->
<g id="edge3" class="edge">
<title>Node4&#45;&gt;Node3</title>
<path fill="none" stroke="midnightblue" d="M477.5,-437.25C477.5,-420.78 477.5,-399.99 477.5,-388.54"/>
<polygon fill="midnightblue" stroke="midnightblue" points="474,-437.3 477.5,-447.3 481,-437.3 474,-437.3"/>
</g>
<!-- Node5&#45;&gt;Node1 -->
<g id="edge4" class="edge">
<title>Node5&#45;&gt;Node1</title>
<path fill="none" stroke="midnightblue" d="M501.25,-52.39C519.2,-42.11 543.29,-28.31 558.61,-19.53"/>
<polygon fill="midnightblue" stroke="midnightblue" points="499.44,-49.4 492.5,-57.41 502.92,-55.47 499.44,-49.4"/>
</g>
<!-- Node6 -->
<g id="node6" class="node">
<title>Node6</title>
<g id="a_node6"><a xlink:href="classfire_1_1Conditions.html" target="_top" xlink:title="Container and cache for conditions and conditions providers.">
<polygon fill="none" stroke="black" points="304.5,-124.5 304.5,-143.5 394.5,-143.5 394.5,-124.5 304.5,-124.5"/>
<text text-anchor="middle" x="349.5" y="-131.5" font-family="Helvetica,sans-Serif" font-size="10.00">fire::Conditions</text>
</a>
</g>
</g>
<!-- Node6&#45;&gt;Node5 -->
<g id="edge5" class="edge">
<title>Node6&#45;&gt;Node5</title>
<path fill="none" stroke="#9a32cd" stroke-dasharray="5,2" d="M368.55,-118.07C378.81,-110.5 391.92,-101.54 404.5,-95 418.77,-87.58 435.54,-81.23 449.41,-76.55"/>
<polygon fill="#9a32cd" stroke="#9a32cd" points="366.22,-115.45 360.36,-124.28 370.44,-121.03 366.22,-115.45"/>
<text text-anchor="middle" x="434" y="-98" font-family="Helvetica,sans-Serif" font-size="10.00"> conditions_</text>
</g>
<!-- Node7 -->
<g id="node7" class="node">
<title>Node7</title>
<g id="a_node7"><a xlink:href="classfire_1_1Process.html" target="_top" xlink:title="The central object managing the data processing.">
<polygon fill="none" stroke="black" points="213.5,-192.5 213.5,-211.5 289.5,-211.5 289.5,-192.5 213.5,-192.5"/>
<text text-anchor="middle" x="251.5" y="-199.5" font-family="Helvetica,sans-Serif" font-size="10.00">fire::Process</text>
</a>
</g>
</g>
<!-- Node7&#45;&gt;Node6 -->
<g id="edge6" class="edge">
<title>Node7&#45;&gt;Node6</title>
<path fill="none" stroke="#9a32cd" stroke-dasharray="5,2" d="M272.83,-186.63C292.31,-173.51 320.47,-154.55 336.69,-143.63"/>
<polygon fill="#9a32cd" stroke="#9a32cd" points="270.65,-183.88 264.31,-192.37 274.56,-189.69 270.65,-183.88"/>
<text text-anchor="middle" x="332.5" y="-165" font-family="Helvetica,sans-Serif" font-size="10.00"> process_</text>
</g>
<!-- Node8 -->
<g id="node8" class="node">
<title>Node8</title>
<g id="a_node8"><a xlink:href="classfire_1_1io_1_1Writer.html" target="_top" xlink:title="Write the fire DataSets into a deterministic structure in the output HDF5 data file.">
<polygon fill="none" stroke="black" points="0,-369.5 0,-388.5 83,-388.5 83,-369.5 0,-369.5"/>
<text text-anchor="middle" x="41.5" y="-376.5" font-family="Helvetica,sans-Serif" font-size="10.00">fire::io::Writer</text>
</a>
</g>
</g>
<!-- Node8&#45;&gt;Node7 -->
<g id="edge7" class="edge">
<title>Node8&#45;&gt;Node7</title>
<path fill="none" stroke="#9a32cd" stroke-dasharray="5,2" d="M37.5,-359.06C33.66,-335.34 31.07,-294.69 51.5,-269 90.53,-219.92 167.02,-206.98 213.27,-203.78"/>
<polygon fill="#9a32cd" stroke="#9a32cd" points="34.12,-360.02 39.39,-369.21 41,-358.74 34.12,-360.02"/>
<text text-anchor="middle" x="82" y="-276.5" font-family="Helvetica,sans-Serif" font-size="10.00"> output_file_</text>
</g>
<!-- Node8&#45;&gt;Node11 -->
<g id="edge12" class="edge">
<title>Node8&#45;&gt;Node11</title>
<path fill="none" stroke="#9a32cd" stroke-dasharray="5,2" d="M48.69,-360.04C55.87,-344.15 68.32,-321.31 85.5,-307 95.78,-298.44 109.09,-292.38 121.28,-288.2"/>
<polygon fill="#9a32cd" stroke="#9a32cd" points="45.43,-358.75 44.73,-369.33 51.87,-361.5 45.43,-358.75"/>
<text text-anchor="middle" x="116" y="-326.5" font-family="Helvetica,sans-Serif" font-size="10.00"> output_file_</text>
</g>
<!-- Node9 -->
<g id="node9" class="node">
<title>Node9</title>
<g id="a_node9"><a target="_parent" xlink:href="http://en.cppreference.com/w/cpp/types/size_t.html" xlink:title=" ">
<polygon fill="none" stroke="black" points="8.5,-453 8.5,-472 74.5,-472 74.5,-453 8.5,-453"/>
<text text-anchor="middle" x="41.5" y="-460" font-family="Helvetica,sans-Serif" font-size="10.00">std::size_t</text>
</a>
</g>
</g>
<!-- Node9&#45;&gt;Node8 -->
<g id="edge8" class="edge">
<title>Node9&#45;&gt;Node8</title>
<path fill="none" stroke="#9a32cd" stroke-dasharray="5,2" d="M41.5,-442.38C41.5,-425.4 41.5,-401.37 41.5,-388.66"/>
<polygon fill="#9a32cd" stroke="#9a32cd" points="38,-442.78 41.5,-452.78 45,-442.78 38,-442.78"/>
<text text-anchor="middle" x="84" y="-421" font-family="Helvetica,sans-Serif" font-size="10.00"> entries_</text>
<text text-anchor="middle" x="84" y="-410" font-family="Helvetica,sans-Serif" font-size="10.00">rows_per_chunk_</text>
</g>
<!-- Node10 -->
<g id="node10" class="node">
<title>Node10</title>
<g id="a_node10"><a xlink:href="classfire_1_1StorageControl.html" target="_top" xlink:title="Isolation of voting system deciding if events should be kept.">
<polygon fill="none" stroke="black" points="316,-269.5 316,-288.5 427,-288.5 427,-269.5 316,-269.5"/>
<text text-anchor="middle" x="371.5" y="-276.5" font-family="Helvetica,sans-Serif" font-size="10.00">fire::StorageControl</text>
</a>
</g>
</g>
<!-- Node10&#45;&gt;Node7 -->
<g id="edge9" class="edge">
<title>Node10&#45;&gt;Node7</title>
<path fill="none" stroke="#9a32cd" stroke-dasharray="5,2" d="M356.75,-262.11C346.92,-252.2 333.31,-239.71 319.5,-231 306.65,-222.89 291.05,-216.27 278.04,-211.51"/>
<polygon fill="#9a32cd" stroke="#9a32cd" points="354.3,-264.61 363.76,-269.39 359.35,-259.76 354.3,-264.61"/>
<text text-anchor="middle" x="388" y="-238.5" font-family="Helvetica,sans-Serif" font-size="10.00"> storage_control_</text>
</g>
<!-- Node11&#45;&gt;Node7 -->
<g id="edge10" class="edge">
<title>Node11&#45;&gt;Node7</title>
<path fill="none" stroke="#9a32cd" stroke-dasharray="5,2" d="M171.72,-262.79C182.62,-253.35 197.12,-241.14 210.5,-231 219.57,-224.13 230.18,-216.9 238.34,-211.51"/>
<polygon fill="#9a32cd" stroke="#9a32cd" points="169.4,-260.16 164.17,-269.38 174.01,-265.44 169.4,-260.16"/>
<text text-anchor="middle" x="229" y="-238.5" font-family="Helvetica,sans-Serif" font-size="10.00"> event_</text>
</g>
<!-- Node12 -->
<g id="node12" class="node">
<title>Node12</title>
<g id="a_node12"><a xlink:href="classfire_1_1io_1_1Reader.html" target="_top" xlink:title="Prototype for reading files within fire.">
<polygon fill="none" stroke="black" points="104.5,-369.5 104.5,-388.5 192.5,-388.5 192.5,-369.5 104.5,-369.5"/>
<text text-anchor="middle" x="148.5" y="-376.5" font-family="Helvetica,sans-Serif" font-size="10.00">fire::io::Reader</text>
</a>
</g>
</g>
<!-- Node12&#45;&gt;Node11 -->
<g id="edge11" class="edge">
<title>Node12&#45;&gt;Node11</title>
<path fill="none" stroke="#9a32cd" stroke-dasharray="5,2" d="M149.65,-359.22C150.95,-337.95 153.02,-304.22 153.98,-288.54"/>
<polygon fill="#9a32cd" stroke="#9a32cd" points="146.15,-359.11 149.03,-369.3 153.14,-359.54 146.15,-359.11"/>
<text text-anchor="middle" x="180.5" y="-326.5" font-family="Helvetica,sans-Serif" font-size="10.00"> input_file_</text>
</g>
<!-- Node13&#45;&gt;Node7 -->
<g id="edge14" class="edge">
<title>Node13&#45;&gt;Node7</title>
<path fill="none" stroke="#9a32cd" stroke-dasharray="5,2" d="M251.5,-259.02C251.5,-243.74 251.5,-222.98 251.5,-211.5"/>
<polygon fill="#9a32cd" stroke="#9a32cd" points="248,-259.4 251.5,-269.4 255,-259.4 248,-259.4"/>
<text text-anchor="middle" x="283.5" y="-238.5" font-family="Helvetica,sans-Serif" font-size="10.00"> run_header_</text>
</g>
<!-- Node14 -->
<g id="node14" class="node">
<title>Node14</title>
<g id="a_node14"><a xlink:href="classfire_1_1io_1_1ParameterStorage.html" target="_top" xlink:title="Provides dynamic parameter storage by interfacing between a map to variants storing parameters and a ...">
<polygon fill="none" stroke="black" points="211,-369.5 211,-388.5 352,-388.5 352,-369.5 211,-369.5"/>
<text text-anchor="middle" x="281.5" y="-376.5" font-family="Helvetica,sans-Serif" font-size="10.00">fire::io::ParameterStorage</text>
</a>
</g>
</g>
<!-- Node14&#45;&gt;Node13 -->
<g id="edge16" class="edge">
<title>Node14&#45;&gt;Node13</title>
<path fill="none" stroke="#9a32cd" stroke-dasharray="5,2" d="M255.66,-363.43C251.56,-359.91 247.88,-355.77 245.5,-351 235.32,-330.64 242.87,-302.87 247.93,-288.86"/>
<polygon fill="#9a32cd" stroke="#9a32cd" points="253.72,-366.34 263.86,-369.41 257.84,-360.69 253.72,-366.34"/>
<text text-anchor="middle" x="278" y="-326.5" font-family="Helvetica,sans-Serif" font-size="10.00"> parameters_</text>
</g>
</g>
</svg>
