<?xml version="1.0" encoding="UTF-8" standalone="no"?>
<!DOCTYPE svg PUBLIC "-//W3C//DTD SVG 1.1//EN"
 "http://www.w3.org/Graphics/SVG/1.1/DTD/svg11.dtd">
<!-- Generated by graphviz version 2.43.0 (0)
 -->
<!-- Title: fire::h5::BaseData Pages: 1 -->
<svg width="534pt" height="247pt"
 viewBox="0.00 0.00 534.00 246.50" xmlns="http://www.w3.org/2000/svg" xmlns:xlink="http://www.w3.org/1999/xlink">
<g id="graph0" class="graph" transform="scale(1 1) rotate(0) translate(4 242.5)">
<title>fire::h5::BaseData</title>
<!-- Node1 -->
<g id="node1" class="node">
<title>Node1</title>
<g id="a_node1"><a xlink:title="Empty data base allowing recursion.">
<polygon fill="#bfbfbf" stroke="black" points="0,-104 0,-123 104,-123 104,-104 0,-104"/>
<text text-anchor="middle" x="52" y="-111" font-family="Helvetica,sans-Serif" font-size="10.00">fire::h5::BaseData</text>
</a>
</g>
</g>
<!-- Node2 -->
<g id="node2" class="node">
<title>Node2</title>
<g id="a_node2"><a xlink:href="classfire_1_1h5_1_1AbstractData.html" target="_top" xlink:title=" ">
<polygon fill="none" stroke="black" points="174,-199.5 174,-229.5 294,-229.5 294,-199.5 174,-199.5"/>
<text text-anchor="start" x="182" y="-217.5" font-family="Helvetica,sans-Serif" font-size="10.00">fire::h5::AbstractData</text>
<text text-anchor="middle" x="234" y="-206.5" font-family="Helvetica,sans-Serif" font-size="10.00">&lt; AtomicType &gt;</text>
</a>
</g>
</g>
<!-- Node1&#45;&gt;Node2 -->
<g id="edge1" class="edge">
<title>Node1&#45;&gt;Node2</title>
<path fill="none" stroke="midnightblue" d="M68.79,-130.62C85.11,-147.37 112.09,-172.48 140,-187.5 150.51,-193.16 162.35,-197.75 173.96,-201.44"/>
<polygon fill="midnightblue" stroke="midnightblue" points="71.1,-127.98 61.67,-123.15 66.04,-132.81 71.1,-127.98"/>
</g>
<!-- Node4 -->
<g id="node4" class="node">
<title>Node4</title>
<g id="a_node4"><a xlink:href="classfire_1_1h5_1_1AbstractData.html" target="_top" xlink:title=" ">
<polygon fill="none" stroke="black" points="170.5,-147.5 170.5,-177.5 297.5,-177.5 297.5,-147.5 170.5,-147.5"/>
<text text-anchor="start" x="178.5" y="-165.5" font-family="Helvetica,sans-Serif" font-size="10.00">fire::h5::AbstractData</text>
<text text-anchor="middle" x="234" y="-154.5" font-family="Helvetica,sans-Serif" font-size="10.00">&lt; ParameterStorage &gt;</text>
</a>
</g>
</g>
<!-- Node1&#45;&gt;Node4 -->
<g id="edge3" class="edge">
<title>Node1&#45;&gt;Node4</title>
<path fill="none" stroke="midnightblue" d="M95.52,-125.97C109.65,-130.05 125.48,-134.54 140,-138.5 150.78,-141.44 162.29,-144.48 173.4,-147.38"/>
<polygon fill="midnightblue" stroke="midnightblue" points="96.16,-122.51 85.58,-123.09 94.21,-129.23 96.16,-122.51"/>
</g>
<!-- Node6 -->
<g id="node6" class="node">
<title>Node6</title>
<g id="a_node6"><a xlink:href="classfire_1_1h5_1_1AbstractData.html" target="_top" xlink:title=" ">
<polygon fill="none" stroke="black" points="140,-98.5 140,-128.5 328,-128.5 328,-98.5 140,-98.5"/>
<text text-anchor="start" x="148" y="-116.5" font-family="Helvetica,sans-Serif" font-size="10.00">fire::h5::AbstractData</text>
<text text-anchor="middle" x="234" y="-105.5" font-family="Helvetica,sans-Serif" font-size="10.00">&lt; std::map&lt; KeyType, ValType &gt; &gt;</text>
</a>
</g>
</g>
<!-- Node1&#45;&gt;Node6 -->
<g id="edge5" class="edge">
<title>Node1&#45;&gt;Node6</title>
<path fill="none" stroke="midnightblue" d="M114.34,-113.5C122.59,-113.5 131.2,-113.5 139.85,-113.5"/>
<polygon fill="midnightblue" stroke="midnightblue" points="114.1,-110 104.1,-113.5 114.1,-117 114.1,-110"/>
</g>
<!-- Node8 -->
<g id="node8" class="node">
<title>Node8</title>
<g id="a_node8"><a xlink:href="classfire_1_1h5_1_1AbstractData.html" target="_top" xlink:title=" ">
<polygon fill="none" stroke="black" points="147,-49.5 147,-79.5 321,-79.5 321,-49.5 147,-49.5"/>
<text text-anchor="start" x="155" y="-67.5" font-family="Helvetica,sans-Serif" font-size="10.00">fire::h5::AbstractData</text>
<text text-anchor="middle" x="234" y="-56.5" font-family="Helvetica,sans-Serif" font-size="10.00">&lt; std::vector&lt; ContentType &gt; &gt;</text>
</a>
</g>
</g>
<!-- Node1&#45;&gt;Node8 -->
<g id="edge7" class="edge">
<title>Node1&#45;&gt;Node8</title>
<path fill="none" stroke="midnightblue" d="M97,-101.3C110.77,-97.5 126.01,-93.31 140,-89.5 151.94,-86.25 164.74,-82.79 176.92,-79.51"/>
<polygon fill="midnightblue" stroke="midnightblue" points="95.99,-97.95 87.28,-103.99 97.85,-104.7 95.99,-97.95"/>
</g>
<!-- Node10 -->
<g id="node10" class="node">
<title>Node10</title>
<g id="a_node10"><a xlink:href="classfire_1_1h5_1_1AbstractData.html" target="_top" xlink:title="Type&#45;specific base class to hold common data methods.">
<polygon fill="none" stroke="black" points="174,-0.5 174,-30.5 294,-30.5 294,-0.5 174,-0.5"/>
<text text-anchor="start" x="182" y="-18.5" font-family="Helvetica,sans-Serif" font-size="10.00">fire::h5::AbstractData</text>
<text text-anchor="middle" x="234" y="-7.5" font-family="Helvetica,sans-Serif" font-size="10.00">&lt; DataType &gt;</text>
</a>
</g>
</g>
<!-- Node1&#45;&gt;Node10 -->
<g id="edge9" class="edge">
<title>Node1&#45;&gt;Node10</title>
<path fill="none" stroke="midnightblue" d="M68.43,-96.47C84.66,-79.59 111.72,-54.18 140,-39.5 150.51,-34.05 162.34,-29.77 173.96,-26.44"/>
<polygon fill="midnightblue" stroke="midnightblue" points="65.67,-94.3 61.38,-103.99 70.77,-99.09 65.67,-94.3"/>
</g>
<!-- Node3 -->
<g id="node3" class="node">
<title>Node3</title>
<g id="a_node3"><a xlink:href="classfire_1_1h5_1_1Data_3_01AtomicType_00_01std_1_1enable__if__t_3_01is__atomic__v_3_01AtomicType_01_4_01_4_01_4.html" target="_top" xlink:title="Data wrapper for atomic types.">
<polygon fill="none" stroke="black" points="368.5,-197 368.5,-238 521.5,-238 521.5,-197 368.5,-197"/>
<text text-anchor="start" x="376.5" y="-226" font-family="Helvetica,sans-Serif" font-size="10.00">fire::h5::Data&lt; AtomicType,</text>
<text text-anchor="start" x="376.5" y="-215" font-family="Helvetica,sans-Serif" font-size="10.00"> std::enable_if_t&lt; is_atomic</text>
<text text-anchor="middle" x="445" y="-204" font-family="Helvetica,sans-Serif" font-size="10.00">_v&lt; AtomicType &gt; &gt; &gt;</text>
</a>
</g>
</g>
<!-- Node2&#45;&gt;Node3 -->
<g id="edge2" class="edge">
<title>Node2&#45;&gt;Node3</title>
<path fill="none" stroke="midnightblue" d="M304.26,-215.49C324.79,-215.79 347.36,-216.11 368.27,-216.41"/>
<polygon fill="midnightblue" stroke="midnightblue" points="304.1,-211.99 294.05,-215.35 304,-218.99 304.1,-211.99"/>
</g>
<!-- Node5 -->
<g id="node5" class="node">
<title>Node5</title>
<g id="a_node5"><a xlink:href="classfire_1_1h5_1_1Data_3_01ParameterStorage_01_4.html" target="_top" xlink:title="h5::Data specialization for ParameterStorage">
<polygon fill="none" stroke="black" points="374.5,-147.5 374.5,-177.5 515.5,-177.5 515.5,-147.5 374.5,-147.5"/>
<text text-anchor="start" x="382.5" y="-165.5" font-family="Helvetica,sans-Serif" font-size="10.00">fire::h5::Data&lt; Parameter</text>
<text text-anchor="middle" x="445" y="-154.5" font-family="Helvetica,sans-Serif" font-size="10.00">Storage &gt;</text>
</a>
</g>
</g>
<!-- Node4&#45;&gt;Node5 -->
<g id="edge4" class="edge">
<title>Node4&#45;&gt;Node5</title>
<path fill="none" stroke="midnightblue" d="M307.8,-162.5C329.4,-162.5 353,-162.5 374.39,-162.5"/>
<polygon fill="midnightblue" stroke="midnightblue" points="307.71,-159 297.71,-162.5 307.71,-166 307.71,-159"/>
</g>
<!-- Node7 -->
<g id="node7" class="node">
<title>Node7</title>
<g id="a_node7"><a xlink:href="classfire_1_1h5_1_1Data_3_01std_1_1map_3_01KeyType_00_01ValType_01_4_01_4.html" target="_top" xlink:title="Our wrapper around std::map.">
<polygon fill="none" stroke="black" points="364,-98.5 364,-128.5 526,-128.5 526,-98.5 364,-98.5"/>
<text text-anchor="start" x="372" y="-116.5" font-family="Helvetica,sans-Serif" font-size="10.00">fire::h5::Data&lt; std</text>
<text text-anchor="middle" x="445" y="-105.5" font-family="Helvetica,sans-Serif" font-size="10.00">::map&lt; KeyType, ValType &gt; &gt;</text>
</a>
</g>
</g>
<!-- Node6&#45;&gt;Node7 -->
<g id="edge6" class="edge">
<title>Node6&#45;&gt;Node7</title>
<path fill="none" stroke="midnightblue" d="M338.24,-113.5C346.81,-113.5 355.39,-113.5 363.76,-113.5"/>
<polygon fill="midnightblue" stroke="midnightblue" points="338.19,-110 328.19,-113.5 338.19,-117 338.19,-110"/>
</g>
<!-- Node9 -->
<g id="node9" class="node">
<title>Node9</title>
<g id="a_node9"><a xlink:href="classfire_1_1h5_1_1Data_3_01std_1_1vector_3_01ContentType_01_4_01_4.html" target="_top" xlink:title="Our wrapper around std::vector.">
<polygon fill="none" stroke="black" points="371,-49.5 371,-79.5 519,-79.5 519,-49.5 371,-49.5"/>
<text text-anchor="start" x="379" y="-67.5" font-family="Helvetica,sans-Serif" font-size="10.00">fire::h5::Data&lt; std</text>
<text text-anchor="middle" x="445" y="-56.5" font-family="Helvetica,sans-Serif" font-size="10.00">::vector&lt; ContentType &gt; &gt;</text>
</a>
</g>
</g>
<!-- Node8&#45;&gt;Node9 -->
<g id="edge8" class="edge">
<title>Node8&#45;&gt;Node9</title>
<path fill="none" stroke="midnightblue" d="M331.35,-64.5C344.67,-64.5 358.17,-64.5 370.97,-64.5"/>
<polygon fill="midnightblue" stroke="midnightblue" points="331.21,-61 321.21,-64.5 331.21,-68 331.21,-61"/>
</g>
<!-- Node11 -->
<g id="node11" class="node">
<title>Node11</title>
<g id="a_node11"><a xlink:href="classfire_1_1h5_1_1Data.html" target="_top" xlink:title="General data set.">
<polygon fill="none" stroke="black" points="375,-0.5 375,-30.5 515,-30.5 515,-0.5 375,-0.5"/>
<text text-anchor="start" x="383" y="-18.5" font-family="Helvetica,sans-Serif" font-size="10.00">fire::h5::Data&lt; DataType,</text>
<text text-anchor="middle" x="445" y="-7.5" font-family="Helvetica,sans-Serif" font-size="10.00"> Enable &gt;</text>
</a>
</g>
</g>
<!-- Node10&#45;&gt;Node11 -->
<g id="edge10" class="edge">
<title>Node10&#45;&gt;Node11</title>
<path fill="none" stroke="midnightblue" d="M304.27,-15.5C326.93,-15.5 352.09,-15.5 374.74,-15.5"/>
<polygon fill="midnightblue" stroke="midnightblue" points="304.05,-12 294.05,-15.5 304.05,-19 304.05,-12"/>
</g>
</g>
</svg>
