<?xml version="1.0" encoding="UTF-8" standalone="no"?>
<!DOCTYPE svg PUBLIC "-//W3C//DTD SVG 1.1//EN"
 "http://www.w3.org/Graphics/SVG/1.1/DTD/svg11.dtd">
<!-- Generated by graphviz version 2.43.0 (0)
 -->
<!-- Title: fire::Conditions Pages: 1 -->
<svg width="576pt" height="162pt"
 viewBox="0.00 0.00 576.00 162.00" xmlns="http://www.w3.org/2000/svg" xmlns:xlink="http://www.w3.org/1999/xlink">
<g id="graph0" class="graph" transform="scale(1 1) rotate(0) translate(4 158)">
<title>fire::Conditions</title>
<!-- Node1 -->
<g id="node1" class="node">
<title>Node1</title>
<g id="a_node1"><a xlink:title="Container and cache for conditions and conditions providers.">
<polygon fill="#bfbfbf" stroke="black" points="0,-67.5 0,-86.5 90,-86.5 90,-67.5 0,-67.5"/>
<text text-anchor="middle" x="45" y="-74.5" font-family="Helvetica,sans-Serif" font-size="10.00">fire::Conditions</text>
</a>
</g>
</g>
<!-- Node2 -->
<g id="node2" class="node">
<title>Node2</title>
<g id="a_node2"><a xlink:href="classfire_1_1Process.html" target="_top" xlink:title=" ">
<polygon fill="none" stroke="black" points="155,-0.5 155,-19.5 231,-19.5 231,-0.5 155,-0.5"/>
<text text-anchor="middle" x="193" y="-7.5" font-family="Helvetica,sans-Serif" font-size="10.00">fire::Process</text>
</a>
</g>
</g>
<!-- Node1&#45;&gt;Node2 -->
<g id="edge4" class="edge">
<title>Node1&#45;&gt;Node2</title>
<path fill="none" stroke="#9a32cd" stroke-dasharray="5,2" d="M22.74,-60.8C15.05,-53.72 9.75,-45.27 16,-38 33.52,-17.6 108.19,-12.44 154.77,-11.24"/>
<polygon fill="#9a32cd" stroke="#9a32cd" points="20.9,-63.81 30.89,-67.33 25.27,-58.34 20.9,-63.81"/>
<text text-anchor="middle" x="45.5" y="-41" font-family="Helvetica,sans-Serif" font-size="10.00"> conditions_</text>
</g>
<!-- Node2&#45;&gt;Node1 -->
<g id="edge1" class="edge">
<title>Node2&#45;&gt;Node1</title>
<path fill="none" stroke="#9a32cd" stroke-dasharray="5,2" d="M144.88,-20.94C129.18,-25.12 111.94,-30.73 97,-38 80.91,-45.82 64.62,-58.71 54.67,-67.28"/>
<polygon fill="#9a32cd" stroke="#9a32cd" points="146.1,-24.24 154.94,-18.4 144.39,-17.46 146.1,-24.24"/>
<text text-anchor="middle" x="120" y="-41" font-family="Helvetica,sans-Serif" font-size="10.00"> process_</text>
</g>
<!-- Node3 -->
<g id="node3" class="node">
<title>Node3</title>
<g id="a_node3"><a xlink:href="classfire_1_1h5_1_1Writer.html" target="_top" xlink:title="A HighFive::File specialized to fire&#39;s usecase.">
<polygon fill="none" stroke="black" points="119,-134.5 119,-153.5 205,-153.5 205,-134.5 119,-134.5"/>
<text text-anchor="middle" x="162" y="-141.5" font-family="Helvetica,sans-Serif" font-size="10.00">fire::h5::Writer</text>
</a>
</g>
</g>
<!-- Node3&#45;&gt;Node2 -->
<g id="edge2" class="edge">
<title>Node3&#45;&gt;Node2</title>
<path fill="none" stroke="#9a32cd" stroke-dasharray="5,2" d="M160.94,-124.02C160.56,-108.45 161.14,-85.97 166,-67 170.56,-49.23 180.97,-30.36 187.45,-19.7"/>
<polygon fill="#9a32cd" stroke="#9a32cd" points="157.46,-124.55 161.36,-134.4 164.46,-124.27 157.46,-124.55"/>
<text text-anchor="middle" x="196.5" y="-74.5" font-family="Helvetica,sans-Serif" font-size="10.00"> output_file_</text>
</g>
<!-- Node5 -->
<g id="node5" class="node">
<title>Node5</title>
<g id="a_node5"><a xlink:href="classfire_1_1Event.html" target="_top" xlink:title="Event class for interfacing with processors.">
<polygon fill="none" stroke="black" points="236,-67.5 236,-86.5 302,-86.5 302,-67.5 236,-67.5"/>
<text text-anchor="middle" x="269" y="-74.5" font-family="Helvetica,sans-Serif" font-size="10.00">fire::Event</text>
</a>
</g>
</g>
<!-- Node3&#45;&gt;Node5 -->
<g id="edge7" class="edge">
<title>Node3&#45;&gt;Node5</title>
<path fill="none" stroke="#9a32cd" stroke-dasharray="5,2" d="M178.09,-127.42C186.3,-120.01 196.71,-111.4 207,-105 218.87,-97.63 233.1,-91.27 244.93,-86.59"/>
<polygon fill="#9a32cd" stroke="#9a32cd" points="175.63,-124.93 170.7,-134.31 180.41,-130.05 175.63,-124.93"/>
<text text-anchor="middle" x="237.5" y="-108" font-family="Helvetica,sans-Serif" font-size="10.00"> output_file_</text>
</g>
<!-- Node4 -->
<g id="node4" class="node">
<title>Node4</title>
<g id="a_node4"><a xlink:href="classfire_1_1StorageControl.html" target="_top" xlink:title="Isolation of voting system deciding if events should be kept.">
<polygon fill="none" stroke="black" points="320.5,-67.5 320.5,-86.5 431.5,-86.5 431.5,-67.5 320.5,-67.5"/>
<text text-anchor="middle" x="376" y="-74.5" font-family="Helvetica,sans-Serif" font-size="10.00">fire::StorageControl</text>
</a>
</g>
</g>
<!-- Node4&#45;&gt;Node2 -->
<g id="edge3" class="edge">
<title>Node4&#45;&gt;Node2</title>
<path fill="none" stroke="#9a32cd" stroke-dasharray="5,2" d="M344.95,-63.57C325.52,-55.93 299.92,-46.08 277,-38 258.51,-31.48 237.51,-24.73 221.13,-19.61"/>
<polygon fill="#9a32cd" stroke="#9a32cd" points="343.91,-66.93 354.5,-67.35 346.49,-60.42 343.91,-66.93"/>
<text text-anchor="middle" x="350.5" y="-41" font-family="Helvetica,sans-Serif" font-size="10.00"> storage_control_</text>
</g>
<!-- Node5&#45;&gt;Node2 -->
<g id="edge5" class="edge">
<title>Node5&#45;&gt;Node2</title>
<path fill="none" stroke="#9a32cd" stroke-dasharray="5,2" d="M251.13,-60.71C236.15,-47.91 215.32,-30.09 203.09,-19.63"/>
<polygon fill="#9a32cd" stroke="#9a32cd" points="248.88,-63.39 258.75,-67.23 253.43,-58.07 248.88,-63.39"/>
<text text-anchor="middle" x="254.5" y="-41" font-family="Helvetica,sans-Serif" font-size="10.00"> event_</text>
</g>
<!-- Node6 -->
<g id="node6" class="node">
<title>Node6</title>
<g id="a_node6"><a xlink:href="classfire_1_1h5_1_1Reader.html" target="_top" xlink:title="A HighFive::File specialized to fire&#39;s usecase.">
<polygon fill="none" stroke="black" points="228.5,-134.5 228.5,-153.5 319.5,-153.5 319.5,-134.5 228.5,-134.5"/>
<text text-anchor="middle" x="274" y="-141.5" font-family="Helvetica,sans-Serif" font-size="10.00">fire::h5::Reader</text>
</a>
</g>
</g>
<!-- Node6&#45;&gt;Node5 -->
<g id="edge6" class="edge">
<title>Node6&#45;&gt;Node5</title>
<path fill="none" stroke="#9a32cd" stroke-dasharray="5,2" d="M272.54,-124.04C271.59,-111.67 270.39,-96.12 269.66,-86.63"/>
<polygon fill="#9a32cd" stroke="#9a32cd" points="269.07,-124.53 273.33,-134.23 276.05,-123.99 269.07,-124.53"/>
<text text-anchor="middle" x="299" y="-108" font-family="Helvetica,sans-Serif" font-size="10.00"> input_file_</text>
</g>
<!-- Node7 -->
<g id="node7" class="node">
<title>Node7</title>
<g id="a_node7"><a xlink:href="classfire_1_1RunHeader.html" target="_top" xlink:title="Container for run parameters.">
<polygon fill="none" stroke="black" points="450,-67.5 450,-86.5 542,-86.5 542,-67.5 450,-67.5"/>
<text text-anchor="middle" x="496" y="-74.5" font-family="Helvetica,sans-Serif" font-size="10.00">fire::RunHeader</text>
</a>
</g>
</g>
<!-- Node7&#45;&gt;Node2 -->
<g id="edge8" class="edge">
<title>Node7&#45;&gt;Node2</title>
<path fill="none" stroke="#9a32cd" stroke-dasharray="5,2" d="M468.23,-63.32C448.69,-54.9 421.73,-44.29 397,-38 340.22,-23.56 272.47,-16.54 231.1,-13.36"/>
<polygon fill="#9a32cd" stroke="#9a32cd" points="466.89,-66.55 477.45,-67.37 469.7,-60.14 466.89,-66.55"/>
<text text-anchor="middle" x="463" y="-41" font-family="Helvetica,sans-Serif" font-size="10.00"> run_header_</text>
</g>
<!-- Node8 -->
<g id="node8" class="node">
<title>Node8</title>
<g id="a_node8"><a xlink:href="classfire_1_1h5_1_1ParameterStorage.html" target="_top" xlink:title="Provides dynamic parameter storage by interfacing between a map to variants storing parameters and a ...">
<polygon fill="none" stroke="black" points="424,-134.5 424,-153.5 568,-153.5 568,-134.5 424,-134.5"/>
<text text-anchor="middle" x="496" y="-141.5" font-family="Helvetica,sans-Serif" font-size="10.00">fire::h5::ParameterStorage</text>
</a>
</g>
</g>
<!-- Node8&#45;&gt;Node7 -->
<g id="edge9" class="edge">
<title>Node8&#45;&gt;Node7</title>
<path fill="none" stroke="#9a32cd" stroke-dasharray="5,2" d="M496,-124.04C496,-111.67 496,-96.12 496,-86.63"/>
<polygon fill="#9a32cd" stroke="#9a32cd" points="492.5,-124.23 496,-134.23 499.5,-124.23 492.5,-124.23"/>
<text text-anchor="middle" x="528.5" y="-108" font-family="Helvetica,sans-Serif" font-size="10.00"> parameters_</text>
</g>
</g>
</svg>
