<?xml version="1.0" encoding="UTF-8" standalone="no"?>
<!DOCTYPE svg PUBLIC "-//W3C//DTD SVG 1.1//EN"
 "http://www.w3.org/Graphics/SVG/1.1/DTD/svg11.dtd">
<!-- Generated by graphviz version 2.43.0 (0)
 -->
<!-- Title: fire::Processor Pages: 1 -->
<svg width="457pt" height="229pt"
 viewBox="0.00 0.00 457.00 229.00" xmlns="http://www.w3.org/2000/svg" xmlns:xlink="http://www.w3.org/1999/xlink">
<g id="graph0" class="graph" transform="scale(1 1) rotate(0) translate(4 225)">
<title>fire::Processor</title>
<!-- Node1 -->
<g id="node1" class="node">
<title>Node1</title>
<g id="a_node1"><a xlink:title="Base class for all event processing components.">
<polygon fill="#bfbfbf" stroke="black" points="114,-0.5 114,-19.5 200,-19.5 200,-0.5 114,-0.5"/>
<text text-anchor="middle" x="157" y="-7.5" font-family="Helvetica,sans-Serif" font-size="10.00">fire::Processor</text>
</a>
</g>
</g>
<!-- Node2 -->
<g id="node2" class="node">
<title>Node2</title>
<g id="a_node2"><a xlink:href="classfire_1_1Process.html" target="_top" xlink:title=" ">
<polygon fill="none" stroke="black" points="188,-67.5 188,-86.5 264,-86.5 264,-67.5 188,-67.5"/>
<text text-anchor="middle" x="226" y="-74.5" font-family="Helvetica,sans-Serif" font-size="10.00">fire::Process</text>
</a>
</g>
</g>
<!-- Node2&#45;&gt;Node1 -->
<g id="edge1" class="edge">
<title>Node2&#45;&gt;Node1</title>
<path fill="none" stroke="#9a32cd" stroke-dasharray="5,2" d="M188.25,-62.92C181.5,-59.25 175.02,-54.66 170,-49 162.6,-40.65 159.37,-27.9 157.99,-19.5"/>
<polygon fill="#9a32cd" stroke="#9a32cd" points="186.99,-66.2 197.52,-67.38 190.02,-59.89 186.99,-66.2"/>
<text text-anchor="middle" x="193" y="-41" font-family="Helvetica,sans-Serif" font-size="10.00"> process_</text>
</g>
<!-- Node5 -->
<g id="node5" class="node">
<title>Node5</title>
<g id="a_node5"><a xlink:href="classfire_1_1Conditions.html" target="_top" xlink:title="Container and cache for conditions and conditions providers.">
<polygon fill="none" stroke="black" points="234,-0.5 234,-19.5 324,-19.5 324,-0.5 234,-0.5"/>
<text text-anchor="middle" x="279" y="-7.5" font-family="Helvetica,sans-Serif" font-size="10.00">fire::Conditions</text>
</a>
</g>
</g>
<!-- Node2&#45;&gt;Node5 -->
<g id="edge5" class="edge">
<title>Node2&#45;&gt;Node5</title>
<path fill="none" stroke="#9a32cd" stroke-dasharray="5,2" d="M220.13,-57.34C219.16,-50.8 219.44,-43.67 223,-38 228.34,-29.5 237.19,-23.61 246.29,-19.56"/>
<polygon fill="#9a32cd" stroke="#9a32cd" points="216.82,-58.55 222.57,-67.45 223.62,-56.91 216.82,-58.55"/>
<text text-anchor="middle" x="246" y="-41" font-family="Helvetica,sans-Serif" font-size="10.00"> process_</text>
</g>
<!-- Node3 -->
<g id="node3" class="node">
<title>Node3</title>
<g id="a_node3"><a xlink:href="classfire_1_1h5_1_1Writer.html" target="_top" xlink:title="A HighFive::File specialized to fire&#39;s usecase.">
<polygon fill="none" stroke="black" points="0,-201.5 0,-220.5 86,-220.5 86,-201.5 0,-201.5"/>
<text text-anchor="middle" x="43" y="-208.5" font-family="Helvetica,sans-Serif" font-size="10.00">fire::h5::Writer</text>
</a>
</g>
</g>
<!-- Node3&#45;&gt;Node2 -->
<g id="edge2" class="edge">
<title>Node3&#45;&gt;Node2</title>
<path fill="none" stroke="#9a32cd" stroke-dasharray="5,2" d="M38.48,-191.2C35.62,-174.43 34.49,-150.11 47,-134 80.24,-91.17 145.96,-80.37 187.85,-78.04"/>
<polygon fill="#9a32cd" stroke="#9a32cd" points="35.14,-192.32 40.59,-201.4 41.99,-190.9 35.14,-192.32"/>
<text text-anchor="middle" x="77.5" y="-141.5" font-family="Helvetica,sans-Serif" font-size="10.00"> output_file_</text>
</g>
<!-- Node6 -->
<g id="node6" class="node">
<title>Node6</title>
<g id="a_node6"><a xlink:href="classfire_1_1Event.html" target="_top" xlink:title="Event class for interfacing with processors.">
<polygon fill="none" stroke="black" points="117,-134.5 117,-153.5 183,-153.5 183,-134.5 117,-134.5"/>
<text text-anchor="middle" x="150" y="-141.5" font-family="Helvetica,sans-Serif" font-size="10.00">fire::Event</text>
</a>
</g>
</g>
<!-- Node3&#45;&gt;Node6 -->
<g id="edge8" class="edge">
<title>Node3&#45;&gt;Node6</title>
<path fill="none" stroke="#9a32cd" stroke-dasharray="5,2" d="M59.09,-194.42C67.3,-187.01 77.71,-178.4 88,-172 99.87,-164.63 114.1,-158.27 125.93,-153.59"/>
<polygon fill="#9a32cd" stroke="#9a32cd" points="56.63,-191.93 51.7,-201.31 61.41,-197.05 56.63,-191.93"/>
<text text-anchor="middle" x="118.5" y="-175" font-family="Helvetica,sans-Serif" font-size="10.00"> output_file_</text>
</g>
<!-- Node4 -->
<g id="node4" class="node">
<title>Node4</title>
<g id="a_node4"><a xlink:href="classfire_1_1StorageControl.html" target="_top" xlink:title="Isolation of voting system deciding if events should be kept.">
<polygon fill="none" stroke="black" points="201.5,-134.5 201.5,-153.5 312.5,-153.5 312.5,-134.5 201.5,-134.5"/>
<text text-anchor="middle" x="257" y="-141.5" font-family="Helvetica,sans-Serif" font-size="10.00">fire::StorageControl</text>
</a>
</g>
</g>
<!-- Node4&#45;&gt;Node2 -->
<g id="edge3" class="edge">
<title>Node4&#45;&gt;Node2</title>
<path fill="none" stroke="#9a32cd" stroke-dasharray="5,2" d="M248.49,-125.16C242.51,-112.63 234.78,-96.41 230.11,-86.63"/>
<polygon fill="#9a32cd" stroke="#9a32cd" points="245.36,-126.71 252.82,-134.23 251.67,-123.7 245.36,-126.71"/>
<text text-anchor="middle" x="286.5" y="-108" font-family="Helvetica,sans-Serif" font-size="10.00"> storage_control_</text>
</g>
<!-- Node5&#45;&gt;Node2 -->
<g id="edge4" class="edge">
<title>Node5&#45;&gt;Node2</title>
<path fill="none" stroke="#9a32cd" stroke-dasharray="5,2" d="M279.28,-29.77C278.57,-36.33 276.83,-43.43 273,-49 267.45,-57.06 258.65,-63.03 250.16,-67.27"/>
<polygon fill="#9a32cd" stroke="#9a32cd" points="282.78,-29.75 279.67,-19.62 275.79,-29.48 282.78,-29.75"/>
<text text-anchor="middle" x="307.5" y="-41" font-family="Helvetica,sans-Serif" font-size="10.00"> conditions_</text>
</g>
<!-- Node6&#45;&gt;Node2 -->
<g id="edge6" class="edge">
<title>Node6&#45;&gt;Node2</title>
<path fill="none" stroke="#9a32cd" stroke-dasharray="5,2" d="M167.87,-127.71C182.85,-114.91 203.68,-97.09 215.91,-86.63"/>
<polygon fill="#9a32cd" stroke="#9a32cd" points="165.57,-125.07 160.25,-134.23 170.12,-130.39 165.57,-125.07"/>
<text text-anchor="middle" x="211.5" y="-108" font-family="Helvetica,sans-Serif" font-size="10.00"> event_</text>
</g>
<!-- Node7 -->
<g id="node7" class="node">
<title>Node7</title>
<g id="a_node7"><a xlink:href="classfire_1_1h5_1_1Reader.html" target="_top" xlink:title="A HighFive::File specialized to fire&#39;s usecase.">
<polygon fill="none" stroke="black" points="109.5,-201.5 109.5,-220.5 200.5,-220.5 200.5,-201.5 109.5,-201.5"/>
<text text-anchor="middle" x="155" y="-208.5" font-family="Helvetica,sans-Serif" font-size="10.00">fire::h5::Reader</text>
</a>
</g>
</g>
<!-- Node7&#45;&gt;Node6 -->
<g id="edge7" class="edge">
<title>Node7&#45;&gt;Node6</title>
<path fill="none" stroke="#9a32cd" stroke-dasharray="5,2" d="M153.54,-191.04C152.59,-178.67 151.39,-163.12 150.66,-153.63"/>
<polygon fill="#9a32cd" stroke="#9a32cd" points="150.07,-191.53 154.33,-201.23 157.05,-190.99 150.07,-191.53"/>
<text text-anchor="middle" x="180" y="-175" font-family="Helvetica,sans-Serif" font-size="10.00"> input_file_</text>
</g>
<!-- Node8 -->
<g id="node8" class="node">
<title>Node8</title>
<g id="a_node8"><a xlink:href="classfire_1_1RunHeader.html" target="_top" xlink:title="Container for run parameters.">
<polygon fill="none" stroke="black" points="331,-134.5 331,-153.5 423,-153.5 423,-134.5 331,-134.5"/>
<text text-anchor="middle" x="377" y="-141.5" font-family="Helvetica,sans-Serif" font-size="10.00">fire::RunHeader</text>
</a>
</g>
</g>
<!-- Node8&#45;&gt;Node2 -->
<g id="edge9" class="edge">
<title>Node8&#45;&gt;Node2</title>
<path fill="none" stroke="#9a32cd" stroke-dasharray="5,2" d="M362.33,-127.24C354.34,-119.51 343.88,-110.66 333,-105 311.59,-93.86 285.33,-87.14 264.19,-83.2"/>
<polygon fill="#9a32cd" stroke="#9a32cd" points="359.92,-129.77 369.43,-134.44 364.9,-124.86 359.92,-129.77"/>
<text text-anchor="middle" x="381" y="-108" font-family="Helvetica,sans-Serif" font-size="10.00"> run_header_</text>
</g>
<!-- Node9 -->
<g id="node9" class="node">
<title>Node9</title>
<g id="a_node9"><a xlink:href="classfire_1_1h5_1_1ParameterStorage.html" target="_top" xlink:title="Provides dynamic parameter storage by interfacing between a map to variants storing parameters and a ...">
<polygon fill="none" stroke="black" points="305,-201.5 305,-220.5 449,-220.5 449,-201.5 305,-201.5"/>
<text text-anchor="middle" x="377" y="-208.5" font-family="Helvetica,sans-Serif" font-size="10.00">fire::h5::ParameterStorage</text>
</a>
</g>
</g>
<!-- Node9&#45;&gt;Node8 -->
<g id="edge10" class="edge">
<title>Node9&#45;&gt;Node8</title>
<path fill="none" stroke="#9a32cd" stroke-dasharray="5,2" d="M377,-191.04C377,-178.67 377,-163.12 377,-153.63"/>
<polygon fill="#9a32cd" stroke="#9a32cd" points="373.5,-191.23 377,-201.23 380.5,-191.23 373.5,-191.23"/>
<text text-anchor="middle" x="409.5" y="-175" font-family="Helvetica,sans-Serif" font-size="10.00"> parameters_</text>
</g>
</g>
</svg>
