<?xml version="1.0" encoding="UTF-8" standalone="no"?>
<!DOCTYPE svg PUBLIC "-//W3C//DTD SVG 1.1//EN"
 "http://www.w3.org/Graphics/SVG/1.1/DTD/svg11.dtd">
<!-- Generated by graphviz version 2.43.0 (0)
 -->
<!-- Title: fire::Process Pages: 1 -->
<svg width="465pt" height="330pt"
 viewBox="0.00 0.00 465.00 330.00" xmlns="http://www.w3.org/2000/svg" xmlns:xlink="http://www.w3.org/1999/xlink">
<g id="graph0" class="graph" transform="scale(1 1) rotate(0) translate(4 326)">
<title>fire::Process</title>
<!-- Node1 -->
<g id="node1" class="node">
<title>Node1</title>
<g id="a_node1"><a xlink:title=" ">
<polygon fill="#bfbfbf" stroke="black" points="181,-67.5 181,-86.5 257,-86.5 257,-67.5 181,-67.5"/>
<text text-anchor="middle" x="219" y="-74.5" font-family="Helvetica,sans-Serif" font-size="10.00">fire::Process</text>
</a>
</g>
</g>
<!-- Node4 -->
<g id="node4" class="node">
<title>Node4</title>
<g id="a_node4"><a xlink:href="classfire_1_1Conditions.html" target="_top" xlink:title="Container and cache for conditions and conditions providers.">
<polygon fill="none" stroke="black" points="174,-0.5 174,-19.5 264,-19.5 264,-0.5 174,-0.5"/>
<text text-anchor="middle" x="219" y="-7.5" font-family="Helvetica,sans-Serif" font-size="10.00">fire::Conditions</text>
</a>
</g>
</g>
<!-- Node1&#45;&gt;Node4 -->
<g id="edge4" class="edge">
<title>Node1&#45;&gt;Node4</title>
<path fill="none" stroke="#9a32cd" stroke-dasharray="5,2" d="M192.23,-61.35C188.1,-57.87 184.41,-53.75 182,-49 175.95,-37.1 188.62,-26.49 200.75,-19.52"/>
<polygon fill="#9a32cd" stroke="#9a32cd" points="190.33,-64.29 200.49,-67.28 194.41,-58.61 190.33,-64.29"/>
<text text-anchor="middle" x="205" y="-41" font-family="Helvetica,sans-Serif" font-size="10.00"> process_</text>
</g>
<!-- Node2 -->
<g id="node2" class="node">
<title>Node2</title>
<g id="a_node2"><a xlink:href="classfire_1_1h5_1_1Writer.html" target="_top" xlink:title="Write the fire DataSets into a deterministic structure in the output HDF5 data file.">
<polygon fill="none" stroke="black" points="0,-234.5 0,-253.5 86,-253.5 86,-234.5 0,-234.5"/>
<text text-anchor="middle" x="43" y="-241.5" font-family="Helvetica,sans-Serif" font-size="10.00">fire::h5::Writer</text>
</a>
</g>
</g>
<!-- Node2&#45;&gt;Node1 -->
<g id="edge1" class="edge">
<title>Node2&#45;&gt;Node1</title>
<path fill="none" stroke="#9a32cd" stroke-dasharray="5,2" d="M40.34,-224.16C38.07,-200.21 38.08,-159 60,-134 90.58,-99.12 144.24,-85.97 180.68,-81"/>
<polygon fill="#9a32cd" stroke="#9a32cd" points="36.9,-224.86 41.55,-234.38 43.85,-224.04 36.9,-224.86"/>
<text text-anchor="middle" x="90.5" y="-141.5" font-family="Helvetica,sans-Serif" font-size="10.00"> output_file_</text>
</g>
<!-- Node5 -->
<g id="node5" class="node">
<title>Node5</title>
<g id="a_node5"><a xlink:href="classfire_1_1Event.html" target="_top" xlink:title="Event class for interfacing with processors.">
<polygon fill="none" stroke="black" points="130,-134.5 130,-153.5 196,-153.5 196,-134.5 130,-134.5"/>
<text text-anchor="middle" x="163" y="-141.5" font-family="Helvetica,sans-Serif" font-size="10.00">fire::Event</text>
</a>
</g>
</g>
<!-- Node2&#45;&gt;Node5 -->
<g id="edge7" class="edge">
<title>Node2&#45;&gt;Node5</title>
<path fill="none" stroke="#9a32cd" stroke-dasharray="5,2" d="M50.63,-224.95C58.22,-208.99 71.29,-186.12 89,-172 100.76,-162.62 116.08,-156.32 129.73,-152.18"/>
<polygon fill="#9a32cd" stroke="#9a32cd" points="47.35,-223.72 46.44,-234.28 53.73,-226.59 47.35,-223.72"/>
<text text-anchor="middle" x="119.5" y="-191.5" font-family="Helvetica,sans-Serif" font-size="10.00"> output_file_</text>
</g>
<!-- Node3 -->
<g id="node3" class="node">
<title>Node3</title>
<g id="a_node3"><a xlink:href="classfire_1_1StorageControl.html" target="_top" xlink:title="Isolation of voting system deciding if events should be kept.">
<polygon fill="none" stroke="black" points="341.5,-134.5 341.5,-153.5 452.5,-153.5 452.5,-134.5 341.5,-134.5"/>
<text text-anchor="middle" x="397" y="-141.5" font-family="Helvetica,sans-Serif" font-size="10.00">fire::StorageControl</text>
</a>
</g>
</g>
<!-- Node3&#45;&gt;Node1 -->
<g id="edge2" class="edge">
<title>Node3&#45;&gt;Node1</title>
<path fill="none" stroke="#9a32cd" stroke-dasharray="5,2" d="M372.39,-129.52C357.3,-121.63 337.4,-111.89 319,-105 298.96,-97.49 275.94,-91.13 257.05,-86.47"/>
<polygon fill="#9a32cd" stroke="#9a32cd" points="371.08,-132.78 381.55,-134.39 374.36,-126.6 371.08,-132.78"/>
<text text-anchor="middle" x="385.5" y="-108" font-family="Helvetica,sans-Serif" font-size="10.00"> storage_control_</text>
</g>
<!-- Node4&#45;&gt;Node1 -->
<g id="edge3" class="edge">
<title>Node4&#45;&gt;Node1</title>
<path fill="none" stroke="#9a32cd" stroke-dasharray="5,2" d="M229.35,-28.61C231.92,-34.95 233.55,-42.22 232,-49 230.52,-55.49 227.27,-62.24 224.39,-67.37"/>
<polygon fill="#9a32cd" stroke="#9a32cd" points="232.45,-26.99 224.86,-19.6 226.19,-30.11 232.45,-26.99"/>
<text text-anchor="middle" x="261.5" y="-41" font-family="Helvetica,sans-Serif" font-size="10.00"> conditions_</text>
</g>
<!-- Node5&#45;&gt;Node1 -->
<g id="edge5" class="edge">
<title>Node5&#45;&gt;Node1</title>
<path fill="none" stroke="#9a32cd" stroke-dasharray="5,2" d="M174.7,-125.86C179.51,-119.15 185.28,-111.53 191,-105 196.7,-98.5 203.7,-91.75 209.27,-86.62"/>
<polygon fill="#9a32cd" stroke="#9a32cd" points="171.7,-124.03 168.83,-134.23 177.44,-128.05 171.7,-124.03"/>
<text text-anchor="middle" x="209.5" y="-108" font-family="Helvetica,sans-Serif" font-size="10.00"> event_</text>
</g>
<!-- Node6 -->
<g id="node6" class="node">
<title>Node6</title>
<g id="a_node6"><a xlink:href="classfire_1_1h5_1_1Reader.html" target="_top" xlink:title="Reading a file generated by fire.">
<polygon fill="none" stroke="black" points="109.5,-234.5 109.5,-253.5 200.5,-253.5 200.5,-234.5 109.5,-234.5"/>
<text text-anchor="middle" x="155" y="-241.5" font-family="Helvetica,sans-Serif" font-size="10.00">fire::h5::Reader</text>
</a>
</g>
</g>
<!-- Node6&#45;&gt;Node5 -->
<g id="edge6" class="edge">
<title>Node6&#45;&gt;Node5</title>
<path fill="none" stroke="#9a32cd" stroke-dasharray="5,2" d="M154.04,-224.11C153.61,-209.75 153.64,-189.55 156,-172 156.83,-165.86 158.58,-159.11 160.12,-153.89"/>
<polygon fill="#9a32cd" stroke="#9a32cd" points="150.55,-224.36 154.45,-234.21 157.54,-224.07 150.55,-224.36"/>
<text text-anchor="middle" x="183" y="-191.5" font-family="Helvetica,sans-Serif" font-size="10.00"> input_file_</text>
</g>
<!-- Node7 -->
<g id="node7" class="node">
<title>Node7</title>
<g id="a_node7"><a xlink:title=" ">
<polygon fill="none" stroke="#bfbfbf" points="224.5,-234.5 224.5,-253.5 289.5,-253.5 289.5,-234.5 224.5,-234.5"/>
<text text-anchor="middle" x="257" y="-241.5" font-family="Helvetica,sans-Serif" font-size="10.00">std::string</text>
</a>
</g>
</g>
<!-- Node7&#45;&gt;Node5 -->
<g id="edge8" class="edge">
<title>Node7&#45;&gt;Node5</title>
<path fill="none" stroke="#9a32cd" stroke-dasharray="5,2" d="M238.64,-227.36C235.16,-223.85 231.76,-219.98 229,-216 216.87,-198.49 224.18,-187.89 210,-172 202.98,-164.14 193.11,-157.98 184.22,-153.55"/>
<polygon fill="#9a32cd" stroke="#9a32cd" points="236.45,-230.09 246.15,-234.36 241.22,-224.98 236.45,-230.09"/>
<text text-anchor="middle" x="244.5" y="-191.5" font-family="Helvetica,sans-Serif" font-size="10.00"> pass_</text>
</g>
<!-- Node9 -->
<g id="node9" class="node">
<title>Node9</title>
<g id="a_node9"><a xlink:href="classfire_1_1RunHeader.html" target="_top" xlink:title="Container for run parameters.">
<polygon fill="none" stroke="black" points="231,-134.5 231,-153.5 323,-153.5 323,-134.5 231,-134.5"/>
<text text-anchor="middle" x="277" y="-141.5" font-family="Helvetica,sans-Serif" font-size="10.00">fire::RunHeader</text>
</a>
</g>
</g>
<!-- Node7&#45;&gt;Node9 -->
<g id="edge11" class="edge">
<title>Node7&#45;&gt;Node9</title>
<path fill="none" stroke="#9a32cd" stroke-dasharray="5,2" d="M262.07,-224.16C262.75,-221.43 263.42,-218.65 264,-216 268.92,-193.73 273.41,-167.24 275.6,-153.79"/>
<polygon fill="#9a32cd" stroke="#9a32cd" points="258.63,-223.48 259.5,-234.04 265.4,-225.24 258.63,-223.48"/>
<text text-anchor="middle" x="310" y="-208" font-family="Helvetica,sans-Serif" font-size="10.00"> NAME</text>
<text text-anchor="middle" x="310" y="-197" font-family="Helvetica,sans-Serif" font-size="10.00">description_</text>
<text text-anchor="middle" x="310" y="-186" font-family="Helvetica,sans-Serif" font-size="10.00">detectorName_</text>
<text text-anchor="middle" x="310" y="-175" font-family="Helvetica,sans-Serif" font-size="10.00">softwareTag_</text>
</g>
<!-- Node8 -->
<g id="node8" class="node">
<title>Node8</title>
<g id="a_node8"><a xlink:title=" ">
<polygon fill="none" stroke="#bfbfbf" points="205,-291.5 205,-321.5 309,-321.5 309,-291.5 205,-291.5"/>
<text text-anchor="start" x="213" y="-309.5" font-family="Helvetica,sans-Serif" font-size="10.00">std::basic_string&lt;</text>
<text text-anchor="middle" x="257" y="-298.5" font-family="Helvetica,sans-Serif" font-size="10.00"> Char &gt;</text>
</a>
</g>
</g>
<!-- Node8&#45;&gt;Node7 -->
<g id="edge9" class="edge">
<title>Node8&#45;&gt;Node7</title>
<path fill="none" stroke="midnightblue" d="M257,-281.35C257,-271.51 257,-260.78 257,-253.54"/>
<polygon fill="midnightblue" stroke="midnightblue" points="253.5,-281.47 257,-291.47 260.5,-281.47 253.5,-281.47"/>
</g>
<!-- Node9&#45;&gt;Node1 -->
<g id="edge10" class="edge">
<title>Node9&#45;&gt;Node1</title>
<path fill="none" stroke="#9a32cd" stroke-dasharray="5,2" d="M262.4,-126.63C251.05,-113.92 235.77,-96.8 226.7,-86.63"/>
<polygon fill="#9a32cd" stroke="#9a32cd" points="259.91,-129.1 269.18,-134.23 265.13,-124.44 259.91,-129.1"/>
<text text-anchor="middle" x="283" y="-108" font-family="Helvetica,sans-Serif" font-size="10.00"> run_header_</text>
</g>
<!-- Node10 -->
<g id="node10" class="node">
<title>Node10</title>
<g id="a_node10"><a xlink:href="classfire_1_1h5_1_1ParameterStorage.html" target="_top" xlink:title="Provides dynamic parameter storage by interfacing between a map to variants storing parameters and a ...">
<polygon fill="none" stroke="black" points="313,-234.5 313,-253.5 457,-253.5 457,-234.5 313,-234.5"/>
<text text-anchor="middle" x="385" y="-241.5" font-family="Helvetica,sans-Serif" font-size="10.00">fire::h5::ParameterStorage</text>
</a>
</g>
</g>
<!-- Node10&#45;&gt;Node9 -->
<g id="edge12" class="edge">
<title>Node10&#45;&gt;Node9</title>
<path fill="none" stroke="#9a32cd" stroke-dasharray="5,2" d="M380.7,-224.5C376.11,-208.58 367.32,-186.01 352,-172 342.71,-163.5 330.54,-157.63 318.72,-153.6"/>
<polygon fill="#9a32cd" stroke="#9a32cd" points="377.34,-225.48 383.24,-234.28 384.12,-223.72 377.34,-225.48"/>
<text text-anchor="middle" x="409.5" y="-191.5" font-family="Helvetica,sans-Serif" font-size="10.00"> parameters_</text>
</g>
</g>
</svg>
