<?xml version="1.0" encoding="UTF-8" standalone="no"?>
<!DOCTYPE svg PUBLIC "-//W3C//DTD SVG 1.1//EN"
 "http://www.w3.org/Graphics/SVG/1.1/DTD/svg11.dtd">
<!-- Generated by graphviz version 2.43.0 (0)
 -->
<!-- Title: fire::Processor Pages: 1 -->
<svg width="965pt" height="241pt"
 viewBox="0.00 0.00 965.00 241.00" xmlns="http://www.w3.org/2000/svg" xmlns:xlink="http://www.w3.org/1999/xlink">
<g id="graph0" class="graph" transform="scale(1 1) rotate(0) translate(4 237)">
<title>fire::Processor</title>
<!-- Node1 -->
<g id="node1" class="node">
<title>Node1</title>
<g id="a_node1"><a xlink:title="Base class for all event processing components.">
<polygon fill="#bfbfbf" stroke="black" points="871,-0.5 871,-19.5 957,-19.5 957,-0.5 871,-0.5"/>
<text text-anchor="middle" x="914" y="-7.5" font-family="Helvetica,sans-Serif" font-size="10.00">fire::Processor</text>
</a>
</g>
</g>
<!-- Node2 -->
<g id="node2" class="node">
<title>Node2</title>
<g id="a_node2"><a target="_parent" xlink:href="http://en.cppreference.com/w/cpp/string/basic_string.html" xlink:title=" ">
<polygon fill="none" stroke="black" points="264.5,-17.5 264.5,-36.5 329.5,-36.5 329.5,-17.5 264.5,-17.5"/>
<text text-anchor="middle" x="297" y="-24.5" font-family="Helvetica,sans-Serif" font-size="10.00">std::string</text>
</a>
</g>
</g>
<!-- Node2&#45;&gt;Node1 -->
<g id="edge1" class="edge">
<title>Node2&#45;&gt;Node1</title>
<path fill="none" stroke="#9a32cd" stroke-dasharray="5,2" d="M339.53,-19.14C354.44,-16.67 371.42,-14.26 387,-13 566.54,1.55 781.68,-4.54 870.97,-8.1"/>
<polygon fill="#9a32cd" stroke="#9a32cd" points="338.84,-15.71 329.58,-20.85 340.03,-22.61 338.84,-15.71"/>
<text text-anchor="middle" x="652.5" y="-7" font-family="Helvetica,sans-Serif" font-size="10.00"> name_</text>
</g>
<!-- Node8 -->
<g id="node8" class="node">
<title>Node8</title>
<g id="a_node8"><a xlink:href="classfire_1_1Event.html" target="_top" xlink:title="Event class for interfacing with processors.">
<polygon fill="none" stroke="black" points="503.5,-152.5 503.5,-171.5 569.5,-171.5 569.5,-152.5 503.5,-152.5"/>
<text text-anchor="middle" x="536.5" y="-159.5" font-family="Helvetica,sans-Serif" font-size="10.00">fire::Event</text>
</a>
</g>
</g>
<!-- Node2&#45;&gt;Node8 -->
<g id="edge11" class="edge">
<title>Node2&#45;&gt;Node8</title>
<path fill="none" stroke="#9a32cd" stroke-dasharray="5,2" d="M323.59,-41.65C341.05,-51.22 364.93,-63.47 387,-72 419.69,-84.64 437.3,-69.18 463,-93 480.32,-109.05 464.22,-126.38 481,-143 487.12,-149.06 495.28,-153.2 503.42,-156.01"/>
<polygon fill="#9a32cd" stroke="#9a32cd" points="325.05,-38.46 314.6,-36.66 321.64,-44.57 325.05,-38.46"/>
<text text-anchor="middle" x="425" y="-96" font-family="Helvetica,sans-Serif" font-size="10.00"> pass_</text>
</g>
<!-- Node10 -->
<g id="node10" class="node">
<title>Node10</title>
<g id="a_node10"><a xlink:href="classfire_1_1RunHeader.html" target="_top" xlink:title="Container for run parameters.">
<polygon fill="none" stroke="black" points="490.5,-76.5 490.5,-95.5 582.5,-95.5 582.5,-76.5 490.5,-76.5"/>
<text text-anchor="middle" x="536.5" y="-83.5" font-family="Helvetica,sans-Serif" font-size="10.00">fire::RunHeader</text>
</a>
</g>
</g>
<!-- Node2&#45;&gt;Node10 -->
<g id="edge13" class="edge">
<title>Node2&#45;&gt;Node10</title>
<path fill="none" stroke="#9a32cd" stroke-dasharray="5,2" d="M339.86,-19.84C374.02,-15.73 422.99,-13.83 463,-28 490.35,-37.69 515.08,-62.43 527.36,-76.26"/>
<polygon fill="#9a32cd" stroke="#9a32cd" points="339.22,-16.39 329.77,-21.17 340.14,-23.33 339.22,-16.39"/>
<text text-anchor="middle" x="425" y="-64" font-family="Helvetica,sans-Serif" font-size="10.00"> NAME</text>
<text text-anchor="middle" x="425" y="-53" font-family="Helvetica,sans-Serif" font-size="10.00">description_</text>
<text text-anchor="middle" x="425" y="-42" font-family="Helvetica,sans-Serif" font-size="10.00">detectorName_</text>
<text text-anchor="middle" x="425" y="-31" font-family="Helvetica,sans-Serif" font-size="10.00">softwareTag_</text>
</g>
<!-- Node3 -->
<g id="node3" class="node">
<title>Node3</title>
<g id="a_node3"><a target="_parent" xlink:href="http://en.cppreference.com/w/cpp/string/basic_string.html" xlink:title=" ">
<polygon fill="none" stroke="black" points="0,-12 0,-42 104,-42 104,-12 0,-12"/>
<text text-anchor="start" x="8" y="-30" font-family="Helvetica,sans-Serif" font-size="10.00">std::basic_string&lt;</text>
<text text-anchor="middle" x="52" y="-19" font-family="Helvetica,sans-Serif" font-size="10.00"> char &gt;</text>
</a>
</g>
</g>
<!-- Node3&#45;&gt;Node2 -->
<g id="edge2" class="edge">
<title>Node3&#45;&gt;Node2</title>
<path fill="none" stroke="midnightblue" d="M114.48,-27C162.28,-27 226.65,-27 264.49,-27"/>
<polygon fill="midnightblue" stroke="midnightblue" points="114.24,-23.5 104.24,-27 114.24,-30.5 114.24,-23.5"/>
</g>
<!-- Node4 -->
<g id="node4" class="node">
<title>Node4</title>
<g id="a_node4"><a xlink:href="classfire_1_1Process.html" target="_top" xlink:title="The central object managing the data processing.">
<polygon fill="none" stroke="black" points="713,-114.5 713,-133.5 789,-133.5 789,-114.5 713,-114.5"/>
<text text-anchor="middle" x="751" y="-121.5" font-family="Helvetica,sans-Serif" font-size="10.00">fire::Process</text>
</a>
</g>
</g>
<!-- Node4&#45;&gt;Node1 -->
<g id="edge3" class="edge">
<title>Node4&#45;&gt;Node1</title>
<path fill="none" stroke="#9a32cd" stroke-dasharray="5,2" d="M773.71,-108.63C807.38,-84.79 871.24,-39.57 899.25,-19.74"/>
<polygon fill="#9a32cd" stroke="#9a32cd" points="771.59,-105.84 765.45,-114.48 775.63,-111.55 771.59,-105.84"/>
<text text-anchor="middle" x="830" y="-86" font-family="Helvetica,sans-Serif" font-size="10.00"> process_</text>
</g>
<!-- Node5 -->
<g id="node5" class="node">
<title>Node5</title>
<g id="a_node5"><a xlink:href="classfire_1_1h5_1_1Writer.html" target="_top" xlink:title="Write the fire DataSets into a deterministic structure in the output HDF5 data file.">
<polygon fill="none" stroke="black" points="254,-212.5 254,-231.5 340,-231.5 340,-212.5 254,-212.5"/>
<text text-anchor="middle" x="297" y="-219.5" font-family="Helvetica,sans-Serif" font-size="10.00">fire::h5::Writer</text>
</a>
</g>
</g>
<!-- Node5&#45;&gt;Node4 -->
<g id="edge4" class="edge">
<title>Node5&#45;&gt;Node4</title>
<path fill="none" stroke="#9a32cd" stroke-dasharray="5,2" d="M350.12,-223.49C428.41,-223.83 579.51,-216.97 695,-166 712.81,-158.14 730.1,-143.41 740.4,-133.65"/>
<polygon fill="#9a32cd" stroke="#9a32cd" points="350.05,-219.99 340.02,-223.41 349.99,-226.99 350.05,-219.99"/>
<text text-anchor="middle" x="536.5" y="-219" font-family="Helvetica,sans-Serif" font-size="10.00"> output_file_</text>
</g>
<!-- Node5&#45;&gt;Node8 -->
<g id="edge10" class="edge">
<title>Node5&#45;&gt;Node8</title>
<path fill="none" stroke="#9a32cd" stroke-dasharray="5,2" d="M340.68,-209.62C355.33,-205.47 371.85,-200.91 387,-197 426.88,-186.7 473.1,-176 503.25,-169.19"/>
<polygon fill="#9a32cd" stroke="#9a32cd" points="339.54,-206.3 330.88,-212.41 341.45,-213.03 339.54,-206.3"/>
<text text-anchor="middle" x="425" y="-200" font-family="Helvetica,sans-Serif" font-size="10.00"> output_file_</text>
</g>
<!-- Node6 -->
<g id="node6" class="node">
<title>Node6</title>
<g id="a_node6"><a target="_parent" xlink:href="http://en.cppreference.com/w/cpp/types/size_t.html" xlink:title=" ">
<polygon fill="none" stroke="black" points="19,-184.5 19,-203.5 85,-203.5 85,-184.5 19,-184.5"/>
<text text-anchor="middle" x="52" y="-191.5" font-family="Helvetica,sans-Serif" font-size="10.00">std::size_t</text>
</a>
</g>
</g>
<!-- Node6&#45;&gt;Node5 -->
<g id="edge5" class="edge">
<title>Node6&#45;&gt;Node5</title>
<path fill="none" stroke="#9a32cd" stroke-dasharray="5,2" d="M95.2,-198.86C139.64,-203.98 209.22,-212 253.7,-217.13"/>
<polygon fill="#9a32cd" stroke="#9a32cd" points="95.35,-195.36 85.02,-197.69 94.55,-202.31 95.35,-195.36"/>
<text text-anchor="middle" x="164.5" y="-225" font-family="Helvetica,sans-Serif" font-size="10.00"> entries_</text>
<text text-anchor="middle" x="164.5" y="-214" font-family="Helvetica,sans-Serif" font-size="10.00">rows_per_chunk_</text>
</g>
<!-- Node9 -->
<g id="node9" class="node">
<title>Node9</title>
<g id="a_node9"><a xlink:href="classfire_1_1h5_1_1Reader.html" target="_top" xlink:title="Reading a file generated by fire.">
<polygon fill="none" stroke="black" points="251.5,-156.5 251.5,-175.5 342.5,-175.5 342.5,-156.5 251.5,-156.5"/>
<text text-anchor="middle" x="297" y="-163.5" font-family="Helvetica,sans-Serif" font-size="10.00">fire::h5::Reader</text>
</a>
</g>
</g>
<!-- Node6&#45;&gt;Node9 -->
<g id="edge9" class="edge">
<title>Node6&#45;&gt;Node9</title>
<path fill="none" stroke="#9a32cd" stroke-dasharray="5,2" d="M79.6,-179.9C92.1,-174.04 107.43,-167.94 122,-165 165.24,-156.28 215.75,-157.83 251.18,-160.78"/>
<polygon fill="#9a32cd" stroke="#9a32cd" points="77.69,-176.93 70.25,-184.47 80.77,-183.22 77.69,-176.93"/>
<text text-anchor="middle" x="164.5" y="-190" font-family="Helvetica,sans-Serif" font-size="10.00"> entries_</text>
<text text-anchor="middle" x="164.5" y="-179" font-family="Helvetica,sans-Serif" font-size="10.00">rows_per_chunk_</text>
<text text-anchor="middle" x="164.5" y="-168" font-family="Helvetica,sans-Serif" font-size="10.00">runs_</text>
</g>
<!-- Node7 -->
<g id="node7" class="node">
<title>Node7</title>
<g id="a_node7"><a xlink:href="classfire_1_1StorageControl.html" target="_top" xlink:title="Isolation of voting system deciding if events should be kept.">
<polygon fill="none" stroke="black" points="481,-114.5 481,-133.5 592,-133.5 592,-114.5 481,-114.5"/>
<text text-anchor="middle" x="536.5" y="-121.5" font-family="Helvetica,sans-Serif" font-size="10.00">fire::StorageControl</text>
</a>
</g>
</g>
<!-- Node7&#45;&gt;Node4 -->
<g id="edge6" class="edge">
<title>Node7&#45;&gt;Node4</title>
<path fill="none" stroke="#9a32cd" stroke-dasharray="5,2" d="M602.23,-124C638.47,-124 682.37,-124 712.86,-124"/>
<polygon fill="#9a32cd" stroke="#9a32cd" points="602.22,-120.5 592.22,-124 602.22,-127.5 602.22,-120.5"/>
<text text-anchor="middle" x="652.5" y="-127" font-family="Helvetica,sans-Serif" font-size="10.00"> storage_control_</text>
</g>
<!-- Node8&#45;&gt;Node4 -->
<g id="edge7" class="edge">
<title>Node8&#45;&gt;Node4</title>
<path fill="none" stroke="#9a32cd" stroke-dasharray="5,2" d="M579.91,-156.68C611.73,-152.42 656.28,-145.86 695,-138 701.37,-136.71 708.12,-135.15 714.61,-133.55"/>
<polygon fill="#9a32cd" stroke="#9a32cd" points="579.09,-153.26 569.64,-158.04 580.01,-160.2 579.09,-153.26"/>
<text text-anchor="middle" x="652.5" y="-154" font-family="Helvetica,sans-Serif" font-size="10.00"> event_</text>
</g>
<!-- Node9&#45;&gt;Node8 -->
<g id="edge8" class="edge">
<title>Node9&#45;&gt;Node8</title>
<path fill="none" stroke="#9a32cd" stroke-dasharray="5,2" d="M352.97,-163.91C364.23,-163.55 375.99,-163.22 387,-163 427.08,-162.19 473.26,-161.99 503.34,-161.97"/>
<polygon fill="#9a32cd" stroke="#9a32cd" points="352.69,-160.42 342.81,-164.25 352.92,-167.42 352.69,-160.42"/>
<text text-anchor="middle" x="425" y="-166" font-family="Helvetica,sans-Serif" font-size="10.00"> input_file_</text>
</g>
<!-- Node10&#45;&gt;Node4 -->
<g id="edge12" class="edge">
<title>Node10&#45;&gt;Node4</title>
<path fill="none" stroke="#9a32cd" stroke-dasharray="5,2" d="M592.54,-92.37C622.91,-96.31 661.22,-101.95 695,-109 702.36,-110.54 710.2,-112.48 717.59,-114.46"/>
<polygon fill="#9a32cd" stroke="#9a32cd" points="592.92,-88.9 582.56,-91.11 592.04,-95.84 592.92,-88.9"/>
<text text-anchor="middle" x="652.5" y="-112" font-family="Helvetica,sans-Serif" font-size="10.00"> run_header_</text>
</g>
<!-- Node11 -->
<g id="node11" class="node">
<title>Node11</title>
<g id="a_node11"><a xlink:href="classfire_1_1h5_1_1ParameterStorage.html" target="_top" xlink:title="Provides dynamic parameter storage by interfacing between a map to variants storing parameters and a ...">
<polygon fill="none" stroke="black" points="225,-118.5 225,-137.5 369,-137.5 369,-118.5 225,-118.5"/>
<text text-anchor="middle" x="297" y="-125.5" font-family="Helvetica,sans-Serif" font-size="10.00">fire::h5::ParameterStorage</text>
</a>
</g>
</g>
<!-- Node11&#45;&gt;Node10 -->
<g id="edge14" class="edge">
<title>Node11&#45;&gt;Node10</title>
<path fill="none" stroke="#9a32cd" stroke-dasharray="5,2" d="M379.13,-119.42C405.96,-115.99 435.88,-111.52 463,-106 476.82,-103.19 491.88,-99.19 504.68,-95.5"/>
<polygon fill="#9a32cd" stroke="#9a32cd" points="378.5,-115.97 369.01,-120.69 379.37,-122.92 378.5,-115.97"/>
<text text-anchor="middle" x="425" y="-120" font-family="Helvetica,sans-Serif" font-size="10.00"> parameters_</text>
</g>
</g>
</svg>
