<?xml version="1.0" encoding="UTF-8" standalone="no"?>
<!DOCTYPE svg PUBLIC "-//W3C//DTD SVG 1.1//EN"
 "http://www.w3.org/Graphics/SVG/1.1/DTD/svg11.dtd">
<!-- Generated by graphviz version 2.43.0 (0)
 -->
<!-- Title: fire::h5::Data&lt; AtomicType, std::enable_if_t&lt; is_atomic_v&lt; AtomicType &gt; &gt; &gt; Pages: 1 -->
<svg width="161pt" height="310pt"
 viewBox="0.00 0.00 161.00 310.00" xmlns="http://www.w3.org/2000/svg" xmlns:xlink="http://www.w3.org/1999/xlink">
<g id="graph0" class="graph" transform="scale(1 1) rotate(0) translate(4 306)">
<title>fire::h5::Data&lt; AtomicType, std::enable_if_t&lt; is_atomic_v&lt; AtomicType &gt; &gt; &gt;</title>
<!-- Node1 -->
<g id="node1" class="node">
<title>Node1</title>
<g id="a_node1"><a xlink:title="Data wrapper for atomic types.">
<polygon fill="#bfbfbf" stroke="black" points="0,-0.5 0,-41.5 153,-41.5 153,-0.5 0,-0.5"/>
<text text-anchor="start" x="8" y="-29.5" font-family="Helvetica,sans-Serif" font-size="10.00">fire::h5::Data&lt; AtomicType,</text>
<text text-anchor="start" x="8" y="-18.5" font-family="Helvetica,sans-Serif" font-size="10.00"> std::enable_if_t&lt; is_atomic</text>
<text text-anchor="middle" x="76.5" y="-7.5" font-family="Helvetica,sans-Serif" font-size="10.00">_v&lt; AtomicType &gt; &gt; &gt;</text>
</a>
</g>
</g>
<!-- Node2 -->
<g id="node2" class="node">
<title>Node2</title>
<g id="a_node2"><a xlink:href="classfire_1_1h5_1_1AbstractData.html" target="_top" xlink:title=" ">
<polygon fill="none" stroke="black" points="16.5,-79.5 16.5,-109.5 136.5,-109.5 136.5,-79.5 16.5,-79.5"/>
<text text-anchor="start" x="24.5" y="-97.5" font-family="Helvetica,sans-Serif" font-size="10.00">fire::h5::AbstractData</text>
<text text-anchor="middle" x="76.5" y="-86.5" font-family="Helvetica,sans-Serif" font-size="10.00">&lt; AtomicType &gt;</text>
</a>
</g>
</g>
<!-- Node2&#45;&gt;Node1 -->
<g id="edge1" class="edge">
<title>Node2&#45;&gt;Node1</title>
<path fill="none" stroke="midnightblue" d="M76.5,-69.1C76.5,-60.1 76.5,-50.02 76.5,-41.51"/>
<polygon fill="midnightblue" stroke="midnightblue" points="73,-69.37 76.5,-79.37 80,-69.37 73,-69.37"/>
</g>
<!-- Node3 -->
<g id="node3" class="node">
<title>Node3</title>
<g id="a_node3"><a xlink:href="classfire_1_1h5_1_1BaseData.html" target="_top" xlink:title="Empty data base allowing recursion.">
<polygon fill="none" stroke="black" points="24.5,-147.5 24.5,-166.5 128.5,-166.5 128.5,-147.5 24.5,-147.5"/>
<text text-anchor="middle" x="76.5" y="-154.5" font-family="Helvetica,sans-Serif" font-size="10.00">fire::h5::BaseData</text>
</a>
</g>
</g>
<!-- Node3&#45;&gt;Node2 -->
<g id="edge2" class="edge">
<title>Node3&#45;&gt;Node2</title>
<path fill="none" stroke="midnightblue" d="M76.5,-137.22C76.5,-128.36 76.5,-117.96 76.5,-109.76"/>
<polygon fill="midnightblue" stroke="midnightblue" points="73,-137.33 76.5,-147.33 80,-137.33 73,-137.33"/>
</g>
<!-- Node4 -->
<g id="node4" class="node">
<title>Node4</title>
<g id="a_node4"><a target="_parent" xlink:href="http://en.cppreference.com/w/cpp/string/basic_string.html" xlink:title=" ">
<polygon fill="none" stroke="black" points="44,-214.5 44,-233.5 109,-233.5 109,-214.5 44,-214.5"/>
<text text-anchor="middle" x="76.5" y="-221.5" font-family="Helvetica,sans-Serif" font-size="10.00">std::string</text>
</a>
</g>
</g>
<!-- Node4&#45;&gt;Node3 -->
<g id="edge3" class="edge">
<title>Node4&#45;&gt;Node3</title>
<path fill="none" stroke="#9a32cd" stroke-dasharray="5,2" d="M76.5,-204.04C76.5,-191.67 76.5,-176.12 76.5,-166.63"/>
<polygon fill="#9a32cd" stroke="#9a32cd" points="73,-204.23 76.5,-214.23 80,-204.23 73,-204.23"/>
<text text-anchor="middle" x="92" y="-188" font-family="Helvetica,sans-Serif" font-size="10.00"> path_</text>
</g>
<!-- Node5 -->
<g id="node5" class="node">
<title>Node5</title>
<g id="a_node5"><a target="_parent" xlink:href="http://en.cppreference.com/w/cpp/string/basic_string.html" xlink:title=" ">
<polygon fill="none" stroke="black" points="24.5,-271.5 24.5,-301.5 128.5,-301.5 128.5,-271.5 24.5,-271.5"/>
<text text-anchor="start" x="32.5" y="-289.5" font-family="Helvetica,sans-Serif" font-size="10.00">std::basic_string&lt;</text>
<text text-anchor="middle" x="76.5" y="-278.5" font-family="Helvetica,sans-Serif" font-size="10.00"> char &gt;</text>
</a>
</g>
</g>
<!-- Node5&#45;&gt;Node4 -->
<g id="edge4" class="edge">
<title>Node5&#45;&gt;Node4</title>
<path fill="none" stroke="midnightblue" d="M76.5,-261.35C76.5,-251.51 76.5,-240.78 76.5,-233.54"/>
<polygon fill="midnightblue" stroke="midnightblue" points="73,-261.47 76.5,-271.47 80,-261.47 73,-261.47"/>
</g>
</g>
</svg>
