<?xml version="1.0" encoding="UTF-8" standalone="no"?>
<!DOCTYPE svg PUBLIC "-//W3C//DTD SVG 1.1//EN"
 "http://www.w3.org/Graphics/SVG/1.1/DTD/svg11.dtd">
<!-- Generated by graphviz version 2.43.0 (0)
 -->
<!-- Title: framework::Event Pages: 1 -->
<svg width="308pt" height="251pt"
 viewBox="0.00 0.00 308.00 251.00" xmlns="http://www.w3.org/2000/svg" xmlns:xlink="http://www.w3.org/1999/xlink">
<g id="graph0" class="graph" transform="scale(1 1) rotate(0) translate(4 247)">
<title>framework::Event</title>
<!-- Node1 -->
<g id="node1" class="node">
<title>Node1</title>
<g id="a_node1"><a xlink:title="Wrapper Event in this namespace reintroducing legacy functionality.">
<polygon fill="#bfbfbf" stroke="black" points="96,-0.5 96,-19.5 200,-19.5 200,-0.5 96,-0.5"/>
<text text-anchor="middle" x="148" y="-7.5" font-family="Helvetica,sans-Serif" font-size="10.00">framework::Event</text>
</a>
</g>
</g>
<!-- Node2 -->
<g id="node2" class="node">
<title>Node2</title>
<g id="a_node2"><a xlink:href="classfire_1_1Event.html" target="_top" xlink:title="Event class for interfacing with processors.">
<polygon fill="none" stroke="black" points="115,-67.5 115,-86.5 181,-86.5 181,-67.5 115,-67.5"/>
<text text-anchor="middle" x="148" y="-74.5" font-family="Helvetica,sans-Serif" font-size="10.00">fire::Event</text>
</a>
</g>
</g>
<!-- Node2&#45;&gt;Node1 -->
<g id="edge1" class="edge">
<title>Node2&#45;&gt;Node1</title>
<path fill="none" stroke="#9a32cd" stroke-dasharray="5,2" d="M148,-57.04C148,-44.67 148,-29.12 148,-19.63"/>
<polygon fill="#9a32cd" stroke="#9a32cd" points="144.5,-57.23 148,-67.23 151.5,-57.23 144.5,-57.23"/>
<text text-anchor="middle" x="166.5" y="-41" font-family="Helvetica,sans-Serif" font-size="10.00"> event_</text>
</g>
<!-- Node3 -->
<g id="node3" class="node">
<title>Node3</title>
<g id="a_node3"><a xlink:href="classfire_1_1io_1_1Reader.html" target="_top" xlink:title="Prototype for reading files within fire.">
<polygon fill="none" stroke="black" points="0,-134.5 0,-153.5 88,-153.5 88,-134.5 0,-134.5"/>
<text text-anchor="middle" x="44" y="-141.5" font-family="Helvetica,sans-Serif" font-size="10.00">fire::io::Reader</text>
</a>
</g>
</g>
<!-- Node3&#45;&gt;Node2 -->
<g id="edge2" class="edge">
<title>Node3&#45;&gt;Node2</title>
<path fill="none" stroke="#9a32cd" stroke-dasharray="5,2" d="M60.57,-127.56C68.99,-120.18 79.62,-111.55 90,-105 101.46,-97.77 115.17,-91.3 126.38,-86.5"/>
<polygon fill="#9a32cd" stroke="#9a32cd" points="58.07,-125.11 52.98,-134.4 62.75,-130.31 58.07,-125.11"/>
<text text-anchor="middle" x="117" y="-108" font-family="Helvetica,sans-Serif" font-size="10.00"> input_file_</text>
</g>
<!-- Node4 -->
<g id="node4" class="node">
<title>Node4</title>
<g id="a_node4"><a xlink:href="classfire_1_1io_1_1Writer.html" target="_top" xlink:title="Write the fire DataSets into a deterministic structure in the output HDF5 data file.">
<polygon fill="none" stroke="black" points="106.5,-134.5 106.5,-153.5 189.5,-153.5 189.5,-134.5 106.5,-134.5"/>
<text text-anchor="middle" x="148" y="-141.5" font-family="Helvetica,sans-Serif" font-size="10.00">fire::io::Writer</text>
</a>
</g>
</g>
<!-- Node4&#45;&gt;Node2 -->
<g id="edge3" class="edge">
<title>Node4&#45;&gt;Node2</title>
<path fill="none" stroke="#9a32cd" stroke-dasharray="5,2" d="M148,-124.04C148,-111.67 148,-96.12 148,-86.63"/>
<polygon fill="#9a32cd" stroke="#9a32cd" points="144.5,-124.23 148,-134.23 151.5,-124.23 144.5,-124.23"/>
<text text-anchor="middle" x="178.5" y="-108" font-family="Helvetica,sans-Serif" font-size="10.00"> output_file_</text>
</g>
<!-- Node5 -->
<g id="node5" class="node">
<title>Node5</title>
<g id="a_node5"><a target="_parent" xlink:href="http://en.cppreference.com/w/cpp/types/size_t.html" xlink:title=" ">
<polygon fill="none" stroke="black" points="112,-218 112,-237 178,-237 178,-218 112,-218"/>
<text text-anchor="middle" x="145" y="-225" font-family="Helvetica,sans-Serif" font-size="10.00">std::size_t</text>
</a>
</g>
</g>
<!-- Node5&#45;&gt;Node4 -->
<g id="edge4" class="edge">
<title>Node5&#45;&gt;Node4</title>
<path fill="none" stroke="#9a32cd" stroke-dasharray="5,2" d="M145.7,-207.38C146.33,-190.4 147.21,-166.37 147.68,-153.66"/>
<polygon fill="#9a32cd" stroke="#9a32cd" points="142.19,-207.66 145.32,-217.78 149.19,-207.91 142.19,-207.66"/>
<text text-anchor="middle" x="189.5" y="-186" font-family="Helvetica,sans-Serif" font-size="10.00"> entries_</text>
<text text-anchor="middle" x="189.5" y="-175" font-family="Helvetica,sans-Serif" font-size="10.00">rows_per_chunk_</text>
</g>
<!-- Node6 -->
<g id="node6" class="node">
<title>Node6</title>
<g id="a_node6"><a target="_parent" xlink:href="http://en.cppreference.com/w/cpp/string/basic_string.html" xlink:title=" ">
<polygon fill="none" stroke="black" points="212.5,-134.5 212.5,-153.5 277.5,-153.5 277.5,-134.5 212.5,-134.5"/>
<text text-anchor="middle" x="245" y="-141.5" font-family="Helvetica,sans-Serif" font-size="10.00">std::string</text>
</a>
</g>
</g>
<!-- Node6&#45;&gt;Node2 -->
<g id="edge5" class="edge">
<title>Node6&#45;&gt;Node2</title>
<path fill="none" stroke="#9a32cd" stroke-dasharray="5,2" d="M233.49,-125.97C227.95,-118.77 220.83,-110.73 213,-105 202.16,-97.06 188.63,-90.95 176.73,-86.58"/>
<polygon fill="#9a32cd" stroke="#9a32cd" points="230.89,-128.35 239.57,-134.42 236.57,-124.26 230.89,-128.35"/>
<text text-anchor="middle" x="241.5" y="-108" font-family="Helvetica,sans-Serif" font-size="10.00"> pass_</text>
</g>
<!-- Node7 -->
<g id="node7" class="node">
<title>Node7</title>
<g id="a_node7"><a target="_parent" xlink:href="http://en.cppreference.com/w/cpp/string/basic_string.html" xlink:title=" ">
<polygon fill="none" stroke="black" points="196,-212.5 196,-242.5 300,-242.5 300,-212.5 196,-212.5"/>
<text text-anchor="start" x="204" y="-230.5" font-family="Helvetica,sans-Serif" font-size="10.00">std::basic_string&lt;</text>
<text text-anchor="middle" x="248" y="-219.5" font-family="Helvetica,sans-Serif" font-size="10.00"> char &gt;</text>
</a>
</g>
</g>
<!-- Node7&#45;&gt;Node6 -->
<g id="edge6" class="edge">
<title>Node7&#45;&gt;Node6</title>
<path fill="none" stroke="midnightblue" d="M247.11,-202.25C246.5,-185.78 245.74,-164.99 245.31,-153.54"/>
<polygon fill="midnightblue" stroke="midnightblue" points="243.61,-202.44 247.48,-212.3 250.61,-202.18 243.61,-202.44"/>
</g>
</g>
</svg>
