<?xml version="1.0" encoding="UTF-8" standalone="no"?>
<!DOCTYPE svg PUBLIC "-//W3C//DTD SVG 1.1//EN"
 "http://www.w3.org/Graphics/SVG/1.1/DTD/svg11.dtd">
<!-- Generated by graphviz version 2.43.0 (0)
 -->
<!-- Title: fire::io::Writer::Buffer&lt; AtomicType &gt; Pages: 1 -->
<svg width="204pt" height="174pt"
 viewBox="0.00 0.00 204.00 174.00" xmlns="http://www.w3.org/2000/svg" xmlns:xlink="http://www.w3.org/1999/xlink">
<g id="graph0" class="graph" transform="scale(1 1) rotate(0) translate(4 170)">
<title>fire::io::Writer::Buffer&lt; AtomicType &gt;</title>
<!-- Node1 -->
<g id="node1" class="node">
<title>Node1</title>
<g id="a_node1"><a xlink:title="Buffer atomic data types in&#45;memory for efficient disk operations.">
<polygon fill="#bfbfbf" stroke="black" points="0,-0.5 0,-30.5 119,-30.5 119,-0.5 0,-0.5"/>
<text text-anchor="start" x="8" y="-18.5" font-family="Helvetica,sans-Serif" font-size="10.00">fire::io::Writer::Buffer</text>
<text text-anchor="middle" x="59.5" y="-7.5" font-family="Helvetica,sans-Serif" font-size="10.00">&lt; AtomicType &gt;</text>
</a>
</g>
</g>
<!-- Node2 -->
<g id="node2" class="node">
<title>Node2</title>
<g id="a_node2"><a xlink:href="classfire_1_1io_1_1Writer_1_1BufferHandle.html" target="_top" xlink:title="Type&#45;less handle to buffers.">
<polygon fill="none" stroke="black" points="77,-68.5 77,-98.5 196,-98.5 196,-68.5 77,-68.5"/>
<text text-anchor="start" x="85" y="-86.5" font-family="Helvetica,sans-Serif" font-size="10.00">fire::io::Writer::Buffer</text>
<text text-anchor="middle" x="136.5" y="-75.5" font-family="Helvetica,sans-Serif" font-size="10.00">Handle</text>
</a>
</g>
</g>
<!-- Node2&#45;&gt;Node1 -->
<g id="edge1" class="edge">
<title>Node2&#45;&gt;Node1</title>
<path fill="none" stroke="midnightblue" d="M112.02,-61.52C100.23,-51.41 86.41,-39.57 75.91,-30.57"/>
<polygon fill="midnightblue" stroke="midnightblue" points="109.92,-64.33 119.79,-68.18 114.48,-59.01 109.92,-64.33"/>
</g>
<!-- Node3 -->
<g id="node3" class="node">
<title>Node3</title>
<g id="a_node3"><a target="_parent" xlink:href="http://en.cppreference.com/w/cpp/types/size_t.html" xlink:title=" ">
<polygon fill="none" stroke="black" points="9.5,-146.5 9.5,-165.5 75.5,-165.5 75.5,-146.5 9.5,-146.5"/>
<text text-anchor="middle" x="42.5" y="-153.5" font-family="Helvetica,sans-Serif" font-size="10.00">std::size_t</text>
</a>
</g>
</g>
<!-- Node3&#45;&gt;Node1 -->
<g id="edge3" class="edge">
<title>Node3&#45;&gt;Node1</title>
<path fill="none" stroke="#9a32cd" stroke-dasharray="5,2" d="M38.31,-136.6C34.94,-118.85 31.53,-91.31 36.5,-68 39.32,-54.78 45.78,-40.85 51.14,-30.81"/>
<polygon fill="#9a32cd" stroke="#9a32cd" points="34.9,-137.42 40.37,-146.49 41.75,-135.99 34.9,-137.42"/>
<text text-anchor="middle" x="52.5" y="-81" font-family="Helvetica,sans-Serif" font-size="10.00"> i_file_</text>
</g>
<!-- Node3&#45;&gt;Node2 -->
<g id="edge2" class="edge">
<title>Node3&#45;&gt;Node2</title>
<path fill="none" stroke="#9a32cd" stroke-dasharray="5,2" d="M62.33,-140.13C78.67,-127.87 101.69,-110.61 117.73,-98.58"/>
<polygon fill="#9a32cd" stroke="#9a32cd" points="59.93,-137.56 54.03,-146.36 64.13,-143.16 59.93,-137.56"/>
<text text-anchor="middle" x="117" y="-120" font-family="Helvetica,sans-Serif" font-size="10.00"> max_len_</text>
</g>
</g>
</svg>
