<?xml version="1.0" encoding="UTF-8" standalone="no"?>
<!DOCTYPE svg PUBLIC "-//W3C//DTD SVG 1.1//EN"
 "http://www.w3.org/Graphics/SVG/1.1/DTD/svg11.dtd">
<!-- Generated by graphviz version 2.43.0 (0)
 -->
<!-- Title: fire::RandomNumberSeedService Pages: 1 -->
<svg width="772pt" height="465pt"
 viewBox="0.00 0.00 772.00 465.00" xmlns="http://www.w3.org/2000/svg" xmlns:xlink="http://www.w3.org/1999/xlink">
<g id="graph0" class="graph" transform="scale(1 1) rotate(0) translate(4 461)">
<title>fire::RandomNumberSeedService</title>
<!-- Node1 -->
<g id="node1" class="node">
<title>Node1</title>
<g id="a_node1"><a xlink:title="System for consistent seeding of random number generators.">
<polygon fill="#bfbfbf" stroke="black" points="487,-0.5 487,-19.5 665,-19.5 665,-0.5 487,-0.5"/>
<text text-anchor="middle" x="576" y="-7.5" font-family="Helvetica,sans-Serif" font-size="10.00">fire::RandomNumberSeedService</text>
</a>
</g>
</g>
<!-- Node2 -->
<g id="node2" class="node">
<title>Node2</title>
<g id="a_node2"><a xlink:href="classfire_1_1ConditionsObject.html" target="_top" xlink:title="Base class for all conditions objects, very simple.">
<polygon fill="none" stroke="black" points="642,-231.5 642,-250.5 764,-250.5 764,-231.5 642,-231.5"/>
<text text-anchor="middle" x="703" y="-238.5" font-family="Helvetica,sans-Serif" font-size="10.00">fire::ConditionsObject</text>
</a>
</g>
</g>
<!-- Node2&#45;&gt;Node1 -->
<g id="edge1" class="edge">
<title>Node2&#45;&gt;Node1</title>
<path fill="none" stroke="midnightblue" d="M714.81,-222.7C723.21,-208.72 733,-188.19 733,-168.5 733,-168.5 733,-168.5 733,-66 733,-43.69 675.82,-28.28 630.47,-19.56"/>
<polygon fill="midnightblue" stroke="midnightblue" points="711.79,-220.93 709.36,-231.24 717.69,-224.7 711.79,-220.93"/>
</g>
<!-- Node3 -->
<g id="node3" class="node">
<title>Node3</title>
<g id="a_node3"><a xlink:title=" ">
<polygon fill="none" stroke="#bfbfbf" points="447.5,-369.5 447.5,-388.5 512.5,-388.5 512.5,-369.5 447.5,-369.5"/>
<text text-anchor="middle" x="480" y="-376.5" font-family="Helvetica,sans-Serif" font-size="10.00">std::string</text>
</a>
</g>
</g>
<!-- Node3&#45;&gt;Node1 -->
<g id="edge18" class="edge">
<title>Node3&#45;&gt;Node1</title>
<path fill="none" stroke="#9a32cd" stroke-dasharray="5,2" d="M508.07,-364.38C536.4,-348.44 576,-319.16 576,-280 576,-280 576,-280 576,-66 576,-49.58 576,-30.39 576,-19.57"/>
<polygon fill="#9a32cd" stroke="#9a32cd" points="506.12,-361.46 498.97,-369.27 509.43,-367.62 506.12,-361.46"/>
<text text-anchor="middle" x="647" y="-165" font-family="Helvetica,sans-Serif" font-size="10.00"> CONDITIONS_OBJECT_NAME</text>
</g>
<!-- Node3&#45;&gt;Node2 -->
<g id="edge2" class="edge">
<title>Node3&#45;&gt;Node2</title>
<path fill="none" stroke="#9a32cd" stroke-dasharray="5,2" d="M522.95,-372.83C544.11,-368.98 569.43,-362.34 590,-351 638.45,-324.28 681.12,-271.4 696.71,-250.65"/>
<polygon fill="#9a32cd" stroke="#9a32cd" points="522.22,-369.41 512.93,-374.51 523.37,-376.31 522.22,-369.41"/>
<text text-anchor="middle" x="663.5" y="-326.5" font-family="Helvetica,sans-Serif" font-size="10.00"> name_</text>
</g>
<!-- Node5 -->
<g id="node5" class="node">
<title>Node5</title>
<g id="a_node5"><a xlink:href="classfire_1_1ConditionsProvider.html" target="_top" xlink:title="Base class for all providers of conditions objects.">
<polygon fill="none" stroke="black" points="414.5,-57.5 414.5,-76.5 545.5,-76.5 545.5,-57.5 414.5,-57.5"/>
<text text-anchor="middle" x="480" y="-64.5" font-family="Helvetica,sans-Serif" font-size="10.00">fire::ConditionsProvider</text>
</a>
</g>
</g>
<!-- Node3&#45;&gt;Node5 -->
<g id="edge17" class="edge">
<title>Node3&#45;&gt;Node5</title>
<path fill="none" stroke="#9a32cd" stroke-dasharray="5,2" d="M480,-359.28C480,-339.55 480,-307.59 480,-280 480,-280 480,-280 480,-133 480,-112.91 480,-89.33 480,-76.83"/>
<polygon fill="#9a32cd" stroke="#9a32cd" points="476.5,-359.35 480,-369.35 483.5,-359.35 476.5,-359.35"/>
<text text-anchor="middle" x="514" y="-205" font-family="Helvetica,sans-Serif" font-size="10.00"> objectName_</text>
<text text-anchor="middle" x="514" y="-194" font-family="Helvetica,sans-Serif" font-size="10.00">tagname_</text>
</g>
<!-- Node10 -->
<g id="node10" class="node">
<title>Node10</title>
<g id="a_node10"><a xlink:href="classfire_1_1Event.html" target="_top" xlink:title="Event class for interfacing with processors.">
<polygon fill="none" stroke="black" points="124,-269.5 124,-288.5 190,-288.5 190,-269.5 124,-269.5"/>
<text text-anchor="middle" x="157" y="-276.5" font-family="Helvetica,sans-Serif" font-size="10.00">fire::Event</text>
</a>
</g>
</g>
<!-- Node3&#45;&gt;Node10 -->
<g id="edge13" class="edge">
<title>Node3&#45;&gt;Node10</title>
<path fill="none" stroke="#9a32cd" stroke-dasharray="5,2" d="M437.08,-374.65C399.31,-370.92 347.93,-363.67 332,-351 315.33,-337.74 329.83,-320.06 313,-307 272.47,-275.56 249.43,-298.38 199,-289 196.21,-288.48 193.33,-287.92 190.44,-287.34"/>
<polygon fill="#9a32cd" stroke="#9a32cd" points="437.05,-378.16 447.33,-375.61 437.7,-371.2 437.05,-378.16"/>
<text text-anchor="middle" x="347.5" y="-326.5" font-family="Helvetica,sans-Serif" font-size="10.00"> pass_</text>
</g>
<!-- Node12 -->
<g id="node12" class="node">
<title>Node12</title>
<g id="a_node12"><a xlink:href="classfire_1_1RunHeader.html" target="_top" xlink:title="Container for run parameters.">
<polygon fill="none" stroke="black" points="208,-269.5 208,-288.5 300,-288.5 300,-269.5 208,-269.5"/>
<text text-anchor="middle" x="254" y="-276.5" font-family="Helvetica,sans-Serif" font-size="10.00">fire::RunHeader</text>
</a>
</g>
</g>
<!-- Node3&#45;&gt;Node12 -->
<g id="edge15" class="edge">
<title>Node3&#45;&gt;Node12</title>
<path fill="none" stroke="#9a32cd" stroke-dasharray="5,2" d="M437.25,-372.39C421.05,-368.53 403.33,-362.01 390,-351 372.99,-336.95 384.41,-320.56 367,-307 361.31,-302.57 326.72,-294.66 297.29,-288.55"/>
<polygon fill="#9a32cd" stroke="#9a32cd" points="436.57,-375.83 447.08,-374.47 438.01,-368.98 436.57,-375.83"/>
<text text-anchor="middle" x="428" y="-343" font-family="Helvetica,sans-Serif" font-size="10.00"> NAME</text>
<text text-anchor="middle" x="428" y="-332" font-family="Helvetica,sans-Serif" font-size="10.00">description_</text>
<text text-anchor="middle" x="428" y="-321" font-family="Helvetica,sans-Serif" font-size="10.00">detectorName_</text>
<text text-anchor="middle" x="428" y="-310" font-family="Helvetica,sans-Serif" font-size="10.00">softwareTag_</text>
</g>
<!-- Node4 -->
<g id="node4" class="node">
<title>Node4</title>
<g id="a_node4"><a xlink:title=" ">
<polygon fill="none" stroke="#bfbfbf" points="428,-426.5 428,-456.5 532,-456.5 532,-426.5 428,-426.5"/>
<text text-anchor="start" x="436" y="-444.5" font-family="Helvetica,sans-Serif" font-size="10.00">std::basic_string&lt;</text>
<text text-anchor="middle" x="480" y="-433.5" font-family="Helvetica,sans-Serif" font-size="10.00"> Char &gt;</text>
</a>
</g>
</g>
<!-- Node4&#45;&gt;Node3 -->
<g id="edge3" class="edge">
<title>Node4&#45;&gt;Node3</title>
<path fill="none" stroke="midnightblue" d="M480,-416.35C480,-406.51 480,-395.78 480,-388.54"/>
<polygon fill="midnightblue" stroke="midnightblue" points="476.5,-416.47 480,-426.47 483.5,-416.47 476.5,-416.47"/>
</g>
<!-- Node5&#45;&gt;Node1 -->
<g id="edge4" class="edge">
<title>Node5&#45;&gt;Node1</title>
<path fill="none" stroke="midnightblue" d="M503.75,-52.39C521.7,-42.11 545.79,-28.31 561.11,-19.53"/>
<polygon fill="midnightblue" stroke="midnightblue" points="501.94,-49.4 495,-57.41 505.42,-55.47 501.94,-49.4"/>
</g>
<!-- Node6 -->
<g id="node6" class="node">
<title>Node6</title>
<g id="a_node6"><a xlink:href="classfire_1_1Conditions.html" target="_top" xlink:title="Container and cache for conditions and conditions providers.">
<polygon fill="none" stroke="black" points="278,-124.5 278,-143.5 368,-143.5 368,-124.5 278,-124.5"/>
<text text-anchor="middle" x="323" y="-131.5" font-family="Helvetica,sans-Serif" font-size="10.00">fire::Conditions</text>
</a>
</g>
</g>
<!-- Node6&#45;&gt;Node5 -->
<g id="edge5" class="edge">
<title>Node6&#45;&gt;Node5</title>
<path fill="none" stroke="#9a32cd" stroke-dasharray="5,2" d="M350.33,-120.05C366.66,-112.46 387.87,-102.85 407,-95 423,-88.43 441.25,-81.68 455.5,-76.57"/>
<polygon fill="#9a32cd" stroke="#9a32cd" points="348.44,-117.07 340.86,-124.48 351.41,-123.41 348.44,-117.07"/>
<text text-anchor="middle" x="436.5" y="-98" font-family="Helvetica,sans-Serif" font-size="10.00"> conditions_</text>
</g>
<!-- Node7 -->
<g id="node7" class="node">
<title>Node7</title>
<g id="a_node7"><a xlink:href="classfire_1_1Process.html" target="_top" xlink:title=" ">
<polygon fill="none" stroke="black" points="216,-192.5 216,-211.5 292,-211.5 292,-192.5 216,-192.5"/>
<text text-anchor="middle" x="254" y="-199.5" font-family="Helvetica,sans-Serif" font-size="10.00">fire::Process</text>
</a>
</g>
</g>
<!-- Node6&#45;&gt;Node7 -->
<g id="edge9" class="edge">
<title>Node6&#45;&gt;Node7</title>
<path fill="none" stroke="#9a32cd" stroke-dasharray="5,2" d="M315.06,-152.9C311.44,-159.73 306.69,-167.24 301,-173 293.12,-180.97 282.52,-187.55 273.38,-192.31"/>
<polygon fill="#9a32cd" stroke="#9a32cd" points="318.31,-154.2 319.52,-143.68 312.01,-151.15 318.31,-154.2"/>
<text text-anchor="middle" x="338.5" y="-165" font-family="Helvetica,sans-Serif" font-size="10.00"> conditions_</text>
</g>
<!-- Node7&#45;&gt;Node6 -->
<g id="edge6" class="edge">
<title>Node7&#45;&gt;Node6</title>
<path fill="none" stroke="#9a32cd" stroke-dasharray="5,2" d="M250.39,-182.39C250.03,-175.44 250.93,-167.83 255,-162 260.96,-153.46 270.08,-147.62 279.72,-143.63"/>
<polygon fill="#9a32cd" stroke="#9a32cd" points="246.93,-182.95 251.7,-192.41 253.87,-182.04 246.93,-182.95"/>
<text text-anchor="middle" x="278" y="-165" font-family="Helvetica,sans-Serif" font-size="10.00"> process_</text>
</g>
<!-- Node8 -->
<g id="node8" class="node">
<title>Node8</title>
<g id="a_node8"><a xlink:href="classfire_1_1h5_1_1Writer.html" target="_top" xlink:title="Write the fire DataSets into a deterministic structure in the output HDF5 data file.">
<polygon fill="none" stroke="black" points="0,-369.5 0,-388.5 86,-388.5 86,-369.5 0,-369.5"/>
<text text-anchor="middle" x="43" y="-376.5" font-family="Helvetica,sans-Serif" font-size="10.00">fire::h5::Writer</text>
</a>
</g>
</g>
<!-- Node8&#45;&gt;Node7 -->
<g id="edge7" class="edge">
<title>Node8&#45;&gt;Node7</title>
<path fill="none" stroke="#9a32cd" stroke-dasharray="5,2" d="M39.26,-359.39C35.64,-335.7 33.33,-294.75 54,-269 93.25,-220.1 169.67,-207.09 215.84,-203.84"/>
<polygon fill="#9a32cd" stroke="#9a32cd" points="35.86,-360.26 41.05,-369.5 42.75,-359.04 35.86,-360.26"/>
<text text-anchor="middle" x="84.5" y="-276.5" font-family="Helvetica,sans-Serif" font-size="10.00"> output_file_</text>
</g>
<!-- Node8&#45;&gt;Node10 -->
<g id="edge12" class="edge">
<title>Node8&#45;&gt;Node10</title>
<path fill="none" stroke="#9a32cd" stroke-dasharray="5,2" d="M50.73,-360.07C58.38,-344.19 71.49,-321.36 89,-307 99.12,-298.7 112.1,-292.71 124.01,-288.51"/>
<polygon fill="#9a32cd" stroke="#9a32cd" points="47.46,-358.79 46.49,-369.34 53.83,-361.7 47.46,-358.79"/>
<text text-anchor="middle" x="119.5" y="-326.5" font-family="Helvetica,sans-Serif" font-size="10.00"> output_file_</text>
</g>
<!-- Node9 -->
<g id="node9" class="node">
<title>Node9</title>
<g id="a_node9"><a xlink:href="classfire_1_1StorageControl.html" target="_top" xlink:title="Isolation of voting system deciding if events should be kept.">
<polygon fill="none" stroke="black" points="318.5,-269.5 318.5,-288.5 429.5,-288.5 429.5,-269.5 318.5,-269.5"/>
<text text-anchor="middle" x="374" y="-276.5" font-family="Helvetica,sans-Serif" font-size="10.00">fire::StorageControl</text>
</a>
</g>
</g>
<!-- Node9&#45;&gt;Node7 -->
<g id="edge8" class="edge">
<title>Node9&#45;&gt;Node7</title>
<path fill="none" stroke="#9a32cd" stroke-dasharray="5,2" d="M359.25,-262.11C349.42,-252.2 335.81,-239.71 322,-231 309.15,-222.89 293.55,-216.27 280.54,-211.51"/>
<polygon fill="#9a32cd" stroke="#9a32cd" points="356.8,-264.61 366.26,-269.39 361.85,-259.76 356.8,-264.61"/>
<text text-anchor="middle" x="389.5" y="-238.5" font-family="Helvetica,sans-Serif" font-size="10.00"> storage_control_</text>
</g>
<!-- Node10&#45;&gt;Node7 -->
<g id="edge10" class="edge">
<title>Node10&#45;&gt;Node7</title>
<path fill="none" stroke="#9a32cd" stroke-dasharray="5,2" d="M174.22,-262.79C185.12,-253.35 199.62,-241.14 213,-231 222.07,-224.13 232.68,-216.9 240.84,-211.51"/>
<polygon fill="#9a32cd" stroke="#9a32cd" points="171.9,-260.16 166.67,-269.38 176.51,-265.44 171.9,-260.16"/>
<text text-anchor="middle" x="231.5" y="-238.5" font-family="Helvetica,sans-Serif" font-size="10.00"> event_</text>
</g>
<!-- Node11 -->
<g id="node11" class="node">
<title>Node11</title>
<g id="a_node11"><a xlink:href="classfire_1_1h5_1_1Reader.html" target="_top" xlink:title="Reading a file generated by fire.">
<polygon fill="none" stroke="black" points="106.5,-369.5 106.5,-388.5 197.5,-388.5 197.5,-369.5 106.5,-369.5"/>
<text text-anchor="middle" x="152" y="-376.5" font-family="Helvetica,sans-Serif" font-size="10.00">fire::h5::Reader</text>
</a>
</g>
</g>
<!-- Node11&#45;&gt;Node10 -->
<g id="edge11" class="edge">
<title>Node11&#45;&gt;Node10</title>
<path fill="none" stroke="#9a32cd" stroke-dasharray="5,2" d="M152.96,-359.22C154.04,-337.95 155.76,-304.22 156.56,-288.54"/>
<polygon fill="#9a32cd" stroke="#9a32cd" points="149.46,-359.14 152.44,-369.3 156.45,-359.49 149.46,-359.14"/>
<text text-anchor="middle" x="183" y="-326.5" font-family="Helvetica,sans-Serif" font-size="10.00"> input_file_</text>
</g>
<!-- Node12&#45;&gt;Node7 -->
<g id="edge14" class="edge">
<title>Node12&#45;&gt;Node7</title>
<path fill="none" stroke="#9a32cd" stroke-dasharray="5,2" d="M254,-259.02C254,-243.74 254,-222.98 254,-211.5"/>
<polygon fill="#9a32cd" stroke="#9a32cd" points="250.5,-259.4 254,-269.4 257.5,-259.4 250.5,-259.4"/>
<text text-anchor="middle" x="286" y="-238.5" font-family="Helvetica,sans-Serif" font-size="10.00"> run_header_</text>
</g>
<!-- Node13 -->
<g id="node13" class="node">
<title>Node13</title>
<g id="a_node13"><a xlink:href="classfire_1_1h5_1_1ParameterStorage.html" target="_top" xlink:title="Provides dynamic parameter storage by interfacing between a map to variants storing parameters and a ...">
<polygon fill="none" stroke="black" points="216,-369.5 216,-388.5 360,-388.5 360,-369.5 216,-369.5"/>
<text text-anchor="middle" x="288" y="-376.5" font-family="Helvetica,sans-Serif" font-size="10.00">fire::h5::ParameterStorage</text>
</a>
</g>
</g>
<!-- Node13&#45;&gt;Node12 -->
<g id="edge16" class="edge">
<title>Node13&#45;&gt;Node12</title>
<path fill="none" stroke="#9a32cd" stroke-dasharray="5,2" d="M259.19,-363.76C254.69,-360.23 250.65,-355.99 248,-351 237.32,-330.9 245.09,-303.02 250.31,-288.92"/>
<polygon fill="#9a32cd" stroke="#9a32cd" points="257.35,-366.74 267.61,-369.37 261.23,-360.91 257.35,-366.74"/>
<text text-anchor="middle" x="280.5" y="-326.5" font-family="Helvetica,sans-Serif" font-size="10.00"> parameters_</text>
</g>
</g>
</svg>
