<?xml version="1.0" encoding="UTF-8" standalone="no"?>
<!DOCTYPE svg PUBLIC "-//W3C//DTD SVG 1.1//EN"
 "http://www.w3.org/Graphics/SVG/1.1/DTD/svg11.dtd">
<!-- Generated by graphviz version 2.43.0 (0)
 -->
<!-- Title: fire::Event Pages: 1 -->
<svg width="313pt" height="195pt"
 viewBox="0.00 0.00 312.50 195.00" xmlns="http://www.w3.org/2000/svg" xmlns:xlink="http://www.w3.org/1999/xlink">
<g id="graph0" class="graph" transform="scale(1 1) rotate(0) translate(4 191)">
<title>fire::Event</title>
<!-- Node1 -->
<g id="node1" class="node">
<title>Node1</title>
<g id="a_node1"><a xlink:title="Event class for interfacing with processors.">
<polygon fill="#bfbfbf" stroke="black" points="119.5,-0.5 119.5,-19.5 185.5,-19.5 185.5,-0.5 119.5,-0.5"/>
<text text-anchor="middle" x="152.5" y="-7.5" font-family="Helvetica,sans-Serif" font-size="10.00">fire::Event</text>
</a>
</g>
</g>
<!-- Node2 -->
<g id="node2" class="node">
<title>Node2</title>
<g id="a_node2"><a xlink:href="classfire_1_1h5_1_1Reader.html" target="_top" xlink:title="Reading a file generated by fire.">
<polygon fill="none" stroke="black" points="0,-67.5 0,-86.5 91,-86.5 91,-67.5 0,-67.5"/>
<text text-anchor="middle" x="45.5" y="-74.5" font-family="Helvetica,sans-Serif" font-size="10.00">fire::h5::Reader</text>
</a>
</g>
</g>
<!-- Node2&#45;&gt;Node1 -->
<g id="edge1" class="edge">
<title>Node2&#45;&gt;Node1</title>
<path fill="none" stroke="#9a32cd" stroke-dasharray="5,2" d="M63.02,-60.87C72.07,-53.46 83.5,-44.71 94.5,-38 106.16,-30.89 120.01,-24.38 131.25,-19.53"/>
<polygon fill="#9a32cd" stroke="#9a32cd" points="60.58,-58.35 55.16,-67.45 65.07,-63.71 60.58,-58.35"/>
<text text-anchor="middle" x="121.5" y="-41" font-family="Helvetica,sans-Serif" font-size="10.00"> input_file_</text>
</g>
<!-- Node3 -->
<g id="node3" class="node">
<title>Node3</title>
<g id="a_node3"><a target="_parent" xlink:href="http://en.cppreference.com/w/cpp/types/size_t.html" xlink:title=" ">
<polygon fill="none" stroke="black" points="64.5,-162 64.5,-181 130.5,-181 130.5,-162 64.5,-162"/>
<text text-anchor="middle" x="97.5" y="-169" font-family="Helvetica,sans-Serif" font-size="10.00">std::size_t</text>
</a>
</g>
</g>
<!-- Node3&#45;&gt;Node2 -->
<g id="edge2" class="edge">
<title>Node3&#45;&gt;Node2</title>
<path fill="none" stroke="#9a32cd" stroke-dasharray="5,2" d="M64.71,-156.93C57.06,-152.13 49.88,-145.9 45.5,-138 36.51,-121.78 40.02,-99.11 43,-86.8"/>
<polygon fill="#9a32cd" stroke="#9a32cd" points="63.32,-160.16 73.77,-161.93 66.7,-154.03 63.32,-160.16"/>
<text text-anchor="middle" x="88" y="-130" font-family="Helvetica,sans-Serif" font-size="10.00"> entries_</text>
<text text-anchor="middle" x="88" y="-119" font-family="Helvetica,sans-Serif" font-size="10.00">rows_per_chunk_</text>
<text text-anchor="middle" x="88" y="-108" font-family="Helvetica,sans-Serif" font-size="10.00">runs_</text>
</g>
<!-- Node4 -->
<g id="node4" class="node">
<title>Node4</title>
<g id="a_node4"><a xlink:href="classfire_1_1h5_1_1Writer.html" target="_top" xlink:title="Write the fire DataSets into a deterministic structure in the output HDF5 data file.">
<polygon fill="none" stroke="black" points="109.5,-67.5 109.5,-86.5 195.5,-86.5 195.5,-67.5 109.5,-67.5"/>
<text text-anchor="middle" x="152.5" y="-74.5" font-family="Helvetica,sans-Serif" font-size="10.00">fire::h5::Writer</text>
</a>
</g>
</g>
<!-- Node3&#45;&gt;Node4 -->
<g id="edge4" class="edge">
<title>Node3&#45;&gt;Node4</title>
<path fill="none" stroke="#9a32cd" stroke-dasharray="5,2" d="M116.32,-154.78C121.43,-149.81 126.61,-144.03 130.5,-138 141.19,-121.4 147.65,-98.88 150.6,-86.69"/>
<polygon fill="#9a32cd" stroke="#9a32cd" points="113.6,-152.52 108.55,-161.83 118.31,-157.7 113.6,-152.52"/>
<text text-anchor="middle" x="188" y="-124.5" font-family="Helvetica,sans-Serif" font-size="10.00"> entries_</text>
<text text-anchor="middle" x="188" y="-113.5" font-family="Helvetica,sans-Serif" font-size="10.00">rows_per_chunk_</text>
</g>
<!-- Node4&#45;&gt;Node1 -->
<g id="edge3" class="edge">
<title>Node4&#45;&gt;Node1</title>
<path fill="none" stroke="#9a32cd" stroke-dasharray="5,2" d="M152.5,-57.04C152.5,-44.67 152.5,-29.12 152.5,-19.63"/>
<polygon fill="#9a32cd" stroke="#9a32cd" points="149,-57.23 152.5,-67.23 156,-57.23 149,-57.23"/>
<text text-anchor="middle" x="183" y="-41" font-family="Helvetica,sans-Serif" font-size="10.00"> output_file_</text>
</g>
<!-- Node5 -->
<g id="node5" class="node">
<title>Node5</title>
<g id="a_node5"><a target="_parent" xlink:href="http://en.cppreference.com/w/cpp/string/basic_string.html" xlink:title=" ">
<polygon fill="none" stroke="black" points="217,-67.5 217,-86.5 282,-86.5 282,-67.5 217,-67.5"/>
<text text-anchor="middle" x="249.5" y="-74.5" font-family="Helvetica,sans-Serif" font-size="10.00">std::string</text>
</a>
</g>
</g>
<!-- Node5&#45;&gt;Node1 -->
<g id="edge5" class="edge">
<title>Node5&#45;&gt;Node1</title>
<path fill="none" stroke="#9a32cd" stroke-dasharray="5,2" d="M237.99,-58.97C232.45,-51.77 225.33,-43.73 217.5,-38 206.66,-30.06 193.13,-23.95 181.23,-19.58"/>
<polygon fill="#9a32cd" stroke="#9a32cd" points="235.39,-61.35 244.07,-67.42 241.07,-57.26 235.39,-61.35"/>
<text text-anchor="middle" x="246" y="-41" font-family="Helvetica,sans-Serif" font-size="10.00"> pass_</text>
</g>
<!-- Node6 -->
<g id="node6" class="node">
<title>Node6</title>
<g id="a_node6"><a target="_parent" xlink:href="http://en.cppreference.com/w/cpp/string/basic_string.html" xlink:title=" ">
<polygon fill="none" stroke="black" points="200.5,-156.5 200.5,-186.5 304.5,-186.5 304.5,-156.5 200.5,-156.5"/>
<text text-anchor="start" x="208.5" y="-174.5" font-family="Helvetica,sans-Serif" font-size="10.00">std::basic_string&lt;</text>
<text text-anchor="middle" x="252.5" y="-163.5" font-family="Helvetica,sans-Serif" font-size="10.00"> char &gt;</text>
</a>
</g>
</g>
<!-- Node6&#45;&gt;Node5 -->
<g id="edge6" class="edge">
<title>Node6&#45;&gt;Node5</title>
<path fill="none" stroke="midnightblue" d="M251.72,-146.38C251.08,-126.74 250.22,-100.12 249.78,-86.62"/>
<polygon fill="midnightblue" stroke="midnightblue" points="248.22,-146.57 252.04,-156.45 255.22,-146.34 248.22,-146.57"/>
</g>
</g>
</svg>
