<?xml version="1.0" encoding="UTF-8" standalone="no"?>
<!DOCTYPE svg PUBLIC "-//W3C//DTD SVG 1.1//EN"
 "http://www.w3.org/Graphics/SVG/1.1/DTD/svg11.dtd">
<!-- Generated by graphviz version 2.43.0 (0)
 -->
<!-- Title: fire::ConditionsProvider Pages: 1 -->
<svg width="562pt" height="431pt"
 viewBox="0.00 0.00 562.00 431.00" xmlns="http://www.w3.org/2000/svg" xmlns:xlink="http://www.w3.org/1999/xlink">
<g id="graph0" class="graph" transform="scale(1 1) rotate(0) translate(4 427)">
<title>fire::ConditionsProvider</title>
<!-- Node1 -->
<g id="node1" class="node">
<title>Node1</title>
<g id="a_node1"><a xlink:title="Base class for all providers of conditions objects.">
<polygon fill="#bfbfbf" stroke="black" points="330.5,-0.5 330.5,-19.5 461.5,-19.5 461.5,-0.5 330.5,-0.5"/>
<text text-anchor="middle" x="396" y="-7.5" font-family="Helvetica,sans-Serif" font-size="10.00">fire::ConditionsProvider</text>
</a>
</g>
</g>
<!-- Node2 -->
<g id="node2" class="node">
<title>Node2</title>
<g id="a_node2"><a xlink:href="classfire_1_1Conditions.html" target="_top" xlink:title="Container and cache for conditions and conditions providers.">
<polygon fill="none" stroke="black" points="282,-67.5 282,-86.5 372,-86.5 372,-67.5 282,-67.5"/>
<text text-anchor="middle" x="327" y="-74.5" font-family="Helvetica,sans-Serif" font-size="10.00">fire::Conditions</text>
</a>
</g>
</g>
<!-- Node2&#45;&gt;Node1 -->
<g id="edge1" class="edge">
<title>Node2&#45;&gt;Node1</title>
<path fill="none" stroke="#9a32cd" stroke-dasharray="5,2" d="M343.61,-60.36C357.17,-47.58 375.84,-29.99 386.84,-19.63"/>
<polygon fill="#9a32cd" stroke="#9a32cd" points="341.18,-57.83 336.31,-67.23 345.98,-62.92 341.18,-57.83"/>
<text text-anchor="middle" x="394.5" y="-41" font-family="Helvetica,sans-Serif" font-size="10.00"> conditions_</text>
</g>
<!-- Node3 -->
<g id="node3" class="node">
<title>Node3</title>
<g id="a_node3"><a xlink:href="classfire_1_1Process.html" target="_top" xlink:title="The central object managing the data processing.">
<polygon fill="none" stroke="black" points="207,-135.5 207,-154.5 283,-154.5 283,-135.5 207,-135.5"/>
<text text-anchor="middle" x="245" y="-142.5" font-family="Helvetica,sans-Serif" font-size="10.00">fire::Process</text>
</a>
</g>
</g>
<!-- Node3&#45;&gt;Node2 -->
<g id="edge2" class="edge">
<title>Node3&#45;&gt;Node2</title>
<path fill="none" stroke="#9a32cd" stroke-dasharray="5,2" d="M263.52,-129.1C279.79,-116 302.89,-97.4 316.28,-86.63"/>
<polygon fill="#9a32cd" stroke="#9a32cd" points="261.32,-126.37 255.72,-135.37 265.7,-131.83 261.32,-126.37"/>
<text text-anchor="middle" x="316" y="-108" font-family="Helvetica,sans-Serif" font-size="10.00"> process_</text>
</g>
<!-- Node4 -->
<g id="node4" class="node">
<title>Node4</title>
<g id="a_node4"><a xlink:href="classfire_1_1h5_1_1Writer.html" target="_top" xlink:title="Write the fire DataSets into a deterministic structure in the output HDF5 data file.">
<polygon fill="none" stroke="black" points="0,-303.5 0,-322.5 86,-322.5 86,-303.5 0,-303.5"/>
<text text-anchor="middle" x="43" y="-310.5" font-family="Helvetica,sans-Serif" font-size="10.00">fire::h5::Writer</text>
</a>
</g>
</g>
<!-- Node4&#45;&gt;Node3 -->
<g id="edge3" class="edge">
<title>Node4&#45;&gt;Node3</title>
<path fill="none" stroke="#9a32cd" stroke-dasharray="5,2" d="M37.25,-293.45C31.18,-269.85 24.97,-229.03 45,-203 64.7,-177.39 154.63,-159.73 206.95,-151.42"/>
<polygon fill="#9a32cd" stroke="#9a32cd" points="33.93,-294.58 40.03,-303.24 40.67,-292.67 33.93,-294.58"/>
<text text-anchor="middle" x="75.5" y="-210.5" font-family="Helvetica,sans-Serif" font-size="10.00"> output_file_</text>
</g>
<!-- Node7 -->
<g id="node7" class="node">
<title>Node7</title>
<g id="a_node7"><a xlink:href="classfire_1_1Event.html" target="_top" xlink:title="Event class for interfacing with processors.">
<polygon fill="none" stroke="black" points="115,-203.5 115,-222.5 181,-222.5 181,-203.5 115,-203.5"/>
<text text-anchor="middle" x="148" y="-210.5" font-family="Helvetica,sans-Serif" font-size="10.00">fire::Event</text>
</a>
</g>
</g>
<!-- Node4&#45;&gt;Node7 -->
<g id="edge9" class="edge">
<title>Node4&#45;&gt;Node7</title>
<path fill="none" stroke="#9a32cd" stroke-dasharray="5,2" d="M49.67,-293.69C56.25,-277.88 67.7,-255.39 84,-241 93.31,-232.78 105.49,-226.8 116.72,-222.6"/>
<polygon fill="#9a32cd" stroke="#9a32cd" points="46.27,-292.79 45.9,-303.38 52.79,-295.34 46.27,-292.79"/>
<text text-anchor="middle" x="114.5" y="-260.5" font-family="Helvetica,sans-Serif" font-size="10.00"> output_file_</text>
</g>
<!-- Node5 -->
<g id="node5" class="node">
<title>Node5</title>
<g id="a_node5"><a target="_parent" xlink:href="http://en.cppreference.com/w/cpp/types/size_t.html" xlink:title=" ">
<polygon fill="none" stroke="black" points="64,-398 64,-417 130,-417 130,-398 64,-398"/>
<text text-anchor="middle" x="97" y="-405" font-family="Helvetica,sans-Serif" font-size="10.00">std::size_t</text>
</a>
</g>
</g>
<!-- Node5&#45;&gt;Node4 -->
<g id="edge4" class="edge">
<title>Node5&#45;&gt;Node4</title>
<path fill="none" stroke="#9a32cd" stroke-dasharray="5,2" d="M63.94,-393.16C56.05,-388.34 48.59,-382.04 44,-374 34.81,-357.89 37.91,-335.18 40.66,-322.83"/>
<polygon fill="#9a32cd" stroke="#9a32cd" points="62.44,-396.33 72.91,-397.99 65.76,-390.17 62.44,-396.33"/>
<text text-anchor="middle" x="86.5" y="-360.5" font-family="Helvetica,sans-Serif" font-size="10.00"> entries_</text>
<text text-anchor="middle" x="86.5" y="-349.5" font-family="Helvetica,sans-Serif" font-size="10.00">rows_per_chunk_</text>
</g>
<!-- Node8 -->
<g id="node8" class="node">
<title>Node8</title>
<g id="a_node8"><a xlink:href="classfire_1_1h5_1_1Reader.html" target="_top" xlink:title="Reading a file generated by fire.">
<polygon fill="none" stroke="black" points="105.5,-303.5 105.5,-322.5 196.5,-322.5 196.5,-303.5 105.5,-303.5"/>
<text text-anchor="middle" x="151" y="-310.5" font-family="Helvetica,sans-Serif" font-size="10.00">fire::h5::Reader</text>
</a>
</g>
</g>
<!-- Node5&#45;&gt;Node8 -->
<g id="edge8" class="edge">
<title>Node5&#45;&gt;Node8</title>
<path fill="none" stroke="#9a32cd" stroke-dasharray="5,2" d="M115.23,-390.7C120.18,-385.73 125.22,-379.97 129,-374 139.57,-357.32 146.07,-334.83 149.06,-322.67"/>
<polygon fill="#9a32cd" stroke="#9a32cd" points="112.59,-388.37 107.7,-397.77 117.39,-393.47 112.59,-388.37"/>
<text text-anchor="middle" x="186.5" y="-366" font-family="Helvetica,sans-Serif" font-size="10.00"> entries_</text>
<text text-anchor="middle" x="186.5" y="-355" font-family="Helvetica,sans-Serif" font-size="10.00">rows_per_chunk_</text>
<text text-anchor="middle" x="186.5" y="-344" font-family="Helvetica,sans-Serif" font-size="10.00">runs_</text>
</g>
<!-- Node6 -->
<g id="node6" class="node">
<title>Node6</title>
<g id="a_node6"><a xlink:href="classfire_1_1StorageControl.html" target="_top" xlink:title="Isolation of voting system deciding if events should be kept.">
<polygon fill="none" stroke="black" points="309.5,-203.5 309.5,-222.5 420.5,-222.5 420.5,-203.5 309.5,-203.5"/>
<text text-anchor="middle" x="365" y="-210.5" font-family="Helvetica,sans-Serif" font-size="10.00">fire::StorageControl</text>
</a>
</g>
</g>
<!-- Node6&#45;&gt;Node3 -->
<g id="edge5" class="edge">
<title>Node6&#45;&gt;Node3</title>
<path fill="none" stroke="#9a32cd" stroke-dasharray="5,2" d="M346.71,-196.96C337.06,-189.46 324.8,-180.61 313,-174 299.3,-166.32 283.07,-159.56 269.9,-154.6"/>
<polygon fill="#9a32cd" stroke="#9a32cd" points="344.74,-199.87 354.75,-203.35 349.1,-194.39 344.74,-199.87"/>
<text text-anchor="middle" x="371.5" y="-177" font-family="Helvetica,sans-Serif" font-size="10.00"> storage_control_</text>
</g>
<!-- Node7&#45;&gt;Node3 -->
<g id="edge6" class="edge">
<title>Node7&#45;&gt;Node3</title>
<path fill="none" stroke="#9a32cd" stroke-dasharray="5,2" d="M169.11,-197.63C188.4,-184.51 216.27,-165.55 232.32,-154.63"/>
<polygon fill="#9a32cd" stroke="#9a32cd" points="166.98,-194.85 160.68,-203.37 170.92,-200.64 166.98,-194.85"/>
<text text-anchor="middle" x="220.5" y="-177" font-family="Helvetica,sans-Serif" font-size="10.00"> event_</text>
</g>
<!-- Node8&#45;&gt;Node7 -->
<g id="edge7" class="edge">
<title>Node8&#45;&gt;Node7</title>
<path fill="none" stroke="#9a32cd" stroke-dasharray="5,2" d="M150.43,-293.22C149.77,-271.95 148.74,-238.22 148.26,-222.54"/>
<polygon fill="#9a32cd" stroke="#9a32cd" points="146.93,-293.41 150.73,-303.3 153.93,-293.2 146.93,-293.41"/>
<text text-anchor="middle" x="178" y="-260.5" font-family="Helvetica,sans-Serif" font-size="10.00"> input_file_</text>
</g>
<!-- Node9 -->
<g id="node9" class="node">
<title>Node9</title>
<g id="a_node9"><a target="_parent" xlink:href="http://en.cppreference.com/w/cpp/string/basic_string.html" xlink:title=" ">
<polygon fill="none" stroke="black" points="249.5,-303.5 249.5,-322.5 314.5,-322.5 314.5,-303.5 249.5,-303.5"/>
<text text-anchor="middle" x="282" y="-310.5" font-family="Helvetica,sans-Serif" font-size="10.00">std::string</text>
</a>
</g>
</g>
<!-- Node9&#45;&gt;Node1 -->
<g id="edge15" class="edge">
<title>Node9&#45;&gt;Node1</title>
<path fill="none" stroke="#9a32cd" stroke-dasharray="5,2" d="M324.73,-305.83C374.21,-295.99 449,-271.59 449,-214 449,-214 449,-214 449,-76 449,-51.1 425.35,-30.46 409.65,-19.5"/>
<polygon fill="#9a32cd" stroke="#9a32cd" points="323.79,-302.44 314.6,-307.71 325.07,-309.33 323.79,-302.44"/>
<text text-anchor="middle" x="483" y="-148" font-family="Helvetica,sans-Serif" font-size="10.00"> objectName_</text>
<text text-anchor="middle" x="483" y="-137" font-family="Helvetica,sans-Serif" font-size="10.00">tagname_</text>
</g>
<!-- Node9&#45;&gt;Node7 -->
<g id="edge10" class="edge">
<title>Node9&#45;&gt;Node7</title>
<path fill="none" stroke="#9a32cd" stroke-dasharray="5,2" d="M244.81,-299.17C237.6,-295.43 230.56,-290.76 225,-285 210.2,-269.68 220.85,-256.27 206,-241 198.02,-232.8 187.08,-226.83 176.84,-222.62"/>
<polygon fill="#9a32cd" stroke="#9a32cd" points="243.4,-302.37 253.95,-303.41 246.35,-296.02 243.4,-302.37"/>
<text text-anchor="middle" x="240.5" y="-260.5" font-family="Helvetica,sans-Serif" font-size="10.00"> pass_</text>
</g>
<!-- Node11 -->
<g id="node11" class="node">
<title>Node11</title>
<g id="a_node11"><a xlink:href="classfire_1_1RunHeader.html" target="_top" xlink:title="Container for run parameters.">
<polygon fill="none" stroke="black" points="199,-203.5 199,-222.5 291,-222.5 291,-203.5 199,-203.5"/>
<text text-anchor="middle" x="245" y="-210.5" font-family="Helvetica,sans-Serif" font-size="10.00">fire::RunHeader</text>
</a>
</g>
</g>
<!-- Node9&#45;&gt;Node11 -->
<g id="edge13" class="edge">
<title>Node9&#45;&gt;Node11</title>
<path fill="none" stroke="#9a32cd" stroke-dasharray="5,2" d="M277.46,-293.72C273.57,-279.16 267.43,-258.4 260,-241 257.3,-234.69 253.55,-227.94 250.48,-222.77"/>
<polygon fill="#9a32cd" stroke="#9a32cd" points="274.09,-294.68 279.97,-303.49 280.87,-292.93 274.09,-294.68"/>
<text text-anchor="middle" x="312" y="-277" font-family="Helvetica,sans-Serif" font-size="10.00"> NAME</text>
<text text-anchor="middle" x="312" y="-266" font-family="Helvetica,sans-Serif" font-size="10.00">description_</text>
<text text-anchor="middle" x="312" y="-255" font-family="Helvetica,sans-Serif" font-size="10.00">detectorName_</text>
<text text-anchor="middle" x="312" y="-244" font-family="Helvetica,sans-Serif" font-size="10.00">softwareTag_</text>
</g>
<!-- Node10 -->
<g id="node10" class="node">
<title>Node10</title>
<g id="a_node10"><a target="_parent" xlink:href="http://en.cppreference.com/w/cpp/string/basic_string.html" xlink:title=" ">
<polygon fill="none" stroke="black" points="230,-392.5 230,-422.5 334,-422.5 334,-392.5 230,-392.5"/>
<text text-anchor="start" x="238" y="-410.5" font-family="Helvetica,sans-Serif" font-size="10.00">std::basic_string&lt;</text>
<text text-anchor="middle" x="282" y="-399.5" font-family="Helvetica,sans-Serif" font-size="10.00"> char &gt;</text>
</a>
</g>
</g>
<!-- Node10&#45;&gt;Node9 -->
<g id="edge11" class="edge">
<title>Node10&#45;&gt;Node9</title>
<path fill="none" stroke="midnightblue" d="M282,-382.38C282,-362.74 282,-336.12 282,-322.62"/>
<polygon fill="midnightblue" stroke="midnightblue" points="278.5,-382.45 282,-392.45 285.5,-382.45 278.5,-382.45"/>
</g>
<!-- Node11&#45;&gt;Node3 -->
<g id="edge12" class="edge">
<title>Node11&#45;&gt;Node3</title>
<path fill="none" stroke="#9a32cd" stroke-dasharray="5,2" d="M245,-193.04C245,-180.47 245,-164.56 245,-154.84"/>
<polygon fill="#9a32cd" stroke="#9a32cd" points="241.5,-193.37 245,-203.37 248.5,-193.37 241.5,-193.37"/>
<text text-anchor="middle" x="277" y="-177" font-family="Helvetica,sans-Serif" font-size="10.00"> run_header_</text>
</g>
<!-- Node12 -->
<g id="node12" class="node">
<title>Node12</title>
<g id="a_node12"><a xlink:href="classfire_1_1h5_1_1ParameterStorage.html" target="_top" xlink:title="Provides dynamic parameter storage by interfacing between a map to variants storing parameters and a ...">
<polygon fill="none" stroke="black" points="410,-303.5 410,-322.5 554,-322.5 554,-303.5 410,-303.5"/>
<text text-anchor="middle" x="482" y="-310.5" font-family="Helvetica,sans-Serif" font-size="10.00">fire::h5::ParameterStorage</text>
</a>
</g>
</g>
<!-- Node12&#45;&gt;Node11 -->
<g id="edge14" class="edge">
<title>Node12&#45;&gt;Node11</title>
<path fill="none" stroke="#9a32cd" stroke-dasharray="5,2" d="M460.53,-297.77C435.78,-281.92 393.42,-256.5 354,-241 333.86,-233.08 310.69,-226.95 290.91,-222.55"/>
<polygon fill="#9a32cd" stroke="#9a32cd" points="458.82,-300.83 469.12,-303.33 462.63,-294.96 458.82,-300.83"/>
<text text-anchor="middle" x="469.5" y="-260.5" font-family="Helvetica,sans-Serif" font-size="10.00"> parameters_</text>
</g>
</g>
</svg>
