<?xml version="1.0" encoding="UTF-8" standalone="no"?>
<!DOCTYPE svg PUBLIC "-//W3C//DTD SVG 1.1//EN"
 "http://www.w3.org/Graphics/SVG/1.1/DTD/svg11.dtd">
<!-- Generated by graphviz version 2.43.0 (0)
 -->
<!-- Title: fire::Process Pages: 1 -->
<svg width="492pt" height="284pt"
 viewBox="0.00 0.00 492.11 284.00" xmlns="http://www.w3.org/2000/svg" xmlns:xlink="http://www.w3.org/1999/xlink">
<g id="graph0" class="graph" transform="scale(1 1) rotate(0) translate(4 280)">
<title>fire::Process</title>
<!-- Node1 -->
<g id="node1" class="node">
<title>Node1</title>
<g id="a_node1"><a xlink:title="The central object managing the data processing.">
<polygon fill="#bfbfbf" stroke="black" points="148.61,-0.5 148.61,-19.5 224.61,-19.5 224.61,-0.5 148.61,-0.5"/>
<text text-anchor="middle" x="186.61" y="-7.5" font-family="Helvetica,sans-Serif" font-size="10.00">fire::Process</text>
</a>
</g>
</g>
<!-- Node2 -->
<g id="node2" class="node">
<title>Node2</title>
<g id="a_node2"><a xlink:href="classfire_1_1io_1_1Writer.html" target="_top" xlink:title="Write the fire DataSets into a deterministic structure in the output HDF5 data file.">
<polygon fill="none" stroke="black" points="8.11,-167.5 8.11,-186.5 91.11,-186.5 91.11,-167.5 8.11,-167.5"/>
<text text-anchor="middle" x="49.61" y="-174.5" font-family="Helvetica,sans-Serif" font-size="10.00">fire::io::Writer</text>
</a>
</g>
</g>
<!-- Node2&#45;&gt;Node1 -->
<g id="edge1" class="edge">
<title>Node2&#45;&gt;Node1</title>
<path fill="none" stroke="#9a32cd" stroke-dasharray="5,2" d="M34.12,-159.66C14.68,-137.12 -13.69,-95.98 7.61,-67 39.81,-23.18 106.17,-12.7 148.42,-10.71"/>
<polygon fill="#9a32cd" stroke="#9a32cd" points="31.72,-162.23 41.01,-167.33 36.93,-157.55 31.72,-162.23"/>
<text text-anchor="middle" x="38.11" y="-74.5" font-family="Helvetica,sans-Serif" font-size="10.00"> output_file_</text>
</g>
<!-- Node5 -->
<g id="node5" class="node">
<title>Node5</title>
<g id="a_node5"><a xlink:href="classfire_1_1Event.html" target="_top" xlink:title="Event class for interfacing with processors.">
<polygon fill="none" stroke="black" points="206.61,-67.5 206.61,-86.5 272.61,-86.5 272.61,-67.5 206.61,-67.5"/>
<text text-anchor="middle" x="239.61" y="-74.5" font-family="Helvetica,sans-Serif" font-size="10.00">fire::Event</text>
</a>
</g>
</g>
<!-- Node2&#45;&gt;Node5 -->
<g id="edge6" class="edge">
<title>Node2&#45;&gt;Node5</title>
<path fill="none" stroke="#9a32cd" stroke-dasharray="5,2" d="M60.17,-158.77C71.18,-142.32 89.98,-118.16 112.61,-105 145.99,-85.58 159.84,-95.05 197.61,-87 200.53,-86.38 203.56,-85.73 206.6,-85.08"/>
<polygon fill="#9a32cd" stroke="#9a32cd" points="57.07,-157.11 54.62,-167.42 62.96,-160.89 57.07,-157.11"/>
<text text-anchor="middle" x="143.11" y="-124.5" font-family="Helvetica,sans-Serif" font-size="10.00"> output_file_</text>
</g>
<!-- Node3 -->
<g id="node3" class="node">
<title>Node3</title>
<g id="a_node3"><a target="_parent" xlink:href="http://en.cppreference.com/w/cpp/types/size_t.html" xlink:title=" ">
<polygon fill="none" stroke="black" points="16.61,-251 16.61,-270 82.61,-270 82.61,-251 16.61,-251"/>
<text text-anchor="middle" x="49.61" y="-258" font-family="Helvetica,sans-Serif" font-size="10.00">std::size_t</text>
</a>
</g>
</g>
<!-- Node3&#45;&gt;Node2 -->
<g id="edge2" class="edge">
<title>Node3&#45;&gt;Node2</title>
<path fill="none" stroke="#9a32cd" stroke-dasharray="5,2" d="M49.61,-240.38C49.61,-223.4 49.61,-199.37 49.61,-186.66"/>
<polygon fill="#9a32cd" stroke="#9a32cd" points="46.11,-240.78 49.61,-250.78 53.11,-240.78 46.11,-240.78"/>
<text text-anchor="middle" x="92.11" y="-219" font-family="Helvetica,sans-Serif" font-size="10.00"> entries_</text>
<text text-anchor="middle" x="92.11" y="-208" font-family="Helvetica,sans-Serif" font-size="10.00">rows_per_chunk_</text>
</g>
<!-- Node4 -->
<g id="node4" class="node">
<title>Node4</title>
<g id="a_node4"><a xlink:href="classfire_1_1StorageControl.html" target="_top" xlink:title="Isolation of voting system deciding if events should be kept.">
<polygon fill="none" stroke="black" points="77.11,-67.5 77.11,-86.5 188.11,-86.5 188.11,-67.5 77.11,-67.5"/>
<text text-anchor="middle" x="132.61" y="-74.5" font-family="Helvetica,sans-Serif" font-size="10.00">fire::StorageControl</text>
</a>
</g>
</g>
<!-- Node4&#45;&gt;Node1 -->
<g id="edge3" class="edge">
<title>Node4&#45;&gt;Node1</title>
<path fill="none" stroke="#9a32cd" stroke-dasharray="5,2" d="M126.72,-57.33C125.75,-50.79 126.03,-43.66 129.61,-38 135,-29.49 143.87,-23.61 153.04,-19.56"/>
<polygon fill="#9a32cd" stroke="#9a32cd" points="123.41,-58.55 129.17,-67.44 130.21,-56.9 123.41,-58.55"/>
<text text-anchor="middle" x="172.11" y="-41" font-family="Helvetica,sans-Serif" font-size="10.00"> storage_control_</text>
</g>
<!-- Node5&#45;&gt;Node1 -->
<g id="edge4" class="edge">
<title>Node5&#45;&gt;Node1</title>
<path fill="none" stroke="#9a32cd" stroke-dasharray="5,2" d="M231.53,-58.28C228.05,-51.58 223.62,-44.11 218.61,-38 212.89,-31.03 205.2,-24.48 198.8,-19.58"/>
<polygon fill="#9a32cd" stroke="#9a32cd" points="228.39,-59.83 235.92,-67.3 234.69,-56.77 228.39,-59.83"/>
<text text-anchor="middle" x="244.11" y="-41" font-family="Helvetica,sans-Serif" font-size="10.00"> event_</text>
</g>
<!-- Node6 -->
<g id="node6" class="node">
<title>Node6</title>
<g id="a_node6"><a xlink:href="classfire_1_1io_1_1Reader.html" target="_top" xlink:title="Prototype for reading files within fire.">
<polygon fill="none" stroke="black" points="139.61,-167.5 139.61,-186.5 227.61,-186.5 227.61,-167.5 139.61,-167.5"/>
<text text-anchor="middle" x="183.61" y="-174.5" font-family="Helvetica,sans-Serif" font-size="10.00">fire::io::Reader</text>
</a>
</g>
</g>
<!-- Node6&#45;&gt;Node5 -->
<g id="edge5" class="edge">
<title>Node6&#45;&gt;Node5</title>
<path fill="none" stroke="#9a32cd" stroke-dasharray="5,2" d="M179.57,-157.47C177.29,-142.18 176.63,-120.54 186.61,-105 192.02,-96.57 200.94,-90.65 209.94,-86.55"/>
<polygon fill="#9a32cd" stroke="#9a32cd" points="176.13,-158.11 181.38,-167.31 183.01,-156.84 176.13,-158.11"/>
<text text-anchor="middle" x="213.61" y="-124.5" font-family="Helvetica,sans-Serif" font-size="10.00"> input_file_</text>
</g>
<!-- Node7 -->
<g id="node7" class="node">
<title>Node7</title>
<g id="a_node7"><a target="_parent" xlink:href="http://en.cppreference.com/w/cpp/string/basic_string.html" xlink:title=" ">
<polygon fill="none" stroke="black" points="253.11,-167.5 253.11,-186.5 318.11,-186.5 318.11,-167.5 253.11,-167.5"/>
<text text-anchor="middle" x="285.61" y="-174.5" font-family="Helvetica,sans-Serif" font-size="10.00">std::string</text>
</a>
</g>
</g>
<!-- Node7&#45;&gt;Node5 -->
<g id="edge7" class="edge">
<title>Node7&#45;&gt;Node5</title>
<path fill="none" stroke="#9a32cd" stroke-dasharray="5,2" d="M269.16,-159.69C266.37,-156.34 263.7,-152.7 261.61,-149 249.94,-128.32 243.68,-100.69 241.08,-86.78"/>
<polygon fill="#9a32cd" stroke="#9a32cd" points="266.76,-162.25 276.09,-167.27 271.93,-157.53 266.76,-162.25"/>
<text text-anchor="middle" x="277.11" y="-124.5" font-family="Helvetica,sans-Serif" font-size="10.00"> pass_</text>
</g>
<!-- Node9 -->
<g id="node9" class="node">
<title>Node9</title>
<g id="a_node9"><a xlink:href="classfire_1_1RunHeader.html" target="_top" xlink:title="Container for run parameters.">
<polygon fill="none" stroke="black" points="290.61,-67.5 290.61,-86.5 382.61,-86.5 382.61,-67.5 290.61,-67.5"/>
<text text-anchor="middle" x="336.61" y="-74.5" font-family="Helvetica,sans-Serif" font-size="10.00">fire::RunHeader</text>
</a>
</g>
</g>
<!-- Node7&#45;&gt;Node9 -->
<g id="edge10" class="edge">
<title>Node7&#45;&gt;Node9</title>
<path fill="none" stroke="#9a32cd" stroke-dasharray="5,2" d="M291.77,-157.89C297.12,-143.16 305.59,-122.09 315.61,-105 319.45,-98.44 324.7,-91.69 328.99,-86.58"/>
<polygon fill="#9a32cd" stroke="#9a32cd" points="288.46,-156.76 288.44,-167.35 295.06,-159.08 288.46,-156.76"/>
<text text-anchor="middle" x="353.61" y="-141" font-family="Helvetica,sans-Serif" font-size="10.00"> NAME</text>
<text text-anchor="middle" x="353.61" y="-130" font-family="Helvetica,sans-Serif" font-size="10.00">description_</text>
<text text-anchor="middle" x="353.61" y="-119" font-family="Helvetica,sans-Serif" font-size="10.00">detectorName_</text>
<text text-anchor="middle" x="353.61" y="-108" font-family="Helvetica,sans-Serif" font-size="10.00">softwareTag_</text>
</g>
<!-- Node8 -->
<g id="node8" class="node">
<title>Node8</title>
<g id="a_node8"><a target="_parent" xlink:href="http://en.cppreference.com/w/cpp/string/basic_string.html" xlink:title=" ">
<polygon fill="none" stroke="black" points="233.61,-245.5 233.61,-275.5 337.61,-275.5 337.61,-245.5 233.61,-245.5"/>
<text text-anchor="start" x="241.61" y="-263.5" font-family="Helvetica,sans-Serif" font-size="10.00">std::basic_string&lt;</text>
<text text-anchor="middle" x="285.61" y="-252.5" font-family="Helvetica,sans-Serif" font-size="10.00"> char &gt;</text>
</a>
</g>
</g>
<!-- Node8&#45;&gt;Node7 -->
<g id="edge8" class="edge">
<title>Node8&#45;&gt;Node7</title>
<path fill="none" stroke="midnightblue" d="M285.61,-235.25C285.61,-218.78 285.61,-197.99 285.61,-186.54"/>
<polygon fill="midnightblue" stroke="midnightblue" points="282.11,-235.3 285.61,-245.3 289.11,-235.3 282.11,-235.3"/>
</g>
<!-- Node9&#45;&gt;Node1 -->
<g id="edge9" class="edge">
<title>Node9&#45;&gt;Node1</title>
<path fill="none" stroke="#9a32cd" stroke-dasharray="5,2" d="M313.51,-62.15C300.1,-54.45 282.72,-45.03 266.61,-38 250.22,-30.85 231.28,-24.38 215.95,-19.57"/>
<polygon fill="#9a32cd" stroke="#9a32cd" points="312.09,-65.38 322.49,-67.4 315.62,-59.33 312.09,-65.38"/>
<text text-anchor="middle" x="319.61" y="-41" font-family="Helvetica,sans-Serif" font-size="10.00"> run_header_</text>
</g>
<!-- Node10 -->
<g id="node10" class="node">
<title>Node10</title>
<g id="a_node10"><a xlink:href="classfire_1_1io_1_1ParameterStorage.html" target="_top" xlink:title="Provides dynamic parameter storage by interfacing between a map to variants storing parameters and a ...">
<polygon fill="none" stroke="black" points="343.11,-167.5 343.11,-186.5 484.11,-186.5 484.11,-167.5 343.11,-167.5"/>
<text text-anchor="middle" x="413.61" y="-174.5" font-family="Helvetica,sans-Serif" font-size="10.00">fire::io::ParameterStorage</text>
</a>
</g>
</g>
<!-- Node10&#45;&gt;Node9 -->
<g id="edge11" class="edge">
<title>Node10&#45;&gt;Node9</title>
<path fill="none" stroke="#9a32cd" stroke-dasharray="5,2" d="M411.87,-157.03C409.56,-141.46 404.16,-119.68 391.61,-105 384.56,-96.75 374.39,-90.79 364.72,-86.6"/>
<polygon fill="#9a32cd" stroke="#9a32cd" points="408.41,-157.56 413.07,-167.07 415.36,-156.72 408.41,-157.56"/>
<text text-anchor="middle" x="442.11" y="-124.5" font-family="Helvetica,sans-Serif" font-size="10.00"> parameters_</text>
</g>
</g>
</svg>
