<?xml version="1.0" encoding="UTF-8" standalone="no"?>
<!DOCTYPE svg PUBLIC "-//W3C//DTD SVG 1.1//EN"
 "http://www.w3.org/Graphics/SVG/1.1/DTD/svg11.dtd">
<!-- Generated by graphviz version 2.43.0 (0)
 -->
<!-- Title: framework::EventProcessor Pages: 1 -->
<svg width="264pt" height="140pt"
 viewBox="0.00 0.00 264.00 140.00" xmlns="http://www.w3.org/2000/svg" xmlns:xlink="http://www.w3.org/1999/xlink">
<g id="graph0" class="graph" transform="scale(1 1) rotate(0) translate(4 136)">
<title>framework::EventProcessor</title>
<!-- Node1 -->
<g id="node1" class="node">
<title>Node1</title>
<g id="a_node1"><a xlink:title="Wrapper class for fire::Processor which does the necessary modifications on the constructors and adds...">
<polygon fill="#bfbfbf" stroke="black" points="52,-56.5 52,-75.5 203,-75.5 203,-56.5 52,-56.5"/>
<text text-anchor="middle" x="127.5" y="-63.5" font-family="Helvetica,sans-Serif" font-size="10.00">framework::EventProcessor</text>
</a>
</g>
</g>
<!-- Node3 -->
<g id="node3" class="node">
<title>Node3</title>
<g id="a_node3"><a xlink:href="classframework_1_1Analyzer.html" target="_top" xlink:title="Legacy analyzer class.">
<polygon fill="none" stroke="black" points="0,-0.5 0,-19.5 119,-19.5 119,-0.5 0,-0.5"/>
<text text-anchor="middle" x="59.5" y="-7.5" font-family="Helvetica,sans-Serif" font-size="10.00">framework::Analyzer</text>
</a>
</g>
</g>
<!-- Node1&#45;&gt;Node3 -->
<g id="edge2" class="edge">
<title>Node1&#45;&gt;Node3</title>
<path fill="none" stroke="midnightblue" d="M108.74,-50.1C96.5,-40.38 80.94,-28.03 70.62,-19.83"/>
<polygon fill="midnightblue" stroke="midnightblue" points="106.57,-52.85 116.57,-56.32 110.92,-47.36 106.57,-52.85"/>
</g>
<!-- Node4 -->
<g id="node4" class="node">
<title>Node4</title>
<g id="a_node4"><a xlink:href="classframework_1_1Producer.html" target="_top" xlink:title="Legacy producer class.">
<polygon fill="none" stroke="black" points="137,-0.5 137,-19.5 256,-19.5 256,-0.5 137,-0.5"/>
<text text-anchor="middle" x="196.5" y="-7.5" font-family="Helvetica,sans-Serif" font-size="10.00">framework::Producer</text>
</a>
</g>
</g>
<!-- Node1&#45;&gt;Node4 -->
<g id="edge3" class="edge">
<title>Node1&#45;&gt;Node4</title>
<path fill="none" stroke="midnightblue" d="M146.54,-50.1C158.96,-40.38 174.74,-28.03 185.21,-19.83"/>
<polygon fill="midnightblue" stroke="midnightblue" points="144.3,-47.4 138.59,-56.32 148.62,-52.92 144.3,-47.4"/>
</g>
<!-- Node2 -->
<g id="node2" class="node">
<title>Node2</title>
<g id="a_node2"><a xlink:href="classfire_1_1Processor.html" target="_top" xlink:title="Base class for all event processing components.">
<polygon fill="none" stroke="black" points="84.5,-112.5 84.5,-131.5 170.5,-131.5 170.5,-112.5 84.5,-112.5"/>
<text text-anchor="middle" x="127.5" y="-119.5" font-family="Helvetica,sans-Serif" font-size="10.00">fire::Processor</text>
</a>
</g>
</g>
<!-- Node2&#45;&gt;Node1 -->
<g id="edge1" class="edge">
<title>Node2&#45;&gt;Node1</title>
<path fill="none" stroke="midnightblue" d="M127.5,-101.8C127.5,-92.91 127.5,-82.78 127.5,-75.75"/>
<polygon fill="midnightblue" stroke="midnightblue" points="124,-102.08 127.5,-112.08 131,-102.08 124,-102.08"/>
</g>
</g>
</svg>
