<?xml version="1.0" encoding="UTF-8" standalone="no"?>
<!DOCTYPE svg PUBLIC "-//W3C//DTD SVG 1.1//EN"
 "http://www.w3.org/Graphics/SVG/1.1/DTD/svg11.dtd">
<!-- Generated by graphviz version 2.43.0 (0)
 -->
<!-- Title: fire::io::Data&lt; ParameterStorage &gt; Pages: 1 -->
<svg width="146pt" height="299pt"
 viewBox="0.00 0.00 146.00 299.00" xmlns="http://www.w3.org/2000/svg" xmlns:xlink="http://www.w3.org/1999/xlink">
<g id="graph0" class="graph" transform="scale(1 1) rotate(0) translate(4 295)">
<title>fire::io::Data&lt; ParameterStorage &gt;</title>
<!-- Node1 -->
<g id="node1" class="node">
<title>Node1</title>
<g id="a_node1"><a xlink:title="io::Data specialization for ParameterStorage">
<polygon fill="#bfbfbf" stroke="black" points="0,-0.5 0,-30.5 138,-30.5 138,-0.5 0,-0.5"/>
<text text-anchor="start" x="8" y="-18.5" font-family="Helvetica,sans-Serif" font-size="10.00">fire::io::Data&lt; Parameter</text>
<text text-anchor="middle" x="69" y="-7.5" font-family="Helvetica,sans-Serif" font-size="10.00">Storage &gt;</text>
</a>
</g>
</g>
<!-- Node2 -->
<g id="node2" class="node">
<title>Node2</title>
<g id="a_node2"><a xlink:href="classfire_1_1io_1_1AbstractData.html" target="_top" xlink:title=" ">
<polygon fill="none" stroke="black" points="5.5,-68.5 5.5,-98.5 132.5,-98.5 132.5,-68.5 5.5,-68.5"/>
<text text-anchor="start" x="13.5" y="-86.5" font-family="Helvetica,sans-Serif" font-size="10.00">fire::io::AbstractData</text>
<text text-anchor="middle" x="69" y="-75.5" font-family="Helvetica,sans-Serif" font-size="10.00">&lt; ParameterStorage &gt;</text>
</a>
</g>
</g>
<!-- Node2&#45;&gt;Node1 -->
<g id="edge1" class="edge">
<title>Node2&#45;&gt;Node1</title>
<path fill="none" stroke="midnightblue" d="M69,-58.03C69,-48.86 69,-38.74 69,-30.79"/>
<polygon fill="midnightblue" stroke="midnightblue" points="65.5,-58.18 69,-68.18 72.5,-58.18 65.5,-58.18"/>
</g>
<!-- Node3 -->
<g id="node3" class="node">
<title>Node3</title>
<g id="a_node3"><a xlink:href="classfire_1_1io_1_1BaseData.html" target="_top" xlink:title="Empty data base allowing recursion.">
<polygon fill="none" stroke="black" points="18.5,-136.5 18.5,-155.5 119.5,-155.5 119.5,-136.5 18.5,-136.5"/>
<text text-anchor="middle" x="69" y="-143.5" font-family="Helvetica,sans-Serif" font-size="10.00">fire::io::BaseData</text>
</a>
</g>
</g>
<!-- Node3&#45;&gt;Node2 -->
<g id="edge2" class="edge">
<title>Node3&#45;&gt;Node2</title>
<path fill="none" stroke="midnightblue" d="M69,-126.22C69,-117.36 69,-106.96 69,-98.76"/>
<polygon fill="midnightblue" stroke="midnightblue" points="65.5,-126.33 69,-136.33 72.5,-126.33 65.5,-126.33"/>
</g>
<!-- Node4 -->
<g id="node4" class="node">
<title>Node4</title>
<g id="a_node4"><a target="_parent" xlink:href="http://en.cppreference.com/w/cpp/string/basic_string.html" xlink:title=" ">
<polygon fill="none" stroke="black" points="36.5,-203.5 36.5,-222.5 101.5,-222.5 101.5,-203.5 36.5,-203.5"/>
<text text-anchor="middle" x="69" y="-210.5" font-family="Helvetica,sans-Serif" font-size="10.00">std::string</text>
</a>
</g>
</g>
<!-- Node4&#45;&gt;Node3 -->
<g id="edge3" class="edge">
<title>Node4&#45;&gt;Node3</title>
<path fill="none" stroke="#9a32cd" stroke-dasharray="5,2" d="M69,-193.04C69,-180.67 69,-165.12 69,-155.63"/>
<polygon fill="#9a32cd" stroke="#9a32cd" points="65.5,-193.23 69,-203.23 72.5,-193.23 65.5,-193.23"/>
<text text-anchor="middle" x="84.5" y="-177" font-family="Helvetica,sans-Serif" font-size="10.00"> path_</text>
</g>
<!-- Node5 -->
<g id="node5" class="node">
<title>Node5</title>
<g id="a_node5"><a target="_parent" xlink:href="http://en.cppreference.com/w/cpp/string/basic_string.html" xlink:title=" ">
<polygon fill="none" stroke="black" points="17,-260.5 17,-290.5 121,-290.5 121,-260.5 17,-260.5"/>
<text text-anchor="start" x="25" y="-278.5" font-family="Helvetica,sans-Serif" font-size="10.00">std::basic_string&lt;</text>
<text text-anchor="middle" x="69" y="-267.5" font-family="Helvetica,sans-Serif" font-size="10.00"> char &gt;</text>
</a>
</g>
</g>
<!-- Node5&#45;&gt;Node4 -->
<g id="edge4" class="edge">
<title>Node5&#45;&gt;Node4</title>
<path fill="none" stroke="midnightblue" d="M69,-250.35C69,-240.51 69,-229.78 69,-222.54"/>
<polygon fill="midnightblue" stroke="midnightblue" points="65.5,-250.47 69,-260.47 72.5,-250.47 65.5,-250.47"/>
</g>
</g>
</svg>
