<?xml version="1.0" encoding="UTF-8" standalone="no"?>
<!DOCTYPE svg PUBLIC "-//W3C//DTD SVG 1.1//EN"
 "http://www.w3.org/Graphics/SVG/1.1/DTD/svg11.dtd">
<!-- Generated by graphviz version 2.43.0 (0)
 -->
<!-- Title: fire::h5::BaseDataSet Pages: 1 -->
<svg width="596pt" height="259pt"
 viewBox="0.00 0.00 596.00 258.50" xmlns="http://www.w3.org/2000/svg" xmlns:xlink="http://www.w3.org/1999/xlink">
<g id="graph0" class="graph" transform="scale(1 1) rotate(0) translate(4 254.5)">
<title>fire::h5::BaseDataSet</title>
<!-- Node1 -->
<g id="node1" class="node">
<title>Node1</title>
<g id="a_node1"><a xlink:title="Empty dataset base allowing recursion.">
<polygon fill="#bfbfbf" stroke="black" points="0,-110 0,-129 119,-129 119,-110 0,-110"/>
<text text-anchor="middle" x="59.5" y="-117" font-family="Helvetica,sans-Serif" font-size="10.00">fire::h5::BaseDataSet</text>
</a>
</g>
</g>
<!-- Node2 -->
<g id="node2" class="node">
<title>Node2</title>
<g id="a_node2"><a xlink:href="classfire_1_1h5_1_1AbstractDataSet.html" target="_top" xlink:title=" ">
<polygon fill="none" stroke="black" points="181,-209.5 181,-239.5 317,-239.5 317,-209.5 181,-209.5"/>
<text text-anchor="start" x="189" y="-227.5" font-family="Helvetica,sans-Serif" font-size="10.00">fire::h5::AbstractDataSet</text>
<text text-anchor="middle" x="249" y="-216.5" font-family="Helvetica,sans-Serif" font-size="10.00">&lt; AtomicType &gt;</text>
</a>
</g>
</g>
<!-- Node1&#45;&gt;Node2 -->
<g id="edge1" class="edge">
<title>Node1&#45;&gt;Node2</title>
<path fill="none" stroke="midnightblue" d="M77.06,-136.47C94.86,-153.81 124.69,-180.41 155,-196.5 164.53,-201.56 175.11,-205.84 185.62,-209.41"/>
<polygon fill="midnightblue" stroke="midnightblue" points="79.34,-133.79 69.78,-129.22 74.4,-138.75 79.34,-133.79"/>
</g>
<!-- Node4 -->
<g id="node4" class="node">
<title>Node4</title>
<g id="a_node4"><a xlink:href="classfire_1_1h5_1_1AbstractDataSet.html" target="_top" xlink:title=" ">
<polygon fill="none" stroke="black" points="181,-156.5 181,-186.5 317,-186.5 317,-156.5 181,-156.5"/>
<text text-anchor="start" x="189" y="-174.5" font-family="Helvetica,sans-Serif" font-size="10.00">fire::h5::AbstractDataSet</text>
<text text-anchor="middle" x="249" y="-163.5" font-family="Helvetica,sans-Serif" font-size="10.00">&lt; ParameterStorage &gt;</text>
</a>
</g>
</g>
<!-- Node1&#45;&gt;Node4 -->
<g id="edge3" class="edge">
<title>Node1&#45;&gt;Node4</title>
<path fill="none" stroke="midnightblue" d="M104.69,-131.76C131.28,-139.13 165.34,-148.58 193.58,-156.41"/>
<polygon fill="midnightblue" stroke="midnightblue" points="105.46,-128.34 94.89,-129.04 103.59,-135.08 105.46,-128.34"/>
</g>
<!-- Node6 -->
<g id="node6" class="node">
<title>Node6</title>
<g id="a_node6"><a xlink:href="classfire_1_1h5_1_1AbstractDataSet.html" target="_top" xlink:title=" ">
<polygon fill="none" stroke="black" points="155,-104.5 155,-134.5 343,-134.5 343,-104.5 155,-104.5"/>
<text text-anchor="start" x="163" y="-122.5" font-family="Helvetica,sans-Serif" font-size="10.00">fire::h5::AbstractDataSet</text>
<text text-anchor="middle" x="249" y="-111.5" font-family="Helvetica,sans-Serif" font-size="10.00">&lt; std::map&lt; KeyType, ValType &gt; &gt;</text>
</a>
</g>
</g>
<!-- Node1&#45;&gt;Node6 -->
<g id="edge5" class="edge">
<title>Node1&#45;&gt;Node6</title>
<path fill="none" stroke="midnightblue" d="M129.12,-119.5C137.5,-119.5 146.17,-119.5 154.83,-119.5"/>
<polygon fill="midnightblue" stroke="midnightblue" points="129.05,-116 119.05,-119.5 129.05,-123 129.05,-116"/>
</g>
<!-- Node8 -->
<g id="node8" class="node">
<title>Node8</title>
<g id="a_node8"><a xlink:href="classfire_1_1h5_1_1AbstractDataSet.html" target="_top" xlink:title=" ">
<polygon fill="none" stroke="black" points="162,-52.5 162,-82.5 336,-82.5 336,-52.5 162,-52.5"/>
<text text-anchor="start" x="170" y="-70.5" font-family="Helvetica,sans-Serif" font-size="10.00">fire::h5::AbstractDataSet</text>
<text text-anchor="middle" x="249" y="-59.5" font-family="Helvetica,sans-Serif" font-size="10.00">&lt; std::vector&lt; ContentType &gt; &gt;</text>
</a>
</g>
</g>
<!-- Node1&#45;&gt;Node8 -->
<g id="edge7" class="edge">
<title>Node1&#45;&gt;Node8</title>
<path fill="none" stroke="midnightblue" d="M104.69,-107.24C131.28,-99.87 165.34,-90.42 193.58,-82.59"/>
<polygon fill="midnightblue" stroke="midnightblue" points="103.59,-103.92 94.89,-109.96 105.46,-110.66 103.59,-103.92"/>
</g>
<!-- Node10 -->
<g id="node10" class="node">
<title>Node10</title>
<g id="a_node10"><a xlink:href="classfire_1_1h5_1_1AbstractDataSet.html" target="_top" xlink:title="Type&#45;specific base class to hold common dataset methods.">
<polygon fill="none" stroke="black" points="181,-3.5 181,-33.5 317,-33.5 317,-3.5 181,-3.5"/>
<text text-anchor="start" x="189" y="-21.5" font-family="Helvetica,sans-Serif" font-size="10.00">fire::h5::AbstractDataSet</text>
<text text-anchor="middle" x="249" y="-10.5" font-family="Helvetica,sans-Serif" font-size="10.00">&lt; DataType &gt;</text>
</a>
</g>
</g>
<!-- Node1&#45;&gt;Node10 -->
<g id="edge9" class="edge">
<title>Node1&#45;&gt;Node10</title>
<path fill="none" stroke="midnightblue" d="M76.65,-102.57C94.31,-85.04 124.21,-58.07 155,-42.5 163.04,-38.44 171.82,-35.02 180.68,-32.16"/>
<polygon fill="midnightblue" stroke="midnightblue" points="73.97,-100.31 69.45,-109.89 78.96,-105.22 73.97,-100.31"/>
</g>
<!-- Node3 -->
<g id="node3" class="node">
<title>Node3</title>
<g id="a_node3"><a xlink:href="classfire_1_1h5_1_1DataSet_3_01AtomicType_00_01std_1_1enable__if__t_3_01is__atomic__v_3_01AtomicType_01_4_01_4_01_4.html" target="_top" xlink:title="Atomic types.">
<polygon fill="none" stroke="black" points="379,-209 379,-250 588,-250 588,-209 379,-209"/>
<text text-anchor="start" x="387" y="-238" font-family="Helvetica,sans-Serif" font-size="10.00">fire::h5::DataSet&lt;</text>
<text text-anchor="start" x="387" y="-227" font-family="Helvetica,sans-Serif" font-size="10.00"> AtomicType, std::enable</text>
<text text-anchor="middle" x="483.5" y="-216" font-family="Helvetica,sans-Serif" font-size="10.00">_if_t&lt; is_atomic_v&lt; AtomicType &gt; &gt; &gt;</text>
</a>
</g>
</g>
<!-- Node2&#45;&gt;Node3 -->
<g id="edge2" class="edge">
<title>Node2&#45;&gt;Node3</title>
<path fill="none" stroke="midnightblue" d="M327.32,-226.16C343.75,-226.52 361.36,-226.89 378.6,-227.27"/>
<polygon fill="midnightblue" stroke="midnightblue" points="327.32,-222.66 317.25,-225.95 327.17,-229.66 327.32,-222.66"/>
</g>
<!-- Node5 -->
<g id="node5" class="node">
<title>Node5</title>
<g id="a_node5"><a xlink:href="classfire_1_1h5_1_1DataSet_3_01ParameterStorage_01_4.html" target="_top" xlink:title="DataSet specialization for ParameterStorage.">
<polygon fill="none" stroke="black" points="424,-159.5 424,-189.5 543,-189.5 543,-159.5 424,-159.5"/>
<text text-anchor="start" x="432" y="-177.5" font-family="Helvetica,sans-Serif" font-size="10.00">fire::h5::DataSet&lt;</text>
<text text-anchor="middle" x="483.5" y="-166.5" font-family="Helvetica,sans-Serif" font-size="10.00"> ParameterStorage &gt;</text>
</a>
</g>
</g>
<!-- Node4&#45;&gt;Node5 -->
<g id="edge4" class="edge">
<title>Node4&#45;&gt;Node5</title>
<path fill="none" stroke="midnightblue" d="M327.29,-172.5C358.72,-172.9 394.45,-173.36 423.7,-173.74"/>
<polygon fill="midnightblue" stroke="midnightblue" points="327.29,-169 317.25,-172.37 327.2,-176 327.29,-169"/>
</g>
<!-- Node7 -->
<g id="node7" class="node">
<title>Node7</title>
<g id="a_node7"><a xlink:href="classfire_1_1h5_1_1DataSet_3_01std_1_1map_3_01KeyType_00_01ValType_01_4_01_4.html" target="_top" xlink:title="Maps.">
<polygon fill="none" stroke="black" points="425,-99 425,-140 542,-140 542,-99 425,-99"/>
<text text-anchor="start" x="433" y="-128" font-family="Helvetica,sans-Serif" font-size="10.00">fire::h5::DataSet&lt;</text>
<text text-anchor="start" x="433" y="-117" font-family="Helvetica,sans-Serif" font-size="10.00"> std::map&lt; KeyType,</text>
<text text-anchor="middle" x="483.5" y="-106" font-family="Helvetica,sans-Serif" font-size="10.00"> ValType &gt; &gt;</text>
</a>
</g>
</g>
<!-- Node6&#45;&gt;Node7 -->
<g id="edge6" class="edge">
<title>Node6&#45;&gt;Node7</title>
<path fill="none" stroke="midnightblue" d="M353.3,-119.5C377.8,-119.5 403.08,-119.5 424.72,-119.5"/>
<polygon fill="midnightblue" stroke="midnightblue" points="353.23,-116 343.23,-119.5 353.23,-123 353.23,-116"/>
</g>
<!-- Node9 -->
<g id="node9" class="node">
<title>Node9</title>
<g id="a_node9"><a xlink:href="classfire_1_1h5_1_1DataSet_3_01std_1_1vector_3_01ContentType_01_4_01_4.html" target="_top" xlink:title="Vectors.">
<polygon fill="none" stroke="black" points="400.5,-49.5 400.5,-79.5 566.5,-79.5 566.5,-49.5 400.5,-49.5"/>
<text text-anchor="start" x="408.5" y="-67.5" font-family="Helvetica,sans-Serif" font-size="10.00">fire::h5::DataSet&lt;</text>
<text text-anchor="middle" x="483.5" y="-56.5" font-family="Helvetica,sans-Serif" font-size="10.00"> std::vector&lt; ContentType &gt; &gt;</text>
</a>
</g>
</g>
<!-- Node8&#45;&gt;Node9 -->
<g id="edge8" class="edge">
<title>Node8&#45;&gt;Node9</title>
<path fill="none" stroke="midnightblue" d="M346.65,-66.25C364.46,-66.02 382.91,-65.78 400.25,-65.56"/>
<polygon fill="midnightblue" stroke="midnightblue" points="346.2,-62.76 336.24,-66.39 346.29,-69.76 346.2,-62.76"/>
</g>
<!-- Node11 -->
<g id="node11" class="node">
<title>Node11</title>
<g id="a_node11"><a xlink:href="classfire_1_1h5_1_1DataSet.html" target="_top" xlink:title="General data set.">
<polygon fill="none" stroke="black" points="425.5,-0.5 425.5,-30.5 541.5,-30.5 541.5,-0.5 425.5,-0.5"/>
<text text-anchor="start" x="433.5" y="-18.5" font-family="Helvetica,sans-Serif" font-size="10.00">fire::h5::DataSet&lt;</text>
<text text-anchor="middle" x="483.5" y="-7.5" font-family="Helvetica,sans-Serif" font-size="10.00"> DataType, Enable &gt;</text>
</a>
</g>
</g>
<!-- Node10&#45;&gt;Node11 -->
<g id="edge10" class="edge">
<title>Node10&#45;&gt;Node11</title>
<path fill="none" stroke="midnightblue" d="M327.45,-17.5C359.4,-17.09 395.76,-16.62 425.24,-16.24"/>
<polygon fill="midnightblue" stroke="midnightblue" points="327.2,-14 317.25,-17.63 327.29,-21 327.2,-14"/>
</g>
</g>
</svg>
