<?xml version="1.0" encoding="UTF-8" standalone="no"?>
<!DOCTYPE svg PUBLIC "-//W3C//DTD SVG 1.1//EN"
 "http://www.w3.org/Graphics/SVG/1.1/DTD/svg11.dtd">
<!-- Generated by graphviz version 2.43.0 (0)
 -->
<!-- Title: fire::RandomNumberSeedService Pages: 1 -->
<svg width="866pt" height="219pt"
 viewBox="0.00 0.00 866.00 219.00" xmlns="http://www.w3.org/2000/svg" xmlns:xlink="http://www.w3.org/1999/xlink">
<g id="graph0" class="graph" transform="scale(1 1) rotate(0) translate(4 215)">
<title>fire::RandomNumberSeedService</title>
<!-- Node1 -->
<g id="node1" class="node">
<title>Node1</title>
<g id="a_node1"><a xlink:title="System for consistent seeding of random number generators.">
<polygon fill="#bfbfbf" stroke="black" points="0,-0.5 0,-19.5 178,-19.5 178,-0.5 0,-0.5"/>
<text text-anchor="middle" x="89" y="-7.5" font-family="Helvetica,sans-Serif" font-size="10.00">fire::RandomNumberSeedService</text>
</a>
</g>
</g>
<!-- Node2 -->
<g id="node2" class="node">
<title>Node2</title>
<g id="a_node2"><a xlink:href="classfire_1_1ConditionsObject.html" target="_top" xlink:title="Base class for all conditions objects, very simple.">
<polygon fill="none" stroke="black" points="16,-57.5 16,-76.5 138,-76.5 138,-57.5 16,-57.5"/>
<text text-anchor="middle" x="77" y="-64.5" font-family="Helvetica,sans-Serif" font-size="10.00">fire::ConditionsObject</text>
</a>
</g>
</g>
<!-- Node2&#45;&gt;Node1 -->
<g id="edge1" class="edge">
<title>Node2&#45;&gt;Node1</title>
<path fill="none" stroke="midnightblue" d="M81.05,-47.42C83.1,-38.05 85.48,-27.14 87.1,-19.71"/>
<polygon fill="midnightblue" stroke="midnightblue" points="77.59,-46.89 78.88,-57.41 84.43,-48.38 77.59,-46.89"/>
</g>
<!-- Node3 -->
<g id="node3" class="node">
<title>Node3</title>
<g id="a_node3"><a xlink:href="classfire_1_1ConditionsProvider.html" target="_top" xlink:title="Base class for all providers of conditions objects.">
<polygon fill="none" stroke="black" points="156.5,-57.5 156.5,-76.5 287.5,-76.5 287.5,-57.5 156.5,-57.5"/>
<text text-anchor="middle" x="222" y="-64.5" font-family="Helvetica,sans-Serif" font-size="10.00">fire::ConditionsProvider</text>
</a>
</g>
</g>
<!-- Node3&#45;&gt;Node1 -->
<g id="edge2" class="edge">
<title>Node3&#45;&gt;Node1</title>
<path fill="none" stroke="midnightblue" d="M191.8,-53.51C166.69,-43.13 131.64,-28.63 109.64,-19.53"/>
<polygon fill="midnightblue" stroke="midnightblue" points="190.64,-56.82 201.22,-57.41 193.32,-50.35 190.64,-56.82"/>
</g>
<!-- Node4 -->
<g id="node4" class="node">
<title>Node4</title>
<g id="a_node4"><a xlink:href="classfire_1_1Conditions.html" target="_top" xlink:title="Container and cache for conditions and conditions providers.">
<polygon fill="none" stroke="black" points="259,-124.5 259,-143.5 349,-143.5 349,-124.5 259,-124.5"/>
<text text-anchor="middle" x="304" y="-131.5" font-family="Helvetica,sans-Serif" font-size="10.00">fire::Conditions</text>
</a>
</g>
</g>
<!-- Node4&#45;&gt;Node3 -->
<g id="edge3" class="edge">
<title>Node4&#45;&gt;Node3</title>
<path fill="none" stroke="#9a32cd" stroke-dasharray="5,2" d="M249.4,-124.87C239.12,-120.83 229.55,-114.85 223,-106 216.79,-97.62 217.87,-85.11 219.6,-76.76"/>
<polygon fill="#9a32cd" stroke="#9a32cd" points="248.39,-128.22 258.98,-128.06 250.6,-121.58 248.39,-128.22"/>
<text text-anchor="middle" x="252.5" y="-98" font-family="Helvetica,sans-Serif" font-size="10.00"> conditions_</text>
</g>
<!-- Node5 -->
<g id="node5" class="node">
<title>Node5</title>
<g id="a_node5"><a xlink:href="classfire_1_1Process.html" target="_top" xlink:title=" ">
<polygon fill="none" stroke="black" points="465,-57.5 465,-76.5 541,-76.5 541,-57.5 465,-57.5"/>
<text text-anchor="middle" x="503" y="-64.5" font-family="Helvetica,sans-Serif" font-size="10.00">fire::Process</text>
</a>
</g>
</g>
<!-- Node4&#45;&gt;Node5 -->
<g id="edge7" class="edge">
<title>Node4&#45;&gt;Node5</title>
<path fill="none" stroke="#9a32cd" stroke-dasharray="5,2" d="M297.32,-114.39C296.11,-107.56 296.42,-100.23 301,-95 321.86,-71.17 412.31,-67.47 464.83,-67.39"/>
<polygon fill="#9a32cd" stroke="#9a32cd" points="294.04,-115.65 300.11,-124.34 300.78,-113.76 294.04,-115.65"/>
<text text-anchor="middle" x="330.5" y="-98" font-family="Helvetica,sans-Serif" font-size="10.00"> conditions_</text>
</g>
<!-- Node5&#45;&gt;Node4 -->
<g id="edge4" class="edge">
<title>Node5&#45;&gt;Node4</title>
<path fill="none" stroke="#9a32cd" stroke-dasharray="5,2" d="M454.77,-76.77C433.66,-81.24 408.8,-87.35 387,-95 376.31,-98.75 374.28,-101.23 364,-106 350.43,-112.3 335.03,-119.22 323.24,-124.48"/>
<polygon fill="#9a32cd" stroke="#9a32cd" points="455.7,-80.16 464.79,-74.72 454.29,-73.3 455.7,-80.16"/>
<text text-anchor="middle" x="410" y="-98" font-family="Helvetica,sans-Serif" font-size="10.00"> process_</text>
</g>
<!-- Node6 -->
<g id="node6" class="node">
<title>Node6</title>
<g id="a_node6"><a xlink:href="classfire_1_1h5_1_1Writer.html" target="_top" xlink:title="A HighFive::File specialized to fire&#39;s usecase.">
<polygon fill="none" stroke="black" points="409,-191.5 409,-210.5 495,-210.5 495,-191.5 409,-191.5"/>
<text text-anchor="middle" x="452" y="-198.5" font-family="Helvetica,sans-Serif" font-size="10.00">fire::h5::Writer</text>
</a>
</g>
</g>
<!-- Node6&#45;&gt;Node5 -->
<g id="edge5" class="edge">
<title>Node6&#45;&gt;Node5</title>
<path fill="none" stroke="#9a32cd" stroke-dasharray="5,2" d="M449.74,-181.08C448.61,-165.26 448.75,-142.4 456,-124 463.73,-104.4 481.19,-86.67 492.52,-76.63"/>
<polygon fill="#9a32cd" stroke="#9a32cd" points="446.27,-181.57 450.71,-191.19 453.24,-180.9 446.27,-181.57"/>
<text text-anchor="middle" x="486.5" y="-131.5" font-family="Helvetica,sans-Serif" font-size="10.00"> output_file_</text>
</g>
<!-- Node8 -->
<g id="node8" class="node">
<title>Node8</title>
<g id="a_node8"><a xlink:href="classfire_1_1Event.html" target="_top" xlink:title="Event class for interfacing with processors.">
<polygon fill="none" stroke="black" points="526,-124.5 526,-143.5 592,-143.5 592,-124.5 526,-124.5"/>
<text text-anchor="middle" x="559" y="-131.5" font-family="Helvetica,sans-Serif" font-size="10.00">fire::Event</text>
</a>
</g>
</g>
<!-- Node6&#45;&gt;Node8 -->
<g id="edge10" class="edge">
<title>Node6&#45;&gt;Node8</title>
<path fill="none" stroke="#9a32cd" stroke-dasharray="5,2" d="M468.09,-184.42C476.3,-177.01 486.71,-168.4 497,-162 508.87,-154.63 523.1,-148.27 534.93,-143.59"/>
<polygon fill="#9a32cd" stroke="#9a32cd" points="465.63,-181.93 460.7,-191.31 470.41,-187.05 465.63,-181.93"/>
<text text-anchor="middle" x="527.5" y="-165" font-family="Helvetica,sans-Serif" font-size="10.00"> output_file_</text>
</g>
<!-- Node7 -->
<g id="node7" class="node">
<title>Node7</title>
<g id="a_node7"><a xlink:href="classfire_1_1StorageControl.html" target="_top" xlink:title="Isolation of voting system deciding if events should be kept.">
<polygon fill="none" stroke="black" points="610.5,-124.5 610.5,-143.5 721.5,-143.5 721.5,-124.5 610.5,-124.5"/>
<text text-anchor="middle" x="666" y="-131.5" font-family="Helvetica,sans-Serif" font-size="10.00">fire::StorageControl</text>
</a>
</g>
</g>
<!-- Node7&#45;&gt;Node5 -->
<g id="edge6" class="edge">
<title>Node7&#45;&gt;Node5</title>
<path fill="none" stroke="#9a32cd" stroke-dasharray="5,2" d="M636.78,-120.27C619.24,-112.72 596.43,-103.09 576,-95 559.79,-88.58 541.38,-81.78 527.11,-76.61"/>
<polygon fill="#9a32cd" stroke="#9a32cd" points="635.87,-123.69 646.44,-124.44 638.65,-117.26 635.87,-123.69"/>
<text text-anchor="middle" x="643.5" y="-98" font-family="Helvetica,sans-Serif" font-size="10.00"> storage_control_</text>
</g>
<!-- Node8&#45;&gt;Node5 -->
<g id="edge8" class="edge">
<title>Node8&#45;&gt;Node5</title>
<path fill="none" stroke="#9a32cd" stroke-dasharray="5,2" d="M544.9,-116.63C533.95,-103.92 519.2,-86.8 510.43,-76.63"/>
<polygon fill="#9a32cd" stroke="#9a32cd" points="542.27,-118.94 551.45,-124.23 547.57,-114.37 542.27,-118.94"/>
<text text-anchor="middle" x="553.5" y="-98" font-family="Helvetica,sans-Serif" font-size="10.00"> event_</text>
</g>
<!-- Node9 -->
<g id="node9" class="node">
<title>Node9</title>
<g id="a_node9"><a xlink:href="classfire_1_1h5_1_1Reader.html" target="_top" xlink:title="A HighFive::File specialized to fire&#39;s usecase.">
<polygon fill="none" stroke="black" points="518.5,-191.5 518.5,-210.5 609.5,-210.5 609.5,-191.5 518.5,-191.5"/>
<text text-anchor="middle" x="564" y="-198.5" font-family="Helvetica,sans-Serif" font-size="10.00">fire::h5::Reader</text>
</a>
</g>
</g>
<!-- Node9&#45;&gt;Node8 -->
<g id="edge9" class="edge">
<title>Node9&#45;&gt;Node8</title>
<path fill="none" stroke="#9a32cd" stroke-dasharray="5,2" d="M562.54,-181.04C561.59,-168.67 560.39,-153.12 559.66,-143.63"/>
<polygon fill="#9a32cd" stroke="#9a32cd" points="559.07,-181.53 563.33,-191.23 566.05,-180.99 559.07,-181.53"/>
<text text-anchor="middle" x="589" y="-165" font-family="Helvetica,sans-Serif" font-size="10.00"> input_file_</text>
</g>
<!-- Node10 -->
<g id="node10" class="node">
<title>Node10</title>
<g id="a_node10"><a xlink:href="classfire_1_1RunHeader.html" target="_top" xlink:title="Container for run parameters.">
<polygon fill="none" stroke="black" points="740,-124.5 740,-143.5 832,-143.5 832,-124.5 740,-124.5"/>
<text text-anchor="middle" x="786" y="-131.5" font-family="Helvetica,sans-Serif" font-size="10.00">fire::RunHeader</text>
</a>
</g>
</g>
<!-- Node10&#45;&gt;Node5 -->
<g id="edge11" class="edge">
<title>Node10&#45;&gt;Node5</title>
<path fill="none" stroke="#9a32cd" stroke-dasharray="5,2" d="M758.83,-120.27C739.92,-111.9 713.9,-101.36 690,-95 639.44,-81.54 579.29,-74.37 541.13,-70.88"/>
<polygon fill="#9a32cd" stroke="#9a32cd" points="757.47,-123.5 768.03,-124.41 760.35,-117.11 757.47,-123.5"/>
<text text-anchor="middle" x="755" y="-98" font-family="Helvetica,sans-Serif" font-size="10.00"> run_header_</text>
</g>
<!-- Node11 -->
<g id="node11" class="node">
<title>Node11</title>
<g id="a_node11"><a xlink:href="classfire_1_1h5_1_1ParameterStorage.html" target="_top" xlink:title="Provides dynamic parameter storage by interfacing between a map to variants storing parameters and a ...">
<polygon fill="none" stroke="black" points="714,-191.5 714,-210.5 858,-210.5 858,-191.5 714,-191.5"/>
<text text-anchor="middle" x="786" y="-198.5" font-family="Helvetica,sans-Serif" font-size="10.00">fire::h5::ParameterStorage</text>
</a>
</g>
</g>
<!-- Node11&#45;&gt;Node10 -->
<g id="edge12" class="edge">
<title>Node11&#45;&gt;Node10</title>
<path fill="none" stroke="#9a32cd" stroke-dasharray="5,2" d="M786,-181.04C786,-168.67 786,-153.12 786,-143.63"/>
<polygon fill="#9a32cd" stroke="#9a32cd" points="782.5,-181.23 786,-191.23 789.5,-181.23 782.5,-181.23"/>
<text text-anchor="middle" x="818.5" y="-165" font-family="Helvetica,sans-Serif" font-size="10.00"> parameters_</text>
</g>
</g>
</svg>
