<?xml version="1.0" encoding="UTF-8" standalone="no"?>
<!DOCTYPE svg PUBLIC "-//W3C//DTD SVG 1.1//EN"
 "http://www.w3.org/Graphics/SVG/1.1/DTD/svg11.dtd">
<!-- Generated by graphviz version 2.43.0 (0)
 -->
<!-- Title: fire::ConditionsProvider Pages: 1 -->
<svg width="559pt" height="420pt"
 viewBox="0.00 0.00 559.00 420.00" xmlns="http://www.w3.org/2000/svg" xmlns:xlink="http://www.w3.org/1999/xlink">
<g id="graph0" class="graph" transform="scale(1 1) rotate(0) translate(4 416)">
<title>fire::ConditionsProvider</title>
<!-- Node1 -->
<g id="node1" class="node">
<title>Node1</title>
<g id="a_node1"><a xlink:title="Base class for all providers of conditions objects.">
<polygon fill="#bfbfbf" stroke="black" points="330,-0.5 330,-19.5 461,-19.5 461,-0.5 330,-0.5"/>
<text text-anchor="middle" x="395.5" y="-7.5" font-family="Helvetica,sans-Serif" font-size="10.00">fire::ConditionsProvider</text>
</a>
</g>
</g>
<!-- Node2 -->
<g id="node2" class="node">
<title>Node2</title>
<g id="a_node2"><a xlink:href="classfire_1_1Conditions.html" target="_top" xlink:title="Container and cache for conditions and conditions providers.">
<polygon fill="none" stroke="black" points="283.5,-67.5 283.5,-86.5 373.5,-86.5 373.5,-67.5 283.5,-67.5"/>
<text text-anchor="middle" x="328.5" y="-74.5" font-family="Helvetica,sans-Serif" font-size="10.00">fire::Conditions</text>
</a>
</g>
</g>
<!-- Node2&#45;&gt;Node1 -->
<g id="edge1" class="edge">
<title>Node2&#45;&gt;Node1</title>
<path fill="none" stroke="#9a32cd" stroke-dasharray="5,2" d="M345,-60C358.14,-47.25 376.02,-29.89 386.61,-19.63"/>
<polygon fill="#9a32cd" stroke="#9a32cd" points="342.28,-57.76 337.54,-67.23 347.15,-62.78 342.28,-57.76"/>
<text text-anchor="middle" x="395" y="-41" font-family="Helvetica,sans-Serif" font-size="10.00"> conditions_</text>
</g>
<!-- Node3 -->
<g id="node3" class="node">
<title>Node3</title>
<g id="a_node3"><a xlink:href="classfire_1_1Process.html" target="_top" xlink:title="The central object managing the data processing.">
<polygon fill="none" stroke="black" points="215.5,-135.5 215.5,-154.5 291.5,-154.5 291.5,-135.5 215.5,-135.5"/>
<text text-anchor="middle" x="253.5" y="-142.5" font-family="Helvetica,sans-Serif" font-size="10.00">fire::Process</text>
</a>
</g>
</g>
<!-- Node3&#45;&gt;Node2 -->
<g id="edge2" class="edge">
<title>Node3&#45;&gt;Node2</title>
<path fill="none" stroke="#9a32cd" stroke-dasharray="5,2" d="M271.21,-128.41C285.95,-115.45 306.39,-97.46 318.45,-86.84"/>
<polygon fill="#9a32cd" stroke="#9a32cd" points="268.5,-126.14 263.3,-135.37 273.12,-131.39 268.5,-126.14"/>
<text text-anchor="middle" x="320.5" y="-108" font-family="Helvetica,sans-Serif" font-size="10.00"> process_</text>
</g>
<!-- Node4 -->
<g id="node4" class="node">
<title>Node4</title>
<g id="a_node4"><a xlink:href="classfire_1_1io_1_1Writer.html" target="_top" xlink:title="Write the fire DataSets into a deterministic structure in the output HDF5 data file.">
<polygon fill="none" stroke="black" points="0,-303.5 0,-322.5 83,-322.5 83,-303.5 0,-303.5"/>
<text text-anchor="middle" x="41.5" y="-310.5" font-family="Helvetica,sans-Serif" font-size="10.00">fire::io::Writer</text>
</a>
</g>
</g>
<!-- Node4&#45;&gt;Node3 -->
<g id="edge3" class="edge">
<title>Node4&#45;&gt;Node3</title>
<path fill="none" stroke="#9a32cd" stroke-dasharray="5,2" d="M35.7,-293.41C29.57,-269.77 23.31,-228.9 43.5,-203 64.52,-176.03 160.79,-158.71 215.4,-150.87"/>
<polygon fill="#9a32cd" stroke="#9a32cd" points="32.39,-294.57 38.5,-303.22 39.12,-292.65 32.39,-294.57"/>
<text text-anchor="middle" x="74" y="-210.5" font-family="Helvetica,sans-Serif" font-size="10.00"> output_file_</text>
</g>
<!-- Node7 -->
<g id="node7" class="node">
<title>Node7</title>
<g id="a_node7"><a xlink:href="classfire_1_1Event.html" target="_top" xlink:title="Event class for interfacing with processors.">
<polygon fill="none" stroke="black" points="113.5,-203.5 113.5,-222.5 179.5,-222.5 179.5,-203.5 113.5,-203.5"/>
<text text-anchor="middle" x="146.5" y="-210.5" font-family="Helvetica,sans-Serif" font-size="10.00">fire::Event</text>
</a>
</g>
</g>
<!-- Node4&#45;&gt;Node7 -->
<g id="edge8" class="edge">
<title>Node4&#45;&gt;Node7</title>
<path fill="none" stroke="#9a32cd" stroke-dasharray="5,2" d="M48.46,-293.71C55.29,-277.92 67.06,-255.44 83.5,-241 92.8,-232.83 104.94,-226.85 116.08,-222.61"/>
<polygon fill="#9a32cd" stroke="#9a32cd" points="45.05,-292.81 44.53,-303.39 51.54,-295.45 45.05,-292.81"/>
<text text-anchor="middle" x="114" y="-260.5" font-family="Helvetica,sans-Serif" font-size="10.00"> output_file_</text>
</g>
<!-- Node5 -->
<g id="node5" class="node">
<title>Node5</title>
<g id="a_node5"><a target="_parent" xlink:href="http://en.cppreference.com/w/cpp/types/size_t.html" xlink:title=" ">
<polygon fill="none" stroke="black" points="8.5,-387 8.5,-406 74.5,-406 74.5,-387 8.5,-387"/>
<text text-anchor="middle" x="41.5" y="-394" font-family="Helvetica,sans-Serif" font-size="10.00">std::size_t</text>
</a>
</g>
</g>
<!-- Node5&#45;&gt;Node4 -->
<g id="edge4" class="edge">
<title>Node5&#45;&gt;Node4</title>
<path fill="none" stroke="#9a32cd" stroke-dasharray="5,2" d="M41.5,-376.38C41.5,-359.4 41.5,-335.37 41.5,-322.66"/>
<polygon fill="#9a32cd" stroke="#9a32cd" points="38,-376.78 41.5,-386.78 45,-376.78 38,-376.78"/>
<text text-anchor="middle" x="84" y="-355" font-family="Helvetica,sans-Serif" font-size="10.00"> entries_</text>
<text text-anchor="middle" x="84" y="-344" font-family="Helvetica,sans-Serif" font-size="10.00">rows_per_chunk_</text>
</g>
<!-- Node6 -->
<g id="node6" class="node">
<title>Node6</title>
<g id="a_node6"><a xlink:href="classfire_1_1StorageControl.html" target="_top" xlink:title="Isolation of voting system deciding if events should be kept.">
<polygon fill="none" stroke="black" points="198,-203.5 198,-222.5 309,-222.5 309,-203.5 198,-203.5"/>
<text text-anchor="middle" x="253.5" y="-210.5" font-family="Helvetica,sans-Serif" font-size="10.00">fire::StorageControl</text>
</a>
</g>
</g>
<!-- Node6&#45;&gt;Node3 -->
<g id="edge5" class="edge">
<title>Node6&#45;&gt;Node3</title>
<path fill="none" stroke="#9a32cd" stroke-dasharray="5,2" d="M253.5,-193.04C253.5,-180.47 253.5,-164.56 253.5,-154.84"/>
<polygon fill="#9a32cd" stroke="#9a32cd" points="250,-193.37 253.5,-203.37 257,-193.37 250,-193.37"/>
<text text-anchor="middle" x="296" y="-177" font-family="Helvetica,sans-Serif" font-size="10.00"> storage_control_</text>
</g>
<!-- Node7&#45;&gt;Node3 -->
<g id="edge6" class="edge">
<title>Node7&#45;&gt;Node3</title>
<path fill="none" stroke="#9a32cd" stroke-dasharray="5,2" d="M169.22,-197.99C190.5,-184.86 221.64,-165.65 239.51,-154.63"/>
<polygon fill="#9a32cd" stroke="#9a32cd" points="167.16,-195.14 160.49,-203.37 170.84,-201.1 167.16,-195.14"/>
<text text-anchor="middle" x="224" y="-177" font-family="Helvetica,sans-Serif" font-size="10.00"> event_</text>
</g>
<!-- Node8 -->
<g id="node8" class="node">
<title>Node8</title>
<g id="a_node8"><a xlink:href="classfire_1_1io_1_1Reader.html" target="_top" xlink:title="Prototype for reading files within fire.">
<polygon fill="none" stroke="black" points="107.5,-303.5 107.5,-322.5 195.5,-322.5 195.5,-303.5 107.5,-303.5"/>
<text text-anchor="middle" x="151.5" y="-310.5" font-family="Helvetica,sans-Serif" font-size="10.00">fire::io::Reader</text>
</a>
</g>
</g>
<!-- Node8&#45;&gt;Node7 -->
<g id="edge7" class="edge">
<title>Node8&#45;&gt;Node7</title>
<path fill="none" stroke="#9a32cd" stroke-dasharray="5,2" d="M150.54,-293.22C149.46,-271.95 147.74,-238.22 146.94,-222.54"/>
<polygon fill="#9a32cd" stroke="#9a32cd" points="147.05,-293.49 151.06,-303.3 154.04,-293.14 147.05,-293.49"/>
<text text-anchor="middle" x="177.5" y="-260.5" font-family="Helvetica,sans-Serif" font-size="10.00"> input_file_</text>
</g>
<!-- Node9 -->
<g id="node9" class="node">
<title>Node9</title>
<g id="a_node9"><a target="_parent" xlink:href="http://en.cppreference.com/w/cpp/string/basic_string.html" xlink:title=" ">
<polygon fill="none" stroke="black" points="324,-303.5 324,-322.5 389,-322.5 389,-303.5 324,-303.5"/>
<text text-anchor="middle" x="356.5" y="-310.5" font-family="Helvetica,sans-Serif" font-size="10.00">std::string</text>
</a>
</g>
</g>
<!-- Node9&#45;&gt;Node1 -->
<g id="edge14" class="edge">
<title>Node9&#45;&gt;Node1</title>
<path fill="none" stroke="#9a32cd" stroke-dasharray="5,2" d="M399.15,-301.09C414.15,-296.43 428.51,-290.75 433.5,-285 454.57,-260.7 447.5,-246.16 447.5,-214 447.5,-214 447.5,-214 447.5,-76 447.5,-51.29 424.3,-30.59 408.89,-19.57"/>
<polygon fill="#9a32cd" stroke="#9a32cd" points="397.9,-297.81 389.3,-303.99 399.88,-304.52 397.9,-297.81"/>
<text text-anchor="middle" x="481.5" y="-148" font-family="Helvetica,sans-Serif" font-size="10.00"> objectName_</text>
<text text-anchor="middle" x="481.5" y="-137" font-family="Helvetica,sans-Serif" font-size="10.00">tagname_</text>
</g>
<!-- Node9&#45;&gt;Node7 -->
<g id="edge9" class="edge">
<title>Node9&#45;&gt;Node7</title>
<path fill="none" stroke="#9a32cd" stroke-dasharray="5,2" d="M330.07,-298.96C300.57,-284.49 251.34,-260.6 208.5,-241 194.62,-234.65 178.85,-227.79 166.69,-222.57"/>
<polygon fill="#9a32cd" stroke="#9a32cd" points="328.76,-302.22 339.28,-303.49 331.85,-295.94 328.76,-302.22"/>
<text text-anchor="middle" x="315" y="-260.5" font-family="Helvetica,sans-Serif" font-size="10.00"> pass_</text>
</g>
<!-- Node11 -->
<g id="node11" class="node">
<title>Node11</title>
<g id="a_node11"><a xlink:href="classfire_1_1RunHeader.html" target="_top" xlink:title="Container for run parameters.">
<polygon fill="none" stroke="black" points="327.5,-203.5 327.5,-222.5 419.5,-222.5 419.5,-203.5 327.5,-203.5"/>
<text text-anchor="middle" x="373.5" y="-210.5" font-family="Helvetica,sans-Serif" font-size="10.00">fire::RunHeader</text>
</a>
</g>
</g>
<!-- Node9&#45;&gt;Node11 -->
<g id="edge12" class="edge">
<title>Node9&#45;&gt;Node11</title>
<path fill="none" stroke="#9a32cd" stroke-dasharray="5,2" d="M354.17,-293.29C352.98,-278.75 352.65,-258.23 357.5,-241 359.33,-234.5 363.14,-227.96 366.59,-222.95"/>
<polygon fill="#9a32cd" stroke="#9a32cd" points="350.72,-293.91 355.23,-303.49 357.68,-293.18 350.72,-293.91"/>
<text text-anchor="middle" x="395.5" y="-277" font-family="Helvetica,sans-Serif" font-size="10.00"> NAME</text>
<text text-anchor="middle" x="395.5" y="-266" font-family="Helvetica,sans-Serif" font-size="10.00">description_</text>
<text text-anchor="middle" x="395.5" y="-255" font-family="Helvetica,sans-Serif" font-size="10.00">detectorName_</text>
<text text-anchor="middle" x="395.5" y="-244" font-family="Helvetica,sans-Serif" font-size="10.00">softwareTag_</text>
</g>
<!-- Node10 -->
<g id="node10" class="node">
<title>Node10</title>
<g id="a_node10"><a target="_parent" xlink:href="http://en.cppreference.com/w/cpp/string/basic_string.html" xlink:title=" ">
<polygon fill="none" stroke="black" points="304.5,-381.5 304.5,-411.5 408.5,-411.5 408.5,-381.5 304.5,-381.5"/>
<text text-anchor="start" x="312.5" y="-399.5" font-family="Helvetica,sans-Serif" font-size="10.00">std::basic_string&lt;</text>
<text text-anchor="middle" x="356.5" y="-388.5" font-family="Helvetica,sans-Serif" font-size="10.00"> char &gt;</text>
</a>
</g>
</g>
<!-- Node10&#45;&gt;Node9 -->
<g id="edge10" class="edge">
<title>Node10&#45;&gt;Node9</title>
<path fill="none" stroke="midnightblue" d="M356.5,-371.25C356.5,-354.78 356.5,-333.99 356.5,-322.54"/>
<polygon fill="midnightblue" stroke="midnightblue" points="353,-371.3 356.5,-381.3 360,-371.3 353,-371.3"/>
</g>
<!-- Node11&#45;&gt;Node3 -->
<g id="edge11" class="edge">
<title>Node11&#45;&gt;Node3</title>
<path fill="none" stroke="#9a32cd" stroke-dasharray="5,2" d="M362.67,-194.63C357.38,-187.36 350.43,-179.37 342.5,-174 327.35,-163.73 308.23,-157.07 291.6,-152.84"/>
<polygon fill="#9a32cd" stroke="#9a32cd" points="359.96,-196.87 368.45,-203.2 365.76,-192.95 359.96,-196.87"/>
<text text-anchor="middle" x="386.5" y="-177" font-family="Helvetica,sans-Serif" font-size="10.00"> run_header_</text>
</g>
<!-- Node12 -->
<g id="node12" class="node">
<title>Node12</title>
<g id="a_node12"><a xlink:href="classfire_1_1io_1_1ParameterStorage.html" target="_top" xlink:title="Provides dynamic parameter storage by interfacing between a map to variants storing parameters and a ...">
<polygon fill="none" stroke="black" points="410,-303.5 410,-322.5 551,-322.5 551,-303.5 410,-303.5"/>
<text text-anchor="middle" x="480.5" y="-310.5" font-family="Helvetica,sans-Serif" font-size="10.00">fire::io::ParameterStorage</text>
</a>
</g>
</g>
<!-- Node12&#45;&gt;Node11 -->
<g id="edge13" class="edge">
<title>Node12&#45;&gt;Node11</title>
<path fill="none" stroke="#9a32cd" stroke-dasharray="5,2" d="M473.49,-294.15C466.48,-278.32 454.31,-255.53 437.5,-241 428.01,-232.8 415.67,-226.81 404.36,-222.58"/>
<polygon fill="#9a32cd" stroke="#9a32cd" points="470.26,-295.51 477.35,-303.38 476.72,-292.81 470.26,-295.51"/>
<text text-anchor="middle" x="501" y="-260.5" font-family="Helvetica,sans-Serif" font-size="10.00"> parameters_</text>
</g>
</g>
</svg>
