<?xml version="1.0" encoding="UTF-8" standalone="no"?>
<!DOCTYPE svg PUBLIC "-//W3C//DTD SVG 1.1//EN"
 "http://www.w3.org/Graphics/SVG/1.1/DTD/svg11.dtd">
<!-- Generated by graphviz version 2.43.0 (0)
 -->
<!-- Title: fire::io::h5::Reader::Buffer&lt; AtomicType &gt; Pages: 1 -->
<svg width="216pt" height="176pt"
 viewBox="0.00 0.00 215.50 176.00" xmlns="http://www.w3.org/2000/svg" xmlns:xlink="http://www.w3.org/1999/xlink">
<g id="graph0" class="graph" transform="scale(1 1) rotate(0) translate(4 172)">
<title>fire::io::h5::Reader::Buffer&lt; AtomicType &gt;</title>
<!-- Node1 -->
<g id="node1" class="node">
<title>Node1</title>
<g id="a_node1"><a xlink:title="Read buffer allowing individual element access from a dataset.">
<polygon fill="#bfbfbf" stroke="black" points="0,-0.5 0,-30.5 131,-30.5 131,-0.5 0,-0.5"/>
<text text-anchor="start" x="8" y="-18.5" font-family="Helvetica,sans-Serif" font-size="10.00">fire::io::h5::Reader</text>
<text text-anchor="middle" x="65.5" y="-7.5" font-family="Helvetica,sans-Serif" font-size="10.00">::Buffer&lt; AtomicType &gt;</text>
</a>
</g>
</g>
<!-- Node2 -->
<g id="node2" class="node">
<title>Node2</title>
<g id="a_node2"><a xlink:href="classfire_1_1io_1_1h5_1_1Reader_1_1BufferHandle.html" target="_top" xlink:title="Type&#45;less handle to the Buffer.">
<polygon fill="none" stroke="black" points="101.5,-69.5 101.5,-99.5 207.5,-99.5 207.5,-69.5 101.5,-69.5"/>
<text text-anchor="start" x="109.5" y="-87.5" font-family="Helvetica,sans-Serif" font-size="10.00">fire::io::h5::Reader</text>
<text text-anchor="middle" x="154.5" y="-76.5" font-family="Helvetica,sans-Serif" font-size="10.00">::BufferHandle</text>
</a>
</g>
</g>
<!-- Node2&#45;&gt;Node1 -->
<g id="edge1" class="edge">
<title>Node2&#45;&gt;Node1</title>
<path fill="none" stroke="midnightblue" d="M127.37,-63.08C113.45,-52.6 96.85,-40.1 84.35,-30.69"/>
<polygon fill="midnightblue" stroke="midnightblue" points="125.53,-66.07 135.63,-69.29 129.74,-60.48 125.53,-66.07"/>
</g>
<!-- Node3 -->
<g id="node3" class="node">
<title>Node3</title>
<g id="a_node3"><a target="_parent" xlink:href="http://en.cppreference.com/w/cpp/types/size_t.html" xlink:title=" ">
<polygon fill="none" stroke="black" points="11.5,-148.5 11.5,-167.5 77.5,-167.5 77.5,-148.5 11.5,-148.5"/>
<text text-anchor="middle" x="44.5" y="-155.5" font-family="Helvetica,sans-Serif" font-size="10.00">std::size_t</text>
</a>
</g>
</g>
<!-- Node3&#45;&gt;Node1 -->
<g id="edge3" class="edge">
<title>Node3&#45;&gt;Node1</title>
<path fill="none" stroke="#9a32cd" stroke-dasharray="5,2" d="M39.57,-138.35C35.56,-120.13 31.46,-91.76 37.5,-68 40.96,-54.39 48.83,-40.49 55.34,-30.56"/>
<polygon fill="#9a32cd" stroke="#9a32cd" points="36.21,-139.35 41.96,-148.25 43.01,-137.71 36.21,-139.35"/>
<text text-anchor="middle" x="65" y="-93" font-family="Helvetica,sans-Serif" font-size="10.00"> entries_</text>
<text text-anchor="middle" x="65" y="-82" font-family="Helvetica,sans-Serif" font-size="10.00">i_file_</text>
<text text-anchor="middle" x="65" y="-71" font-family="Helvetica,sans-Serif" font-size="10.00">i_memory_</text>
</g>
<!-- Node3&#45;&gt;Node2 -->
<g id="edge2" class="edge">
<title>Node3&#45;&gt;Node2</title>
<path fill="none" stroke="#9a32cd" stroke-dasharray="5,2" d="M66.45,-142.73C85.77,-130.17 113.74,-111.99 132.95,-99.51"/>
<polygon fill="#9a32cd" stroke="#9a32cd" points="64.47,-139.85 57.99,-148.23 68.28,-145.72 64.47,-139.85"/>
<text text-anchor="middle" x="128" y="-122" font-family="Helvetica,sans-Serif" font-size="10.00"> max_len_</text>
</g>
</g>
</svg>
