<?xml version="1.0" encoding="UTF-8" standalone="no"?>
<!DOCTYPE svg PUBLIC "-//W3C//DTD SVG 1.1//EN"
 "http://www.w3.org/Graphics/SVG/1.1/DTD/svg11.dtd">
<!-- Generated by graphviz version 2.43.0 (0)
 -->
<!-- Title: include/fire/io/Constants.h Pages: 1 -->
<svg width="444pt" height="621pt"
 viewBox="0.00 0.00 444.47 621.00" xmlns="http://www.w3.org/2000/svg" xmlns:xlink="http://www.w3.org/1999/xlink">
<g id="graph0" class="graph" transform="scale(1 1) rotate(0) translate(4 617)">
<title>include/fire/io/Constants.h</title>
<!-- Node1 -->
<g id="node1" class="node">
<title>Node1</title>
<g id="a_node1"><a xlink:title="Definitions for names of structures required by serialization methods.">
<polygon fill="#bfbfbf" stroke="black" points="74.5,-593.5 74.5,-612.5 217.5,-612.5 217.5,-593.5 74.5,-593.5"/>
<text text-anchor="middle" x="146" y="-600.5" font-family="Helvetica,sans-Serif" font-size="10.00">include/fire/io/Constants.h</text>
</a>
</g>
</g>
<!-- Node2 -->
<g id="node2" class="node">
<title>Node2</title>
<g id="a_node2"><a xlink:href="EventHeader_8h_source.html" target="_top" xlink:title=" ">
<polygon fill="none" stroke="black" points="91.5,-358.5 91.5,-377.5 236.5,-377.5 236.5,-358.5 91.5,-358.5"/>
<text text-anchor="middle" x="164" y="-365.5" font-family="Helvetica,sans-Serif" font-size="10.00">include/fire/EventHeader.h</text>
</a>
</g>
</g>
<!-- Node1&#45;&gt;Node2 -->
<g id="edge1" class="edge">
<title>Node1&#45;&gt;Node2</title>
<path fill="none" stroke="midnightblue" d="M131.39,-585.77C112.7,-562.97 83.98,-519.9 95,-481 107.14,-438.15 140.82,-395.6 156.18,-377.75"/>
<polygon fill="midnightblue" stroke="midnightblue" points="128.81,-588.13 137.96,-593.46 134.13,-583.58 128.81,-588.13"/>
</g>
<!-- Node12 -->
<g id="node12" class="node">
<title>Node12</title>
<g id="a_node12"><a xlink:href="RunHeader_8h_source.html" target="_top" xlink:title=" ">
<polygon fill="none" stroke="black" points="296,-358.5 296,-377.5 432,-377.5 432,-358.5 296,-358.5"/>
<text text-anchor="middle" x="364" y="-365.5" font-family="Helvetica,sans-Serif" font-size="10.00">include/fire/RunHeader.h</text>
</a>
</g>
</g>
<!-- Node1&#45;&gt;Node12 -->
<g id="edge15" class="edge">
<title>Node1&#45;&gt;Node12</title>
<path fill="none" stroke="midnightblue" d="M194.51,-590.56C216.77,-583.56 242.49,-572.83 262,-557 324.29,-506.47 354.08,-407.37 361.87,-377.63"/>
<polygon fill="midnightblue" stroke="midnightblue" points="193.47,-587.22 184.88,-593.43 195.46,-593.93 193.47,-587.22"/>
</g>
<!-- Node13 -->
<g id="node13" class="node">
<title>Node13</title>
<g id="a_node13"><a xlink:href="Data_8h_source.html" target="_top" xlink:title=" ">
<polygon fill="none" stroke="black" points="104,-481.5 104,-500.5 222,-500.5 222,-481.5 104,-481.5"/>
<text text-anchor="middle" x="163" y="-488.5" font-family="Helvetica,sans-Serif" font-size="10.00">include/fire/io/Data.h</text>
</a>
</g>
</g>
<!-- Node1&#45;&gt;Node13 -->
<g id="edge19" class="edge">
<title>Node1&#45;&gt;Node13</title>
<path fill="none" stroke="midnightblue" d="M131.8,-585.06C122.61,-571.94 113.46,-553.32 120,-537 126.11,-521.76 140.13,-508.75 150.5,-500.7"/>
<polygon fill="midnightblue" stroke="midnightblue" points="129.14,-587.34 137.99,-593.17 134.71,-583.09 129.14,-587.34"/>
</g>
<!-- Node15 -->
<g id="node15" class="node">
<title>Node15</title>
<g id="a_node15"><a xlink:href="Writer_8h_source.html" target="_top" xlink:title=" ">
<polygon fill="none" stroke="black" points="129,-537.5 129,-556.5 253,-556.5 253,-537.5 129,-537.5"/>
<text text-anchor="middle" x="191" y="-544.5" font-family="Helvetica,sans-Serif" font-size="10.00">include/fire/io/Writer.h</text>
</a>
</g>
</g>
<!-- Node1&#45;&gt;Node15 -->
<g id="edge26" class="edge">
<title>Node1&#45;&gt;Node15</title>
<path fill="none" stroke="midnightblue" d="M160.05,-585.14C167.89,-575.74 177.33,-564.4 183.71,-556.75"/>
<polygon fill="midnightblue" stroke="midnightblue" points="157.14,-583.16 153.43,-593.08 162.52,-587.64 157.14,-583.16"/>
</g>
<!-- Node3 -->
<g id="node3" class="node">
<title>Node3</title>
<g id="a_node3"><a xlink:href="Conditions_8h_source.html" target="_top" xlink:title=" ">
<polygon fill="none" stroke="black" points="77,-174 77,-193 211,-193 211,-174 77,-174"/>
<text text-anchor="middle" x="144" y="-181" font-family="Helvetica,sans-Serif" font-size="10.00">include/fire/Conditions.h</text>
</a>
</g>
</g>
<!-- Node2&#45;&gt;Node3 -->
<g id="edge2" class="edge">
<title>Node2&#45;&gt;Node3</title>
<path fill="none" stroke="midnightblue" d="M161.94,-348.22C157.68,-309.32 148.02,-221.21 144.95,-193.21"/>
<polygon fill="midnightblue" stroke="midnightblue" points="158.47,-348.64 163.04,-358.2 165.43,-347.88 158.47,-348.64"/>
</g>
<!-- Node8 -->
<g id="node8" class="node">
<title>Node8</title>
<g id="a_node8"><a xlink:href="ConditionsIntervalOfValidity_8h_source.html" target="_top" xlink:title=" ">
<polygon fill="none" stroke="black" points="172.5,-291.5 172.5,-321.5 335.5,-321.5 335.5,-291.5 172.5,-291.5"/>
<text text-anchor="start" x="180.5" y="-309.5" font-family="Helvetica,sans-Serif" font-size="10.00">include/fire/ConditionsInterval</text>
<text text-anchor="middle" x="254" y="-298.5" font-family="Helvetica,sans-Serif" font-size="10.00">OfValidity.h</text>
</a>
</g>
</g>
<!-- Node2&#45;&gt;Node8 -->
<g id="edge8" class="edge">
<title>Node2&#45;&gt;Node8</title>
<path fill="none" stroke="midnightblue" d="M185.57,-352.74C199.88,-343.28 218.56,-330.93 232.79,-321.52"/>
<polygon fill="midnightblue" stroke="midnightblue" points="183.31,-350.04 176.89,-358.48 187.17,-355.88 183.31,-350.04"/>
</g>
<!-- Node11 -->
<g id="node11" class="node">
<title>Node11</title>
<g id="a_node11"><a xlink:href="Event_8h_source.html" target="_top" xlink:title=" ">
<polygon fill="none" stroke="black" points="0,-235.5 0,-254.5 110,-254.5 110,-235.5 0,-235.5"/>
<text text-anchor="middle" x="55" y="-242.5" font-family="Helvetica,sans-Serif" font-size="10.00">include/fire/Event.h</text>
</a>
</g>
</g>
<!-- Node2&#45;&gt;Node11 -->
<g id="edge12" class="edge">
<title>Node2&#45;&gt;Node11</title>
<path fill="none" stroke="midnightblue" d="M149.38,-350.77C125.97,-324.78 80.84,-274.69 62.77,-254.62"/>
<polygon fill="midnightblue" stroke="midnightblue" points="146.87,-353.21 156.16,-358.3 152.07,-348.53 146.87,-353.21"/>
</g>
<!-- Node4 -->
<g id="node4" class="node">
<title>Node4</title>
<g id="a_node4"><a xlink:href="Process_8h_source.html" target="_top" xlink:title=" ">
<polygon fill="none" stroke="black" points="37,-56.5 37,-75.5 157,-75.5 157,-56.5 37,-56.5"/>
<text text-anchor="middle" x="97" y="-63.5" font-family="Helvetica,sans-Serif" font-size="10.00">include/fire/Process.h</text>
</a>
</g>
</g>
<!-- Node3&#45;&gt;Node4 -->
<g id="edge3" class="edge">
<title>Node3&#45;&gt;Node4</title>
<path fill="none" stroke="midnightblue" d="M133.54,-164.96C128.14,-155.43 121.71,-143.31 117,-132 108.83,-112.38 102.26,-88.22 99.08,-75.6"/>
<polygon fill="midnightblue" stroke="midnightblue" points="130.64,-166.92 138.69,-173.81 136.69,-163.41 130.64,-166.92"/>
</g>
<!-- Node6 -->
<g id="node6" class="node">
<title>Node6</title>
<g id="a_node6"><a xlink:href="Processor_8h_source.html" target="_top" xlink:title=" ">
<polygon fill="none" stroke="black" points="125.5,-112.5 125.5,-131.5 254.5,-131.5 254.5,-112.5 125.5,-112.5"/>
<text text-anchor="middle" x="190" y="-119.5" font-family="Helvetica,sans-Serif" font-size="10.00">include/fire/Processor.h</text>
</a>
</g>
</g>
<!-- Node3&#45;&gt;Node6 -->
<g id="edge5" class="edge">
<title>Node3&#45;&gt;Node6</title>
<path fill="none" stroke="midnightblue" d="M156.88,-165.84C165.52,-154.67 176.53,-140.43 183.42,-131.51"/>
<polygon fill="midnightblue" stroke="midnightblue" points="153.94,-163.92 150.59,-173.98 159.48,-168.2 153.94,-163.92"/>
</g>
<!-- Node5 -->
<g id="node5" class="node">
<title>Node5</title>
<g id="a_node5"><a xlink:href="fire_8cxx.html" target="_top" xlink:title="main definition for fire executable">
<polygon fill="none" stroke="black" points="60,-0.5 60,-19.5 134,-19.5 134,-0.5 60,-0.5"/>
<text text-anchor="middle" x="97" y="-7.5" font-family="Helvetica,sans-Serif" font-size="10.00">app/fire.cxx</text>
</a>
</g>
</g>
<!-- Node4&#45;&gt;Node5 -->
<g id="edge4" class="edge">
<title>Node4&#45;&gt;Node5</title>
<path fill="none" stroke="midnightblue" d="M97,-45.8C97,-36.91 97,-26.78 97,-19.75"/>
<polygon fill="midnightblue" stroke="midnightblue" points="93.5,-46.08 97,-56.08 100.5,-46.08 93.5,-46.08"/>
</g>
<!-- Node6&#45;&gt;Node4 -->
<g id="edge7" class="edge">
<title>Node6&#45;&gt;Node4</title>
<path fill="none" stroke="midnightblue" d="M166.19,-107.18C149.08,-97.24 126.53,-84.15 111.9,-75.65"/>
<polygon fill="midnightblue" stroke="midnightblue" points="164.65,-110.33 175.06,-112.32 168.17,-104.28 164.65,-110.33"/>
</g>
<!-- Node7 -->
<g id="node7" class="node">
<title>Node7</title>
<g id="a_node7"><a xlink:href="EventProcessor_8h.html" target="_top" xlink:title="Re&#45;interpretation of ROOT&#45;based framework code into fire.">
<polygon fill="none" stroke="black" points="175,-56.5 175,-75.5 371,-75.5 371,-56.5 175,-56.5"/>
<text text-anchor="middle" x="273" y="-63.5" font-family="Helvetica,sans-Serif" font-size="10.00">include/Framework/EventProcessor.h</text>
</a>
</g>
</g>
<!-- Node6&#45;&gt;Node7 -->
<g id="edge6" class="edge">
<title>Node6&#45;&gt;Node7</title>
<path fill="none" stroke="midnightblue" d="M212.1,-106.62C227.26,-96.76 246.88,-83.99 259.7,-75.65"/>
<polygon fill="midnightblue" stroke="midnightblue" points="209.81,-103.94 203.34,-112.32 213.63,-109.8 209.81,-103.94"/>
</g>
<!-- Node9 -->
<g id="node9" class="node">
<title>Node9</title>
<g id="a_node9"><a xlink:href="ConditionsProvider_8h_source.html" target="_top" xlink:title=" ">
<polygon fill="none" stroke="black" points="191,-235.5 191,-254.5 365,-254.5 365,-235.5 191,-235.5"/>
<text text-anchor="middle" x="278" y="-242.5" font-family="Helvetica,sans-Serif" font-size="10.00">include/fire/ConditionsProvider.h</text>
</a>
</g>
</g>
<!-- Node8&#45;&gt;Node9 -->
<g id="edge9" class="edge">
<title>Node8&#45;&gt;Node9</title>
<path fill="none" stroke="midnightblue" d="M263.52,-281.9C267.39,-272.3 271.62,-261.81 274.51,-254.66"/>
<polygon fill="midnightblue" stroke="midnightblue" points="260.18,-280.82 259.69,-291.4 266.67,-283.43 260.18,-280.82"/>
</g>
<!-- Node9&#45;&gt;Node3 -->
<g id="edge10" class="edge">
<title>Node9&#45;&gt;Node3</title>
<path fill="none" stroke="midnightblue" d="M249.46,-231.33C223.45,-219.78 185.74,-203.03 163.16,-193.01"/>
<polygon fill="midnightblue" stroke="midnightblue" points="248.24,-234.62 258.8,-235.48 251.08,-228.22 248.24,-234.62"/>
</g>
<!-- Node10 -->
<g id="node10" class="node">
<title>Node10</title>
<g id="a_node10"><a xlink:href="RandomNumberSeedService_8h.html" target="_top" xlink:title="Conditions object for random number seeds.">
<polygon fill="none" stroke="black" points="229.5,-168.5 229.5,-198.5 382.5,-198.5 382.5,-168.5 229.5,-168.5"/>
<text text-anchor="start" x="237.5" y="-186.5" font-family="Helvetica,sans-Serif" font-size="10.00">include/fire/RandomNumber</text>
<text text-anchor="middle" x="306" y="-175.5" font-family="Helvetica,sans-Serif" font-size="10.00">SeedService.h</text>
</a>
</g>
</g>
<!-- Node9&#45;&gt;Node10 -->
<g id="edge11" class="edge">
<title>Node9&#45;&gt;Node10</title>
<path fill="none" stroke="midnightblue" d="M286.29,-226.39C290.47,-217.5 295.48,-206.86 299.4,-198.52"/>
<polygon fill="midnightblue" stroke="midnightblue" points="283.1,-224.94 282.01,-235.48 289.44,-227.92 283.1,-224.94"/>
</g>
<!-- Node11&#45;&gt;Node4 -->
<g id="edge13" class="edge">
<title>Node11&#45;&gt;Node4</title>
<path fill="none" stroke="midnightblue" d="M51.75,-225.56C49.61,-210.04 47.89,-187.33 52,-168 59.71,-131.76 81.37,-92.76 91.57,-75.76"/>
<polygon fill="midnightblue" stroke="midnightblue" points="48.29,-226.11 53.3,-235.45 55.21,-225.03 48.29,-226.11"/>
</g>
<!-- Node11&#45;&gt;Node6 -->
<g id="edge14" class="edge">
<title>Node11&#45;&gt;Node6</title>
<path fill="none" stroke="midnightblue" d="M53.28,-225.09C52.79,-208.25 54.79,-183.89 68,-168 83.87,-148.9 108.63,-137.91 131.71,-131.58"/>
<polygon fill="midnightblue" stroke="midnightblue" points="49.8,-225.58 53.91,-235.35 56.79,-225.15 49.8,-225.58"/>
</g>
<!-- Node12&#45;&gt;Node4 -->
<g id="edge17" class="edge">
<title>Node12&#45;&gt;Node4</title>
<path fill="none" stroke="midnightblue" d="M375.35,-349.83C389.26,-327.08 411,-285.24 411,-246 411,-246 411,-246 411,-182.5 411,-127.9 241.66,-91.2 151.69,-75.56"/>
<polygon fill="midnightblue" stroke="midnightblue" points="372.35,-348.02 369.95,-358.35 378.26,-351.77 372.35,-348.02"/>
</g>
<!-- Node12&#45;&gt;Node6 -->
<g id="edge18" class="edge">
<title>Node12&#45;&gt;Node6</title>
<path fill="none" stroke="midnightblue" d="M393,-353.33C405.23,-345.92 418.19,-335.48 425,-322 447.42,-277.61 436.52,-210.64 392,-168 372.48,-149.3 306.09,-137.03 254.7,-130.1"/>
<polygon fill="midnightblue" stroke="midnightblue" points="390.93,-350.48 383.91,-358.41 394.34,-356.59 390.93,-350.48"/>
</g>
<!-- Node12&#45;&gt;Node9 -->
<g id="edge16" class="edge">
<title>Node12&#45;&gt;Node9</title>
<path fill="none" stroke="midnightblue" d="M363.05,-348.18C361.39,-331.77 356.94,-308 345,-291 333.24,-274.26 313.11,-261.98 297.97,-254.51"/>
<polygon fill="midnightblue" stroke="midnightblue" points="359.56,-348.48 363.8,-358.19 366.54,-347.96 359.56,-348.48"/>
</g>
<!-- Node13&#45;&gt;Node2 -->
<g id="edge21" class="edge">
<title>Node13&#45;&gt;Node2</title>
<path fill="none" stroke="midnightblue" d="M157.96,-471.62C155.99,-463.53 153.97,-453.86 153,-445 151.5,-431.3 151.35,-427.68 153,-414 154.56,-401.06 158.55,-386.48 161.27,-377.51"/>
<polygon fill="midnightblue" stroke="midnightblue" points="154.62,-472.67 160.52,-481.47 161.39,-470.91 154.62,-472.67"/>
</g>
<!-- Node13&#45;&gt;Node11 -->
<g id="edge20" class="edge">
<title>Node13&#45;&gt;Node11</title>
<path fill="none" stroke="midnightblue" d="M147.72,-473.72C129.24,-453.09 98.54,-415.65 82,-378 62.81,-334.31 57.06,-276.43 55.51,-254.72"/>
<polygon fill="midnightblue" stroke="midnightblue" points="145.27,-476.23 154.6,-481.25 150.44,-471.51 145.27,-476.23"/>
</g>
<!-- Node13&#45;&gt;Node12 -->
<g id="edge22" class="edge">
<title>Node13&#45;&gt;Node12</title>
<path fill="none" stroke="midnightblue" d="M226.84,-479.08C253.36,-472.35 283.38,-461.69 307,-445 332.73,-426.82 351.79,-393.46 359.82,-377.7"/>
<polygon fill="midnightblue" stroke="midnightblue" points="225.78,-475.74 216.87,-481.47 227.41,-482.54 225.78,-475.74"/>
</g>
<!-- Node14 -->
<g id="node14" class="node">
<title>Node14</title>
<g id="a_node14"><a xlink:href="ParameterStorage_8h_source.html" target="_top" xlink:title=" ">
<polygon fill="none" stroke="black" points="162,-414.5 162,-444.5 298,-444.5 298,-414.5 162,-414.5"/>
<text text-anchor="start" x="170" y="-432.5" font-family="Helvetica,sans-Serif" font-size="10.00">include/fire/io/Parameter</text>
<text text-anchor="middle" x="230" y="-421.5" font-family="Helvetica,sans-Serif" font-size="10.00">Storage.h</text>
</a>
</g>
</g>
<!-- Node13&#45;&gt;Node14 -->
<g id="edge23" class="edge">
<title>Node13&#45;&gt;Node14</title>
<path fill="none" stroke="midnightblue" d="M180.29,-474.65C190.76,-465.35 204.02,-453.57 214.21,-444.52"/>
<polygon fill="midnightblue" stroke="midnightblue" points="177.75,-472.22 172.6,-481.48 182.4,-477.45 177.75,-472.22"/>
</g>
<!-- Node14&#45;&gt;Node2 -->
<g id="edge24" class="edge">
<title>Node14&#45;&gt;Node2</title>
<path fill="none" stroke="midnightblue" d="M206.81,-407.6C195.41,-397.32 182.28,-385.48 173.6,-377.66"/>
<polygon fill="midnightblue" stroke="midnightblue" points="204.59,-410.3 214.36,-414.4 209.28,-405.1 204.59,-410.3"/>
</g>
<!-- Node14&#45;&gt;Node12 -->
<g id="edge25" class="edge">
<title>Node14&#45;&gt;Node12</title>
<path fill="none" stroke="midnightblue" d="M271.15,-410.23C295.55,-399.39 325.35,-386.16 344.5,-377.66"/>
<polygon fill="midnightblue" stroke="midnightblue" points="269.48,-407.14 261.76,-414.4 272.32,-413.54 269.48,-407.14"/>
</g>
<!-- Node15&#45;&gt;Node13 -->
<g id="edge27" class="edge">
<title>Node15&#45;&gt;Node13</title>
<path fill="none" stroke="midnightblue" d="M181.66,-527.98C176.91,-518.82 171.34,-508.09 167.54,-500.75"/>
<polygon fill="midnightblue" stroke="midnightblue" points="178.67,-529.82 186.38,-537.08 184.88,-526.59 178.67,-529.82"/>
</g>
</g>
</svg>
