<?xml version="1.0" encoding="UTF-8" standalone="no"?>
<!DOCTYPE svg PUBLIC "-//W3C//DTD SVG 1.1//EN"
 "http://www.w3.org/Graphics/SVG/1.1/DTD/svg11.dtd">
<!-- Generated by graphviz version 2.43.0 (0)
 -->
<!-- Title: include/fire/io/Constants.h Pages: 1 -->
<svg width="626pt" height="621pt"
 viewBox="0.00 0.00 626.20 621.00" xmlns="http://www.w3.org/2000/svg" xmlns:xlink="http://www.w3.org/1999/xlink">
<g id="graph0" class="graph" transform="scale(1 1) rotate(0) translate(4 617)">
<title>include/fire/io/Constants.h</title>
<!-- Node1 -->
<g id="node1" class="node">
<title>Node1</title>
<g id="a_node1"><a xlink:title="Definitions for names of structures required by serialization methods.">
<polygon fill="#bfbfbf" stroke="black" points="323.5,-593.5 323.5,-612.5 466.5,-612.5 466.5,-593.5 323.5,-593.5"/>
<text text-anchor="middle" x="395" y="-600.5" font-family="Helvetica,sans-Serif" font-size="10.00">include/fire/io/Constants.h</text>
</a>
</g>
</g>
<!-- Node2 -->
<g id="node2" class="node">
<title>Node2</title>
<g id="a_node2"><a xlink:href="EventHeader_8h_source.html" target="_top" xlink:title=" ">
<polygon fill="none" stroke="black" points="429.5,-358.5 429.5,-377.5 574.5,-377.5 574.5,-358.5 429.5,-358.5"/>
<text text-anchor="middle" x="502" y="-365.5" font-family="Helvetica,sans-Serif" font-size="10.00">include/fire/EventHeader.h</text>
</a>
</g>
</g>
<!-- Node1&#45;&gt;Node2 -->
<g id="edge1" class="edge">
<title>Node1&#45;&gt;Node2</title>
<path fill="none" stroke="midnightblue" d="M411.74,-586.06C437.97,-559.71 487.47,-504.08 504,-445 510.62,-421.36 506.56,-391.95 503.85,-377.64"/>
<polygon fill="midnightblue" stroke="midnightblue" points="409.08,-583.76 404.41,-593.27 413.99,-588.75 409.08,-583.76"/>
</g>
<!-- Node14 -->
<g id="node14" class="node">
<title>Node14</title>
<g id="a_node14"><a xlink:href="RunHeader_8h_source.html" target="_top" xlink:title=" ">
<polygon fill="none" stroke="black" points="146,-358.5 146,-377.5 282,-377.5 282,-358.5 146,-358.5"/>
<text text-anchor="middle" x="214" y="-365.5" font-family="Helvetica,sans-Serif" font-size="10.00">include/fire/RunHeader.h</text>
</a>
</g>
</g>
<!-- Node1&#45;&gt;Node14 -->
<g id="edge17" class="edge">
<title>Node1&#45;&gt;Node14</title>
<path fill="none" stroke="midnightblue" d="M337.89,-590.53C317.03,-583.82 294.72,-573.32 279,-557 227.48,-503.53 216.65,-407.27 214.5,-377.81"/>
<polygon fill="midnightblue" stroke="midnightblue" points="337.08,-593.94 347.67,-593.44 339.08,-587.23 337.08,-593.94"/>
</g>
<!-- Node15 -->
<g id="node15" class="node">
<title>Node15</title>
<g id="a_node15"><a xlink:href="Data_8h_source.html" target="_top" xlink:title=" ">
<polygon fill="none" stroke="black" points="319,-481.5 319,-500.5 437,-500.5 437,-481.5 319,-481.5"/>
<text text-anchor="middle" x="378" y="-488.5" font-family="Helvetica,sans-Serif" font-size="10.00">include/fire/io/Data.h</text>
</a>
</g>
</g>
<!-- Node1&#45;&gt;Node15 -->
<g id="edge21" class="edge">
<title>Node1&#45;&gt;Node15</title>
<path fill="none" stroke="midnightblue" d="M409.2,-585.06C418.39,-571.94 427.54,-553.32 421,-537 414.89,-521.76 400.87,-508.75 390.5,-500.7"/>
<polygon fill="midnightblue" stroke="midnightblue" points="406.29,-583.09 403.01,-593.17 411.86,-587.34 406.29,-583.09"/>
</g>
<!-- Node17 -->
<g id="node17" class="node">
<title>Node17</title>
<g id="a_node17"><a xlink:href="Writer_8h_source.html" target="_top" xlink:title=" ">
<polygon fill="none" stroke="black" points="288,-537.5 288,-556.5 412,-556.5 412,-537.5 288,-537.5"/>
<text text-anchor="middle" x="350" y="-544.5" font-family="Helvetica,sans-Serif" font-size="10.00">include/fire/io/Writer.h</text>
</a>
</g>
</g>
<!-- Node1&#45;&gt;Node17 -->
<g id="edge28" class="edge">
<title>Node1&#45;&gt;Node17</title>
<path fill="none" stroke="midnightblue" d="M380.95,-585.14C373.11,-575.74 363.67,-564.4 357.29,-556.75"/>
<polygon fill="midnightblue" stroke="midnightblue" points="378.48,-587.64 387.57,-593.08 383.86,-583.16 378.48,-587.64"/>
</g>
<!-- Node3 -->
<g id="node3" class="node">
<title>Node3</title>
<g id="a_node3"><a xlink:href="Conditions_8h_source.html" target="_top" xlink:title=" ">
<polygon fill="none" stroke="black" points="458,-174 458,-193 592,-193 592,-174 458,-174"/>
<text text-anchor="middle" x="525" y="-181" font-family="Helvetica,sans-Serif" font-size="10.00">include/fire/Conditions.h</text>
</a>
</g>
</g>
<!-- Node2&#45;&gt;Node3 -->
<g id="edge2" class="edge">
<title>Node2&#45;&gt;Node3</title>
<path fill="none" stroke="midnightblue" d="M526.58,-353.07C539.32,-345.07 554.56,-334.2 566,-322 589.89,-296.54 597.53,-288.6 607,-255 609.41,-246.44 611.33,-242.76 607,-235 595.34,-214.13 571.12,-200.82 552.01,-193.13"/>
<polygon fill="midnightblue" stroke="midnightblue" points="524.58,-350.19 517.84,-358.37 528.2,-356.18 524.58,-350.19"/>
</g>
<!-- Node8 -->
<g id="node8" class="node">
<title>Node8</title>
<g id="a_node8"><a xlink:href="ConditionsIntervalOfValidity_8h_source.html" target="_top" xlink:title=" ">
<polygon fill="none" stroke="black" points="259.5,-291.5 259.5,-321.5 422.5,-321.5 422.5,-291.5 259.5,-291.5"/>
<text text-anchor="start" x="267.5" y="-309.5" font-family="Helvetica,sans-Serif" font-size="10.00">include/fire/ConditionsInterval</text>
<text text-anchor="middle" x="341" y="-298.5" font-family="Helvetica,sans-Serif" font-size="10.00">OfValidity.h</text>
</a>
</g>
</g>
<!-- Node2&#45;&gt;Node8 -->
<g id="edge8" class="edge">
<title>Node2&#45;&gt;Node8</title>
<path fill="none" stroke="midnightblue" d="M469.46,-354.98C443.29,-345.3 406.46,-331.69 378.94,-321.52"/>
<polygon fill="midnightblue" stroke="midnightblue" points="468.34,-358.29 478.93,-358.48 470.77,-351.73 468.34,-358.29"/>
</g>
<!-- Node12 -->
<g id="node12" class="node">
<title>Node12</title>
<g id="a_node12"><a xlink:href="Event_8h_source.html" target="_top" xlink:title=" ">
<polygon fill="none" stroke="black" points="447,-297 447,-316 557,-316 557,-297 447,-297"/>
<text text-anchor="middle" x="502" y="-304" font-family="Helvetica,sans-Serif" font-size="10.00">include/fire/Event.h</text>
</a>
</g>
</g>
<!-- Node2&#45;&gt;Node12 -->
<g id="edge13" class="edge">
<title>Node2&#45;&gt;Node12</title>
<path fill="none" stroke="midnightblue" d="M502,-348.32C502,-337.5 502,-324.4 502,-316.01"/>
<polygon fill="midnightblue" stroke="midnightblue" points="498.5,-348.48 502,-358.48 505.5,-348.48 498.5,-348.48"/>
</g>
<!-- Node4 -->
<g id="node4" class="node">
<title>Node4</title>
<g id="a_node4"><a xlink:href="Process_8h_source.html" target="_top" xlink:title=" ">
<polygon fill="none" stroke="black" points="465,-56.5 465,-75.5 585,-75.5 585,-56.5 465,-56.5"/>
<text text-anchor="middle" x="525" y="-63.5" font-family="Helvetica,sans-Serif" font-size="10.00">include/fire/Process.h</text>
</a>
</g>
</g>
<!-- Node3&#45;&gt;Node4 -->
<g id="edge3" class="edge">
<title>Node3&#45;&gt;Node4</title>
<path fill="none" stroke="midnightblue" d="M525,-163.66C525,-138.37 525,-94.44 525,-75.78"/>
<polygon fill="midnightblue" stroke="midnightblue" points="521.5,-163.82 525,-173.82 528.5,-163.82 521.5,-163.82"/>
</g>
<!-- Node6 -->
<g id="node6" class="node">
<title>Node6</title>
<g id="a_node6"><a xlink:href="Processor_8h_source.html" target="_top" xlink:title=" ">
<polygon fill="none" stroke="black" points="365.5,-112.5 365.5,-131.5 494.5,-131.5 494.5,-112.5 365.5,-112.5"/>
<text text-anchor="middle" x="430" y="-119.5" font-family="Helvetica,sans-Serif" font-size="10.00">include/fire/Processor.h</text>
</a>
</g>
</g>
<!-- Node3&#45;&gt;Node6 -->
<g id="edge5" class="edge">
<title>Node3&#45;&gt;Node6</title>
<path fill="none" stroke="midnightblue" d="M502.79,-168.59C484.45,-157.1 459.02,-141.18 443.59,-131.51"/>
<polygon fill="midnightblue" stroke="midnightblue" points="501.06,-171.63 511.39,-173.98 504.77,-165.7 501.06,-171.63"/>
</g>
<!-- Node5 -->
<g id="node5" class="node">
<title>Node5</title>
<g id="a_node5"><a xlink:href="fire_8cxx.html" target="_top" xlink:title="main definition for fire executable">
<polygon fill="none" stroke="black" points="488,-0.5 488,-19.5 562,-19.5 562,-0.5 488,-0.5"/>
<text text-anchor="middle" x="525" y="-7.5" font-family="Helvetica,sans-Serif" font-size="10.00">app/fire.cxx</text>
</a>
</g>
</g>
<!-- Node4&#45;&gt;Node5 -->
<g id="edge4" class="edge">
<title>Node4&#45;&gt;Node5</title>
<path fill="none" stroke="midnightblue" d="M525,-45.8C525,-36.91 525,-26.78 525,-19.75"/>
<polygon fill="midnightblue" stroke="midnightblue" points="521.5,-46.08 525,-56.08 528.5,-46.08 521.5,-46.08"/>
</g>
<!-- Node6&#45;&gt;Node4 -->
<g id="edge7" class="edge">
<title>Node6&#45;&gt;Node4</title>
<path fill="none" stroke="midnightblue" d="M454.32,-107.18C471.8,-97.24 494.83,-84.15 509.77,-75.65"/>
<polygon fill="midnightblue" stroke="midnightblue" points="452.23,-104.34 445.26,-112.32 455.69,-110.43 452.23,-104.34"/>
</g>
<!-- Node7 -->
<g id="node7" class="node">
<title>Node7</title>
<g id="a_node7"><a xlink:href="EventProcessor_8h.html" target="_top" xlink:title="Re&#45;interpretation of ROOT&#45;based framework code into fire.">
<polygon fill="none" stroke="black" points="251,-56.5 251,-75.5 447,-75.5 447,-56.5 251,-56.5"/>
<text text-anchor="middle" x="349" y="-63.5" font-family="Helvetica,sans-Serif" font-size="10.00">include/Framework/EventProcessor.h</text>
</a>
</g>
</g>
<!-- Node6&#45;&gt;Node7 -->
<g id="edge6" class="edge">
<title>Node6&#45;&gt;Node7</title>
<path fill="none" stroke="midnightblue" d="M408.43,-106.62C393.64,-96.76 374.49,-83.99 361.98,-75.65"/>
<polygon fill="midnightblue" stroke="midnightblue" points="406.72,-109.69 416.99,-112.32 410.61,-103.86 406.72,-109.69"/>
</g>
<!-- Node9 -->
<g id="node9" class="node">
<title>Node9</title>
<g id="a_node9"><a xlink:href="ConditionsProvider_8h_source.html" target="_top" xlink:title=" ">
<polygon fill="none" stroke="black" points="228,-235.5 228,-254.5 402,-254.5 402,-235.5 228,-235.5"/>
<text text-anchor="middle" x="315" y="-242.5" font-family="Helvetica,sans-Serif" font-size="10.00">include/fire/ConditionsProvider.h</text>
</a>
</g>
</g>
<!-- Node8&#45;&gt;Node9 -->
<g id="edge9" class="edge">
<title>Node8&#45;&gt;Node9</title>
<path fill="none" stroke="midnightblue" d="M330.82,-282.2C326.59,-272.52 321.94,-261.88 318.78,-254.66"/>
<polygon fill="midnightblue" stroke="midnightblue" points="327.63,-283.64 334.84,-291.4 334.04,-280.83 327.63,-283.64"/>
</g>
<!-- Node9&#45;&gt;Node3 -->
<g id="edge11" class="edge">
<title>Node9&#45;&gt;Node3</title>
<path fill="none" stroke="midnightblue" d="M354.97,-232.68C395.77,-221.11 458.19,-203.43 494.97,-193.01"/>
<polygon fill="midnightblue" stroke="midnightblue" points="353.76,-229.38 345.09,-235.48 355.66,-236.12 353.76,-229.38"/>
</g>
<!-- Node10 -->
<g id="node10" class="node">
<title>Node10</title>
<g id="a_node10"><a xlink:href="ConditionsObjectProvider_8h_source.html" target="_top" xlink:title=" ">
<polygon fill="none" stroke="black" points="66,-168.5 66,-198.5 230,-198.5 230,-168.5 66,-168.5"/>
<text text-anchor="start" x="74" y="-186.5" font-family="Helvetica,sans-Serif" font-size="10.00">include/Framework/Conditions</text>
<text text-anchor="middle" x="148" y="-175.5" font-family="Helvetica,sans-Serif" font-size="10.00">ObjectProvider.h</text>
</a>
</g>
</g>
<!-- Node9&#45;&gt;Node10 -->
<g id="edge10" class="edge">
<title>Node9&#45;&gt;Node10</title>
<path fill="none" stroke="midnightblue" d="M281.61,-232.1C254.44,-222.42 216.03,-208.74 187.36,-198.52"/>
<polygon fill="midnightblue" stroke="midnightblue" points="280.48,-235.42 291.07,-235.48 282.83,-228.82 280.48,-235.42"/>
</g>
<!-- Node11 -->
<g id="node11" class="node">
<title>Node11</title>
<g id="a_node11"><a xlink:href="RandomNumberSeedService_8h.html" target="_top" xlink:title="Conditions object for random number seeds.">
<polygon fill="none" stroke="black" points="248.5,-168.5 248.5,-198.5 401.5,-198.5 401.5,-168.5 248.5,-168.5"/>
<text text-anchor="start" x="256.5" y="-186.5" font-family="Helvetica,sans-Serif" font-size="10.00">include/fire/RandomNumber</text>
<text text-anchor="middle" x="325" y="-175.5" font-family="Helvetica,sans-Serif" font-size="10.00">SeedService.h</text>
</a>
</g>
</g>
<!-- Node9&#45;&gt;Node11 -->
<g id="edge12" class="edge">
<title>Node9&#45;&gt;Node11</title>
<path fill="none" stroke="midnightblue" d="M318.1,-225.53C319.57,-216.81 321.29,-206.59 322.64,-198.52"/>
<polygon fill="midnightblue" stroke="midnightblue" points="314.64,-225.03 316.43,-235.48 321.54,-226.19 314.64,-225.03"/>
</g>
<!-- Node12&#45;&gt;Node4 -->
<g id="edge14" class="edge">
<title>Node12&#45;&gt;Node4</title>
<path fill="none" stroke="midnightblue" d="M552.96,-293.7C573.42,-286.2 594.96,-274.14 607,-255 647.37,-190.79 563.79,-103.28 534.58,-75.7"/>
<polygon fill="midnightblue" stroke="midnightblue" points="551.72,-290.43 543.36,-296.94 553.96,-297.06 551.72,-290.43"/>
</g>
<!-- Node12&#45;&gt;Node6 -->
<g id="edge15" class="edge">
<title>Node12&#45;&gt;Node6</title>
<path fill="none" stroke="midnightblue" d="M480.98,-290.55C469.95,-281.53 457.25,-269.09 450,-255 428.26,-212.75 428.51,-153.52 429.48,-131.6"/>
<polygon fill="midnightblue" stroke="midnightblue" points="478.92,-293.38 488.97,-296.74 483.21,-287.85 478.92,-293.38"/>
</g>
<!-- Node13 -->
<g id="node13" class="node">
<title>Node13</title>
<g id="a_node13"><a xlink:href="UserReader_8h_source.html" target="_top" xlink:title=" ">
<polygon fill="none" stroke="black" points="458.5,-235.5 458.5,-254.5 597.5,-254.5 597.5,-235.5 458.5,-235.5"/>
<text text-anchor="middle" x="528" y="-242.5" font-family="Helvetica,sans-Serif" font-size="10.00">include/fire/UserReader.h</text>
</a>
</g>
</g>
<!-- Node12&#45;&gt;Node13 -->
<g id="edge16" class="edge">
<title>Node12&#45;&gt;Node13</title>
<path fill="none" stroke="midnightblue" d="M509.87,-287.5C514.65,-276.55 520.54,-263.07 524.28,-254.51"/>
<polygon fill="midnightblue" stroke="midnightblue" points="506.52,-286.41 505.73,-296.98 512.94,-289.21 506.52,-286.41"/>
</g>
<!-- Node14&#45;&gt;Node4 -->
<g id="edge19" class="edge">
<title>Node14&#45;&gt;Node4</title>
<path fill="none" stroke="midnightblue" d="M141.16,-356.43C79.13,-342.82 0,-312.44 0,-246 0,-246 0,-246 0,-182.5 0,-158.38 342.43,-97.89 474.18,-75.5"/>
<polygon fill="midnightblue" stroke="midnightblue" points="140.45,-359.85 150.95,-358.47 141.88,-353 140.45,-359.85"/>
</g>
<!-- Node14&#45;&gt;Node6 -->
<g id="edge20" class="edge">
<title>Node14&#45;&gt;Node6</title>
<path fill="none" stroke="midnightblue" d="M188.73,-353.4C130.81,-320.57 -2.18,-234.75 57,-168 77.07,-145.37 263.9,-131.91 365.28,-126.21"/>
<polygon fill="midnightblue" stroke="midnightblue" points="187.23,-356.57 197.66,-358.38 190.63,-350.45 187.23,-356.57"/>
</g>
<!-- Node14&#45;&gt;Node9 -->
<g id="edge18" class="edge">
<title>Node14&#45;&gt;Node9</title>
<path fill="none" stroke="midnightblue" d="M219.64,-348.65C225.35,-332.23 235.43,-308.17 250,-291 263.41,-275.2 283.62,-262.38 297.93,-254.53"/>
<polygon fill="midnightblue" stroke="midnightblue" points="216.3,-347.6 216.51,-358.19 222.95,-349.78 216.3,-347.6"/>
</g>
<!-- Node15&#45;&gt;Node2 -->
<g id="edge23" class="edge">
<title>Node15&#45;&gt;Node2</title>
<path fill="none" stroke="midnightblue" d="M429.59,-478.34C448.83,-471.57 469.3,-461.08 483,-445 499.75,-425.33 502.11,-392.99 502.2,-377.63"/>
<polygon fill="midnightblue" stroke="midnightblue" points="428.41,-475.04 419.98,-481.46 430.57,-481.7 428.41,-475.04"/>
</g>
<!-- Node15&#45;&gt;Node12 -->
<g id="edge22" class="edge">
<title>Node15&#45;&gt;Node12</title>
<path fill="none" stroke="midnightblue" d="M354.9,-475.35C344.96,-467.66 334.39,-457.27 329,-445 323.46,-432.39 322.28,-426.03 329,-414 359.45,-359.5 430.49,-329.45 471.44,-316.1"/>
<polygon fill="midnightblue" stroke="midnightblue" points="353.17,-478.42 363.34,-481.4 357.25,-472.73 353.17,-478.42"/>
</g>
<!-- Node15&#45;&gt;Node14 -->
<g id="edge24" class="edge">
<title>Node15&#45;&gt;Node14</title>
<path fill="none" stroke="midnightblue" d="M350.24,-476.92C333.86,-468.68 313.07,-457.31 296,-445 266.4,-423.66 236.05,-392.68 222.02,-377.72"/>
<polygon fill="midnightblue" stroke="midnightblue" points="348.8,-480.11 359.31,-481.39 351.89,-473.83 348.8,-480.11"/>
</g>
<!-- Node16 -->
<g id="node16" class="node">
<title>Node16</title>
<g id="a_node16"><a xlink:href="ParameterStorage_8h_source.html" target="_top" xlink:title=" ">
<polygon fill="none" stroke="black" points="338,-414.5 338,-444.5 474,-444.5 474,-414.5 338,-414.5"/>
<text text-anchor="start" x="346" y="-432.5" font-family="Helvetica,sans-Serif" font-size="10.00">include/fire/io/Parameter</text>
<text text-anchor="middle" x="406" y="-421.5" font-family="Helvetica,sans-Serif" font-size="10.00">Storage.h</text>
</a>
</g>
</g>
<!-- Node15&#45;&gt;Node16 -->
<g id="edge25" class="edge">
<title>Node15&#45;&gt;Node16</title>
<path fill="none" stroke="midnightblue" d="M386.29,-472.39C390.47,-463.5 395.48,-452.86 399.4,-444.52"/>
<polygon fill="midnightblue" stroke="midnightblue" points="383.1,-470.94 382.01,-481.48 389.44,-473.92 383.1,-470.94"/>
</g>
<!-- Node16&#45;&gt;Node2 -->
<g id="edge26" class="edge">
<title>Node16&#45;&gt;Node2</title>
<path fill="none" stroke="midnightblue" d="M437.35,-409.07C454.46,-398.46 474.8,-385.86 488.03,-377.66"/>
<polygon fill="midnightblue" stroke="midnightblue" points="435.41,-406.16 428.75,-414.4 439.09,-412.11 435.41,-406.16"/>
</g>
<!-- Node16&#45;&gt;Node14 -->
<g id="edge27" class="edge">
<title>Node16&#45;&gt;Node14</title>
<path fill="none" stroke="midnightblue" d="M350.69,-411.36C314.98,-400.29 270.04,-386.37 241.66,-377.57"/>
<polygon fill="midnightblue" stroke="midnightblue" points="349.91,-414.78 360.5,-414.4 351.98,-408.1 349.91,-414.78"/>
</g>
<!-- Node17&#45;&gt;Node15 -->
<g id="edge29" class="edge">
<title>Node17&#45;&gt;Node15</title>
<path fill="none" stroke="midnightblue" d="M359.34,-527.98C364.09,-518.82 369.66,-508.09 373.46,-500.75"/>
<polygon fill="midnightblue" stroke="midnightblue" points="356.12,-526.59 354.62,-537.08 362.33,-529.82 356.12,-526.59"/>
</g>
</g>
</svg>
