<?xml version="1.0" encoding="UTF-8" standalone="no"?>
<!DOCTYPE svg PUBLIC "-//W3C//DTD SVG 1.1//EN"
 "http://www.w3.org/Graphics/SVG/1.1/DTD/svg11.dtd">
<!-- Generated by graphviz version 2.43.0 (0)
 -->
<!-- Title: include/fire/io/Constants.h Pages: 1 -->
<svg width="538pt" height="442pt"
 viewBox="0.00 0.00 538.00 442.00" xmlns="http://www.w3.org/2000/svg" xmlns:xlink="http://www.w3.org/1999/xlink">
<g id="graph0" class="graph" transform="scale(1 1) rotate(0) translate(4 438)">
<title>include/fire/io/Constants.h</title>
<!-- Node1 -->
<g id="node1" class="node">
<title>Node1</title>
<g id="a_node1"><a xlink:title="Definitions for names of structures required by serialization methods.">
<polygon fill="#bfbfbf" stroke="black" points="286.5,-414.5 286.5,-433.5 429.5,-433.5 429.5,-414.5 286.5,-414.5"/>
<text text-anchor="middle" x="358" y="-421.5" font-family="Helvetica,sans-Serif" font-size="10.00">include/fire/io/Constants.h</text>
</a>
</g>
</g>
<!-- Node2 -->
<g id="node2" class="node">
<title>Node2</title>
<g id="a_node2"><a xlink:href="EventHeader_8h_source.html" target="_top" xlink:title=" ">
<polygon fill="none" stroke="black" points="235.5,-358.5 235.5,-377.5 380.5,-377.5 380.5,-358.5 235.5,-358.5"/>
<text text-anchor="middle" x="308" y="-365.5" font-family="Helvetica,sans-Serif" font-size="10.00">include/fire/EventHeader.h</text>
</a>
</g>
</g>
<!-- Node1&#45;&gt;Node2 -->
<g id="edge1" class="edge">
<title>Node1&#45;&gt;Node2</title>
<path fill="none" stroke="midnightblue" d="M342.92,-406.72C334.11,-397.2 323.33,-385.56 316.1,-377.75"/>
<polygon fill="midnightblue" stroke="midnightblue" points="340.38,-409.12 349.74,-414.08 345.52,-404.37 340.38,-409.12"/>
</g>
<!-- Node11 -->
<g id="node11" class="node">
<title>Node11</title>
<g id="a_node11"><a xlink:href="RunHeader_8h_source.html" target="_top" xlink:title=" ">
<polygon fill="none" stroke="black" points="394,-297 394,-316 530,-316 530,-297 394,-297"/>
<text text-anchor="middle" x="462" y="-304" font-family="Helvetica,sans-Serif" font-size="10.00">include/fire/RunHeader.h</text>
</a>
</g>
</g>
<!-- Node1&#45;&gt;Node11 -->
<g id="edge14" class="edge">
<title>Node1&#45;&gt;Node11</title>
<path fill="none" stroke="midnightblue" d="M372.57,-406.82C394.86,-382.06 436.69,-335.61 454.09,-316.28"/>
<polygon fill="midnightblue" stroke="midnightblue" points="369.91,-404.55 365.82,-414.32 375.11,-409.23 369.91,-404.55"/>
</g>
<!-- Node3 -->
<g id="node3" class="node">
<title>Node3</title>
<g id="a_node3"><a xlink:href="Conditions_8h_source.html" target="_top" xlink:title=" ">
<polygon fill="none" stroke="black" points="300,-174 300,-193 434,-193 434,-174 300,-174"/>
<text text-anchor="middle" x="367" y="-181" font-family="Helvetica,sans-Serif" font-size="10.00">include/fire/Conditions.h</text>
</a>
</g>
</g>
<!-- Node2&#45;&gt;Node3 -->
<g id="edge2" class="edge">
<title>Node2&#45;&gt;Node3</title>
<path fill="none" stroke="midnightblue" d="M323.82,-350.72C330.76,-342.68 338.36,-332.48 343,-322 363.12,-276.58 366.41,-215.73 366.92,-193.29"/>
<polygon fill="midnightblue" stroke="midnightblue" points="321.13,-348.48 316.99,-358.23 326.31,-353.19 321.13,-348.48"/>
</g>
<!-- Node7 -->
<g id="node7" class="node">
<title>Node7</title>
<g id="a_node7"><a xlink:href="ConditionsIntervalOfValidity_8h_source.html" target="_top" xlink:title=" ">
<polygon fill="none" stroke="black" points="171.5,-291.5 171.5,-321.5 334.5,-321.5 334.5,-291.5 171.5,-291.5"/>
<text text-anchor="start" x="179.5" y="-309.5" font-family="Helvetica,sans-Serif" font-size="10.00">include/fire/ConditionsInterval</text>
<text text-anchor="middle" x="253" y="-298.5" font-family="Helvetica,sans-Serif" font-size="10.00">OfValidity.h</text>
</a>
</g>
</g>
<!-- Node2&#45;&gt;Node7 -->
<g id="edge7" class="edge">
<title>Node2&#45;&gt;Node7</title>
<path fill="none" stroke="midnightblue" d="M293.29,-351.09C284.78,-341.88 274.16,-330.39 265.96,-321.52"/>
<polygon fill="midnightblue" stroke="midnightblue" points="290.76,-353.51 300.12,-358.48 295.9,-348.76 290.76,-353.51"/>
</g>
<!-- Node10 -->
<g id="node10" class="node">
<title>Node10</title>
<g id="a_node10"><a xlink:href="Event_8h_source.html" target="_top" xlink:title=" ">
<polygon fill="none" stroke="black" points="0,-174 0,-193 110,-193 110,-174 0,-174"/>
<text text-anchor="middle" x="55" y="-181" font-family="Helvetica,sans-Serif" font-size="10.00">include/fire/Event.h</text>
</a>
</g>
</g>
<!-- Node2&#45;&gt;Node10 -->
<g id="edge11" class="edge">
<title>Node2&#45;&gt;Node10</title>
<path fill="none" stroke="midnightblue" d="M243.78,-356.12C216.83,-349.39 186.2,-338.71 162,-322 109.98,-286.08 71.58,-217.17 59.23,-193.07"/>
<polygon fill="midnightblue" stroke="midnightblue" points="242.98,-359.53 253.52,-358.43 244.59,-352.72 242.98,-359.53"/>
</g>
<!-- Node4 -->
<g id="node4" class="node">
<title>Node4</title>
<g id="a_node4"><a xlink:href="Process_8h_source.html" target="_top" xlink:title=" ">
<polygon fill="none" stroke="black" points="306,-56.5 306,-75.5 426,-75.5 426,-56.5 306,-56.5"/>
<text text-anchor="middle" x="366" y="-63.5" font-family="Helvetica,sans-Serif" font-size="10.00">include/fire/Process.h</text>
</a>
</g>
</g>
<!-- Node3&#45;&gt;Node4 -->
<g id="edge3" class="edge">
<title>Node3&#45;&gt;Node4</title>
<path fill="none" stroke="midnightblue" d="M379.75,-165.34C388.67,-151.23 398.15,-130.59 393,-112 389.16,-98.13 379.77,-84.24 373.15,-75.64"/>
<polygon fill="midnightblue" stroke="midnightblue" points="376.61,-163.74 373.85,-173.97 382.39,-167.69 376.61,-163.74"/>
</g>
<!-- Node6 -->
<g id="node6" class="node">
<title>Node6</title>
<g id="a_node6"><a xlink:href="Processor_8h_source.html" target="_top" xlink:title=" ">
<polygon fill="none" stroke="black" points="255.5,-112.5 255.5,-131.5 384.5,-131.5 384.5,-112.5 255.5,-112.5"/>
<text text-anchor="middle" x="320" y="-119.5" font-family="Helvetica,sans-Serif" font-size="10.00">include/fire/Processor.h</text>
</a>
</g>
</g>
<!-- Node3&#45;&gt;Node6 -->
<g id="edge5" class="edge">
<title>Node3&#45;&gt;Node6</title>
<path fill="none" stroke="midnightblue" d="M353.84,-165.84C345.02,-154.67 333.77,-140.43 326.72,-131.51"/>
<polygon fill="midnightblue" stroke="midnightblue" points="351.32,-168.3 360.27,-173.98 356.81,-163.96 351.32,-168.3"/>
</g>
<!-- Node5 -->
<g id="node5" class="node">
<title>Node5</title>
<g id="a_node5"><a xlink:href="fire_8cxx.html" target="_top" xlink:title="main definition for fire executable">
<polygon fill="none" stroke="black" points="329,-0.5 329,-19.5 403,-19.5 403,-0.5 329,-0.5"/>
<text text-anchor="middle" x="366" y="-7.5" font-family="Helvetica,sans-Serif" font-size="10.00">app/fire.cxx</text>
</a>
</g>
</g>
<!-- Node4&#45;&gt;Node5 -->
<g id="edge4" class="edge">
<title>Node4&#45;&gt;Node5</title>
<path fill="none" stroke="midnightblue" d="M366,-45.8C366,-36.91 366,-26.78 366,-19.75"/>
<polygon fill="midnightblue" stroke="midnightblue" points="362.5,-46.08 366,-56.08 369.5,-46.08 362.5,-46.08"/>
</g>
<!-- Node6&#45;&gt;Node4 -->
<g id="edge6" class="edge">
<title>Node6&#45;&gt;Node4</title>
<path fill="none" stroke="midnightblue" d="M334.11,-104.43C342.18,-94.97 351.96,-83.48 358.55,-75.75"/>
<polygon fill="midnightblue" stroke="midnightblue" points="331.42,-102.2 327.6,-112.08 336.75,-106.74 331.42,-102.2"/>
</g>
<!-- Node8 -->
<g id="node8" class="node">
<title>Node8</title>
<g id="a_node8"><a xlink:href="ConditionsProvider_8h_source.html" target="_top" xlink:title=" ">
<polygon fill="none" stroke="black" points="164,-235.5 164,-254.5 338,-254.5 338,-235.5 164,-235.5"/>
<text text-anchor="middle" x="251" y="-242.5" font-family="Helvetica,sans-Serif" font-size="10.00">include/fire/ConditionsProvider.h</text>
</a>
</g>
</g>
<!-- Node7&#45;&gt;Node8 -->
<g id="edge8" class="edge">
<title>Node7&#45;&gt;Node8</title>
<path fill="none" stroke="midnightblue" d="M252.19,-281.29C251.87,-271.86 251.53,-261.65 251.29,-254.66"/>
<polygon fill="midnightblue" stroke="midnightblue" points="248.69,-281.52 252.53,-291.4 255.69,-281.29 248.69,-281.52"/>
</g>
<!-- Node8&#45;&gt;Node3 -->
<g id="edge9" class="edge">
<title>Node8&#45;&gt;Node3</title>
<path fill="none" stroke="midnightblue" d="M276.6,-230.87C299.09,-219.33 331.13,-202.9 350.41,-193.01"/>
<polygon fill="midnightblue" stroke="midnightblue" points="274.92,-227.8 267.62,-235.48 278.12,-234.03 274.92,-227.8"/>
</g>
<!-- Node9 -->
<g id="node9" class="node">
<title>Node9</title>
<g id="a_node9"><a xlink:href="RandomNumberSeedService_8h.html" target="_top" xlink:title="Conditions object for random number seeds.">
<polygon fill="none" stroke="black" points="128.5,-168.5 128.5,-198.5 281.5,-198.5 281.5,-168.5 128.5,-168.5"/>
<text text-anchor="start" x="136.5" y="-186.5" font-family="Helvetica,sans-Serif" font-size="10.00">include/fire/RandomNumber</text>
<text text-anchor="middle" x="205" y="-175.5" font-family="Helvetica,sans-Serif" font-size="10.00">SeedService.h</text>
</a>
</g>
</g>
<!-- Node8&#45;&gt;Node9 -->
<g id="edge10" class="edge">
<title>Node8&#45;&gt;Node9</title>
<path fill="none" stroke="midnightblue" d="M238.27,-227.53C231.22,-218.42 222.56,-207.21 215.84,-198.52"/>
<polygon fill="midnightblue" stroke="midnightblue" points="235.52,-229.7 244.41,-235.48 241.06,-225.42 235.52,-229.7"/>
</g>
<!-- Node10&#45;&gt;Node4 -->
<g id="edge12" class="edge">
<title>Node10&#45;&gt;Node4</title>
<path fill="none" stroke="midnightblue" d="M87.58,-170.4C150.62,-146.99 287.92,-96 342.73,-75.64"/>
<polygon fill="midnightblue" stroke="midnightblue" points="86.28,-167.15 78.12,-173.91 88.71,-173.71 86.28,-167.15"/>
</g>
<!-- Node10&#45;&gt;Node6 -->
<g id="edge13" class="edge">
<title>Node10&#45;&gt;Node6</title>
<path fill="none" stroke="midnightblue" d="M102.48,-171.73C108.05,-170.47 113.65,-169.2 119,-168 175.69,-155.23 241.4,-140.54 281.83,-131.51"/>
<polygon fill="midnightblue" stroke="midnightblue" points="101.54,-168.35 92.56,-173.97 103.09,-175.18 101.54,-168.35"/>
</g>
<!-- Node11&#45;&gt;Node4 -->
<g id="edge16" class="edge">
<title>Node11&#45;&gt;Node4</title>
<path fill="none" stroke="midnightblue" d="M470.17,-287.35C473.98,-277.91 478.09,-266.06 480,-255 486.68,-216.34 483.74,-202.47 465,-168 442.72,-127.01 398.98,-91.23 377.91,-75.5"/>
<polygon fill="midnightblue" stroke="midnightblue" points="466.84,-286.24 466.13,-296.81 473.28,-288.99 466.84,-286.24"/>
</g>
<!-- Node11&#45;&gt;Node6 -->
<g id="edge17" class="edge">
<title>Node11&#45;&gt;Node6</title>
<path fill="none" stroke="midnightblue" d="M464.96,-287C468.48,-258.22 470.78,-202.44 443,-168 427.58,-148.88 403.28,-137.89 380.34,-131.56"/>
<polygon fill="midnightblue" stroke="midnightblue" points="461.5,-286.54 463.57,-296.93 468.43,-287.51 461.5,-286.54"/>
</g>
<!-- Node11&#45;&gt;Node8 -->
<g id="edge15" class="edge">
<title>Node11&#45;&gt;Node8</title>
<path fill="none" stroke="midnightblue" d="M422.1,-294.25C381.11,-282.69 318.2,-264.95 281.18,-254.51"/>
<polygon fill="midnightblue" stroke="midnightblue" points="421.19,-297.63 431.77,-296.98 423.09,-290.89 421.19,-297.63"/>
</g>
</g>
</svg>
