<?xml version="1.0" encoding="UTF-8" standalone="no"?>
<!DOCTYPE svg PUBLIC "-//W3C//DTD SVG 1.1//EN"
 "http://www.w3.org/Graphics/SVG/1.1/DTD/svg11.dtd">
<!-- Generated by graphviz version 2.43.0 (0)
 -->
<!-- Title: include/fire/io/Constants.h Pages: 1 -->
<svg width="502pt" height="565pt"
 viewBox="0.00 0.00 502.42 565.00" xmlns="http://www.w3.org/2000/svg" xmlns:xlink="http://www.w3.org/1999/xlink">
<g id="graph0" class="graph" transform="scale(1 1) rotate(0) translate(4 561)">
<title>include/fire/io/Constants.h</title>
<!-- Node1 -->
<g id="node1" class="node">
<title>Node1</title>
<g id="a_node1"><a xlink:title="Definitions for names of structures required by serialization methods.">
<polygon fill="#bfbfbf" stroke="black" points="156.5,-537.5 156.5,-556.5 299.5,-556.5 299.5,-537.5 156.5,-537.5"/>
<text text-anchor="middle" x="228" y="-544.5" font-family="Helvetica,sans-Serif" font-size="10.00">include/fire/io/Constants.h</text>
</a>
</g>
</g>
<!-- Node2 -->
<g id="node2" class="node">
<title>Node2</title>
<g id="a_node2"><a xlink:href="EventHeader_8h_source.html" target="_top" xlink:title=" ">
<polygon fill="none" stroke="black" points="83.5,-358.5 83.5,-377.5 228.5,-377.5 228.5,-358.5 83.5,-358.5"/>
<text text-anchor="middle" x="156" y="-365.5" font-family="Helvetica,sans-Serif" font-size="10.00">include/fire/EventHeader.h</text>
</a>
</g>
</g>
<!-- Node1&#45;&gt;Node2 -->
<g id="edge1" class="edge">
<title>Node1&#45;&gt;Node2</title>
<path fill="none" stroke="midnightblue" d="M195.89,-532.94C182.34,-525.67 167.89,-515.17 160,-501 137.13,-459.94 148.32,-400 153.69,-377.74"/>
<polygon fill="midnightblue" stroke="midnightblue" points="194.53,-536.17 205.04,-537.47 197.63,-529.9 194.53,-536.17"/>
</g>
<!-- Node12 -->
<g id="node12" class="node">
<title>Node12</title>
<g id="a_node12"><a xlink:href="RunHeader_8h_source.html" target="_top" xlink:title=" ">
<polygon fill="none" stroke="black" points="299,-358.5 299,-377.5 435,-377.5 435,-358.5 299,-358.5"/>
<text text-anchor="middle" x="367" y="-365.5" font-family="Helvetica,sans-Serif" font-size="10.00">include/fire/RunHeader.h</text>
</a>
</g>
</g>
<!-- Node1&#45;&gt;Node12 -->
<g id="edge15" class="edge">
<title>Node1&#45;&gt;Node12</title>
<path fill="none" stroke="midnightblue" d="M255.41,-532.5C285.15,-516.24 331.27,-485.91 353,-445 364.83,-422.72 366.84,-392.18 367.07,-377.52"/>
<polygon fill="midnightblue" stroke="midnightblue" points="253.59,-529.51 246.39,-537.29 256.86,-535.7 253.59,-529.51"/>
</g>
<!-- Node13 -->
<g id="node13" class="node">
<title>Node13</title>
<g id="a_node13"><a xlink:href="Data_8h_source.html" target="_top" xlink:title=" ">
<polygon fill="none" stroke="black" points="169,-481.5 169,-500.5 287,-500.5 287,-481.5 169,-481.5"/>
<text text-anchor="middle" x="228" y="-488.5" font-family="Helvetica,sans-Serif" font-size="10.00">include/fire/io/Data.h</text>
</a>
</g>
</g>
<!-- Node1&#45;&gt;Node13 -->
<g id="edge19" class="edge">
<title>Node1&#45;&gt;Node13</title>
<path fill="none" stroke="midnightblue" d="M228,-526.8C228,-517.91 228,-507.78 228,-500.75"/>
<polygon fill="midnightblue" stroke="midnightblue" points="224.5,-527.08 228,-537.08 231.5,-527.08 224.5,-527.08"/>
</g>
<!-- Node3 -->
<g id="node3" class="node">
<title>Node3</title>
<g id="a_node3"><a xlink:href="Conditions_8h_source.html" target="_top" xlink:title=" ">
<polygon fill="none" stroke="black" points="165,-174 165,-193 299,-193 299,-174 165,-174"/>
<text text-anchor="middle" x="232" y="-181" font-family="Helvetica,sans-Serif" font-size="10.00">include/fire/Conditions.h</text>
</a>
</g>
</g>
<!-- Node2&#45;&gt;Node3 -->
<g id="edge2" class="edge">
<title>Node2&#45;&gt;Node3</title>
<path fill="none" stroke="midnightblue" d="M163.61,-348.72C179.71,-310.07 216.66,-221.33 228.37,-193.21"/>
<polygon fill="midnightblue" stroke="midnightblue" points="160.28,-347.62 159.67,-358.2 166.74,-350.31 160.28,-347.62"/>
</g>
<!-- Node8 -->
<g id="node8" class="node">
<title>Node8</title>
<g id="a_node8"><a xlink:href="ConditionsIntervalOfValidity_8h_source.html" target="_top" xlink:title=" ">
<polygon fill="none" stroke="black" points="210.5,-291.5 210.5,-321.5 373.5,-321.5 373.5,-291.5 210.5,-291.5"/>
<text text-anchor="start" x="218.5" y="-309.5" font-family="Helvetica,sans-Serif" font-size="10.00">include/fire/ConditionsInterval</text>
<text text-anchor="middle" x="292" y="-298.5" font-family="Helvetica,sans-Serif" font-size="10.00">OfValidity.h</text>
</a>
</g>
</g>
<!-- Node2&#45;&gt;Node8 -->
<g id="edge8" class="edge">
<title>Node2&#45;&gt;Node8</title>
<path fill="none" stroke="midnightblue" d="M184.66,-354.46C206.69,-344.82 237.11,-331.51 259.95,-321.52"/>
<polygon fill="midnightblue" stroke="midnightblue" points="183.24,-351.26 175.49,-358.48 186.05,-357.67 183.24,-351.26"/>
</g>
<!-- Node11 -->
<g id="node11" class="node">
<title>Node11</title>
<g id="a_node11"><a xlink:href="Event_8h_source.html" target="_top" xlink:title=" ">
<polygon fill="none" stroke="black" points="0,-235.5 0,-254.5 110,-254.5 110,-235.5 0,-235.5"/>
<text text-anchor="middle" x="55" y="-242.5" font-family="Helvetica,sans-Serif" font-size="10.00">include/fire/Event.h</text>
</a>
</g>
</g>
<!-- Node2&#45;&gt;Node11 -->
<g id="edge12" class="edge">
<title>Node2&#45;&gt;Node11</title>
<path fill="none" stroke="midnightblue" d="M142.17,-350.43C120.4,-324.35 78.88,-274.6 62.2,-254.62"/>
<polygon fill="midnightblue" stroke="midnightblue" points="139.64,-352.86 148.74,-358.3 145.02,-348.38 139.64,-352.86"/>
</g>
<!-- Node4 -->
<g id="node4" class="node">
<title>Node4</title>
<g id="a_node4"><a xlink:href="Process_8h_source.html" target="_top" xlink:title=" ">
<polygon fill="none" stroke="black" points="77,-56.5 77,-75.5 197,-75.5 197,-56.5 77,-56.5"/>
<text text-anchor="middle" x="137" y="-63.5" font-family="Helvetica,sans-Serif" font-size="10.00">include/fire/Process.h</text>
</a>
</g>
</g>
<!-- Node3&#45;&gt;Node4 -->
<g id="edge3" class="edge">
<title>Node3&#45;&gt;Node4</title>
<path fill="none" stroke="midnightblue" d="M218.43,-166C198,-141.16 160.05,-95.02 144.22,-75.78"/>
<polygon fill="midnightblue" stroke="midnightblue" points="215.8,-168.32 224.86,-173.82 221.21,-163.87 215.8,-168.32"/>
</g>
<!-- Node6 -->
<g id="node6" class="node">
<title>Node6</title>
<g id="a_node6"><a xlink:href="Processor_8h_source.html" target="_top" xlink:title=" ">
<polygon fill="none" stroke="black" points="203.5,-112.5 203.5,-131.5 332.5,-131.5 332.5,-112.5 203.5,-112.5"/>
<text text-anchor="middle" x="268" y="-119.5" font-family="Helvetica,sans-Serif" font-size="10.00">include/fire/Processor.h</text>
</a>
</g>
</g>
<!-- Node3&#45;&gt;Node6 -->
<g id="edge5" class="edge">
<title>Node3&#45;&gt;Node6</title>
<path fill="none" stroke="midnightblue" d="M242.48,-165.17C249.18,-154.11 257.56,-140.25 262.85,-131.51"/>
<polygon fill="midnightblue" stroke="midnightblue" points="239.34,-163.61 237.16,-173.98 245.33,-167.23 239.34,-163.61"/>
</g>
<!-- Node5 -->
<g id="node5" class="node">
<title>Node5</title>
<g id="a_node5"><a xlink:href="fire_8cxx.html" target="_top" xlink:title="main definition for fire executable">
<polygon fill="none" stroke="black" points="100,-0.5 100,-19.5 174,-19.5 174,-0.5 100,-0.5"/>
<text text-anchor="middle" x="137" y="-7.5" font-family="Helvetica,sans-Serif" font-size="10.00">app/fire.cxx</text>
</a>
</g>
</g>
<!-- Node4&#45;&gt;Node5 -->
<g id="edge4" class="edge">
<title>Node4&#45;&gt;Node5</title>
<path fill="none" stroke="midnightblue" d="M137,-45.8C137,-36.91 137,-26.78 137,-19.75"/>
<polygon fill="midnightblue" stroke="midnightblue" points="133.5,-46.08 137,-56.08 140.5,-46.08 133.5,-46.08"/>
</g>
<!-- Node6&#45;&gt;Node4 -->
<g id="edge7" class="edge">
<title>Node6&#45;&gt;Node4</title>
<path fill="none" stroke="midnightblue" d="M237.68,-108.5C213.12,-98.38 179.18,-84.39 157.66,-75.52"/>
<polygon fill="midnightblue" stroke="midnightblue" points="236.66,-111.87 247.24,-112.44 239.33,-105.4 236.66,-111.87"/>
</g>
<!-- Node7 -->
<g id="node7" class="node">
<title>Node7</title>
<g id="a_node7"><a xlink:href="EventProcessor_8h.html" target="_top" xlink:title="Re&#45;interpretation of ROOT&#45;based framework code into fire.">
<polygon fill="none" stroke="black" points="215,-56.5 215,-75.5 411,-75.5 411,-56.5 215,-56.5"/>
<text text-anchor="middle" x="313" y="-63.5" font-family="Helvetica,sans-Serif" font-size="10.00">include/Framework/EventProcessor.h</text>
</a>
</g>
</g>
<!-- Node6&#45;&gt;Node7 -->
<g id="edge6" class="edge">
<title>Node6&#45;&gt;Node7</title>
<path fill="none" stroke="midnightblue" d="M282.05,-104.14C289.89,-94.74 299.33,-83.4 305.71,-75.75"/>
<polygon fill="midnightblue" stroke="midnightblue" points="279.14,-102.16 275.43,-112.08 284.52,-106.64 279.14,-102.16"/>
</g>
<!-- Node9 -->
<g id="node9" class="node">
<title>Node9</title>
<g id="a_node9"><a xlink:href="ConditionsProvider_8h_source.html" target="_top" xlink:title=" ">
<polygon fill="none" stroke="black" points="253,-235.5 253,-254.5 427,-254.5 427,-235.5 253,-235.5"/>
<text text-anchor="middle" x="340" y="-242.5" font-family="Helvetica,sans-Serif" font-size="10.00">include/fire/ConditionsProvider.h</text>
</a>
</g>
</g>
<!-- Node8&#45;&gt;Node9 -->
<g id="edge9" class="edge">
<title>Node8&#45;&gt;Node9</title>
<path fill="none" stroke="midnightblue" d="M309.83,-283.4C317.89,-273.41 326.95,-262.18 333.02,-254.66"/>
<polygon fill="midnightblue" stroke="midnightblue" points="306.93,-281.42 303.38,-291.4 312.38,-285.81 306.93,-281.42"/>
</g>
<!-- Node9&#45;&gt;Node3 -->
<g id="edge10" class="edge">
<title>Node9&#45;&gt;Node3</title>
<path fill="none" stroke="midnightblue" d="M315.6,-230.56C294.7,-219.04 265.24,-202.81 247.45,-193.01"/>
<polygon fill="midnightblue" stroke="midnightblue" points="314.08,-233.72 324.53,-235.48 317.46,-227.58 314.08,-233.72"/>
</g>
<!-- Node10 -->
<g id="node10" class="node">
<title>Node10</title>
<g id="a_node10"><a xlink:href="RandomNumberSeedService_8h.html" target="_top" xlink:title="Conditions object for random number seeds.">
<polygon fill="none" stroke="black" points="317.5,-168.5 317.5,-198.5 470.5,-198.5 470.5,-168.5 317.5,-168.5"/>
<text text-anchor="start" x="325.5" y="-186.5" font-family="Helvetica,sans-Serif" font-size="10.00">include/fire/RandomNumber</text>
<text text-anchor="middle" x="394" y="-175.5" font-family="Helvetica,sans-Serif" font-size="10.00">SeedService.h</text>
</a>
</g>
</g>
<!-- Node9&#45;&gt;Node10 -->
<g id="edge11" class="edge">
<title>Node9&#45;&gt;Node10</title>
<path fill="none" stroke="midnightblue" d="M354.69,-227.81C363.01,-218.65 373.3,-207.3 381.27,-198.52"/>
<polygon fill="midnightblue" stroke="midnightblue" points="351.87,-225.72 347.74,-235.48 357.05,-230.42 351.87,-225.72"/>
</g>
<!-- Node11&#45;&gt;Node4 -->
<g id="edge13" class="edge">
<title>Node11&#45;&gt;Node4</title>
<path fill="none" stroke="midnightblue" d="M63.19,-226.32C80.46,-189.05 120.04,-103.6 132.89,-75.87"/>
<polygon fill="midnightblue" stroke="midnightblue" points="59.98,-224.92 58.96,-235.46 66.33,-227.86 59.98,-224.92"/>
</g>
<!-- Node11&#45;&gt;Node6 -->
<g id="edge14" class="edge">
<title>Node11&#45;&gt;Node6</title>
<path fill="none" stroke="midnightblue" d="M72.39,-228.65C91.77,-212.1 124.53,-185.75 156,-168 183.56,-152.45 217.57,-139.59 240.84,-131.66"/>
<polygon fill="midnightblue" stroke="midnightblue" points="69.98,-226.1 64.71,-235.29 74.56,-231.4 69.98,-226.1"/>
</g>
<!-- Node12&#45;&gt;Node4 -->
<g id="edge17" class="edge">
<title>Node12&#45;&gt;Node4</title>
<path fill="none" stroke="midnightblue" d="M288.54,-360.83C258.37,-354.86 225.55,-343.49 202,-322 127.07,-253.64 133.22,-112.08 136.17,-75.68"/>
<polygon fill="midnightblue" stroke="midnightblue" points="288.19,-364.33 298.65,-362.66 289.43,-357.44 288.19,-364.33"/>
</g>
<!-- Node12&#45;&gt;Node6 -->
<g id="edge18" class="edge">
<title>Node12&#45;&gt;Node6</title>
<path fill="none" stroke="midnightblue" d="M386.99,-352.27C431.39,-317.83 530.41,-230.23 480,-168 461.68,-145.38 388.04,-133.66 332.66,-127.93"/>
<polygon fill="midnightblue" stroke="midnightblue" points="384.74,-349.59 378.9,-358.43 388.98,-355.16 384.74,-349.59"/>
</g>
<!-- Node12&#45;&gt;Node9 -->
<g id="edge16" class="edge">
<title>Node12&#45;&gt;Node9</title>
<path fill="none" stroke="midnightblue" d="M376.47,-349.16C383.5,-333.43 390.66,-310.1 383,-291 376.89,-275.76 362.87,-262.75 352.5,-254.7"/>
<polygon fill="midnightblue" stroke="midnightblue" points="373.26,-347.76 372.03,-358.28 379.55,-350.83 373.26,-347.76"/>
</g>
<!-- Node13&#45;&gt;Node2 -->
<g id="edge21" class="edge">
<title>Node13&#45;&gt;Node2</title>
<path fill="none" stroke="midnightblue" d="M205.16,-475.56C194.52,-467.74 182.56,-457.18 175,-445 161.51,-423.28 157.58,-392.47 156.45,-377.64"/>
<polygon fill="midnightblue" stroke="midnightblue" points="203.45,-478.64 213.66,-481.47 207.44,-472.89 203.45,-478.64"/>
</g>
<!-- Node13&#45;&gt;Node11 -->
<g id="edge20" class="edge">
<title>Node13&#45;&gt;Node11</title>
<path fill="none" stroke="midnightblue" d="M197.52,-477.28C161.29,-460.39 102.2,-426.9 74,-378 50.29,-336.88 52.37,-276.97 54.14,-254.73"/>
<polygon fill="midnightblue" stroke="midnightblue" points="196.09,-480.47 206.64,-481.41 198.98,-474.1 196.09,-480.47"/>
</g>
<!-- Node13&#45;&gt;Node12 -->
<g id="edge22" class="edge">
<title>Node13&#45;&gt;Node12</title>
<path fill="none" stroke="midnightblue" d="M271.4,-478.06C290.86,-470.98 312.98,-460.32 329,-445 349.26,-425.63 360.38,-393.15 364.76,-377.69"/>
<polygon fill="midnightblue" stroke="midnightblue" points="270.13,-474.8 261.81,-481.35 272.4,-481.42 270.13,-474.8"/>
</g>
<!-- Node14 -->
<g id="node14" class="node">
<title>Node14</title>
<g id="a_node14"><a xlink:href="ParameterStorage_8h_source.html" target="_top" xlink:title=" ">
<polygon fill="none" stroke="black" points="184,-414.5 184,-444.5 320,-444.5 320,-414.5 184,-414.5"/>
<text text-anchor="start" x="192" y="-432.5" font-family="Helvetica,sans-Serif" font-size="10.00">include/fire/io/Parameter</text>
<text text-anchor="middle" x="252" y="-421.5" font-family="Helvetica,sans-Serif" font-size="10.00">Storage.h</text>
</a>
</g>
</g>
<!-- Node13&#45;&gt;Node14 -->
<g id="edge23" class="edge">
<title>Node13&#45;&gt;Node14</title>
<path fill="none" stroke="midnightblue" d="M235.22,-472.1C238.78,-463.27 243.02,-452.77 246.34,-444.52"/>
<polygon fill="midnightblue" stroke="midnightblue" points="231.93,-470.89 231.44,-481.48 238.43,-473.51 231.93,-470.89"/>
</g>
<!-- Node14&#45;&gt;Node2 -->
<g id="edge24" class="edge">
<title>Node14&#45;&gt;Node2</title>
<path fill="none" stroke="midnightblue" d="M220.65,-409.07C203.54,-398.46 183.2,-385.86 169.97,-377.66"/>
<polygon fill="midnightblue" stroke="midnightblue" points="218.91,-412.11 229.25,-414.4 222.59,-406.16 218.91,-412.11"/>
</g>
<!-- Node14&#45;&gt;Node12 -->
<g id="edge25" class="edge">
<title>Node14&#45;&gt;Node12</title>
<path fill="none" stroke="midnightblue" d="M288.15,-409.8C308.93,-399.04 334.05,-386.05 350.27,-377.66"/>
<polygon fill="midnightblue" stroke="midnightblue" points="286.53,-406.7 279.25,-414.4 289.74,-412.91 286.53,-406.7"/>
</g>
</g>
</svg>
