<?xml version="1.0" encoding="UTF-8" standalone="no"?>
<!DOCTYPE svg PUBLIC "-//W3C//DTD SVG 1.1//EN"
 "http://www.w3.org/Graphics/SVG/1.1/DTD/svg11.dtd">
<!-- Generated by graphviz version 2.43.0 (0)
 -->
<!-- Title: include/fire Pages: 1 -->
<svg width="410pt" height="183pt"
 viewBox="0.00 0.00 410.00 183.00" xmlns="http://www.w3.org/2000/svg" xmlns:xlink="http://www.w3.org/1999/xlink">
<g id="graph0" class="graph" transform="scale(1 1) rotate(0) translate(4 179)">
<title>include/fire</title>
<g id="clust1" class="cluster">
<title>clusterdir_d44c64559bbebec7f509842c48db8b23</title>
<g id="a_clust1"><a xlink:href="dir_d44c64559bbebec7f509842c48db8b23.html" target="_top" xlink:title="include">
<polygon fill="#ddddee" stroke="black" points="8,-8 8,-167 394,-167 394,-8 8,-8"/>
<text text-anchor="middle" x="201" y="-155" font-family="Helvetica,sans-Serif" font-size="10.00">include</text>
</a>
</g>
</g>
<g id="clust2" class="cluster">
<title>clusterdir_c5d46fedc6ca6ca01b5c0ce44b89a70b</title>
<g id="a_clust2"><a xlink:href="dir_c5d46fedc6ca6ca01b5c0ce44b89a70b.html" target="_top">
<polygon fill="#eeeeff" stroke="black" points="16,-16 16,-140 386,-140 386,-16 16,-16"/>
</a>
</g>
</g>
<!-- dir_c5d46fedc6ca6ca01b5c0ce44b89a70b -->
<g id="node1" class="node">
<title>dir_c5d46fedc6ca6ca01b5c0ce44b89a70b</title>
<text text-anchor="middle" x="351" y="-111.5" font-family="Helvetica,sans-Serif" font-size="10.00">fire</text>
</g>
<!-- dir_a745ed048db32aee8b36fe4434eded64 -->
<g id="node5" class="node">
<title>dir_a745ed048db32aee8b36fe4434eded64</title>
<g id="a_node5"><a xlink:href="dir_a745ed048db32aee8b36fe4434eded64.html" target="_top" xlink:title="io">
<polygon fill="white" stroke="red" points="306,-60 252,-60 252,-24 306,-24 306,-60"/>
<text text-anchor="middle" x="279" y="-39.5" font-family="Helvetica,sans-Serif" font-size="10.00">io</text>
</a>
</g>
</g>
<!-- dir_c5d46fedc6ca6ca01b5c0ce44b89a70b&#45;&gt;dir_a745ed048db32aee8b36fe4434eded64 -->
<g id="edge1" class="edge">
<title>dir_c5d46fedc6ca6ca01b5c0ce44b89a70b&#45;&gt;dir_a745ed048db32aee8b36fe4434eded64</title>
<path fill="none" stroke="black" d="M333.2,-95.7C324.4,-87.14 313.62,-76.66 304,-67.3"/>
<polygon fill="black" stroke="black" points="306.2,-64.57 296.59,-60.1 301.32,-69.58 306.2,-64.57"/>
<g id="a_edge1&#45;headlabel"><a xlink:href="dir_000004_000008.html" target="_top" xlink:title="2">
<text text-anchor="middle" x="310.76" y="-62.54" font-family="Helvetica,sans-Serif" font-size="10.00">2</text>
</a>
</g>
</g>
<!-- dir_d91e787ee1c079941dd9fd9efdd6821f -->
<g id="node6" class="node">
<title>dir_d91e787ee1c079941dd9fd9efdd6821f</title>
<g id="a_node6"><a xlink:href="dir_d91e787ee1c079941dd9fd9efdd6821f.html" target="_top" xlink:title="logging">
<polygon fill="white" stroke="black" points="378,-60 324,-60 324,-24 378,-24 378,-60"/>
<text text-anchor="middle" x="351" y="-39.5" font-family="Helvetica,sans-Serif" font-size="10.00">logging</text>
</a>
</g>
</g>
<!-- dir_c5d46fedc6ca6ca01b5c0ce44b89a70b&#45;&gt;dir_d91e787ee1c079941dd9fd9efdd6821f -->
<g id="edge2" class="edge">
<title>dir_c5d46fedc6ca6ca01b5c0ce44b89a70b&#45;&gt;dir_d91e787ee1c079941dd9fd9efdd6821f</title>
<path fill="none" stroke="black" d="M351,-95.7C351,-87.98 351,-78.71 351,-70.11"/>
<polygon fill="black" stroke="black" points="354.5,-70.1 351,-60.1 347.5,-70.1 354.5,-70.1"/>
<g id="a_edge2&#45;headlabel"><a xlink:href="dir_000004_000011.html" target="_top" xlink:title="4">
<text text-anchor="middle" x="357.34" y="-71.2" font-family="Helvetica,sans-Serif" font-size="10.00">4</text>
</a>
</g>
</g>
<!-- dir_be07f979bfb6d597f3b0dbc676606d94 -->
<g id="node2" class="node">
<title>dir_be07f979bfb6d597f3b0dbc676606d94</title>
<g id="a_node2"><a xlink:href="dir_be07f979bfb6d597f3b0dbc676606d94.html" target="_top" xlink:title="config">
<polygon fill="white" stroke="black" points="306,-132 252,-132 252,-96 306,-96 306,-132"/>
<text text-anchor="middle" x="279" y="-111.5" font-family="Helvetica,sans-Serif" font-size="10.00">config</text>
</a>
</g>
</g>
<!-- dir_d9e56828d9377cfe4fd9bb3efe1167d2 -->
<g id="node3" class="node">
<title>dir_d9e56828d9377cfe4fd9bb3efe1167d2</title>
<g id="a_node3"><a xlink:href="dir_d9e56828d9377cfe4fd9bb3efe1167d2.html" target="_top" xlink:title="exception">
<polygon fill="white" stroke="black" points="233.5,-132 168.5,-132 168.5,-96 233.5,-96 233.5,-132"/>
<text text-anchor="middle" x="201" y="-111.5" font-family="Helvetica,sans-Serif" font-size="10.00">exception</text>
</a>
</g>
</g>
<!-- dir_83a0635a9403b57cdaed4493139c0f8a -->
<g id="node4" class="node">
<title>dir_83a0635a9403b57cdaed4493139c0f8a</title>
<g id="a_node4"><a xlink:href="dir_83a0635a9403b57cdaed4493139c0f8a.html" target="_top" xlink:title="factory">
<polygon fill="white" stroke="black" points="150,-132 96,-132 96,-96 150,-96 150,-132"/>
<text text-anchor="middle" x="123" y="-111.5" font-family="Helvetica,sans-Serif" font-size="10.00">factory</text>
</a>
</g>
</g>
<!-- dir_c933ebec66d1f2fa7aed64e34c575b27 -->
<g id="node7" class="node">
<title>dir_c933ebec66d1f2fa7aed64e34c575b27</title>
<g id="a_node7"><a xlink:href="dir_c933ebec66d1f2fa7aed64e34c575b27.html" target="_top" xlink:title="version">
<polygon fill="white" stroke="black" points="78,-132 24,-132 24,-96 78,-96 78,-132"/>
<text text-anchor="middle" x="51" y="-111.5" font-family="Helvetica,sans-Serif" font-size="10.00">version</text>
</a>
</g>
</g>
</g>
</svg>
