<?xml version="1.0" encoding="UTF-8" standalone="no"?>
<!DOCTYPE svg PUBLIC "-//W3C//DTD SVG 1.1//EN"
 "http://www.w3.org/Graphics/SVG/1.1/DTD/svg11.dtd">
<!-- Generated by graphviz version 2.43.0 (0)
 -->
<!-- Title: src/fire/io Pages: 1 -->
<svg width="254pt" height="159pt"
 viewBox="0.00 0.00 254.00 159.00" xmlns="http://www.w3.org/2000/svg" xmlns:xlink="http://www.w3.org/1999/xlink">
<g id="graph0" class="graph" transform="scale(1 1) rotate(0) translate(4 155)">
<title>src/fire/io</title>
<g id="clust1" class="cluster">
<title>clusterdir_3470bff0455c4d125324aaa3f3671bff</title>
<g id="a_clust1"><a xlink:href="dir_3470bff0455c4d125324aaa3f3671bff.html" target="_top" xlink:title="fire">
<polygon fill="#ddddee" stroke="black" points="8,-56 8,-143 238,-143 238,-56 8,-56"/>
<text text-anchor="middle" x="123" y="-131" font-family="Helvetica,sans-Serif" font-size="10.00">fire</text>
</a>
</g>
</g>
<g id="clust2" class="cluster">
<title>clusterdir_35e8f08dcdf34ac6ff72ac7c2817fbf4</title>
<g id="a_clust2"><a xlink:href="dir_35e8f08dcdf34ac6ff72ac7c2817fbf4.html" target="_top">
<polygon fill="#eeeeff" stroke="black" points="16,-64 16,-116 230,-116 230,-64 16,-64"/>
</a>
</g>
</g>
<!-- dir_35e8f08dcdf34ac6ff72ac7c2817fbf4 -->
<g id="node1" class="node">
<title>dir_35e8f08dcdf34ac6ff72ac7c2817fbf4</title>
<text text-anchor="middle" x="195" y="-87.5" font-family="Helvetica,sans-Serif" font-size="10.00">io</text>
</g>
<!-- dir_e9e7ce20adb3bed1e523bf0f52020e67 -->
<g id="node2" class="node">
<title>dir_e9e7ce20adb3bed1e523bf0f52020e67</title>
<g id="a_node2"><a xlink:href="dir_e9e7ce20adb3bed1e523bf0f52020e67.html" target="_top" xlink:title="h5">
<polygon fill="white" stroke="black" points="150,-108 96,-108 96,-72 150,-72 150,-108"/>
<text text-anchor="middle" x="123" y="-87.5" font-family="Helvetica,sans-Serif" font-size="10.00">h5</text>
</a>
</g>
</g>
<!-- dir_d44c64559bbebec7f509842c48db8b23 -->
<g id="node4" class="node">
<title>dir_d44c64559bbebec7f509842c48db8b23</title>
<g id="a_node4"><a xlink:href="dir_d44c64559bbebec7f509842c48db8b23.html" target="_top" xlink:title="include">
<polygon fill="none" stroke="red" points="114,-36 60,-36 60,0 114,0 114,-36"/>
<text text-anchor="middle" x="87" y="-15.5" font-family="Helvetica,sans-Serif" font-size="10.00">include</text>
</a>
</g>
</g>
<!-- dir_e9e7ce20adb3bed1e523bf0f52020e67&#45;&gt;dir_d44c64559bbebec7f509842c48db8b23 -->
<g id="edge2" class="edge">
<title>dir_e9e7ce20adb3bed1e523bf0f52020e67&#45;&gt;dir_d44c64559bbebec7f509842c48db8b23</title>
<path fill="none" stroke="black" d="M114.1,-71.7C110,-63.73 105.05,-54.1 100.51,-45.26"/>
<polygon fill="black" stroke="black" points="103.48,-43.4 95.8,-36.1 97.26,-46.6 103.48,-43.4"/>
<g id="a_edge2&#45;headlabel"><a xlink:href="dir_000023_000003.html" target="_top" xlink:title="1">
<text text-anchor="middle" x="107.65" y="-42.79" font-family="Helvetica,sans-Serif" font-size="10.00">1</text>
</a>
</g>
</g>
<!-- dir_5d6f1115e9996a70183d93229700ff2d -->
<g id="node3" class="node">
<title>dir_5d6f1115e9996a70183d93229700ff2d</title>
<g id="a_node3"><a xlink:href="dir_5d6f1115e9996a70183d93229700ff2d.html" target="_top" xlink:title="root">
<polygon fill="white" stroke="black" points="78,-108 24,-108 24,-72 78,-72 78,-108"/>
<text text-anchor="middle" x="51" y="-87.5" font-family="Helvetica,sans-Serif" font-size="10.00">root</text>
</a>
</g>
</g>
<!-- dir_5d6f1115e9996a70183d93229700ff2d&#45;&gt;dir_d44c64559bbebec7f509842c48db8b23 -->
<g id="edge1" class="edge">
<title>dir_5d6f1115e9996a70183d93229700ff2d&#45;&gt;dir_d44c64559bbebec7f509842c48db8b23</title>
<path fill="none" stroke="black" d="M59.9,-71.7C64,-63.73 68.95,-54.1 73.49,-45.26"/>
<polygon fill="black" stroke="black" points="76.74,-46.6 78.2,-36.1 70.52,-43.4 76.74,-46.6"/>
<g id="a_edge1&#45;headlabel"><a xlink:href="dir_000024_000003.html" target="_top" xlink:title="1">
<text text-anchor="middle" x="77.62" y="-48.59" font-family="Helvetica,sans-Serif" font-size="10.00">1</text>
</a>
</g>
</g>
</g>
</svg>
