<?xml version="1.0" encoding="UTF-8" standalone="no"?>
<!DOCTYPE svg PUBLIC "-//W3C//DTD SVG 1.1//EN"
 "http://www.w3.org/Graphics/SVG/1.1/DTD/svg11.dtd">
<!-- Generated by graphviz version 2.43.0 (0)
 -->
<!-- Title: src/fire Pages: 1 -->
<svg width="482pt" height="159pt"
 viewBox="0.00 0.00 482.00 159.00" xmlns="http://www.w3.org/2000/svg" xmlns:xlink="http://www.w3.org/1999/xlink">
<g id="graph0" class="graph" transform="scale(1 1) rotate(0) translate(4 155)">
<title>src/fire</title>
<g id="clust1" class="cluster">
<title>clusterdir_68267d1309a1af8e8297ef4c3efbcdba</title>
<g id="a_clust1"><a xlink:href="dir_68267d1309a1af8e8297ef4c3efbcdba.html" target="_top" xlink:title="src">
<polygon fill="#ddddee" stroke="black" points="8,-56 8,-143 466,-143 466,-56 8,-56"/>
<text text-anchor="middle" x="237" y="-131" font-family="Helvetica,sans-Serif" font-size="10.00">src</text>
</a>
</g>
</g>
<g id="clust2" class="cluster">
<title>clusterdir_3470bff0455c4d125324aaa3f3671bff</title>
<g id="a_clust2"><a xlink:href="dir_3470bff0455c4d125324aaa3f3671bff.html" target="_top">
<polygon fill="#eeeeff" stroke="black" points="16,-64 16,-116 458,-116 458,-64 16,-64"/>
</a>
</g>
</g>
<!-- dir_3470bff0455c4d125324aaa3f3671bff -->
<g id="node1" class="node">
<title>dir_3470bff0455c4d125324aaa3f3671bff</title>
<text text-anchor="middle" x="423" y="-87.5" font-family="Helvetica,sans-Serif" font-size="10.00">fire</text>
</g>
<!-- dir_d44c64559bbebec7f509842c48db8b23 -->
<g id="node7" class="node">
<title>dir_d44c64559bbebec7f509842c48db8b23</title>
<g id="a_node7"><a xlink:href="dir_d44c64559bbebec7f509842c48db8b23.html" target="_top" xlink:title="include">
<polygon fill="none" stroke="red" points="150,-36 96,-36 96,0 150,0 150,-36"/>
<text text-anchor="middle" x="123" y="-15.5" font-family="Helvetica,sans-Serif" font-size="10.00">include</text>
</a>
</g>
</g>
<!-- dir_3470bff0455c4d125324aaa3f3671bff&#45;&gt;dir_d44c64559bbebec7f509842c48db8b23 -->
<g id="edge1" class="edge">
<title>dir_3470bff0455c4d125324aaa3f3671bff&#45;&gt;dir_d44c64559bbebec7f509842c48db8b23</title>
<path fill="none" stroke="black" d="M408.43,-71.89C402.41,-65.91 394.98,-59.76 387,-56 347.63,-37.43 223.56,-26.17 160.54,-21.51"/>
<polygon fill="black" stroke="black" points="160.47,-17.99 150.24,-20.77 159.96,-24.98 160.47,-17.99"/>
<g id="a_edge1&#45;headlabel"><a xlink:href="dir_000016_000003.html" target="_top" xlink:title="5">
<text text-anchor="middle" x="164.26" y="-12.92" font-family="Helvetica,sans-Serif" font-size="10.00">5</text>
</a>
</g>
</g>
<!-- dir_8eae020518d0b9d59903bbaad1e52bf5 -->
<g id="node2" class="node">
<title>dir_8eae020518d0b9d59903bbaad1e52bf5</title>
<g id="a_node2"><a xlink:href="dir_8eae020518d0b9d59903bbaad1e52bf5.html" target="_top" xlink:title="config">
<polygon fill="white" stroke="black" points="378,-108 324,-108 324,-72 378,-72 378,-108"/>
<text text-anchor="middle" x="351" y="-87.5" font-family="Helvetica,sans-Serif" font-size="10.00">config</text>
</a>
</g>
</g>
<!-- dir_1691f9e1e52faca19a0e64e203a43946 -->
<g id="node3" class="node">
<title>dir_1691f9e1e52faca19a0e64e203a43946</title>
<g id="a_node3"><a xlink:href="dir_1691f9e1e52faca19a0e64e203a43946.html" target="_top" xlink:title="exception">
<polygon fill="white" stroke="black" points="305.5,-108 240.5,-108 240.5,-72 305.5,-72 305.5,-108"/>
<text text-anchor="middle" x="273" y="-87.5" font-family="Helvetica,sans-Serif" font-size="10.00">exception</text>
</a>
</g>
</g>
<!-- dir_570c9a2d7823a5f250a202fb645c45dc -->
<g id="node4" class="node">
<title>dir_570c9a2d7823a5f250a202fb645c45dc</title>
<g id="a_node4"><a xlink:href="dir_570c9a2d7823a5f250a202fb645c45dc.html" target="_top" xlink:title="factory">
<polygon fill="white" stroke="black" points="222,-108 168,-108 168,-72 222,-72 222,-108"/>
<text text-anchor="middle" x="195" y="-87.5" font-family="Helvetica,sans-Serif" font-size="10.00">factory</text>
</a>
</g>
</g>
<!-- dir_35e8f08dcdf34ac6ff72ac7c2817fbf4 -->
<g id="node5" class="node">
<title>dir_35e8f08dcdf34ac6ff72ac7c2817fbf4</title>
<g id="a_node5"><a xlink:href="dir_35e8f08dcdf34ac6ff72ac7c2817fbf4.html" target="_top" xlink:title="io">
<polygon fill="white" stroke="red" points="150,-108 96,-108 96,-72 150,-72 150,-108"/>
<text text-anchor="middle" x="123" y="-87.5" font-family="Helvetica,sans-Serif" font-size="10.00">io</text>
</a>
</g>
</g>
<!-- dir_35e8f08dcdf34ac6ff72ac7c2817fbf4&#45;&gt;dir_d44c64559bbebec7f509842c48db8b23 -->
<g id="edge2" class="edge">
<title>dir_35e8f08dcdf34ac6ff72ac7c2817fbf4&#45;&gt;dir_d44c64559bbebec7f509842c48db8b23</title>
<path fill="none" stroke="black" d="M123,-71.7C123,-63.98 123,-54.71 123,-46.11"/>
<polygon fill="black" stroke="black" points="126.5,-46.1 123,-36.1 119.5,-46.1 126.5,-46.1"/>
<g id="a_edge2&#45;headlabel"><a xlink:href="dir_000020_000003.html" target="_top" xlink:title="3">
<text text-anchor="middle" x="129.34" y="-47.2" font-family="Helvetica,sans-Serif" font-size="10.00">3</text>
</a>
</g>
</g>
<!-- dir_b066fbbb6da73196dba94a506dc1b033 -->
<g id="node6" class="node">
<title>dir_b066fbbb6da73196dba94a506dc1b033</title>
<g id="a_node6"><a xlink:href="dir_b066fbbb6da73196dba94a506dc1b033.html" target="_top" xlink:title="logging">
<polygon fill="white" stroke="black" points="78,-108 24,-108 24,-72 78,-72 78,-108"/>
<text text-anchor="middle" x="51" y="-87.5" font-family="Helvetica,sans-Serif" font-size="10.00">logging</text>
</a>
</g>
</g>
<!-- dir_b066fbbb6da73196dba94a506dc1b033&#45;&gt;dir_d44c64559bbebec7f509842c48db8b23 -->
<g id="edge3" class="edge">
<title>dir_b066fbbb6da73196dba94a506dc1b033&#45;&gt;dir_d44c64559bbebec7f509842c48db8b23</title>
<path fill="none" stroke="black" d="M68.8,-71.7C77.6,-63.14 88.38,-52.66 98,-43.3"/>
<polygon fill="black" stroke="black" points="100.68,-45.58 105.41,-36.1 95.8,-40.57 100.68,-45.58"/>
<g id="a_edge3&#45;headlabel"><a xlink:href="dir_000023_000003.html" target="_top" xlink:title="1">
<text text-anchor="middle" x="100.08" y="-47.63" font-family="Helvetica,sans-Serif" font-size="10.00">1</text>
</a>
</g>
</g>
</g>
</svg>
