<?xml version="1.0" encoding="UTF-8" standalone="no"?>
<!DOCTYPE svg PUBLIC "-//W3C//DTD SVG 1.1//EN"
 "http://www.w3.org/Graphics/SVG/1.1/DTD/svg11.dtd">
<!-- Generated by graphviz version 2.43.0 (0)
 -->
<!-- Title: src/fire/exception/Exception.cxx Pages: 1 -->
<svg width="1085pt" height="151pt"
 viewBox="0.00 0.00 1084.50 151.00" xmlns="http://www.w3.org/2000/svg" xmlns:xlink="http://www.w3.org/1999/xlink">
<g id="graph0" class="graph" transform="scale(1 1) rotate(0) translate(4 147)">
<title>src/fire/exception/Exception.cxx</title>
<!-- Node1 -->
<g id="node1" class="node">
<title>Node1</title>
<g id="a_node1"><a xlink:title="Definition of stack trace building functions.">
<polygon fill="#bfbfbf" stroke="black" points="473.5,-112.5 473.5,-142.5 574.5,-142.5 574.5,-112.5 473.5,-112.5"/>
<text text-anchor="start" x="481.5" y="-130.5" font-family="Helvetica,sans-Serif" font-size="10.00">src/fire/exception</text>
<text text-anchor="middle" x="524" y="-119.5" font-family="Helvetica,sans-Serif" font-size="10.00">/Exception.cxx</text>
</a>
</g>
</g>
<!-- Node2 -->
<g id="node2" class="node">
<title>Node2</title>
<g id="a_node2"><a xlink:title=" ">
<polygon fill="none" stroke="#bfbfbf" points="0,-56.5 0,-75.5 50,-75.5 50,-56.5 0,-56.5"/>
<text text-anchor="middle" x="25" y="-63.5" font-family="Helvetica,sans-Serif" font-size="10.00">stdio.h</text>
</a>
</g>
</g>
<!-- Node1&#45;&gt;Node2 -->
<g id="edge1" class="edge">
<title>Node1&#45;&gt;Node2</title>
<path fill="none" stroke="midnightblue" d="M473.41,-123.51C389.44,-118 215.96,-104.31 60.38,-76"/>
<polygon fill="midnightblue" stroke="midnightblue" points="60.62,-72.48 50.16,-74.11 59.35,-79.37 60.62,-72.48"/>
</g>
<!-- Node3 -->
<g id="node3" class="node">
<title>Node3</title>
<g id="a_node3"><a xlink:title=" ">
<polygon fill="none" stroke="#bfbfbf" points="68.5,-56.5 68.5,-75.5 121.5,-75.5 121.5,-56.5 68.5,-56.5"/>
<text text-anchor="middle" x="95" y="-63.5" font-family="Helvetica,sans-Serif" font-size="10.00">stdlib.h</text>
</a>
</g>
</g>
<!-- Node1&#45;&gt;Node3 -->
<g id="edge2" class="edge">
<title>Node1&#45;&gt;Node3</title>
<path fill="none" stroke="midnightblue" d="M473.3,-122.03C399.89,-115.12 259.6,-100.24 131.65,-76.13"/>
<polygon fill="midnightblue" stroke="midnightblue" points="132.15,-72.66 121.68,-74.22 130.84,-79.54 132.15,-72.66"/>
</g>
<!-- Node4 -->
<g id="node4" class="node">
<title>Node4</title>
<g id="a_node4"><a xlink:title=" ">
<polygon fill="none" stroke="#bfbfbf" points="139.5,-56.5 139.5,-75.5 192.5,-75.5 192.5,-56.5 139.5,-56.5"/>
<text text-anchor="middle" x="166" y="-63.5" font-family="Helvetica,sans-Serif" font-size="10.00">string.h</text>
</a>
</g>
</g>
<!-- Node1&#45;&gt;Node4 -->
<g id="edge3" class="edge">
<title>Node1&#45;&gt;Node4</title>
<path fill="none" stroke="midnightblue" d="M473.28,-119.97C411.61,-111.72 304.22,-96.33 202.5,-75.94"/>
<polygon fill="midnightblue" stroke="midnightblue" points="203.17,-72.51 192.68,-73.95 201.78,-79.37 203.17,-72.51"/>
</g>
<!-- Node5 -->
<g id="node5" class="node">
<title>Node5</title>
<g id="a_node5"><a xlink:title=" ">
<polygon fill="none" stroke="#bfbfbf" points="211,-56.5 211,-75.5 283,-75.5 283,-56.5 211,-56.5"/>
<text text-anchor="middle" x="247" y="-63.5" font-family="Helvetica,sans-Serif" font-size="10.00">sys/types.h</text>
</a>
</g>
</g>
<!-- Node1&#45;&gt;Node5 -->
<g id="edge4" class="edge">
<title>Node1&#45;&gt;Node5</title>
<path fill="none" stroke="midnightblue" d="M473.19,-115.59C421.76,-104.54 342.91,-87.6 293.2,-76.92"/>
<polygon fill="midnightblue" stroke="midnightblue" points="293.87,-73.49 283.36,-74.81 292.4,-80.33 293.87,-73.49"/>
</g>
<!-- Node6 -->
<g id="node6" class="node">
<title>Node6</title>
<g id="a_node6"><a xlink:title=" ">
<polygon fill="none" stroke="#bfbfbf" points="301,-56.5 301,-75.5 367,-75.5 367,-56.5 301,-56.5"/>
<text text-anchor="middle" x="334" y="-63.5" font-family="Helvetica,sans-Serif" font-size="10.00">sys/wait.h</text>
</a>
</g>
</g>
<!-- Node1&#45;&gt;Node6 -->
<g id="edge5" class="edge">
<title>Node1&#45;&gt;Node6</title>
<path fill="none" stroke="midnightblue" d="M478.97,-112.4C446.14,-102.12 402.18,-88.35 371.3,-78.68"/>
<polygon fill="midnightblue" stroke="midnightblue" points="371.96,-75.22 361.37,-75.57 369.87,-81.9 371.96,-75.22"/>
</g>
<!-- Node7 -->
<g id="node7" class="node">
<title>Node7</title>
<g id="a_node7"><a xlink:title=" ">
<polygon fill="none" stroke="#bfbfbf" points="385,-56.5 385,-75.5 441,-75.5 441,-56.5 385,-56.5"/>
<text text-anchor="middle" x="413" y="-63.5" font-family="Helvetica,sans-Serif" font-size="10.00">unistd.h</text>
</a>
</g>
</g>
<!-- Node1&#45;&gt;Node7 -->
<g id="edge6" class="edge">
<title>Node1&#45;&gt;Node7</title>
<path fill="none" stroke="midnightblue" d="M497.69,-112.4C479.74,-102.77 456.08,-90.09 438.33,-80.58"/>
<polygon fill="midnightblue" stroke="midnightblue" points="439.62,-77.3 429.15,-75.66 436.31,-83.47 439.62,-77.3"/>
</g>
<!-- Node8 -->
<g id="node8" class="node">
<title>Node8</title>
<g id="a_node8"><a xlink:title=" ">
<polygon fill="none" stroke="#bfbfbf" points="459,-56.5 459,-75.5 517,-75.5 517,-56.5 459,-56.5"/>
<text text-anchor="middle" x="488" y="-63.5" font-family="Helvetica,sans-Serif" font-size="10.00">cxxabi.h</text>
</a>
</g>
</g>
<!-- Node1&#45;&gt;Node8 -->
<g id="edge7" class="edge">
<title>Node1&#45;&gt;Node8</title>
<path fill="none" stroke="midnightblue" d="M515.47,-112.4C510.4,-104.02 503.93,-93.33 498.54,-84.42"/>
<polygon fill="midnightblue" stroke="midnightblue" points="501.41,-82.4 493.24,-75.66 495.42,-86.03 501.41,-82.4"/>
</g>
<!-- Node9 -->
<g id="node9" class="node">
<title>Node9</title>
<g id="a_node9"><a xlink:title=" ">
<polygon fill="none" stroke="#bfbfbf" points="535,-56.5 535,-75.5 585,-75.5 585,-56.5 535,-56.5"/>
<text text-anchor="middle" x="560" y="-63.5" font-family="Helvetica,sans-Serif" font-size="10.00">dlfcn.h</text>
</a>
</g>
</g>
<!-- Node1&#45;&gt;Node9 -->
<g id="edge8" class="edge">
<title>Node1&#45;&gt;Node9</title>
<path fill="none" stroke="midnightblue" d="M532.53,-112.4C537.6,-104.02 544.07,-93.33 549.46,-84.42"/>
<polygon fill="midnightblue" stroke="midnightblue" points="552.58,-86.03 554.76,-75.66 546.59,-82.4 552.58,-86.03"/>
</g>
<!-- Node10 -->
<g id="node10" class="node">
<title>Node10</title>
<g id="a_node10"><a xlink:title=" ">
<polygon fill="none" stroke="#bfbfbf" points="603.5,-56.5 603.5,-75.5 670.5,-75.5 670.5,-56.5 603.5,-56.5"/>
<text text-anchor="middle" x="637" y="-63.5" font-family="Helvetica,sans-Serif" font-size="10.00">execinfo.h</text>
</a>
</g>
</g>
<!-- Node1&#45;&gt;Node10 -->
<g id="edge9" class="edge">
<title>Node1&#45;&gt;Node10</title>
<path fill="none" stroke="midnightblue" d="M550.78,-112.4C569.06,-102.77 593.15,-90.09 611.21,-80.58"/>
<polygon fill="midnightblue" stroke="midnightblue" points="613.34,-83.41 620.56,-75.66 610.08,-77.22 613.34,-83.41"/>
</g>
<!-- Node11 -->
<g id="node11" class="node">
<title>Node11</title>
<g id="a_node11"><a xlink:title=" ">
<polygon fill="none" stroke="#bfbfbf" points="689,-56.5 689,-75.5 735,-75.5 735,-56.5 689,-56.5"/>
<text text-anchor="middle" x="712" y="-63.5" font-family="Helvetica,sans-Serif" font-size="10.00">cstdio</text>
</a>
</g>
</g>
<!-- Node1&#45;&gt;Node11 -->
<g id="edge10" class="edge">
<title>Node1&#45;&gt;Node11</title>
<path fill="none" stroke="midnightblue" d="M568.55,-112.4C602.5,-101.65 648.48,-87.1 679.14,-77.4"/>
<polygon fill="midnightblue" stroke="midnightblue" points="680.43,-80.66 688.91,-74.31 678.32,-73.99 680.43,-80.66"/>
</g>
<!-- Node12 -->
<g id="node12" class="node">
<title>Node12</title>
<g id="a_node12"><a xlink:title=" ">
<polygon fill="none" stroke="#bfbfbf" points="753.5,-56.5 753.5,-75.5 802.5,-75.5 802.5,-56.5 753.5,-56.5"/>
<text text-anchor="middle" x="778" y="-63.5" font-family="Helvetica,sans-Serif" font-size="10.00">cstdlib</text>
</a>
</g>
</g>
<!-- Node1&#45;&gt;Node12 -->
<g id="edge11" class="edge">
<title>Node1&#45;&gt;Node12</title>
<path fill="none" stroke="midnightblue" d="M574.79,-115.34C617.28,-105.9 679.71,-91.75 743.34,-76.1"/>
<polygon fill="midnightblue" stroke="midnightblue" points="744.27,-79.48 753.14,-73.68 742.59,-72.68 744.27,-79.48"/>
</g>
<!-- Node13 -->
<g id="node13" class="node">
<title>Node13</title>
<g id="a_node13"><a xlink:title=" ">
<polygon fill="none" stroke="#bfbfbf" points="821,-56.5 821,-75.5 877,-75.5 877,-56.5 821,-56.5"/>
<text text-anchor="middle" x="849" y="-63.5" font-family="Helvetica,sans-Serif" font-size="10.00">sstream</text>
</a>
</g>
</g>
<!-- Node1&#45;&gt;Node13 -->
<g id="edge12" class="edge">
<title>Node1&#45;&gt;Node13</title>
<path fill="none" stroke="midnightblue" d="M574.72,-118.49C632.2,-109.21 728.62,-92.99 811,-76 811.1,-75.98 811.2,-75.96 811.3,-75.94"/>
<polygon fill="midnightblue" stroke="midnightblue" points="811.79,-79.41 820.82,-73.87 810.3,-72.57 811.79,-79.41"/>
</g>
<!-- Node14 -->
<g id="node14" class="node">
<title>Node14</title>
<g id="a_node14"><a xlink:title=" ">
<polygon fill="none" stroke="#bfbfbf" points="897,-0.5 897,-19.5 941,-19.5 941,-0.5 897,-0.5"/>
<text text-anchor="middle" x="919" y="-7.5" font-family="Helvetica,sans-Serif" font-size="10.00">string</text>
</a>
</g>
</g>
<!-- Node1&#45;&gt;Node14 -->
<g id="edge13" class="edge">
<title>Node1&#45;&gt;Node14</title>
<path fill="none" stroke="midnightblue" d="M574.68,-125.12C662.22,-121.82 837.06,-110.93 886,-76 901.42,-65 910.09,-44.64 914.63,-29.63"/>
<polygon fill="midnightblue" stroke="midnightblue" points="918.04,-30.42 917.25,-19.85 911.28,-28.61 918.04,-30.42"/>
</g>
<!-- Node15 -->
<g id="node15" class="node">
<title>Node15</title>
<g id="a_node15"><a xlink:href="Exception_8h_source.html" target="_top" xlink:title=" ">
<polygon fill="none" stroke="black" points="933.5,-56.5 933.5,-75.5 1076.5,-75.5 1076.5,-56.5 933.5,-56.5"/>
<text text-anchor="middle" x="1005" y="-63.5" font-family="Helvetica,sans-Serif" font-size="10.00">fire/exception/Exception.h</text>
</a>
</g>
</g>
<!-- Node1&#45;&gt;Node15 -->
<g id="edge14" class="edge">
<title>Node1&#45;&gt;Node15</title>
<path fill="none" stroke="midnightblue" d="M574.57,-120.24C658.4,-109.87 826.77,-89.05 926.27,-76.74"/>
<polygon fill="midnightblue" stroke="midnightblue" points="926.77,-80.2 936.27,-75.5 925.91,-73.26 926.77,-80.2"/>
</g>
<!-- Node15&#45;&gt;Node14 -->
<g id="edge16" class="edge">
<title>Node15&#45;&gt;Node14</title>
<path fill="none" stroke="midnightblue" d="M991.18,-56.32C977.77,-47.9 957.18,-34.97 941.41,-25.07"/>
<polygon fill="midnightblue" stroke="midnightblue" points="943.11,-22.01 932.78,-19.65 939.39,-27.94 943.11,-22.01"/>
</g>
<!-- Node16 -->
<g id="node16" class="node">
<title>Node16</title>
<g id="a_node16"><a xlink:title=" ">
<polygon fill="none" stroke="#bfbfbf" points="972.5,-0.5 972.5,-19.5 1037.5,-19.5 1037.5,-0.5 972.5,-0.5"/>
<text text-anchor="middle" x="1005" y="-7.5" font-family="Helvetica,sans-Serif" font-size="10.00">exception</text>
</a>
</g>
</g>
<!-- Node15&#45;&gt;Node16 -->
<g id="edge15" class="edge">
<title>Node15&#45;&gt;Node16</title>
<path fill="none" stroke="midnightblue" d="M1005,-56.08C1005,-49.01 1005,-38.86 1005,-29.99"/>
<polygon fill="midnightblue" stroke="midnightblue" points="1008.5,-29.75 1005,-19.75 1001.5,-29.75 1008.5,-29.75"/>
</g>
</g>
</svg>
