<?xml version="1.0" encoding="UTF-8" standalone="no"?>
<!DOCTYPE svg PUBLIC "-//W3C//DTD SVG 1.1//EN"
 "http://www.w3.org/Graphics/SVG/1.1/DTD/svg11.dtd">
<!-- Generated by graphviz version 2.43.0 (0)
 -->
<!-- Title: include/fire/logging/Logger.h Pages: 1 -->
<svg width="1599pt" height="106pt"
 viewBox="0.00 0.00 1599.00 106.00" xmlns="http://www.w3.org/2000/svg" xmlns:xlink="http://www.w3.org/1999/xlink">
<g id="graph0" class="graph" transform="scale(1 1) rotate(0) translate(4 102)">
<title>include/fire/logging/Logger.h</title>
<!-- Node1 -->
<g id="node1" class="node">
<title>Node1</title>
<g id="a_node1"><a xlink:title="Interface to Boost.Logging.">
<polygon fill="#bfbfbf" stroke="black" points="739.5,-67.5 739.5,-97.5 849.5,-97.5 849.5,-67.5 739.5,-67.5"/>
<text text-anchor="start" x="747.5" y="-85.5" font-family="Helvetica,sans-Serif" font-size="10.00">include/fire/logging</text>
<text text-anchor="middle" x="794.5" y="-74.5" font-family="Helvetica,sans-Serif" font-size="10.00">/Logger.h</text>
</a>
</g>
</g>
<!-- Node2 -->
<g id="node2" class="node">
<title>Node2</title>
<g id="a_node2"><a xlink:title=" ">
<polygon fill="none" stroke="#bfbfbf" points="0,-6 0,-25 107,-25 107,-6 0,-6"/>
<text text-anchor="middle" x="53.5" y="-13" font-family="Helvetica,sans-Serif" font-size="10.00">boost/log/core.hpp</text>
</a>
</g>
</g>
<!-- Node1&#45;&gt;Node2 -->
<g id="edge1" class="edge">
<title>Node1&#45;&gt;Node2</title>
<path fill="none" stroke="midnightblue" d="M739.26,-80.22C623.27,-76.92 346.12,-65.77 116.5,-31 110.02,-30.02 103.22,-28.73 96.57,-27.33"/>
<polygon fill="midnightblue" stroke="midnightblue" points="96.86,-23.8 86.34,-25.05 95.34,-30.64 96.86,-23.8"/>
</g>
<!-- Node3 -->
<g id="node3" class="node">
<title>Node3</title>
<g id="a_node3"><a xlink:title=" ">
<polygon fill="none" stroke="#bfbfbf" points="125.5,-6 125.5,-25 269.5,-25 269.5,-6 125.5,-6"/>
<text text-anchor="middle" x="197.5" y="-13" font-family="Helvetica,sans-Serif" font-size="10.00">boost/log/expressions.hpp</text>
</a>
</g>
</g>
<!-- Node1&#45;&gt;Node3 -->
<g id="edge2" class="edge">
<title>Node1&#45;&gt;Node3</title>
<path fill="none" stroke="midnightblue" d="M739.35,-77.55C644.77,-70.46 445.68,-54.11 278.5,-31 269.76,-29.79 260.52,-28.32 251.54,-26.79"/>
<polygon fill="midnightblue" stroke="midnightblue" points="251.99,-23.32 241.54,-25.04 250.79,-30.21 251.99,-23.32"/>
</g>
<!-- Node4 -->
<g id="node4" class="node">
<title>Node4</title>
<g id="a_node4"><a xlink:title=" ">
<polygon fill="none" stroke="#bfbfbf" points="287.5,-0.5 287.5,-30.5 403.5,-30.5 403.5,-0.5 287.5,-0.5"/>
<text text-anchor="start" x="295.5" y="-18.5" font-family="Helvetica,sans-Serif" font-size="10.00">boost/log/sinks/sync</text>
<text text-anchor="middle" x="345.5" y="-7.5" font-family="Helvetica,sans-Serif" font-size="10.00">_frontend.hpp</text>
</a>
</g>
</g>
<!-- Node1&#45;&gt;Node4 -->
<g id="edge3" class="edge">
<title>Node1&#45;&gt;Node4</title>
<path fill="none" stroke="midnightblue" d="M739.25,-75.63C666.74,-67.61 535.33,-51.98 413.43,-31.08"/>
<polygon fill="midnightblue" stroke="midnightblue" points="414,-27.62 403.55,-29.37 412.8,-34.52 414,-27.62"/>
</g>
<!-- Node5 -->
<g id="node5" class="node">
<title>Node5</title>
<g id="a_node5"><a xlink:title=" ">
<polygon fill="none" stroke="#bfbfbf" points="422,-0.5 422,-30.5 551,-30.5 551,-0.5 422,-0.5"/>
<text text-anchor="start" x="430" y="-18.5" font-family="Helvetica,sans-Serif" font-size="10.00">boost/log/sinks/text</text>
<text text-anchor="middle" x="486.5" y="-7.5" font-family="Helvetica,sans-Serif" font-size="10.00">_ostream_backend.hpp</text>
</a>
</g>
</g>
<!-- Node1&#45;&gt;Node5 -->
<g id="edge4" class="edge">
<title>Node1&#45;&gt;Node5</title>
<path fill="none" stroke="midnightblue" d="M739.44,-69.88C689.75,-59.39 616.25,-43.88 561.26,-32.28"/>
<polygon fill="midnightblue" stroke="midnightblue" points="561.73,-28.8 551.22,-30.16 560.28,-35.65 561.73,-28.8"/>
</g>
<!-- Node6 -->
<g id="node6" class="node">
<title>Node6</title>
<g id="a_node6"><a xlink:title=" ">
<polygon fill="none" stroke="#bfbfbf" points="569,-0.5 569,-30.5 704,-30.5 704,-0.5 569,-0.5"/>
<text text-anchor="start" x="577" y="-18.5" font-family="Helvetica,sans-Serif" font-size="10.00">boost/log/sources/global</text>
<text text-anchor="middle" x="636.5" y="-7.5" font-family="Helvetica,sans-Serif" font-size="10.00">_logger_storage.hpp</text>
</a>
</g>
</g>
<!-- Node1&#45;&gt;Node6 -->
<g id="edge5" class="edge">
<title>Node1&#45;&gt;Node6</title>
<path fill="none" stroke="midnightblue" d="M760.22,-67.4C736.72,-57.73 705.35,-44.82 680.07,-34.43"/>
<polygon fill="midnightblue" stroke="midnightblue" points="681.3,-31.14 670.72,-30.58 678.63,-37.62 681.3,-31.14"/>
</g>
<!-- Node7 -->
<g id="node7" class="node">
<title>Node7</title>
<g id="a_node7"><a xlink:title=" ">
<polygon fill="none" stroke="#bfbfbf" points="722,-0.5 722,-30.5 867,-30.5 867,-0.5 722,-0.5"/>
<text text-anchor="start" x="730" y="-18.5" font-family="Helvetica,sans-Serif" font-size="10.00">boost/log/sources/severity</text>
<text text-anchor="middle" x="794.5" y="-7.5" font-family="Helvetica,sans-Serif" font-size="10.00">_channel_logger.hpp</text>
</a>
</g>
</g>
<!-- Node1&#45;&gt;Node7 -->
<g id="edge6" class="edge">
<title>Node1&#45;&gt;Node7</title>
<path fill="none" stroke="midnightblue" d="M794.5,-67.4C794.5,-59.64 794.5,-49.81 794.5,-40.86"/>
<polygon fill="midnightblue" stroke="midnightblue" points="798,-40.58 794.5,-30.58 791,-40.58 798,-40.58"/>
</g>
<!-- Node8 -->
<g id="node8" class="node">
<title>Node8</title>
<g id="a_node8"><a xlink:title=" ">
<polygon fill="none" stroke="#bfbfbf" points="885,-0.5 885,-30.5 1030,-30.5 1030,-0.5 885,-0.5"/>
<text text-anchor="start" x="893" y="-18.5" font-family="Helvetica,sans-Serif" font-size="10.00">boost/log/sources/severity</text>
<text text-anchor="middle" x="957.5" y="-7.5" font-family="Helvetica,sans-Serif" font-size="10.00">_feature.hpp</text>
</a>
</g>
</g>
<!-- Node1&#45;&gt;Node8 -->
<g id="edge7" class="edge">
<title>Node1&#45;&gt;Node8</title>
<path fill="none" stroke="midnightblue" d="M829.87,-67.4C854.22,-57.69 886.76,-44.71 912.89,-34.29"/>
<polygon fill="midnightblue" stroke="midnightblue" points="914.21,-37.53 922.2,-30.58 911.62,-31.03 914.21,-37.53"/>
</g>
<!-- Node9 -->
<g id="node9" class="node">
<title>Node9</title>
<g id="a_node9"><a xlink:title=" ">
<polygon fill="none" stroke="#bfbfbf" points="1048.5,-0.5 1048.5,-30.5 1184.5,-30.5 1184.5,-0.5 1048.5,-0.5"/>
<text text-anchor="start" x="1056.5" y="-18.5" font-family="Helvetica,sans-Serif" font-size="10.00">boost/log/utility/setup</text>
<text text-anchor="middle" x="1116.5" y="-7.5" font-family="Helvetica,sans-Serif" font-size="10.00">/common_attributes.hpp</text>
</a>
</g>
</g>
<!-- Node1&#45;&gt;Node9 -->
<g id="edge8" class="edge">
<title>Node1&#45;&gt;Node9</title>
<path fill="none" stroke="midnightblue" d="M849.85,-70.33C901.87,-59.83 980.22,-44.01 1038.55,-32.24"/>
<polygon fill="midnightblue" stroke="midnightblue" points="1039.35,-35.64 1048.46,-30.23 1037.97,-28.78 1039.35,-35.64"/>
</g>
<!-- Node10 -->
<g id="node10" class="node">
<title>Node10</title>
<g id="a_node10"><a xlink:title=" ">
<polygon fill="none" stroke="#bfbfbf" points="1202.5,-0.5 1202.5,-30.5 1338.5,-30.5 1338.5,-0.5 1202.5,-0.5"/>
<text text-anchor="start" x="1210.5" y="-18.5" font-family="Helvetica,sans-Serif" font-size="10.00">boost/log/sources/record</text>
<text text-anchor="middle" x="1270.5" y="-7.5" font-family="Helvetica,sans-Serif" font-size="10.00">_ostream.hpp</text>
</a>
</g>
</g>
<!-- Node1&#45;&gt;Node10 -->
<g id="edge9" class="edge">
<title>Node1&#45;&gt;Node10</title>
<path fill="none" stroke="midnightblue" d="M849.51,-75.6C924.64,-67.3 1063.78,-51.11 1192.1,-31.17"/>
<polygon fill="midnightblue" stroke="midnightblue" points="1192.76,-34.61 1202.1,-29.6 1191.68,-27.69 1192.76,-34.61"/>
</g>
<!-- Node11 -->
<g id="node11" class="node">
<title>Node11</title>
<g id="a_node11"><a xlink:title=" ">
<polygon fill="none" stroke="#bfbfbf" points="1357,-0.5 1357,-30.5 1480,-30.5 1480,-0.5 1357,-0.5"/>
<text text-anchor="start" x="1365" y="-18.5" font-family="Helvetica,sans-Serif" font-size="10.00">boost/log/utility/setup</text>
<text text-anchor="middle" x="1418.5" y="-7.5" font-family="Helvetica,sans-Serif" font-size="10.00">/file.hpp</text>
</a>
</g>
</g>
<!-- Node1&#45;&gt;Node11 -->
<g id="edge10" class="edge">
<title>Node1&#45;&gt;Node11</title>
<path fill="none" stroke="midnightblue" d="M849.68,-78.48C947.69,-72.69 1158.7,-58.22 1346.92,-30.97"/>
<polygon fill="midnightblue" stroke="midnightblue" points="1347.61,-34.4 1357,-29.49 1346.6,-27.48 1347.61,-34.4"/>
</g>
<!-- Node12 -->
<g id="node12" class="node">
<title>Node12</title>
<g id="a_node12"><a xlink:title=" ">
<polygon fill="none" stroke="#bfbfbf" points="1498,-6 1498,-25 1591,-25 1591,-6 1498,-6"/>
<text text-anchor="middle" x="1544.5" y="-13" font-family="Helvetica,sans-Serif" font-size="10.00">unordered_map</text>
</a>
</g>
</g>
<!-- Node1&#45;&gt;Node12 -->
<g id="edge11" class="edge">
<title>Node1&#45;&gt;Node12</title>
<path fill="none" stroke="midnightblue" d="M849.87,-80.95C968.13,-79.01 1253.82,-70.28 1489.5,-31 1494.98,-30.09 1500.71,-28.87 1506.31,-27.54"/>
<polygon fill="midnightblue" stroke="midnightblue" points="1507.34,-30.89 1516.17,-25.04 1505.62,-24.1 1507.34,-30.89"/>
</g>
</g>
</svg>
