<?xml version="1.0" encoding="UTF-8" standalone="no"?>
<!DOCTYPE svg PUBLIC "-//W3C//DTD SVG 1.1//EN"
 "http://www.w3.org/Graphics/SVG/1.1/DTD/svg11.dtd">
<!-- Generated by graphviz version 2.43.0 (0)
 -->
<!-- Title: include/fire/logging/Logger.h Pages: 1 -->
<svg width="743pt" height="330pt"
 viewBox="0.00 0.00 742.50 330.00" xmlns="http://www.w3.org/2000/svg" xmlns:xlink="http://www.w3.org/1999/xlink">
<g id="graph0" class="graph" transform="scale(1 1) rotate(0) translate(4 326)">
<title>include/fire/logging/Logger.h</title>
<!-- Node1 -->
<g id="node1" class="node">
<title>Node1</title>
<g id="a_node1"><a xlink:title="Interface to Boost.Logging.">
<polygon fill="#bfbfbf" stroke="black" points="218,-291.5 218,-321.5 328,-321.5 328,-291.5 218,-291.5"/>
<text text-anchor="start" x="226" y="-309.5" font-family="Helvetica,sans-Serif" font-size="10.00">include/fire/logging</text>
<text text-anchor="middle" x="273" y="-298.5" font-family="Helvetica,sans-Serif" font-size="10.00">/Logger.h</text>
</a>
</g>
</g>
<!-- Node2 -->
<g id="node2" class="node">
<title>Node2</title>
<g id="a_node2"><a xlink:href="Framework_2Logger_8h_source.html" target="_top" xlink:title=" ">
<polygon fill="none" stroke="black" points="0,-112.5 0,-131.5 154,-131.5 154,-112.5 0,-112.5"/>
<text text-anchor="middle" x="77" y="-119.5" font-family="Helvetica,sans-Serif" font-size="10.00">include/Framework/Logger.h</text>
</a>
</g>
</g>
<!-- Node1&#45;&gt;Node2 -->
<g id="edge1" class="edge">
<title>Node1&#45;&gt;Node2</title>
<path fill="none" stroke="midnightblue" d="M246.45,-285.23C235.01,-276.24 221.61,-265.37 210,-255 160.49,-210.81 105.43,-153.23 85.1,-131.66"/>
<polygon fill="midnightblue" stroke="midnightblue" points="244.34,-288.03 254.38,-291.41 248.64,-282.51 244.34,-288.03"/>
</g>
<!-- Node4 -->
<g id="node4" class="node">
<title>Node4</title>
<g id="a_node4"><a xlink:href="Conditions_8h_source.html" target="_top" xlink:title=" ">
<polygon fill="none" stroke="black" points="206,-174 206,-193 340,-193 340,-174 206,-174"/>
<text text-anchor="middle" x="273" y="-181" font-family="Helvetica,sans-Serif" font-size="10.00">include/fire/Conditions.h</text>
</a>
</g>
</g>
<!-- Node1&#45;&gt;Node4 -->
<g id="edge3" class="edge">
<title>Node1&#45;&gt;Node4</title>
<path fill="none" stroke="midnightblue" d="M273,-280.84C273,-253.56 273,-211.08 273,-193.05"/>
<polygon fill="midnightblue" stroke="midnightblue" points="269.5,-281.14 273,-291.14 276.5,-281.14 269.5,-281.14"/>
</g>
<!-- Node5 -->
<g id="node5" class="node">
<title>Node5</title>
<g id="a_node5"><a xlink:href="Process_8h_source.html" target="_top" xlink:title=" ">
<polygon fill="none" stroke="black" points="270,-56.5 270,-75.5 390,-75.5 390,-56.5 270,-56.5"/>
<text text-anchor="middle" x="330" y="-63.5" font-family="Helvetica,sans-Serif" font-size="10.00">include/fire/Process.h</text>
</a>
</g>
</g>
<!-- Node1&#45;&gt;Node5 -->
<g id="edge13" class="edge">
<title>Node1&#45;&gt;Node5</title>
<path fill="none" stroke="midnightblue" d="M294.64,-283.96C313.12,-263.93 338.36,-232.23 349,-199 363.4,-154.02 342.79,-96.9 333.82,-75.56"/>
<polygon fill="midnightblue" stroke="midnightblue" points="292.02,-281.64 287.69,-291.31 297.11,-286.45 292.02,-281.64"/>
</g>
<!-- Node7 -->
<g id="node7" class="node">
<title>Node7</title>
<g id="a_node7"><a xlink:href="Processor_8h_source.html" target="_top" xlink:title=" ">
<polygon fill="none" stroke="black" points="172.5,-112.5 172.5,-131.5 301.5,-131.5 301.5,-112.5 172.5,-112.5"/>
<text text-anchor="middle" x="237" y="-119.5" font-family="Helvetica,sans-Serif" font-size="10.00">include/fire/Processor.h</text>
</a>
</g>
</g>
<!-- Node1&#45;&gt;Node7 -->
<g id="edge14" class="edge">
<title>Node1&#45;&gt;Node7</title>
<path fill="none" stroke="midnightblue" d="M251.36,-283.96C232.88,-263.93 207.64,-232.23 197,-199 192.8,-185.88 192.1,-180.88 197,-168 202.72,-152.95 216.03,-139.73 225.73,-131.57"/>
<polygon fill="midnightblue" stroke="midnightblue" points="248.89,-286.45 258.31,-291.31 253.98,-281.64 248.89,-286.45"/>
</g>
<!-- Node8 -->
<g id="node8" class="node">
<title>Node8</title>
<g id="a_node8"><a xlink:href="ConditionsProvider_8h_source.html" target="_top" xlink:title=" ">
<polygon fill="none" stroke="black" points="396,-235.5 396,-254.5 570,-254.5 570,-235.5 396,-235.5"/>
<text text-anchor="middle" x="483" y="-242.5" font-family="Helvetica,sans-Serif" font-size="10.00">include/fire/ConditionsProvider.h</text>
</a>
</g>
</g>
<!-- Node1&#45;&gt;Node8 -->
<g id="edge9" class="edge">
<title>Node1&#45;&gt;Node8</title>
<path fill="none" stroke="midnightblue" d="M332.26,-288.71C371.61,-277.56 421.62,-263.39 452.98,-254.51"/>
<polygon fill="midnightblue" stroke="midnightblue" points="331.17,-285.38 322.5,-291.47 333.08,-292.12 331.17,-285.38"/>
</g>
<!-- Node3 -->
<g id="node3" class="node">
<title>Node3</title>
<g id="a_node3"><a xlink:href="EventProcessor_8h.html" target="_top" xlink:title="Re&#45;interpretation of ROOT&#45;based framework code into fire.">
<polygon fill="none" stroke="black" points="18,-56.5 18,-75.5 214,-75.5 214,-56.5 18,-56.5"/>
<text text-anchor="middle" x="116" y="-63.5" font-family="Helvetica,sans-Serif" font-size="10.00">include/Framework/EventProcessor.h</text>
</a>
</g>
</g>
<!-- Node2&#45;&gt;Node3 -->
<g id="edge2" class="edge">
<title>Node2&#45;&gt;Node3</title>
<path fill="none" stroke="midnightblue" d="M89.38,-103.86C96.14,-94.5 104.21,-83.33 109.68,-75.75"/>
<polygon fill="midnightblue" stroke="midnightblue" points="86.46,-101.93 83.44,-112.08 92.13,-106.03 86.46,-101.93"/>
</g>
<!-- Node4&#45;&gt;Node5 -->
<g id="edge4" class="edge">
<title>Node4&#45;&gt;Node5</title>
<path fill="none" stroke="midnightblue" d="M287.73,-166.12C295.57,-156.7 304.83,-144.32 311,-132 320.48,-113.08 326.02,-88.63 328.48,-75.78"/>
<polygon fill="midnightblue" stroke="midnightblue" points="284.95,-163.99 281.07,-173.85 290.25,-168.56 284.95,-163.99"/>
</g>
<!-- Node4&#45;&gt;Node7 -->
<g id="edge6" class="edge">
<title>Node4&#45;&gt;Node7</title>
<path fill="none" stroke="midnightblue" d="M262.52,-165.17C255.82,-154.11 247.44,-140.25 242.15,-131.51"/>
<polygon fill="midnightblue" stroke="midnightblue" points="259.67,-167.23 267.84,-173.98 265.66,-163.61 259.67,-167.23"/>
</g>
<!-- Node6 -->
<g id="node6" class="node">
<title>Node6</title>
<g id="a_node6"><a xlink:href="fire_8cxx.html" target="_top" xlink:title="main definition for fire executable">
<polygon fill="none" stroke="black" points="293,-0.5 293,-19.5 367,-19.5 367,-0.5 293,-0.5"/>
<text text-anchor="middle" x="330" y="-7.5" font-family="Helvetica,sans-Serif" font-size="10.00">app/fire.cxx</text>
</a>
</g>
</g>
<!-- Node5&#45;&gt;Node6 -->
<g id="edge5" class="edge">
<title>Node5&#45;&gt;Node6</title>
<path fill="none" stroke="midnightblue" d="M330,-45.8C330,-36.91 330,-26.78 330,-19.75"/>
<polygon fill="midnightblue" stroke="midnightblue" points="326.5,-46.08 330,-56.08 333.5,-46.08 326.5,-46.08"/>
</g>
<!-- Node7&#45;&gt;Node3 -->
<g id="edge7" class="edge">
<title>Node7&#45;&gt;Node3</title>
<path fill="none" stroke="midnightblue" d="M208.69,-108.37C186.03,-98.26 154.87,-84.35 135.08,-75.52"/>
<polygon fill="midnightblue" stroke="midnightblue" points="207.27,-111.56 217.83,-112.44 210.12,-105.17 207.27,-111.56"/>
</g>
<!-- Node7&#45;&gt;Node5 -->
<g id="edge8" class="edge">
<title>Node7&#45;&gt;Node5</title>
<path fill="none" stroke="midnightblue" d="M260.81,-107.18C277.92,-97.24 300.47,-84.15 315.1,-75.65"/>
<polygon fill="midnightblue" stroke="midnightblue" points="258.83,-104.28 251.94,-112.32 262.35,-110.33 258.83,-104.28"/>
</g>
<!-- Node8&#45;&gt;Node4 -->
<g id="edge11" class="edge">
<title>Node8&#45;&gt;Node4</title>
<path fill="none" stroke="midnightblue" d="M443.03,-232.68C402.23,-221.11 339.81,-203.43 303.03,-193.01"/>
<polygon fill="midnightblue" stroke="midnightblue" points="442.34,-236.12 452.91,-235.48 444.24,-229.38 442.34,-236.12"/>
</g>
<!-- Node9 -->
<g id="node9" class="node">
<title>Node9</title>
<g id="a_node9"><a xlink:href="ConditionsObjectProvider_8h_source.html" target="_top" xlink:title=" ">
<polygon fill="none" stroke="black" points="399,-168.5 399,-198.5 563,-198.5 563,-168.5 399,-168.5"/>
<text text-anchor="start" x="407" y="-186.5" font-family="Helvetica,sans-Serif" font-size="10.00">include/Framework/Conditions</text>
<text text-anchor="middle" x="481" y="-175.5" font-family="Helvetica,sans-Serif" font-size="10.00">ObjectProvider.h</text>
</a>
</g>
</g>
<!-- Node8&#45;&gt;Node9 -->
<g id="edge10" class="edge">
<title>Node8&#45;&gt;Node9</title>
<path fill="none" stroke="midnightblue" d="M482.37,-225.23C482.08,-216.59 481.74,-206.5 481.47,-198.52"/>
<polygon fill="midnightblue" stroke="midnightblue" points="478.88,-225.6 482.71,-235.48 485.88,-225.36 478.88,-225.6"/>
</g>
<!-- Node10 -->
<g id="node10" class="node">
<title>Node10</title>
<g id="a_node10"><a xlink:href="RandomNumberSeedService_8h.html" target="_top" xlink:title="Conditions object for random number seeds.">
<polygon fill="none" stroke="black" points="581.5,-168.5 581.5,-198.5 734.5,-198.5 734.5,-168.5 581.5,-168.5"/>
<text text-anchor="start" x="589.5" y="-186.5" font-family="Helvetica,sans-Serif" font-size="10.00">include/fire/RandomNumber</text>
<text text-anchor="middle" x="658" y="-175.5" font-family="Helvetica,sans-Serif" font-size="10.00">SeedService.h</text>
</a>
</g>
</g>
<!-- Node8&#45;&gt;Node10 -->
<g id="edge12" class="edge">
<title>Node8&#45;&gt;Node10</title>
<path fill="none" stroke="midnightblue" d="M517.62,-232.23C546.11,-222.54 586.58,-208.78 616.76,-198.52"/>
<polygon fill="midnightblue" stroke="midnightblue" points="516.41,-228.94 508.07,-235.48 518.67,-235.57 516.41,-228.94"/>
</g>
</g>
</svg>
