<?xml version="1.0" encoding="UTF-8" standalone="no"?>
<!DOCTYPE svg PUBLIC "-//W3C//DTD SVG 1.1//EN"
 "http://www.w3.org/Graphics/SVG/1.1/DTD/svg11.dtd">
<!-- Generated by graphviz version 2.43.0 (0)
 -->
<!-- Title: Graphical Class Hierarchy Pages: 1 -->
<svg width="245pt" height="66pt"
 viewBox="0.00 0.00 245.00 66.00" xmlns="http://www.w3.org/2000/svg" xmlns:xlink="http://www.w3.org/1999/xlink">
<g id="graph0" class="graph" transform="scale(1 1) rotate(0) translate(4 62)">
<title>Graphical Class Hierarchy</title>
<!-- Node0 -->
<g id="node1" class="node">
<title>Node0</title>
<g id="a_node1"><a xlink:href="classfire_1_1io_1_1Reader.html" target="_top" xlink:title="Prototype for reading files within fire.">
<polygon fill="none" stroke="black" points="0,-19.5 0,-38.5 88,-38.5 88,-19.5 0,-19.5"/>
<text text-anchor="middle" x="44" y="-26.5" font-family="Helvetica,sans-Serif" font-size="10.00">fire::io::Reader</text>
</a>
</g>
</g>
<!-- Node1 -->
<g id="node2" class="node">
<title>Node1</title>
<g id="a_node2"><a xlink:href="classfire_1_1io_1_1h5_1_1Reader.html" target="_top" xlink:title="Reading a file generated by fire.">
<polygon fill="none" stroke="black" points="127.5,-38.5 127.5,-57.5 233.5,-57.5 233.5,-38.5 127.5,-38.5"/>
<text text-anchor="middle" x="180.5" y="-45.5" font-family="Helvetica,sans-Serif" font-size="10.00">fire::io::h5::Reader</text>
</a>
</g>
</g>
<!-- Node0&#45;&gt;Node1 -->
<g id="edge1" class="edge">
<title>Node0&#45;&gt;Node1</title>
<path fill="none" stroke="midnightblue" d="M98.44,-36.55C107.96,-37.89 117.87,-39.29 127.35,-40.63"/>
<polygon fill="midnightblue" stroke="midnightblue" points="98.69,-33.05 88.3,-35.12 97.71,-39.98 98.69,-33.05"/>
</g>
<!-- Node2 -->
<g id="node3" class="node">
<title>Node2</title>
<g id="a_node3"><a xlink:href="classfire_1_1io_1_1root_1_1Reader.html" target="_top" xlink:title="Reading ROOT files into our data structures.">
<polygon fill="none" stroke="black" points="124,-0.5 124,-19.5 237,-19.5 237,-0.5 124,-0.5"/>
<text text-anchor="middle" x="180.5" y="-7.5" font-family="Helvetica,sans-Serif" font-size="10.00">fire::io::root::Reader</text>
</a>
</g>
</g>
<!-- Node0&#45;&gt;Node2 -->
<g id="edge2" class="edge">
<title>Node0&#45;&gt;Node2</title>
<path fill="none" stroke="midnightblue" d="M98.38,-21.46C106.8,-20.27 115.52,-19.04 123.99,-17.84"/>
<polygon fill="midnightblue" stroke="midnightblue" points="97.71,-18.02 88.3,-22.88 98.69,-24.95 97.71,-18.02"/>
</g>
</g>
</svg>
