<?xml version="1.0" encoding="UTF-8" standalone="no"?>
<!DOCTYPE svg PUBLIC "-//W3C//DTD SVG 1.1//EN"
 "http://www.w3.org/Graphics/SVG/1.1/DTD/svg11.dtd">
<!-- Generated by graphviz version 2.43.0 (0)
 -->
<!-- Title: Graphical Class Hierarchy Pages: 1 -->
<svg width="531pt" height="247pt"
 viewBox="0.00 0.00 531.00 246.50" xmlns="http://www.w3.org/2000/svg" xmlns:xlink="http://www.w3.org/1999/xlink">
<g id="graph0" class="graph" transform="scale(1 1) rotate(0) translate(4 242.5)">
<title>Graphical Class Hierarchy</title>
<!-- Node0 -->
<g id="node1" class="node">
<title>Node0</title>
<g id="a_node1"><a xlink:href="classfire_1_1io_1_1BaseData.html" target="_top" xlink:title="Empty data base allowing recursion.">
<polygon fill="none" stroke="black" points="0,-104 0,-123 101,-123 101,-104 0,-104"/>
<text text-anchor="middle" x="50.5" y="-111" font-family="Helvetica,sans-Serif" font-size="10.00">fire::io::BaseData</text>
</a>
</g>
</g>
<!-- Node1 -->
<g id="node2" class="node">
<title>Node1</title>
<g id="a_node2"><a xlink:href="classfire_1_1io_1_1AbstractData.html" target="_top" xlink:title=" ">
<polygon fill="none" stroke="black" points="172.5,-199.5 172.5,-229.5 289.5,-229.5 289.5,-199.5 172.5,-199.5"/>
<text text-anchor="start" x="180.5" y="-217.5" font-family="Helvetica,sans-Serif" font-size="10.00">fire::io::AbstractData</text>
<text text-anchor="middle" x="231" y="-206.5" font-family="Helvetica,sans-Serif" font-size="10.00">&lt; AtomicType &gt;</text>
</a>
</g>
</g>
<!-- Node0&#45;&gt;Node1 -->
<g id="edge1" class="edge">
<title>Node0&#45;&gt;Node1</title>
<path fill="none" stroke="midnightblue" d="M66.96,-130.63C82.96,-147.39 109.43,-172.51 137,-187.5 147.93,-193.44 160.31,-198.21 172.39,-201.97"/>
<polygon fill="midnightblue" stroke="midnightblue" points="69.37,-128.09 59.99,-123.16 64.25,-132.86 69.37,-128.09"/>
</g>
<!-- Node3 -->
<g id="node4" class="node">
<title>Node3</title>
<g id="a_node4"><a xlink:href="classfire_1_1io_1_1AbstractData.html" target="_top" xlink:title=" ">
<polygon fill="none" stroke="black" points="167.5,-147.5 167.5,-177.5 294.5,-177.5 294.5,-147.5 167.5,-147.5"/>
<text text-anchor="start" x="175.5" y="-165.5" font-family="Helvetica,sans-Serif" font-size="10.00">fire::io::AbstractData</text>
<text text-anchor="middle" x="231" y="-154.5" font-family="Helvetica,sans-Serif" font-size="10.00">&lt; ParameterStorage &gt;</text>
</a>
</g>
</g>
<!-- Node0&#45;&gt;Node3 -->
<g id="edge3" class="edge">
<title>Node0&#45;&gt;Node3</title>
<path fill="none" stroke="midnightblue" d="M92.93,-125.9C106.9,-130.01 122.6,-134.54 137,-138.5 147.77,-141.46 159.28,-144.52 170.39,-147.42"/>
<polygon fill="midnightblue" stroke="midnightblue" points="93.68,-122.48 83.1,-123 91.7,-129.19 93.68,-122.48"/>
</g>
<!-- Node5 -->
<g id="node6" class="node">
<title>Node5</title>
<g id="a_node6"><a xlink:href="classfire_1_1io_1_1AbstractData.html" target="_top" xlink:title=" ">
<polygon fill="none" stroke="black" points="137,-98.5 137,-128.5 325,-128.5 325,-98.5 137,-98.5"/>
<text text-anchor="start" x="145" y="-116.5" font-family="Helvetica,sans-Serif" font-size="10.00">fire::io::AbstractData</text>
<text text-anchor="middle" x="231" y="-105.5" font-family="Helvetica,sans-Serif" font-size="10.00">&lt; std::map&lt; KeyType, ValType &gt; &gt;</text>
</a>
</g>
</g>
<!-- Node0&#45;&gt;Node5 -->
<g id="edge5" class="edge">
<title>Node0&#45;&gt;Node5</title>
<path fill="none" stroke="midnightblue" d="M111.39,-113.5C119.6,-113.5 128.18,-113.5 136.8,-113.5"/>
<polygon fill="midnightblue" stroke="midnightblue" points="111.22,-110 101.22,-113.5 111.22,-117 111.22,-110"/>
</g>
<!-- Node7 -->
<g id="node8" class="node">
<title>Node7</title>
<g id="a_node8"><a xlink:href="classfire_1_1io_1_1AbstractData.html" target="_top" xlink:title=" ">
<polygon fill="none" stroke="black" points="144,-49.5 144,-79.5 318,-79.5 318,-49.5 144,-49.5"/>
<text text-anchor="start" x="152" y="-67.5" font-family="Helvetica,sans-Serif" font-size="10.00">fire::io::AbstractData</text>
<text text-anchor="middle" x="231" y="-56.5" font-family="Helvetica,sans-Serif" font-size="10.00">&lt; std::vector&lt; ContentType &gt; &gt;</text>
</a>
</g>
</g>
<!-- Node0&#45;&gt;Node7 -->
<g id="edge7" class="edge">
<title>Node0&#45;&gt;Node7</title>
<path fill="none" stroke="midnightblue" d="M95.13,-101.15C108.55,-97.38 123.38,-93.24 137,-89.5 148.77,-86.27 161.39,-82.84 173.42,-79.6"/>
<polygon fill="midnightblue" stroke="midnightblue" points="93.86,-97.87 85.18,-103.95 95.76,-104.61 93.86,-97.87"/>
</g>
<!-- Node9 -->
<g id="node10" class="node">
<title>Node9</title>
<g id="a_node10"><a xlink:href="classfire_1_1io_1_1AbstractData.html" target="_top" xlink:title="Type&#45;specific base class to hold common data methods.">
<polygon fill="none" stroke="black" points="172.5,-0.5 172.5,-30.5 289.5,-30.5 289.5,-0.5 172.5,-0.5"/>
<text text-anchor="start" x="180.5" y="-18.5" font-family="Helvetica,sans-Serif" font-size="10.00">fire::io::AbstractData</text>
<text text-anchor="middle" x="231" y="-7.5" font-family="Helvetica,sans-Serif" font-size="10.00">&lt; DataType &gt;</text>
</a>
</g>
</g>
<!-- Node0&#45;&gt;Node9 -->
<g id="edge9" class="edge">
<title>Node0&#45;&gt;Node9</title>
<path fill="none" stroke="midnightblue" d="M66.61,-96.46C82.51,-79.57 109.06,-54.15 137,-39.5 147.93,-33.77 160.31,-29.35 172.39,-25.95"/>
<polygon fill="midnightblue" stroke="midnightblue" points="63.89,-94.25 59.7,-103.99 69.04,-98.99 63.89,-94.25"/>
</g>
<!-- Node2 -->
<g id="node3" class="node">
<title>Node2</title>
<g id="a_node3"><a xlink:href="classfire_1_1io_1_1Data_3_01AtomicType_00_01std_1_1enable__if__t_3_01is__atomic__v_3_01AtomicType_01_4_01_4_01_4.html" target="_top" xlink:title="Data wrapper for atomic types.">
<polygon fill="none" stroke="black" points="365.5,-197 365.5,-238 518.5,-238 518.5,-197 365.5,-197"/>
<text text-anchor="start" x="373.5" y="-226" font-family="Helvetica,sans-Serif" font-size="10.00">fire::io::Data&lt; AtomicType,</text>
<text text-anchor="start" x="373.5" y="-215" font-family="Helvetica,sans-Serif" font-size="10.00"> std::enable_if_t&lt; is_atomic</text>
<text text-anchor="middle" x="442" y="-204" font-family="Helvetica,sans-Serif" font-size="10.00">_v&lt; AtomicType &gt; &gt; &gt;</text>
</a>
</g>
</g>
<!-- Node1&#45;&gt;Node2 -->
<g id="edge2" class="edge">
<title>Node1&#45;&gt;Node2</title>
<path fill="none" stroke="midnightblue" d="M299.72,-215.47C320.6,-215.77 343.73,-216.1 365.12,-216.41"/>
<polygon fill="midnightblue" stroke="midnightblue" points="299.71,-211.97 289.66,-215.33 299.61,-218.97 299.71,-211.97"/>
</g>
<!-- Node4 -->
<g id="node5" class="node">
<title>Node4</title>
<g id="a_node5"><a xlink:href="classfire_1_1io_1_1Data_3_01ParameterStorage_01_4.html" target="_top" xlink:title="io::Data specialization for ParameterStorage">
<polygon fill="none" stroke="black" points="373,-147.5 373,-177.5 511,-177.5 511,-147.5 373,-147.5"/>
<text text-anchor="start" x="381" y="-165.5" font-family="Helvetica,sans-Serif" font-size="10.00">fire::io::Data&lt; Parameter</text>
<text text-anchor="middle" x="442" y="-154.5" font-family="Helvetica,sans-Serif" font-size="10.00">Storage &gt;</text>
</a>
</g>
</g>
<!-- Node3&#45;&gt;Node4 -->
<g id="edge4" class="edge">
<title>Node3&#45;&gt;Node4</title>
<path fill="none" stroke="midnightblue" d="M304.71,-162.5C326.83,-162.5 351.06,-162.5 372.87,-162.5"/>
<polygon fill="midnightblue" stroke="midnightblue" points="304.71,-159 294.71,-162.5 304.71,-166 304.71,-159"/>
</g>
<!-- Node6 -->
<g id="node7" class="node">
<title>Node6</title>
<g id="a_node7"><a xlink:href="classfire_1_1io_1_1Data_3_01std_1_1map_3_01KeyType_00_01ValType_01_4_01_4.html" target="_top" xlink:title="Our wrapper around std::map.">
<polygon fill="none" stroke="black" points="361,-98.5 361,-128.5 523,-128.5 523,-98.5 361,-98.5"/>
<text text-anchor="start" x="369" y="-116.5" font-family="Helvetica,sans-Serif" font-size="10.00">fire::io::Data&lt; std</text>
<text text-anchor="middle" x="442" y="-105.5" font-family="Helvetica,sans-Serif" font-size="10.00">::map&lt; KeyType, ValType &gt; &gt;</text>
</a>
</g>
</g>
<!-- Node5&#45;&gt;Node6 -->
<g id="edge6" class="edge">
<title>Node5&#45;&gt;Node6</title>
<path fill="none" stroke="midnightblue" d="M335.24,-113.5C343.81,-113.5 352.39,-113.5 360.76,-113.5"/>
<polygon fill="midnightblue" stroke="midnightblue" points="335.19,-110 325.19,-113.5 335.19,-117 335.19,-110"/>
</g>
<!-- Node8 -->
<g id="node9" class="node">
<title>Node8</title>
<g id="a_node9"><a xlink:href="classfire_1_1io_1_1Data_3_01std_1_1vector_3_01ContentType_01_4_01_4.html" target="_top" xlink:title="Our wrapper around std::vector.">
<polygon fill="none" stroke="black" points="368,-49.5 368,-79.5 516,-79.5 516,-49.5 368,-49.5"/>
<text text-anchor="start" x="376" y="-67.5" font-family="Helvetica,sans-Serif" font-size="10.00">fire::io::Data&lt; std</text>
<text text-anchor="middle" x="442" y="-56.5" font-family="Helvetica,sans-Serif" font-size="10.00">::vector&lt; ContentType &gt; &gt;</text>
</a>
</g>
</g>
<!-- Node7&#45;&gt;Node8 -->
<g id="edge8" class="edge">
<title>Node7&#45;&gt;Node8</title>
<path fill="none" stroke="midnightblue" d="M328.35,-64.5C341.67,-64.5 355.17,-64.5 367.97,-64.5"/>
<polygon fill="midnightblue" stroke="midnightblue" points="328.21,-61 318.21,-64.5 328.21,-68 328.21,-61"/>
</g>
<!-- Node10 -->
<g id="node11" class="node">
<title>Node10</title>
<g id="a_node11"><a xlink:href="classfire_1_1io_1_1Data.html" target="_top" xlink:title="General data set.">
<polygon fill="none" stroke="black" points="373.5,-0.5 373.5,-30.5 510.5,-30.5 510.5,-0.5 373.5,-0.5"/>
<text text-anchor="start" x="381.5" y="-18.5" font-family="Helvetica,sans-Serif" font-size="10.00">fire::io::Data&lt; DataType,</text>
<text text-anchor="middle" x="442" y="-7.5" font-family="Helvetica,sans-Serif" font-size="10.00"> Enable &gt;</text>
</a>
</g>
</g>
<!-- Node9&#45;&gt;Node10 -->
<g id="edge10" class="edge">
<title>Node9&#45;&gt;Node10</title>
<path fill="none" stroke="midnightblue" d="M299.88,-15.5C323.37,-15.5 349.68,-15.5 373.15,-15.5"/>
<polygon fill="midnightblue" stroke="midnightblue" points="299.66,-12 289.66,-15.5 299.66,-19 299.66,-12"/>
</g>
</g>
</svg>
