<?xml version="1.0" encoding="UTF-8" standalone="no"?>
<!DOCTYPE svg PUBLIC "-//W3C//DTD SVG 1.1//EN"
 "http://www.w3.org/Graphics/SVG/1.1/DTD/svg11.dtd">
<!-- Generated by graphviz version 2.43.0 (0)
 -->
<!-- Title: Graphical Class Hierarchy Pages: 1 -->
<svg width="436pt" height="66pt"
 viewBox="0.00 0.00 436.00 66.00" xmlns="http://www.w3.org/2000/svg" xmlns:xlink="http://www.w3.org/1999/xlink">
<g id="graph0" class="graph" transform="scale(1 1) rotate(0) translate(4 62)">
<title>Graphical Class Hierarchy</title>
<!-- Node0 -->
<g id="node1" class="node">
<title>Node0</title>
<g id="a_node1"><a xlink:href="classfire_1_1Processor.html" target="_top" xlink:title="Base class for all event processing components.">
<polygon fill="none" stroke="black" points="0,-19.5 0,-38.5 86,-38.5 86,-19.5 0,-19.5"/>
<text text-anchor="middle" x="43" y="-26.5" font-family="Helvetica,sans-Serif" font-size="10.00">fire::Processor</text>
</a>
</g>
</g>
<!-- Node1 -->
<g id="node2" class="node">
<title>Node1</title>
<g id="a_node2"><a xlink:href="classframework_1_1EventProcessor.html" target="_top" xlink:title="Wrapper class for fire::Processor which does the necessary modifications on the constructors and adds...">
<polygon fill="none" stroke="black" points="122,-19.5 122,-38.5 273,-38.5 273,-19.5 122,-19.5"/>
<text text-anchor="middle" x="197.5" y="-26.5" font-family="Helvetica,sans-Serif" font-size="10.00">framework::EventProcessor</text>
</a>
</g>
</g>
<!-- Node0&#45;&gt;Node1 -->
<g id="edge1" class="edge">
<title>Node0&#45;&gt;Node1</title>
<path fill="none" stroke="midnightblue" d="M96.26,-29C104.5,-29 113.16,-29 121.79,-29"/>
<polygon fill="midnightblue" stroke="midnightblue" points="96.08,-25.5 86.07,-29 96.07,-32.5 96.08,-25.5"/>
</g>
<!-- Node2 -->
<g id="node3" class="node">
<title>Node2</title>
<g id="a_node3"><a xlink:href="classframework_1_1Analyzer.html" target="_top" xlink:title="Legacy analyzer class.">
<polygon fill="none" stroke="black" points="309,-38.5 309,-57.5 428,-57.5 428,-38.5 309,-38.5"/>
<text text-anchor="middle" x="368.5" y="-45.5" font-family="Helvetica,sans-Serif" font-size="10.00">framework::Analyzer</text>
</a>
</g>
</g>
<!-- Node1&#45;&gt;Node2 -->
<g id="edge2" class="edge">
<title>Node1&#45;&gt;Node2</title>
<path fill="none" stroke="midnightblue" d="M283.23,-38.53C291.86,-39.5 300.49,-40.47 308.76,-41.4"/>
<polygon fill="midnightblue" stroke="midnightblue" points="283.45,-35.03 273.12,-37.39 282.66,-41.98 283.45,-35.03"/>
</g>
<!-- Node3 -->
<g id="node4" class="node">
<title>Node3</title>
<g id="a_node4"><a xlink:href="classframework_1_1Producer.html" target="_top" xlink:title="Legacy producer class.">
<polygon fill="none" stroke="black" points="309,-0.5 309,-19.5 428,-19.5 428,-0.5 309,-0.5"/>
<text text-anchor="middle" x="368.5" y="-7.5" font-family="Helvetica,sans-Serif" font-size="10.00">framework::Producer</text>
</a>
</g>
</g>
<!-- Node1&#45;&gt;Node3 -->
<g id="edge3" class="edge">
<title>Node1&#45;&gt;Node3</title>
<path fill="none" stroke="midnightblue" d="M283.23,-19.47C291.86,-18.5 300.49,-17.53 308.76,-16.6"/>
<polygon fill="midnightblue" stroke="midnightblue" points="282.66,-16.02 273.12,-20.61 283.45,-22.97 282.66,-16.02"/>
</g>
</g>
</svg>
