<?xml version="1.0" encoding="UTF-8" standalone="no"?>
<!DOCTYPE svg PUBLIC "-//W3C//DTD SVG 1.1//EN"
 "http://www.w3.org/Graphics/SVG/1.1/DTD/svg11.dtd">
<!-- Generated by graphviz version 2.43.0 (0)
 -->
<!-- Title: Graphical Class Hierarchy Pages: 1 -->
<svg width="353pt" height="66pt"
 viewBox="0.00 0.00 353.00 66.00" xmlns="http://www.w3.org/2000/svg" xmlns:xlink="http://www.w3.org/1999/xlink">
<g id="graph0" class="graph" transform="scale(1 1) rotate(0) translate(4 62)">
<title>Graphical Class Hierarchy</title>
<!-- Node0 -->
<g id="node1" class="node">
<title>Node0</title>
<g id="a_node1"><a xlink:href="classfire_1_1ConditionsObject.html" target="_top" xlink:title="Base class for all conditions objects, very simple.">
<polygon fill="none" stroke="black" points="4.5,-38.5 4.5,-57.5 126.5,-57.5 126.5,-38.5 4.5,-38.5"/>
<text text-anchor="middle" x="65.5" y="-45.5" font-family="Helvetica,sans-Serif" font-size="10.00">fire::ConditionsObject</text>
</a>
</g>
</g>
<!-- Node1 -->
<g id="node2" class="node">
<title>Node1</title>
<g id="a_node2"><a xlink:href="classfire_1_1RandomNumberSeedService.html" target="_top" xlink:title="System for consistent seeding of random number generators.">
<polygon fill="none" stroke="black" points="167,-19.5 167,-38.5 345,-38.5 345,-19.5 167,-19.5"/>
<text text-anchor="middle" x="256" y="-26.5" font-family="Helvetica,sans-Serif" font-size="10.00">fire::RandomNumberSeedService</text>
</a>
</g>
</g>
<!-- Node0&#45;&gt;Node1 -->
<g id="edge1" class="edge">
<title>Node0&#45;&gt;Node1</title>
<path fill="none" stroke="midnightblue" d="M136.75,-40.92C146.58,-39.93 156.79,-38.9 166.9,-37.88"/>
<polygon fill="midnightblue" stroke="midnightblue" points="136.26,-37.45 126.66,-41.94 136.96,-44.42 136.26,-37.45"/>
</g>
<!-- Node22 -->
<g id="node3" class="node">
<title>Node22</title>
<g id="a_node3"><a xlink:href="classfire_1_1ConditionsProvider.html" target="_top" xlink:title="Base class for all providers of conditions objects.">
<polygon fill="none" stroke="black" points="0,-0.5 0,-19.5 131,-19.5 131,-0.5 0,-0.5"/>
<text text-anchor="middle" x="65.5" y="-7.5" font-family="Helvetica,sans-Serif" font-size="10.00">fire::ConditionsProvider</text>
</a>
</g>
</g>
<!-- Node22&#45;&gt;Node1 -->
<g id="edge2" class="edge">
<title>Node22&#45;&gt;Node1</title>
<path fill="none" stroke="midnightblue" d="M141.23,-17.53C149.64,-18.38 158.26,-19.25 166.82,-20.11"/>
<polygon fill="midnightblue" stroke="midnightblue" points="141.41,-14.03 131.11,-16.51 140.71,-21 141.41,-14.03"/>
</g>
</g>
</svg>
