<?xml version="1.0" encoding="UTF-8" standalone="no"?>
<!DOCTYPE svg PUBLIC "-//W3C//DTD SVG 1.1//EN"
 "http://www.w3.org/Graphics/SVG/1.1/DTD/svg11.dtd">
<!-- Generated by graphviz version 2.43.0 (0)
 -->
<!-- Title: Graphical Class Hierarchy Pages: 1 -->
<svg width="276pt" height="78pt"
 viewBox="0.00 0.00 276.00 77.50" xmlns="http://www.w3.org/2000/svg" xmlns:xlink="http://www.w3.org/1999/xlink">
<g id="graph0" class="graph" transform="scale(1 1) rotate(0) translate(4 73.5)">
<title>Graphical Class Hierarchy</title>
<!-- Node0 -->
<g id="node1" class="node">
<title>Node0</title>
<g id="a_node1"><a target="_parent" xlink:href="http://en.cppreference.com/w/cpp/error/exception.html" xlink:title=" ">
<polygon fill="none" stroke="black" points="0,-28 0,-47 86,-47 86,-28 0,-28"/>
<text text-anchor="middle" x="43" y="-35" font-family="Helvetica,sans-Serif" font-size="10.00">std::exception</text>
</a>
</g>
</g>
<!-- Node1 -->
<g id="node2" class="node">
<title>Node1</title>
<g id="a_node2"><a xlink:href="classfire_1_1Exception.html" target="_top" xlink:title="Standard base exception class with some useful output information.">
<polygon fill="none" stroke="black" points="152,-50 152,-69 238,-69 238,-50 152,-50"/>
<text text-anchor="middle" x="195" y="-57" font-family="Helvetica,sans-Serif" font-size="10.00">fire::Exception</text>
</a>
</g>
</g>
<!-- Node0&#45;&gt;Node1 -->
<g id="edge1" class="edge">
<title>Node0&#45;&gt;Node1</title>
<path fill="none" stroke="midnightblue" d="M96.08,-45.14C114.31,-47.81 134.55,-50.78 151.87,-53.32"/>
<polygon fill="midnightblue" stroke="midnightblue" points="96.58,-41.68 86.18,-43.69 95.57,-48.6 96.58,-41.68"/>
</g>
<!-- Node2 -->
<g id="node3" class="node">
<title>Node2</title>
<g id="a_node3"><a xlink:href="classfire_1_1Processor_1_1AbortEventException.html" target="_top" xlink:title="Specific exception used to abort an event.">
<polygon fill="none" stroke="black" points="122,-0.5 122,-30.5 268,-30.5 268,-0.5 122,-0.5"/>
<text text-anchor="start" x="130" y="-18.5" font-family="Helvetica,sans-Serif" font-size="10.00">fire::Processor::AbortEvent</text>
<text text-anchor="middle" x="195" y="-7.5" font-family="Helvetica,sans-Serif" font-size="10.00">Exception</text>
</a>
</g>
</g>
<!-- Node0&#45;&gt;Node2 -->
<g id="edge2" class="edge">
<title>Node0&#45;&gt;Node2</title>
<path fill="none" stroke="midnightblue" d="M96.34,-29.82C104.56,-28.62 113.18,-27.35 121.75,-26.1"/>
<polygon fill="midnightblue" stroke="midnightblue" points="95.57,-26.4 86.18,-31.31 96.58,-33.32 95.57,-26.4"/>
</g>
</g>
</svg>
