<?xml version="1.0" encoding="UTF-8" standalone="no"?>
<!DOCTYPE svg PUBLIC "-//W3C//DTD SVG 1.1//EN"
 "http://www.w3.org/Graphics/SVG/1.1/DTD/svg11.dtd">
<!-- Generated by graphviz version 2.43.0 (0)
 -->
<!-- Title: include/fire/logging/Logger.h Pages: 1 -->
<svg width="397pt" height="330pt"
 viewBox="0.00 0.00 396.90 330.00" xmlns="http://www.w3.org/2000/svg" xmlns:xlink="http://www.w3.org/1999/xlink">
<g id="graph0" class="graph" transform="scale(1 1) rotate(0) translate(4 326)">
<title>include/fire/logging/Logger.h</title>
<!-- Node1 -->
<g id="node1" class="node">
<title>Node1</title>
<g id="a_node1"><a xlink:title="Interface to Boost.Logging.">
<polygon fill="#bfbfbf" stroke="black" points="138,-291.5 138,-321.5 248,-321.5 248,-291.5 138,-291.5"/>
<text text-anchor="start" x="146" y="-309.5" font-family="Helvetica,sans-Serif" font-size="10.00">include/fire/logging</text>
<text text-anchor="middle" x="193" y="-298.5" font-family="Helvetica,sans-Serif" font-size="10.00">/Logger.h</text>
</a>
</g>
</g>
<!-- Node2 -->
<g id="node2" class="node">
<title>Node2</title>
<g id="a_node2"><a xlink:href="Conditions_8h_source.html" target="_top" xlink:title=" ">
<polygon fill="none" stroke="black" points="69,-174 69,-193 203,-193 203,-174 69,-174"/>
<text text-anchor="middle" x="136" y="-181" font-family="Helvetica,sans-Serif" font-size="10.00">include/fire/Conditions.h</text>
</a>
</g>
</g>
<!-- Node1&#45;&gt;Node2 -->
<g id="edge1" class="edge">
<title>Node1&#45;&gt;Node2</title>
<path fill="none" stroke="midnightblue" d="M173.62,-283.58C166.94,-275.12 159.91,-265.06 155,-255 144.77,-234.04 139.43,-206.79 137.24,-193.12"/>
<polygon fill="midnightblue" stroke="midnightblue" points="171.04,-285.95 180.09,-291.45 176.45,-281.51 171.04,-285.95"/>
</g>
<!-- Node3 -->
<g id="node3" class="node">
<title>Node3</title>
<g id="a_node3"><a xlink:href="Process_8h_source.html" target="_top" xlink:title=" ">
<polygon fill="none" stroke="black" points="0,-56.5 0,-75.5 120,-75.5 120,-56.5 0,-56.5"/>
<text text-anchor="middle" x="60" y="-63.5" font-family="Helvetica,sans-Serif" font-size="10.00">include/fire/Process.h</text>
</a>
</g>
</g>
<!-- Node1&#45;&gt;Node3 -->
<g id="edge10" class="edge">
<title>Node1&#45;&gt;Node3</title>
<path fill="none" stroke="midnightblue" d="M153.47,-286.48C121.67,-268.76 79.23,-239.04 60,-199 39.66,-156.65 51.9,-97.48 57.58,-75.59"/>
<polygon fill="midnightblue" stroke="midnightblue" points="152.08,-289.7 162.54,-291.37 155.4,-283.54 152.08,-289.7"/>
</g>
<!-- Node5 -->
<g id="node5" class="node">
<title>Node5</title>
<g id="a_node5"><a xlink:href="Processor_8h_source.html" target="_top" xlink:title=" ">
<polygon fill="none" stroke="black" points="153.5,-112.5 153.5,-131.5 282.5,-131.5 282.5,-112.5 153.5,-112.5"/>
<text text-anchor="middle" x="218" y="-119.5" font-family="Helvetica,sans-Serif" font-size="10.00">include/fire/Processor.h</text>
</a>
</g>
</g>
<!-- Node1&#45;&gt;Node5 -->
<g id="edge11" class="edge">
<title>Node1&#45;&gt;Node5</title>
<path fill="none" stroke="midnightblue" d="M257.94,-294.37C287.33,-286.91 321.18,-274.71 347,-255 370.71,-236.9 375.41,-227.57 384,-199 387.97,-185.81 392.37,-178.94 384,-168 370.98,-150.98 320.4,-138.9 278.46,-131.57"/>
<polygon fill="midnightblue" stroke="midnightblue" points="257.06,-290.98 248.16,-296.72 258.7,-297.79 257.06,-290.98"/>
</g>
<!-- Node7 -->
<g id="node7" class="node">
<title>Node7</title>
<g id="a_node7"><a xlink:href="ConditionsProvider_8h_source.html" target="_top" xlink:title=" ">
<polygon fill="none" stroke="black" points="164,-235.5 164,-254.5 338,-254.5 338,-235.5 164,-235.5"/>
<text text-anchor="middle" x="251" y="-242.5" font-family="Helvetica,sans-Serif" font-size="10.00">include/fire/ConditionsProvider.h</text>
</a>
</g>
</g>
<!-- Node1&#45;&gt;Node7 -->
<g id="edge7" class="edge">
<title>Node1&#45;&gt;Node7</title>
<path fill="none" stroke="midnightblue" d="M213.96,-284C223.84,-273.86 235.08,-262.33 242.56,-254.66"/>
<polygon fill="midnightblue" stroke="midnightblue" points="211.22,-281.8 206.75,-291.4 216.23,-286.68 211.22,-281.8"/>
</g>
<!-- Node2&#45;&gt;Node3 -->
<g id="edge2" class="edge">
<title>Node2&#45;&gt;Node3</title>
<path fill="none" stroke="midnightblue" d="M124.71,-165.34C108.27,-140.36 78.33,-94.86 65.78,-75.78"/>
<polygon fill="midnightblue" stroke="midnightblue" points="121.87,-167.39 130.29,-173.82 127.71,-163.54 121.87,-167.39"/>
</g>
<!-- Node2&#45;&gt;Node5 -->
<g id="edge4" class="edge">
<title>Node2&#45;&gt;Node5</title>
<path fill="none" stroke="midnightblue" d="M156.27,-167.79C172,-156.38 193.25,-140.96 206.27,-131.51"/>
<polygon fill="midnightblue" stroke="midnightblue" points="153.79,-165.27 147.75,-173.98 157.9,-170.93 153.79,-165.27"/>
</g>
<!-- Node4 -->
<g id="node4" class="node">
<title>Node4</title>
<g id="a_node4"><a xlink:href="fire_8cxx.html" target="_top" xlink:title="main definition for fire executable">
<polygon fill="none" stroke="black" points="23,-0.5 23,-19.5 97,-19.5 97,-0.5 23,-0.5"/>
<text text-anchor="middle" x="60" y="-7.5" font-family="Helvetica,sans-Serif" font-size="10.00">app/fire.cxx</text>
</a>
</g>
</g>
<!-- Node3&#45;&gt;Node4 -->
<g id="edge3" class="edge">
<title>Node3&#45;&gt;Node4</title>
<path fill="none" stroke="midnightblue" d="M60,-45.8C60,-36.91 60,-26.78 60,-19.75"/>
<polygon fill="midnightblue" stroke="midnightblue" points="56.5,-46.08 60,-56.08 63.5,-46.08 56.5,-46.08"/>
</g>
<!-- Node5&#45;&gt;Node3 -->
<g id="edge6" class="edge">
<title>Node5&#45;&gt;Node3</title>
<path fill="none" stroke="midnightblue" d="M183.39,-109.17C153.64,-99 111.45,-84.59 84.92,-75.52"/>
<polygon fill="midnightblue" stroke="midnightblue" points="182.37,-112.52 192.96,-112.44 184.63,-105.9 182.37,-112.52"/>
</g>
<!-- Node6 -->
<g id="node6" class="node">
<title>Node6</title>
<g id="a_node6"><a xlink:href="EventProcessor_8h.html" target="_top" xlink:title="Re&#45;interpretation of ROOT&#45;based framework code into fire.">
<polygon fill="none" stroke="black" points="138,-56.5 138,-75.5 334,-75.5 334,-56.5 138,-56.5"/>
<text text-anchor="middle" x="236" y="-63.5" font-family="Helvetica,sans-Serif" font-size="10.00">include/Framework/EventProcessor.h</text>
</a>
</g>
</g>
<!-- Node5&#45;&gt;Node6 -->
<g id="edge5" class="edge">
<title>Node5&#45;&gt;Node6</title>
<path fill="none" stroke="midnightblue" d="M224.2,-102.4C227.21,-93.36 230.69,-82.94 233.08,-75.75"/>
<polygon fill="midnightblue" stroke="midnightblue" points="220.81,-101.49 220.97,-112.08 227.46,-103.7 220.81,-101.49"/>
</g>
<!-- Node7&#45;&gt;Node2 -->
<g id="edge8" class="edge">
<title>Node7&#45;&gt;Node2</title>
<path fill="none" stroke="midnightblue" d="M225.62,-230.87C203.33,-219.33 171.56,-202.9 152.45,-193.01"/>
<polygon fill="midnightblue" stroke="midnightblue" points="224.03,-233.99 234.52,-235.48 227.25,-227.77 224.03,-233.99"/>
</g>
<!-- Node8 -->
<g id="node8" class="node">
<title>Node8</title>
<g id="a_node8"><a xlink:href="RandomNumberSeedService_8h.html" target="_top" xlink:title="Conditions object for random number seeds.">
<polygon fill="none" stroke="black" points="221.5,-168.5 221.5,-198.5 374.5,-198.5 374.5,-168.5 221.5,-168.5"/>
<text text-anchor="start" x="229.5" y="-186.5" font-family="Helvetica,sans-Serif" font-size="10.00">include/fire/RandomNumber</text>
<text text-anchor="middle" x="298" y="-175.5" font-family="Helvetica,sans-Serif" font-size="10.00">SeedService.h</text>
</a>
</g>
</g>
<!-- Node7&#45;&gt;Node8 -->
<g id="edge9" class="edge">
<title>Node7&#45;&gt;Node8</title>
<path fill="none" stroke="midnightblue" d="M264.01,-227.53C271.21,-218.42 280.06,-207.21 286.92,-198.52"/>
<polygon fill="midnightblue" stroke="midnightblue" points="261.19,-225.46 257.73,-235.48 266.68,-229.8 261.19,-225.46"/>
</g>
</g>
</svg>
