<?xml version="1.0" encoding="UTF-8" standalone="no"?>
<!DOCTYPE svg PUBLIC "-//W3C//DTD SVG 1.1//EN"
 "http://www.w3.org/Graphics/SVG/1.1/DTD/svg11.dtd">
<!-- Generated by graphviz version 2.43.0 (0)
 -->
<!-- Title: include/fire/io/Open.h Pages: 1 -->
<svg width="848pt" height="252pt"
 viewBox="0.00 0.00 847.50 252.00" xmlns="http://www.w3.org/2000/svg" xmlns:xlink="http://www.w3.org/1999/xlink">
<g id="graph0" class="graph" transform="scale(1 1) rotate(0) translate(4 248)">
<title>include/fire/io/Open.h</title>
<!-- Node1 -->
<g id="node1" class="node">
<title>Node1</title>
<g id="a_node1"><a xlink:title="Helper function for opening files of various type.">
<polygon fill="#bfbfbf" stroke="black" points="199,-224.5 199,-243.5 319,-243.5 319,-224.5 199,-224.5"/>
<text text-anchor="middle" x="259" y="-231.5" font-family="Helvetica,sans-Serif" font-size="10.00">include/fire/io/Open.h</text>
</a>
</g>
</g>
<!-- Node2 -->
<g id="node2" class="node">
<title>Node2</title>
<g id="a_node2"><a xlink:href="Reader_8h_source.html" target="_top" xlink:title=" ">
<polygon fill="none" stroke="black" points="214,-168.5 214,-187.5 304,-187.5 304,-168.5 214,-168.5"/>
<text text-anchor="middle" x="259" y="-175.5" font-family="Helvetica,sans-Serif" font-size="10.00">fire/io/Reader.h</text>
</a>
</g>
</g>
<!-- Node1&#45;&gt;Node2 -->
<g id="edge1" class="edge">
<title>Node1&#45;&gt;Node2</title>
<path fill="none" stroke="midnightblue" d="M259,-224.08C259,-217.01 259,-206.86 259,-197.99"/>
<polygon fill="midnightblue" stroke="midnightblue" points="262.5,-197.75 259,-187.75 255.5,-197.75 262.5,-197.75"/>
</g>
<!-- Node3 -->
<g id="node3" class="node">
<title>Node3</title>
<g id="a_node3"><a xlink:title=" ">
<polygon fill="none" stroke="#bfbfbf" points="107,-112.5 107,-131.5 167,-131.5 167,-112.5 107,-112.5"/>
<text text-anchor="middle" x="137" y="-119.5" font-family="Helvetica,sans-Serif" font-size="10.00">iostream</text>
</a>
</g>
</g>
<!-- Node2&#45;&gt;Node3 -->
<g id="edge2" class="edge">
<title>Node2&#45;&gt;Node3</title>
<path fill="none" stroke="midnightblue" d="M239.67,-168.44C219.68,-159.6 188.26,-145.69 165.44,-135.59"/>
<polygon fill="midnightblue" stroke="midnightblue" points="166.8,-132.36 156.24,-131.52 163.97,-138.76 166.8,-132.36"/>
</g>
<!-- Node4 -->
<g id="node4" class="node">
<title>Node4</title>
<g id="a_node4"><a xlink:title=" ">
<polygon fill="none" stroke="#bfbfbf" points="185.5,-112.5 185.5,-131.5 232.5,-131.5 232.5,-112.5 185.5,-112.5"/>
<text text-anchor="middle" x="209" y="-119.5" font-family="Helvetica,sans-Serif" font-size="10.00">vector</text>
</a>
</g>
</g>
<!-- Node2&#45;&gt;Node4 -->
<g id="edge3" class="edge">
<title>Node2&#45;&gt;Node4</title>
<path fill="none" stroke="midnightblue" d="M250.74,-168.08C243.54,-160.3 232.89,-148.8 224.15,-139.37"/>
<polygon fill="midnightblue" stroke="midnightblue" points="226.47,-136.71 217.1,-131.75 221.33,-141.47 226.47,-136.71"/>
</g>
<!-- Node5 -->
<g id="node5" class="node">
<title>Node5</title>
<g id="a_node5"><a xlink:href="Factory_8h_source.html" target="_top" xlink:title=" ">
<polygon fill="none" stroke="black" points="251,-112.5 251,-131.5 367,-131.5 367,-112.5 251,-112.5"/>
<text text-anchor="middle" x="309" y="-119.5" font-family="Helvetica,sans-Serif" font-size="10.00">fire/factory/Factory.h</text>
</a>
</g>
</g>
<!-- Node2&#45;&gt;Node5 -->
<g id="edge4" class="edge">
<title>Node2&#45;&gt;Node5</title>
<path fill="none" stroke="midnightblue" d="M267.26,-168.08C274.46,-160.3 285.11,-148.8 293.85,-139.37"/>
<polygon fill="midnightblue" stroke="midnightblue" points="296.67,-141.47 300.9,-131.75 291.53,-136.71 296.67,-141.47"/>
</g>
<!-- Node12 -->
<g id="node12" class="node">
<title>Node12</title>
<g id="a_node12"><a xlink:href="AbstractData_8h_source.html" target="_top" xlink:title=" ">
<polygon fill="none" stroke="black" points="495,-112.5 495,-131.5 615,-131.5 615,-112.5 495,-112.5"/>
<text text-anchor="middle" x="555" y="-119.5" font-family="Helvetica,sans-Serif" font-size="10.00">fire/io/AbstractData.h</text>
</a>
</g>
</g>
<!-- Node2&#45;&gt;Node12 -->
<g id="edge12" class="edge">
<title>Node2&#45;&gt;Node12</title>
<path fill="none" stroke="midnightblue" d="M304.28,-168.74C356.38,-159.24 441.98,-143.62 498.42,-133.32"/>
<polygon fill="midnightblue" stroke="midnightblue" points="499.05,-136.76 508.26,-131.53 497.79,-129.88 499.05,-136.76"/>
</g>
<!-- Node6 -->
<g id="node6" class="node">
<title>Node6</title>
<g id="a_node6"><a xlink:title=" ">
<polygon fill="none" stroke="#bfbfbf" points="0,-56.5 0,-75.5 58,-75.5 58,-56.5 0,-56.5"/>
<text text-anchor="middle" x="29" y="-63.5" font-family="Helvetica,sans-Serif" font-size="10.00">memory</text>
</a>
</g>
</g>
<!-- Node5&#45;&gt;Node6 -->
<g id="edge5" class="edge">
<title>Node5&#45;&gt;Node6</title>
<path fill="none" stroke="midnightblue" d="M259.27,-112.48C212.45,-104.3 140.13,-91.24 68.16,-76.17"/>
<polygon fill="midnightblue" stroke="midnightblue" points="68.52,-72.66 58.01,-74.03 67.08,-79.51 68.52,-72.66"/>
</g>
<!-- Node7 -->
<g id="node7" class="node">
<title>Node7</title>
<g id="a_node7"><a xlink:title=" ">
<polygon fill="none" stroke="#bfbfbf" points="337,-0.5 337,-19.5 381,-19.5 381,-0.5 337,-0.5"/>
<text text-anchor="middle" x="359" y="-7.5" font-family="Helvetica,sans-Serif" font-size="10.00">string</text>
</a>
</g>
</g>
<!-- Node5&#45;&gt;Node7 -->
<g id="edge6" class="edge">
<title>Node5&#45;&gt;Node7</title>
<path fill="none" stroke="midnightblue" d="M315.77,-112.49C322.45,-103.76 332.56,-89.57 339,-76 346.12,-61 351.45,-42.87 354.81,-29.57"/>
<polygon fill="midnightblue" stroke="midnightblue" points="358.25,-30.25 357.17,-19.71 351.44,-28.62 358.25,-30.25"/>
</g>
<!-- Node8 -->
<g id="node8" class="node">
<title>Node8</title>
<g id="a_node8"><a xlink:title=" ">
<polygon fill="none" stroke="#bfbfbf" points="76.5,-56.5 76.5,-75.5 169.5,-75.5 169.5,-56.5 76.5,-56.5"/>
<text text-anchor="middle" x="123" y="-63.5" font-family="Helvetica,sans-Serif" font-size="10.00">unordered_map</text>
</a>
</g>
</g>
<!-- Node5&#45;&gt;Node8 -->
<g id="edge7" class="edge">
<title>Node5&#45;&gt;Node8</title>
<path fill="none" stroke="midnightblue" d="M279.53,-112.44C247.83,-103.24 197.27,-88.56 162.23,-78.39"/>
<polygon fill="midnightblue" stroke="midnightblue" points="162.91,-74.94 152.33,-75.52 160.96,-81.67 162.91,-74.94"/>
</g>
<!-- Node9 -->
<g id="node9" class="node">
<title>Node9</title>
<g id="a_node9"><a xlink:title=" ">
<polygon fill="none" stroke="#bfbfbf" points="387,-56.5 387,-75.5 527,-75.5 527,-56.5 387,-56.5"/>
<text text-anchor="middle" x="457" y="-63.5" font-family="Helvetica,sans-Serif" font-size="10.00">boost/core/demangle.hpp</text>
</a>
</g>
</g>
<!-- Node5&#45;&gt;Node9 -->
<g id="edge8" class="edge">
<title>Node5&#45;&gt;Node9</title>
<path fill="none" stroke="midnightblue" d="M332.45,-112.44C357.13,-103.44 396.19,-89.19 423.98,-79.05"/>
<polygon fill="midnightblue" stroke="midnightblue" points="425.46,-82.23 433.66,-75.52 423.06,-75.66 425.46,-82.23"/>
</g>
<!-- Node10 -->
<g id="node10" class="node">
<title>Node10</title>
<g id="a_node10"><a xlink:href="fire_2exception_2Exception_8h_source.html" target="_top" xlink:title=" ">
<polygon fill="none" stroke="black" points="187.5,-56.5 187.5,-75.5 330.5,-75.5 330.5,-56.5 187.5,-56.5"/>
<text text-anchor="middle" x="259" y="-63.5" font-family="Helvetica,sans-Serif" font-size="10.00">fire/exception/Exception.h</text>
</a>
</g>
</g>
<!-- Node5&#45;&gt;Node10 -->
<g id="edge9" class="edge">
<title>Node5&#45;&gt;Node10</title>
<path fill="none" stroke="midnightblue" d="M300.74,-112.08C293.54,-104.3 282.89,-92.8 274.15,-83.37"/>
<polygon fill="midnightblue" stroke="midnightblue" points="276.47,-80.71 267.1,-75.75 271.33,-85.47 276.47,-80.71"/>
</g>
<!-- Node10&#45;&gt;Node7 -->
<g id="edge11" class="edge">
<title>Node10&#45;&gt;Node7</title>
<path fill="none" stroke="midnightblue" d="M275.07,-56.32C290.96,-47.74 315.51,-34.49 333.96,-24.52"/>
<polygon fill="midnightblue" stroke="midnightblue" points="335.84,-27.49 342.97,-19.65 332.51,-21.33 335.84,-27.49"/>
</g>
<!-- Node11 -->
<g id="node11" class="node">
<title>Node11</title>
<g id="a_node11"><a xlink:title=" ">
<polygon fill="none" stroke="#bfbfbf" points="226.5,-0.5 226.5,-19.5 291.5,-19.5 291.5,-0.5 226.5,-0.5"/>
<text text-anchor="middle" x="259" y="-7.5" font-family="Helvetica,sans-Serif" font-size="10.00">exception</text>
</a>
</g>
</g>
<!-- Node10&#45;&gt;Node11 -->
<g id="edge10" class="edge">
<title>Node10&#45;&gt;Node11</title>
<path fill="none" stroke="midnightblue" d="M259,-56.08C259,-49.01 259,-38.86 259,-29.99"/>
<polygon fill="midnightblue" stroke="midnightblue" points="262.5,-29.75 259,-19.75 255.5,-29.75 262.5,-29.75"/>
</g>
<!-- Node12&#45;&gt;Node7 -->
<g id="edge13" class="edge">
<title>Node12&#45;&gt;Node7</title>
<path fill="none" stroke="midnightblue" d="M555.04,-112.48C554.63,-98.62 551.73,-71.19 536,-56 496.82,-18.18 430.54,-10.85 391.16,-10.13"/>
<polygon fill="midnightblue" stroke="midnightblue" points="391.07,-6.63 381.05,-10.07 391.03,-13.62 391.07,-6.63"/>
</g>
<!-- Node12&#45;&gt;Node9 -->
<g id="edge14" class="edge">
<title>Node12&#45;&gt;Node9</title>
<path fill="none" stroke="midnightblue" d="M539.25,-112.32C523.68,-103.74 499.62,-90.49 481.54,-80.52"/>
<polygon fill="midnightblue" stroke="midnightblue" points="483.15,-77.42 472.71,-75.65 479.78,-83.55 483.15,-77.42"/>
</g>
<!-- Node13 -->
<g id="node13" class="node">
<title>Node13</title>
<g id="a_node13"><a xlink:title=" ">
<polygon fill="none" stroke="#bfbfbf" points="720.5,-56.5 720.5,-75.5 839.5,-75.5 839.5,-56.5 720.5,-56.5"/>
<text text-anchor="middle" x="780" y="-63.5" font-family="Helvetica,sans-Serif" font-size="10.00">fire/version/Version.h</text>
</a>
</g>
</g>
<!-- Node12&#45;&gt;Node13 -->
<g id="edge15" class="edge">
<title>Node12&#45;&gt;Node13</title>
<path fill="none" stroke="midnightblue" d="M590.65,-112.44C629.66,-103.08 692.27,-88.06 734.72,-77.87"/>
<polygon fill="midnightblue" stroke="midnightblue" points="735.61,-81.25 744.51,-75.52 733.97,-74.45 735.61,-81.25"/>
</g>
<!-- Node14 -->
<g id="node14" class="node">
<title>Node14</title>
<g id="a_node14"><a xlink:href="ClassVersion_8h.html" target="_top" xlink:title="Serialization class version deduction.">
<polygon fill="none" stroke="black" points="583.5,-56.5 583.5,-75.5 702.5,-75.5 702.5,-56.5 583.5,-56.5"/>
<text text-anchor="middle" x="643" y="-63.5" font-family="Helvetica,sans-Serif" font-size="10.00">fire/io/ClassVersion.h</text>
</a>
</g>
</g>
<!-- Node12&#45;&gt;Node14 -->
<g id="edge16" class="edge">
<title>Node12&#45;&gt;Node14</title>
<path fill="none" stroke="midnightblue" d="M569.14,-112.32C582.87,-103.9 603.94,-90.97 620.06,-81.07"/>
<polygon fill="midnightblue" stroke="midnightblue" points="622.2,-83.87 628.9,-75.65 618.54,-77.9 622.2,-83.87"/>
</g>
</g>
</svg>
