<?xml version="1.0" encoding="UTF-8" standalone="no"?>
<!DOCTYPE svg PUBLIC "-//W3C//DTD SVG 1.1//EN"
 "http://www.w3.org/Graphics/SVG/1.1/DTD/svg11.dtd">
<!-- Generated by graphviz version 2.43.0 (0)
 -->
<!-- Title: include/fire/RandomNumberSeedService.h Pages: 1 -->
<svg width="2056pt" height="565pt"
 viewBox="0.00 0.00 2056.00 565.00" xmlns="http://www.w3.org/2000/svg" xmlns:xlink="http://www.w3.org/1999/xlink">
<g id="graph0" class="graph" transform="scale(1 1) rotate(0) translate(4 561)">
<title>include/fire/RandomNumberSeedService.h</title>
<!-- Node1 -->
<g id="node1" class="node">
<title>Node1</title>
<g id="a_node1"><a xlink:title="Conditions object for random number seeds.">
<polygon fill="#bfbfbf" stroke="black" points="71.5,-526.5 71.5,-556.5 224.5,-556.5 224.5,-526.5 71.5,-526.5"/>
<text text-anchor="start" x="79.5" y="-544.5" font-family="Helvetica,sans-Serif" font-size="10.00">include/fire/RandomNumber</text>
<text text-anchor="middle" x="148" y="-533.5" font-family="Helvetica,sans-Serif" font-size="10.00">SeedService.h</text>
</a>
</g>
</g>
<!-- Node2 -->
<g id="node2" class="node">
<title>Node2</title>
<g id="a_node2"><a xlink:href="ConditionsObject_8h_source.html" target="_top" xlink:title=" ">
<polygon fill="none" stroke="black" points="0,-409 0,-428 128,-428 128,-409 0,-409"/>
<text text-anchor="middle" x="64" y="-416" font-family="Helvetica,sans-Serif" font-size="10.00">fire/ConditionsObject.h</text>
</a>
</g>
</g>
<!-- Node1&#45;&gt;Node2 -->
<g id="edge1" class="edge">
<title>Node1&#45;&gt;Node2</title>
<path fill="none" stroke="midnightblue" d="M138.03,-526.14C122.46,-503.71 92.41,-460.42 75.78,-436.47"/>
<polygon fill="midnightblue" stroke="midnightblue" points="78.51,-434.27 69.94,-428.05 72.76,-438.26 78.51,-434.27"/>
</g>
<!-- Node4 -->
<g id="node4" class="node">
<title>Node4</title>
<g id="a_node4"><a xlink:href="ConditionsProvider_8h_source.html" target="_top" xlink:title=" ">
<polygon fill="none" stroke="black" points="164,-470.5 164,-489.5 300,-489.5 300,-470.5 164,-470.5"/>
<text text-anchor="middle" x="232" y="-477.5" font-family="Helvetica,sans-Serif" font-size="10.00">fire/ConditionsProvider.h</text>
</a>
</g>
</g>
<!-- Node1&#45;&gt;Node4 -->
<g id="edge3" class="edge">
<title>Node1&#45;&gt;Node4</title>
<path fill="none" stroke="midnightblue" d="M167.91,-526.4C180.99,-517.13 198.08,-505.03 211.32,-495.65"/>
<polygon fill="midnightblue" stroke="midnightblue" points="213.64,-498.29 219.78,-489.66 209.59,-492.58 213.64,-498.29"/>
</g>
<!-- Node3 -->
<g id="node3" class="node">
<title>Node3</title>
<g id="a_node3"><a xlink:title=" ">
<polygon fill="none" stroke="#bfbfbf" points="1014,-0.5 1014,-19.5 1058,-19.5 1058,-0.5 1014,-0.5"/>
<text text-anchor="middle" x="1036" y="-7.5" font-family="Helvetica,sans-Serif" font-size="10.00">string</text>
</a>
</g>
</g>
<!-- Node2&#45;&gt;Node3 -->
<g id="edge2" class="edge">
<title>Node2&#45;&gt;Node3</title>
<path fill="none" stroke="midnightblue" d="M68.97,-408.83C97.34,-360.37 244.61,-122.82 442,-56 547.36,-20.33 895.06,-12.83 1003.45,-11.35"/>
<polygon fill="midnightblue" stroke="midnightblue" points="1003.79,-14.84 1013.75,-11.21 1003.7,-7.84 1003.79,-14.84"/>
</g>
<!-- Node4&#45;&gt;Node2 -->
<g id="edge48" class="edge">
<title>Node4&#45;&gt;Node2</title>
<path fill="none" stroke="midnightblue" d="M207.93,-470.48C178.99,-460.22 130.24,-442.96 97.6,-431.4"/>
<polygon fill="midnightblue" stroke="midnightblue" points="98.62,-428.05 88.03,-428.01 96.28,-434.65 98.62,-428.05"/>
</g>
<!-- Node5 -->
<g id="node5" class="node">
<title>Node5</title>
<g id="a_node5"><a xlink:title=" ">
<polygon fill="none" stroke="#bfbfbf" points="1021,-56.5 1021,-75.5 1059,-75.5 1059,-56.5 1021,-56.5"/>
<text text-anchor="middle" x="1040" y="-63.5" font-family="Helvetica,sans-Serif" font-size="10.00">map</text>
</a>
</g>
</g>
<!-- Node4&#45;&gt;Node5 -->
<g id="edge4" class="edge">
<title>Node4&#45;&gt;Node5</title>
<path fill="none" stroke="midnightblue" d="M234.44,-470.32C242.42,-442.44 268.42,-355.86 289,-336 317.04,-308.93 876.59,-121.43 1011.1,-76.61"/>
<polygon fill="midnightblue" stroke="midnightblue" points="1012.35,-79.88 1020.74,-73.4 1010.14,-73.24 1012.35,-79.88"/>
</g>
<!-- Node6 -->
<g id="node6" class="node">
<title>Node6</title>
<g id="a_node6"><a xlink:href="ConditionsIntervalOfValidity_8h_source.html" target="_top" xlink:title=" ">
<polygon fill="none" stroke="black" points="1898,-403.5 1898,-433.5 2034,-433.5 2034,-403.5 1898,-403.5"/>
<text text-anchor="start" x="1906" y="-421.5" font-family="Helvetica,sans-Serif" font-size="10.00">fire/ConditionsIntervalOf</text>
<text text-anchor="middle" x="1966" y="-410.5" font-family="Helvetica,sans-Serif" font-size="10.00">Validity.h</text>
</a>
</g>
</g>
<!-- Node4&#45;&gt;Node6 -->
<g id="edge5" class="edge">
<title>Node4&#45;&gt;Node6</title>
<path fill="none" stroke="midnightblue" d="M300.24,-476.66C574.48,-467.25 1595.48,-432.21 1887.51,-422.19"/>
<polygon fill="midnightblue" stroke="midnightblue" points="1887.72,-425.69 1897.59,-421.85 1887.48,-418.69 1887.72,-425.69"/>
</g>
<!-- Node22 -->
<g id="node22" class="node">
<title>Node22</title>
<g id="a_node22"><a xlink:href="Parameters_8h_source.html" target="_top" xlink:title=" ">
<polygon fill="none" stroke="black" points="577,-112.5 577,-131.5 709,-131.5 709,-112.5 577,-112.5"/>
<text text-anchor="middle" x="643" y="-119.5" font-family="Helvetica,sans-Serif" font-size="10.00">fire/config/Parameters.h</text>
</a>
</g>
</g>
<!-- Node4&#45;&gt;Node22 -->
<g id="edge56" class="edge">
<title>Node4&#45;&gt;Node22</title>
<path fill="none" stroke="midnightblue" d="M231.02,-470.31C228.8,-446.42 225.71,-378.71 256,-336 279.63,-302.68 532,-177.28 615.99,-136.15"/>
<polygon fill="midnightblue" stroke="midnightblue" points="617.7,-139.21 625.15,-131.68 614.63,-132.92 617.7,-139.21"/>
</g>
<!-- Node26 -->
<g id="node26" class="node">
<title>Node26</title>
<g id="a_node26"><a xlink:href="Exception_8h_source.html" target="_top" xlink:title=" ">
<polygon fill="none" stroke="black" points="97.5,-56.5 97.5,-75.5 240.5,-75.5 240.5,-56.5 97.5,-56.5"/>
<text text-anchor="middle" x="169" y="-63.5" font-family="Helvetica,sans-Serif" font-size="10.00">fire/exception/Exception.h</text>
</a>
</g>
</g>
<!-- Node4&#45;&gt;Node26 -->
<g id="edge57" class="edge">
<title>Node4&#45;&gt;Node26</title>
<path fill="none" stroke="midnightblue" d="M225.77,-470.18C204.63,-439.39 137,-333.19 137,-235 137,-235 137,-235 137,-177 137,-143.33 150.99,-106.08 160.47,-84.72"/>
<polygon fill="midnightblue" stroke="midnightblue" points="163.67,-86.14 164.68,-75.59 157.32,-83.21 163.67,-86.14"/>
</g>
<!-- Node29 -->
<g id="node29" class="node">
<title>Node29</title>
<g id="a_node29"><a xlink:href="RunHeader_8h_source.html" target="_top" xlink:title=" ">
<polygon fill="none" stroke="black" points="1796,-342 1796,-361 1894,-361 1894,-342 1796,-342"/>
<text text-anchor="middle" x="1845" y="-349" font-family="Helvetica,sans-Serif" font-size="10.00">fire/RunHeader.h</text>
</a>
</g>
</g>
<!-- Node4&#45;&gt;Node29 -->
<g id="edge49" class="edge">
<title>Node4&#45;&gt;Node29</title>
<path fill="none" stroke="midnightblue" d="M300,-478.77C517.94,-477.03 1217.98,-463.76 1787,-367 1792.77,-366.02 1798.81,-364.77 1804.72,-363.41"/>
<polygon fill="midnightblue" stroke="midnightblue" points="1805.58,-366.8 1814.48,-361.06 1803.94,-360 1805.58,-366.8"/>
</g>
<!-- Node31 -->
<g id="node31" class="node">
<title>Node31</title>
<g id="a_node31"><a xlink:href="Factory_8h_source.html" target="_top" xlink:title=" ">
<polygon fill="none" stroke="black" points="268,-224.5 268,-243.5 384,-243.5 384,-224.5 268,-224.5"/>
<text text-anchor="middle" x="326" y="-231.5" font-family="Helvetica,sans-Serif" font-size="10.00">fire/factory/Factory.h</text>
</a>
</g>
</g>
<!-- Node4&#45;&gt;Node31 -->
<g id="edge58" class="edge">
<title>Node4&#45;&gt;Node31</title>
<path fill="none" stroke="midnightblue" d="M228.4,-470.49C219.28,-447.63 197.44,-383.37 218,-336 235,-296.82 275.53,-265.9 301.81,-249.06"/>
<polygon fill="midnightblue" stroke="midnightblue" points="303.8,-251.95 310.45,-243.7 300.11,-246 303.8,-251.95"/>
</g>
<!-- Node33 -->
<g id="node33" class="node">
<title>Node33</title>
<g id="a_node33"><a xlink:href="Logger_8h.html" target="_top" xlink:title="Interface to Boost.Logging.">
<polygon fill="none" stroke="black" points="935,-409 935,-428 1051,-428 1051,-409 935,-409"/>
<text text-anchor="middle" x="993" y="-416" font-family="Helvetica,sans-Serif" font-size="10.00">fire/logging/Logger.h</text>
</a>
</g>
</g>
<!-- Node4&#45;&gt;Node33 -->
<g id="edge63" class="edge">
<title>Node4&#45;&gt;Node33</title>
<path fill="none" stroke="midnightblue" d="M300.2,-473.67C444.67,-462.37 780.09,-436.15 924.67,-424.84"/>
<polygon fill="midnightblue" stroke="midnightblue" points="925.05,-428.32 934.75,-424.05 924.5,-421.34 925.05,-428.32"/>
</g>
<!-- Node7 -->
<g id="node7" class="node">
<title>Node7</title>
<g id="a_node7"><a xlink:title=" ">
<polygon fill="none" stroke="#bfbfbf" points="1863,-56.5 1863,-75.5 1923,-75.5 1923,-56.5 1863,-56.5"/>
<text text-anchor="middle" x="1893" y="-63.5" font-family="Helvetica,sans-Serif" font-size="10.00">iostream</text>
</a>
</g>
</g>
<!-- Node6&#45;&gt;Node7 -->
<g id="edge6" class="edge">
<title>Node6&#45;&gt;Node7</title>
<path fill="none" stroke="midnightblue" d="M1990.55,-403.37C2003.81,-394.53 2019.39,-381.99 2029,-367 2047.79,-337.69 2048,-325.82 2048,-291 2048,-291 2048,-291 2048,-233 2048,-158.98 1964.65,-104.25 1920.19,-80.33"/>
<polygon fill="midnightblue" stroke="midnightblue" points="1921.57,-77.1 1911.08,-75.56 1918.32,-83.3 1921.57,-77.1"/>
</g>
<!-- Node8 -->
<g id="node8" class="node">
<title>Node8</title>
<g id="a_node8"><a xlink:href="EventHeader_8h_source.html" target="_top" xlink:title=" ">
<polygon fill="none" stroke="black" points="1912.5,-342 1912.5,-361 2019.5,-361 2019.5,-342 1912.5,-342"/>
<text text-anchor="middle" x="1966" y="-349" font-family="Helvetica,sans-Serif" font-size="10.00">fire/EventHeader.h</text>
</a>
</g>
</g>
<!-- Node6&#45;&gt;Node8 -->
<g id="edge7" class="edge">
<title>Node6&#45;&gt;Node8</title>
<path fill="none" stroke="midnightblue" d="M1966,-403.4C1966,-394.06 1966,-381.71 1966,-371.52"/>
<polygon fill="midnightblue" stroke="midnightblue" points="1969.5,-371.19 1966,-361.19 1962.5,-371.19 1969.5,-371.19"/>
</g>
<!-- Node8&#45;&gt;Node3 -->
<g id="edge11" class="edge">
<title>Node8&#45;&gt;Node3</title>
<path fill="none" stroke="midnightblue" d="M1968.61,-341.76C1980.22,-300.94 2022.67,-128.03 1932,-56 1897.54,-28.62 1225.18,-14.5 1068.46,-11.58"/>
<polygon fill="midnightblue" stroke="midnightblue" points="1068.14,-8.07 1058.08,-11.39 1068.01,-15.07 1068.14,-8.07"/>
</g>
<!-- Node8&#45;&gt;Node5 -->
<g id="edge10" class="edge">
<title>Node8&#45;&gt;Node5</title>
<path fill="none" stroke="midnightblue" d="M1949.51,-341.94C1930.2,-331.92 1897.26,-314.79 1869,-300 1803.49,-265.71 1790.01,-250.55 1721,-224 1542.7,-155.41 1492.96,-151.3 1306,-112 1201.74,-90.09 1172.84,-99.86 1069,-76 1068.9,-75.98 1068.8,-75.95 1068.7,-75.93"/>
<polygon fill="midnightblue" stroke="midnightblue" points="1069.8,-72.6 1059.23,-73.41 1068,-79.37 1069.8,-72.6"/>
</g>
<!-- Node8&#45;&gt;Node7 -->
<g id="edge9" class="edge">
<title>Node8&#45;&gt;Node7</title>
<path fill="none" stroke="midnightblue" d="M1963.97,-341.86C1959.67,-322.73 1950,-275.28 1950,-235 1950,-235 1950,-235 1950,-177 1950,-140.3 1924.68,-103.66 1907.79,-83.3"/>
<polygon fill="midnightblue" stroke="midnightblue" points="1910.35,-80.9 1901.17,-75.62 1905.05,-85.48 1910.35,-80.9"/>
</g>
<!-- Node9 -->
<g id="node9" class="node">
<title>Node9</title>
<g id="a_node9"><a xlink:title=" ">
<polygon fill="none" stroke="#bfbfbf" points="1878,-280.5 1878,-299.5 1922,-299.5 1922,-280.5 1878,-280.5"/>
<text text-anchor="middle" x="1900" y="-287.5" font-family="Helvetica,sans-Serif" font-size="10.00">ctime</text>
</a>
</g>
</g>
<!-- Node8&#45;&gt;Node9 -->
<g id="edge8" class="edge">
<title>Node8&#45;&gt;Node9</title>
<path fill="none" stroke="midnightblue" d="M1956.54,-341.98C1946.25,-332.7 1929.58,-317.67 1917.01,-306.33"/>
<polygon fill="midnightblue" stroke="midnightblue" points="1919.21,-303.61 1909.44,-299.51 1914.52,-308.8 1919.21,-303.61"/>
</g>
<!-- Node10 -->
<g id="node10" class="node">
<title>Node10</title>
<g id="a_node10"><a xlink:title=" ">
<polygon fill="none" stroke="#bfbfbf" points="1660.5,-224.5 1660.5,-243.5 1711.5,-243.5 1711.5,-224.5 1660.5,-224.5"/>
<text text-anchor="middle" x="1686" y="-231.5" font-family="Helvetica,sans-Serif" font-size="10.00">variant</text>
</a>
</g>
</g>
<!-- Node8&#45;&gt;Node10 -->
<g id="edge12" class="edge">
<title>Node8&#45;&gt;Node10</title>
<path fill="none" stroke="midnightblue" d="M1930.08,-341.93C1921.24,-339.91 1911.79,-337.81 1903,-336 1815.39,-317.96 1771.46,-359.86 1705,-300 1692.05,-288.34 1687.73,-268.39 1686.38,-253.66"/>
<polygon fill="midnightblue" stroke="midnightblue" points="1689.87,-253.44 1685.84,-243.64 1682.89,-253.81 1689.87,-253.44"/>
</g>
<!-- Node11 -->
<g id="node11" class="node">
<title>Node11</title>
<g id="a_node11"><a xlink:href="ParameterStorage_8h_source.html" target="_top" xlink:title=" ">
<polygon fill="none" stroke="black" points="1268.5,-280.5 1268.5,-299.5 1415.5,-299.5 1415.5,-280.5 1268.5,-280.5"/>
<text text-anchor="middle" x="1342" y="-287.5" font-family="Helvetica,sans-Serif" font-size="10.00">fire/h5/ParameterStorage.h</text>
</a>
</g>
</g>
<!-- Node8&#45;&gt;Node11 -->
<g id="edge13" class="edge">
<title>Node8&#45;&gt;Node11</title>
<path fill="none" stroke="midnightblue" d="M1933.15,-341.98C1923.49,-339.74 1912.87,-337.52 1903,-336 1734.91,-310.06 1536.04,-298.59 1425.96,-293.91"/>
<polygon fill="midnightblue" stroke="midnightblue" points="1426.05,-290.41 1415.91,-293.49 1425.76,-297.4 1426.05,-290.41"/>
</g>
<!-- Node28 -->
<g id="node28" class="node">
<title>Node28</title>
<g id="a_node28"><a xlink:href="Constants_8h.html" target="_top" xlink:title="Definitions for names of structures required by serialization methods.">
<polygon fill="none" stroke="black" points="1714,-280.5 1714,-299.5 1822,-299.5 1822,-280.5 1714,-280.5"/>
<text text-anchor="middle" x="1768" y="-287.5" font-family="Helvetica,sans-Serif" font-size="10.00">fire/h5/Constants.h</text>
</a>
</g>
</g>
<!-- Node8&#45;&gt;Node28 -->
<g id="edge46" class="edge">
<title>Node8&#45;&gt;Node28</title>
<path fill="none" stroke="midnightblue" d="M1937.63,-341.98C1903.08,-331.59 1844.58,-314.01 1806.12,-302.45"/>
<polygon fill="midnightblue" stroke="midnightblue" points="1806.9,-299.04 1796.32,-299.51 1804.89,-305.74 1806.9,-299.04"/>
</g>
<!-- Node11&#45;&gt;Node3 -->
<g id="edge17" class="edge">
<title>Node11&#45;&gt;Node3</title>
<path fill="none" stroke="midnightblue" d="M1342.78,-280.45C1344.41,-261.96 1348,-216.87 1348,-179 1348,-179 1348,-179 1348,-121 1348,-62.19 1148.31,-27.07 1068.44,-15.38"/>
<polygon fill="midnightblue" stroke="midnightblue" points="1068.83,-11.9 1058.44,-13.95 1067.84,-18.83 1068.83,-11.9"/>
</g>
<!-- Node11&#45;&gt;Node5 -->
<g id="edge16" class="edge">
<title>Node11&#45;&gt;Node5</title>
<path fill="none" stroke="midnightblue" d="M1340.5,-280.43C1334.69,-248.22 1312.66,-135.12 1286,-112 1212.14,-47.95 1164.13,-98.54 1069,-76 1068.9,-75.98 1068.8,-75.95 1068.7,-75.93"/>
<polygon fill="midnightblue" stroke="midnightblue" points="1069.81,-72.6 1059.24,-73.37 1067.98,-79.36 1069.81,-72.6"/>
</g>
<!-- Node11&#45;&gt;Node7 -->
<g id="edge15" class="edge">
<title>Node11&#45;&gt;Node7</title>
<path fill="none" stroke="midnightblue" d="M1363.26,-280.43C1448.06,-246.27 1762.35,-119.64 1862.28,-79.38"/>
<polygon fill="midnightblue" stroke="midnightblue" points="1863.83,-82.52 1871.8,-75.54 1861.22,-76.03 1863.83,-82.52"/>
</g>
<!-- Node11&#45;&gt;Node10 -->
<g id="edge18" class="edge">
<title>Node11&#45;&gt;Node10</title>
<path fill="none" stroke="midnightblue" d="M1409.55,-280.47C1471.32,-272.32 1565.09,-259.07 1646,-244 1647.44,-243.73 1648.91,-243.45 1650.4,-243.15"/>
<polygon fill="midnightblue" stroke="midnightblue" points="1651.17,-246.57 1660.24,-241.09 1649.73,-239.72 1651.17,-246.57"/>
</g>
<!-- Node12 -->
<g id="node12" class="node">
<title>Node12</title>
<g id="a_node12"><a xlink:title=" ">
<polygon fill="none" stroke="#bfbfbf" points="863,-56.5 863,-75.5 1003,-75.5 1003,-56.5 863,-56.5"/>
<text text-anchor="middle" x="933" y="-63.5" font-family="Helvetica,sans-Serif" font-size="10.00">boost/core/demangle.hpp</text>
</a>
</g>
</g>
<!-- Node11&#45;&gt;Node12 -->
<g id="edge14" class="edge">
<title>Node11&#45;&gt;Node12</title>
<path fill="none" stroke="midnightblue" d="M1338.59,-280.12C1326.74,-250.53 1284.18,-154.73 1215,-112 1198,-101.5 1090.52,-86.37 1013.29,-76.61"/>
<polygon fill="midnightblue" stroke="midnightblue" points="1013.44,-73.1 1003.09,-75.33 1012.57,-80.05 1013.44,-73.1"/>
</g>
<!-- Node13 -->
<g id="node13" class="node">
<title>Node13</title>
<g id="a_node13"><a xlink:href="Data_8h_source.html" target="_top" xlink:title=" ">
<polygon fill="none" stroke="black" points="951.5,-224.5 951.5,-243.5 1034.5,-243.5 1034.5,-224.5 951.5,-224.5"/>
<text text-anchor="middle" x="993" y="-231.5" font-family="Helvetica,sans-Serif" font-size="10.00">fire/h5/Data.h</text>
</a>
</g>
</g>
<!-- Node11&#45;&gt;Node13 -->
<g id="edge19" class="edge">
<title>Node11&#45;&gt;Node13</title>
<path fill="none" stroke="midnightblue" d="M1286.7,-280.44C1220.2,-270.15 1109.46,-253.02 1044.63,-242.99"/>
<polygon fill="midnightblue" stroke="midnightblue" points="1045.06,-239.51 1034.64,-241.44 1043.99,-246.43 1045.06,-239.51"/>
</g>
<!-- Node17 -->
<g id="node17" class="node">
<title>Node17</title>
<g id="a_node17"><a xlink:href="Reader_8h_source.html" target="_top" xlink:title=" ">
<polygon fill="none" stroke="black" points="1097.5,-168.5 1097.5,-187.5 1190.5,-187.5 1190.5,-168.5 1097.5,-168.5"/>
<text text-anchor="middle" x="1144" y="-175.5" font-family="Helvetica,sans-Serif" font-size="10.00">fire/h5/Reader.h</text>
</a>
</g>
</g>
<!-- Node11&#45;&gt;Node17 -->
<g id="edge44" class="edge">
<title>Node11&#45;&gt;Node17</title>
<path fill="none" stroke="midnightblue" d="M1325.83,-280.5C1308.86,-271.54 1281.46,-256.97 1258,-244 1226.46,-226.56 1190.36,-205.85 1167.39,-192.58"/>
<polygon fill="midnightblue" stroke="midnightblue" points="1169.1,-189.52 1158.69,-187.54 1165.59,-195.58 1169.1,-189.52"/>
</g>
<!-- Node11&#45;&gt;Node26 -->
<g id="edge45" class="edge">
<title>Node11&#45;&gt;Node26</title>
<path fill="none" stroke="midnightblue" d="M1268.5,-284.75C1239.94,-283.16 1206.95,-281.4 1177,-280 1126.02,-277.61 302.08,-271.37 259,-244 202.04,-207.81 179.57,-123.47 172.14,-85.78"/>
<polygon fill="midnightblue" stroke="midnightblue" points="175.54,-84.9 170.3,-75.69 168.65,-86.15 175.54,-84.9"/>
</g>
<!-- Node13&#45;&gt;Node5 -->
<g id="edge23" class="edge">
<title>Node13&#45;&gt;Node5</title>
<path fill="none" stroke="midnightblue" d="M988.43,-224.5C978.03,-203.9 954.99,-150.19 975,-112 982.76,-97.18 997.87,-86.27 1011.56,-78.91"/>
<polygon fill="midnightblue" stroke="midnightblue" points="1013.31,-81.95 1020.71,-74.38 1010.2,-75.68 1013.31,-81.95"/>
</g>
<!-- Node14 -->
<g id="node14" class="node">
<title>Node14</title>
<g id="a_node14"><a xlink:title=" ">
<polygon fill="none" stroke="#bfbfbf" points="429,-168.5 429,-187.5 487,-187.5 487,-168.5 429,-168.5"/>
<text text-anchor="middle" x="458" y="-175.5" font-family="Helvetica,sans-Serif" font-size="10.00">memory</text>
</a>
</g>
</g>
<!-- Node13&#45;&gt;Node14 -->
<g id="edge20" class="edge">
<title>Node13&#45;&gt;Node14</title>
<path fill="none" stroke="midnightblue" d="M951.34,-230.81C866.31,-225.99 666.83,-212.85 501,-188 499.73,-187.81 498.44,-187.6 497.13,-187.39"/>
<polygon fill="midnightblue" stroke="midnightblue" points="497.53,-183.9 487.06,-185.56 496.27,-190.79 497.53,-183.9"/>
</g>
<!-- Node15 -->
<g id="node15" class="node">
<title>Node15</title>
<g id="a_node15"><a xlink:title=" ">
<polygon fill="none" stroke="#bfbfbf" points="480.5,-56.5 480.5,-75.5 549.5,-75.5 549.5,-56.5 480.5,-56.5"/>
<text text-anchor="middle" x="515" y="-63.5" font-family="Helvetica,sans-Serif" font-size="10.00">type_traits</text>
</a>
</g>
</g>
<!-- Node13&#45;&gt;Node15 -->
<g id="edge21" class="edge">
<title>Node13&#45;&gt;Node15</title>
<path fill="none" stroke="midnightblue" d="M951.29,-231.8C871.06,-227.72 692.17,-209.85 568,-132 549.18,-120.2 533.96,-99.37 524.75,-84.48"/>
<polygon fill="midnightblue" stroke="midnightblue" points="527.66,-82.54 519.57,-75.7 521.63,-86.09 527.66,-82.54"/>
</g>
<!-- Node16 -->
<g id="node16" class="node">
<title>Node16</title>
<g id="a_node16"><a xlink:title=" ">
<polygon fill="none" stroke="#bfbfbf" points="797.5,-56.5 797.5,-75.5 844.5,-75.5 844.5,-56.5 797.5,-56.5"/>
<text text-anchor="middle" x="821" y="-63.5" font-family="Helvetica,sans-Serif" font-size="10.00">vector</text>
</a>
</g>
</g>
<!-- Node13&#45;&gt;Node16 -->
<g id="edge22" class="edge">
<title>Node13&#45;&gt;Node16</title>
<path fill="none" stroke="midnightblue" d="M983.75,-224.08C955.98,-197.27 873,-117.19 837.46,-82.89"/>
<polygon fill="midnightblue" stroke="midnightblue" points="839.5,-79.99 829.88,-75.57 834.64,-85.03 839.5,-79.99"/>
</g>
<!-- Node13&#45;&gt;Node17 -->
<g id="edge24" class="edge">
<title>Node13&#45;&gt;Node17</title>
<path fill="none" stroke="midnightblue" d="M1016.93,-224.44C1042.22,-215.4 1082.3,-201.06 1110.68,-190.92"/>
<polygon fill="midnightblue" stroke="midnightblue" points="1111.95,-194.18 1120.19,-187.52 1109.59,-187.59 1111.95,-194.18"/>
</g>
<!-- Node21 -->
<g id="node21" class="node">
<title>Node21</title>
<g id="a_node21"><a xlink:href="Writer_8h_source.html" target="_top" xlink:title=" ">
<polygon fill="none" stroke="black" points="985.5,-168.5 985.5,-187.5 1074.5,-187.5 1074.5,-168.5 985.5,-168.5"/>
<text text-anchor="middle" x="1030" y="-175.5" font-family="Helvetica,sans-Serif" font-size="10.00">fire/h5/Writer.h</text>
</a>
</g>
</g>
<!-- Node13&#45;&gt;Node21 -->
<g id="edge28" class="edge">
<title>Node13&#45;&gt;Node21</title>
<path fill="none" stroke="midnightblue" d="M999.11,-224.08C1004.28,-216.53 1011.85,-205.49 1018.19,-196.23"/>
<polygon fill="midnightblue" stroke="midnightblue" points="1021.24,-197.98 1024,-187.75 1015.46,-194.02 1021.24,-197.98"/>
</g>
<!-- Node18 -->
<g id="node18" class="node">
<title>Node18</title>
<g id="a_node18"><a xlink:title=" ">
<polygon fill="none" stroke="#bfbfbf" points="1096,-112.5 1096,-131.5 1206,-131.5 1206,-112.5 1096,-112.5"/>
<text text-anchor="middle" x="1151" y="-119.5" font-family="Helvetica,sans-Serif" font-size="10.00">highfive/H5File.hpp</text>
</a>
</g>
</g>
<!-- Node17&#45;&gt;Node18 -->
<g id="edge25" class="edge">
<title>Node17&#45;&gt;Node18</title>
<path fill="none" stroke="midnightblue" d="M1145.16,-168.08C1146.08,-160.93 1147.42,-150.64 1148.58,-141.69"/>
<polygon fill="midnightblue" stroke="midnightblue" points="1152.05,-142.12 1149.87,-131.75 1145.11,-141.22 1152.05,-142.12"/>
</g>
<!-- Node19 -->
<g id="node19" class="node">
<title>Node19</title>
<g id="a_node19"><a xlink:href="Atomic_8h_source.html" target="_top" xlink:title=" ">
<polygon fill="none" stroke="black" points="984,-112.5 984,-131.5 1078,-131.5 1078,-112.5 984,-112.5"/>
<text text-anchor="middle" x="1031" y="-119.5" font-family="Helvetica,sans-Serif" font-size="10.00">fire/h5/Atomic.h</text>
</a>
</g>
</g>
<!-- Node17&#45;&gt;Node19 -->
<g id="edge26" class="edge">
<title>Node17&#45;&gt;Node19</title>
<path fill="none" stroke="midnightblue" d="M1126.09,-168.44C1107.75,-159.68 1078.99,-145.94 1057.91,-135.86"/>
<polygon fill="midnightblue" stroke="midnightblue" points="1059.35,-132.67 1048.82,-131.52 1056.33,-138.99 1059.35,-132.67"/>
</g>
<!-- Node20 -->
<g id="node20" class="node">
<title>Node20</title>
<g id="a_node20"><a xlink:title=" ">
<polygon fill="none" stroke="#bfbfbf" points="1077.5,-56.5 1077.5,-75.5 1216.5,-75.5 1216.5,-56.5 1077.5,-56.5"/>
<text text-anchor="middle" x="1147" y="-63.5" font-family="Helvetica,sans-Serif" font-size="10.00">highfive/H5DataType.hpp</text>
</a>
</g>
</g>
<!-- Node19&#45;&gt;Node20 -->
<g id="edge27" class="edge">
<title>Node19&#45;&gt;Node20</title>
<path fill="none" stroke="midnightblue" d="M1049.38,-112.44C1068.22,-103.68 1097.73,-89.94 1119.38,-79.86"/>
<polygon fill="midnightblue" stroke="midnightblue" points="1121.12,-82.91 1128.71,-75.52 1118.16,-76.56 1121.12,-82.91"/>
</g>
<!-- Node21&#45;&gt;Node18 -->
<g id="edge29" class="edge">
<title>Node21&#45;&gt;Node18</title>
<path fill="none" stroke="midnightblue" d="M1049.17,-168.44C1068.91,-159.64 1099.89,-145.81 1122.49,-135.72"/>
<polygon fill="midnightblue" stroke="midnightblue" points="1124.21,-138.79 1131.92,-131.52 1121.36,-132.4 1124.21,-138.79"/>
</g>
<!-- Node21&#45;&gt;Node19 -->
<g id="edge43" class="edge">
<title>Node21&#45;&gt;Node19</title>
<path fill="none" stroke="midnightblue" d="M1030.17,-168.08C1030.3,-161.01 1030.48,-150.86 1030.65,-141.99"/>
<polygon fill="midnightblue" stroke="midnightblue" points="1034.15,-141.81 1030.84,-131.75 1027.15,-141.68 1034.15,-141.81"/>
</g>
<!-- Node21&#45;&gt;Node22 -->
<g id="edge30" class="edge">
<title>Node21&#45;&gt;Node22</title>
<path fill="none" stroke="midnightblue" d="M985.23,-170.75C918.87,-161.49 793.74,-144.03 714.57,-132.99"/>
<polygon fill="midnightblue" stroke="midnightblue" points="714.58,-129.45 704.19,-131.54 713.62,-136.39 714.58,-129.45"/>
</g>
<!-- Node22&#45;&gt;Node3 -->
<g id="edge35" class="edge">
<title>Node22&#45;&gt;Node3</title>
<path fill="none" stroke="midnightblue" d="M664.32,-112.48C685.86,-103.75 720.03,-89.56 749,-76 766.64,-67.74 769.55,-62.25 788,-56 862.94,-30.61 955.75,-18.64 1003.79,-13.79"/>
<polygon fill="midnightblue" stroke="midnightblue" points="1004.28,-17.26 1013.9,-12.81 1003.6,-10.3 1004.28,-17.26"/>
</g>
<!-- Node22&#45;&gt;Node5 -->
<g id="edge34" class="edge">
<title>Node22&#45;&gt;Node5</title>
<path fill="none" stroke="midnightblue" d="M709.04,-113.27C802.03,-102.35 964.64,-83.09 1010.77,-75.55"/>
<polygon fill="midnightblue" stroke="midnightblue" points="1011.66,-78.95 1020.85,-73.68 1010.38,-72.07 1011.66,-78.95"/>
</g>
<!-- Node22&#45;&gt;Node7 -->
<g id="edge32" class="edge">
<title>Node22&#45;&gt;Node7</title>
<path fill="none" stroke="midnightblue" d="M709.32,-118.13C935.48,-108.36 1672.35,-76.53 1852.83,-68.74"/>
<polygon fill="midnightblue" stroke="midnightblue" points="1853.1,-72.23 1862.94,-68.3 1852.8,-65.23 1853.1,-72.23"/>
</g>
<!-- Node22&#45;&gt;Node12 -->
<g id="edge39" class="edge">
<title>Node22&#45;&gt;Node12</title>
<path fill="none" stroke="midnightblue" d="M688.95,-112.44C740.07,-102.92 822.65,-87.55 877.38,-77.36"/>
<polygon fill="midnightblue" stroke="midnightblue" points="878.07,-80.79 887.26,-75.52 876.79,-73.91 878.07,-80.79"/>
</g>
<!-- Node22&#45;&gt;Node15 -->
<g id="edge36" class="edge">
<title>Node22&#45;&gt;Node15</title>
<path fill="none" stroke="midnightblue" d="M622.72,-112.44C601.65,-103.56 568.48,-89.56 544.51,-79.45"/>
<polygon fill="midnightblue" stroke="midnightblue" points="545.76,-76.18 535.19,-75.52 543.04,-82.63 545.76,-76.18"/>
</g>
<!-- Node22&#45;&gt;Node16 -->
<g id="edge38" class="edge">
<title>Node22&#45;&gt;Node16</title>
<path fill="none" stroke="midnightblue" d="M671.2,-112.44C702.83,-102.85 754.08,-87.3 787.66,-77.11"/>
<polygon fill="midnightblue" stroke="midnightblue" points="788.92,-80.39 797.47,-74.14 786.89,-73.69 788.92,-80.39"/>
</g>
<!-- Node23 -->
<g id="node23" class="node">
<title>Node23</title>
<g id="a_node23"><a xlink:title=" ">
<polygon fill="none" stroke="#bfbfbf" points="567.5,-56.5 567.5,-75.5 602.5,-75.5 602.5,-56.5 567.5,-56.5"/>
<text text-anchor="middle" x="585" y="-63.5" font-family="Helvetica,sans-Serif" font-size="10.00">any</text>
</a>
</g>
</g>
<!-- Node22&#45;&gt;Node23 -->
<g id="edge31" class="edge">
<title>Node22&#45;&gt;Node23</title>
<path fill="none" stroke="midnightblue" d="M633.68,-112.32C625.11,-104.34 612.19,-92.31 601.81,-82.65"/>
<polygon fill="midnightblue" stroke="midnightblue" points="604.19,-80.09 594.49,-75.83 599.42,-85.21 604.19,-80.09"/>
</g>
<!-- Node24 -->
<g id="node24" class="node">
<title>Node24</title>
<g id="a_node24"><a xlink:title=" ">
<polygon fill="none" stroke="#bfbfbf" points="621,-56.5 621,-75.5 665,-75.5 665,-56.5 621,-56.5"/>
<text text-anchor="middle" x="643" y="-63.5" font-family="Helvetica,sans-Serif" font-size="10.00">limits</text>
</a>
</g>
</g>
<!-- Node22&#45;&gt;Node24 -->
<g id="edge33" class="edge">
<title>Node22&#45;&gt;Node24</title>
<path fill="none" stroke="midnightblue" d="M643,-112.08C643,-105.01 643,-94.86 643,-85.99"/>
<polygon fill="midnightblue" stroke="midnightblue" points="646.5,-85.75 643,-75.75 639.5,-85.75 646.5,-85.75"/>
</g>
<!-- Node25 -->
<g id="node25" class="node">
<title>Node25</title>
<g id="a_node25"><a xlink:title=" ">
<polygon fill="none" stroke="#bfbfbf" points="683.5,-56.5 683.5,-75.5 740.5,-75.5 740.5,-56.5 683.5,-56.5"/>
<text text-anchor="middle" x="712" y="-63.5" font-family="Helvetica,sans-Serif" font-size="10.00">typeinfo</text>
</a>
</g>
</g>
<!-- Node22&#45;&gt;Node25 -->
<g id="edge37" class="edge">
<title>Node22&#45;&gt;Node25</title>
<path fill="none" stroke="midnightblue" d="M654.09,-112.32C664.49,-104.18 680.26,-91.84 692.72,-82.09"/>
<polygon fill="midnightblue" stroke="midnightblue" points="694.99,-84.75 700.71,-75.83 690.68,-79.24 694.99,-84.75"/>
</g>
<!-- Node22&#45;&gt;Node26 -->
<g id="edge40" class="edge">
<title>Node22&#45;&gt;Node26</title>
<path fill="none" stroke="midnightblue" d="M576.84,-113.46C491.57,-103.75 343.33,-86.86 250.99,-76.34"/>
<polygon fill="midnightblue" stroke="midnightblue" points="251.18,-72.84 240.85,-75.19 250.39,-79.8 251.18,-72.84"/>
</g>
<!-- Node26&#45;&gt;Node3 -->
<g id="edge42" class="edge">
<title>Node26&#45;&gt;Node3</title>
<path fill="none" stroke="midnightblue" d="M240.77,-57.24C245.59,-56.79 250.36,-56.38 255,-56 545.22,-32.47 897.08,-16.79 1003.81,-12.32"/>
<polygon fill="midnightblue" stroke="midnightblue" points="1004.08,-15.81 1013.92,-11.89 1003.78,-8.81 1004.08,-15.81"/>
</g>
<!-- Node27 -->
<g id="node27" class="node">
<title>Node27</title>
<g id="a_node27"><a xlink:title=" ">
<polygon fill="none" stroke="#bfbfbf" points="136.5,-0.5 136.5,-19.5 201.5,-19.5 201.5,-0.5 136.5,-0.5"/>
<text text-anchor="middle" x="169" y="-7.5" font-family="Helvetica,sans-Serif" font-size="10.00">exception</text>
</a>
</g>
</g>
<!-- Node26&#45;&gt;Node27 -->
<g id="edge41" class="edge">
<title>Node26&#45;&gt;Node27</title>
<path fill="none" stroke="midnightblue" d="M169,-56.08C169,-49.01 169,-38.86 169,-29.99"/>
<polygon fill="midnightblue" stroke="midnightblue" points="172.5,-29.75 169,-19.75 165.5,-29.75 172.5,-29.75"/>
</g>
<!-- Node28&#45;&gt;Node3 -->
<g id="edge47" class="edge">
<title>Node28&#45;&gt;Node3</title>
<path fill="none" stroke="midnightblue" d="M1769.31,-280.47C1772.02,-262.01 1778,-216.97 1778,-179 1778,-179 1778,-179 1778,-121 1778,-48.18 1211.56,-18.64 1068.51,-12.34"/>
<polygon fill="midnightblue" stroke="midnightblue" points="1068.35,-8.83 1058.21,-11.89 1068.05,-15.82 1068.35,-8.83"/>
</g>
<!-- Node29&#45;&gt;Node3 -->
<g id="edge51" class="edge">
<title>Node29&#45;&gt;Node3</title>
<path fill="none" stroke="midnightblue" d="M1813.32,-341.97C1725.95,-318.23 1488,-252.02 1488,-235 1488,-235 1488,-235 1488,-121 1488,-34.52 1171.64,-15.75 1068.26,-11.92"/>
<polygon fill="midnightblue" stroke="midnightblue" points="1068.22,-8.42 1058.11,-11.57 1067.98,-15.42 1068.22,-8.42"/>
</g>
<!-- Node29&#45;&gt;Node5 -->
<g id="edge50" class="edge">
<title>Node29&#45;&gt;Node5</title>
<path fill="none" stroke="midnightblue" d="M1815.1,-341.95C1806.13,-339.68 1796.23,-337.46 1787,-336 1729.03,-326.85 1307.45,-334.54 1260,-300 1234.85,-281.69 1234,-266.11 1234,-235 1234,-235 1234,-235 1234,-177 1234,-146.9 1236.73,-132.82 1215,-112 1166.75,-65.76 1133.39,-93.91 1069,-76 1068.9,-75.97 1068.8,-75.95 1068.7,-75.92"/>
<polygon fill="midnightblue" stroke="midnightblue" points="1069.88,-72.61 1059.3,-73.16 1067.91,-79.33 1069.88,-72.61"/>
</g>
<!-- Node29&#45;&gt;Node11 -->
<g id="edge54" class="edge">
<title>Node29&#45;&gt;Node11</title>
<path fill="none" stroke="midnightblue" d="M1814.47,-341.99C1805.66,-339.78 1796,-337.57 1787,-336 1719.78,-324.26 1535.09,-307.43 1425.93,-298.03"/>
<polygon fill="midnightblue" stroke="midnightblue" points="1426.2,-294.54 1415.93,-297.17 1425.6,-301.52 1426.2,-294.54"/>
</g>
<!-- Node29&#45;&gt;Node13 -->
<g id="edge53" class="edge">
<title>Node29&#45;&gt;Node13</title>
<path fill="none" stroke="midnightblue" d="M1815.11,-341.93C1806.14,-339.65 1796.23,-337.43 1787,-336 1537.49,-297.22 1464.7,-362.32 1220,-300 1199.57,-294.8 1196.89,-286.98 1177,-280 1133.32,-264.67 1082.04,-252.59 1044.73,-244.82"/>
<polygon fill="midnightblue" stroke="midnightblue" points="1045.09,-241.33 1034.6,-242.75 1043.69,-248.18 1045.09,-241.33"/>
</g>
<!-- Node29&#45;&gt;Node28 -->
<g id="edge55" class="edge">
<title>Node29&#45;&gt;Node28</title>
<path fill="none" stroke="midnightblue" d="M1833.97,-341.98C1821.73,-332.52 1801.77,-317.1 1787.01,-305.69"/>
<polygon fill="midnightblue" stroke="midnightblue" points="1789.06,-302.85 1779.01,-299.51 1784.78,-308.39 1789.06,-302.85"/>
</g>
<!-- Node30 -->
<g id="node30" class="node">
<title>Node30</title>
<g id="a_node30"><a xlink:title=" ">
<polygon fill="none" stroke="#bfbfbf" points="1048.5,-280.5 1048.5,-299.5 1167.5,-299.5 1167.5,-280.5 1048.5,-280.5"/>
<text text-anchor="middle" x="1108" y="-287.5" font-family="Helvetica,sans-Serif" font-size="10.00">fire/version/Version.h</text>
</a>
</g>
</g>
<!-- Node29&#45;&gt;Node30 -->
<g id="edge52" class="edge">
<title>Node29&#45;&gt;Node30</title>
<path fill="none" stroke="midnightblue" d="M1815.41,-341.98C1806.36,-339.68 1796.34,-337.43 1787,-336 1520.75,-295.16 1450.27,-324.27 1182,-300 1180.69,-299.88 1179.38,-299.76 1178.05,-299.63"/>
<polygon fill="midnightblue" stroke="midnightblue" points="1178.04,-296.11 1167.74,-298.59 1177.34,-303.08 1178.04,-296.11"/>
</g>
<!-- Node31&#45;&gt;Node3 -->
<g id="edge60" class="edge">
<title>Node31&#45;&gt;Node3</title>
<path fill="none" stroke="midnightblue" d="M338.67,-224.26C350.42,-215.8 368,-202.19 381,-188 428.97,-135.65 409.59,-91.65 471,-56 517.17,-29.2 891.03,-15.5 1003.87,-11.95"/>
<polygon fill="midnightblue" stroke="midnightblue" points="1004.07,-15.44 1013.96,-11.64 1003.85,-8.45 1004.07,-15.44"/>
</g>
<!-- Node31&#45;&gt;Node14 -->
<g id="edge59" class="edge">
<title>Node31&#45;&gt;Node14</title>
<path fill="none" stroke="midnightblue" d="M346.92,-224.44C368.74,-215.52 403.15,-201.44 427.89,-191.32"/>
<polygon fill="midnightblue" stroke="midnightblue" points="429.25,-194.54 437.18,-187.52 426.6,-188.06 429.25,-194.54"/>
</g>
<!-- Node31&#45;&gt;Node26 -->
<g id="edge62" class="edge">
<title>Node31&#45;&gt;Node26</title>
<path fill="none" stroke="midnightblue" d="M313.85,-224.33C302.1,-215.71 284.06,-201.8 270,-188 235.02,-153.67 199.55,-108.14 181.39,-83.9"/>
<polygon fill="midnightblue" stroke="midnightblue" points="184.09,-81.66 175.32,-75.71 178.47,-85.83 184.09,-81.66"/>
</g>
<!-- Node32 -->
<g id="node32" class="node">
<title>Node32</title>
<g id="a_node32"><a xlink:title=" ">
<polygon fill="none" stroke="#bfbfbf" points="279.5,-168.5 279.5,-187.5 372.5,-187.5 372.5,-168.5 279.5,-168.5"/>
<text text-anchor="middle" x="326" y="-175.5" font-family="Helvetica,sans-Serif" font-size="10.00">unordered_map</text>
</a>
</g>
</g>
<!-- Node31&#45;&gt;Node32 -->
<g id="edge61" class="edge">
<title>Node31&#45;&gt;Node32</title>
<path fill="none" stroke="midnightblue" d="M326,-224.08C326,-217.01 326,-206.86 326,-197.99"/>
<polygon fill="midnightblue" stroke="midnightblue" points="329.5,-197.75 326,-187.75 322.5,-197.75 329.5,-197.75"/>
</g>
<!-- Node34 -->
<g id="node34" class="node">
<title>Node34</title>
<g id="a_node34"><a xlink:title=" ">
<polygon fill="none" stroke="#bfbfbf" points="1374.5,-342 1374.5,-361 1481.5,-361 1481.5,-342 1374.5,-342"/>
<text text-anchor="middle" x="1428" y="-349" font-family="Helvetica,sans-Serif" font-size="10.00">boost/log/core.hpp</text>
</a>
</g>
</g>
<!-- Node33&#45;&gt;Node34 -->
<g id="edge64" class="edge">
<title>Node33&#45;&gt;Node34</title>
<path fill="none" stroke="midnightblue" d="M1051.1,-411.37C1124.7,-403.2 1255.3,-387.39 1366,-367 1371.85,-365.92 1377.98,-364.66 1384.01,-363.33"/>
<polygon fill="midnightblue" stroke="midnightblue" points="1385.03,-366.69 1394.01,-361.06 1383.49,-359.86 1385.03,-366.69"/>
</g>
<!-- Node35 -->
<g id="node35" class="node">
<title>Node35</title>
<g id="a_node35"><a xlink:title=" ">
<polygon fill="none" stroke="#bfbfbf" points="1500,-342 1500,-361 1644,-361 1644,-342 1500,-342"/>
<text text-anchor="middle" x="1572" y="-349" font-family="Helvetica,sans-Serif" font-size="10.00">boost/log/expressions.hpp</text>
</a>
</g>
</g>
<!-- Node33&#45;&gt;Node35 -->
<g id="edge65" class="edge">
<title>Node33&#45;&gt;Node35</title>
<path fill="none" stroke="midnightblue" d="M1051.06,-413.05C1144.15,-405.6 1332.43,-389.2 1491,-367 1499.74,-365.78 1508.97,-364.3 1517.96,-362.76"/>
<polygon fill="midnightblue" stroke="midnightblue" points="1518.71,-366.18 1527.96,-361.01 1517.5,-359.29 1518.71,-366.18"/>
</g>
<!-- Node36 -->
<g id="node36" class="node">
<title>Node36</title>
<g id="a_node36"><a xlink:title=" ">
<polygon fill="none" stroke="#bfbfbf" points="1662,-336.5 1662,-366.5 1778,-366.5 1778,-336.5 1662,-336.5"/>
<text text-anchor="start" x="1670" y="-354.5" font-family="Helvetica,sans-Serif" font-size="10.00">boost/log/sinks/sync</text>
<text text-anchor="middle" x="1720" y="-343.5" font-family="Helvetica,sans-Serif" font-size="10.00">_frontend.hpp</text>
</a>
</g>
</g>
<!-- Node33&#45;&gt;Node36 -->
<g id="edge66" class="edge">
<title>Node33&#45;&gt;Node36</title>
<path fill="none" stroke="midnightblue" d="M1051.12,-415.72C1164.74,-411.67 1424.35,-399.56 1651.86,-367.03"/>
<polygon fill="midnightblue" stroke="midnightblue" points="1652.59,-370.46 1661.98,-365.56 1651.59,-363.53 1652.59,-370.46"/>
</g>
<!-- Node37 -->
<g id="node37" class="node">
<title>Node37</title>
<g id="a_node37"><a xlink:title=" ">
<polygon fill="none" stroke="#bfbfbf" points="298.5,-336.5 298.5,-366.5 427.5,-366.5 427.5,-336.5 298.5,-336.5"/>
<text text-anchor="start" x="306.5" y="-354.5" font-family="Helvetica,sans-Serif" font-size="10.00">boost/log/sinks/text</text>
<text text-anchor="middle" x="363" y="-343.5" font-family="Helvetica,sans-Serif" font-size="10.00">_ostream_backend.hpp</text>
</a>
</g>
</g>
<!-- Node33&#45;&gt;Node37 -->
<g id="edge67" class="edge">
<title>Node33&#45;&gt;Node37</title>
<path fill="none" stroke="midnightblue" d="M934.63,-414.24C834.74,-408.23 624.47,-393.62 437.81,-367.17"/>
<polygon fill="midnightblue" stroke="midnightblue" points="438.21,-363.7 427.82,-365.74 437.22,-370.63 438.21,-363.7"/>
</g>
<!-- Node38 -->
<g id="node38" class="node">
<title>Node38</title>
<g id="a_node38"><a xlink:title=" ">
<polygon fill="none" stroke="#bfbfbf" points="445.5,-336.5 445.5,-366.5 580.5,-366.5 580.5,-336.5 445.5,-336.5"/>
<text text-anchor="start" x="453.5" y="-354.5" font-family="Helvetica,sans-Serif" font-size="10.00">boost/log/sources/global</text>
<text text-anchor="middle" x="513" y="-343.5" font-family="Helvetica,sans-Serif" font-size="10.00">_logger_storage.hpp</text>
</a>
</g>
</g>
<!-- Node33&#45;&gt;Node38 -->
<g id="edge68" class="edge">
<title>Node33&#45;&gt;Node38</title>
<path fill="none" stroke="midnightblue" d="M934.97,-411.43C858.34,-403.15 719.01,-387.19 590.52,-367.18"/>
<polygon fill="midnightblue" stroke="midnightblue" points="590.93,-363.7 580.51,-365.61 589.84,-370.62 590.93,-363.7"/>
</g>
<!-- Node39 -->
<g id="node39" class="node">
<title>Node39</title>
<g id="a_node39"><a xlink:title=" ">
<polygon fill="none" stroke="#bfbfbf" points="598.5,-336.5 598.5,-366.5 743.5,-366.5 743.5,-336.5 598.5,-336.5"/>
<text text-anchor="start" x="606.5" y="-354.5" font-family="Helvetica,sans-Serif" font-size="10.00">boost/log/sources/severity</text>
<text text-anchor="middle" x="671" y="-343.5" font-family="Helvetica,sans-Serif" font-size="10.00">_channel_logger.hpp</text>
</a>
</g>
</g>
<!-- Node33&#45;&gt;Node39 -->
<g id="edge69" class="edge">
<title>Node33&#45;&gt;Node39</title>
<path fill="none" stroke="midnightblue" d="M950.57,-408.94C899.83,-398.69 813.84,-381.33 750.59,-368.57"/>
<polygon fill="midnightblue" stroke="midnightblue" points="751.14,-365.11 740.65,-366.56 749.76,-371.97 751.14,-365.11"/>
</g>
<!-- Node40 -->
<g id="node40" class="node">
<title>Node40</title>
<g id="a_node40"><a xlink:title=" ">
<polygon fill="none" stroke="#bfbfbf" points="761.5,-336.5 761.5,-366.5 906.5,-366.5 906.5,-336.5 761.5,-336.5"/>
<text text-anchor="start" x="769.5" y="-354.5" font-family="Helvetica,sans-Serif" font-size="10.00">boost/log/sources/severity</text>
<text text-anchor="middle" x="834" y="-343.5" font-family="Helvetica,sans-Serif" font-size="10.00">_feature.hpp</text>
</a>
</g>
</g>
<!-- Node33&#45;&gt;Node40 -->
<g id="edge70" class="edge">
<title>Node33&#45;&gt;Node40</title>
<path fill="none" stroke="midnightblue" d="M971.89,-408.87C948.03,-399.12 908.53,-382.97 877.91,-370.45"/>
<polygon fill="midnightblue" stroke="midnightblue" points="878.9,-367.07 868.31,-366.53 876.25,-373.55 878.9,-367.07"/>
</g>
<!-- Node41 -->
<g id="node41" class="node">
<title>Node41</title>
<g id="a_node41"><a xlink:title=" ">
<polygon fill="none" stroke="#bfbfbf" points="925,-336.5 925,-366.5 1061,-366.5 1061,-336.5 925,-336.5"/>
<text text-anchor="start" x="933" y="-354.5" font-family="Helvetica,sans-Serif" font-size="10.00">boost/log/utility/setup</text>
<text text-anchor="middle" x="993" y="-343.5" font-family="Helvetica,sans-Serif" font-size="10.00">/common_attributes.hpp</text>
</a>
</g>
</g>
<!-- Node33&#45;&gt;Node41 -->
<g id="edge71" class="edge">
<title>Node33&#45;&gt;Node41</title>
<path fill="none" stroke="midnightblue" d="M993,-408.73C993,-400.54 993,-387.92 993,-376.71"/>
<polygon fill="midnightblue" stroke="midnightblue" points="996.5,-376.59 993,-366.59 989.5,-376.59 996.5,-376.59"/>
</g>
<!-- Node42 -->
<g id="node42" class="node">
<title>Node42</title>
<g id="a_node42"><a xlink:title=" ">
<polygon fill="none" stroke="#bfbfbf" points="1079,-336.5 1079,-366.5 1215,-366.5 1215,-336.5 1079,-336.5"/>
<text text-anchor="start" x="1087" y="-354.5" font-family="Helvetica,sans-Serif" font-size="10.00">boost/log/sources/record</text>
<text text-anchor="middle" x="1147" y="-343.5" font-family="Helvetica,sans-Serif" font-size="10.00">_ostream.hpp</text>
</a>
</g>
</g>
<!-- Node33&#45;&gt;Node42 -->
<g id="edge72" class="edge">
<title>Node33&#45;&gt;Node42</title>
<path fill="none" stroke="midnightblue" d="M1013.45,-408.87C1036.56,-399.12 1074.81,-382.97 1104.47,-370.45"/>
<polygon fill="midnightblue" stroke="midnightblue" points="1105.91,-373.64 1113.76,-366.53 1103.19,-367.19 1105.91,-373.64"/>
</g>
<!-- Node43 -->
<g id="node43" class="node">
<title>Node43</title>
<g id="a_node43"><a xlink:title=" ">
<polygon fill="none" stroke="#bfbfbf" points="1233.5,-336.5 1233.5,-366.5 1356.5,-366.5 1356.5,-336.5 1233.5,-336.5"/>
<text text-anchor="start" x="1241.5" y="-354.5" font-family="Helvetica,sans-Serif" font-size="10.00">boost/log/utility/setup</text>
<text text-anchor="middle" x="1295" y="-343.5" font-family="Helvetica,sans-Serif" font-size="10.00">/file.hpp</text>
</a>
</g>
</g>
<!-- Node33&#45;&gt;Node43 -->
<g id="edge73" class="edge">
<title>Node33&#45;&gt;Node43</title>
<path fill="none" stroke="midnightblue" d="M1032.79,-408.94C1081.17,-398.52 1163.71,-380.76 1223.28,-367.94"/>
<polygon fill="midnightblue" stroke="midnightblue" points="1224.34,-371.29 1233.38,-365.76 1222.86,-364.45 1224.34,-371.29"/>
</g>
</g>
</svg>
