<?xml version="1.0" encoding="UTF-8" standalone="no"?>
<!DOCTYPE svg PUBLIC "-//W3C//DTD SVG 1.1//EN"
 "http://www.w3.org/Graphics/SVG/1.1/DTD/svg11.dtd">
<!-- Generated by graphviz version 2.43.0 (0)
 -->
<!-- Title: include/fire/RandomNumberSeedService.h Pages: 1 -->
<svg width="3003pt" height="621pt"
 viewBox="0.00 0.00 3002.77 621.00" xmlns="http://www.w3.org/2000/svg" xmlns:xlink="http://www.w3.org/1999/xlink">
<g id="graph0" class="graph" transform="scale(1 1) rotate(0) translate(4 617)">
<title>include/fire/RandomNumberSeedService.h</title>
<!-- Node1 -->
<g id="node1" class="node">
<title>Node1</title>
<g id="a_node1"><a xlink:title="Conditions object for random number seeds.">
<polygon fill="#bfbfbf" stroke="black" points="344.5,-582.5 344.5,-612.5 497.5,-612.5 497.5,-582.5 344.5,-582.5"/>
<text text-anchor="start" x="352.5" y="-600.5" font-family="Helvetica,sans-Serif" font-size="10.00">include/fire/RandomNumber</text>
<text text-anchor="middle" x="421" y="-589.5" font-family="Helvetica,sans-Serif" font-size="10.00">SeedService.h</text>
</a>
</g>
</g>
<!-- Node2 -->
<g id="node2" class="node">
<title>Node2</title>
<g id="a_node2"><a xlink:href="ConditionsObject_8h_source.html" target="_top" xlink:title=" ">
<polygon fill="none" stroke="black" points="0,-465 0,-484 128,-484 128,-465 0,-465"/>
<text text-anchor="middle" x="64" y="-472" font-family="Helvetica,sans-Serif" font-size="10.00">fire/ConditionsObject.h</text>
</a>
</g>
</g>
<!-- Node1&#45;&gt;Node2 -->
<g id="edge1" class="edge">
<title>Node1&#45;&gt;Node2</title>
<path fill="none" stroke="midnightblue" d="M379.35,-582.38C308.32,-558.31 165.04,-509.75 98.91,-487.33"/>
<polygon fill="midnightblue" stroke="midnightblue" points="99.94,-483.99 89.35,-484.09 97.7,-490.62 99.94,-483.99"/>
</g>
<!-- Node4 -->
<g id="node4" class="node">
<title>Node4</title>
<g id="a_node4"><a xlink:href="ConditionsProvider_8h_source.html" target="_top" xlink:title=" ">
<polygon fill="none" stroke="black" points="698,-526.5 698,-545.5 834,-545.5 834,-526.5 698,-526.5"/>
<text text-anchor="middle" x="766" y="-533.5" font-family="Helvetica,sans-Serif" font-size="10.00">fire/ConditionsProvider.h</text>
</a>
</g>
</g>
<!-- Node1&#45;&gt;Node4 -->
<g id="edge3" class="edge">
<title>Node1&#45;&gt;Node4</title>
<path fill="none" stroke="midnightblue" d="M497.57,-583.3C560.58,-572.43 648.65,-557.24 706.47,-547.27"/>
<polygon fill="midnightblue" stroke="midnightblue" points="707.29,-550.68 716.55,-545.53 706.1,-543.78 707.29,-550.68"/>
</g>
<!-- Node3 -->
<g id="node3" class="node">
<title>Node3</title>
<g id="a_node3"><a xlink:title=" ">
<polygon fill="none" stroke="#bfbfbf" points="525,-0.5 525,-19.5 569,-19.5 569,-0.5 525,-0.5"/>
<text text-anchor="middle" x="547" y="-7.5" font-family="Helvetica,sans-Serif" font-size="10.00">string</text>
</a>
</g>
</g>
<!-- Node2&#45;&gt;Node3 -->
<g id="edge2" class="edge">
<title>Node2&#45;&gt;Node3</title>
<path fill="none" stroke="midnightblue" d="M64.92,-464.92C67.02,-444.51 72,-391.45 72,-347 72,-347 72,-347 72,-121 72,-44.62 449.01,-25.85 488,-20 496.67,-18.7 506.05,-17.28 514.73,-15.95"/>
<polygon fill="midnightblue" stroke="midnightblue" points="515.51,-19.37 524.87,-14.4 514.46,-12.45 515.51,-19.37"/>
</g>
<!-- Node4&#45;&gt;Node2 -->
<g id="edge62" class="edge">
<title>Node4&#45;&gt;Node2</title>
<path fill="none" stroke="midnightblue" d="M697.88,-532.58C582.91,-527.94 343.18,-515.87 142,-490 133.27,-488.88 124.03,-487.41 115.08,-485.84"/>
<polygon fill="midnightblue" stroke="midnightblue" points="115.62,-482.38 105.15,-484.04 114.37,-489.27 115.62,-482.38"/>
</g>
<!-- Node5 -->
<g id="node5" class="node">
<title>Node5</title>
<g id="a_node5"><a xlink:title=" ">
<polygon fill="none" stroke="#bfbfbf" points="575,-112.5 575,-131.5 613,-131.5 613,-112.5 575,-112.5"/>
<text text-anchor="middle" x="594" y="-119.5" font-family="Helvetica,sans-Serif" font-size="10.00">map</text>
</a>
</g>
</g>
<!-- Node4&#45;&gt;Node5 -->
<g id="edge4" class="edge">
<title>Node4&#45;&gt;Node5</title>
<path fill="none" stroke="midnightblue" d="M764.12,-526.5C754.72,-484.95 710.01,-299.96 632,-168 625.83,-157.57 617.23,-147.15 609.77,-138.97"/>
<polygon fill="midnightblue" stroke="midnightblue" points="612.24,-136.49 602.83,-131.62 607.15,-141.29 612.24,-136.49"/>
</g>
<!-- Node6 -->
<g id="node6" class="node">
<title>Node6</title>
<g id="a_node6"><a xlink:href="ConditionsIntervalOfValidity_8h_source.html" target="_top" xlink:title=" ">
<polygon fill="none" stroke="black" points="341,-459.5 341,-489.5 477,-489.5 477,-459.5 341,-459.5"/>
<text text-anchor="start" x="349" y="-477.5" font-family="Helvetica,sans-Serif" font-size="10.00">fire/ConditionsIntervalOf</text>
<text text-anchor="middle" x="409" y="-466.5" font-family="Helvetica,sans-Serif" font-size="10.00">Validity.h</text>
</a>
</g>
</g>
<!-- Node4&#45;&gt;Node6 -->
<g id="edge5" class="edge">
<title>Node4&#45;&gt;Node6</title>
<path fill="none" stroke="midnightblue" d="M714.85,-526.48C655.31,-516.55 556.33,-500.05 487.14,-488.52"/>
<polygon fill="midnightblue" stroke="midnightblue" points="487.6,-485.05 477.16,-486.86 486.45,-491.96 487.6,-485.05"/>
</g>
<!-- Node20 -->
<g id="node20" class="node">
<title>Node20</title>
<g id="a_node20"><a xlink:href="Parameters_8h_source.html" target="_top" xlink:title=" ">
<polygon fill="none" stroke="black" points="1084,-168.5 1084,-187.5 1216,-187.5 1216,-168.5 1084,-168.5"/>
<text text-anchor="middle" x="1150" y="-175.5" font-family="Helvetica,sans-Serif" font-size="10.00">fire/config/Parameters.h</text>
</a>
</g>
</g>
<!-- Node4&#45;&gt;Node20 -->
<g id="edge70" class="edge">
<title>Node4&#45;&gt;Node20</title>
<path fill="none" stroke="midnightblue" d="M834.25,-529.19C1004.24,-513.79 1433,-468.98 1433,-408.5 1433,-408.5 1433,-408.5 1433,-345 1433,-247.43 1306.31,-206.11 1222.46,-189.45"/>
<polygon fill="midnightblue" stroke="midnightblue" points="1222.94,-185.98 1212.46,-187.54 1221.62,-192.85 1222.94,-185.98"/>
</g>
<!-- Node25 -->
<g id="node25" class="node">
<title>Node25</title>
<g id="a_node25"><a xlink:href="Exception_8h_source.html" target="_top" xlink:title=" ">
<polygon fill="none" stroke="black" points="375.5,-56.5 375.5,-75.5 518.5,-75.5 518.5,-56.5 375.5,-56.5"/>
<text text-anchor="middle" x="447" y="-63.5" font-family="Helvetica,sans-Serif" font-size="10.00">fire/exception/Exception.h</text>
</a>
</g>
</g>
<!-- Node4&#45;&gt;Node25 -->
<g id="edge71" class="edge">
<title>Node4&#45;&gt;Node25</title>
<path fill="none" stroke="midnightblue" d="M698,-532.74C592.89,-528.44 396.35,-517 332,-490 288.92,-471.93 275.7,-462.66 251,-423 203.9,-347.38 222.24,-295.78 275,-224 319.84,-162.99 391.12,-107.23 426.16,-81.68"/>
<polygon fill="midnightblue" stroke="midnightblue" points="428.57,-84.26 434.64,-75.58 424.48,-78.58 428.57,-84.26"/>
</g>
<!-- Node31 -->
<g id="node31" class="node">
<title>Node31</title>
<g id="a_node31"><a xlink:href="Factory_8h_source.html" target="_top" xlink:title=" ">
<polygon fill="none" stroke="black" points="1461,-112.5 1461,-131.5 1577,-131.5 1577,-112.5 1461,-112.5"/>
<text text-anchor="middle" x="1519" y="-119.5" font-family="Helvetica,sans-Serif" font-size="10.00">fire/factory/Factory.h</text>
</a>
</g>
</g>
<!-- Node4&#45;&gt;Node31 -->
<g id="edge72" class="edge">
<title>Node4&#45;&gt;Node31</title>
<path fill="none" stroke="midnightblue" d="M834.07,-533.99C989.4,-530.14 1362.85,-511.67 1444,-423 1519.48,-340.53 1521.79,-193.71 1520.02,-141.81"/>
<polygon fill="midnightblue" stroke="midnightblue" points="1523.52,-141.57 1519.58,-131.73 1516.52,-141.88 1523.52,-141.57"/>
</g>
<!-- Node34 -->
<g id="node34" class="node">
<title>Node34</title>
<g id="a_node34"><a xlink:href="RunHeader_8h_source.html" target="_top" xlink:title=" ">
<polygon fill="none" stroke="black" points="794,-398 794,-417 892,-417 892,-398 794,-398"/>
<text text-anchor="middle" x="843" y="-405" font-family="Helvetica,sans-Serif" font-size="10.00">fire/RunHeader.h</text>
</a>
</g>
</g>
<!-- Node4&#45;&gt;Node34 -->
<g id="edge63" class="edge">
<title>Node4&#45;&gt;Node34</title>
<path fill="none" stroke="midnightblue" d="M771.29,-526.31C783.88,-505.63 815.77,-453.23 832.46,-425.82"/>
<polygon fill="midnightblue" stroke="midnightblue" points="835.46,-427.62 837.67,-417.26 829.48,-423.98 835.46,-427.62"/>
</g>
<!-- Node35 -->
<g id="node35" class="node">
<title>Node35</title>
<g id="a_node35"><a xlink:href="Logger_8h.html" target="_top" xlink:title="Interface to Boost.Logging.">
<polygon fill="none" stroke="black" points="2213,-465 2213,-484 2329,-484 2329,-465 2213,-465"/>
<text text-anchor="middle" x="2271" y="-472" font-family="Helvetica,sans-Serif" font-size="10.00">fire/logging/Logger.h</text>
</a>
</g>
</g>
<!-- Node4&#45;&gt;Node35 -->
<g id="edge73" class="edge">
<title>Node4&#45;&gt;Node35</title>
<path fill="none" stroke="midnightblue" d="M834.08,-532.31C1084.39,-522.41 1952.1,-488.11 2202.72,-478.2"/>
<polygon fill="midnightblue" stroke="midnightblue" points="2202.93,-481.69 2212.79,-477.8 2202.66,-474.7 2202.93,-481.69"/>
</g>
<!-- Node7 -->
<g id="node7" class="node">
<title>Node7</title>
<g id="a_node7"><a xlink:title=" ">
<polygon fill="none" stroke="#bfbfbf" points="459,-112.5 459,-131.5 519,-131.5 519,-112.5 459,-112.5"/>
<text text-anchor="middle" x="489" y="-119.5" font-family="Helvetica,sans-Serif" font-size="10.00">iostream</text>
</a>
</g>
</g>
<!-- Node6&#45;&gt;Node7 -->
<g id="edge6" class="edge">
<title>Node6&#45;&gt;Node7</title>
<path fill="none" stroke="midnightblue" d="M361.97,-459.36C307.39,-439.83 226.44,-399.63 240,-336 260.14,-241.49 294.98,-217.43 378,-168 401.24,-154.16 429.52,-142.77 451.72,-134.91"/>
<polygon fill="midnightblue" stroke="midnightblue" points="453.14,-138.12 461.45,-131.55 450.86,-131.5 453.14,-138.12"/>
</g>
<!-- Node8 -->
<g id="node8" class="node">
<title>Node8</title>
<g id="a_node8"><a xlink:href="EventHeader_8h_source.html" target="_top" xlink:title=" ">
<polygon fill="none" stroke="black" points="355.5,-398 355.5,-417 462.5,-417 462.5,-398 355.5,-398"/>
<text text-anchor="middle" x="409" y="-405" font-family="Helvetica,sans-Serif" font-size="10.00">fire/EventHeader.h</text>
</a>
</g>
</g>
<!-- Node6&#45;&gt;Node8 -->
<g id="edge7" class="edge">
<title>Node6&#45;&gt;Node8</title>
<path fill="none" stroke="midnightblue" d="M409,-459.4C409,-450.06 409,-437.71 409,-427.52"/>
<polygon fill="midnightblue" stroke="midnightblue" points="412.5,-427.19 409,-417.19 405.5,-427.19 412.5,-427.19"/>
</g>
<!-- Node8&#45;&gt;Node3 -->
<g id="edge11" class="edge">
<title>Node8&#45;&gt;Node3</title>
<path fill="none" stroke="midnightblue" d="M355.44,-405.35C280.12,-400.56 152,-379.42 152,-291 152,-291 152,-291 152,-121 152,-83.43 420.63,-33.02 514.83,-16.49"/>
<polygon fill="midnightblue" stroke="midnightblue" points="515.67,-19.9 524.92,-14.74 514.46,-13 515.67,-19.9"/>
</g>
<!-- Node8&#45;&gt;Node5 -->
<g id="edge10" class="edge">
<title>Node8&#45;&gt;Node5</title>
<path fill="none" stroke="midnightblue" d="M462.75,-403.96C531.59,-399.45 645.12,-387.35 671,-356 685.27,-338.71 624.01,-192.32 601.79,-140.83"/>
<polygon fill="midnightblue" stroke="midnightblue" points="604.98,-139.39 597.79,-131.61 598.56,-142.18 604.98,-139.39"/>
</g>
<!-- Node8&#45;&gt;Node7 -->
<g id="edge9" class="edge">
<title>Node8&#45;&gt;Node7</title>
<path fill="none" stroke="midnightblue" d="M355.23,-403.69C300.37,-398.27 226.03,-382.4 247,-336 292.03,-236.37 409.25,-164.77 462.26,-136.43"/>
<polygon fill="midnightblue" stroke="midnightblue" points="464.15,-139.39 471.38,-131.64 460.9,-133.19 464.15,-139.39"/>
</g>
<!-- Node9 -->
<g id="node9" class="node">
<title>Node9</title>
<g id="a_node9"><a xlink:title=" ">
<polygon fill="none" stroke="#bfbfbf" points="256,-336.5 256,-355.5 300,-355.5 300,-336.5 256,-336.5"/>
<text text-anchor="middle" x="278" y="-343.5" font-family="Helvetica,sans-Serif" font-size="10.00">ctime</text>
</a>
</g>
</g>
<!-- Node8&#45;&gt;Node9 -->
<g id="edge8" class="edge">
<title>Node8&#45;&gt;Node9</title>
<path fill="none" stroke="midnightblue" d="M390.23,-397.98C368.15,-387.95 331.28,-371.2 305.86,-359.65"/>
<polygon fill="midnightblue" stroke="midnightblue" points="307.29,-356.46 296.73,-355.51 304.39,-362.83 307.29,-356.46"/>
</g>
<!-- Node10 -->
<g id="node10" class="node">
<title>Node10</title>
<g id="a_node10"><a xlink:title=" ">
<polygon fill="none" stroke="#bfbfbf" points="391.5,-280.5 391.5,-299.5 442.5,-299.5 442.5,-280.5 391.5,-280.5"/>
<text text-anchor="middle" x="417" y="-287.5" font-family="Helvetica,sans-Serif" font-size="10.00">variant</text>
</a>
</g>
</g>
<!-- Node8&#45;&gt;Node10 -->
<g id="edge12" class="edge">
<title>Node8&#45;&gt;Node10</title>
<path fill="none" stroke="midnightblue" d="M391.37,-397.95C368.5,-385.6 333.1,-361.46 347,-336 354.82,-321.68 369.36,-311.24 383.18,-304.04"/>
<polygon fill="midnightblue" stroke="midnightblue" points="385.02,-307.03 392.53,-299.56 382,-300.72 385.02,-307.03"/>
</g>
<!-- Node11 -->
<g id="node11" class="node">
<title>Node11</title>
<g id="a_node11"><a xlink:title=" ">
<polygon fill="none" stroke="#bfbfbf" points="1209.5,-56.5 1209.5,-75.5 1328.5,-75.5 1328.5,-56.5 1209.5,-56.5"/>
<text text-anchor="middle" x="1269" y="-63.5" font-family="Helvetica,sans-Serif" font-size="10.00">fire/version/Version.h</text>
</a>
</g>
</g>
<!-- Node8&#45;&gt;Node11 -->
<g id="edge13" class="edge">
<title>Node8&#45;&gt;Node11</title>
<path fill="none" stroke="midnightblue" d="M426.23,-397.94C449.48,-385.22 486.24,-360.19 470,-336 446.45,-300.92 410.29,-331.39 382,-300 361.85,-277.64 363,-265.1 363,-235 363,-235 363,-235 363,-177 363,-128.73 404.63,-128.47 450,-112 519.42,-86.8 1014.16,-72.89 1199.3,-68.52"/>
<polygon fill="midnightblue" stroke="midnightblue" points="1199.55,-72.02 1209.47,-68.28 1199.39,-65.02 1199.55,-72.02"/>
</g>
<!-- Node12 -->
<g id="node12" class="node">
<title>Node12</title>
<g id="a_node12"><a xlink:href="Constants_8h.html" target="_top" xlink:title="Definitions for names of structures required by serialization methods.">
<polygon fill="none" stroke="black" points="356.5,-336.5 356.5,-355.5 461.5,-355.5 461.5,-336.5 356.5,-336.5"/>
<text text-anchor="middle" x="409" y="-343.5" font-family="Helvetica,sans-Serif" font-size="10.00">fire/io/Constants.h</text>
</a>
</g>
</g>
<!-- Node8&#45;&gt;Node12 -->
<g id="edge14" class="edge">
<title>Node8&#45;&gt;Node12</title>
<path fill="none" stroke="midnightblue" d="M409,-397.98C409,-389.58 409,-376.48 409,-365.66"/>
<polygon fill="midnightblue" stroke="midnightblue" points="412.5,-365.51 409,-355.51 405.5,-365.51 412.5,-365.51"/>
</g>
<!-- Node13 -->
<g id="node13" class="node">
<title>Node13</title>
<g id="a_node13"><a xlink:href="Data_8h_source.html" target="_top" xlink:title=" ">
<polygon fill="none" stroke="black" points="816,-280.5 816,-299.5 896,-299.5 896,-280.5 816,-280.5"/>
<text text-anchor="middle" x="856" y="-287.5" font-family="Helvetica,sans-Serif" font-size="10.00">fire/io/Data.h</text>
</a>
</g>
</g>
<!-- Node8&#45;&gt;Node13 -->
<g id="edge16" class="edge">
<title>Node8&#45;&gt;Node13</title>
<path fill="none" stroke="midnightblue" d="M462.61,-401.15C522.39,-394.31 621.52,-380.33 704,-356 750,-342.43 800.72,-318.88 830.39,-304.16"/>
<polygon fill="midnightblue" stroke="midnightblue" points="832.24,-307.15 839.61,-299.53 829.1,-300.89 832.24,-307.15"/>
</g>
<!-- Node33 -->
<g id="node33" class="node">
<title>Node33</title>
<g id="a_node33"><a xlink:href="ParameterStorage_8h_source.html" target="_top" xlink:title=" ">
<polygon fill="none" stroke="black" points="518,-336.5 518,-355.5 662,-355.5 662,-336.5 518,-336.5"/>
<text text-anchor="middle" x="590" y="-343.5" font-family="Helvetica,sans-Serif" font-size="10.00">fire/io/ParameterStorage.h</text>
</a>
</g>
</g>
<!-- Node8&#45;&gt;Node33 -->
<g id="edge53" class="edge">
<title>Node8&#45;&gt;Node33</title>
<path fill="none" stroke="midnightblue" d="M434.93,-397.98C466.25,-387.68 519.09,-370.31 554.26,-358.75"/>
<polygon fill="midnightblue" stroke="midnightblue" points="555.71,-361.96 564.12,-355.51 553.52,-355.31 555.71,-361.96"/>
</g>
<!-- Node12&#45;&gt;Node3 -->
<g id="edge15" class="edge">
<title>Node12&#45;&gt;Node3</title>
<path fill="none" stroke="midnightblue" d="M389.7,-336.48C375.57,-329.08 357.44,-316.89 349,-300 300.38,-202.77 287.2,-130.88 366,-56 376.8,-45.74 465.58,-26.98 514.66,-17.24"/>
<polygon fill="midnightblue" stroke="midnightblue" points="515.64,-20.62 524.78,-15.25 514.29,-13.75 515.64,-20.62"/>
</g>
<!-- Node13&#45;&gt;Node5 -->
<g id="edge20" class="edge">
<title>Node13&#45;&gt;Node5</title>
<path fill="none" stroke="midnightblue" d="M843.93,-280.42C831.78,-271.64 812.65,-257.42 797,-244 760.01,-212.29 759.35,-193.76 718,-168 709.68,-162.82 656.98,-144.42 623.02,-132.82"/>
<polygon fill="midnightblue" stroke="midnightblue" points="623.74,-129.37 613.15,-129.46 621.49,-136 623.74,-129.37"/>
</g>
<!-- Node14 -->
<g id="node14" class="node">
<title>Node14</title>
<g id="a_node14"><a xlink:title=" ">
<polygon fill="none" stroke="#bfbfbf" points="1543,-56.5 1543,-75.5 1601,-75.5 1601,-56.5 1543,-56.5"/>
<text text-anchor="middle" x="1572" y="-63.5" font-family="Helvetica,sans-Serif" font-size="10.00">memory</text>
</a>
</g>
</g>
<!-- Node13&#45;&gt;Node14 -->
<g id="edge17" class="edge">
<title>Node13&#45;&gt;Node14</title>
<path fill="none" stroke="midnightblue" d="M896.03,-284.37C953.77,-277.37 1063.64,-262.9 1156,-244 1180.18,-239.05 1570.9,-151.53 1586,-132 1596.55,-118.35 1590.01,-98.47 1582.73,-84.3"/>
<polygon fill="midnightblue" stroke="midnightblue" points="1585.75,-82.53 1577.78,-75.54 1579.66,-85.97 1585.75,-82.53"/>
</g>
<!-- Node15 -->
<g id="node15" class="node">
<title>Node15</title>
<g id="a_node15"><a xlink:title=" ">
<polygon fill="none" stroke="#bfbfbf" points="853.5,-112.5 853.5,-131.5 922.5,-131.5 922.5,-112.5 853.5,-112.5"/>
<text text-anchor="middle" x="888" y="-119.5" font-family="Helvetica,sans-Serif" font-size="10.00">type_traits</text>
</a>
</g>
</g>
<!-- Node13&#45;&gt;Node15 -->
<g id="edge18" class="edge">
<title>Node13&#45;&gt;Node15</title>
<path fill="none" stroke="midnightblue" d="M896.33,-284.64C944,-278.57 1019,-265.77 1036,-244 1056.79,-217.38 1056.11,-195.14 1036,-168 1029.63,-159.4 973.84,-144.07 932.63,-133.72"/>
<polygon fill="midnightblue" stroke="midnightblue" points="933.31,-130.29 922.76,-131.27 931.62,-137.08 933.31,-130.29"/>
</g>
<!-- Node16 -->
<g id="node16" class="node">
<title>Node16</title>
<g id="a_node16"><a xlink:title=" ">
<polygon fill="none" stroke="#bfbfbf" points="788.5,-112.5 788.5,-131.5 835.5,-131.5 835.5,-112.5 788.5,-112.5"/>
<text text-anchor="middle" x="812" y="-119.5" font-family="Helvetica,sans-Serif" font-size="10.00">vector</text>
</a>
</g>
</g>
<!-- Node13&#45;&gt;Node16 -->
<g id="edge19" class="edge">
<title>Node13&#45;&gt;Node16</title>
<path fill="none" stroke="midnightblue" d="M843.05,-280.25C832.16,-272.16 817.11,-259.14 809,-244 792.91,-213.97 794.23,-201.73 799,-168 800.27,-159.04 802.89,-149.37 805.45,-141.3"/>
<polygon fill="midnightblue" stroke="midnightblue" points="808.77,-142.4 808.66,-131.8 802.14,-140.16 808.77,-142.4"/>
</g>
<!-- Node17 -->
<g id="node17" class="node">
<title>Node17</title>
<g id="a_node17"><a xlink:href="AbstractData_8h_source.html" target="_top" xlink:title=" ">
<polygon fill="none" stroke="black" points="1209,-112.5 1209,-131.5 1329,-131.5 1329,-112.5 1209,-112.5"/>
<text text-anchor="middle" x="1269" y="-119.5" font-family="Helvetica,sans-Serif" font-size="10.00">fire/io/AbstractData.h</text>
</a>
</g>
</g>
<!-- Node13&#45;&gt;Node17 -->
<g id="edge21" class="edge">
<title>Node13&#45;&gt;Node17</title>
<path fill="none" stroke="midnightblue" d="M896.01,-287.56C968.63,-283.05 1123.98,-264.46 1225,-188 1241.24,-175.71 1253.52,-155.6 1260.93,-141.01"/>
<polygon fill="midnightblue" stroke="midnightblue" points="1264.1,-142.47 1265.26,-131.94 1257.79,-139.45 1264.1,-142.47"/>
</g>
<!-- Node18 -->
<g id="node18" class="node">
<title>Node18</title>
<g id="a_node18"><a xlink:href="Writer_8h_source.html" target="_top" xlink:title=" ">
<polygon fill="none" stroke="black" points="818,-224.5 818,-243.5 904,-243.5 904,-224.5 818,-224.5"/>
<text text-anchor="middle" x="861" y="-231.5" font-family="Helvetica,sans-Serif" font-size="10.00">fire/io/Writer.h</text>
</a>
</g>
</g>
<!-- Node13&#45;&gt;Node18 -->
<g id="edge24" class="edge">
<title>Node13&#45;&gt;Node18</title>
<path fill="none" stroke="midnightblue" d="M856.83,-280.08C857.48,-273.01 858.42,-262.86 859.24,-253.99"/>
<polygon fill="midnightblue" stroke="midnightblue" points="862.75,-254.03 860.19,-243.75 855.78,-253.39 862.75,-254.03"/>
</g>
<!-- Node29 -->
<g id="node29" class="node">
<title>Node29</title>
<g id="a_node29"><a xlink:href="h5_2Reader_8h_source.html" target="_top" xlink:title=" ">
<polygon fill="none" stroke="black" points="922.5,-224.5 922.5,-243.5 1027.5,-243.5 1027.5,-224.5 922.5,-224.5"/>
<text text-anchor="middle" x="975" y="-231.5" font-family="Helvetica,sans-Serif" font-size="10.00">fire/io/h5/Reader.h</text>
</a>
</g>
</g>
<!-- Node13&#45;&gt;Node29 -->
<g id="edge42" class="edge">
<title>Node13&#45;&gt;Node29</title>
<path fill="none" stroke="midnightblue" d="M874.86,-280.44C894.27,-271.64 924.73,-257.81 946.96,-247.72"/>
<polygon fill="midnightblue" stroke="midnightblue" points="948.57,-250.84 956.23,-243.52 945.68,-244.46 948.57,-250.84"/>
</g>
<!-- Node17&#45;&gt;Node3 -->
<g id="edge22" class="edge">
<title>Node17&#45;&gt;Node3</title>
<path fill="none" stroke="midnightblue" d="M1255.76,-112.29C1230.86,-96.1 1177.73,-62.41 1157,-56 1047.52,-22.17 689.11,-13.4 579.28,-11.48"/>
<polygon fill="midnightblue" stroke="midnightblue" points="579.21,-7.98 569.16,-11.31 579.1,-14.97 579.21,-7.98"/>
</g>
<!-- Node17&#45;&gt;Node11 -->
<g id="edge23" class="edge">
<title>Node17&#45;&gt;Node11</title>
<path fill="none" stroke="midnightblue" d="M1269,-112.08C1269,-105.01 1269,-94.86 1269,-85.99"/>
<polygon fill="midnightblue" stroke="midnightblue" points="1272.5,-85.75 1269,-75.75 1265.5,-85.75 1272.5,-85.75"/>
</g>
<!-- Node19 -->
<g id="node19" class="node">
<title>Node19</title>
<g id="a_node19"><a xlink:title=" ">
<polygon fill="none" stroke="#bfbfbf" points="808,-168.5 808,-187.5 918,-187.5 918,-168.5 808,-168.5"/>
<text text-anchor="middle" x="863" y="-175.5" font-family="Helvetica,sans-Serif" font-size="10.00">highfive/H5File.hpp</text>
</a>
</g>
</g>
<!-- Node18&#45;&gt;Node19 -->
<g id="edge25" class="edge">
<title>Node18&#45;&gt;Node19</title>
<path fill="none" stroke="midnightblue" d="M861.33,-224.08C861.59,-217.01 861.97,-206.86 862.3,-197.99"/>
<polygon fill="midnightblue" stroke="midnightblue" points="865.8,-197.87 862.68,-187.75 858.81,-197.61 865.8,-197.87"/>
</g>
<!-- Node18&#45;&gt;Node20 -->
<g id="edge26" class="edge">
<title>Node18&#45;&gt;Node20</title>
<path fill="none" stroke="midnightblue" d="M904.27,-224.92C954.82,-215.47 1038.58,-199.82 1094.04,-189.46"/>
<polygon fill="midnightblue" stroke="midnightblue" points="1094.86,-192.86 1104.05,-187.59 1093.57,-185.98 1094.86,-192.86"/>
</g>
<!-- Node27 -->
<g id="node27" class="node">
<title>Node27</title>
<g id="a_node27"><a xlink:href="Atomic_8h.html" target="_top" xlink:title=" ">
<polygon fill="none" stroke="black" points="936.5,-168.5 936.5,-187.5 1027.5,-187.5 1027.5,-168.5 936.5,-168.5"/>
<text text-anchor="middle" x="982" y="-175.5" font-family="Helvetica,sans-Serif" font-size="10.00">fire/io/Atomic.h</text>
</a>
</g>
</g>
<!-- Node18&#45;&gt;Node27 -->
<g id="edge39" class="edge">
<title>Node18&#45;&gt;Node27</title>
<path fill="none" stroke="midnightblue" d="M880.17,-224.44C899.91,-215.64 930.89,-201.81 953.49,-191.72"/>
<polygon fill="midnightblue" stroke="midnightblue" points="955.21,-194.79 962.92,-187.52 952.36,-188.4 955.21,-194.79"/>
</g>
<!-- Node20&#45;&gt;Node3 -->
<g id="edge31" class="edge">
<title>Node20&#45;&gt;Node3</title>
<path fill="none" stroke="midnightblue" d="M1155.36,-168.28C1162.98,-154.61 1174.63,-128.05 1161,-112 1084.97,-22.45 694.98,-12.16 579.35,-11.09"/>
<polygon fill="midnightblue" stroke="midnightblue" points="579.06,-7.59 569.04,-11.01 579.01,-14.59 579.06,-7.59"/>
</g>
<!-- Node20&#45;&gt;Node5 -->
<g id="edge30" class="edge">
<title>Node20&#45;&gt;Node5</title>
<path fill="none" stroke="midnightblue" d="M1083.89,-171.77C956.55,-161.63 684.93,-139.75 623.19,-131.39"/>
<polygon fill="midnightblue" stroke="midnightblue" points="623.56,-127.9 613.13,-129.78 622.45,-134.82 623.56,-127.9"/>
</g>
<!-- Node20&#45;&gt;Node7 -->
<g id="edge28" class="edge">
<title>Node20&#45;&gt;Node7</title>
<path fill="none" stroke="midnightblue" d="M1083.99,-171.76C1068.27,-170.52 1051.54,-169.21 1036,-168 827.13,-151.76 774.53,-152.16 566,-132 554.08,-130.85 541.15,-129.41 529.35,-128.02"/>
<polygon fill="midnightblue" stroke="midnightblue" points="529.67,-124.54 519.32,-126.83 528.84,-131.49 529.67,-124.54"/>
</g>
<!-- Node20&#45;&gt;Node15 -->
<g id="edge32" class="edge">
<title>Node20&#45;&gt;Node15</title>
<path fill="none" stroke="midnightblue" d="M1108.49,-168.44C1060.53,-158.56 981.92,-142.36 932.67,-132.21"/>
<polygon fill="midnightblue" stroke="midnightblue" points="933.13,-128.73 922.63,-130.14 931.71,-135.58 933.13,-128.73"/>
</g>
<!-- Node20&#45;&gt;Node16 -->
<g id="edge34" class="edge">
<title>Node20&#45;&gt;Node16</title>
<path fill="none" stroke="midnightblue" d="M1083.9,-169.76C1023.88,-162.63 932.8,-150.39 845.48,-132.11"/>
<polygon fill="midnightblue" stroke="midnightblue" points="846.19,-128.68 835.68,-130.03 844.74,-135.53 846.19,-128.68"/>
</g>
<!-- Node21 -->
<g id="node21" class="node">
<title>Node21</title>
<g id="a_node21"><a xlink:title=" ">
<polygon fill="none" stroke="#bfbfbf" points="979.5,-112.5 979.5,-131.5 1014.5,-131.5 1014.5,-112.5 979.5,-112.5"/>
<text text-anchor="middle" x="997" y="-119.5" font-family="Helvetica,sans-Serif" font-size="10.00">any</text>
</a>
</g>
</g>
<!-- Node20&#45;&gt;Node21 -->
<g id="edge27" class="edge">
<title>Node20&#45;&gt;Node21</title>
<path fill="none" stroke="midnightblue" d="M1125.76,-168.44C1098.17,-158.71 1053.22,-142.84 1024.39,-132.67"/>
<polygon fill="midnightblue" stroke="midnightblue" points="1025.51,-129.35 1014.92,-129.32 1023.18,-135.95 1025.51,-129.35"/>
</g>
<!-- Node22 -->
<g id="node22" class="node">
<title>Node22</title>
<g id="a_node22"><a xlink:title=" ">
<polygon fill="none" stroke="#bfbfbf" points="1033,-112.5 1033,-131.5 1077,-131.5 1077,-112.5 1033,-112.5"/>
<text text-anchor="middle" x="1055" y="-119.5" font-family="Helvetica,sans-Serif" font-size="10.00">limits</text>
</a>
</g>
</g>
<!-- Node20&#45;&gt;Node22 -->
<g id="edge29" class="edge">
<title>Node20&#45;&gt;Node22</title>
<path fill="none" stroke="midnightblue" d="M1134.74,-168.32C1119.78,-159.82 1096.75,-146.73 1079.27,-136.8"/>
<polygon fill="midnightblue" stroke="midnightblue" points="1080.65,-133.55 1070.23,-131.65 1077.19,-139.64 1080.65,-133.55"/>
</g>
<!-- Node23 -->
<g id="node23" class="node">
<title>Node23</title>
<g id="a_node23"><a xlink:title=" ">
<polygon fill="none" stroke="#bfbfbf" points="1095.5,-112.5 1095.5,-131.5 1152.5,-131.5 1152.5,-112.5 1095.5,-112.5"/>
<text text-anchor="middle" x="1124" y="-119.5" font-family="Helvetica,sans-Serif" font-size="10.00">typeinfo</text>
</a>
</g>
</g>
<!-- Node20&#45;&gt;Node23 -->
<g id="edge33" class="edge">
<title>Node20&#45;&gt;Node23</title>
<path fill="none" stroke="midnightblue" d="M1145.71,-168.08C1142.15,-160.69 1136.98,-149.95 1132.58,-140.81"/>
<polygon fill="midnightblue" stroke="midnightblue" points="1135.71,-139.24 1128.21,-131.75 1129.4,-142.28 1135.71,-139.24"/>
</g>
<!-- Node24 -->
<g id="node24" class="node">
<title>Node24</title>
<g id="a_node24"><a xlink:title=" ">
<polygon fill="none" stroke="#bfbfbf" points="1347,-56.5 1347,-75.5 1487,-75.5 1487,-56.5 1347,-56.5"/>
<text text-anchor="middle" x="1417" y="-63.5" font-family="Helvetica,sans-Serif" font-size="10.00">boost/core/demangle.hpp</text>
</a>
</g>
</g>
<!-- Node20&#45;&gt;Node24 -->
<g id="edge35" class="edge">
<title>Node20&#45;&gt;Node24</title>
<path fill="none" stroke="midnightblue" d="M1216.03,-168.7C1253.27,-162.21 1299.84,-150.99 1338,-132 1362.96,-119.58 1387,-97.96 1401.88,-83.09"/>
<polygon fill="midnightblue" stroke="midnightblue" points="1404.68,-85.23 1409.14,-75.62 1399.66,-80.35 1404.68,-85.23"/>
</g>
<!-- Node20&#45;&gt;Node25 -->
<g id="edge36" class="edge">
<title>Node20&#45;&gt;Node25</title>
<path fill="none" stroke="midnightblue" d="M1103.62,-168.45C1066.74,-160.94 1014.17,-148.6 970,-132 951.77,-125.15 949.7,-117.44 931,-112 857.78,-90.68 646.71,-77.04 528.93,-70.85"/>
<polygon fill="midnightblue" stroke="midnightblue" points="529.04,-67.36 518.87,-70.33 528.68,-74.35 529.04,-67.36"/>
</g>
<!-- Node25&#45;&gt;Node3 -->
<g id="edge38" class="edge">
<title>Node25&#45;&gt;Node3</title>
<path fill="none" stroke="midnightblue" d="M463.07,-56.32C478.96,-47.74 503.51,-34.49 521.96,-24.52"/>
<polygon fill="midnightblue" stroke="midnightblue" points="523.84,-27.49 530.97,-19.65 520.51,-21.33 523.84,-27.49"/>
</g>
<!-- Node26 -->
<g id="node26" class="node">
<title>Node26</title>
<g id="a_node26"><a xlink:title=" ">
<polygon fill="none" stroke="#bfbfbf" points="414.5,-0.5 414.5,-19.5 479.5,-19.5 479.5,-0.5 414.5,-0.5"/>
<text text-anchor="middle" x="447" y="-7.5" font-family="Helvetica,sans-Serif" font-size="10.00">exception</text>
</a>
</g>
</g>
<!-- Node25&#45;&gt;Node26 -->
<g id="edge37" class="edge">
<title>Node25&#45;&gt;Node26</title>
<path fill="none" stroke="midnightblue" d="M447,-56.08C447,-49.01 447,-38.86 447,-29.99"/>
<polygon fill="midnightblue" stroke="midnightblue" points="450.5,-29.75 447,-19.75 443.5,-29.75 450.5,-29.75"/>
</g>
<!-- Node27&#45;&gt;Node15 -->
<g id="edge40" class="edge">
<title>Node27&#45;&gt;Node15</title>
<path fill="none" stroke="midnightblue" d="M966.9,-168.32C952.1,-159.82 929.31,-146.73 912.02,-136.8"/>
<polygon fill="midnightblue" stroke="midnightblue" points="913.48,-133.6 903.07,-131.65 909.99,-139.67 913.48,-133.6"/>
</g>
<!-- Node28 -->
<g id="node28" class="node">
<title>Node28</title>
<g id="a_node28"><a xlink:title=" ">
<polygon fill="none" stroke="#bfbfbf" points="631.5,-112.5 631.5,-131.5 770.5,-131.5 770.5,-112.5 631.5,-112.5"/>
<text text-anchor="middle" x="701" y="-119.5" font-family="Helvetica,sans-Serif" font-size="10.00">highfive/H5DataType.hpp</text>
</a>
</g>
</g>
<!-- Node27&#45;&gt;Node28 -->
<g id="edge41" class="edge">
<title>Node27&#45;&gt;Node28</title>
<path fill="none" stroke="midnightblue" d="M937.47,-168.44C888.04,-158.94 808.25,-143.61 755.22,-133.42"/>
<polygon fill="midnightblue" stroke="midnightblue" points="755.8,-129.97 745.32,-131.52 754.48,-136.84 755.8,-129.97"/>
</g>
<!-- Node29&#45;&gt;Node19 -->
<g id="edge43" class="edge">
<title>Node29&#45;&gt;Node19</title>
<path fill="none" stroke="midnightblue" d="M957.01,-224.32C938.96,-215.62 910.95,-202.12 890.2,-192.11"/>
<polygon fill="midnightblue" stroke="midnightblue" points="891.48,-188.84 880.95,-187.65 888.44,-195.15 891.48,-188.84"/>
</g>
<!-- Node29&#45;&gt;Node27 -->
<g id="edge52" class="edge">
<title>Node29&#45;&gt;Node27</title>
<path fill="none" stroke="midnightblue" d="M976.16,-224.08C977.08,-216.93 978.42,-206.64 979.58,-197.69"/>
<polygon fill="midnightblue" stroke="midnightblue" points="983.05,-198.12 980.87,-187.75 976.11,-197.22 983.05,-198.12"/>
</g>
<!-- Node30 -->
<g id="node30" class="node">
<title>Node30</title>
<g id="a_node30"><a xlink:href="Reader_8h_source.html" target="_top" xlink:title=" ">
<polygon fill="none" stroke="black" points="1272,-168.5 1272,-187.5 1362,-187.5 1362,-168.5 1272,-168.5"/>
<text text-anchor="middle" x="1317" y="-175.5" font-family="Helvetica,sans-Serif" font-size="10.00">fire/io/Reader.h</text>
</a>
</g>
</g>
<!-- Node29&#45;&gt;Node30 -->
<g id="edge44" class="edge">
<title>Node29&#45;&gt;Node30</title>
<path fill="none" stroke="midnightblue" d="M1027.69,-224.68C1091.18,-214.66 1197.36,-197.89 1261.91,-187.7"/>
<polygon fill="midnightblue" stroke="midnightblue" points="1262.57,-191.14 1271.9,-186.12 1261.48,-184.22 1262.57,-191.14"/>
</g>
<!-- Node30&#45;&gt;Node17 -->
<g id="edge51" class="edge">
<title>Node30&#45;&gt;Node17</title>
<path fill="none" stroke="midnightblue" d="M1309.07,-168.08C1302.15,-160.3 1291.93,-148.8 1283.55,-139.37"/>
<polygon fill="midnightblue" stroke="midnightblue" points="1286.04,-136.9 1276.78,-131.75 1280.81,-141.55 1286.04,-136.9"/>
</g>
<!-- Node30&#45;&gt;Node31 -->
<g id="edge45" class="edge">
<title>Node30&#45;&gt;Node31</title>
<path fill="none" stroke="midnightblue" d="M1349.01,-168.44C1383.73,-159.16 1439.29,-144.31 1477.38,-134.13"/>
<polygon fill="midnightblue" stroke="midnightblue" points="1478.39,-137.48 1487.14,-131.52 1476.58,-130.72 1478.39,-137.48"/>
</g>
<!-- Node31&#45;&gt;Node3 -->
<g id="edge47" class="edge">
<title>Node31&#45;&gt;Node3</title>
<path fill="none" stroke="midnightblue" d="M1518.79,-112.06C1517.91,-97.58 1513.87,-69.28 1496,-56 1458.47,-28.11 742.65,-14.32 579.78,-11.53"/>
<polygon fill="midnightblue" stroke="midnightblue" points="579.5,-8.03 569.45,-11.36 579.39,-15.03 579.5,-8.03"/>
</g>
<!-- Node31&#45;&gt;Node14 -->
<g id="edge46" class="edge">
<title>Node31&#45;&gt;Node14</title>
<path fill="none" stroke="midnightblue" d="M1527.75,-112.08C1535.47,-104.22 1546.9,-92.57 1556.22,-83.08"/>
<polygon fill="midnightblue" stroke="midnightblue" points="1558.9,-85.34 1563.41,-75.75 1553.91,-80.44 1558.9,-85.34"/>
</g>
<!-- Node31&#45;&gt;Node24 -->
<g id="edge49" class="edge">
<title>Node31&#45;&gt;Node24</title>
<path fill="none" stroke="midnightblue" d="M1502.61,-112.32C1486.33,-103.7 1461.13,-90.36 1442.28,-80.39"/>
<polygon fill="midnightblue" stroke="midnightblue" points="1443.82,-77.24 1433.35,-75.65 1440.55,-83.43 1443.82,-77.24"/>
</g>
<!-- Node31&#45;&gt;Node25 -->
<g id="edge50" class="edge">
<title>Node31&#45;&gt;Node25</title>
<path fill="none" stroke="midnightblue" d="M1460.98,-118.08C1281.8,-109.05 736.75,-81.6 528.8,-71.12"/>
<polygon fill="midnightblue" stroke="midnightblue" points="528.72,-67.61 518.56,-70.6 528.37,-74.6 528.72,-67.61"/>
</g>
<!-- Node32 -->
<g id="node32" class="node">
<title>Node32</title>
<g id="a_node32"><a xlink:title=" ">
<polygon fill="none" stroke="#bfbfbf" points="1619.5,-56.5 1619.5,-75.5 1712.5,-75.5 1712.5,-56.5 1619.5,-56.5"/>
<text text-anchor="middle" x="1666" y="-63.5" font-family="Helvetica,sans-Serif" font-size="10.00">unordered_map</text>
</a>
</g>
</g>
<!-- Node31&#45;&gt;Node32 -->
<g id="edge48" class="edge">
<title>Node31&#45;&gt;Node32</title>
<path fill="none" stroke="midnightblue" d="M1542.29,-112.44C1566.81,-103.44 1605.6,-89.19 1633.2,-79.05"/>
<polygon fill="midnightblue" stroke="midnightblue" points="1634.64,-82.25 1642.82,-75.52 1632.22,-75.68 1634.64,-82.25"/>
</g>
<!-- Node33&#45;&gt;Node3 -->
<g id="edge57" class="edge">
<title>Node33&#45;&gt;Node3</title>
<path fill="none" stroke="midnightblue" d="M584.02,-336.33C572.21,-318.32 547,-275.19 547,-235 547,-235 547,-235 547,-121 547,-88.95 547,-51.64 547,-29.75"/>
<polygon fill="midnightblue" stroke="midnightblue" points="550.5,-29.56 547,-19.56 543.5,-29.56 550.5,-29.56"/>
</g>
<!-- Node33&#45;&gt;Node5 -->
<g id="edge56" class="edge">
<title>Node33&#45;&gt;Node5</title>
<path fill="none" stroke="midnightblue" d="M590.16,-336.3C590.75,-303.63 592.83,-187.87 593.66,-141.96"/>
<polygon fill="midnightblue" stroke="midnightblue" points="597.16,-141.95 593.84,-131.88 590.16,-141.82 597.16,-141.95"/>
</g>
<!-- Node33&#45;&gt;Node7 -->
<g id="edge55" class="edge">
<title>Node33&#45;&gt;Node7</title>
<path fill="none" stroke="midnightblue" d="M574.05,-336.42C561.06,-328.61 543.25,-315.89 533,-300 500.29,-249.31 491.9,-176.02 489.74,-141.86"/>
<polygon fill="midnightblue" stroke="midnightblue" points="493.22,-141.31 489.21,-131.51 486.23,-141.67 493.22,-141.31"/>
</g>
<!-- Node33&#45;&gt;Node10 -->
<g id="edge58" class="edge">
<title>Node33&#45;&gt;Node10</title>
<path fill="none" stroke="midnightblue" d="M562.59,-336.44C532.71,-327.12 484.83,-312.17 452.19,-301.99"/>
<polygon fill="midnightblue" stroke="midnightblue" points="453.18,-298.63 442.59,-298.99 451.1,-305.31 453.18,-298.63"/>
</g>
<!-- Node33&#45;&gt;Node13 -->
<g id="edge59" class="edge">
<title>Node33&#45;&gt;Node13</title>
<path fill="none" stroke="midnightblue" d="M632.15,-336.44C679.29,-326.87 755.62,-311.38 805.81,-301.19"/>
<polygon fill="midnightblue" stroke="midnightblue" points="806.69,-304.58 815.79,-299.16 805.29,-297.72 806.69,-304.58"/>
</g>
<!-- Node33&#45;&gt;Node24 -->
<g id="edge54" class="edge">
<title>Node33&#45;&gt;Node24</title>
<path fill="none" stroke="midnightblue" d="M662.2,-340.13C835.66,-326.98 1269.03,-284.98 1371,-188 1400.08,-160.34 1410.97,-112.39 1414.9,-85.92"/>
<polygon fill="midnightblue" stroke="midnightblue" points="1418.41,-86.08 1416.23,-75.71 1411.47,-85.18 1418.41,-86.08"/>
</g>
<!-- Node33&#45;&gt;Node25 -->
<g id="edge61" class="edge">
<title>Node33&#45;&gt;Node25</title>
<path fill="none" stroke="midnightblue" d="M569.84,-336.41C554.15,-328.84 532.78,-316.44 519,-300 467.14,-238.15 467.45,-210.81 450,-132 446.6,-116.64 446.01,-98.77 446.18,-85.65"/>
<polygon fill="midnightblue" stroke="midnightblue" points="449.68,-85.63 446.47,-75.54 442.69,-85.43 449.68,-85.63"/>
</g>
<!-- Node33&#45;&gt;Node30 -->
<g id="edge60" class="edge">
<title>Node33&#45;&gt;Node30</title>
<path fill="none" stroke="midnightblue" d="M662.4,-337.94C771.4,-326.01 983.25,-297.74 1156,-244 1203.79,-229.13 1257.31,-206.21 1289.03,-191.93"/>
<polygon fill="midnightblue" stroke="midnightblue" points="1290.87,-194.94 1298.53,-187.62 1287.97,-188.57 1290.87,-194.94"/>
</g>
<!-- Node34&#45;&gt;Node3 -->
<g id="edge65" class="edge">
<title>Node34&#45;&gt;Node3</title>
<path fill="none" stroke="midnightblue" d="M892.14,-405.06C962.45,-401.78 1095.09,-391.05 1202,-356 1455.53,-272.87 1907.02,-248.24 1722,-56 1681.27,-13.68 763.97,-11.08 579.24,-10.99"/>
<polygon fill="midnightblue" stroke="midnightblue" points="579.09,-7.49 569.09,-10.99 579.08,-14.49 579.09,-7.49"/>
</g>
<!-- Node34&#45;&gt;Node5 -->
<g id="edge64" class="edge">
<title>Node34&#45;&gt;Node5</title>
<path fill="none" stroke="midnightblue" d="M838.91,-397.57C823.02,-363.63 762.09,-240.97 680,-168 663.1,-152.98 640.3,-141.34 622.42,-133.67"/>
<polygon fill="midnightblue" stroke="midnightblue" points="623.64,-130.39 613.06,-129.82 620.97,-136.86 623.64,-130.39"/>
</g>
<!-- Node34&#45;&gt;Node11 -->
<g id="edge66" class="edge">
<title>Node34&#45;&gt;Node11</title>
<path fill="none" stroke="midnightblue" d="M892.07,-405.59C1005.9,-400.37 1284.83,-368.92 1371,-188 1392.46,-142.95 1332.14,-100.92 1295.27,-80.3"/>
<polygon fill="midnightblue" stroke="midnightblue" points="1296.92,-77.22 1286.46,-75.53 1293.59,-83.37 1296.92,-77.22"/>
</g>
<!-- Node34&#45;&gt;Node12 -->
<g id="edge67" class="edge">
<title>Node34&#45;&gt;Node12</title>
<path fill="none" stroke="midnightblue" d="M793.64,-399.73C714.35,-388.86 558.73,-367.53 471.7,-355.6"/>
<polygon fill="midnightblue" stroke="midnightblue" points="472.08,-352.11 461.69,-354.22 471.12,-359.05 472.08,-352.11"/>
</g>
<!-- Node34&#45;&gt;Node13 -->
<g id="edge68" class="edge">
<title>Node34&#45;&gt;Node13</title>
<path fill="none" stroke="midnightblue" d="M843.98,-397.82C846.07,-379.26 851.01,-335.34 853.86,-309.97"/>
<polygon fill="midnightblue" stroke="midnightblue" points="857.37,-310.11 855.01,-299.78 850.41,-309.33 857.37,-310.11"/>
</g>
<!-- Node34&#45;&gt;Node33 -->
<g id="edge69" class="edge">
<title>Node34&#45;&gt;Node33</title>
<path fill="none" stroke="midnightblue" d="M806.75,-397.98C761.85,-387.42 685.29,-369.41 636.22,-357.87"/>
<polygon fill="midnightblue" stroke="midnightblue" points="636.72,-354.39 626.18,-355.51 635.11,-361.21 636.72,-354.39"/>
</g>
<!-- Node35&#45;&gt;Node32 -->
<g id="edge84" class="edge">
<title>Node35&#45;&gt;Node32</title>
<path fill="none" stroke="midnightblue" d="M2329.26,-473.84C2492.17,-474.19 2943.46,-470.78 2988,-423 2997.39,-412.92 2996.5,-402.84 2988,-392 2826.53,-186.03 1955.01,-93.2 1722.85,-71.9"/>
<polygon fill="midnightblue" stroke="midnightblue" points="1722.88,-68.39 1712.6,-70.97 1722.25,-75.36 1722.88,-68.39"/>
</g>
<!-- Node36 -->
<g id="node36" class="node">
<title>Node36</title>
<g id="a_node36"><a xlink:title=" ">
<polygon fill="none" stroke="#bfbfbf" points="2575.5,-398 2575.5,-417 2682.5,-417 2682.5,-398 2575.5,-398"/>
<text text-anchor="middle" x="2629" y="-405" font-family="Helvetica,sans-Serif" font-size="10.00">boost/log/core.hpp</text>
</a>
</g>
</g>
<!-- Node35&#45;&gt;Node36 -->
<g id="edge74" class="edge">
<title>Node35&#45;&gt;Node36</title>
<path fill="none" stroke="midnightblue" d="M2327.11,-464.97C2386.78,-455.65 2483.84,-439.8 2567,-423 2572.69,-421.85 2578.66,-420.56 2584.55,-419.24"/>
<polygon fill="midnightblue" stroke="midnightblue" points="2585.36,-422.65 2594.32,-417 2583.79,-415.82 2585.36,-422.65"/>
</g>
<!-- Node37 -->
<g id="node37" class="node">
<title>Node37</title>
<g id="a_node37"><a xlink:title=" ">
<polygon fill="none" stroke="#bfbfbf" points="2701,-398 2701,-417 2845,-417 2845,-398 2701,-398"/>
<text text-anchor="middle" x="2773" y="-405" font-family="Helvetica,sans-Serif" font-size="10.00">boost/log/expressions.hpp</text>
</a>
</g>
</g>
<!-- Node35&#45;&gt;Node37 -->
<g id="edge75" class="edge">
<title>Node35&#45;&gt;Node37</title>
<path fill="none" stroke="midnightblue" d="M2329.03,-467.61C2410.35,-459.11 2562.77,-442.3 2692,-423 2700.43,-421.74 2709.33,-420.28 2718.02,-418.78"/>
<polygon fill="midnightblue" stroke="midnightblue" points="2718.84,-422.19 2728.09,-417.02 2717.63,-415.3 2718.84,-422.19"/>
</g>
<!-- Node38 -->
<g id="node38" class="node">
<title>Node38</title>
<g id="a_node38"><a xlink:title=" ">
<polygon fill="none" stroke="#bfbfbf" points="2863,-392.5 2863,-422.5 2979,-422.5 2979,-392.5 2863,-392.5"/>
<text text-anchor="start" x="2871" y="-410.5" font-family="Helvetica,sans-Serif" font-size="10.00">boost/log/sinks/sync</text>
<text text-anchor="middle" x="2921" y="-399.5" font-family="Helvetica,sans-Serif" font-size="10.00">_frontend.hpp</text>
</a>
</g>
</g>
<!-- Node35&#45;&gt;Node38 -->
<g id="edge76" class="edge">
<title>Node35&#45;&gt;Node38</title>
<path fill="none" stroke="midnightblue" d="M2329.21,-470.9C2432.7,-465.76 2655.57,-452.26 2853,-423.02"/>
<polygon fill="midnightblue" stroke="midnightblue" points="2853.61,-426.47 2862.98,-421.53 2852.57,-419.55 2853.61,-426.47"/>
</g>
<!-- Node39 -->
<g id="node39" class="node">
<title>Node39</title>
<g id="a_node39"><a xlink:title=" ">
<polygon fill="none" stroke="#bfbfbf" points="1499.5,-392.5 1499.5,-422.5 1628.5,-422.5 1628.5,-392.5 1499.5,-392.5"/>
<text text-anchor="start" x="1507.5" y="-410.5" font-family="Helvetica,sans-Serif" font-size="10.00">boost/log/sinks/text</text>
<text text-anchor="middle" x="1564" y="-399.5" font-family="Helvetica,sans-Serif" font-size="10.00">_ostream_backend.hpp</text>
</a>
</g>
</g>
<!-- Node35&#45;&gt;Node39 -->
<g id="edge77" class="edge">
<title>Node35&#45;&gt;Node39</title>
<path fill="none" stroke="midnightblue" d="M2212.72,-471.07C2102.57,-466 1856.13,-452.35 1638.51,-422.95"/>
<polygon fill="midnightblue" stroke="midnightblue" points="1638.88,-419.47 1628.5,-421.59 1637.94,-426.41 1638.88,-419.47"/>
</g>
<!-- Node40 -->
<g id="node40" class="node">
<title>Node40</title>
<g id="a_node40"><a xlink:title=" ">
<polygon fill="none" stroke="#bfbfbf" points="1646.5,-392.5 1646.5,-422.5 1781.5,-422.5 1781.5,-392.5 1646.5,-392.5"/>
<text text-anchor="start" x="1654.5" y="-410.5" font-family="Helvetica,sans-Serif" font-size="10.00">boost/log/sources/global</text>
<text text-anchor="middle" x="1714" y="-399.5" font-family="Helvetica,sans-Serif" font-size="10.00">_logger_storage.hpp</text>
</a>
</g>
</g>
<!-- Node35&#45;&gt;Node40 -->
<g id="edge78" class="edge">
<title>Node35&#45;&gt;Node40</title>
<path fill="none" stroke="midnightblue" d="M2212.81,-468.91C2124.17,-461.59 1949.85,-445.86 1791.48,-422.99"/>
<polygon fill="midnightblue" stroke="midnightblue" points="1791.95,-419.52 1781.55,-421.54 1790.94,-426.45 1791.95,-419.52"/>
</g>
<!-- Node41 -->
<g id="node41" class="node">
<title>Node41</title>
<g id="a_node41"><a xlink:title=" ">
<polygon fill="none" stroke="#bfbfbf" points="1799.5,-392.5 1799.5,-422.5 1944.5,-422.5 1944.5,-392.5 1799.5,-392.5"/>
<text text-anchor="start" x="1807.5" y="-410.5" font-family="Helvetica,sans-Serif" font-size="10.00">boost/log/sources/severity</text>
<text text-anchor="middle" x="1872" y="-399.5" font-family="Helvetica,sans-Serif" font-size="10.00">_channel_logger.hpp</text>
</a>
</g>
</g>
<!-- Node35&#45;&gt;Node41 -->
<g id="edge79" class="edge">
<title>Node35&#45;&gt;Node41</title>
<path fill="none" stroke="midnightblue" d="M2215.69,-464.98C2154.5,-455.49 2052.68,-439.51 1954.92,-423.14"/>
<polygon fill="midnightblue" stroke="midnightblue" points="1955.31,-419.65 1944.87,-421.45 1954.15,-426.56 1955.31,-419.65"/>
</g>
<!-- Node42 -->
<g id="node42" class="node">
<title>Node42</title>
<g id="a_node42"><a xlink:title=" ">
<polygon fill="none" stroke="#bfbfbf" points="1962.5,-392.5 1962.5,-422.5 2107.5,-422.5 2107.5,-392.5 1962.5,-392.5"/>
<text text-anchor="start" x="1970.5" y="-410.5" font-family="Helvetica,sans-Serif" font-size="10.00">boost/log/sources/severity</text>
<text text-anchor="middle" x="2035" y="-399.5" font-family="Helvetica,sans-Serif" font-size="10.00">_feature.hpp</text>
</a>
</g>
</g>
<!-- Node35&#45;&gt;Node42 -->
<g id="edge80" class="edge">
<title>Node35&#45;&gt;Node42</title>
<path fill="none" stroke="midnightblue" d="M2239.66,-464.87C2203.1,-454.8 2141.8,-437.91 2095.8,-425.24"/>
<polygon fill="midnightblue" stroke="midnightblue" points="2096.5,-421.81 2085.93,-422.53 2094.64,-428.56 2096.5,-421.81"/>
</g>
<!-- Node43 -->
<g id="node43" class="node">
<title>Node43</title>
<g id="a_node43"><a xlink:title=" ">
<polygon fill="none" stroke="#bfbfbf" points="2126,-392.5 2126,-422.5 2262,-422.5 2262,-392.5 2126,-392.5"/>
<text text-anchor="start" x="2134" y="-410.5" font-family="Helvetica,sans-Serif" font-size="10.00">boost/log/utility/setup</text>
<text text-anchor="middle" x="2194" y="-399.5" font-family="Helvetica,sans-Serif" font-size="10.00">/common_attributes.hpp</text>
</a>
</g>
</g>
<!-- Node35&#45;&gt;Node43 -->
<g id="edge81" class="edge">
<title>Node35&#45;&gt;Node43</title>
<path fill="none" stroke="midnightblue" d="M2260.62,-464.73C2249.91,-455.7 2232.82,-441.27 2218.64,-429.3"/>
<polygon fill="midnightblue" stroke="midnightblue" points="2220.59,-426.37 2210.69,-422.59 2216.07,-431.71 2220.59,-426.37"/>
</g>
<!-- Node44 -->
<g id="node44" class="node">
<title>Node44</title>
<g id="a_node44"><a xlink:title=" ">
<polygon fill="none" stroke="#bfbfbf" points="2280,-392.5 2280,-422.5 2416,-422.5 2416,-392.5 2280,-392.5"/>
<text text-anchor="start" x="2288" y="-410.5" font-family="Helvetica,sans-Serif" font-size="10.00">boost/log/sources/record</text>
<text text-anchor="middle" x="2348" y="-399.5" font-family="Helvetica,sans-Serif" font-size="10.00">_ostream.hpp</text>
</a>
</g>
</g>
<!-- Node35&#45;&gt;Node44 -->
<g id="edge82" class="edge">
<title>Node35&#45;&gt;Node44</title>
<path fill="none" stroke="midnightblue" d="M2281.38,-464.73C2292.09,-455.7 2309.18,-441.27 2323.36,-429.3"/>
<polygon fill="midnightblue" stroke="midnightblue" points="2325.93,-431.71 2331.31,-422.59 2321.41,-426.37 2325.93,-431.71"/>
</g>
<!-- Node45 -->
<g id="node45" class="node">
<title>Node45</title>
<g id="a_node45"><a xlink:title=" ">
<polygon fill="none" stroke="#bfbfbf" points="2434.5,-392.5 2434.5,-422.5 2557.5,-422.5 2557.5,-392.5 2434.5,-392.5"/>
<text text-anchor="start" x="2442.5" y="-410.5" font-family="Helvetica,sans-Serif" font-size="10.00">boost/log/utility/setup</text>
<text text-anchor="middle" x="2496" y="-399.5" font-family="Helvetica,sans-Serif" font-size="10.00">/file.hpp</text>
</a>
</g>
</g>
<!-- Node35&#45;&gt;Node45 -->
<g id="edge83" class="edge">
<title>Node35&#45;&gt;Node45</title>
<path fill="none" stroke="midnightblue" d="M2300.88,-464.87C2335.66,-454.82 2393.94,-437.99 2437.76,-425.32"/>
<polygon fill="midnightblue" stroke="midnightblue" points="2438.81,-428.67 2447.44,-422.53 2436.86,-421.94 2438.81,-428.67"/>
</g>
</g>
</svg>
