<?xml version="1.0" encoding="UTF-8" standalone="no"?>
<!DOCTYPE svg PUBLIC "-//W3C//DTD SVG 1.1//EN"
 "http://www.w3.org/Graphics/SVG/1.1/DTD/svg11.dtd">
<!-- Generated by graphviz version 2.43.0 (0)
 -->
<!-- Title: include/fire/RandomNumberSeedService.h Pages: 1 -->
<svg width="2599pt" height="565pt"
 viewBox="0.00 0.00 2599.00 565.00" xmlns="http://www.w3.org/2000/svg" xmlns:xlink="http://www.w3.org/1999/xlink">
<g id="graph0" class="graph" transform="scale(1 1) rotate(0) translate(4 561)">
<title>include/fire/RandomNumberSeedService.h</title>
<!-- Node1 -->
<g id="node1" class="node">
<title>Node1</title>
<g id="a_node1"><a xlink:title="Conditions object for random number seeds.">
<polygon fill="#bfbfbf" stroke="black" points="409.5,-526.5 409.5,-556.5 562.5,-556.5 562.5,-526.5 409.5,-526.5"/>
<text text-anchor="start" x="417.5" y="-544.5" font-family="Helvetica,sans-Serif" font-size="10.00">include/fire/RandomNumber</text>
<text text-anchor="middle" x="486" y="-533.5" font-family="Helvetica,sans-Serif" font-size="10.00">SeedService.h</text>
</a>
</g>
</g>
<!-- Node2 -->
<g id="node2" class="node">
<title>Node2</title>
<g id="a_node2"><a xlink:href="ConditionsObject_8h_source.html" target="_top" xlink:title=" ">
<polygon fill="none" stroke="black" points="0,-409 0,-428 128,-428 128,-409 0,-409"/>
<text text-anchor="middle" x="64" y="-416" font-family="Helvetica,sans-Serif" font-size="10.00">fire/ConditionsObject.h</text>
</a>
</g>
</g>
<!-- Node1&#45;&gt;Node2 -->
<g id="edge1" class="edge">
<title>Node1&#45;&gt;Node2</title>
<path fill="none" stroke="midnightblue" d="M436.77,-526.38C352.18,-502.13 180.92,-453.03 103.54,-430.84"/>
<polygon fill="midnightblue" stroke="midnightblue" points="104.28,-427.41 93.7,-428.02 102.35,-434.14 104.28,-427.41"/>
</g>
<!-- Node4 -->
<g id="node4" class="node">
<title>Node4</title>
<g id="a_node4"><a xlink:href="ConditionsProvider_8h_source.html" target="_top" xlink:title=" ">
<polygon fill="none" stroke="black" points="755,-470.5 755,-489.5 891,-489.5 891,-470.5 755,-470.5"/>
<text text-anchor="middle" x="823" y="-477.5" font-family="Helvetica,sans-Serif" font-size="10.00">fire/ConditionsProvider.h</text>
</a>
</g>
</g>
<!-- Node1&#45;&gt;Node4 -->
<g id="edge3" class="edge">
<title>Node1&#45;&gt;Node4</title>
<path fill="none" stroke="midnightblue" d="M562.89,-526.92C624.16,-516.11 708.63,-501.19 764.49,-491.33"/>
<polygon fill="midnightblue" stroke="midnightblue" points="765.33,-494.74 774.57,-489.55 764.11,-487.84 765.33,-494.74"/>
</g>
<!-- Node3 -->
<g id="node3" class="node">
<title>Node3</title>
<g id="a_node3"><a xlink:title=" ">
<polygon fill="none" stroke="#bfbfbf" points="686,-0.5 686,-19.5 730,-19.5 730,-0.5 686,-0.5"/>
<text text-anchor="middle" x="708" y="-7.5" font-family="Helvetica,sans-Serif" font-size="10.00">string</text>
</a>
</g>
</g>
<!-- Node2&#45;&gt;Node3 -->
<g id="edge2" class="edge">
<title>Node2&#45;&gt;Node3</title>
<path fill="none" stroke="midnightblue" d="M57.75,-408.79C44.13,-388.93 13,-338.36 13,-291 13,-291 13,-291 13,-121 13,-87.08 23.97,-73.55 53,-56 106.61,-23.58 551.18,-13.66 675.7,-11.5"/>
<polygon fill="midnightblue" stroke="midnightblue" points="675.81,-15 685.75,-11.33 675.7,-8 675.81,-15"/>
</g>
<!-- Node4&#45;&gt;Node2 -->
<g id="edge47" class="edge">
<title>Node4&#45;&gt;Node2</title>
<path fill="none" stroke="midnightblue" d="M754.55,-477.47C630.81,-474.04 361.83,-463.58 137,-434 128.89,-432.93 120.34,-431.51 112.04,-429.97"/>
<polygon fill="midnightblue" stroke="midnightblue" points="112.59,-426.51 102.11,-428.05 111.26,-433.38 112.59,-426.51"/>
</g>
<!-- Node5 -->
<g id="node5" class="node">
<title>Node5</title>
<g id="a_node5"><a xlink:title=" ">
<polygon fill="none" stroke="#bfbfbf" points="736,-56.5 736,-75.5 774,-75.5 774,-56.5 736,-56.5"/>
<text text-anchor="middle" x="755" y="-63.5" font-family="Helvetica,sans-Serif" font-size="10.00">map</text>
</a>
</g>
</g>
<!-- Node4&#45;&gt;Node5 -->
<g id="edge4" class="edge">
<title>Node4&#45;&gt;Node5</title>
<path fill="none" stroke="midnightblue" d="M833.83,-470.31C870.44,-439.85 986.45,-333.81 972,-224 965.28,-172.91 979.14,-147.72 942,-112 892.02,-63.93 856.09,-92.39 784.13,-75.92"/>
<polygon fill="midnightblue" stroke="midnightblue" points="784.77,-72.47 774.21,-73.42 783.05,-79.26 784.77,-72.47"/>
</g>
<!-- Node6 -->
<g id="node6" class="node">
<title>Node6</title>
<g id="a_node6"><a xlink:href="ConditionsIntervalOfValidity_8h_source.html" target="_top" xlink:title=" ">
<polygon fill="none" stroke="black" points="146,-403.5 146,-433.5 282,-433.5 282,-403.5 146,-403.5"/>
<text text-anchor="start" x="154" y="-421.5" font-family="Helvetica,sans-Serif" font-size="10.00">fire/ConditionsIntervalOf</text>
<text text-anchor="middle" x="214" y="-410.5" font-family="Helvetica,sans-Serif" font-size="10.00">Validity.h</text>
</a>
</g>
</g>
<!-- Node4&#45;&gt;Node6 -->
<g id="edge5" class="edge">
<title>Node4&#45;&gt;Node6</title>
<path fill="none" stroke="midnightblue" d="M754.99,-475.15C654.39,-469.02 460.12,-455.47 296,-434 294.89,-433.85 293.77,-433.7 292.64,-433.55"/>
<polygon fill="midnightblue" stroke="midnightblue" points="292.78,-430.03 282.39,-432.07 291.78,-436.96 292.78,-430.03"/>
</g>
<!-- Node22 -->
<g id="node22" class="node">
<title>Node22</title>
<g id="a_node22"><a xlink:href="Parameters_8h_source.html" target="_top" xlink:title=" ">
<polygon fill="none" stroke="black" points="315,-112.5 315,-131.5 447,-131.5 447,-112.5 315,-112.5"/>
<text text-anchor="middle" x="381" y="-119.5" font-family="Helvetica,sans-Serif" font-size="10.00">fire/config/Parameters.h</text>
</a>
</g>
</g>
<!-- Node4&#45;&gt;Node22 -->
<g id="edge54" class="edge">
<title>Node4&#45;&gt;Node22</title>
<path fill="none" stroke="midnightblue" d="M754.81,-470.73C640.52,-452.75 413.45,-398.44 318,-244 295.42,-207.46 336.46,-161.96 362.3,-138.54"/>
<polygon fill="midnightblue" stroke="midnightblue" points="364.84,-140.97 370.06,-131.75 360.23,-135.7 364.84,-140.97"/>
</g>
<!-- Node26 -->
<g id="node26" class="node">
<title>Node26</title>
<g id="a_node26"><a xlink:href="Exception_8h_source.html" target="_top" xlink:title=" ">
<polygon fill="none" stroke="black" points="1178.5,-56.5 1178.5,-75.5 1321.5,-75.5 1321.5,-56.5 1178.5,-56.5"/>
<text text-anchor="middle" x="1250" y="-63.5" font-family="Helvetica,sans-Serif" font-size="10.00">fire/exception/Exception.h</text>
</a>
</g>
</g>
<!-- Node4&#45;&gt;Node26 -->
<g id="edge55" class="edge">
<title>Node4&#45;&gt;Node26</title>
<path fill="none" stroke="midnightblue" d="M891.22,-477.76C1216.14,-471.39 2591,-439.34 2591,-352.5 2591,-352.5 2591,-352.5 2591,-177 2591,-113.48 1622.61,-78.48 1331.68,-69.4"/>
<polygon fill="midnightblue" stroke="midnightblue" points="1331.73,-65.9 1321.62,-69.09 1331.51,-72.9 1331.73,-65.9"/>
</g>
<!-- Node28 -->
<g id="node28" class="node">
<title>Node28</title>
<g id="a_node28"><a xlink:href="RunHeader_8h_source.html" target="_top" xlink:title=" ">
<polygon fill="none" stroke="black" points="774,-342 774,-361 872,-361 872,-342 774,-342"/>
<text text-anchor="middle" x="823" y="-349" font-family="Helvetica,sans-Serif" font-size="10.00">fire/RunHeader.h</text>
</a>
</g>
</g>
<!-- Node4&#45;&gt;Node28 -->
<g id="edge48" class="edge">
<title>Node4&#45;&gt;Node28</title>
<path fill="none" stroke="midnightblue" d="M823,-470.31C823,-449.99 823,-399.05 823,-371.28"/>
<polygon fill="midnightblue" stroke="midnightblue" points="826.5,-371.26 823,-361.26 819.5,-371.26 826.5,-371.26"/>
</g>
<!-- Node30 -->
<g id="node30" class="node">
<title>Node30</title>
<g id="a_node30"><a xlink:href="Factory_8h_source.html" target="_top" xlink:title=" ">
<polygon fill="none" stroke="black" points="1092,-224.5 1092,-243.5 1208,-243.5 1208,-224.5 1092,-224.5"/>
<text text-anchor="middle" x="1150" y="-231.5" font-family="Helvetica,sans-Serif" font-size="10.00">fire/factory/Factory.h</text>
</a>
</g>
</g>
<!-- Node4&#45;&gt;Node30 -->
<g id="edge56" class="edge">
<title>Node4&#45;&gt;Node30</title>
<path fill="none" stroke="midnightblue" d="M891.26,-471.01C943.39,-463.68 1009.79,-451.33 1031,-434 1067.83,-403.9 1049.98,-377.06 1074,-336 1092.54,-304.3 1119.33,-270.88 1135.65,-251.54"/>
<polygon fill="midnightblue" stroke="midnightblue" points="1138.51,-253.57 1142.34,-243.7 1133.19,-249.03 1138.51,-253.57"/>
</g>
<!-- Node32 -->
<g id="node32" class="node">
<title>Node32</title>
<g id="a_node32"><a xlink:href="Logger_8h.html" target="_top" xlink:title="Interface to Boost.Logging.">
<polygon fill="none" stroke="black" points="1672,-409 1672,-428 1788,-428 1788,-409 1672,-409"/>
<text text-anchor="middle" x="1730" y="-416" font-family="Helvetica,sans-Serif" font-size="10.00">fire/logging/Logger.h</text>
</a>
</g>
</g>
<!-- Node4&#45;&gt;Node32 -->
<g id="edge61" class="edge">
<title>Node4&#45;&gt;Node32</title>
<path fill="none" stroke="midnightblue" d="M891.17,-474.53C1059.53,-463.48 1493.51,-435.01 1661.84,-423.97"/>
<polygon fill="midnightblue" stroke="midnightblue" points="1662.07,-427.46 1671.82,-423.32 1661.62,-420.48 1662.07,-427.46"/>
</g>
<!-- Node7 -->
<g id="node7" class="node">
<title>Node7</title>
<g id="a_node7"><a xlink:title=" ">
<polygon fill="none" stroke="#bfbfbf" points="79,-56.5 79,-75.5 139,-75.5 139,-56.5 79,-56.5"/>
<text text-anchor="middle" x="109" y="-63.5" font-family="Helvetica,sans-Serif" font-size="10.00">iostream</text>
</a>
</g>
</g>
<!-- Node6&#45;&gt;Node7 -->
<g id="edge6" class="edge">
<title>Node6&#45;&gt;Node7</title>
<path fill="none" stroke="midnightblue" d="M183.74,-403.41C146.75,-383.86 89,-344.72 89,-291 89,-291 89,-291 89,-177 89,-144.44 97.59,-107.32 103.51,-85.59"/>
<polygon fill="midnightblue" stroke="midnightblue" points="106.94,-86.32 106.3,-75.74 100.21,-84.41 106.94,-86.32"/>
</g>
<!-- Node8 -->
<g id="node8" class="node">
<title>Node8</title>
<g id="a_node8"><a xlink:href="EventHeader_8h_source.html" target="_top" xlink:title=" ">
<polygon fill="none" stroke="black" points="174.5,-342 174.5,-361 281.5,-361 281.5,-342 174.5,-342"/>
<text text-anchor="middle" x="228" y="-349" font-family="Helvetica,sans-Serif" font-size="10.00">fire/EventHeader.h</text>
</a>
</g>
</g>
<!-- Node6&#45;&gt;Node8 -->
<g id="edge7" class="edge">
<title>Node6&#45;&gt;Node8</title>
<path fill="none" stroke="midnightblue" d="M217.04,-403.4C219.07,-393.96 221.76,-381.45 223.97,-371.19"/>
<polygon fill="midnightblue" stroke="midnightblue" points="227.44,-371.71 226.13,-361.19 220.6,-370.23 227.44,-371.71"/>
</g>
<!-- Node8&#45;&gt;Node3 -->
<g id="edge11" class="edge">
<title>Node8&#45;&gt;Node3</title>
<path fill="none" stroke="midnightblue" d="M216.4,-341.8C167.15,-303.87 -18.21,-150.66 70,-56 111.57,-11.4 551.37,-10.2 675.53,-10.77"/>
<polygon fill="midnightblue" stroke="midnightblue" points="675.87,-14.27 685.89,-10.82 675.91,-7.27 675.87,-14.27"/>
</g>
<!-- Node8&#45;&gt;Node5 -->
<g id="edge10" class="edge">
<title>Node8&#45;&gt;Node5</title>
<path fill="none" stroke="midnightblue" d="M241.81,-341.85C293.87,-309.44 483.61,-192.89 648,-112 674.03,-99.19 704.62,-86.56 726.41,-77.95"/>
<polygon fill="midnightblue" stroke="midnightblue" points="727.72,-81.2 735.75,-74.3 725.17,-74.68 727.72,-81.2"/>
</g>
<!-- Node8&#45;&gt;Node7 -->
<g id="edge9" class="edge">
<title>Node8&#45;&gt;Node7</title>
<path fill="none" stroke="midnightblue" d="M221.39,-341.76C208.02,-323.18 179,-277.91 179,-235 179,-235 179,-235 179,-177 179,-138.23 147.67,-102.1 126.93,-82.43"/>
<polygon fill="midnightblue" stroke="midnightblue" points="129.08,-79.65 119.33,-75.5 124.36,-84.83 129.08,-79.65"/>
</g>
<!-- Node9 -->
<g id="node9" class="node">
<title>Node9</title>
<g id="a_node9"><a xlink:title=" ">
<polygon fill="none" stroke="#bfbfbf" points="327,-224.5 327,-243.5 371,-243.5 371,-224.5 327,-224.5"/>
<text text-anchor="middle" x="349" y="-231.5" font-family="Helvetica,sans-Serif" font-size="10.00">ctime</text>
</a>
</g>
</g>
<!-- Node8&#45;&gt;Node9 -->
<g id="edge8" class="edge">
<title>Node8&#45;&gt;Node9</title>
<path fill="none" stroke="midnightblue" d="M237.09,-341.82C257.33,-322.5 306.32,-275.74 332.26,-250.98"/>
<polygon fill="midnightblue" stroke="midnightblue" points="334.98,-253.22 339.8,-243.78 330.15,-248.16 334.98,-253.22"/>
</g>
<!-- Node10 -->
<g id="node10" class="node">
<title>Node10</title>
<g id="a_node10"><a xlink:title=" ">
<polygon fill="none" stroke="#bfbfbf" points="215.5,-224.5 215.5,-243.5 266.5,-243.5 266.5,-224.5 215.5,-224.5"/>
<text text-anchor="middle" x="241" y="-231.5" font-family="Helvetica,sans-Serif" font-size="10.00">variant</text>
</a>
</g>
</g>
<!-- Node8&#45;&gt;Node10 -->
<g id="edge12" class="edge">
<title>Node8&#45;&gt;Node10</title>
<path fill="none" stroke="midnightblue" d="M228.98,-341.82C231.07,-323.26 236.01,-279.34 238.86,-253.97"/>
<polygon fill="midnightblue" stroke="midnightblue" points="242.37,-254.11 240.01,-243.78 235.41,-253.33 242.37,-254.11"/>
</g>
<!-- Node11 -->
<g id="node11" class="node">
<title>Node11</title>
<g id="a_node11"><a xlink:href="ParameterStorage_8h_source.html" target="_top" xlink:title=" ">
<polygon fill="none" stroke="black" points="439.5,-280.5 439.5,-299.5 586.5,-299.5 586.5,-280.5 439.5,-280.5"/>
<text text-anchor="middle" x="513" y="-287.5" font-family="Helvetica,sans-Serif" font-size="10.00">fire/h5/ParameterStorage.h</text>
</a>
</g>
</g>
<!-- Node8&#45;&gt;Node11 -->
<g id="edge13" class="edge">
<title>Node8&#45;&gt;Node11</title>
<path fill="none" stroke="midnightblue" d="M268.83,-341.98C319.84,-331.33 407.1,-313.11 462.32,-301.58"/>
<polygon fill="midnightblue" stroke="midnightblue" points="463.17,-304.98 472.24,-299.51 461.74,-298.13 463.17,-304.98"/>
</g>
<!-- Node11&#45;&gt;Node3 -->
<g id="edge18" class="edge">
<title>Node11&#45;&gt;Node3</title>
<path fill="none" stroke="midnightblue" d="M516.36,-280.22C521.45,-267.37 531.83,-242.93 544,-224 580.75,-166.87 598.51,-158.54 648,-112 665.42,-95.62 675.13,-96.16 688,-76 697.03,-61.85 702.2,-43.37 705.01,-29.73"/>
<polygon fill="midnightblue" stroke="midnightblue" points="708.51,-30.08 706.85,-19.61 701.62,-28.83 708.51,-30.08"/>
</g>
<!-- Node11&#45;&gt;Node5 -->
<g id="edge17" class="edge">
<title>Node11&#45;&gt;Node5</title>
<path fill="none" stroke="midnightblue" d="M519.17,-280.33C538.98,-252.91 603.78,-166.71 673,-112 689.4,-99.04 710.04,-87.73 726.51,-79.7"/>
<polygon fill="midnightblue" stroke="midnightblue" points="728.13,-82.8 735.66,-75.35 725.13,-76.48 728.13,-82.8"/>
</g>
<!-- Node11&#45;&gt;Node7 -->
<g id="edge16" class="edge">
<title>Node11&#45;&gt;Node7</title>
<path fill="none" stroke="midnightblue" d="M497.72,-280.45C451.75,-254.76 310.65,-176.05 193,-112 173.32,-101.29 150.96,-89.32 134.25,-80.42"/>
<polygon fill="midnightblue" stroke="midnightblue" points="135.61,-77.17 125.14,-75.56 132.32,-83.35 135.61,-77.17"/>
</g>
<!-- Node11&#45;&gt;Node9 -->
<g id="edge15" class="edge">
<title>Node11&#45;&gt;Node9</title>
<path fill="none" stroke="midnightblue" d="M487.01,-280.44C458.29,-270.99 411.99,-255.74 381.04,-245.55"/>
<polygon fill="midnightblue" stroke="midnightblue" points="381.78,-242.11 371.18,-242.3 379.59,-248.76 381.78,-242.11"/>
</g>
<!-- Node11&#45;&gt;Node10 -->
<g id="edge19" class="edge">
<title>Node11&#45;&gt;Node10</title>
<path fill="none" stroke="midnightblue" d="M469.9,-280.44C416.48,-269.84 326.42,-251.96 276.68,-242.08"/>
<polygon fill="midnightblue" stroke="midnightblue" points="277.2,-238.62 266.71,-240.1 275.84,-245.48 277.2,-238.62"/>
</g>
<!-- Node12 -->
<g id="node12" class="node">
<title>Node12</title>
<g id="a_node12"><a xlink:title=" ">
<polygon fill="none" stroke="#bfbfbf" points="157,-56.5 157,-75.5 297,-75.5 297,-56.5 157,-56.5"/>
<text text-anchor="middle" x="227" y="-63.5" font-family="Helvetica,sans-Serif" font-size="10.00">boost/core/demangle.hpp</text>
</a>
</g>
</g>
<!-- Node11&#45;&gt;Node12 -->
<g id="edge14" class="edge">
<title>Node11&#45;&gt;Node12</title>
<path fill="none" stroke="midnightblue" d="M505.95,-280.36C495.02,-267.26 472.94,-242.01 451,-224 392,-175.58 367.81,-176.78 306,-132 284.16,-116.17 260.42,-96.25 244.73,-82.66"/>
<polygon fill="midnightblue" stroke="midnightblue" points="246.74,-79.77 236.91,-75.83 242.14,-85.04 246.74,-79.77"/>
</g>
<!-- Node13 -->
<g id="node13" class="node">
<title>Node13</title>
<g id="a_node13"><a xlink:href="DataSet_8h_source.html" target="_top" xlink:title=" ">
<polygon fill="none" stroke="black" points="636,-224.5 636,-243.5 734,-243.5 734,-224.5 636,-224.5"/>
<text text-anchor="middle" x="685" y="-231.5" font-family="Helvetica,sans-Serif" font-size="10.00">fire/h5/DataSet.h</text>
</a>
</g>
</g>
<!-- Node11&#45;&gt;Node13 -->
<g id="edge20" class="edge">
<title>Node11&#45;&gt;Node13</title>
<path fill="none" stroke="midnightblue" d="M540.25,-280.44C569.44,-271.28 615.92,-256.69 648.31,-246.52"/>
<polygon fill="midnightblue" stroke="midnightblue" points="649.38,-249.85 657.87,-243.52 647.28,-243.17 649.38,-249.85"/>
</g>
<!-- Node17 -->
<g id="node17" class="node">
<title>Node17</title>
<g id="a_node17"><a xlink:href="Reader_8h_source.html" target="_top" xlink:title=" ">
<polygon fill="none" stroke="black" points="800.5,-168.5 800.5,-187.5 893.5,-187.5 893.5,-168.5 800.5,-168.5"/>
<text text-anchor="middle" x="847" y="-175.5" font-family="Helvetica,sans-Serif" font-size="10.00">fire/h5/Reader.h</text>
</a>
</g>
</g>
<!-- Node11&#45;&gt;Node17 -->
<g id="edge45" class="edge">
<title>Node11&#45;&gt;Node17</title>
<path fill="none" stroke="midnightblue" d="M586.67,-281.54C632.78,-275.19 692.76,-263.83 743,-244 775.09,-231.34 808.22,-208.66 828.22,-193.73"/>
<polygon fill="midnightblue" stroke="midnightblue" points="830.35,-196.5 836.19,-187.66 826.11,-190.93 830.35,-196.5"/>
</g>
<!-- Node11&#45;&gt;Node26 -->
<g id="edge46" class="edge">
<title>Node11&#45;&gt;Node26</title>
<path fill="none" stroke="midnightblue" d="M584.94,-280.48C638.48,-273.24 713.03,-261.25 777,-244 950.43,-197.22 1149.19,-111.96 1221.68,-79.77"/>
<polygon fill="midnightblue" stroke="midnightblue" points="1223.35,-82.85 1231.06,-75.59 1220.5,-76.46 1223.35,-82.85"/>
</g>
<!-- Node13&#45;&gt;Node5 -->
<g id="edge24" class="edge">
<title>Node13&#45;&gt;Node5</title>
<path fill="none" stroke="midnightblue" d="M682.25,-224.39C676.12,-203.56 663.44,-149.36 684,-112 693.09,-95.48 711.08,-84.18 726.68,-77.03"/>
<polygon fill="midnightblue" stroke="midnightblue" points="728.13,-80.21 735.99,-73.1 725.41,-73.76 728.13,-80.21"/>
</g>
<!-- Node14 -->
<g id="node14" class="node">
<title>Node14</title>
<g id="a_node14"><a xlink:title=" ">
<polygon fill="none" stroke="#bfbfbf" points="1064,-168.5 1064,-187.5 1122,-187.5 1122,-168.5 1064,-168.5"/>
<text text-anchor="middle" x="1093" y="-175.5" font-family="Helvetica,sans-Serif" font-size="10.00">memory</text>
</a>
</g>
</g>
<!-- Node13&#45;&gt;Node14 -->
<g id="edge21" class="edge">
<title>Node13&#45;&gt;Node14</title>
<path fill="none" stroke="midnightblue" d="M734.21,-226.49C816.2,-215.64 979.08,-194.08 1053.84,-184.18"/>
<polygon fill="midnightblue" stroke="midnightblue" points="1054.33,-187.65 1063.79,-182.87 1053.41,-180.71 1054.33,-187.65"/>
</g>
<!-- Node15 -->
<g id="node15" class="node">
<title>Node15</title>
<g id="a_node15"><a xlink:title=" ">
<polygon fill="none" stroke="#bfbfbf" points="545.5,-56.5 545.5,-75.5 614.5,-75.5 614.5,-56.5 545.5,-56.5"/>
<text text-anchor="middle" x="580" y="-63.5" font-family="Helvetica,sans-Serif" font-size="10.00">type_traits</text>
</a>
</g>
</g>
<!-- Node13&#45;&gt;Node15 -->
<g id="edge22" class="edge">
<title>Node13&#45;&gt;Node15</title>
<path fill="none" stroke="midnightblue" d="M675.53,-224.33C666.46,-215.7 652.75,-201.79 643,-188 618.94,-153.97 598.19,-109.56 587.57,-85.11"/>
<polygon fill="midnightblue" stroke="midnightblue" points="590.68,-83.49 583.54,-75.67 584.24,-86.24 590.68,-83.49"/>
</g>
<!-- Node16 -->
<g id="node16" class="node">
<title>Node16</title>
<g id="a_node16"><a xlink:title=" ">
<polygon fill="none" stroke="#bfbfbf" points="632.5,-56.5 632.5,-75.5 679.5,-75.5 679.5,-56.5 632.5,-56.5"/>
<text text-anchor="middle" x="656" y="-63.5" font-family="Helvetica,sans-Serif" font-size="10.00">vector</text>
</a>
</g>
</g>
<!-- Node13&#45;&gt;Node16 -->
<g id="edge23" class="edge">
<title>Node13&#45;&gt;Node16</title>
<path fill="none" stroke="midnightblue" d="M675.71,-224.39C667.42,-216.02 655.86,-202.48 651,-188 639.34,-153.24 645.89,-109.69 651.25,-85.45"/>
<polygon fill="midnightblue" stroke="midnightblue" points="654.7,-86.05 653.62,-75.51 647.89,-84.42 654.7,-86.05"/>
</g>
<!-- Node13&#45;&gt;Node17 -->
<g id="edge25" class="edge">
<title>Node13&#45;&gt;Node17</title>
<path fill="none" stroke="midnightblue" d="M710.67,-224.44C737.92,-215.36 781.18,-200.94 811.65,-190.78"/>
<polygon fill="midnightblue" stroke="midnightblue" points="813.07,-194 821.45,-187.52 810.86,-187.36 813.07,-194"/>
</g>
<!-- Node21 -->
<g id="node21" class="node">
<title>Node21</title>
<g id="a_node21"><a xlink:href="Writer_8h_source.html" target="_top" xlink:title=" ">
<polygon fill="none" stroke="black" points="693.5,-168.5 693.5,-187.5 782.5,-187.5 782.5,-168.5 693.5,-168.5"/>
<text text-anchor="middle" x="738" y="-175.5" font-family="Helvetica,sans-Serif" font-size="10.00">fire/h5/Writer.h</text>
</a>
</g>
</g>
<!-- Node13&#45;&gt;Node21 -->
<g id="edge29" class="edge">
<title>Node13&#45;&gt;Node21</title>
<path fill="none" stroke="midnightblue" d="M693.75,-224.08C701.47,-216.22 712.9,-204.57 722.22,-195.08"/>
<polygon fill="midnightblue" stroke="midnightblue" points="724.9,-197.34 729.41,-187.75 719.91,-192.44 724.9,-197.34"/>
</g>
<!-- Node18 -->
<g id="node18" class="node">
<title>Node18</title>
<g id="a_node18"><a xlink:title=" ">
<polygon fill="none" stroke="#bfbfbf" points="805,-112.5 805,-131.5 915,-131.5 915,-112.5 805,-112.5"/>
<text text-anchor="middle" x="860" y="-119.5" font-family="Helvetica,sans-Serif" font-size="10.00">highfive/H5File.hpp</text>
</a>
</g>
</g>
<!-- Node17&#45;&gt;Node18 -->
<g id="edge26" class="edge">
<title>Node17&#45;&gt;Node18</title>
<path fill="none" stroke="midnightblue" d="M849.15,-168.08C850.87,-160.93 853.35,-150.64 855.5,-141.69"/>
<polygon fill="midnightblue" stroke="midnightblue" points="858.96,-142.29 857.89,-131.75 852.15,-140.65 858.96,-142.29"/>
</g>
<!-- Node19 -->
<g id="node19" class="node">
<title>Node19</title>
<g id="a_node19"><a xlink:href="Atomic_8h_source.html" target="_top" xlink:title=" ">
<polygon fill="none" stroke="black" points="693,-112.5 693,-131.5 787,-131.5 787,-112.5 693,-112.5"/>
<text text-anchor="middle" x="740" y="-119.5" font-family="Helvetica,sans-Serif" font-size="10.00">fire/h5/Atomic.h</text>
</a>
</g>
</g>
<!-- Node17&#45;&gt;Node19 -->
<g id="edge27" class="edge">
<title>Node17&#45;&gt;Node19</title>
<path fill="none" stroke="midnightblue" d="M829.81,-168.32C812.65,-159.66 786.05,-146.24 766.25,-136.25"/>
<polygon fill="midnightblue" stroke="midnightblue" points="767.65,-133.04 757.15,-131.65 764.5,-139.28 767.65,-133.04"/>
</g>
<!-- Node20 -->
<g id="node20" class="node">
<title>Node20</title>
<g id="a_node20"><a xlink:title=" ">
<polygon fill="none" stroke="#bfbfbf" points="792.5,-56.5 792.5,-75.5 931.5,-75.5 931.5,-56.5 792.5,-56.5"/>
<text text-anchor="middle" x="862" y="-63.5" font-family="Helvetica,sans-Serif" font-size="10.00">highfive/H5DataType.hpp</text>
</a>
</g>
</g>
<!-- Node19&#45;&gt;Node20 -->
<g id="edge28" class="edge">
<title>Node19&#45;&gt;Node20</title>
<path fill="none" stroke="midnightblue" d="M759.33,-112.44C779.32,-103.6 810.74,-89.69 833.56,-79.59"/>
<polygon fill="midnightblue" stroke="midnightblue" points="835.03,-82.76 842.76,-75.52 832.2,-76.36 835.03,-82.76"/>
</g>
<!-- Node21&#45;&gt;Node18 -->
<g id="edge30" class="edge">
<title>Node21&#45;&gt;Node18</title>
<path fill="none" stroke="midnightblue" d="M757.33,-168.44C777.32,-159.6 808.74,-145.69 831.56,-135.59"/>
<polygon fill="midnightblue" stroke="midnightblue" points="833.03,-138.76 840.76,-131.52 830.2,-132.36 833.03,-138.76"/>
</g>
<!-- Node21&#45;&gt;Node19 -->
<g id="edge44" class="edge">
<title>Node21&#45;&gt;Node19</title>
<path fill="none" stroke="midnightblue" d="M738.33,-168.08C738.59,-161.01 738.97,-150.86 739.3,-141.99"/>
<polygon fill="midnightblue" stroke="midnightblue" points="742.8,-141.87 739.68,-131.75 735.81,-141.61 742.8,-141.87"/>
</g>
<!-- Node21&#45;&gt;Node22 -->
<g id="edge31" class="edge">
<title>Node21&#45;&gt;Node22</title>
<path fill="none" stroke="midnightblue" d="M693.15,-170.22C631.3,-160.86 519.36,-143.93 447.69,-133.09"/>
<polygon fill="midnightblue" stroke="midnightblue" points="447.83,-129.57 437.42,-131.53 446.78,-136.49 447.83,-129.57"/>
</g>
<!-- Node22&#45;&gt;Node3 -->
<g id="edge36" class="edge">
<title>Node22&#45;&gt;Node3</title>
<path fill="none" stroke="midnightblue" d="M405.29,-112.41C428.97,-103.84 465.86,-89.98 497,-76 514.77,-68.02 517.8,-62.95 536,-56 583.3,-37.93 640.6,-24.54 675.67,-17.26"/>
<polygon fill="midnightblue" stroke="midnightblue" points="676.7,-20.62 685.8,-15.19 675.3,-13.76 676.7,-20.62"/>
</g>
<!-- Node22&#45;&gt;Node5 -->
<g id="edge35" class="edge">
<title>Node22&#45;&gt;Node5</title>
<path fill="none" stroke="midnightblue" d="M440.26,-112.44C521.48,-100.72 664.28,-80.1 725.64,-71.24"/>
<polygon fill="midnightblue" stroke="midnightblue" points="726.38,-74.67 735.78,-69.78 725.38,-67.74 726.38,-74.67"/>
</g>
<!-- Node22&#45;&gt;Node7 -->
<g id="edge33" class="edge">
<title>Node22&#45;&gt;Node7</title>
<path fill="none" stroke="midnightblue" d="M334.04,-112.44C289.03,-104.13 218.93,-90.88 149.06,-76.17"/>
<polygon fill="midnightblue" stroke="midnightblue" points="149.72,-72.73 139.21,-74.08 148.27,-79.58 149.72,-72.73"/>
</g>
<!-- Node22&#45;&gt;Node12 -->
<g id="edge40" class="edge">
<title>Node22&#45;&gt;Node12</title>
<path fill="none" stroke="midnightblue" d="M356.6,-112.44C330.8,-103.4 289.92,-89.06 260.98,-78.92"/>
<polygon fill="midnightblue" stroke="midnightblue" points="261.88,-75.52 251.29,-75.52 259.57,-82.13 261.88,-75.52"/>
</g>
<!-- Node22&#45;&gt;Node15 -->
<g id="edge37" class="edge">
<title>Node22&#45;&gt;Node15</title>
<path fill="none" stroke="midnightblue" d="M412.53,-112.44C446.59,-103.2 501.01,-88.44 538.52,-78.26"/>
<polygon fill="midnightblue" stroke="midnightblue" points="539.88,-81.51 548.62,-75.52 538.05,-74.76 539.88,-81.51"/>
</g>
<!-- Node22&#45;&gt;Node16 -->
<g id="edge39" class="edge">
<title>Node22&#45;&gt;Node16</title>
<path fill="none" stroke="midnightblue" d="M433.66,-112.5C480.64,-104.62 551.51,-92.02 622.28,-76.01"/>
<polygon fill="midnightblue" stroke="midnightblue" points="623.3,-79.36 632.27,-73.72 621.74,-72.54 623.3,-79.36"/>
</g>
<!-- Node23 -->
<g id="node23" class="node">
<title>Node23</title>
<g id="a_node23"><a xlink:title=" ">
<polygon fill="none" stroke="#bfbfbf" points="315.5,-56.5 315.5,-75.5 350.5,-75.5 350.5,-56.5 315.5,-56.5"/>
<text text-anchor="middle" x="333" y="-63.5" font-family="Helvetica,sans-Serif" font-size="10.00">any</text>
</a>
</g>
</g>
<!-- Node22&#45;&gt;Node23 -->
<g id="edge32" class="edge">
<title>Node22&#45;&gt;Node23</title>
<path fill="none" stroke="midnightblue" d="M373.07,-112.08C366.15,-104.3 355.93,-92.8 347.55,-83.37"/>
<polygon fill="midnightblue" stroke="midnightblue" points="350.04,-80.9 340.78,-75.75 344.81,-85.55 350.04,-80.9"/>
</g>
<!-- Node24 -->
<g id="node24" class="node">
<title>Node24</title>
<g id="a_node24"><a xlink:title=" ">
<polygon fill="none" stroke="#bfbfbf" points="369,-56.5 369,-75.5 413,-75.5 413,-56.5 369,-56.5"/>
<text text-anchor="middle" x="391" y="-63.5" font-family="Helvetica,sans-Serif" font-size="10.00">limits</text>
</a>
</g>
</g>
<!-- Node22&#45;&gt;Node24 -->
<g id="edge34" class="edge">
<title>Node22&#45;&gt;Node24</title>
<path fill="none" stroke="midnightblue" d="M382.65,-112.08C383.98,-104.93 385.88,-94.64 387.54,-85.69"/>
<polygon fill="midnightblue" stroke="midnightblue" points="391,-86.22 389.38,-75.75 384.12,-84.95 391,-86.22"/>
</g>
<!-- Node25 -->
<g id="node25" class="node">
<title>Node25</title>
<g id="a_node25"><a xlink:title=" ">
<polygon fill="none" stroke="#bfbfbf" points="431.5,-56.5 431.5,-75.5 488.5,-75.5 488.5,-56.5 431.5,-56.5"/>
<text text-anchor="middle" x="460" y="-63.5" font-family="Helvetica,sans-Serif" font-size="10.00">typeinfo</text>
</a>
</g>
</g>
<!-- Node22&#45;&gt;Node25 -->
<g id="edge38" class="edge">
<title>Node22&#45;&gt;Node25</title>
<path fill="none" stroke="midnightblue" d="M393.69,-112.32C405.9,-103.98 424.58,-91.21 439,-81.35"/>
<polygon fill="midnightblue" stroke="midnightblue" points="441.06,-84.19 447.34,-75.65 437.11,-78.41 441.06,-84.19"/>
</g>
<!-- Node22&#45;&gt;Node26 -->
<g id="edge41" class="edge">
<title>Node22&#45;&gt;Node26</title>
<path fill="none" stroke="midnightblue" d="M447.03,-116.9C603.55,-107.17 996.8,-82.73 1168.11,-72.09"/>
<polygon fill="midnightblue" stroke="midnightblue" points="1168.56,-75.57 1178.33,-71.45 1168.13,-68.58 1168.56,-75.57"/>
</g>
<!-- Node26&#45;&gt;Node3 -->
<g id="edge43" class="edge">
<title>Node26&#45;&gt;Node3</title>
<path fill="none" stroke="midnightblue" d="M1178.21,-57.45C1173.4,-56.96 1168.63,-56.47 1164,-56 1005.21,-39.86 815.23,-21.38 740.48,-14.14"/>
<polygon fill="midnightblue" stroke="midnightblue" points="740.6,-10.63 730.31,-13.15 739.92,-17.6 740.6,-10.63"/>
</g>
<!-- Node27 -->
<g id="node27" class="node">
<title>Node27</title>
<g id="a_node27"><a xlink:title=" ">
<polygon fill="none" stroke="#bfbfbf" points="1217.5,-0.5 1217.5,-19.5 1282.5,-19.5 1282.5,-0.5 1217.5,-0.5"/>
<text text-anchor="middle" x="1250" y="-7.5" font-family="Helvetica,sans-Serif" font-size="10.00">exception</text>
</a>
</g>
</g>
<!-- Node26&#45;&gt;Node27 -->
<g id="edge42" class="edge">
<title>Node26&#45;&gt;Node27</title>
<path fill="none" stroke="midnightblue" d="M1250,-56.08C1250,-49.01 1250,-38.86 1250,-29.99"/>
<polygon fill="midnightblue" stroke="midnightblue" points="1253.5,-29.75 1250,-19.75 1246.5,-29.75 1253.5,-29.75"/>
</g>
<!-- Node28&#45;&gt;Node3 -->
<g id="edge50" class="edge">
<title>Node28&#45;&gt;Node3</title>
<path fill="none" stroke="midnightblue" d="M846.54,-341.85C865.87,-333.69 892.78,-319.74 910,-300 981.82,-217.66 1011.38,-138.72 940,-56 914.39,-26.32 797.73,-15.87 740.23,-12.49"/>
<polygon fill="midnightblue" stroke="midnightblue" points="740.39,-8.99 730.22,-11.93 740.01,-15.98 740.39,-8.99"/>
</g>
<!-- Node28&#45;&gt;Node5 -->
<g id="edge49" class="edge">
<title>Node28&#45;&gt;Node5</title>
<path fill="none" stroke="midnightblue" d="M841.03,-341.96C856.76,-333.54 878.91,-319.15 891,-300 913.64,-264.13 950.02,-145.5 924,-112 886.18,-63.32 848.82,-91 784,-75.9"/>
<polygon fill="midnightblue" stroke="midnightblue" points="784.79,-72.49 774.23,-73.35 783.02,-79.27 784.79,-72.49"/>
</g>
<!-- Node28&#45;&gt;Node11 -->
<g id="edge53" class="edge">
<title>Node28&#45;&gt;Node11</title>
<path fill="none" stroke="midnightblue" d="M778.58,-341.98C722.88,-331.28 627.4,-312.96 567.38,-301.44"/>
<polygon fill="midnightblue" stroke="midnightblue" points="567.81,-297.96 557.33,-299.51 566.49,-304.83 567.81,-297.96"/>
</g>
<!-- Node28&#45;&gt;Node13 -->
<g id="edge52" class="edge">
<title>Node28&#45;&gt;Node13</title>
<path fill="none" stroke="midnightblue" d="M810.18,-341.83C796.05,-332.11 772.83,-315.66 754,-300 734.96,-284.17 714.46,-264.49 700.8,-250.96"/>
<polygon fill="midnightblue" stroke="midnightblue" points="703.16,-248.37 693.61,-243.78 698.21,-253.32 703.16,-248.37"/>
</g>
<!-- Node29 -->
<g id="node29" class="node">
<title>Node29</title>
<g id="a_node29"><a xlink:title=" ">
<polygon fill="none" stroke="#bfbfbf" points="763.5,-280.5 763.5,-299.5 882.5,-299.5 882.5,-280.5 763.5,-280.5"/>
<text text-anchor="middle" x="823" y="-287.5" font-family="Helvetica,sans-Serif" font-size="10.00">fire/version/Version.h</text>
</a>
</g>
</g>
<!-- Node28&#45;&gt;Node29 -->
<g id="edge51" class="edge">
<title>Node28&#45;&gt;Node29</title>
<path fill="none" stroke="midnightblue" d="M823,-341.98C823,-333.58 823,-320.48 823,-309.66"/>
<polygon fill="midnightblue" stroke="midnightblue" points="826.5,-309.51 823,-299.51 819.5,-309.51 826.5,-309.51"/>
</g>
<!-- Node30&#45;&gt;Node3 -->
<g id="edge58" class="edge">
<title>Node30&#45;&gt;Node3</title>
<path fill="none" stroke="midnightblue" d="M1149.11,-224.32C1147.41,-211.18 1142.78,-185.86 1131,-168 1087.88,-102.64 1066.43,-88.09 995,-56 908.95,-17.34 795.45,-11.15 740.53,-10.62"/>
<polygon fill="midnightblue" stroke="midnightblue" points="740.37,-7.12 730.36,-10.58 740.34,-14.12 740.37,-7.12"/>
</g>
<!-- Node30&#45;&gt;Node14 -->
<g id="edge57" class="edge">
<title>Node30&#45;&gt;Node14</title>
<path fill="none" stroke="midnightblue" d="M1140.84,-224.32C1132.5,-216.42 1119.97,-204.55 1109.82,-194.94"/>
<polygon fill="midnightblue" stroke="midnightblue" points="1111.99,-192.17 1102.32,-187.83 1107.18,-197.25 1111.99,-192.17"/>
</g>
<!-- Node30&#45;&gt;Node26 -->
<g id="edge60" class="edge">
<title>Node30&#45;&gt;Node26</title>
<path fill="none" stroke="midnightblue" d="M1208.02,-227.95C1234.51,-222.41 1263.58,-211.05 1280,-188 1302.6,-156.27 1278.58,-109.34 1262.34,-84.27"/>
<polygon fill="midnightblue" stroke="midnightblue" points="1265.11,-82.12 1256.6,-75.81 1259.32,-86.05 1265.11,-82.12"/>
</g>
<!-- Node31 -->
<g id="node31" class="node">
<title>Node31</title>
<g id="a_node31"><a xlink:title=" ">
<polygon fill="none" stroke="#bfbfbf" points="1178.5,-168.5 1178.5,-187.5 1271.5,-187.5 1271.5,-168.5 1178.5,-168.5"/>
<text text-anchor="middle" x="1225" y="-175.5" font-family="Helvetica,sans-Serif" font-size="10.00">unordered_map</text>
</a>
</g>
</g>
<!-- Node30&#45;&gt;Node31 -->
<g id="edge59" class="edge">
<title>Node30&#45;&gt;Node31</title>
<path fill="none" stroke="midnightblue" d="M1162.05,-224.32C1173.46,-216.11 1190.83,-203.6 1204.43,-193.81"/>
<polygon fill="midnightblue" stroke="midnightblue" points="1206.66,-196.52 1212.73,-187.83 1202.57,-190.84 1206.66,-196.52"/>
</g>
<!-- Node33 -->
<g id="node33" class="node">
<title>Node33</title>
<g id="a_node33"><a xlink:title=" ">
<polygon fill="none" stroke="#bfbfbf" points="1532.5,-342 1532.5,-361 1639.5,-361 1639.5,-342 1532.5,-342"/>
<text text-anchor="middle" x="1586" y="-349" font-family="Helvetica,sans-Serif" font-size="10.00">boost/log/core.hpp</text>
</a>
</g>
</g>
<!-- Node32&#45;&gt;Node33 -->
<g id="edge62" class="edge">
<title>Node32&#45;&gt;Node33</title>
<path fill="none" stroke="midnightblue" d="M1710.88,-408.87C1686.24,-397.75 1643.19,-378.32 1614.64,-365.43"/>
<polygon fill="midnightblue" stroke="midnightblue" points="1615.76,-362.09 1605.2,-361.17 1612.88,-368.47 1615.76,-362.09"/>
</g>
<!-- Node34 -->
<g id="node34" class="node">
<title>Node34</title>
<g id="a_node34"><a xlink:title=" ">
<polygon fill="none" stroke="#bfbfbf" points="1658,-342 1658,-361 1802,-361 1802,-342 1658,-342"/>
<text text-anchor="middle" x="1730" y="-349" font-family="Helvetica,sans-Serif" font-size="10.00">boost/log/expressions.hpp</text>
</a>
</g>
</g>
<!-- Node32&#45;&gt;Node34 -->
<g id="edge63" class="edge">
<title>Node32&#45;&gt;Node34</title>
<path fill="none" stroke="midnightblue" d="M1730,-408.73C1730,-399.18 1730,-383.62 1730,-371.28"/>
<polygon fill="midnightblue" stroke="midnightblue" points="1733.5,-371.13 1730,-361.13 1726.5,-371.13 1733.5,-371.13"/>
</g>
<!-- Node35 -->
<g id="node35" class="node">
<title>Node35</title>
<g id="a_node35"><a xlink:title=" ">
<polygon fill="none" stroke="#bfbfbf" points="1820,-336.5 1820,-366.5 1936,-366.5 1936,-336.5 1820,-336.5"/>
<text text-anchor="start" x="1828" y="-354.5" font-family="Helvetica,sans-Serif" font-size="10.00">boost/log/sinks/sync</text>
<text text-anchor="middle" x="1878" y="-343.5" font-family="Helvetica,sans-Serif" font-size="10.00">_frontend.hpp</text>
</a>
</g>
</g>
<!-- Node32&#45;&gt;Node35 -->
<g id="edge64" class="edge">
<title>Node32&#45;&gt;Node35</title>
<path fill="none" stroke="midnightblue" d="M1749.65,-408.87C1771.77,-399.16 1808.31,-383.11 1836.75,-370.61"/>
<polygon fill="midnightblue" stroke="midnightblue" points="1838.31,-373.75 1846.06,-366.53 1835.5,-367.34 1838.31,-373.75"/>
</g>
<!-- Node36 -->
<g id="node36" class="node">
<title>Node36</title>
<g id="a_node36"><a xlink:title=" ">
<polygon fill="none" stroke="#bfbfbf" points="1954.5,-336.5 1954.5,-366.5 2083.5,-366.5 2083.5,-336.5 1954.5,-336.5"/>
<text text-anchor="start" x="1962.5" y="-354.5" font-family="Helvetica,sans-Serif" font-size="10.00">boost/log/sinks/text</text>
<text text-anchor="middle" x="2019" y="-343.5" font-family="Helvetica,sans-Serif" font-size="10.00">_ostream_backend.hpp</text>
</a>
</g>
</g>
<!-- Node32&#45;&gt;Node36 -->
<g id="edge65" class="edge">
<title>Node32&#45;&gt;Node36</title>
<path fill="none" stroke="midnightblue" d="M1768.08,-408.94C1813.34,-398.76 1889.85,-381.55 1946.51,-368.8"/>
<polygon fill="midnightblue" stroke="midnightblue" points="1947.5,-372.17 1956.49,-366.56 1945.97,-365.34 1947.5,-372.17"/>
</g>
<!-- Node37 -->
<g id="node37" class="node">
<title>Node37</title>
<g id="a_node37"><a xlink:title=" ">
<polygon fill="none" stroke="#bfbfbf" points="2101.5,-336.5 2101.5,-366.5 2236.5,-366.5 2236.5,-336.5 2101.5,-336.5"/>
<text text-anchor="start" x="2109.5" y="-354.5" font-family="Helvetica,sans-Serif" font-size="10.00">boost/log/sources/global</text>
<text text-anchor="middle" x="2169" y="-343.5" font-family="Helvetica,sans-Serif" font-size="10.00">_logger_storage.hpp</text>
</a>
</g>
</g>
<!-- Node32&#45;&gt;Node37 -->
<g id="edge66" class="edge">
<title>Node32&#45;&gt;Node37</title>
<path fill="none" stroke="midnightblue" d="M1788.29,-410.31C1858.01,-401.5 1978.48,-385.64 2091.29,-367.24"/>
<polygon fill="midnightblue" stroke="midnightblue" points="2092.19,-370.64 2101.49,-365.56 2091.05,-363.73 2092.19,-370.64"/>
</g>
<!-- Node38 -->
<g id="node38" class="node">
<title>Node38</title>
<g id="a_node38"><a xlink:title=" ">
<polygon fill="none" stroke="#bfbfbf" points="2254.5,-336.5 2254.5,-366.5 2399.5,-366.5 2399.5,-336.5 2254.5,-336.5"/>
<text text-anchor="start" x="2262.5" y="-354.5" font-family="Helvetica,sans-Serif" font-size="10.00">boost/log/sources/severity</text>
<text text-anchor="middle" x="2327" y="-343.5" font-family="Helvetica,sans-Serif" font-size="10.00">_channel_logger.hpp</text>
</a>
</g>
</g>
<!-- Node32&#45;&gt;Node38 -->
<g id="edge67" class="edge">
<title>Node32&#45;&gt;Node38</title>
<path fill="none" stroke="midnightblue" d="M1788.21,-413.32C1882.15,-406.24 2073.15,-390.48 2244.24,-367.18"/>
<polygon fill="midnightblue" stroke="midnightblue" points="2244.75,-370.64 2254.19,-365.82 2243.8,-363.71 2244.75,-370.64"/>
</g>
<!-- Node39 -->
<g id="node39" class="node">
<title>Node39</title>
<g id="a_node39"><a xlink:title=" ">
<polygon fill="none" stroke="#bfbfbf" points="2417.5,-336.5 2417.5,-366.5 2562.5,-366.5 2562.5,-336.5 2417.5,-336.5"/>
<text text-anchor="start" x="2425.5" y="-354.5" font-family="Helvetica,sans-Serif" font-size="10.00">boost/log/sources/severity</text>
<text text-anchor="middle" x="2490" y="-343.5" font-family="Helvetica,sans-Serif" font-size="10.00">_feature.hpp</text>
</a>
</g>
</g>
<!-- Node32&#45;&gt;Node39 -->
<g id="edge68" class="edge">
<title>Node32&#45;&gt;Node39</title>
<path fill="none" stroke="midnightblue" d="M1788.33,-415.19C1904.38,-410.14 2172.58,-396.29 2407.11,-367.16"/>
<polygon fill="midnightblue" stroke="midnightblue" points="2407.71,-370.61 2417.2,-365.9 2406.84,-363.67 2407.71,-370.61"/>
</g>
<!-- Node40 -->
<g id="node40" class="node">
<title>Node40</title>
<g id="a_node40"><a xlink:title=" ">
<polygon fill="none" stroke="#bfbfbf" points="1083,-336.5 1083,-366.5 1219,-366.5 1219,-336.5 1083,-336.5"/>
<text text-anchor="start" x="1091" y="-354.5" font-family="Helvetica,sans-Serif" font-size="10.00">boost/log/utility/setup</text>
<text text-anchor="middle" x="1151" y="-343.5" font-family="Helvetica,sans-Serif" font-size="10.00">/common_attributes.hpp</text>
</a>
</g>
</g>
<!-- Node32&#45;&gt;Node40 -->
<g id="edge69" class="edge">
<title>Node32&#45;&gt;Node40</title>
<path fill="none" stroke="midnightblue" d="M1671.83,-413.28C1579.93,-406.25 1395.34,-390.69 1229.28,-367.11"/>
<polygon fill="midnightblue" stroke="midnightblue" points="1229.78,-363.65 1219.38,-365.69 1228.79,-370.58 1229.78,-363.65"/>
</g>
<!-- Node41 -->
<g id="node41" class="node">
<title>Node41</title>
<g id="a_node41"><a xlink:title=" ">
<polygon fill="none" stroke="#bfbfbf" points="1237,-336.5 1237,-366.5 1373,-366.5 1373,-336.5 1237,-336.5"/>
<text text-anchor="start" x="1245" y="-354.5" font-family="Helvetica,sans-Serif" font-size="10.00">boost/log/sources/record</text>
<text text-anchor="middle" x="1305" y="-343.5" font-family="Helvetica,sans-Serif" font-size="10.00">_ostream.hpp</text>
</a>
</g>
</g>
<!-- Node32&#45;&gt;Node41 -->
<g id="edge70" class="edge">
<title>Node32&#45;&gt;Node41</title>
<path fill="none" stroke="midnightblue" d="M1671.7,-409.8C1604.58,-400.77 1490.77,-384.93 1383.44,-367.2"/>
<polygon fill="midnightblue" stroke="midnightblue" points="1383.85,-363.72 1373.41,-365.54 1382.7,-370.63 1383.85,-363.72"/>
</g>
<!-- Node42 -->
<g id="node42" class="node">
<title>Node42</title>
<g id="a_node42"><a xlink:title=" ">
<polygon fill="none" stroke="#bfbfbf" points="1391.5,-336.5 1391.5,-366.5 1514.5,-366.5 1514.5,-336.5 1391.5,-336.5"/>
<text text-anchor="start" x="1399.5" y="-354.5" font-family="Helvetica,sans-Serif" font-size="10.00">boost/log/utility/setup</text>
<text text-anchor="middle" x="1453" y="-343.5" font-family="Helvetica,sans-Serif" font-size="10.00">/file.hpp</text>
</a>
</g>
</g>
<!-- Node32&#45;&gt;Node42 -->
<g id="edge71" class="edge">
<title>Node32&#45;&gt;Node42</title>
<path fill="none" stroke="midnightblue" d="M1693.5,-408.94C1650.21,-398.78 1577.09,-381.62 1522.82,-368.88"/>
<polygon fill="midnightblue" stroke="midnightblue" points="1523.45,-365.44 1512.91,-366.56 1521.85,-372.25 1523.45,-365.44"/>
</g>
</g>
</svg>
