<?xml version="1.0" encoding="UTF-8" standalone="no"?>
<!DOCTYPE svg PUBLIC "-//W3C//DTD SVG 1.1//EN"
 "http://www.w3.org/Graphics/SVG/1.1/DTD/svg11.dtd">
<!-- Generated by graphviz version 2.43.0 (0)
 -->
<!-- Title: include/fire/RandomNumberSeedService.h Pages: 1 -->
<svg width="2792pt" height="565pt"
 viewBox="0.00 0.00 2791.50 565.00" xmlns="http://www.w3.org/2000/svg" xmlns:xlink="http://www.w3.org/1999/xlink">
<g id="graph0" class="graph" transform="scale(1 1) rotate(0) translate(4 561)">
<title>include/fire/RandomNumberSeedService.h</title>
<!-- Node1 -->
<g id="node1" class="node">
<title>Node1</title>
<g id="a_node1"><a xlink:title="Conditions object for random number seeds.">
<polygon fill="#bfbfbf" stroke="black" points="886,-526.5 886,-556.5 1039,-556.5 1039,-526.5 886,-526.5"/>
<text text-anchor="start" x="894" y="-544.5" font-family="Helvetica,sans-Serif" font-size="10.00">include/fire/RandomNumber</text>
<text text-anchor="middle" x="962.5" y="-533.5" font-family="Helvetica,sans-Serif" font-size="10.00">SeedService.h</text>
</a>
</g>
</g>
<!-- Node2 -->
<g id="node2" class="node">
<title>Node2</title>
<g id="a_node2"><a xlink:href="ConditionsObject_8h_source.html" target="_top" xlink:title=" ">
<polygon fill="none" stroke="black" points="1358.5,-409 1358.5,-428 1486.5,-428 1486.5,-409 1358.5,-409"/>
<text text-anchor="middle" x="1422.5" y="-416" font-family="Helvetica,sans-Serif" font-size="10.00">fire/ConditionsObject.h</text>
</a>
</g>
</g>
<!-- Node1&#45;&gt;Node2 -->
<g id="edge1" class="edge">
<title>Node1&#45;&gt;Node2</title>
<path fill="none" stroke="midnightblue" d="M1016.17,-526.38C1108.74,-502.03 1296.57,-452.62 1380.43,-430.57"/>
<polygon fill="midnightblue" stroke="midnightblue" points="1381.34,-433.95 1390.12,-428.02 1379.56,-427.18 1381.34,-433.95"/>
</g>
<!-- Node4 -->
<g id="node4" class="node">
<title>Node4</title>
<g id="a_node4"><a xlink:href="ConditionsProvider_8h_source.html" target="_top" xlink:title=" ">
<polygon fill="none" stroke="black" points="846.5,-470.5 846.5,-489.5 982.5,-489.5 982.5,-470.5 846.5,-470.5"/>
<text text-anchor="middle" x="914.5" y="-477.5" font-family="Helvetica,sans-Serif" font-size="10.00">fire/ConditionsProvider.h</text>
</a>
</g>
</g>
<!-- Node1&#45;&gt;Node4 -->
<g id="edge3" class="edge">
<title>Node1&#45;&gt;Node4</title>
<path fill="none" stroke="midnightblue" d="M951.12,-526.4C944.15,-517.75 935.19,-506.64 927.87,-497.58"/>
<polygon fill="midnightblue" stroke="midnightblue" points="930.49,-495.24 921.48,-489.66 925.04,-499.64 930.49,-495.24"/>
</g>
<!-- Node3 -->
<g id="node3" class="node">
<title>Node3</title>
<g id="a_node3"><a xlink:title=" ">
<polygon fill="none" stroke="#bfbfbf" points="974.5,-0.5 974.5,-19.5 1018.5,-19.5 1018.5,-0.5 974.5,-0.5"/>
<text text-anchor="middle" x="996.5" y="-7.5" font-family="Helvetica,sans-Serif" font-size="10.00">string</text>
</a>
</g>
</g>
<!-- Node2&#45;&gt;Node3 -->
<g id="edge2" class="edge">
<title>Node2&#45;&gt;Node3</title>
<path fill="none" stroke="midnightblue" d="M1486.77,-415.46C1756.55,-406.47 2783.5,-367.92 2783.5,-302 2783.5,-302 2783.5,-302 2783.5,-121 2783.5,-29.5 1271.17,-13.26 1029.03,-11.24"/>
<polygon fill="midnightblue" stroke="midnightblue" points="1028.8,-7.74 1018.77,-11.16 1028.74,-14.74 1028.8,-7.74"/>
</g>
<!-- Node4&#45;&gt;Node2 -->
<g id="edge48" class="edge">
<title>Node4&#45;&gt;Node2</title>
<path fill="none" stroke="midnightblue" d="M982.85,-473.54C1067.85,-466.35 1217.29,-452.45 1344.5,-434 1352.83,-432.79 1361.62,-431.33 1370.19,-429.82"/>
<polygon fill="midnightblue" stroke="midnightblue" points="1370.88,-433.25 1380.1,-428.02 1369.63,-426.36 1370.88,-433.25"/>
</g>
<!-- Node5 -->
<g id="node5" class="node">
<title>Node5</title>
<g id="a_node5"><a xlink:title=" ">
<polygon fill="none" stroke="#bfbfbf" points="897.5,-56.5 897.5,-75.5 935.5,-75.5 935.5,-56.5 897.5,-56.5"/>
<text text-anchor="middle" x="916.5" y="-63.5" font-family="Helvetica,sans-Serif" font-size="10.00">map</text>
</a>
</g>
</g>
<!-- Node4&#45;&gt;Node5 -->
<g id="edge4" class="edge">
<title>Node4&#45;&gt;Node5</title>
<path fill="none" stroke="midnightblue" d="M914.8,-470.41C916.25,-441.64 924.54,-347.32 971.5,-291 993.91,-264.13 1023.28,-284.86 1041.5,-255 1046.13,-247.41 1044.29,-243.44 1041.5,-235 1019.98,-170.02 962.49,-109.74 933.59,-82.4"/>
<polygon fill="midnightblue" stroke="midnightblue" points="935.96,-79.83 926.25,-75.59 931.2,-84.96 935.96,-79.83"/>
</g>
<!-- Node6 -->
<g id="node6" class="node">
<title>Node6</title>
<g id="a_node6"><a xlink:href="ConditionsIntervalOfValidity_8h_source.html" target="_top" xlink:title=" ">
<polygon fill="none" stroke="black" points="1048.5,-403.5 1048.5,-433.5 1184.5,-433.5 1184.5,-403.5 1048.5,-403.5"/>
<text text-anchor="start" x="1056.5" y="-421.5" font-family="Helvetica,sans-Serif" font-size="10.00">fire/ConditionsIntervalOf</text>
<text text-anchor="middle" x="1116.5" y="-410.5" font-family="Helvetica,sans-Serif" font-size="10.00">Validity.h</text>
</a>
</g>
</g>
<!-- Node4&#45;&gt;Node6 -->
<g id="edge5" class="edge">
<title>Node4&#45;&gt;Node6</title>
<path fill="none" stroke="midnightblue" d="M943.44,-470.48C973.48,-461.63 1021.28,-447.55 1059.03,-436.43"/>
<polygon fill="midnightblue" stroke="midnightblue" points="1060.29,-439.71 1068.89,-433.52 1058.31,-432.99 1060.29,-439.71"/>
</g>
<!-- Node22 -->
<g id="node22" class="node">
<title>Node22</title>
<g id="a_node22"><a xlink:href="Parameters_8h_source.html" target="_top" xlink:title=" ">
<polygon fill="none" stroke="black" points="349.5,-112.5 349.5,-131.5 481.5,-131.5 481.5,-112.5 349.5,-112.5"/>
<text text-anchor="middle" x="415.5" y="-119.5" font-family="Helvetica,sans-Serif" font-size="10.00">fire/config/Parameters.h</text>
</a>
</g>
</g>
<!-- Node4&#45;&gt;Node22 -->
<g id="edge56" class="edge">
<title>Node4&#45;&gt;Node22</title>
<path fill="none" stroke="midnightblue" d="M846.47,-478.74C695.07,-476.33 343.5,-459.78 343.5,-358 343.5,-358 343.5,-358 343.5,-244 343.5,-201.11 377.32,-160.17 398.6,-138.66"/>
<polygon fill="midnightblue" stroke="midnightblue" points="401.08,-141.13 405.79,-131.65 396.19,-136.13 401.08,-141.13"/>
</g>
<!-- Node26 -->
<g id="node26" class="node">
<title>Node26</title>
<g id="a_node26"><a xlink:href="Exception_8h_source.html" target="_top" xlink:title=" ">
<polygon fill="none" stroke="black" points="0,-56.5 0,-75.5 143,-75.5 143,-56.5 0,-56.5"/>
<text text-anchor="middle" x="71.5" y="-63.5" font-family="Helvetica,sans-Serif" font-size="10.00">fire/exception/Exception.h</text>
</a>
</g>
</g>
<!-- Node4&#45;&gt;Node26 -->
<g id="edge57" class="edge">
<title>Node4&#45;&gt;Node26</title>
<path fill="none" stroke="midnightblue" d="M846.18,-476.52C643.15,-468.25 57.5,-437.5 57.5,-358 57.5,-358 57.5,-358 57.5,-182.5 57.5,-148.11 63.69,-108.38 67.84,-85.63"/>
<polygon fill="midnightblue" stroke="midnightblue" points="71.31,-86.13 69.73,-75.65 64.43,-84.82 71.31,-86.13"/>
</g>
<!-- Node29 -->
<g id="node29" class="node">
<title>Node29</title>
<g id="a_node29"><a xlink:href="RunHeader_8h_source.html" target="_top" xlink:title=" ">
<polygon fill="none" stroke="black" points="725.5,-347.5 725.5,-366.5 823.5,-366.5 823.5,-347.5 725.5,-347.5"/>
<text text-anchor="middle" x="774.5" y="-354.5" font-family="Helvetica,sans-Serif" font-size="10.00">fire/RunHeader.h</text>
</a>
</g>
</g>
<!-- Node4&#45;&gt;Node29 -->
<g id="edge49" class="edge">
<title>Node4&#45;&gt;Node29</title>
<path fill="none" stroke="midnightblue" d="M904.43,-470.3C880.92,-449.98 822.15,-399.19 792.38,-373.46"/>
<polygon fill="midnightblue" stroke="midnightblue" points="794.33,-370.51 784.48,-366.62 789.75,-375.81 794.33,-370.51"/>
</g>
<!-- Node31 -->
<g id="node31" class="node">
<title>Node31</title>
<g id="a_node31"><a xlink:href="Factory_8h_source.html" target="_top" xlink:title=" ">
<polygon fill="none" stroke="black" points="185.5,-235.5 185.5,-254.5 301.5,-254.5 301.5,-235.5 185.5,-235.5"/>
<text text-anchor="middle" x="243.5" y="-242.5" font-family="Helvetica,sans-Serif" font-size="10.00">fire/factory/Factory.h</text>
</a>
</g>
</g>
<!-- Node4&#45;&gt;Node31 -->
<g id="edge58" class="edge">
<title>Node4&#45;&gt;Node31</title>
<path fill="none" stroke="midnightblue" d="M846.32,-477.61C701.09,-474.09 371.03,-462.98 329.5,-434 271.37,-393.43 251.75,-303.56 245.81,-264.61"/>
<polygon fill="midnightblue" stroke="midnightblue" points="249.27,-264.08 244.43,-254.66 242.34,-265.04 249.27,-264.08"/>
</g>
<!-- Node33 -->
<g id="node33" class="node">
<title>Node33</title>
<g id="a_node33"><a xlink:href="Logger_8h.html" target="_top" xlink:title="Interface to Boost.Logging.">
<polygon fill="none" stroke="black" points="1792.5,-235.5 1792.5,-254.5 1908.5,-254.5 1908.5,-235.5 1792.5,-235.5"/>
<text text-anchor="middle" x="1850.5" y="-242.5" font-family="Helvetica,sans-Serif" font-size="10.00">fire/logging/Logger.h</text>
</a>
</g>
</g>
<!-- Node4&#45;&gt;Node33 -->
<g id="edge64" class="edge">
<title>Node4&#45;&gt;Node33</title>
<path fill="none" stroke="midnightblue" d="M981.44,-470.48C1038.23,-462.71 1121.67,-450.01 1193.5,-434 1434.24,-380.34 1717.25,-289.85 1815.12,-257.74"/>
<polygon fill="midnightblue" stroke="midnightblue" points="1816.4,-261 1824.81,-254.55 1814.21,-254.35 1816.4,-261"/>
</g>
<!-- Node7 -->
<g id="node7" class="node">
<title>Node7</title>
<g id="a_node7"><a xlink:title=" ">
<polygon fill="none" stroke="#bfbfbf" points="1084.5,-56.5 1084.5,-75.5 1144.5,-75.5 1144.5,-56.5 1084.5,-56.5"/>
<text text-anchor="middle" x="1114.5" y="-63.5" font-family="Helvetica,sans-Serif" font-size="10.00">iostream</text>
</a>
</g>
</g>
<!-- Node6&#45;&gt;Node7 -->
<g id="edge6" class="edge">
<title>Node6&#45;&gt;Node7</title>
<path fill="none" stroke="midnightblue" d="M1137.7,-403.49C1150.77,-394.17 1167.29,-381.09 1179.5,-367 1198.41,-345.16 1204.9,-338.87 1212.5,-311 1236.74,-222.12 1204.47,-189.4 1154.5,-112 1147.78,-101.59 1138.71,-91.18 1130.91,-82.99"/>
<polygon fill="midnightblue" stroke="midnightblue" points="1133.17,-80.3 1123.66,-75.63 1128.18,-85.22 1133.17,-80.3"/>
</g>
<!-- Node8 -->
<g id="node8" class="node">
<title>Node8</title>
<g id="a_node8"><a xlink:href="EventHeader_8h_source.html" target="_top" xlink:title=" ">
<polygon fill="none" stroke="black" points="1063,-347.5 1063,-366.5 1170,-366.5 1170,-347.5 1063,-347.5"/>
<text text-anchor="middle" x="1116.5" y="-354.5" font-family="Helvetica,sans-Serif" font-size="10.00">fire/EventHeader.h</text>
</a>
</g>
</g>
<!-- Node6&#45;&gt;Node8 -->
<g id="edge7" class="edge">
<title>Node6&#45;&gt;Node8</title>
<path fill="none" stroke="midnightblue" d="M1116.5,-403.4C1116.5,-395.47 1116.5,-385.46 1116.5,-376.86"/>
<polygon fill="midnightblue" stroke="midnightblue" points="1120,-376.66 1116.5,-366.66 1113,-376.66 1120,-376.66"/>
</g>
<!-- Node8&#45;&gt;Node3 -->
<g id="edge11" class="edge">
<title>Node8&#45;&gt;Node3</title>
<path fill="none" stroke="midnightblue" d="M1157.97,-347.5C1178.09,-341.06 1200.45,-329.95 1212.5,-311 1222.9,-294.64 1282.74,-175.64 1172.5,-56 1153.27,-35.13 1074.09,-21.36 1028.75,-15.03"/>
<polygon fill="midnightblue" stroke="midnightblue" points="1029.2,-11.55 1018.82,-13.68 1028.26,-18.49 1029.2,-11.55"/>
</g>
<!-- Node8&#45;&gt;Node5 -->
<g id="edge10" class="edge">
<title>Node8&#45;&gt;Node5</title>
<path fill="none" stroke="midnightblue" d="M1116.35,-347.23C1115.47,-318.67 1109.33,-226.83 1067.5,-168 1036.23,-124.02 979.3,-93.71 944.98,-78.44"/>
<polygon fill="midnightblue" stroke="midnightblue" points="946.1,-75.11 935.53,-74.36 943.32,-81.54 946.1,-75.11"/>
</g>
<!-- Node8&#45;&gt;Node7 -->
<g id="edge9" class="edge">
<title>Node8&#45;&gt;Node7</title>
<path fill="none" stroke="midnightblue" d="M1147.52,-347.44C1165.53,-340.69 1186.73,-329.3 1197.5,-311 1202.01,-303.34 1199.07,-299.75 1197.5,-291 1183.11,-210.78 1141.9,-121.72 1123.53,-84.66"/>
<polygon fill="midnightblue" stroke="midnightblue" points="1126.61,-83.01 1118.99,-75.64 1120.36,-86.15 1126.61,-83.01"/>
</g>
<!-- Node9 -->
<g id="node9" class="node">
<title>Node9</title>
<g id="a_node9"><a xlink:title=" ">
<polygon fill="none" stroke="#bfbfbf" points="1144.5,-291.5 1144.5,-310.5 1188.5,-310.5 1188.5,-291.5 1144.5,-291.5"/>
<text text-anchor="middle" x="1166.5" y="-298.5" font-family="Helvetica,sans-Serif" font-size="10.00">ctime</text>
</a>
</g>
</g>
<!-- Node8&#45;&gt;Node9 -->
<g id="edge8" class="edge">
<title>Node8&#45;&gt;Node9</title>
<path fill="none" stroke="midnightblue" d="M1124.76,-347.08C1131.96,-339.3 1142.61,-327.8 1151.35,-318.37"/>
<polygon fill="midnightblue" stroke="midnightblue" points="1154.17,-320.47 1158.4,-310.75 1149.03,-315.71 1154.17,-320.47"/>
</g>
<!-- Node10 -->
<g id="node10" class="node">
<title>Node10</title>
<g id="a_node10"><a xlink:title=" ">
<polygon fill="none" stroke="#bfbfbf" points="981,-235.5 981,-254.5 1032,-254.5 1032,-235.5 981,-235.5"/>
<text text-anchor="middle" x="1006.5" y="-242.5" font-family="Helvetica,sans-Serif" font-size="10.00">variant</text>
</a>
</g>
</g>
<!-- Node8&#45;&gt;Node10 -->
<g id="edge12" class="edge">
<title>Node8&#45;&gt;Node10</title>
<path fill="none" stroke="midnightblue" d="M1062.65,-354.36C1030.62,-350.27 992.29,-339.22 971.5,-311 959.95,-295.33 974.43,-275.37 988.11,-261.73"/>
<polygon fill="midnightblue" stroke="midnightblue" points="990.54,-264.26 995.46,-254.87 985.76,-259.14 990.54,-264.26"/>
</g>
<!-- Node11 -->
<g id="node11" class="node">
<title>Node11</title>
<g id="a_node11"><a xlink:href="ParameterStorage_8h_source.html" target="_top" xlink:title=" ">
<polygon fill="none" stroke="black" points="701,-291.5 701,-310.5 848,-310.5 848,-291.5 701,-291.5"/>
<text text-anchor="middle" x="774.5" y="-298.5" font-family="Helvetica,sans-Serif" font-size="10.00">fire/h5/ParameterStorage.h</text>
</a>
</g>
</g>
<!-- Node8&#45;&gt;Node11 -->
<g id="edge13" class="edge">
<title>Node8&#45;&gt;Node11</title>
<path fill="none" stroke="midnightblue" d="M1062.69,-347.5C1001.98,-337.92 903.3,-322.34 838.64,-312.13"/>
<polygon fill="midnightblue" stroke="midnightblue" points="838.99,-308.64 828.56,-310.54 837.9,-315.55 838.99,-308.64"/>
</g>
<!-- Node28 -->
<g id="node28" class="node">
<title>Node28</title>
<g id="a_node28"><a xlink:href="Constants_8h.html" target="_top" xlink:title="Definitions for names of structures required by serialization methods.">
<polygon fill="none" stroke="black" points="980.5,-291.5 980.5,-310.5 1088.5,-310.5 1088.5,-291.5 980.5,-291.5"/>
<text text-anchor="middle" x="1034.5" y="-298.5" font-family="Helvetica,sans-Serif" font-size="10.00">fire/h5/Constants.h</text>
</a>
</g>
</g>
<!-- Node8&#45;&gt;Node28 -->
<g id="edge46" class="edge">
<title>Node8&#45;&gt;Node28</title>
<path fill="none" stroke="midnightblue" d="M1103.33,-347.32C1090.65,-338.98 1071.27,-326.21 1056.29,-316.35"/>
<polygon fill="midnightblue" stroke="midnightblue" points="1057.92,-313.23 1047.64,-310.65 1054.07,-319.08 1057.92,-313.23"/>
</g>
<!-- Node11&#45;&gt;Node3 -->
<g id="edge17" class="edge">
<title>Node11&#45;&gt;Node3</title>
<path fill="none" stroke="midnightblue" d="M795.97,-291.48C842.38,-271.71 951.09,-217.77 991.5,-132 1007.12,-98.83 1003.78,-54.71 1000.06,-29.94"/>
<polygon fill="midnightblue" stroke="midnightblue" points="1003.46,-29.03 998.34,-19.75 996.56,-30.2 1003.46,-29.03"/>
</g>
<!-- Node11&#45;&gt;Node5 -->
<g id="edge16" class="edge">
<title>Node11&#45;&gt;Node5</title>
<path fill="none" stroke="midnightblue" d="M786.62,-291.45C808.12,-275.66 852.98,-239.78 877.5,-199 899.48,-162.43 909.78,-112.65 913.99,-85.88"/>
<polygon fill="midnightblue" stroke="midnightblue" points="917.5,-86.03 915.48,-75.63 910.58,-85.02 917.5,-86.03"/>
</g>
<!-- Node11&#45;&gt;Node7 -->
<g id="edge15" class="edge">
<title>Node11&#45;&gt;Node7</title>
<path fill="none" stroke="midnightblue" d="M823.49,-291.47C854.88,-284.64 895.72,-273.14 928.5,-255 1008.49,-210.73 1076.58,-121.59 1102.88,-84.16"/>
<polygon fill="midnightblue" stroke="midnightblue" points="1105.84,-86.03 1108.65,-75.82 1100.08,-82.05 1105.84,-86.03"/>
</g>
<!-- Node11&#45;&gt;Node10 -->
<g id="edge18" class="edge">
<title>Node11&#45;&gt;Node10</title>
<path fill="none" stroke="midnightblue" d="M811.26,-291.44C855.03,-281.26 927.62,-264.36 970.88,-254.29"/>
<polygon fill="midnightblue" stroke="midnightblue" points="971.74,-257.68 980.69,-252.01 970.15,-250.87 971.74,-257.68"/>
</g>
<!-- Node12 -->
<g id="node12" class="node">
<title>Node12</title>
<g id="a_node12"><a xlink:title=" ">
<polygon fill="none" stroke="#bfbfbf" points="199.5,-56.5 199.5,-75.5 339.5,-75.5 339.5,-56.5 199.5,-56.5"/>
<text text-anchor="middle" x="269.5" y="-63.5" font-family="Helvetica,sans-Serif" font-size="10.00">boost/core/demangle.hpp</text>
</a>
</g>
</g>
<!-- Node11&#45;&gt;Node12 -->
<g id="edge14" class="edge">
<title>Node11&#45;&gt;Node12</title>
<path fill="none" stroke="midnightblue" d="M724.2,-291.46C655.55,-278.41 530.04,-249.56 433.5,-199 372.5,-167.05 312.46,-110.63 285.01,-83.07"/>
<polygon fill="midnightblue" stroke="midnightblue" points="287.37,-80.48 277.86,-75.8 282.37,-85.38 287.37,-80.48"/>
</g>
<!-- Node13 -->
<g id="node13" class="node">
<title>Node13</title>
<g id="a_node13"><a xlink:href="Data_8h_source.html" target="_top" xlink:title=" ">
<polygon fill="none" stroke="black" points="600,-235.5 600,-254.5 683,-254.5 683,-235.5 600,-235.5"/>
<text text-anchor="middle" x="641.5" y="-242.5" font-family="Helvetica,sans-Serif" font-size="10.00">fire/h5/Data.h</text>
</a>
</g>
</g>
<!-- Node11&#45;&gt;Node13 -->
<g id="edge19" class="edge">
<title>Node11&#45;&gt;Node13</title>
<path fill="none" stroke="midnightblue" d="M753.43,-291.44C731.44,-282.52 696.77,-268.44 671.84,-258.32"/>
<polygon fill="midnightblue" stroke="midnightblue" points="673.06,-255.04 662.48,-254.52 670.42,-261.52 673.06,-255.04"/>
</g>
<!-- Node17 -->
<g id="node17" class="node">
<title>Node17</title>
<g id="a_node17"><a xlink:href="Reader_8h_source.html" target="_top" xlink:title=" ">
<polygon fill="none" stroke="black" points="704,-174 704,-193 797,-193 797,-174 704,-174"/>
<text text-anchor="middle" x="750.5" y="-181" font-family="Helvetica,sans-Serif" font-size="10.00">fire/h5/Reader.h</text>
</a>
</g>
</g>
<!-- Node11&#45;&gt;Node17 -->
<g id="edge44" class="edge">
<title>Node11&#45;&gt;Node17</title>
<path fill="none" stroke="midnightblue" d="M772.7,-291.32C768.82,-272.67 759.63,-228.44 754.37,-203.13"/>
<polygon fill="midnightblue" stroke="midnightblue" points="757.79,-202.36 752.32,-193.28 750.93,-203.78 757.79,-202.36"/>
</g>
<!-- Node11&#45;&gt;Node26 -->
<g id="edge45" class="edge">
<title>Node11&#45;&gt;Node26</title>
<path fill="none" stroke="midnightblue" d="M700.76,-295.23C543.38,-284.94 187.93,-261.1 176.5,-255 110.91,-220.02 83.86,-125.96 75.06,-85.7"/>
<polygon fill="midnightblue" stroke="midnightblue" points="78.44,-84.76 73,-75.66 71.58,-86.16 78.44,-84.76"/>
</g>
<!-- Node13&#45;&gt;Node5 -->
<g id="edge23" class="edge">
<title>Node13&#45;&gt;Node5</title>
<path fill="none" stroke="midnightblue" d="M683.22,-236.66C725.66,-228.51 787.76,-214.43 806.5,-199 839.79,-171.58 821.09,-144.45 849.5,-112 860.75,-99.15 876.47,-88.34 889.86,-80.53"/>
<polygon fill="midnightblue" stroke="midnightblue" points="891.64,-83.55 898.67,-75.62 888.23,-77.43 891.64,-83.55"/>
</g>
<!-- Node14 -->
<g id="node14" class="node">
<title>Node14</title>
<g id="a_node14"><a xlink:title=" ">
<polygon fill="none" stroke="#bfbfbf" points="257.5,-174 257.5,-193 315.5,-193 315.5,-174 257.5,-174"/>
<text text-anchor="middle" x="286.5" y="-181" font-family="Helvetica,sans-Serif" font-size="10.00">memory</text>
</a>
</g>
</g>
<!-- Node13&#45;&gt;Node14 -->
<g id="edge20" class="edge">
<title>Node13&#45;&gt;Node14</title>
<path fill="none" stroke="midnightblue" d="M599.73,-237C530.66,-225.42 393.58,-202.45 326.02,-191.12"/>
<polygon fill="midnightblue" stroke="midnightblue" points="326.24,-187.61 315.8,-189.41 325.08,-194.52 326.24,-187.61"/>
</g>
<!-- Node15 -->
<g id="node15" class="node">
<title>Node15</title>
<g id="a_node15"><a xlink:title=" ">
<polygon fill="none" stroke="#bfbfbf" points="653,-56.5 653,-75.5 722,-75.5 722,-56.5 653,-56.5"/>
<text text-anchor="middle" x="687.5" y="-63.5" font-family="Helvetica,sans-Serif" font-size="10.00">type_traits</text>
</a>
</g>
</g>
<!-- Node13&#45;&gt;Node15 -->
<g id="edge21" class="edge">
<title>Node13&#45;&gt;Node15</title>
<path fill="none" stroke="midnightblue" d="M599.97,-241.01C542.88,-235.03 450.12,-217.58 477.5,-168 483.15,-157.77 556.02,-117.17 566.5,-112 593.52,-98.65 625.54,-86.91 649.85,-78.77"/>
<polygon fill="midnightblue" stroke="midnightblue" points="651.03,-82.07 659.43,-75.62 648.84,-75.42 651.03,-82.07"/>
</g>
<!-- Node16 -->
<g id="node16" class="node">
<title>Node16</title>
<g id="a_node16"><a xlink:title=" ">
<polygon fill="none" stroke="#bfbfbf" points="588,-56.5 588,-75.5 635,-75.5 635,-56.5 588,-56.5"/>
<text text-anchor="middle" x="611.5" y="-63.5" font-family="Helvetica,sans-Serif" font-size="10.00">vector</text>
</a>
</g>
</g>
<!-- Node13&#45;&gt;Node16 -->
<g id="edge22" class="edge">
<title>Node13&#45;&gt;Node16</title>
<path fill="none" stroke="midnightblue" d="M599.91,-240.53C547.71,-235.21 462.69,-223.04 443.5,-199 434.9,-188.23 436.81,-180.04 443.5,-168 451.41,-153.77 541.39,-104.36 586.31,-80.33"/>
<polygon fill="midnightblue" stroke="midnightblue" points="587.98,-83.41 595.16,-75.61 584.69,-77.23 587.98,-83.41"/>
</g>
<!-- Node13&#45;&gt;Node17 -->
<g id="edge24" class="edge">
<title>Node13&#45;&gt;Node17</title>
<path fill="none" stroke="midnightblue" d="M657.12,-235.48C675.09,-225.67 704.82,-209.43 725.91,-197.92"/>
<polygon fill="midnightblue" stroke="midnightblue" points="727.81,-200.87 734.91,-193.01 724.46,-194.73 727.81,-200.87"/>
</g>
<!-- Node21 -->
<g id="node21" class="node">
<title>Node21</title>
<g id="a_node21"><a xlink:href="Writer_8h_source.html" target="_top" xlink:title=" ">
<polygon fill="none" stroke="black" points="597,-174 597,-193 686,-193 686,-174 597,-174"/>
<text text-anchor="middle" x="641.5" y="-181" font-family="Helvetica,sans-Serif" font-size="10.00">fire/h5/Writer.h</text>
</a>
</g>
</g>
<!-- Node13&#45;&gt;Node21 -->
<g id="edge28" class="edge">
<title>Node13&#45;&gt;Node21</title>
<path fill="none" stroke="midnightblue" d="M641.5,-235.48C641.5,-227.08 641.5,-213.98 641.5,-203.16"/>
<polygon fill="midnightblue" stroke="midnightblue" points="645,-203.01 641.5,-193.01 638,-203.01 645,-203.01"/>
</g>
<!-- Node18 -->
<g id="node18" class="node">
<title>Node18</title>
<g id="a_node18"><a xlink:title=" ">
<polygon fill="none" stroke="#bfbfbf" points="687.5,-112.5 687.5,-131.5 797.5,-131.5 797.5,-112.5 687.5,-112.5"/>
<text text-anchor="middle" x="742.5" y="-119.5" font-family="Helvetica,sans-Serif" font-size="10.00">highfive/H5File.hpp</text>
</a>
</g>
</g>
<!-- Node17&#45;&gt;Node18 -->
<g id="edge25" class="edge">
<title>Node17&#45;&gt;Node18</title>
<path fill="none" stroke="midnightblue" d="M749.35,-173.98C748.23,-165.58 746.46,-152.48 745.01,-141.66"/>
<polygon fill="midnightblue" stroke="midnightblue" points="748.45,-140.95 743.64,-131.51 741.51,-141.89 748.45,-140.95"/>
</g>
<!-- Node19 -->
<g id="node19" class="node">
<title>Node19</title>
<g id="a_node19"><a xlink:href="Atomic_8h_source.html" target="_top" xlink:title=" ">
<polygon fill="none" stroke="black" points="575.5,-112.5 575.5,-131.5 669.5,-131.5 669.5,-112.5 575.5,-112.5"/>
<text text-anchor="middle" x="622.5" y="-119.5" font-family="Helvetica,sans-Serif" font-size="10.00">fire/h5/Atomic.h</text>
</a>
</g>
</g>
<!-- Node17&#45;&gt;Node19 -->
<g id="edge26" class="edge">
<title>Node17&#45;&gt;Node19</title>
<path fill="none" stroke="midnightblue" d="M732.16,-173.98C710.68,-163.99 674.88,-147.35 650.05,-135.81"/>
<polygon fill="midnightblue" stroke="midnightblue" points="651.35,-132.55 640.81,-131.51 648.4,-138.9 651.35,-132.55"/>
</g>
<!-- Node20 -->
<g id="node20" class="node">
<title>Node20</title>
<g id="a_node20"><a xlink:title=" ">
<polygon fill="none" stroke="#bfbfbf" points="740,-56.5 740,-75.5 879,-75.5 879,-56.5 740,-56.5"/>
<text text-anchor="middle" x="809.5" y="-63.5" font-family="Helvetica,sans-Serif" font-size="10.00">highfive/H5DataType.hpp</text>
</a>
</g>
</g>
<!-- Node19&#45;&gt;Node20 -->
<g id="edge27" class="edge">
<title>Node19&#45;&gt;Node20</title>
<path fill="none" stroke="midnightblue" d="M652.13,-112.44C684,-103.24 734.83,-88.56 770.06,-78.39"/>
<polygon fill="midnightblue" stroke="midnightblue" points="771.37,-81.65 780.01,-75.52 769.43,-74.93 771.37,-81.65"/>
</g>
<!-- Node21&#45;&gt;Node18 -->
<g id="edge29" class="edge">
<title>Node21&#45;&gt;Node18</title>
<path fill="none" stroke="midnightblue" d="M655.97,-173.98C672.47,-164.25 699.68,-148.23 719.18,-136.74"/>
<polygon fill="midnightblue" stroke="midnightblue" points="721.22,-139.6 728.06,-131.51 717.66,-133.57 721.22,-139.6"/>
</g>
<!-- Node21&#45;&gt;Node19 -->
<g id="edge43" class="edge">
<title>Node21&#45;&gt;Node19</title>
<path fill="none" stroke="midnightblue" d="M638.78,-173.98C636.07,-165.49 631.83,-152.2 628.35,-141.32"/>
<polygon fill="midnightblue" stroke="midnightblue" points="631.59,-139.97 625.22,-131.51 624.93,-142.1 631.59,-139.97"/>
</g>
<!-- Node21&#45;&gt;Node22 -->
<g id="edge30" class="edge">
<title>Node21&#45;&gt;Node22</title>
<path fill="none" stroke="midnightblue" d="M610.41,-173.92C603.22,-171.96 595.6,-169.89 588.5,-168 544.29,-156.2 493.62,-143.07 458.59,-134.05"/>
<polygon fill="midnightblue" stroke="midnightblue" points="459.25,-130.61 448.7,-131.5 457.51,-137.38 459.25,-130.61"/>
</g>
<!-- Node22&#45;&gt;Node3 -->
<g id="edge35" class="edge">
<title>Node22&#45;&gt;Node3</title>
<path fill="none" stroke="midnightblue" d="M442.22,-112.49C467.8,-104.08 507.29,-90.42 540.5,-76 558.37,-68.24 560.84,-61.58 579.5,-56 718.18,-14.51 892.94,-10.32 964.11,-10.52"/>
<polygon fill="midnightblue" stroke="midnightblue" points="964.22,-14.02 974.24,-10.58 964.26,-7.02 964.22,-14.02"/>
</g>
<!-- Node22&#45;&gt;Node5 -->
<g id="edge34" class="edge">
<title>Node22&#45;&gt;Node5</title>
<path fill="none" stroke="midnightblue" d="M481.81,-116.47C588.93,-108.86 796.41,-92.87 887.38,-75.74"/>
<polygon fill="midnightblue" stroke="midnightblue" points="888.24,-79.14 897.37,-73.75 886.88,-72.27 888.24,-79.14"/>
</g>
<!-- Node22&#45;&gt;Node7 -->
<g id="edge32" class="edge">
<title>Node22&#45;&gt;Node7</title>
<path fill="none" stroke="midnightblue" d="M481.58,-115.9C624.47,-104.86 958.67,-79.04 1074.29,-70.11"/>
<polygon fill="midnightblue" stroke="midnightblue" points="1074.77,-73.58 1084.47,-69.32 1074.23,-66.6 1074.77,-73.58"/>
</g>
<!-- Node22&#45;&gt;Node12 -->
<g id="edge39" class="edge">
<title>Node22&#45;&gt;Node12</title>
<path fill="none" stroke="midnightblue" d="M392.37,-112.44C368.02,-103.44 329.49,-89.19 302.08,-79.05"/>
<polygon fill="midnightblue" stroke="midnightblue" points="303.12,-75.7 292.53,-75.52 300.69,-82.27 303.12,-75.7"/>
</g>
<!-- Node22&#45;&gt;Node15 -->
<g id="edge36" class="edge">
<title>Node22&#45;&gt;Node15</title>
<path fill="none" stroke="midnightblue" d="M459.86,-112.45C503.85,-103.93 573.46,-90.36 642.58,-76.37"/>
<polygon fill="midnightblue" stroke="midnightblue" points="643.67,-79.72 652.77,-74.31 642.28,-72.86 643.67,-79.72"/>
</g>
<!-- Node22&#45;&gt;Node16 -->
<g id="edge38" class="edge">
<title>Node22&#45;&gt;Node16</title>
<path fill="none" stroke="midnightblue" d="M446.56,-112.44C482.47,-102.55 541.36,-86.32 578.2,-76.17"/>
<polygon fill="midnightblue" stroke="midnightblue" points="579.26,-79.51 587.97,-73.48 577.4,-72.76 579.26,-79.51"/>
</g>
<!-- Node23 -->
<g id="node23" class="node">
<title>Node23</title>
<g id="a_node23"><a xlink:title=" ">
<polygon fill="none" stroke="#bfbfbf" points="358,-56.5 358,-75.5 393,-75.5 393,-56.5 358,-56.5"/>
<text text-anchor="middle" x="375.5" y="-63.5" font-family="Helvetica,sans-Serif" font-size="10.00">any</text>
</a>
</g>
</g>
<!-- Node22&#45;&gt;Node23 -->
<g id="edge31" class="edge">
<title>Node22&#45;&gt;Node23</title>
<path fill="none" stroke="midnightblue" d="M408.89,-112.08C403.24,-104.46 394.96,-93.26 388.05,-83.94"/>
<polygon fill="midnightblue" stroke="midnightblue" points="390.75,-81.7 381.98,-75.75 385.12,-85.87 390.75,-81.7"/>
</g>
<!-- Node24 -->
<g id="node24" class="node">
<title>Node24</title>
<g id="a_node24"><a xlink:title=" ">
<polygon fill="none" stroke="#bfbfbf" points="411.5,-56.5 411.5,-75.5 455.5,-75.5 455.5,-56.5 411.5,-56.5"/>
<text text-anchor="middle" x="433.5" y="-63.5" font-family="Helvetica,sans-Serif" font-size="10.00">limits</text>
</a>
</g>
</g>
<!-- Node22&#45;&gt;Node24 -->
<g id="edge33" class="edge">
<title>Node22&#45;&gt;Node24</title>
<path fill="none" stroke="midnightblue" d="M418.47,-112.08C420.88,-104.85 424.36,-94.41 427.37,-85.4"/>
<polygon fill="midnightblue" stroke="midnightblue" points="430.74,-86.34 430.58,-75.75 424.1,-84.13 430.74,-86.34"/>
</g>
<!-- Node25 -->
<g id="node25" class="node">
<title>Node25</title>
<g id="a_node25"><a xlink:title=" ">
<polygon fill="none" stroke="#bfbfbf" points="474,-56.5 474,-75.5 531,-75.5 531,-56.5 474,-56.5"/>
<text text-anchor="middle" x="502.5" y="-63.5" font-family="Helvetica,sans-Serif" font-size="10.00">typeinfo</text>
</a>
</g>
</g>
<!-- Node22&#45;&gt;Node25 -->
<g id="edge37" class="edge">
<title>Node22&#45;&gt;Node25</title>
<path fill="none" stroke="midnightblue" d="M429.48,-112.32C443.05,-103.9 463.88,-90.97 479.82,-81.07"/>
<polygon fill="midnightblue" stroke="midnightblue" points="481.91,-83.9 488.56,-75.65 478.21,-77.95 481.91,-83.9"/>
</g>
<!-- Node22&#45;&gt;Node26 -->
<g id="edge40" class="edge">
<title>Node22&#45;&gt;Node26</title>
<path fill="none" stroke="midnightblue" d="M360.99,-112.44C299.85,-102.85 200.76,-87.29 135.86,-77.1"/>
<polygon fill="midnightblue" stroke="midnightblue" points="136.17,-73.61 125.75,-75.52 135.09,-80.52 136.17,-73.61"/>
</g>
<!-- Node26&#45;&gt;Node3 -->
<g id="edge42" class="edge">
<title>Node26&#45;&gt;Node3</title>
<path fill="none" stroke="midnightblue" d="M143.27,-57.21C148.08,-56.78 152.86,-56.37 157.5,-56 471.33,-31.18 852.29,-16.23 964.17,-12.14"/>
<polygon fill="midnightblue" stroke="midnightblue" points="964.57,-15.63 974.44,-11.77 964.31,-8.64 964.57,-15.63"/>
</g>
<!-- Node27 -->
<g id="node27" class="node">
<title>Node27</title>
<g id="a_node27"><a xlink:title=" ">
<polygon fill="none" stroke="#bfbfbf" points="39,-0.5 39,-19.5 104,-19.5 104,-0.5 39,-0.5"/>
<text text-anchor="middle" x="71.5" y="-7.5" font-family="Helvetica,sans-Serif" font-size="10.00">exception</text>
</a>
</g>
</g>
<!-- Node26&#45;&gt;Node27 -->
<g id="edge41" class="edge">
<title>Node26&#45;&gt;Node27</title>
<path fill="none" stroke="midnightblue" d="M71.5,-56.08C71.5,-49.01 71.5,-38.86 71.5,-29.99"/>
<polygon fill="midnightblue" stroke="midnightblue" points="75,-29.75 71.5,-19.75 68,-29.75 75,-29.75"/>
</g>
<!-- Node28&#45;&gt;Node3 -->
<g id="edge47" class="edge">
<title>Node28&#45;&gt;Node3</title>
<path fill="none" stroke="midnightblue" d="M1045.13,-291.35C1084.37,-258.39 1215.62,-138.43 1153.5,-56 1138.48,-36.06 1069.85,-22.26 1028.46,-15.59"/>
<polygon fill="midnightblue" stroke="midnightblue" points="1028.99,-12.13 1018.57,-14.05 1027.91,-19.05 1028.99,-12.13"/>
</g>
<!-- Node29&#45;&gt;Node3 -->
<g id="edge51" class="edge">
<title>Node29&#45;&gt;Node3</title>
<path fill="none" stroke="midnightblue" d="M799.36,-347.42C817.44,-340.13 841.46,-328.09 857.5,-311 939.14,-224.05 979.83,-80.61 992.25,-29.66"/>
<polygon fill="midnightblue" stroke="midnightblue" points="995.7,-30.29 994.59,-19.76 988.89,-28.68 995.7,-30.29"/>
</g>
<!-- Node29&#45;&gt;Node5 -->
<g id="edge50" class="edge">
<title>Node29&#45;&gt;Node5</title>
<path fill="none" stroke="midnightblue" d="M746.21,-347.5C717.21,-337.14 678.23,-317.67 692.5,-291 727.28,-226.01 778.65,-251.4 830.5,-199 865.64,-163.49 894.42,-111.45 908.02,-84.55"/>
<polygon fill="midnightblue" stroke="midnightblue" points="911.17,-86.07 912.47,-75.56 904.9,-82.96 911.17,-86.07"/>
</g>
<!-- Node29&#45;&gt;Node11 -->
<g id="edge54" class="edge">
<title>Node29&#45;&gt;Node11</title>
<path fill="none" stroke="midnightblue" d="M774.5,-347.08C774.5,-340.01 774.5,-329.86 774.5,-320.99"/>
<polygon fill="midnightblue" stroke="midnightblue" points="778,-320.75 774.5,-310.75 771,-320.75 778,-320.75"/>
</g>
<!-- Node29&#45;&gt;Node13 -->
<g id="edge53" class="edge">
<title>Node29&#45;&gt;Node13</title>
<path fill="none" stroke="midnightblue" d="M725.39,-347.69C702.1,-341.35 675.68,-330.27 658.5,-311 647.23,-298.36 643.27,-279.15 641.96,-264.89"/>
<polygon fill="midnightblue" stroke="midnightblue" points="645.45,-264.52 641.39,-254.73 638.46,-264.91 645.45,-264.52"/>
</g>
<!-- Node29&#45;&gt;Node28 -->
<g id="edge55" class="edge">
<title>Node29&#45;&gt;Node28</title>
<path fill="none" stroke="midnightblue" d="M815.7,-347.44C861.15,-338 934.34,-322.8 983.41,-312.61"/>
<polygon fill="midnightblue" stroke="midnightblue" points="984.42,-315.98 993.49,-310.52 982.99,-309.12 984.42,-315.98"/>
</g>
<!-- Node30 -->
<g id="node30" class="node">
<title>Node30</title>
<g id="a_node30"><a xlink:title=" ">
<polygon fill="none" stroke="#bfbfbf" points="487,-291.5 487,-310.5 606,-310.5 606,-291.5 487,-291.5"/>
<text text-anchor="middle" x="546.5" y="-298.5" font-family="Helvetica,sans-Serif" font-size="10.00">fire/version/Version.h</text>
</a>
</g>
</g>
<!-- Node29&#45;&gt;Node30 -->
<g id="edge52" class="edge">
<title>Node29&#45;&gt;Node30</title>
<path fill="none" stroke="midnightblue" d="M738.37,-347.44C698.85,-338.08 635.4,-323.06 592.39,-312.87"/>
<polygon fill="midnightblue" stroke="midnightblue" points="593,-309.42 582.46,-310.52 591.38,-316.23 593,-309.42"/>
</g>
<!-- Node31&#45;&gt;Node3 -->
<g id="edge60" class="edge">
<title>Node31&#45;&gt;Node3</title>
<path fill="none" stroke="midnightblue" d="M236,-235.15C211.84,-205.57 140.4,-108.97 190.5,-56 217.51,-27.44 816.39,-14.37 963.89,-11.58"/>
<polygon fill="midnightblue" stroke="midnightblue" points="964.17,-15.08 974.1,-11.39 964.04,-8.08 964.17,-15.08"/>
</g>
<!-- Node31&#45;&gt;Node12 -->
<g id="edge62" class="edge">
<title>Node31&#45;&gt;Node12</title>
<path fill="none" stroke="midnightblue" d="M243.68,-235.07C244.07,-220.82 245.22,-192.11 248.5,-168 252.48,-138.8 260.02,-105.42 264.9,-85.29"/>
<polygon fill="midnightblue" stroke="midnightblue" points="268.29,-86.12 267.29,-75.58 261.5,-84.45 268.29,-86.12"/>
</g>
<!-- Node31&#45;&gt;Node14 -->
<g id="edge59" class="edge">
<title>Node31&#45;&gt;Node14</title>
<path fill="none" stroke="midnightblue" d="M249.66,-235.48C256.11,-226.55 266.4,-212.31 274.47,-201.14"/>
<polygon fill="midnightblue" stroke="midnightblue" points="277.33,-203.16 280.35,-193.01 271.66,-199.06 277.33,-203.16"/>
</g>
<!-- Node31&#45;&gt;Node26 -->
<g id="edge63" class="edge">
<title>Node31&#45;&gt;Node26</title>
<path fill="none" stroke="midnightblue" d="M218.48,-235.44C199.89,-228.09 174.85,-215.97 157.5,-199 125.93,-168.12 134.53,-148.38 109.5,-112 102.54,-101.89 93.76,-91.37 86.39,-83.05"/>
<polygon fill="midnightblue" stroke="midnightblue" points="88.91,-80.62 79.61,-75.55 83.72,-85.32 88.91,-80.62"/>
</g>
<!-- Node32 -->
<g id="node32" class="node">
<title>Node32</title>
<g id="a_node32"><a xlink:title=" ">
<polygon fill="none" stroke="#bfbfbf" points="486,-174 486,-193 579,-193 579,-174 486,-174"/>
<text text-anchor="middle" x="532.5" y="-181" font-family="Helvetica,sans-Serif" font-size="10.00">unordered_map</text>
</a>
</g>
</g>
<!-- Node31&#45;&gt;Node32 -->
<g id="edge61" class="edge">
<title>Node31&#45;&gt;Node32</title>
<path fill="none" stroke="midnightblue" d="M284.91,-235.48C336.63,-224.83 425.11,-206.61 481.11,-195.08"/>
<polygon fill="midnightblue" stroke="midnightblue" points="482.08,-198.45 491.17,-193.01 480.67,-191.6 482.08,-198.45"/>
</g>
<!-- Node33&#45;&gt;Node32 -->
<g id="edge75" class="edge">
<title>Node33&#45;&gt;Node32</title>
<path fill="none" stroke="midnightblue" d="M1792.45,-243.61C1577.29,-241.89 825.52,-233.49 588.5,-199 582.58,-198.14 576.38,-196.89 570.36,-195.49"/>
<polygon fill="midnightblue" stroke="midnightblue" points="571.01,-192.04 560.46,-193.01 569.31,-198.83 571.01,-192.04"/>
</g>
<!-- Node34 -->
<g id="node34" class="node">
<title>Node34</title>
<g id="a_node34"><a xlink:title=" ">
<polygon fill="none" stroke="#bfbfbf" points="1725,-174 1725,-193 1832,-193 1832,-174 1725,-174"/>
<text text-anchor="middle" x="1778.5" y="-181" font-family="Helvetica,sans-Serif" font-size="10.00">boost/log/core.hpp</text>
</a>
</g>
</g>
<!-- Node33&#45;&gt;Node34 -->
<g id="edge65" class="edge">
<title>Node33&#45;&gt;Node34</title>
<path fill="none" stroke="midnightblue" d="M1840.18,-235.48C1828.85,-226.11 1810.43,-210.88 1796.66,-199.51"/>
<polygon fill="midnightblue" stroke="midnightblue" points="1798.73,-196.68 1788.8,-193.01 1794.28,-202.08 1798.73,-196.68"/>
</g>
<!-- Node35 -->
<g id="node35" class="node">
<title>Node35</title>
<g id="a_node35"><a xlink:title=" ">
<polygon fill="none" stroke="#bfbfbf" points="1850.5,-174 1850.5,-193 1994.5,-193 1994.5,-174 1850.5,-174"/>
<text text-anchor="middle" x="1922.5" y="-181" font-family="Helvetica,sans-Serif" font-size="10.00">boost/log/expressions.hpp</text>
</a>
</g>
</g>
<!-- Node33&#45;&gt;Node35 -->
<g id="edge66" class="edge">
<title>Node33&#45;&gt;Node35</title>
<path fill="none" stroke="midnightblue" d="M1860.82,-235.48C1872.15,-226.11 1890.57,-210.88 1904.34,-199.51"/>
<polygon fill="midnightblue" stroke="midnightblue" points="1906.72,-202.08 1912.2,-193.01 1902.27,-196.68 1906.72,-202.08"/>
</g>
<!-- Node36 -->
<g id="node36" class="node">
<title>Node36</title>
<g id="a_node36"><a xlink:title=" ">
<polygon fill="none" stroke="#bfbfbf" points="2012.5,-168.5 2012.5,-198.5 2128.5,-198.5 2128.5,-168.5 2012.5,-168.5"/>
<text text-anchor="start" x="2020.5" y="-186.5" font-family="Helvetica,sans-Serif" font-size="10.00">boost/log/sinks/sync</text>
<text text-anchor="middle" x="2070.5" y="-175.5" font-family="Helvetica,sans-Serif" font-size="10.00">_frontend.hpp</text>
</a>
</g>
</g>
<!-- Node33&#45;&gt;Node36 -->
<g id="edge67" class="edge">
<title>Node33&#45;&gt;Node36</title>
<path fill="none" stroke="midnightblue" d="M1882.02,-235.48C1915.02,-226.55 1967.68,-212.31 2008.96,-201.14"/>
<polygon fill="midnightblue" stroke="midnightblue" points="2009.91,-204.51 2018.65,-198.52 2008.08,-197.76 2009.91,-204.51"/>
</g>
<!-- Node37 -->
<g id="node37" class="node">
<title>Node37</title>
<g id="a_node37"><a xlink:title=" ">
<polygon fill="none" stroke="#bfbfbf" points="2147,-168.5 2147,-198.5 2276,-198.5 2276,-168.5 2147,-168.5"/>
<text text-anchor="start" x="2155" y="-186.5" font-family="Helvetica,sans-Serif" font-size="10.00">boost/log/sinks/text</text>
<text text-anchor="middle" x="2211.5" y="-175.5" font-family="Helvetica,sans-Serif" font-size="10.00">_ostream_backend.hpp</text>
</a>
</g>
</g>
<!-- Node33&#45;&gt;Node37 -->
<g id="edge68" class="edge">
<title>Node33&#45;&gt;Node37</title>
<path fill="none" stroke="midnightblue" d="M1908.6,-235.55C1964.5,-227.27 2051.64,-213.98 2137.08,-199.03"/>
<polygon fill="midnightblue" stroke="midnightblue" points="2137.71,-202.48 2146.95,-197.3 2136.5,-195.58 2137.71,-202.48"/>
</g>
<!-- Node38 -->
<g id="node38" class="node">
<title>Node38</title>
<g id="a_node38"><a xlink:title=" ">
<polygon fill="none" stroke="#bfbfbf" points="2294,-168.5 2294,-198.5 2429,-198.5 2429,-168.5 2294,-168.5"/>
<text text-anchor="start" x="2302" y="-186.5" font-family="Helvetica,sans-Serif" font-size="10.00">boost/log/sources/global</text>
<text text-anchor="middle" x="2361.5" y="-175.5" font-family="Helvetica,sans-Serif" font-size="10.00">_logger_storage.hpp</text>
</a>
</g>
</g>
<!-- Node33&#45;&gt;Node38 -->
<g id="edge69" class="edge">
<title>Node33&#45;&gt;Node38</title>
<path fill="none" stroke="midnightblue" d="M1908.75,-239.57C1990.42,-233 2143.82,-219.38 2283.56,-199.22"/>
<polygon fill="midnightblue" stroke="midnightblue" points="2284.21,-202.66 2293.6,-197.75 2283.2,-195.73 2284.21,-202.66"/>
</g>
<!-- Node39 -->
<g id="node39" class="node">
<title>Node39</title>
<g id="a_node39"><a xlink:title=" ">
<polygon fill="none" stroke="#bfbfbf" points="2447,-168.5 2447,-198.5 2592,-198.5 2592,-168.5 2447,-168.5"/>
<text text-anchor="start" x="2455" y="-186.5" font-family="Helvetica,sans-Serif" font-size="10.00">boost/log/sources/severity</text>
<text text-anchor="middle" x="2519.5" y="-175.5" font-family="Helvetica,sans-Serif" font-size="10.00">_channel_logger.hpp</text>
</a>
</g>
</g>
<!-- Node33&#45;&gt;Node39 -->
<g id="edge70" class="edge">
<title>Node33&#45;&gt;Node39</title>
<path fill="none" stroke="midnightblue" d="M1908.7,-241.49C2012.74,-236.58 2237.65,-224.05 2436.64,-199.16"/>
<polygon fill="midnightblue" stroke="midnightblue" points="2437.21,-202.62 2446.7,-197.89 2436.34,-195.67 2437.21,-202.62"/>
</g>
<!-- Node40 -->
<g id="node40" class="node">
<title>Node40</title>
<g id="a_node40"><a xlink:title=" ">
<polygon fill="none" stroke="#bfbfbf" points="2610,-168.5 2610,-198.5 2755,-198.5 2755,-168.5 2610,-168.5"/>
<text text-anchor="start" x="2618" y="-186.5" font-family="Helvetica,sans-Serif" font-size="10.00">boost/log/sources/severity</text>
<text text-anchor="middle" x="2682.5" y="-175.5" font-family="Helvetica,sans-Serif" font-size="10.00">_feature.hpp</text>
</a>
</g>
</g>
<!-- Node33&#45;&gt;Node40 -->
<g id="edge71" class="edge">
<title>Node33&#45;&gt;Node40</title>
<path fill="none" stroke="midnightblue" d="M1908.65,-242.84C2033.5,-239.84 2336.55,-229.87 2599.58,-199.14"/>
<polygon fill="midnightblue" stroke="midnightblue" points="2600.18,-202.6 2609.7,-197.95 2599.36,-195.64 2600.18,-202.6"/>
</g>
<!-- Node41 -->
<g id="node41" class="node">
<title>Node41</title>
<g id="a_node41"><a xlink:title=" ">
<polygon fill="none" stroke="#bfbfbf" points="1275.5,-168.5 1275.5,-198.5 1411.5,-198.5 1411.5,-168.5 1275.5,-168.5"/>
<text text-anchor="start" x="1283.5" y="-186.5" font-family="Helvetica,sans-Serif" font-size="10.00">boost/log/utility/setup</text>
<text text-anchor="middle" x="1343.5" y="-175.5" font-family="Helvetica,sans-Serif" font-size="10.00">/common_attributes.hpp</text>
</a>
</g>
</g>
<!-- Node33&#45;&gt;Node41 -->
<g id="edge72" class="edge">
<title>Node33&#45;&gt;Node41</title>
<path fill="none" stroke="midnightblue" d="M1792.24,-239.43C1711.33,-232.74 1560.18,-219.02 1421.82,-199.12"/>
<polygon fill="midnightblue" stroke="midnightblue" points="1422.28,-195.65 1411.89,-197.68 1421.28,-202.58 1422.28,-195.65"/>
</g>
<!-- Node42 -->
<g id="node42" class="node">
<title>Node42</title>
<g id="a_node42"><a xlink:title=" ">
<polygon fill="none" stroke="#bfbfbf" points="1429.5,-168.5 1429.5,-198.5 1565.5,-198.5 1565.5,-168.5 1429.5,-168.5"/>
<text text-anchor="start" x="1437.5" y="-186.5" font-family="Helvetica,sans-Serif" font-size="10.00">boost/log/sources/record</text>
<text text-anchor="middle" x="1497.5" y="-175.5" font-family="Helvetica,sans-Serif" font-size="10.00">_ostream.hpp</text>
</a>
</g>
</g>
<!-- Node33&#45;&gt;Node42 -->
<g id="edge73" class="edge">
<title>Node33&#45;&gt;Node42</title>
<path fill="none" stroke="midnightblue" d="M1796.18,-235.47C1740.66,-226.66 1651.99,-212.37 1575.5,-199 1575.4,-198.98 1575.3,-198.96 1575.19,-198.95"/>
<polygon fill="midnightblue" stroke="midnightblue" points="1576.01,-195.54 1565.55,-197.24 1574.79,-202.43 1576.01,-195.54"/>
</g>
<!-- Node43 -->
<g id="node43" class="node">
<title>Node43</title>
<g id="a_node43"><a xlink:title=" ">
<polygon fill="none" stroke="#bfbfbf" points="1584,-168.5 1584,-198.5 1707,-198.5 1707,-168.5 1584,-168.5"/>
<text text-anchor="start" x="1592" y="-186.5" font-family="Helvetica,sans-Serif" font-size="10.00">boost/log/utility/setup</text>
<text text-anchor="middle" x="1645.5" y="-175.5" font-family="Helvetica,sans-Serif" font-size="10.00">/file.hpp</text>
</a>
</g>
</g>
<!-- Node33&#45;&gt;Node43 -->
<g id="edge74" class="edge">
<title>Node33&#45;&gt;Node43</title>
<path fill="none" stroke="midnightblue" d="M1821.13,-235.48C1790.64,-226.63 1742.14,-212.55 1703.82,-201.43"/>
<polygon fill="midnightblue" stroke="midnightblue" points="1704.39,-197.95 1693.81,-198.52 1702.44,-204.67 1704.39,-197.95"/>
</g>
</g>
</svg>
