<?xml version="1.0" encoding="UTF-8" standalone="no"?>
<!DOCTYPE svg PUBLIC "-//W3C//DTD SVG 1.1//EN"
 "http://www.w3.org/Graphics/SVG/1.1/DTD/svg11.dtd">
<!-- Generated by graphviz version 2.43.0 (0)
 -->
<!-- Title: include/fire/RandomNumberSeedService.h Pages: 1 -->
<svg width="3050pt" height="621pt"
 viewBox="0.00 0.00 3050.00 621.00" xmlns="http://www.w3.org/2000/svg" xmlns:xlink="http://www.w3.org/1999/xlink">
<g id="graph0" class="graph" transform="scale(1 1) rotate(0) translate(4 617)">
<title>include/fire/RandomNumberSeedService.h</title>
<!-- Node1 -->
<g id="node1" class="node">
<title>Node1</title>
<g id="a_node1"><a xlink:title="Conditions object for random number seeds.">
<polygon fill="#bfbfbf" stroke="black" points="1297.5,-582.5 1297.5,-612.5 1450.5,-612.5 1450.5,-582.5 1297.5,-582.5"/>
<text text-anchor="start" x="1305.5" y="-600.5" font-family="Helvetica,sans-Serif" font-size="10.00">include/fire/RandomNumber</text>
<text text-anchor="middle" x="1374" y="-589.5" font-family="Helvetica,sans-Serif" font-size="10.00">SeedService.h</text>
</a>
</g>
</g>
<!-- Node2 -->
<g id="node2" class="node">
<title>Node2</title>
<g id="a_node2"><a xlink:href="ConditionsObject_8h_source.html" target="_top" xlink:title=" ">
<polygon fill="none" stroke="black" points="2914,-465 2914,-484 3042,-484 3042,-465 2914,-465"/>
<text text-anchor="middle" x="2978" y="-472" font-family="Helvetica,sans-Serif" font-size="10.00">fire/ConditionsObject.h</text>
</a>
</g>
</g>
<!-- Node1&#45;&gt;Node2 -->
<g id="edge1" class="edge">
<title>Node1&#45;&gt;Node2</title>
<path fill="none" stroke="midnightblue" d="M1450.52,-594.25C1674.32,-587 2346.77,-560.49 2900,-490 2908.74,-488.89 2917.97,-487.43 2926.92,-485.86"/>
<polygon fill="midnightblue" stroke="midnightblue" points="2927.63,-489.29 2936.85,-484.06 2926.38,-482.4 2927.63,-489.29"/>
</g>
<!-- Node4 -->
<g id="node4" class="node">
<title>Node4</title>
<g id="a_node4"><a xlink:href="ConditionsProvider_8h_source.html" target="_top" xlink:title=" ">
<polygon fill="none" stroke="black" points="1258,-526.5 1258,-545.5 1394,-545.5 1394,-526.5 1258,-526.5"/>
<text text-anchor="middle" x="1326" y="-533.5" font-family="Helvetica,sans-Serif" font-size="10.00">fire/ConditionsProvider.h</text>
</a>
</g>
</g>
<!-- Node1&#45;&gt;Node4 -->
<g id="edge3" class="edge">
<title>Node1&#45;&gt;Node4</title>
<path fill="none" stroke="midnightblue" d="M1362.62,-582.4C1355.65,-573.75 1346.69,-562.64 1339.37,-553.58"/>
<polygon fill="midnightblue" stroke="midnightblue" points="1341.99,-551.24 1332.98,-545.66 1336.54,-555.64 1341.99,-551.24"/>
</g>
<!-- Node3 -->
<g id="node3" class="node">
<title>Node3</title>
<g id="a_node3"><a xlink:title=" ">
<polygon fill="none" stroke="#bfbfbf" points="1048,-0.5 1048,-19.5 1092,-19.5 1092,-0.5 1048,-0.5"/>
<text text-anchor="middle" x="1070" y="-7.5" font-family="Helvetica,sans-Serif" font-size="10.00">string</text>
</a>
</g>
</g>
<!-- Node2&#45;&gt;Node3 -->
<g id="edge2" class="edge">
<title>Node2&#45;&gt;Node3</title>
<path fill="none" stroke="midnightblue" d="M2976.51,-464.94C2973.09,-444.58 2965,-391.6 2965,-347 2965,-347 2965,-347 2965,-121 2965,-18.79 1229.65,-30.65 1128,-20 1119.66,-19.13 1110.69,-17.88 1102.36,-16.6"/>
<polygon fill="midnightblue" stroke="midnightblue" points="1102.67,-13.11 1092.24,-14.98 1101.56,-20.02 1102.67,-13.11"/>
</g>
<!-- Node4&#45;&gt;Node2 -->
<g id="edge60" class="edge">
<title>Node4&#45;&gt;Node2</title>
<path fill="none" stroke="midnightblue" d="M1394.22,-534.46C1656.69,-532.16 2601.49,-521.82 2900,-490 2909.25,-489.01 2919.06,-487.54 2928.47,-485.9"/>
<polygon fill="midnightblue" stroke="midnightblue" points="2929.28,-489.31 2938.49,-484.07 2928.03,-482.42 2929.28,-489.31"/>
</g>
<!-- Node5 -->
<g id="node5" class="node">
<title>Node5</title>
<g id="a_node5"><a xlink:title=" ">
<polygon fill="none" stroke="#bfbfbf" points="414,-112.5 414,-131.5 452,-131.5 452,-112.5 414,-112.5"/>
<text text-anchor="middle" x="433" y="-119.5" font-family="Helvetica,sans-Serif" font-size="10.00">map</text>
</a>
</g>
</g>
<!-- Node4&#45;&gt;Node5 -->
<g id="edge4" class="edge">
<title>Node4&#45;&gt;Node5</title>
<path fill="none" stroke="midnightblue" d="M1283.36,-526.45C1227.34,-512.45 1136,-478.84 1136,-408.5 1136,-408.5 1136,-408.5 1136,-345 1136,-210.67 1016.98,-214.64 891,-168 714.22,-102.55 651.22,-167.3 462.11,-131.73"/>
<polygon fill="midnightblue" stroke="midnightblue" points="462.61,-128.26 452.13,-129.78 461.27,-135.13 462.61,-128.26"/>
</g>
<!-- Node6 -->
<g id="node6" class="node">
<title>Node6</title>
<g id="a_node6"><a xlink:href="ConditionsIntervalOfValidity_8h_source.html" target="_top" xlink:title=" ">
<polygon fill="none" stroke="black" points="182,-459.5 182,-489.5 318,-489.5 318,-459.5 182,-459.5"/>
<text text-anchor="start" x="190" y="-477.5" font-family="Helvetica,sans-Serif" font-size="10.00">fire/ConditionsIntervalOf</text>
<text text-anchor="middle" x="250" y="-466.5" font-family="Helvetica,sans-Serif" font-size="10.00">Validity.h</text>
</a>
</g>
</g>
<!-- Node4&#45;&gt;Node6 -->
<g id="edge5" class="edge">
<title>Node4&#45;&gt;Node6</title>
<path fill="none" stroke="midnightblue" d="M1257.88,-531.23C1067.51,-520.71 530.68,-491.02 328.42,-479.84"/>
<polygon fill="midnightblue" stroke="midnightblue" points="328.35,-476.33 318.17,-479.27 327.96,-483.32 328.35,-476.33"/>
</g>
<!-- Node20 -->
<g id="node20" class="node">
<title>Node20</title>
<g id="a_node20"><a xlink:href="Parameters_8h_source.html" target="_top" xlink:title=" ">
<polygon fill="none" stroke="black" points="976,-168.5 976,-187.5 1108,-187.5 1108,-168.5 976,-168.5"/>
<text text-anchor="middle" x="1042" y="-175.5" font-family="Helvetica,sans-Serif" font-size="10.00">fire/config/Parameters.h</text>
</a>
</g>
</g>
<!-- Node4&#45;&gt;Node20 -->
<g id="edge68" class="edge">
<title>Node4&#45;&gt;Node20</title>
<path fill="none" stroke="midnightblue" d="M1321.75,-526.43C1302.2,-487.65 1217.43,-326.17 1112,-224 1099.1,-211.5 1082.23,-200.53 1068.27,-192.55"/>
<polygon fill="midnightblue" stroke="midnightblue" points="1069.61,-189.29 1059.17,-187.52 1066.23,-195.42 1069.61,-189.29"/>
</g>
<!-- Node25 -->
<g id="node25" class="node">
<title>Node25</title>
<g id="a_node25"><a xlink:href="Exception_8h_source.html" target="_top" xlink:title=" ">
<polygon fill="none" stroke="black" points="1098.5,-56.5 1098.5,-75.5 1241.5,-75.5 1241.5,-56.5 1098.5,-56.5"/>
<text text-anchor="middle" x="1170" y="-63.5" font-family="Helvetica,sans-Serif" font-size="10.00">fire/exception/Exception.h</text>
</a>
</g>
</g>
<!-- Node4&#45;&gt;Node25 -->
<g id="edge69" class="edge">
<title>Node4&#45;&gt;Node25</title>
<path fill="none" stroke="midnightblue" d="M1394.08,-530.84C1517.9,-523.2 1788.19,-506.25 2016,-490 2208.31,-476.28 2733.73,-547.43 2881,-423 2907.59,-400.53 2900,-381.82 2900,-347 2900,-347 2900,-347 2900,-177 2900,-93.34 1594.6,-72.02 1251.69,-67.86"/>
<polygon fill="midnightblue" stroke="midnightblue" points="1251.63,-64.36 1241.59,-67.74 1251.54,-71.36 1251.63,-64.36"/>
</g>
<!-- Node30 -->
<g id="node30" class="node">
<title>Node30</title>
<g id="a_node30"><a xlink:href="Factory_8h_source.html" target="_top" xlink:title=" ">
<polygon fill="none" stroke="black" points="810,-112.5 810,-131.5 926,-131.5 926,-112.5 810,-112.5"/>
<text text-anchor="middle" x="868" y="-119.5" font-family="Helvetica,sans-Serif" font-size="10.00">fire/factory/Factory.h</text>
</a>
</g>
</g>
<!-- Node4&#45;&gt;Node30 -->
<g id="edge70" class="edge">
<title>Node4&#45;&gt;Node30</title>
<path fill="none" stroke="midnightblue" d="M1326,-526.41C1326,-505.98 1326,-452.86 1326,-408.5 1326,-408.5 1326,-408.5 1326,-345 1326,-223.28 1227.09,-219.93 1117,-168 1100.63,-160.28 1002.16,-143.85 934.07,-133.13"/>
<polygon fill="midnightblue" stroke="midnightblue" points="934.26,-129.61 923.84,-131.52 933.17,-136.53 934.26,-129.61"/>
</g>
<!-- Node33 -->
<g id="node33" class="node">
<title>Node33</title>
<g id="a_node33"><a xlink:href="RunHeader_8h_source.html" target="_top" xlink:title=" ">
<polygon fill="none" stroke="black" points="596,-398 596,-417 694,-417 694,-398 596,-398"/>
<text text-anchor="middle" x="645" y="-405" font-family="Helvetica,sans-Serif" font-size="10.00">fire/RunHeader.h</text>
</a>
</g>
</g>
<!-- Node4&#45;&gt;Node33 -->
<g id="edge61" class="edge">
<title>Node4&#45;&gt;Node33</title>
<path fill="none" stroke="midnightblue" d="M1279.99,-526.45C1159,-503.98 832.18,-443.27 700.8,-418.87"/>
<polygon fill="midnightblue" stroke="midnightblue" points="701.41,-415.42 690.94,-417.03 700.13,-422.3 701.41,-415.42"/>
</g>
<!-- Node34 -->
<g id="node34" class="node">
<title>Node34</title>
<g id="a_node34"><a xlink:href="Logger_8h.html" target="_top" xlink:title="Interface to Boost.Logging.">
<polygon fill="none" stroke="black" points="1891,-465 1891,-484 2007,-484 2007,-465 1891,-465"/>
<text text-anchor="middle" x="1949" y="-472" font-family="Helvetica,sans-Serif" font-size="10.00">fire/logging/Logger.h</text>
</a>
</g>
</g>
<!-- Node4&#45;&gt;Node34 -->
<g id="edge71" class="edge">
<title>Node4&#45;&gt;Node34</title>
<path fill="none" stroke="midnightblue" d="M1394.16,-528.49C1513.96,-517.05 1760.92,-493.46 1880.77,-482.02"/>
<polygon fill="midnightblue" stroke="midnightblue" points="1881.3,-485.48 1890.92,-481.05 1880.64,-478.51 1881.3,-485.48"/>
</g>
<!-- Node7 -->
<g id="node7" class="node">
<title>Node7</title>
<g id="a_node7"><a xlink:title=" ">
<polygon fill="none" stroke="#bfbfbf" points="119,-112.5 119,-131.5 179,-131.5 179,-112.5 119,-112.5"/>
<text text-anchor="middle" x="149" y="-119.5" font-family="Helvetica,sans-Serif" font-size="10.00">iostream</text>
</a>
</g>
</g>
<!-- Node6&#45;&gt;Node7 -->
<g id="edge6" class="edge">
<title>Node6&#45;&gt;Node7</title>
<path fill="none" stroke="midnightblue" d="M229.86,-459.49C194.2,-433.21 121.5,-372.58 98,-300 79.16,-241.82 116.92,-171.8 137.24,-140.09"/>
<polygon fill="midnightblue" stroke="midnightblue" points="140.3,-141.8 142.9,-131.53 134.46,-137.94 140.3,-141.8"/>
</g>
<!-- Node8 -->
<g id="node8" class="node">
<title>Node8</title>
<g id="a_node8"><a xlink:href="EventHeader_8h_source.html" target="_top" xlink:title=" ">
<polygon fill="none" stroke="black" points="196.5,-398 196.5,-417 303.5,-417 303.5,-398 196.5,-398"/>
<text text-anchor="middle" x="250" y="-405" font-family="Helvetica,sans-Serif" font-size="10.00">fire/EventHeader.h</text>
</a>
</g>
</g>
<!-- Node6&#45;&gt;Node8 -->
<g id="edge7" class="edge">
<title>Node6&#45;&gt;Node8</title>
<path fill="none" stroke="midnightblue" d="M250,-459.4C250,-450.06 250,-437.71 250,-427.52"/>
<polygon fill="midnightblue" stroke="midnightblue" points="253.5,-427.19 250,-417.19 246.5,-427.19 253.5,-427.19"/>
</g>
<!-- Node8&#45;&gt;Node3 -->
<g id="edge11" class="edge">
<title>Node8&#45;&gt;Node3</title>
<path fill="none" stroke="midnightblue" d="M208.16,-397.99C136.99,-380.79 0,-334.74 0,-235 0,-235 0,-235 0,-121 0,-52 73.98,-72.41 141,-56 316.4,-13.04 894.49,-10.8 1037.69,-10.92"/>
<polygon fill="midnightblue" stroke="midnightblue" points="1037.98,-14.42 1047.98,-10.93 1037.99,-7.42 1037.98,-14.42"/>
</g>
<!-- Node8&#45;&gt;Node5 -->
<g id="edge10" class="edge">
<title>Node8&#45;&gt;Node5</title>
<path fill="none" stroke="midnightblue" d="M255.68,-397.7C281.4,-357.85 387.27,-193.85 421.94,-140.13"/>
<polygon fill="midnightblue" stroke="midnightblue" points="424.91,-141.99 427.39,-131.69 419.02,-138.2 424.91,-141.99"/>
</g>
<!-- Node8&#45;&gt;Node7 -->
<g id="edge9" class="edge">
<title>Node8&#45;&gt;Node7</title>
<path fill="none" stroke="midnightblue" d="M225.61,-397.9C205.53,-389.77 177.46,-375.84 159,-356 140.31,-335.91 138.92,-326.8 133,-300 120.44,-243.13 135.1,-173.9 143.67,-141.46"/>
<polygon fill="midnightblue" stroke="midnightblue" points="147.1,-142.16 146.39,-131.59 140.36,-140.3 147.1,-142.16"/>
</g>
<!-- Node9 -->
<g id="node9" class="node">
<title>Node9</title>
<g id="a_node9"><a xlink:title=" ">
<polygon fill="none" stroke="#bfbfbf" points="178,-336.5 178,-355.5 222,-355.5 222,-336.5 178,-336.5"/>
<text text-anchor="middle" x="200" y="-343.5" font-family="Helvetica,sans-Serif" font-size="10.00">ctime</text>
</a>
</g>
</g>
<!-- Node8&#45;&gt;Node9 -->
<g id="edge8" class="edge">
<title>Node8&#45;&gt;Node9</title>
<path fill="none" stroke="midnightblue" d="M242.84,-397.98C235.26,-388.96 223.13,-374.52 213.71,-363.31"/>
<polygon fill="midnightblue" stroke="midnightblue" points="216.26,-360.91 207.15,-355.51 210.9,-365.42 216.26,-360.91"/>
</g>
<!-- Node10 -->
<g id="node10" class="node">
<title>Node10</title>
<g id="a_node10"><a xlink:title=" ">
<polygon fill="none" stroke="#bfbfbf" points="142.5,-280.5 142.5,-299.5 193.5,-299.5 193.5,-280.5 142.5,-280.5"/>
<text text-anchor="middle" x="168" y="-287.5" font-family="Helvetica,sans-Serif" font-size="10.00">variant</text>
</a>
</g>
</g>
<!-- Node8&#45;&gt;Node10 -->
<g id="edge12" class="edge">
<title>Node8&#45;&gt;Node10</title>
<path fill="none" stroke="midnightblue" d="M223.8,-397.89C204.9,-390.16 180.74,-376.78 169,-356 161.11,-342.03 161.67,-323.53 163.74,-309.83"/>
<polygon fill="midnightblue" stroke="midnightblue" points="167.24,-310.15 165.67,-299.67 160.36,-308.84 167.24,-310.15"/>
</g>
<!-- Node11 -->
<g id="node11" class="node">
<title>Node11</title>
<g id="a_node11"><a xlink:title=" ">
<polygon fill="none" stroke="#bfbfbf" points="150.5,-56.5 150.5,-75.5 269.5,-75.5 269.5,-56.5 150.5,-56.5"/>
<text text-anchor="middle" x="210" y="-63.5" font-family="Helvetica,sans-Serif" font-size="10.00">fire/version/Version.h</text>
</a>
</g>
</g>
<!-- Node8&#45;&gt;Node11 -->
<g id="edge13" class="edge">
<title>Node8&#45;&gt;Node11</title>
<path fill="none" stroke="midnightblue" d="M250.1,-397.94C249.79,-383.36 247.09,-353.58 231,-336 199.68,-301.77 171.26,-326.26 133,-300 101.32,-278.26 76,-273.42 76,-235 76,-235 76,-235 76,-177 76,-144.4 86.28,-134.36 110,-112 126.24,-96.7 148.57,-85.97 168.01,-78.84"/>
<polygon fill="midnightblue" stroke="midnightblue" points="169.26,-82.11 177.57,-75.53 166.97,-75.5 169.26,-82.11"/>
</g>
<!-- Node12 -->
<g id="node12" class="node">
<title>Node12</title>
<g id="a_node12"><a xlink:href="Constants_8h.html" target="_top" xlink:title="Definitions for names of structures required by serialization methods.">
<polygon fill="none" stroke="black" points="592.5,-336.5 592.5,-355.5 697.5,-355.5 697.5,-336.5 592.5,-336.5"/>
<text text-anchor="middle" x="645" y="-343.5" font-family="Helvetica,sans-Serif" font-size="10.00">fire/io/Constants.h</text>
</a>
</g>
</g>
<!-- Node8&#45;&gt;Node12 -->
<g id="edge14" class="edge">
<title>Node8&#45;&gt;Node12</title>
<path fill="none" stroke="midnightblue" d="M303.68,-398.41C376.26,-387.48 505.42,-368.03 582.34,-356.44"/>
<polygon fill="midnightblue" stroke="midnightblue" points="583.01,-359.88 592.38,-354.93 581.97,-352.95 583.01,-359.88"/>
</g>
<!-- Node13 -->
<g id="node13" class="node">
<title>Node13</title>
<g id="a_node13"><a xlink:href="Data_8h_source.html" target="_top" xlink:title=" ">
<polygon fill="none" stroke="black" points="677,-280.5 677,-299.5 757,-299.5 757,-280.5 677,-280.5"/>
<text text-anchor="middle" x="717" y="-287.5" font-family="Helvetica,sans-Serif" font-size="10.00">fire/io/Data.h</text>
</a>
</g>
</g>
<!-- Node8&#45;&gt;Node13 -->
<g id="edge16" class="edge">
<title>Node8&#45;&gt;Node13</title>
<path fill="none" stroke="midnightblue" d="M302.05,-397.94C354.22,-388.98 436.68,-373.74 507,-356 569.73,-340.18 641.47,-316.81 682.78,-302.82"/>
<polygon fill="midnightblue" stroke="midnightblue" points="684.01,-306.1 692.35,-299.57 681.76,-299.47 684.01,-306.1"/>
</g>
<!-- Node32 -->
<g id="node32" class="node">
<title>Node32</title>
<g id="a_node32"><a xlink:href="ParameterStorage_8h_source.html" target="_top" xlink:title=" ">
<polygon fill="none" stroke="black" points="354,-336.5 354,-355.5 498,-355.5 498,-336.5 354,-336.5"/>
<text text-anchor="middle" x="426" y="-343.5" font-family="Helvetica,sans-Serif" font-size="10.00">fire/io/ParameterStorage.h</text>
</a>
</g>
</g>
<!-- Node8&#45;&gt;Node32 -->
<g id="edge51" class="edge">
<title>Node8&#45;&gt;Node32</title>
<path fill="none" stroke="midnightblue" d="M275.22,-397.98C305.67,-387.68 357.05,-370.31 391.24,-358.75"/>
<polygon fill="midnightblue" stroke="midnightblue" points="392.48,-362.03 400.83,-355.51 390.24,-355.4 392.48,-362.03"/>
</g>
<!-- Node12&#45;&gt;Node3 -->
<g id="edge15" class="edge">
<title>Node12&#45;&gt;Node3</title>
<path fill="none" stroke="midnightblue" d="M693.64,-336.45C742.01,-327.8 818.3,-313.78 884,-300 1031.88,-268.98 1111.39,-306.61 1205,-188 1243.4,-139.34 1288.14,-104.85 1250,-56 1240.84,-44.27 1151.06,-26.02 1101.86,-16.78"/>
<polygon fill="midnightblue" stroke="midnightblue" points="1102.49,-13.33 1092.02,-14.95 1101.21,-20.22 1102.49,-13.33"/>
</g>
<!-- Node13&#45;&gt;Node5 -->
<g id="edge20" class="edge">
<title>Node13&#45;&gt;Node5</title>
<path fill="none" stroke="midnightblue" d="M678.52,-280.45C650.16,-273.19 611.26,-261.2 580,-244 526.43,-214.52 473.53,-164.47 448.29,-138.96"/>
<polygon fill="midnightblue" stroke="midnightblue" points="450.6,-136.32 441.11,-131.6 445.59,-141.2 450.6,-136.32"/>
</g>
<!-- Node14 -->
<g id="node14" class="node">
<title>Node14</title>
<g id="a_node14"><a xlink:title=" ">
<polygon fill="none" stroke="#bfbfbf" points="872,-56.5 872,-75.5 930,-75.5 930,-56.5 872,-56.5"/>
<text text-anchor="middle" x="901" y="-63.5" font-family="Helvetica,sans-Serif" font-size="10.00">memory</text>
</a>
</g>
</g>
<!-- Node13&#45;&gt;Node14 -->
<g id="edge17" class="edge">
<title>Node13&#45;&gt;Node14</title>
<path fill="none" stroke="midnightblue" d="M757.15,-288.41C819.98,-286.41 944.66,-278.05 1044,-244 1122.03,-217.26 1162.22,-208.93 1192,-132 1217,-67.42 1097.12,-103.4 940.3,-76.05"/>
<polygon fill="midnightblue" stroke="midnightblue" points="940.87,-72.59 930.4,-74.24 939.61,-79.48 940.87,-72.59"/>
</g>
<!-- Node15 -->
<g id="node15" class="node">
<title>Node15</title>
<g id="a_node15"><a xlink:title=" ">
<polygon fill="none" stroke="#bfbfbf" points="608.5,-112.5 608.5,-131.5 677.5,-131.5 677.5,-112.5 608.5,-112.5"/>
<text text-anchor="middle" x="643" y="-119.5" font-family="Helvetica,sans-Serif" font-size="10.00">type_traits</text>
</a>
</g>
</g>
<!-- Node13&#45;&gt;Node15 -->
<g id="edge18" class="edge">
<title>Node13&#45;&gt;Node15</title>
<path fill="none" stroke="midnightblue" d="M757.16,-288.52C793.42,-285.88 845.74,-276.19 877,-244 900.93,-219.36 913.01,-194.37 891,-168 884.51,-160.22 757.56,-140.14 687.88,-129.63"/>
<polygon fill="midnightblue" stroke="midnightblue" points="688.03,-126.11 677.62,-128.09 686.99,-133.04 688.03,-126.11"/>
</g>
<!-- Node16 -->
<g id="node16" class="node">
<title>Node16</title>
<g id="a_node16"><a xlink:title=" ">
<polygon fill="none" stroke="#bfbfbf" points="1136.5,-112.5 1136.5,-131.5 1183.5,-131.5 1183.5,-112.5 1136.5,-112.5"/>
<text text-anchor="middle" x="1160" y="-119.5" font-family="Helvetica,sans-Serif" font-size="10.00">vector</text>
</a>
</g>
</g>
<!-- Node13&#45;&gt;Node16 -->
<g id="edge19" class="edge">
<title>Node13&#45;&gt;Node16</title>
<path fill="none" stroke="midnightblue" d="M757.29,-288.23C834.23,-284.88 1004.41,-268.19 1117,-188 1133.66,-176.14 1145.63,-155.63 1152.65,-140.82"/>
<polygon fill="midnightblue" stroke="midnightblue" points="1155.86,-142.21 1156.71,-131.65 1149.46,-139.37 1155.86,-142.21"/>
</g>
<!-- Node17 -->
<g id="node17" class="node">
<title>Node17</title>
<g id="a_node17"><a xlink:href="AbstractData_8h_source.html" target="_top" xlink:title=" ">
<polygon fill="none" stroke="black" points="470,-112.5 470,-131.5 590,-131.5 590,-112.5 470,-112.5"/>
<text text-anchor="middle" x="530" y="-119.5" font-family="Helvetica,sans-Serif" font-size="10.00">fire/io/AbstractData.h</text>
</a>
</g>
</g>
<!-- Node13&#45;&gt;Node17 -->
<g id="edge21" class="edge">
<title>Node13&#45;&gt;Node17</title>
<path fill="none" stroke="midnightblue" d="M688.99,-280.42C650.38,-267.11 581.48,-237.69 545,-188 535.25,-174.73 531.71,-156.15 530.48,-142.25"/>
<polygon fill="midnightblue" stroke="midnightblue" points="533.95,-141.69 529.91,-131.89 526.96,-142.07 533.95,-141.69"/>
</g>
<!-- Node18 -->
<g id="node18" class="node">
<title>Node18</title>
<g id="a_node18"><a xlink:href="Writer_8h_source.html" target="_top" xlink:title=" ">
<polygon fill="none" stroke="black" points="782,-224.5 782,-243.5 868,-243.5 868,-224.5 782,-224.5"/>
<text text-anchor="middle" x="825" y="-231.5" font-family="Helvetica,sans-Serif" font-size="10.00">fire/io/Writer.h</text>
</a>
</g>
</g>
<!-- Node13&#45;&gt;Node18 -->
<g id="edge24" class="edge">
<title>Node13&#45;&gt;Node18</title>
<path fill="none" stroke="midnightblue" d="M734.35,-280.32C751.67,-271.66 778.52,-258.24 798.5,-248.25"/>
<polygon fill="midnightblue" stroke="midnightblue" points="800.31,-251.26 807.69,-243.65 797.18,-245 800.31,-251.26"/>
</g>
<!-- Node28 -->
<g id="node28" class="node">
<title>Node28</title>
<g id="a_node28"><a xlink:href="h5_2Reader_8h_source.html" target="_top" xlink:title=" ">
<polygon fill="none" stroke="black" points="656.5,-224.5 656.5,-243.5 761.5,-243.5 761.5,-224.5 656.5,-224.5"/>
<text text-anchor="middle" x="709" y="-231.5" font-family="Helvetica,sans-Serif" font-size="10.00">fire/io/h5/Reader.h</text>
</a>
</g>
</g>
<!-- Node13&#45;&gt;Node28 -->
<g id="edge40" class="edge">
<title>Node13&#45;&gt;Node28</title>
<path fill="none" stroke="midnightblue" d="M715.68,-280.08C714.62,-272.93 713.09,-262.64 711.77,-253.69"/>
<polygon fill="midnightblue" stroke="midnightblue" points="715.22,-253.13 710.3,-243.75 708.3,-254.16 715.22,-253.13"/>
</g>
<!-- Node17&#45;&gt;Node3 -->
<g id="edge22" class="edge">
<title>Node17&#45;&gt;Node3</title>
<path fill="none" stroke="midnightblue" d="M539.31,-112.41C555.64,-97.92 591.15,-68.92 627,-56 702.83,-28.68 949.05,-16.01 1037.77,-12.25"/>
<polygon fill="midnightblue" stroke="midnightblue" points="1037.94,-15.75 1047.78,-11.84 1037.65,-8.75 1037.94,-15.75"/>
</g>
<!-- Node17&#45;&gt;Node11 -->
<g id="edge23" class="edge">
<title>Node17&#45;&gt;Node11</title>
<path fill="none" stroke="midnightblue" d="M479.3,-112.44C422.65,-102.89 331,-87.42 270.62,-77.23"/>
<polygon fill="midnightblue" stroke="midnightblue" points="270.91,-73.73 260.47,-75.52 269.75,-80.63 270.91,-73.73"/>
</g>
<!-- Node19 -->
<g id="node19" class="node">
<title>Node19</title>
<g id="a_node19"><a xlink:title=" ">
<polygon fill="none" stroke="#bfbfbf" points="772,-168.5 772,-187.5 882,-187.5 882,-168.5 772,-168.5"/>
<text text-anchor="middle" x="827" y="-175.5" font-family="Helvetica,sans-Serif" font-size="10.00">highfive/H5File.hpp</text>
</a>
</g>
</g>
<!-- Node18&#45;&gt;Node19 -->
<g id="edge25" class="edge">
<title>Node18&#45;&gt;Node19</title>
<path fill="none" stroke="midnightblue" d="M825.33,-224.08C825.59,-217.01 825.97,-206.86 826.3,-197.99"/>
<polygon fill="midnightblue" stroke="midnightblue" points="829.8,-197.87 826.68,-187.75 822.81,-197.61 829.8,-197.87"/>
</g>
<!-- Node18&#45;&gt;Node20 -->
<g id="edge26" class="edge">
<title>Node18&#45;&gt;Node20</title>
<path fill="none" stroke="midnightblue" d="M859.38,-224.44C896.92,-215.1 957.13,-200.12 998.07,-189.93"/>
<polygon fill="midnightblue" stroke="midnightblue" points="998.92,-193.33 1007.78,-187.52 997.23,-186.53 998.92,-193.33"/>
</g>
<!-- Node27 -->
<g id="node27" class="node">
<title>Node27</title>
<g id="a_node27"><a xlink:href="Atomic_8h_source.html" target="_top" xlink:title=" ">
<polygon fill="none" stroke="black" points="662.5,-168.5 662.5,-187.5 753.5,-187.5 753.5,-168.5 662.5,-168.5"/>
<text text-anchor="middle" x="708" y="-175.5" font-family="Helvetica,sans-Serif" font-size="10.00">fire/io/Atomic.h</text>
</a>
</g>
</g>
<!-- Node18&#45;&gt;Node27 -->
<g id="edge39" class="edge">
<title>Node18&#45;&gt;Node27</title>
<path fill="none" stroke="midnightblue" d="M806.46,-224.44C787.38,-215.64 757.43,-201.81 735.56,-191.72"/>
<polygon fill="midnightblue" stroke="midnightblue" points="737,-188.53 726.45,-187.52 734.07,-194.88 737,-188.53"/>
</g>
<!-- Node20&#45;&gt;Node3 -->
<g id="edge31" class="edge">
<title>Node20&#45;&gt;Node3</title>
<path fill="none" stroke="midnightblue" d="M1043.83,-168.39C1045.73,-159.35 1048.73,-144.71 1051,-132 1057.45,-95.84 1063.85,-53.39 1067.33,-29.6"/>
<polygon fill="midnightblue" stroke="midnightblue" points="1070.81,-29.93 1068.79,-19.53 1063.89,-28.92 1070.81,-29.93"/>
</g>
<!-- Node20&#45;&gt;Node5 -->
<g id="edge30" class="edge">
<title>Node20&#45;&gt;Node5</title>
<path fill="none" stroke="midnightblue" d="M975.67,-169.33C971.04,-168.86 966.45,-168.41 962,-168 742.96,-147.82 681.94,-173.68 462.04,-131.73"/>
<polygon fill="midnightblue" stroke="midnightblue" points="462.6,-128.27 452.12,-129.81 461.28,-135.15 462.6,-128.27"/>
</g>
<!-- Node20&#45;&gt;Node7 -->
<g id="edge28" class="edge">
<title>Node20&#45;&gt;Node7</title>
<path fill="none" stroke="midnightblue" d="M975.97,-173.01C801.37,-162.45 331.19,-134.02 189.78,-125.47"/>
<polygon fill="midnightblue" stroke="midnightblue" points="189.6,-121.95 179.41,-124.84 189.18,-128.94 189.6,-121.95"/>
</g>
<!-- Node20&#45;&gt;Node15 -->
<g id="edge32" class="edge">
<title>Node20&#45;&gt;Node15</title>
<path fill="none" stroke="midnightblue" d="M975.73,-169.56C905.23,-161.38 790.52,-147.37 692,-132 690.7,-131.8 689.39,-131.59 688.06,-131.37"/>
<polygon fill="midnightblue" stroke="midnightblue" points="688.2,-127.85 677.76,-129.62 687.03,-134.75 688.2,-127.85"/>
</g>
<!-- Node20&#45;&gt;Node16 -->
<g id="edge34" class="edge">
<title>Node20&#45;&gt;Node16</title>
<path fill="none" stroke="midnightblue" d="M1060.7,-168.44C1079.94,-159.64 1110.15,-145.81 1132.2,-135.72"/>
<polygon fill="midnightblue" stroke="midnightblue" points="1133.75,-138.86 1141.39,-131.52 1130.84,-132.5 1133.75,-138.86"/>
</g>
<!-- Node21 -->
<g id="node21" class="node">
<title>Node21</title>
<g id="a_node21"><a xlink:title=" ">
<polygon fill="none" stroke="#bfbfbf" points="944.5,-112.5 944.5,-131.5 979.5,-131.5 979.5,-112.5 944.5,-112.5"/>
<text text-anchor="middle" x="962" y="-119.5" font-family="Helvetica,sans-Serif" font-size="10.00">any</text>
</a>
</g>
</g>
<!-- Node20&#45;&gt;Node21 -->
<g id="edge27" class="edge">
<title>Node20&#45;&gt;Node21</title>
<path fill="none" stroke="midnightblue" d="M1029.15,-168.32C1016.78,-159.98 997.87,-147.21 983.26,-137.35"/>
<polygon fill="midnightblue" stroke="midnightblue" points="985.07,-134.35 974.82,-131.65 981.15,-140.15 985.07,-134.35"/>
</g>
<!-- Node22 -->
<g id="node22" class="node">
<title>Node22</title>
<g id="a_node22"><a xlink:title=" ">
<polygon fill="none" stroke="#bfbfbf" points="998,-112.5 998,-131.5 1042,-131.5 1042,-112.5 998,-112.5"/>
<text text-anchor="middle" x="1020" y="-119.5" font-family="Helvetica,sans-Serif" font-size="10.00">limits</text>
</a>
</g>
</g>
<!-- Node20&#45;&gt;Node22 -->
<g id="edge29" class="edge">
<title>Node20&#45;&gt;Node22</title>
<path fill="none" stroke="midnightblue" d="M1038.37,-168.08C1035.39,-160.77 1031.07,-150.18 1027.38,-141.1"/>
<polygon fill="midnightblue" stroke="midnightblue" points="1030.58,-139.69 1023.57,-131.75 1024.1,-142.33 1030.58,-139.69"/>
</g>
<!-- Node23 -->
<g id="node23" class="node">
<title>Node23</title>
<g id="a_node23"><a xlink:title=" ">
<polygon fill="none" stroke="#bfbfbf" points="734.5,-112.5 734.5,-131.5 791.5,-131.5 791.5,-112.5 734.5,-112.5"/>
<text text-anchor="middle" x="763" y="-119.5" font-family="Helvetica,sans-Serif" font-size="10.00">typeinfo</text>
</a>
</g>
</g>
<!-- Node20&#45;&gt;Node23 -->
<g id="edge33" class="edge">
<title>Node20&#45;&gt;Node23</title>
<path fill="none" stroke="midnightblue" d="M992.48,-168.47C945.85,-160.28 873.83,-147.21 801.77,-132.08"/>
<polygon fill="midnightblue" stroke="midnightblue" points="802.11,-128.57 791.6,-129.93 800.66,-135.42 802.11,-128.57"/>
</g>
<!-- Node24 -->
<g id="node24" class="node">
<title>Node24</title>
<g id="a_node24"><a xlink:title=" ">
<polygon fill="none" stroke="#bfbfbf" points="636,-56.5 636,-75.5 776,-75.5 776,-56.5 636,-56.5"/>
<text text-anchor="middle" x="706" y="-63.5" font-family="Helvetica,sans-Serif" font-size="10.00">boost/core/demangle.hpp</text>
</a>
</g>
</g>
<!-- Node20&#45;&gt;Node24 -->
<g id="edge35" class="edge">
<title>Node20&#45;&gt;Node24</title>
<path fill="none" stroke="midnightblue" d="M975.77,-169.45C885.64,-158.9 734.4,-140.14 725,-132 711.83,-120.59 707.54,-100.61 706.26,-85.8"/>
<polygon fill="midnightblue" stroke="midnightblue" points="709.75,-85.53 705.78,-75.71 702.76,-85.87 709.75,-85.53"/>
</g>
<!-- Node20&#45;&gt;Node25 -->
<g id="edge36" class="edge">
<title>Node20&#45;&gt;Node25</title>
<path fill="none" stroke="midnightblue" d="M1052.04,-168.37C1073.73,-149.73 1125.16,-105.53 1152.39,-82.13"/>
<polygon fill="midnightblue" stroke="midnightblue" points="1154.7,-84.76 1160,-75.59 1150.14,-79.45 1154.7,-84.76"/>
</g>
<!-- Node25&#45;&gt;Node3 -->
<g id="edge38" class="edge">
<title>Node25&#45;&gt;Node3</title>
<path fill="none" stroke="midnightblue" d="M1153.93,-56.32C1138.04,-47.74 1113.49,-34.49 1095.04,-24.52"/>
<polygon fill="midnightblue" stroke="midnightblue" points="1096.49,-21.33 1086.03,-19.65 1093.16,-27.49 1096.49,-21.33"/>
</g>
<!-- Node26 -->
<g id="node26" class="node">
<title>Node26</title>
<g id="a_node26"><a xlink:title=" ">
<polygon fill="none" stroke="#bfbfbf" points="1137.5,-0.5 1137.5,-19.5 1202.5,-19.5 1202.5,-0.5 1137.5,-0.5"/>
<text text-anchor="middle" x="1170" y="-7.5" font-family="Helvetica,sans-Serif" font-size="10.00">exception</text>
</a>
</g>
</g>
<!-- Node25&#45;&gt;Node26 -->
<g id="edge37" class="edge">
<title>Node25&#45;&gt;Node26</title>
<path fill="none" stroke="midnightblue" d="M1170,-56.08C1170,-49.01 1170,-38.86 1170,-29.99"/>
<polygon fill="midnightblue" stroke="midnightblue" points="1173.5,-29.75 1170,-19.75 1166.5,-29.75 1173.5,-29.75"/>
</g>
<!-- Node28&#45;&gt;Node19 -->
<g id="edge41" class="edge">
<title>Node28&#45;&gt;Node19</title>
<path fill="none" stroke="midnightblue" d="M727.7,-224.44C746.94,-215.64 777.15,-201.81 799.2,-191.72"/>
<polygon fill="midnightblue" stroke="midnightblue" points="800.75,-194.86 808.39,-187.52 797.84,-188.5 800.75,-194.86"/>
</g>
<!-- Node28&#45;&gt;Node27 -->
<g id="edge50" class="edge">
<title>Node28&#45;&gt;Node27</title>
<path fill="none" stroke="midnightblue" d="M708.83,-224.08C708.7,-217.01 708.52,-206.86 708.35,-197.99"/>
<polygon fill="midnightblue" stroke="midnightblue" points="711.85,-197.68 708.16,-187.75 704.85,-197.81 711.85,-197.68"/>
</g>
<!-- Node29 -->
<g id="node29" class="node">
<title>Node29</title>
<g id="a_node29"><a xlink:href="Reader_8h_source.html" target="_top" xlink:title=" ">
<polygon fill="none" stroke="black" points="554,-168.5 554,-187.5 644,-187.5 644,-168.5 554,-168.5"/>
<text text-anchor="middle" x="599" y="-175.5" font-family="Helvetica,sans-Serif" font-size="10.00">fire/io/Reader.h</text>
</a>
</g>
</g>
<!-- Node28&#45;&gt;Node29 -->
<g id="edge42" class="edge">
<title>Node28&#45;&gt;Node29</title>
<path fill="none" stroke="midnightblue" d="M691.33,-224.32C673.61,-215.62 646.1,-202.12 625.71,-192.11"/>
<polygon fill="midnightblue" stroke="midnightblue" points="627.15,-188.92 616.63,-187.65 624.06,-195.2 627.15,-188.92"/>
</g>
<!-- Node29&#45;&gt;Node17 -->
<g id="edge49" class="edge">
<title>Node29&#45;&gt;Node17</title>
<path fill="none" stroke="midnightblue" d="M587.91,-168.32C577.51,-160.18 561.74,-147.84 549.28,-138.09"/>
<polygon fill="midnightblue" stroke="midnightblue" points="551.32,-135.24 541.29,-131.83 547.01,-140.75 551.32,-135.24"/>
</g>
<!-- Node29&#45;&gt;Node30 -->
<g id="edge43" class="edge">
<title>Node29&#45;&gt;Node30</title>
<path fill="none" stroke="midnightblue" d="M641.62,-168.44C688.75,-158.98 764.69,-143.74 815.46,-133.55"/>
<polygon fill="midnightblue" stroke="midnightblue" points="816.46,-136.92 825.58,-131.52 815.08,-130.05 816.46,-136.92"/>
</g>
<!-- Node30&#45;&gt;Node3 -->
<g id="edge45" class="edge">
<title>Node30&#45;&gt;Node3</title>
<path fill="none" stroke="midnightblue" d="M863.93,-112.32C858.23,-98.7 849.93,-72.21 863,-56 884.59,-29.21 985.2,-17.54 1037.79,-13.2"/>
<polygon fill="midnightblue" stroke="midnightblue" points="1038.23,-16.68 1047.93,-12.41 1037.69,-9.7 1038.23,-16.68"/>
</g>
<!-- Node30&#45;&gt;Node14 -->
<g id="edge44" class="edge">
<title>Node30&#45;&gt;Node14</title>
<path fill="none" stroke="midnightblue" d="M873.45,-112.08C878.01,-104.61 884.67,-93.72 890.29,-84.52"/>
<polygon fill="midnightblue" stroke="midnightblue" points="893.42,-86.11 895.65,-75.75 887.45,-82.46 893.42,-86.11"/>
</g>
<!-- Node30&#45;&gt;Node24 -->
<g id="edge47" class="edge">
<title>Node30&#45;&gt;Node24</title>
<path fill="none" stroke="midnightblue" d="M842.33,-112.44C815.08,-103.36 771.82,-88.94 741.35,-78.78"/>
<polygon fill="midnightblue" stroke="midnightblue" points="742.14,-75.36 731.55,-75.52 739.93,-82 742.14,-75.36"/>
</g>
<!-- Node30&#45;&gt;Node25 -->
<g id="edge48" class="edge">
<title>Node30&#45;&gt;Node25</title>
<path fill="none" stroke="midnightblue" d="M915.85,-112.44C969.2,-102.9 1055.44,-87.48 1112.44,-77.29"/>
<polygon fill="midnightblue" stroke="midnightblue" points="1113.14,-80.72 1122.37,-75.52 1111.91,-73.83 1113.14,-80.72"/>
</g>
<!-- Node31 -->
<g id="node31" class="node">
<title>Node31</title>
<g id="a_node31"><a xlink:title=" ">
<polygon fill="none" stroke="#bfbfbf" points="948.5,-56.5 948.5,-75.5 1041.5,-75.5 1041.5,-56.5 948.5,-56.5"/>
<text text-anchor="middle" x="995" y="-63.5" font-family="Helvetica,sans-Serif" font-size="10.00">unordered_map</text>
</a>
</g>
</g>
<!-- Node30&#45;&gt;Node31 -->
<g id="edge46" class="edge">
<title>Node30&#45;&gt;Node31</title>
<path fill="none" stroke="midnightblue" d="M888.12,-112.44C909.02,-103.56 941.93,-89.56 965.72,-79.45"/>
<polygon fill="midnightblue" stroke="midnightblue" points="967.14,-82.65 974.97,-75.52 964.4,-76.21 967.14,-82.65"/>
</g>
<!-- Node32&#45;&gt;Node3 -->
<g id="edge55" class="edge">
<title>Node32&#45;&gt;Node3</title>
<path fill="none" stroke="midnightblue" d="M401.02,-336.47C363.77,-321.97 298,-288.77 298,-235 298,-235 298,-235 298,-121 298,-45.06 891.09,-17.73 1037.59,-12.14"/>
<polygon fill="midnightblue" stroke="midnightblue" points="1037.87,-15.64 1047.73,-11.76 1037.6,-8.64 1037.87,-15.64"/>
</g>
<!-- Node32&#45;&gt;Node5 -->
<g id="edge54" class="edge">
<title>Node32&#45;&gt;Node5</title>
<path fill="none" stroke="midnightblue" d="M426.27,-336.3C427.3,-303.63 430.95,-187.87 432.4,-141.96"/>
<polygon fill="midnightblue" stroke="midnightblue" points="435.9,-141.99 432.72,-131.88 428.91,-141.77 435.9,-141.99"/>
</g>
<!-- Node32&#45;&gt;Node7 -->
<g id="edge53" class="edge">
<title>Node32&#45;&gt;Node7</title>
<path fill="none" stroke="midnightblue" d="M373.95,-336.48C345.47,-329.94 310.65,-318.75 284,-300 222.43,-256.69 176.4,-176.82 157.91,-141.1"/>
<polygon fill="midnightblue" stroke="midnightblue" points="160.88,-139.23 153.25,-131.89 154.64,-142.39 160.88,-139.23"/>
</g>
<!-- Node32&#45;&gt;Node10 -->
<g id="edge56" class="edge">
<title>Node32&#45;&gt;Node10</title>
<path fill="none" stroke="midnightblue" d="M385.12,-336.44C335.08,-325.97 251.16,-308.41 203.64,-298.46"/>
<polygon fill="midnightblue" stroke="midnightblue" points="204.3,-295.02 193.79,-296.4 202.87,-301.87 204.3,-295.02"/>
</g>
<!-- Node32&#45;&gt;Node13 -->
<g id="edge57" class="edge">
<title>Node32&#45;&gt;Node13</title>
<path fill="none" stroke="midnightblue" d="M472.11,-336.44C525.11,-326.61 611.8,-310.52 666.56,-300.36"/>
<polygon fill="midnightblue" stroke="midnightblue" points="667.54,-303.74 676.73,-298.47 666.26,-296.86 667.54,-303.74"/>
</g>
<!-- Node32&#45;&gt;Node24 -->
<g id="edge52" class="edge">
<title>Node32&#45;&gt;Node24</title>
<path fill="none" stroke="midnightblue" d="M411.54,-336.44C386.1,-320.16 336,-282.13 336,-235 336,-235 336,-235 336,-177 336,-134.87 367.1,-130.4 405,-112 442.87,-93.61 550.21,-80.68 625.87,-73.54"/>
<polygon fill="midnightblue" stroke="midnightblue" points="626.23,-77.02 635.86,-72.61 625.58,-70.05 626.23,-77.02"/>
</g>
<!-- Node32&#45;&gt;Node25 -->
<g id="edge59" class="edge">
<title>Node32&#45;&gt;Node25</title>
<path fill="none" stroke="midnightblue" d="M498.06,-337.71C646.15,-322.13 979.78,-283.75 1087,-244 1155.71,-218.53 1191.68,-203.44 1208,-132 1209.98,-123.33 1211.05,-120.35 1208,-112 1203.94,-100.91 1195.81,-90.67 1188.11,-82.76"/>
<polygon fill="midnightblue" stroke="midnightblue" points="1190.36,-80.07 1180.71,-75.7 1185.53,-85.14 1190.36,-80.07"/>
</g>
<!-- Node32&#45;&gt;Node29 -->
<g id="edge58" class="edge">
<title>Node32&#45;&gt;Node29</title>
<path fill="none" stroke="midnightblue" d="M435.3,-336.08C463.24,-309.27 546.69,-229.19 582.44,-194.89"/>
<polygon fill="midnightblue" stroke="midnightblue" points="585.28,-197.02 590.07,-187.57 580.43,-191.97 585.28,-197.02"/>
</g>
<!-- Node33&#45;&gt;Node3 -->
<g id="edge63" class="edge">
<title>Node33&#45;&gt;Node3</title>
<path fill="none" stroke="midnightblue" d="M694.35,-399.8C792.13,-384.79 1014.77,-341.8 1174,-244 1203.46,-225.9 1205.58,-214.32 1228,-188 1267.91,-141.13 1308.46,-104.07 1270,-56 1259.53,-42.91 1156.11,-24.71 1102.25,-16.01"/>
<polygon fill="midnightblue" stroke="midnightblue" points="1102.61,-12.53 1092.18,-14.4 1101.5,-19.44 1102.61,-12.53"/>
</g>
<!-- Node33&#45;&gt;Node5 -->
<g id="edge62" class="edge">
<title>Node33&#45;&gt;Node5</title>
<path fill="none" stroke="midnightblue" d="M632.12,-397.85C618.84,-388.53 597.99,-372.76 583,-356 518.55,-283.93 462.85,-181.42 441.88,-140.68"/>
<polygon fill="midnightblue" stroke="midnightblue" points="444.97,-139.03 437.31,-131.71 438.73,-142.21 444.97,-139.03"/>
</g>
<!-- Node33&#45;&gt;Node11 -->
<g id="edge64" class="edge">
<title>Node33&#45;&gt;Node11</title>
<path fill="none" stroke="midnightblue" d="M595.93,-406.65C534.29,-405.01 426.73,-395.96 345,-356 276.11,-322.32 222,-311.68 222,-235 222,-235 222,-235 222,-177 222,-144.76 216.84,-107.51 213.29,-85.68"/>
<polygon fill="midnightblue" stroke="midnightblue" points="216.69,-84.8 211.57,-75.52 209.79,-85.97 216.69,-84.8"/>
</g>
<!-- Node33&#45;&gt;Node12 -->
<g id="edge65" class="edge">
<title>Node33&#45;&gt;Node12</title>
<path fill="none" stroke="midnightblue" d="M645,-397.98C645,-389.58 645,-376.48 645,-365.66"/>
<polygon fill="midnightblue" stroke="midnightblue" points="648.5,-365.51 645,-355.51 641.5,-365.51 648.5,-365.51"/>
</g>
<!-- Node33&#45;&gt;Node13 -->
<g id="edge66" class="edge">
<title>Node33&#45;&gt;Node13</title>
<path fill="none" stroke="midnightblue" d="M660.74,-397.91C674.97,-389.26 695.28,-374.58 706,-356 714.13,-341.91 716.63,-323.42 717.23,-309.76"/>
<polygon fill="midnightblue" stroke="midnightblue" points="720.74,-309.68 717.38,-299.63 713.74,-309.58 720.74,-309.68"/>
</g>
<!-- Node33&#45;&gt;Node32 -->
<g id="edge67" class="edge">
<title>Node33&#45;&gt;Node32</title>
<path fill="none" stroke="midnightblue" d="M613.62,-397.98C575.08,-387.5 509.59,-369.71 467.08,-358.16"/>
<polygon fill="midnightblue" stroke="midnightblue" points="467.89,-354.75 457.32,-355.51 466.05,-361.51 467.89,-354.75"/>
</g>
<!-- Node34&#45;&gt;Node31 -->
<g id="edge82" class="edge">
<title>Node34&#45;&gt;Node31</title>
<path fill="none" stroke="midnightblue" d="M1890.91,-472.08C1754.25,-468.21 1421.03,-455.52 1383,-423 1356.54,-400.37 1364,-381.82 1364,-347 1364,-347 1364,-347 1364,-233 1364,-145.26 1287.61,-148.89 1208,-112 1158.05,-88.85 1095.99,-77.48 1051.77,-71.97"/>
<polygon fill="midnightblue" stroke="midnightblue" points="1052.11,-68.49 1041.77,-70.79 1051.29,-75.44 1052.11,-68.49"/>
</g>
<!-- Node35 -->
<g id="node35" class="node">
<title>Node35</title>
<g id="a_node35"><a xlink:title=" ">
<polygon fill="none" stroke="#bfbfbf" points="1533.5,-398 1533.5,-417 1640.5,-417 1640.5,-398 1533.5,-398"/>
<text text-anchor="middle" x="1587" y="-405" font-family="Helvetica,sans-Serif" font-size="10.00">boost/log/core.hpp</text>
</a>
</g>
</g>
<!-- Node34&#45;&gt;Node35 -->
<g id="edge72" class="edge">
<title>Node34&#45;&gt;Node35</title>
<path fill="none" stroke="midnightblue" d="M1892.61,-464.99C1832.36,-455.66 1734.16,-439.78 1650,-423 1644.29,-421.86 1638.3,-420.59 1632.39,-419.28"/>
<polygon fill="midnightblue" stroke="midnightblue" points="1633.1,-415.85 1622.57,-417.07 1631.56,-422.68 1633.1,-415.85"/>
</g>
<!-- Node36 -->
<g id="node36" class="node">
<title>Node36</title>
<g id="a_node36"><a xlink:title=" ">
<polygon fill="none" stroke="#bfbfbf" points="1659,-398 1659,-417 1803,-417 1803,-398 1659,-398"/>
<text text-anchor="middle" x="1731" y="-405" font-family="Helvetica,sans-Serif" font-size="10.00">boost/log/expressions.hpp</text>
</a>
</g>
</g>
<!-- Node34&#45;&gt;Node36 -->
<g id="edge73" class="edge">
<title>Node34&#45;&gt;Node36</title>
<path fill="none" stroke="midnightblue" d="M1920.05,-464.87C1881.34,-453.33 1812.62,-432.84 1769.55,-420"/>
<polygon fill="midnightblue" stroke="midnightblue" points="1770.3,-416.57 1759.72,-417.06 1768.3,-423.28 1770.3,-416.57"/>
</g>
<!-- Node37 -->
<g id="node37" class="node">
<title>Node37</title>
<g id="a_node37"><a xlink:title=" ">
<polygon fill="none" stroke="#bfbfbf" points="1821,-392.5 1821,-422.5 1937,-422.5 1937,-392.5 1821,-392.5"/>
<text text-anchor="start" x="1829" y="-410.5" font-family="Helvetica,sans-Serif" font-size="10.00">boost/log/sinks/sync</text>
<text text-anchor="middle" x="1879" y="-399.5" font-family="Helvetica,sans-Serif" font-size="10.00">_frontend.hpp</text>
</a>
</g>
</g>
<!-- Node34&#45;&gt;Node37 -->
<g id="edge74" class="edge">
<title>Node34&#45;&gt;Node37</title>
<path fill="none" stroke="midnightblue" d="M1939.56,-464.73C1929.92,-455.78 1914.58,-441.54 1901.76,-429.63"/>
<polygon fill="midnightblue" stroke="midnightblue" points="1903.88,-426.83 1894.17,-422.59 1899.12,-431.96 1903.88,-426.83"/>
</g>
<!-- Node38 -->
<g id="node38" class="node">
<title>Node38</title>
<g id="a_node38"><a xlink:title=" ">
<polygon fill="none" stroke="#bfbfbf" points="1955.5,-392.5 1955.5,-422.5 2084.5,-422.5 2084.5,-392.5 1955.5,-392.5"/>
<text text-anchor="start" x="1963.5" y="-410.5" font-family="Helvetica,sans-Serif" font-size="10.00">boost/log/sinks/text</text>
<text text-anchor="middle" x="2020" y="-399.5" font-family="Helvetica,sans-Serif" font-size="10.00">_ostream_backend.hpp</text>
</a>
</g>
</g>
<!-- Node34&#45;&gt;Node38 -->
<g id="edge75" class="edge">
<title>Node34&#45;&gt;Node38</title>
<path fill="none" stroke="midnightblue" d="M1958.58,-464.73C1968.36,-455.78 1983.91,-441.54 1996.91,-429.63"/>
<polygon fill="midnightblue" stroke="midnightblue" points="1999.6,-431.92 2004.61,-422.59 1994.87,-426.76 1999.6,-431.92"/>
</g>
<!-- Node39 -->
<g id="node39" class="node">
<title>Node39</title>
<g id="a_node39"><a xlink:title=" ">
<polygon fill="none" stroke="#bfbfbf" points="2102.5,-392.5 2102.5,-422.5 2237.5,-422.5 2237.5,-392.5 2102.5,-392.5"/>
<text text-anchor="start" x="2110.5" y="-410.5" font-family="Helvetica,sans-Serif" font-size="10.00">boost/log/sources/global</text>
<text text-anchor="middle" x="2170" y="-399.5" font-family="Helvetica,sans-Serif" font-size="10.00">_logger_storage.hpp</text>
</a>
</g>
</g>
<!-- Node34&#45;&gt;Node39 -->
<g id="edge76" class="edge">
<title>Node34&#45;&gt;Node39</title>
<path fill="none" stroke="midnightblue" d="M1978.35,-464.87C2012.44,-454.84 2069.51,-438.06 2112.53,-425.4"/>
<polygon fill="midnightblue" stroke="midnightblue" points="2113.7,-428.71 2122.3,-422.53 2111.72,-421.99 2113.7,-428.71"/>
</g>
<!-- Node40 -->
<g id="node40" class="node">
<title>Node40</title>
<g id="a_node40"><a xlink:title=" ">
<polygon fill="none" stroke="#bfbfbf" points="2255.5,-392.5 2255.5,-422.5 2400.5,-422.5 2400.5,-392.5 2255.5,-392.5"/>
<text text-anchor="start" x="2263.5" y="-410.5" font-family="Helvetica,sans-Serif" font-size="10.00">boost/log/sources/severity</text>
<text text-anchor="middle" x="2328" y="-399.5" font-family="Helvetica,sans-Serif" font-size="10.00">_channel_logger.hpp</text>
</a>
</g>
</g>
<!-- Node34&#45;&gt;Node40 -->
<g id="edge77" class="edge">
<title>Node34&#45;&gt;Node40</title>
<path fill="none" stroke="midnightblue" d="M2000.17,-464.98C2057.47,-455.4 2153.37,-439.27 2245.14,-423.32"/>
<polygon fill="midnightblue" stroke="midnightblue" points="2245.9,-426.74 2255.15,-421.57 2244.7,-419.84 2245.9,-426.74"/>
</g>
<!-- Node41 -->
<g id="node41" class="node">
<title>Node41</title>
<g id="a_node41"><a xlink:title=" ">
<polygon fill="none" stroke="#bfbfbf" points="2418.5,-392.5 2418.5,-422.5 2563.5,-422.5 2563.5,-392.5 2418.5,-392.5"/>
<text text-anchor="start" x="2426.5" y="-410.5" font-family="Helvetica,sans-Serif" font-size="10.00">boost/log/sources/severity</text>
<text text-anchor="middle" x="2491" y="-399.5" font-family="Helvetica,sans-Serif" font-size="10.00">_feature.hpp</text>
</a>
</g>
</g>
<!-- Node34&#45;&gt;Node41 -->
<g id="edge78" class="edge">
<title>Node34&#45;&gt;Node41</title>
<path fill="none" stroke="midnightblue" d="M2007.02,-468.42C2092.6,-460.65 2257.92,-444.56 2407.87,-423.25"/>
<polygon fill="midnightblue" stroke="midnightblue" points="2408.78,-426.66 2418.18,-421.78 2407.78,-419.73 2408.78,-426.66"/>
</g>
<!-- Node42 -->
<g id="node42" class="node">
<title>Node42</title>
<g id="a_node42"><a xlink:title=" ">
<polygon fill="none" stroke="#bfbfbf" points="2582,-392.5 2582,-422.5 2718,-422.5 2718,-392.5 2582,-392.5"/>
<text text-anchor="start" x="2590" y="-410.5" font-family="Helvetica,sans-Serif" font-size="10.00">boost/log/utility/setup</text>
<text text-anchor="middle" x="2650" y="-399.5" font-family="Helvetica,sans-Serif" font-size="10.00">/common_attributes.hpp</text>
</a>
</g>
</g>
<!-- Node34&#45;&gt;Node42 -->
<g id="edge79" class="edge">
<title>Node34&#45;&gt;Node42</title>
<path fill="none" stroke="midnightblue" d="M2007.29,-470.84C2116.21,-465.41 2358.19,-451.25 2571.49,-423.11"/>
<polygon fill="midnightblue" stroke="midnightblue" points="2572.18,-426.55 2581.63,-421.76 2571.25,-419.61 2572.18,-426.55"/>
</g>
<!-- Node43 -->
<g id="node43" class="node">
<title>Node43</title>
<g id="a_node43"><a xlink:title=" ">
<polygon fill="none" stroke="#bfbfbf" points="2736,-392.5 2736,-422.5 2872,-422.5 2872,-392.5 2736,-392.5"/>
<text text-anchor="start" x="2744" y="-410.5" font-family="Helvetica,sans-Serif" font-size="10.00">boost/log/sources/record</text>
<text text-anchor="middle" x="2804" y="-399.5" font-family="Helvetica,sans-Serif" font-size="10.00">_ostream.hpp</text>
</a>
</g>
</g>
<!-- Node34&#45;&gt;Node43 -->
<g id="edge80" class="edge">
<title>Node34&#45;&gt;Node43</title>
<path fill="none" stroke="midnightblue" d="M2007.3,-472.13C2135.49,-468.6 2451.59,-457.04 2725.5,-423.09"/>
<polygon fill="midnightblue" stroke="midnightblue" points="2726.15,-426.53 2735.63,-421.82 2725.28,-419.59 2726.15,-426.53"/>
</g>
<!-- Node44 -->
<g id="node44" class="node">
<title>Node44</title>
<g id="a_node44"><a xlink:title=" ">
<polygon fill="none" stroke="#bfbfbf" points="1392.5,-392.5 1392.5,-422.5 1515.5,-422.5 1515.5,-392.5 1392.5,-392.5"/>
<text text-anchor="start" x="1400.5" y="-410.5" font-family="Helvetica,sans-Serif" font-size="10.00">boost/log/utility/setup</text>
<text text-anchor="middle" x="1454" y="-399.5" font-family="Helvetica,sans-Serif" font-size="10.00">/file.hpp</text>
</a>
</g>
</g>
<!-- Node34&#45;&gt;Node44 -->
<g id="edge81" class="edge">
<title>Node34&#45;&gt;Node44</title>
<path fill="none" stroke="midnightblue" d="M1890.84,-468.11C1810.94,-460.37 1662.55,-444.78 1525.76,-423.03"/>
<polygon fill="midnightblue" stroke="midnightblue" points="1525.94,-419.52 1515.52,-421.39 1524.84,-426.43 1525.94,-419.52"/>
</g>
</g>
</svg>
