<?xml version="1.0" encoding="UTF-8" standalone="no"?>
<!DOCTYPE svg PUBLIC "-//W3C//DTD SVG 1.1//EN"
 "http://www.w3.org/Graphics/SVG/1.1/DTD/svg11.dtd">
<!-- Generated by graphviz version 2.43.0 (0)
 -->
<!-- Title: fire::Conditions::CacheEntry Pages: 1 -->
<svg width="276pt" height="241pt"
 viewBox="0.00 0.00 276.00 241.00" xmlns="http://www.w3.org/2000/svg" xmlns:xlink="http://www.w3.org/1999/xlink">
<g id="graph0" class="graph" transform="scale(1 1) rotate(0) translate(4 237)">
<title>fire::Conditions::CacheEntry</title>
<!-- Node1 -->
<g id="node1" class="node">
<title>Node1</title>
<g id="a_node1"><a xlink:title="An entry to store an already loaded conditions object.">
<polygon fill="#bfbfbf" stroke="black" points="34,-0.5 34,-19.5 186,-19.5 186,-0.5 34,-0.5"/>
<text text-anchor="middle" x="110" y="-7.5" font-family="Helvetica,sans-Serif" font-size="10.00">fire::Conditions::CacheEntry</text>
</a>
</g>
</g>
<!-- Node2 -->
<g id="node2" class="node">
<title>Node2</title>
<g id="a_node2"><a xlink:href="classfire_1_1ConditionsIntervalOfValidity.html" target="_top" xlink:title="Defines the run/event/type range for which a given condition is valid, including for all time.">
<polygon fill="none" stroke="black" points="0,-67.5 0,-97.5 128,-97.5 128,-67.5 0,-67.5"/>
<text text-anchor="start" x="8" y="-85.5" font-family="Helvetica,sans-Serif" font-size="10.00">fire::ConditionsInterval</text>
<text text-anchor="middle" x="64" y="-74.5" font-family="Helvetica,sans-Serif" font-size="10.00">OfValidity</text>
</a>
</g>
</g>
<!-- Node2&#45;&gt;Node1 -->
<g id="edge1" class="edge">
<title>Node2&#45;&gt;Node1</title>
<path fill="none" stroke="#9a32cd" stroke-dasharray="5,2" d="M78.92,-58.63C87.54,-45.42 97.88,-29.57 104.2,-19.89"/>
<polygon fill="#9a32cd" stroke="#9a32cd" points="75.84,-56.95 73.31,-67.23 81.7,-60.77 75.84,-56.95"/>
<text text-anchor="middle" x="100.5" y="-41" font-family="Helvetica,sans-Serif" font-size="10.00"> iov</text>
</g>
<!-- Node3 -->
<g id="node3" class="node">
<title>Node3</title>
<g id="a_node3"><a xlink:href="classfire_1_1ConditionsObject.html" target="_top" xlink:title="Base class for all conditions objects, very simple.">
<polygon fill="none" stroke="black" points="146,-73 146,-92 268,-92 268,-73 146,-73"/>
<text text-anchor="middle" x="207" y="-80" font-family="Helvetica,sans-Serif" font-size="10.00">fire::ConditionsObject</text>
</a>
</g>
</g>
<!-- Node3&#45;&gt;Node1 -->
<g id="edge2" class="edge">
<title>Node3&#45;&gt;Node1</title>
<path fill="none" stroke="#9a32cd" stroke-dasharray="5,2" d="M186.86,-66.86C167.28,-52.63 138.19,-31.49 121.99,-19.72"/>
<polygon fill="#9a32cd" stroke="#9a32cd" points="184.96,-69.81 195.11,-72.86 189.07,-64.14 184.96,-69.81"/>
<text text-anchor="middle" x="170.5" y="-41" font-family="Helvetica,sans-Serif" font-size="10.00"> obj</text>
</g>
<!-- Node4 -->
<g id="node4" class="node">
<title>Node4</title>
<g id="a_node4"><a target="_parent" xlink:href="http://en.cppreference.com/w/cpp/string/basic_string.html" xlink:title=" ">
<polygon fill="none" stroke="black" points="174.5,-145.5 174.5,-164.5 239.5,-164.5 239.5,-145.5 174.5,-145.5"/>
<text text-anchor="middle" x="207" y="-152.5" font-family="Helvetica,sans-Serif" font-size="10.00">std::string</text>
</a>
</g>
</g>
<!-- Node4&#45;&gt;Node3 -->
<g id="edge3" class="edge">
<title>Node4&#45;&gt;Node3</title>
<path fill="none" stroke="#9a32cd" stroke-dasharray="5,2" d="M207,-134.94C207,-121.03 207,-102.82 207,-92.22"/>
<polygon fill="#9a32cd" stroke="#9a32cd" points="203.5,-135.36 207,-145.36 210.5,-135.36 203.5,-135.36"/>
<text text-anchor="middle" x="225.5" y="-119" font-family="Helvetica,sans-Serif" font-size="10.00"> name_</text>
</g>
<!-- Node5 -->
<g id="node5" class="node">
<title>Node5</title>
<g id="a_node5"><a target="_parent" xlink:href="http://en.cppreference.com/w/cpp/string/basic_string.html" xlink:title=" ">
<polygon fill="none" stroke="black" points="155,-202.5 155,-232.5 259,-232.5 259,-202.5 155,-202.5"/>
<text text-anchor="start" x="163" y="-220.5" font-family="Helvetica,sans-Serif" font-size="10.00">std::basic_string&lt;</text>
<text text-anchor="middle" x="207" y="-209.5" font-family="Helvetica,sans-Serif" font-size="10.00"> char &gt;</text>
</a>
</g>
</g>
<!-- Node5&#45;&gt;Node4 -->
<g id="edge4" class="edge">
<title>Node5&#45;&gt;Node4</title>
<path fill="none" stroke="midnightblue" d="M207,-192.35C207,-182.51 207,-171.78 207,-164.54"/>
<polygon fill="midnightblue" stroke="midnightblue" points="203.5,-192.47 207,-202.47 210.5,-192.47 203.5,-192.47"/>
</g>
</g>
</svg>
