<?xml version="1.0" encoding="UTF-8" standalone="no"?>
<!DOCTYPE svg PUBLIC "-//W3C//DTD SVG 1.1//EN"
 "http://www.w3.org/Graphics/SVG/1.1/DTD/svg11.dtd">
<!-- Generated by graphviz version 2.43.0 (0)
 -->
<!-- Title: fire::io::constants Pages: 1 -->
<svg width="173pt" height="229pt"
 viewBox="0.00 0.00 173.00 229.00" xmlns="http://www.w3.org/2000/svg" xmlns:xlink="http://www.w3.org/1999/xlink">
<g id="graph0" class="graph" transform="scale(1 1) rotate(0) translate(4 225)">
<title>fire::io::constants</title>
<!-- Node1 -->
<g id="node1" class="node">
<title>Node1</title>
<g id="a_node1"><a xlink:title="Structure constants vital to serialization method.">
<polygon fill="#bfbfbf" stroke="black" points="1.5,-0.5 1.5,-19.5 102.5,-19.5 102.5,-0.5 1.5,-0.5"/>
<text text-anchor="middle" x="52" y="-7.5" font-family="Helvetica,sans-Serif" font-size="10.00">fire::io::constants</text>
</a>
</g>
</g>
<!-- Node2 -->
<g id="node2" class="node">
<title>Node2</title>
<g id="a_node2"><a target="_parent" xlink:href="http://en.cppreference.com/w/cpp/string/basic_string.html" xlink:title=" ">
<polygon fill="none" stroke="black" points="19.5,-133.5 19.5,-152.5 84.5,-152.5 84.5,-133.5 19.5,-133.5"/>
<text text-anchor="middle" x="52" y="-140.5" font-family="Helvetica,sans-Serif" font-size="10.00">std::string</text>
</a>
</g>
</g>
<!-- Node2&#45;&gt;Node1 -->
<g id="edge1" class="edge">
<title>Node2&#45;&gt;Node1</title>
<path fill="none" stroke="#9a32cd" stroke-dasharray="5,2" d="M52,-123.09C52,-94.36 52,-40.82 52,-19.8"/>
<polygon fill="#9a32cd" stroke="#9a32cd" points="48.5,-123.4 52,-133.4 55.5,-123.4 48.5,-123.4"/>
<text text-anchor="middle" x="108.5" y="-107" font-family="Helvetica,sans-Serif" font-size="10.00"> EVENT_GROUP</text>
<text text-anchor="middle" x="108.5" y="-96" font-family="Helvetica,sans-Serif" font-size="10.00">EVENT_HEADER_NAME</text>
<text text-anchor="middle" x="108.5" y="-85" font-family="Helvetica,sans-Serif" font-size="10.00">NUMBER_NAME</text>
<text text-anchor="middle" x="108.5" y="-74" font-family="Helvetica,sans-Serif" font-size="10.00">RUN_HEADER_NAME</text>
<text text-anchor="middle" x="108.5" y="-63" font-family="Helvetica,sans-Serif" font-size="10.00">SIZE_NAME</text>
<text text-anchor="middle" x="108.5" y="-52" font-family="Helvetica,sans-Serif" font-size="10.00">TYPE_ATTR_NAME</text>
<text text-anchor="middle" x="108.5" y="-41" font-family="Helvetica,sans-Serif" font-size="10.00">VERS_ATTR_NAME</text>
</g>
<!-- Node3 -->
<g id="node3" class="node">
<title>Node3</title>
<g id="a_node3"><a target="_parent" xlink:href="http://en.cppreference.com/w/cpp/string/basic_string.html" xlink:title=" ">
<polygon fill="none" stroke="black" points="0,-190.5 0,-220.5 104,-220.5 104,-190.5 0,-190.5"/>
<text text-anchor="start" x="8" y="-208.5" font-family="Helvetica,sans-Serif" font-size="10.00">std::basic_string&lt;</text>
<text text-anchor="middle" x="52" y="-197.5" font-family="Helvetica,sans-Serif" font-size="10.00"> char &gt;</text>
</a>
</g>
</g>
<!-- Node3&#45;&gt;Node2 -->
<g id="edge2" class="edge">
<title>Node3&#45;&gt;Node2</title>
<path fill="none" stroke="midnightblue" d="M52,-180.35C52,-170.51 52,-159.78 52,-152.54"/>
<polygon fill="midnightblue" stroke="midnightblue" points="48.5,-180.47 52,-190.47 55.5,-180.47 48.5,-180.47"/>
</g>
</g>
</svg>
