<?xml version="1.0" encoding="UTF-8" standalone="no"?>
<!DOCTYPE svg PUBLIC "-//W3C//DTD SVG 1.1//EN"
 "http://www.w3.org/Graphics/SVG/1.1/DTD/svg11.dtd">
<!-- Generated by graphviz version 2.43.0 (0)
 -->
<!-- Title: fire::Analyzer Pages: 1 -->
<svg width="457pt" height="286pt"
 viewBox="0.00 0.00 456.50 286.00" xmlns="http://www.w3.org/2000/svg" xmlns:xlink="http://www.w3.org/1999/xlink">
<g id="graph0" class="graph" transform="scale(1 1) rotate(0) translate(4 282)">
<title>fire::Analyzer</title>
<!-- Node1 -->
<g id="node1" class="node">
<title>Node1</title>
<g id="a_node1"><a xlink:title="Base class for a module which does not produce a data product.">
<polygon fill="#bfbfbf" stroke="black" points="101,-0.5 101,-19.5 182,-19.5 182,-0.5 101,-0.5"/>
<text text-anchor="middle" x="141.5" y="-7.5" font-family="Helvetica,sans-Serif" font-size="10.00">fire::Analyzer</text>
</a>
</g>
</g>
<!-- Node2 -->
<g id="node2" class="node">
<title>Node2</title>
<g id="a_node2"><a xlink:href="classfire_1_1Processor.html" target="_top" xlink:title="Base class for all event processing components.">
<polygon fill="none" stroke="black" points="98.5,-57.5 98.5,-76.5 184.5,-76.5 184.5,-57.5 98.5,-57.5"/>
<text text-anchor="middle" x="141.5" y="-64.5" font-family="Helvetica,sans-Serif" font-size="10.00">fire::Processor</text>
</a>
</g>
</g>
<!-- Node2&#45;&gt;Node1 -->
<g id="edge1" class="edge">
<title>Node2&#45;&gt;Node1</title>
<path fill="none" stroke="midnightblue" d="M141.5,-47.12C141.5,-37.82 141.5,-27.06 141.5,-19.71"/>
<polygon fill="midnightblue" stroke="midnightblue" points="138,-47.41 141.5,-57.41 145,-47.41 138,-47.41"/>
</g>
<!-- Node3 -->
<g id="node3" class="node">
<title>Node3</title>
<g id="a_node3"><a xlink:href="classfire_1_1Process.html" target="_top" xlink:title=" ">
<polygon fill="none" stroke="black" points="172.5,-124.5 172.5,-143.5 248.5,-143.5 248.5,-124.5 172.5,-124.5"/>
<text text-anchor="middle" x="210.5" y="-131.5" font-family="Helvetica,sans-Serif" font-size="10.00">fire::Process</text>
</a>
</g>
</g>
<!-- Node3&#45;&gt;Node2 -->
<g id="edge2" class="edge">
<title>Node3&#45;&gt;Node2</title>
<path fill="none" stroke="#9a32cd" stroke-dasharray="5,2" d="M172.75,-119.92C166,-116.25 159.52,-111.66 154.5,-106 147.1,-97.65 143.87,-84.9 142.49,-76.5"/>
<polygon fill="#9a32cd" stroke="#9a32cd" points="171.49,-123.2 182.02,-124.38 174.52,-116.89 171.49,-123.2"/>
<text text-anchor="middle" x="177.5" y="-98" font-family="Helvetica,sans-Serif" font-size="10.00"> process_</text>
</g>
<!-- Node10 -->
<g id="node10" class="node">
<title>Node10</title>
<g id="a_node10"><a xlink:href="classfire_1_1Conditions.html" target="_top" xlink:title="Container and cache for conditions and conditions providers.">
<polygon fill="none" stroke="black" points="218.5,-57.5 218.5,-76.5 308.5,-76.5 308.5,-57.5 218.5,-57.5"/>
<text text-anchor="middle" x="263.5" y="-64.5" font-family="Helvetica,sans-Serif" font-size="10.00">fire::Conditions</text>
</a>
</g>
</g>
<!-- Node3&#45;&gt;Node10 -->
<g id="edge10" class="edge">
<title>Node3&#45;&gt;Node10</title>
<path fill="none" stroke="#9a32cd" stroke-dasharray="5,2" d="M204.63,-114.34C203.66,-107.8 203.94,-100.67 207.5,-95 212.84,-86.5 221.69,-80.61 230.79,-76.56"/>
<polygon fill="#9a32cd" stroke="#9a32cd" points="201.32,-115.55 207.07,-124.45 208.12,-113.91 201.32,-115.55"/>
<text text-anchor="middle" x="230.5" y="-98" font-family="Helvetica,sans-Serif" font-size="10.00"> process_</text>
</g>
<!-- Node4 -->
<g id="node4" class="node">
<title>Node4</title>
<g id="a_node4"><a xlink:href="classfire_1_1Event.html" target="_top" xlink:title="Event class for interfacing with processors.">
<polygon fill="none" stroke="black" points="12.5,-191.5 12.5,-210.5 78.5,-210.5 78.5,-191.5 12.5,-191.5"/>
<text text-anchor="middle" x="45.5" y="-198.5" font-family="Helvetica,sans-Serif" font-size="10.00">fire::Event</text>
</a>
</g>
</g>
<!-- Node4&#45;&gt;Node3 -->
<g id="edge3" class="edge">
<title>Node4&#45;&gt;Node3</title>
<path fill="none" stroke="#9a32cd" stroke-dasharray="5,2" d="M68.19,-186.26C81.84,-178.41 99.76,-168.79 116.5,-162 135.06,-154.47 156.49,-148.14 174.19,-143.51"/>
<polygon fill="#9a32cd" stroke="#9a32cd" points="66.34,-183.29 59.48,-191.37 69.88,-189.33 66.34,-183.29"/>
<text text-anchor="middle" x="135" y="-165" font-family="Helvetica,sans-Serif" font-size="10.00"> event_</text>
</g>
<!-- Node5 -->
<g id="node5" class="node">
<title>Node5</title>
<g id="a_node5"><a xlink:href="classfire_1_1h5_1_1Reader.html" target="_top" xlink:title="A HighFive::File specialized to fire&#39;s usecase.">
<polygon fill="none" stroke="black" points="0,-258.5 0,-277.5 91,-277.5 91,-258.5 0,-258.5"/>
<text text-anchor="middle" x="45.5" y="-265.5" font-family="Helvetica,sans-Serif" font-size="10.00">fire::h5::Reader</text>
</a>
</g>
</g>
<!-- Node5&#45;&gt;Node4 -->
<g id="edge4" class="edge">
<title>Node5&#45;&gt;Node4</title>
<path fill="none" stroke="#9a32cd" stroke-dasharray="5,2" d="M45.5,-248.04C45.5,-235.67 45.5,-220.12 45.5,-210.63"/>
<polygon fill="#9a32cd" stroke="#9a32cd" points="42,-248.23 45.5,-258.23 49,-248.23 42,-248.23"/>
<text text-anchor="middle" x="72.5" y="-232" font-family="Helvetica,sans-Serif" font-size="10.00"> input_file_</text>
</g>
<!-- Node6 -->
<g id="node6" class="node">
<title>Node6</title>
<g id="a_node6"><a xlink:href="classfire_1_1StorageControl.html" target="_top" xlink:title="Isolation of voting system deciding if events should be kept.">
<polygon fill="none" stroke="black" points="97,-191.5 97,-210.5 208,-210.5 208,-191.5 97,-191.5"/>
<text text-anchor="middle" x="152.5" y="-198.5" font-family="Helvetica,sans-Serif" font-size="10.00">fire::StorageControl</text>
</a>
</g>
</g>
<!-- Node6&#45;&gt;Node3 -->
<g id="edge5" class="edge">
<title>Node6&#45;&gt;Node3</title>
<path fill="none" stroke="#9a32cd" stroke-dasharray="5,2" d="M154.42,-181.12C155.83,-174.55 158.28,-167.46 162.5,-162 168.7,-153.98 177.99,-147.97 186.76,-143.69"/>
<polygon fill="#9a32cd" stroke="#9a32cd" points="150.91,-180.9 152.88,-191.31 157.83,-181.94 150.91,-180.9"/>
<text text-anchor="middle" x="205" y="-165" font-family="Helvetica,sans-Serif" font-size="10.00"> storage_control_</text>
</g>
<!-- Node7 -->
<g id="node7" class="node">
<title>Node7</title>
<g id="a_node7"><a xlink:href="classfire_1_1h5_1_1Writer.html" target="_top" xlink:title="A HighFive::File specialized to fire&#39;s usecase.">
<polygon fill="none" stroke="black" points="226.5,-191.5 226.5,-210.5 312.5,-210.5 312.5,-191.5 226.5,-191.5"/>
<text text-anchor="middle" x="269.5" y="-198.5" font-family="Helvetica,sans-Serif" font-size="10.00">fire::h5::Writer</text>
</a>
</g>
</g>
<!-- Node7&#45;&gt;Node3 -->
<g id="edge6" class="edge">
<title>Node7&#45;&gt;Node3</title>
<path fill="none" stroke="#9a32cd" stroke-dasharray="5,2" d="M261.27,-182.37C257.62,-175.58 252.91,-168.02 247.5,-162 241.01,-154.79 232.3,-148.32 224.97,-143.52"/>
<polygon fill="#9a32cd" stroke="#9a32cd" points="258.24,-184.12 265.84,-191.49 264.5,-180.98 258.24,-184.12"/>
<text text-anchor="middle" x="286" y="-165" font-family="Helvetica,sans-Serif" font-size="10.00"> output_file_</text>
</g>
<!-- Node8 -->
<g id="node8" class="node">
<title>Node8</title>
<g id="a_node8"><a xlink:href="classfire_1_1RunHeader.html" target="_top" xlink:title="Container for run parameters.">
<polygon fill="none" stroke="black" points="330.5,-191.5 330.5,-210.5 422.5,-210.5 422.5,-191.5 330.5,-191.5"/>
<text text-anchor="middle" x="376.5" y="-198.5" font-family="Helvetica,sans-Serif" font-size="10.00">fire::RunHeader</text>
</a>
</g>
</g>
<!-- Node8&#45;&gt;Node3 -->
<g id="edge7" class="edge">
<title>Node8&#45;&gt;Node3</title>
<path fill="none" stroke="#9a32cd" stroke-dasharray="5,2" d="M358.06,-185.02C347.59,-177.17 333.92,-167.97 320.5,-162 297.59,-151.81 270.22,-145.08 248.51,-140.88"/>
<polygon fill="#9a32cd" stroke="#9a32cd" points="355.98,-187.84 366.03,-191.2 360.27,-182.31 355.98,-187.84"/>
<text text-anchor="middle" x="372.5" y="-165" font-family="Helvetica,sans-Serif" font-size="10.00"> run_header_</text>
</g>
<!-- Node9 -->
<g id="node9" class="node">
<title>Node9</title>
<g id="a_node9"><a xlink:href="classfire_1_1h5_1_1ParameterStorage.html" target="_top" xlink:title="Provides dynamic parameter storage by interfacing between a map to variants storing parameters and a ...">
<polygon fill="none" stroke="black" points="304.5,-258.5 304.5,-277.5 448.5,-277.5 448.5,-258.5 304.5,-258.5"/>
<text text-anchor="middle" x="376.5" y="-265.5" font-family="Helvetica,sans-Serif" font-size="10.00">fire::h5::ParameterStorage</text>
</a>
</g>
</g>
<!-- Node9&#45;&gt;Node8 -->
<g id="edge8" class="edge">
<title>Node9&#45;&gt;Node8</title>
<path fill="none" stroke="#9a32cd" stroke-dasharray="5,2" d="M376.5,-248.04C376.5,-235.67 376.5,-220.12 376.5,-210.63"/>
<polygon fill="#9a32cd" stroke="#9a32cd" points="373,-248.23 376.5,-258.23 380,-248.23 373,-248.23"/>
<text text-anchor="middle" x="409" y="-232" font-family="Helvetica,sans-Serif" font-size="10.00"> parameters_</text>
</g>
<!-- Node10&#45;&gt;Node3 -->
<g id="edge9" class="edge">
<title>Node10&#45;&gt;Node3</title>
<path fill="none" stroke="#9a32cd" stroke-dasharray="5,2" d="M263.78,-86.77C263.07,-93.33 261.33,-100.43 257.5,-106 251.95,-114.06 243.15,-120.03 234.66,-124.27"/>
<polygon fill="#9a32cd" stroke="#9a32cd" points="267.28,-86.75 264.17,-76.62 260.29,-86.48 267.28,-86.75"/>
<text text-anchor="middle" x="292" y="-98" font-family="Helvetica,sans-Serif" font-size="10.00"> conditions_</text>
</g>
</g>
</svg>
