<?xml version="1.0" encoding="UTF-8" standalone="no"?>
<!DOCTYPE svg PUBLIC "-//W3C//DTD SVG 1.1//EN"
 "http://www.w3.org/Graphics/SVG/1.1/DTD/svg11.dtd">
<!-- Generated by graphviz version 2.43.0 (0)
 -->
<!-- Title: fire::ConditionsProvider Pages: 1 -->
<svg width="663pt" height="162pt"
 viewBox="0.00 0.00 662.50 162.00" xmlns="http://www.w3.org/2000/svg" xmlns:xlink="http://www.w3.org/1999/xlink">
<g id="graph0" class="graph" transform="scale(1 1) rotate(0) translate(4 158)">
<title>fire::ConditionsProvider</title>
<!-- Node1 -->
<g id="node1" class="node">
<title>Node1</title>
<g id="a_node1"><a xlink:title="Base class for all providers of conditions objects.">
<polygon fill="#bfbfbf" stroke="black" points="0,-0.5 0,-19.5 131,-19.5 131,-0.5 0,-0.5"/>
<text text-anchor="middle" x="65.5" y="-7.5" font-family="Helvetica,sans-Serif" font-size="10.00">fire::ConditionsProvider</text>
</a>
</g>
</g>
<!-- Node2 -->
<g id="node2" class="node">
<title>Node2</title>
<g id="a_node2"><a xlink:href="classfire_1_1Conditions.html" target="_top" xlink:title="Container and cache for conditions and conditions providers.">
<polygon fill="none" stroke="black" points="102.5,-67.5 102.5,-86.5 192.5,-86.5 192.5,-67.5 102.5,-67.5"/>
<text text-anchor="middle" x="147.5" y="-74.5" font-family="Helvetica,sans-Serif" font-size="10.00">fire::Conditions</text>
</a>
</g>
</g>
<!-- Node2&#45;&gt;Node1 -->
<g id="edge1" class="edge">
<title>Node2&#45;&gt;Node1</title>
<path fill="none" stroke="#9a32cd" stroke-dasharray="5,2" d="M92.9,-67.87C82.62,-63.83 73.05,-57.85 66.5,-49 60.29,-40.62 61.37,-28.11 63.1,-19.76"/>
<polygon fill="#9a32cd" stroke="#9a32cd" points="91.89,-71.22 102.48,-71.06 94.1,-64.58 91.89,-71.22"/>
<text text-anchor="middle" x="96" y="-41" font-family="Helvetica,sans-Serif" font-size="10.00"> conditions_</text>
</g>
<!-- Node3 -->
<g id="node3" class="node">
<title>Node3</title>
<g id="a_node3"><a xlink:href="classfire_1_1Process.html" target="_top" xlink:title=" ">
<polygon fill="none" stroke="black" points="290.5,-0.5 290.5,-19.5 366.5,-19.5 366.5,-0.5 290.5,-0.5"/>
<text text-anchor="middle" x="328.5" y="-7.5" font-family="Helvetica,sans-Serif" font-size="10.00">fire::Process</text>
</a>
</g>
</g>
<!-- Node2&#45;&gt;Node3 -->
<g id="edge9" class="edge">
<title>Node2&#45;&gt;Node3</title>
<path fill="none" stroke="#9a32cd" stroke-dasharray="5,2" d="M142.78,-57.41C142.16,-50.58 142.98,-43.25 147.5,-38 165.55,-17.06 242.68,-12.11 290.24,-11.09"/>
<polygon fill="#9a32cd" stroke="#9a32cd" points="139.35,-58.14 144.59,-67.35 146.24,-56.88 139.35,-58.14"/>
<text text-anchor="middle" x="177" y="-41" font-family="Helvetica,sans-Serif" font-size="10.00"> conditions_</text>
</g>
<!-- Node3&#45;&gt;Node2 -->
<g id="edge2" class="edge">
<title>Node3&#45;&gt;Node2</title>
<path fill="none" stroke="#9a32cd" stroke-dasharray="5,2" d="M285.42,-22.3C269.58,-26.76 251.59,-32.21 235.5,-38 222.27,-42.76 188.15,-57.79 166.5,-67.46"/>
<polygon fill="#9a32cd" stroke="#9a32cd" points="286.77,-25.55 295.47,-19.51 284.9,-18.81 286.77,-25.55"/>
<text text-anchor="middle" x="258.5" y="-41" font-family="Helvetica,sans-Serif" font-size="10.00"> process_</text>
</g>
<!-- Node4 -->
<g id="node4" class="node">
<title>Node4</title>
<g id="a_node4"><a xlink:href="classfire_1_1Event.html" target="_top" xlink:title="Event class for interfacing with processors.">
<polygon fill="none" stroke="black" points="218.5,-67.5 218.5,-86.5 284.5,-86.5 284.5,-67.5 218.5,-67.5"/>
<text text-anchor="middle" x="251.5" y="-74.5" font-family="Helvetica,sans-Serif" font-size="10.00">fire::Event</text>
</a>
</g>
</g>
<!-- Node4&#45;&gt;Node3 -->
<g id="edge3" class="edge">
<title>Node4&#45;&gt;Node3</title>
<path fill="none" stroke="#9a32cd" stroke-dasharray="5,2" d="M269.61,-60.71C284.78,-47.91 305.89,-30.09 318.28,-19.63"/>
<polygon fill="#9a32cd" stroke="#9a32cd" points="267.27,-58.11 261.88,-67.23 271.78,-63.46 267.27,-58.11"/>
<text text-anchor="middle" x="314" y="-41" font-family="Helvetica,sans-Serif" font-size="10.00"> event_</text>
</g>
<!-- Node5 -->
<g id="node5" class="node">
<title>Node5</title>
<g id="a_node5"><a xlink:href="classfire_1_1h5_1_1Reader.html" target="_top" xlink:title="A HighFive::File specialized to fire&#39;s usecase.">
<polygon fill="none" stroke="black" points="206,-134.5 206,-153.5 297,-153.5 297,-134.5 206,-134.5"/>
<text text-anchor="middle" x="251.5" y="-141.5" font-family="Helvetica,sans-Serif" font-size="10.00">fire::h5::Reader</text>
</a>
</g>
</g>
<!-- Node5&#45;&gt;Node4 -->
<g id="edge4" class="edge">
<title>Node5&#45;&gt;Node4</title>
<path fill="none" stroke="#9a32cd" stroke-dasharray="5,2" d="M251.5,-124.04C251.5,-111.67 251.5,-96.12 251.5,-86.63"/>
<polygon fill="#9a32cd" stroke="#9a32cd" points="248,-124.23 251.5,-134.23 255,-124.23 248,-124.23"/>
<text text-anchor="middle" x="278.5" y="-108" font-family="Helvetica,sans-Serif" font-size="10.00"> input_file_</text>
</g>
<!-- Node6 -->
<g id="node6" class="node">
<title>Node6</title>
<g id="a_node6"><a xlink:href="classfire_1_1StorageControl.html" target="_top" xlink:title="Isolation of voting system deciding if events should be kept.">
<polygon fill="none" stroke="black" points="303,-67.5 303,-86.5 414,-86.5 414,-67.5 303,-67.5"/>
<text text-anchor="middle" x="358.5" y="-74.5" font-family="Helvetica,sans-Serif" font-size="10.00">fire::StorageControl</text>
</a>
</g>
</g>
<!-- Node6&#45;&gt;Node3 -->
<g id="edge5" class="edge">
<title>Node6&#45;&gt;Node3</title>
<path fill="none" stroke="#9a32cd" stroke-dasharray="5,2" d="M350.1,-57.79C344.33,-45.31 336.95,-29.31 332.48,-19.63"/>
<polygon fill="#9a32cd" stroke="#9a32cd" points="347.09,-59.62 354.45,-67.23 353.44,-56.69 347.09,-59.62"/>
<text text-anchor="middle" x="388" y="-41" font-family="Helvetica,sans-Serif" font-size="10.00"> storage_control_</text>
</g>
<!-- Node7 -->
<g id="node7" class="node">
<title>Node7</title>
<g id="a_node7"><a xlink:href="classfire_1_1h5_1_1Writer.html" target="_top" xlink:title="A HighFive::File specialized to fire&#39;s usecase.">
<polygon fill="none" stroke="black" points="432.5,-67.5 432.5,-86.5 518.5,-86.5 518.5,-67.5 432.5,-67.5"/>
<text text-anchor="middle" x="475.5" y="-74.5" font-family="Helvetica,sans-Serif" font-size="10.00">fire::h5::Writer</text>
</a>
</g>
</g>
<!-- Node7&#45;&gt;Node3 -->
<g id="edge6" class="edge">
<title>Node7&#45;&gt;Node3</title>
<path fill="none" stroke="#9a32cd" stroke-dasharray="5,2" d="M461.55,-59.74C454.21,-52.12 444.64,-43.52 434.5,-38 413.57,-26.61 387.68,-19.9 366.73,-16.01"/>
<polygon fill="#9a32cd" stroke="#9a32cd" points="459.24,-62.4 468.56,-67.43 464.41,-57.68 459.24,-62.4"/>
<text text-anchor="middle" x="481" y="-41" font-family="Helvetica,sans-Serif" font-size="10.00"> output_file_</text>
</g>
<!-- Node8 -->
<g id="node8" class="node">
<title>Node8</title>
<g id="a_node8"><a xlink:href="classfire_1_1RunHeader.html" target="_top" xlink:title="Container for run parameters.">
<polygon fill="none" stroke="black" points="536.5,-67.5 536.5,-86.5 628.5,-86.5 628.5,-67.5 536.5,-67.5"/>
<text text-anchor="middle" x="582.5" y="-74.5" font-family="Helvetica,sans-Serif" font-size="10.00">fire::RunHeader</text>
</a>
</g>
</g>
<!-- Node8&#45;&gt;Node3 -->
<g id="edge7" class="edge">
<title>Node8&#45;&gt;Node3</title>
<path fill="none" stroke="#9a32cd" stroke-dasharray="5,2" d="M561.84,-61.6C549.06,-53.39 531.99,-43.64 515.5,-38 465.84,-21.01 405.21,-14.71 366.72,-12.38"/>
<polygon fill="#9a32cd" stroke="#9a32cd" points="560.06,-64.62 570.32,-67.23 563.93,-58.78 560.06,-64.62"/>
<text text-anchor="middle" x="571.5" y="-41" font-family="Helvetica,sans-Serif" font-size="10.00"> run_header_</text>
</g>
<!-- Node9 -->
<g id="node9" class="node">
<title>Node9</title>
<g id="a_node9"><a xlink:href="classfire_1_1h5_1_1ParameterStorage.html" target="_top" xlink:title="Provides dynamic parameter storage by interfacing between a map to variants storing parameters and a ...">
<polygon fill="none" stroke="black" points="510.5,-134.5 510.5,-153.5 654.5,-153.5 654.5,-134.5 510.5,-134.5"/>
<text text-anchor="middle" x="582.5" y="-141.5" font-family="Helvetica,sans-Serif" font-size="10.00">fire::h5::ParameterStorage</text>
</a>
</g>
</g>
<!-- Node9&#45;&gt;Node8 -->
<g id="edge8" class="edge">
<title>Node9&#45;&gt;Node8</title>
<path fill="none" stroke="#9a32cd" stroke-dasharray="5,2" d="M582.5,-124.04C582.5,-111.67 582.5,-96.12 582.5,-86.63"/>
<polygon fill="#9a32cd" stroke="#9a32cd" points="579,-124.23 582.5,-134.23 586,-124.23 579,-124.23"/>
<text text-anchor="middle" x="615" y="-108" font-family="Helvetica,sans-Serif" font-size="10.00"> parameters_</text>
</g>
</g>
</svg>
