<?xml version="1.0" encoding="UTF-8" standalone="no"?>
<!DOCTYPE svg PUBLIC "-//W3C//DTD SVG 1.1//EN"
 "http://www.w3.org/Graphics/SVG/1.1/DTD/svg11.dtd">
<!-- Generated by graphviz version 2.43.0 (0)
 -->
<!-- Title: fire::h5::BaseDataSet Pages: 1 -->
<svg width="596pt" height="455pt"
 viewBox="0.00 0.00 596.00 454.50" xmlns="http://www.w3.org/2000/svg" xmlns:xlink="http://www.w3.org/1999/xlink">
<g id="graph0" class="graph" transform="scale(1 1) rotate(0) translate(4 450.5)">
<title>fire::h5::BaseDataSet</title>
<!-- Node1 -->
<g id="node1" class="node">
<title>Node1</title>
<g id="a_node1"><a xlink:title=" ">
<polygon fill="#bfbfbf" stroke="black" points="0,-208 0,-227 119,-227 119,-208 0,-208"/>
<text text-anchor="middle" x="59.5" y="-215" font-family="Helvetica,sans-Serif" font-size="10.00">fire::h5::BaseDataSet</text>
</a>
</g>
</g>
<!-- Node2 -->
<g id="node2" class="node">
<title>Node2</title>
<g id="a_node2"><a xlink:href="classfire_1_1h5_1_1AbstractDataSet.html" target="_top" xlink:title=" ">
<polygon fill="none" stroke="black" points="181,-406.5 181,-436.5 317,-436.5 317,-406.5 181,-406.5"/>
<text text-anchor="start" x="189" y="-424.5" font-family="Helvetica,sans-Serif" font-size="10.00">fire::h5::AbstractDataSet</text>
<text text-anchor="middle" x="249" y="-413.5" font-family="Helvetica,sans-Serif" font-size="10.00">&lt; AtomicType &gt;</text>
</a>
</g>
</g>
<!-- Node1&#45;&gt;Node2 -->
<g id="edge1" class="edge">
<title>Node1&#45;&gt;Node2</title>
<path fill="none" stroke="midnightblue" d="M65.51,-237.19C75.84,-273.77 103.02,-352.34 155,-394.5 162.57,-400.64 171.49,-405.39 180.75,-409.05"/>
<polygon fill="midnightblue" stroke="midnightblue" points="68.81,-236.01 62.83,-227.27 62.06,-237.83 68.81,-236.01"/>
</g>
<!-- Node4 -->
<g id="node4" class="node">
<title>Node4</title>
<g id="a_node4"><a xlink:href="classfire_1_1h5_1_1AbstractDataSet.html" target="_top" xlink:title=" ">
<polygon fill="none" stroke="black" points="181,-354.5 181,-384.5 317,-384.5 317,-354.5 181,-354.5"/>
<text text-anchor="start" x="189" y="-372.5" font-family="Helvetica,sans-Serif" font-size="10.00">fire::h5::AbstractDataSet</text>
<text text-anchor="middle" x="249" y="-361.5" font-family="Helvetica,sans-Serif" font-size="10.00">&lt; ContentType &gt;</text>
</a>
</g>
</g>
<!-- Node1&#45;&gt;Node4 -->
<g id="edge3" class="edge">
<title>Node1&#45;&gt;Node4</title>
<path fill="none" stroke="midnightblue" d="M69.33,-236.3C83.42,-264.24 113.7,-316.44 155,-344.5 162.74,-349.76 171.55,-353.92 180.58,-357.2"/>
<polygon fill="midnightblue" stroke="midnightblue" points="72.41,-234.64 64.87,-227.19 66.12,-237.71 72.41,-234.64"/>
</g>
<!-- Node6 -->
<g id="node6" class="node">
<title>Node6</title>
<g id="a_node6"><a xlink:href="classfire_1_1h5_1_1AbstractDataSet.html" target="_top" xlink:title=" ">
<polygon fill="none" stroke="black" points="181,-304.5 181,-334.5 317,-334.5 317,-304.5 181,-304.5"/>
<text text-anchor="start" x="189" y="-322.5" font-family="Helvetica,sans-Serif" font-size="10.00">fire::h5::AbstractDataSet</text>
<text text-anchor="middle" x="249" y="-311.5" font-family="Helvetica,sans-Serif" font-size="10.00">&lt; KeyType &gt;</text>
</a>
</g>
</g>
<!-- Node1&#45;&gt;Node6 -->
<g id="edge5" class="edge">
<title>Node1&#45;&gt;Node6</title>
<path fill="none" stroke="midnightblue" d="M76.69,-234.37C94.37,-251.85 124.29,-278.78 155,-294.5 163.04,-298.61 171.82,-302.11 180.68,-305.05"/>
<polygon fill="midnightblue" stroke="midnightblue" points="78.99,-231.72 69.46,-227.07 74.01,-236.64 78.99,-231.72"/>
</g>
<!-- Node8 -->
<g id="node8" class="node">
<title>Node8</title>
<g id="a_node8"><a xlink:href="classfire_1_1h5_1_1AbstractDataSet.html" target="_top" xlink:title=" ">
<polygon fill="none" stroke="black" points="181,-254.5 181,-284.5 317,-284.5 317,-254.5 181,-254.5"/>
<text text-anchor="start" x="189" y="-272.5" font-family="Helvetica,sans-Serif" font-size="10.00">fire::h5::AbstractDataSet</text>
<text text-anchor="middle" x="249" y="-261.5" font-family="Helvetica,sans-Serif" font-size="10.00">&lt; ParameterStorage &gt;</text>
</a>
</g>
</g>
<!-- Node1&#45;&gt;Node8 -->
<g id="edge7" class="edge">
<title>Node1&#45;&gt;Node8</title>
<path fill="none" stroke="midnightblue" d="M104.69,-229.76C131.28,-237.13 165.34,-246.58 193.58,-254.41"/>
<polygon fill="midnightblue" stroke="midnightblue" points="105.46,-226.34 94.89,-227.04 103.59,-233.08 105.46,-226.34"/>
</g>
<!-- Node10 -->
<g id="node10" class="node">
<title>Node10</title>
<g id="a_node10"><a xlink:href="classfire_1_1h5_1_1AbstractDataSet.html" target="_top" xlink:title=" ">
<polygon fill="none" stroke="black" points="155,-202.5 155,-232.5 343,-232.5 343,-202.5 155,-202.5"/>
<text text-anchor="start" x="163" y="-220.5" font-family="Helvetica,sans-Serif" font-size="10.00">fire::h5::AbstractDataSet</text>
<text text-anchor="middle" x="249" y="-209.5" font-family="Helvetica,sans-Serif" font-size="10.00">&lt; std::map&lt; KeyType, ValType &gt; &gt;</text>
</a>
</g>
</g>
<!-- Node1&#45;&gt;Node10 -->
<g id="edge9" class="edge">
<title>Node1&#45;&gt;Node10</title>
<path fill="none" stroke="midnightblue" d="M129.12,-217.5C137.5,-217.5 146.17,-217.5 154.83,-217.5"/>
<polygon fill="midnightblue" stroke="midnightblue" points="129.05,-214 119.05,-217.5 129.05,-221 129.05,-214"/>
</g>
<!-- Node12 -->
<g id="node12" class="node">
<title>Node12</title>
<g id="a_node12"><a xlink:href="classfire_1_1h5_1_1AbstractDataSet.html" target="_top" xlink:title=" ">
<polygon fill="none" stroke="black" points="181,-150.5 181,-180.5 317,-180.5 317,-150.5 181,-150.5"/>
<text text-anchor="start" x="189" y="-168.5" font-family="Helvetica,sans-Serif" font-size="10.00">fire::h5::AbstractDataSet</text>
<text text-anchor="middle" x="249" y="-157.5" font-family="Helvetica,sans-Serif" font-size="10.00">&lt; std::size_t &gt;</text>
</a>
</g>
</g>
<!-- Node1&#45;&gt;Node12 -->
<g id="edge11" class="edge">
<title>Node1&#45;&gt;Node12</title>
<path fill="none" stroke="midnightblue" d="M104.69,-205.24C131.28,-197.87 165.34,-188.42 193.58,-180.59"/>
<polygon fill="midnightblue" stroke="midnightblue" points="103.59,-201.92 94.89,-207.96 105.46,-208.66 103.59,-201.92"/>
</g>
<!-- Node14 -->
<g id="node14" class="node">
<title>Node14</title>
<g id="a_node14"><a xlink:href="classfire_1_1h5_1_1AbstractDataSet.html" target="_top" xlink:title=" ">
<polygon fill="none" stroke="black" points="162,-99.5 162,-129.5 336,-129.5 336,-99.5 162,-99.5"/>
<text text-anchor="start" x="170" y="-117.5" font-family="Helvetica,sans-Serif" font-size="10.00">fire::h5::AbstractDataSet</text>
<text text-anchor="middle" x="249" y="-106.5" font-family="Helvetica,sans-Serif" font-size="10.00">&lt; std::vector&lt; ContentType &gt; &gt;</text>
</a>
</g>
</g>
<!-- Node1&#45;&gt;Node14 -->
<g id="edge13" class="edge">
<title>Node1&#45;&gt;Node14</title>
<path fill="none" stroke="midnightblue" d="M77.08,-200.71C94.88,-183.55 124.72,-157.26 155,-141.5 163.95,-136.84 173.81,-132.88 183.67,-129.56"/>
<polygon fill="midnightblue" stroke="midnightblue" points="74.46,-198.37 69.78,-207.87 79.37,-203.36 74.46,-198.37"/>
</g>
<!-- Node16 -->
<g id="node16" class="node">
<title>Node16</title>
<g id="a_node16"><a xlink:href="classfire_1_1h5_1_1AbstractDataSet.html" target="_top" xlink:title=" ">
<polygon fill="none" stroke="black" points="181,-49.5 181,-79.5 317,-79.5 317,-49.5 181,-49.5"/>
<text text-anchor="start" x="189" y="-67.5" font-family="Helvetica,sans-Serif" font-size="10.00">fire::h5::AbstractDataSet</text>
<text text-anchor="middle" x="249" y="-56.5" font-family="Helvetica,sans-Serif" font-size="10.00">&lt; ValType &gt;</text>
</a>
</g>
</g>
<!-- Node1&#45;&gt;Node16 -->
<g id="edge15" class="edge">
<title>Node1&#45;&gt;Node16</title>
<path fill="none" stroke="midnightblue" d="M69.36,-198.75C83.5,-170.88 113.84,-118.77 155,-90.5 162.74,-85.18 171.54,-80.95 180.57,-77.58"/>
<polygon fill="midnightblue" stroke="midnightblue" points="66.17,-197.32 64.89,-207.84 72.45,-200.41 66.17,-197.32"/>
</g>
<!-- Node18 -->
<g id="node18" class="node">
<title>Node18</title>
<g id="a_node18"><a xlink:href="classfire_1_1h5_1_1AbstractDataSet.html" target="_top" xlink:title=" ">
<polygon fill="none" stroke="black" points="181,-0.5 181,-30.5 317,-30.5 317,-0.5 181,-0.5"/>
<text text-anchor="start" x="189" y="-18.5" font-family="Helvetica,sans-Serif" font-size="10.00">fire::h5::AbstractDataSet</text>
<text text-anchor="middle" x="249" y="-7.5" font-family="Helvetica,sans-Serif" font-size="10.00">&lt; DataType &gt;</text>
</a>
</g>
</g>
<!-- Node1&#45;&gt;Node18 -->
<g id="edge17" class="edge">
<title>Node1&#45;&gt;Node18</title>
<path fill="none" stroke="midnightblue" d="M65.35,-197.56C75.43,-160.52 102.21,-81.12 155,-39.5 162.59,-33.51 171.52,-29.01 180.79,-25.62"/>
<polygon fill="midnightblue" stroke="midnightblue" points="61.87,-197.04 62.75,-207.6 68.65,-198.8 61.87,-197.04"/>
</g>
<!-- Node3 -->
<g id="node3" class="node">
<title>Node3</title>
<g id="a_node3"><a xlink:href="classfire_1_1h5_1_1DataSet_3_01AtomicType_00_01std_1_1enable__if__t_3_01is__atomic__v_3_01AtomicType_01_4_01_4_01_4.html" target="_top" xlink:title="Atomic types.">
<polygon fill="none" stroke="black" points="379,-405 379,-446 588,-446 588,-405 379,-405"/>
<text text-anchor="start" x="387" y="-434" font-family="Helvetica,sans-Serif" font-size="10.00">fire::h5::DataSet&lt;</text>
<text text-anchor="start" x="387" y="-423" font-family="Helvetica,sans-Serif" font-size="10.00"> AtomicType, std::enable</text>
<text text-anchor="middle" x="483.5" y="-412" font-family="Helvetica,sans-Serif" font-size="10.00">_if_t&lt; is_atomic_v&lt; AtomicType &gt; &gt; &gt;</text>
</a>
</g>
</g>
<!-- Node2&#45;&gt;Node3 -->
<g id="edge2" class="edge">
<title>Node2&#45;&gt;Node3</title>
<path fill="none" stroke="midnightblue" d="M327.32,-422.83C343.75,-423.11 361.36,-423.42 378.6,-423.71"/>
<polygon fill="midnightblue" stroke="midnightblue" points="327.31,-419.33 317.25,-422.66 327.19,-426.33 327.31,-419.33"/>
</g>
<!-- Node5 -->
<g id="node5" class="node">
<title>Node5</title>
<g id="a_node5"><a xlink:href="classfire_1_1h5_1_1DataSet.html" target="_top" xlink:title=" ">
<polygon fill="none" stroke="black" points="431.5,-355.5 431.5,-385.5 535.5,-385.5 535.5,-355.5 431.5,-355.5"/>
<text text-anchor="start" x="439.5" y="-373.5" font-family="Helvetica,sans-Serif" font-size="10.00">fire::h5::DataSet&lt;</text>
<text text-anchor="middle" x="483.5" y="-362.5" font-family="Helvetica,sans-Serif" font-size="10.00"> ContentType &gt;</text>
</a>
</g>
</g>
<!-- Node4&#45;&gt;Node5 -->
<g id="edge4" class="edge">
<title>Node4&#45;&gt;Node5</title>
<path fill="none" stroke="midnightblue" d="M327.66,-369.83C361.78,-369.98 400.9,-370.15 431.29,-370.28"/>
<polygon fill="midnightblue" stroke="midnightblue" points="327.26,-366.33 317.25,-369.79 327.23,-373.33 327.26,-366.33"/>
</g>
<!-- Node7 -->
<g id="node7" class="node">
<title>Node7</title>
<g id="a_node7"><a xlink:href="classfire_1_1h5_1_1DataSet.html" target="_top" xlink:title=" ">
<polygon fill="none" stroke="black" points="431.5,-306.5 431.5,-336.5 535.5,-336.5 535.5,-306.5 431.5,-306.5"/>
<text text-anchor="start" x="439.5" y="-324.5" font-family="Helvetica,sans-Serif" font-size="10.00">fire::h5::DataSet&lt;</text>
<text text-anchor="middle" x="483.5" y="-313.5" font-family="Helvetica,sans-Serif" font-size="10.00"> KeyType &gt;</text>
</a>
</g>
</g>
<!-- Node6&#45;&gt;Node7 -->
<g id="edge6" class="edge">
<title>Node6&#45;&gt;Node7</title>
<path fill="none" stroke="midnightblue" d="M327.66,-320.17C361.78,-320.46 400.9,-320.8 431.29,-321.06"/>
<polygon fill="midnightblue" stroke="midnightblue" points="327.28,-316.66 317.25,-320.08 327.22,-323.66 327.28,-316.66"/>
</g>
<!-- Node9 -->
<g id="node9" class="node">
<title>Node9</title>
<g id="a_node9"><a xlink:href="classfire_1_1h5_1_1DataSet_3_01ParameterStorage_01_4.html" target="_top" xlink:title="DataSet specialization for ParameterStorage.">
<polygon fill="none" stroke="black" points="424,-257.5 424,-287.5 543,-287.5 543,-257.5 424,-257.5"/>
<text text-anchor="start" x="432" y="-275.5" font-family="Helvetica,sans-Serif" font-size="10.00">fire::h5::DataSet&lt;</text>
<text text-anchor="middle" x="483.5" y="-264.5" font-family="Helvetica,sans-Serif" font-size="10.00"> ParameterStorage &gt;</text>
</a>
</g>
</g>
<!-- Node8&#45;&gt;Node9 -->
<g id="edge8" class="edge">
<title>Node8&#45;&gt;Node9</title>
<path fill="none" stroke="midnightblue" d="M327.29,-270.5C358.72,-270.9 394.45,-271.36 423.7,-271.74"/>
<polygon fill="midnightblue" stroke="midnightblue" points="327.29,-267 317.25,-270.37 327.2,-274 327.29,-267"/>
</g>
<!-- Node11 -->
<g id="node11" class="node">
<title>Node11</title>
<g id="a_node11"><a xlink:href="classfire_1_1h5_1_1DataSet_3_01std_1_1map_3_01KeyType_00_01ValType_01_4_01_4.html" target="_top" xlink:title="Maps.">
<polygon fill="none" stroke="black" points="425,-197 425,-238 542,-238 542,-197 425,-197"/>
<text text-anchor="start" x="433" y="-226" font-family="Helvetica,sans-Serif" font-size="10.00">fire::h5::DataSet&lt;</text>
<text text-anchor="start" x="433" y="-215" font-family="Helvetica,sans-Serif" font-size="10.00"> std::map&lt; KeyType,</text>
<text text-anchor="middle" x="483.5" y="-204" font-family="Helvetica,sans-Serif" font-size="10.00"> ValType &gt; &gt;</text>
</a>
</g>
</g>
<!-- Node10&#45;&gt;Node11 -->
<g id="edge10" class="edge">
<title>Node10&#45;&gt;Node11</title>
<path fill="none" stroke="midnightblue" d="M353.3,-217.5C377.8,-217.5 403.08,-217.5 424.72,-217.5"/>
<polygon fill="midnightblue" stroke="midnightblue" points="353.23,-214 343.23,-217.5 353.23,-221 353.23,-214"/>
</g>
<!-- Node13 -->
<g id="node13" class="node">
<title>Node13</title>
<g id="a_node13"><a xlink:href="classfire_1_1h5_1_1DataSet.html" target="_top" xlink:title=" ">
<polygon fill="none" stroke="black" points="431.5,-147.5 431.5,-177.5 535.5,-177.5 535.5,-147.5 431.5,-147.5"/>
<text text-anchor="start" x="439.5" y="-165.5" font-family="Helvetica,sans-Serif" font-size="10.00">fire::h5::DataSet&lt;</text>
<text text-anchor="middle" x="483.5" y="-154.5" font-family="Helvetica,sans-Serif" font-size="10.00"> std::size_t &gt;</text>
</a>
</g>
</g>
<!-- Node12&#45;&gt;Node13 -->
<g id="edge12" class="edge">
<title>Node12&#45;&gt;Node13</title>
<path fill="none" stroke="midnightblue" d="M327.66,-164.5C361.78,-164.06 400.9,-163.55 431.29,-163.16"/>
<polygon fill="midnightblue" stroke="midnightblue" points="327.2,-161 317.25,-164.63 327.29,-168 327.2,-161"/>
</g>
<!-- Node15 -->
<g id="node15" class="node">
<title>Node15</title>
<g id="a_node15"><a xlink:href="classfire_1_1h5_1_1DataSet_3_01std_1_1vector_3_01ContentType_01_4_01_4.html" target="_top" xlink:title="Vectors.">
<polygon fill="none" stroke="black" points="400.5,-98.5 400.5,-128.5 566.5,-128.5 566.5,-98.5 400.5,-98.5"/>
<text text-anchor="start" x="408.5" y="-116.5" font-family="Helvetica,sans-Serif" font-size="10.00">fire::h5::DataSet&lt;</text>
<text text-anchor="middle" x="483.5" y="-105.5" font-family="Helvetica,sans-Serif" font-size="10.00"> std::vector&lt; ContentType &gt; &gt;</text>
</a>
</g>
</g>
<!-- Node14&#45;&gt;Node15 -->
<g id="edge14" class="edge">
<title>Node14&#45;&gt;Node15</title>
<path fill="none" stroke="midnightblue" d="M346.65,-114.08C364.46,-114.01 382.91,-113.93 400.25,-113.85"/>
<polygon fill="midnightblue" stroke="midnightblue" points="346.23,-110.59 336.24,-114.13 346.26,-117.59 346.23,-110.59"/>
</g>
<!-- Node17 -->
<g id="node17" class="node">
<title>Node17</title>
<g id="a_node17"><a xlink:href="classfire_1_1h5_1_1DataSet.html" target="_top" xlink:title=" ">
<polygon fill="none" stroke="black" points="431.5,-49.5 431.5,-79.5 535.5,-79.5 535.5,-49.5 431.5,-49.5"/>
<text text-anchor="start" x="439.5" y="-67.5" font-family="Helvetica,sans-Serif" font-size="10.00">fire::h5::DataSet&lt;</text>
<text text-anchor="middle" x="483.5" y="-56.5" font-family="Helvetica,sans-Serif" font-size="10.00"> ValType &gt;</text>
</a>
</g>
</g>
<!-- Node16&#45;&gt;Node17 -->
<g id="edge16" class="edge">
<title>Node16&#45;&gt;Node17</title>
<path fill="none" stroke="midnightblue" d="M327.66,-64.5C361.78,-64.5 400.9,-64.5 431.29,-64.5"/>
<polygon fill="midnightblue" stroke="midnightblue" points="327.25,-61 317.25,-64.5 327.25,-68 327.25,-61"/>
</g>
<!-- Node19 -->
<g id="node19" class="node">
<title>Node19</title>
<g id="a_node19"><a xlink:href="classfire_1_1h5_1_1DataSet.html" target="_top" xlink:title="General data set.">
<polygon fill="none" stroke="black" points="431.5,-0.5 431.5,-30.5 535.5,-30.5 535.5,-0.5 431.5,-0.5"/>
<text text-anchor="start" x="439.5" y="-18.5" font-family="Helvetica,sans-Serif" font-size="10.00">fire::h5::DataSet&lt;</text>
<text text-anchor="middle" x="483.5" y="-7.5" font-family="Helvetica,sans-Serif" font-size="10.00"> DataType &gt;</text>
</a>
</g>
</g>
<!-- Node18&#45;&gt;Node19 -->
<g id="edge18" class="edge">
<title>Node18&#45;&gt;Node19</title>
<path fill="none" stroke="midnightblue" d="M327.66,-15.5C361.78,-15.5 400.9,-15.5 431.29,-15.5"/>
<polygon fill="midnightblue" stroke="midnightblue" points="327.25,-12 317.25,-15.5 327.25,-19 327.25,-12"/>
</g>
</g>
</svg>
