<?xml version="1.0" encoding="UTF-8" standalone="no"?>
<!DOCTYPE svg PUBLIC "-//W3C//DTD SVG 1.1//EN"
 "http://www.w3.org/Graphics/SVG/1.1/DTD/svg11.dtd">
<!-- Generated by graphviz version 2.43.0 (0)
 -->
<!-- Title: fire::RandomNumberSeedService Pages: 1 -->
<svg width="819pt" height="219pt"
 viewBox="0.00 0.00 819.00 219.00" xmlns="http://www.w3.org/2000/svg" xmlns:xlink="http://www.w3.org/1999/xlink">
<g id="graph0" class="graph" transform="scale(1 1) rotate(0) translate(4 215)">
<title>fire::RandomNumberSeedService</title>
<!-- Node1 -->
<g id="node1" class="node">
<title>Node1</title>
<g id="a_node1"><a xlink:title=" ">
<polygon fill="#bfbfbf" stroke="black" points="0,-0.5 0,-19.5 178,-19.5 178,-0.5 0,-0.5"/>
<text text-anchor="middle" x="89" y="-7.5" font-family="Helvetica,sans-Serif" font-size="10.00">fire::RandomNumberSeedService</text>
</a>
</g>
</g>
<!-- Node2 -->
<g id="node2" class="node">
<title>Node2</title>
<g id="a_node2"><a xlink:href="classfire_1_1ConditionsObject.html" target="_top" xlink:title="Base class for all conditions objects, very simple.">
<polygon fill="none" stroke="black" points="16,-57.5 16,-76.5 138,-76.5 138,-57.5 16,-57.5"/>
<text text-anchor="middle" x="77" y="-64.5" font-family="Helvetica,sans-Serif" font-size="10.00">fire::ConditionsObject</text>
</a>
</g>
</g>
<!-- Node2&#45;&gt;Node1 -->
<g id="edge1" class="edge">
<title>Node2&#45;&gt;Node1</title>
<path fill="none" stroke="midnightblue" d="M81.05,-47.42C83.1,-38.05 85.48,-27.14 87.1,-19.71"/>
<polygon fill="midnightblue" stroke="midnightblue" points="77.59,-46.89 78.88,-57.41 84.43,-48.38 77.59,-46.89"/>
</g>
<!-- Node3 -->
<g id="node3" class="node">
<title>Node3</title>
<g id="a_node3"><a xlink:href="classfire_1_1ConditionsProvider.html" target="_top" xlink:title="Base class for all providers of conditions objects.">
<polygon fill="none" stroke="black" points="156.5,-57.5 156.5,-76.5 287.5,-76.5 287.5,-57.5 156.5,-57.5"/>
<text text-anchor="middle" x="222" y="-64.5" font-family="Helvetica,sans-Serif" font-size="10.00">fire::ConditionsProvider</text>
</a>
</g>
</g>
<!-- Node3&#45;&gt;Node1 -->
<g id="edge2" class="edge">
<title>Node3&#45;&gt;Node1</title>
<path fill="none" stroke="midnightblue" d="M191.8,-53.51C166.69,-43.13 131.64,-28.63 109.64,-19.53"/>
<polygon fill="midnightblue" stroke="midnightblue" points="190.64,-56.82 201.22,-57.41 193.32,-50.35 190.64,-56.82"/>
</g>
<!-- Node4 -->
<g id="node4" class="node">
<title>Node4</title>
<g id="a_node4"><a xlink:href="classfire_1_1Conditions.html" target="_top" xlink:title="Container and cache for conditions and conditions providers.">
<polygon fill="none" stroke="black" points="259,-124.5 259,-143.5 349,-143.5 349,-124.5 259,-124.5"/>
<text text-anchor="middle" x="304" y="-131.5" font-family="Helvetica,sans-Serif" font-size="10.00">fire::Conditions</text>
</a>
</g>
</g>
<!-- Node4&#45;&gt;Node3 -->
<g id="edge3" class="edge">
<title>Node4&#45;&gt;Node3</title>
<path fill="none" stroke="#9a32cd" stroke-dasharray="5,2" d="M249.4,-124.87C239.12,-120.83 229.55,-114.85 223,-106 216.79,-97.62 217.87,-85.11 219.6,-76.76"/>
<polygon fill="#9a32cd" stroke="#9a32cd" points="248.39,-128.22 258.98,-128.06 250.6,-121.58 248.39,-128.22"/>
<text text-anchor="middle" x="252.5" y="-98" font-family="Helvetica,sans-Serif" font-size="10.00"> conditions_</text>
</g>
<!-- Node5 -->
<g id="node5" class="node">
<title>Node5</title>
<g id="a_node5"><a xlink:href="classfire_1_1Process.html" target="_top" xlink:title=" ">
<polygon fill="none" stroke="black" points="447,-57.5 447,-76.5 523,-76.5 523,-57.5 447,-57.5"/>
<text text-anchor="middle" x="485" y="-64.5" font-family="Helvetica,sans-Serif" font-size="10.00">fire::Process</text>
</a>
</g>
</g>
<!-- Node4&#45;&gt;Node5 -->
<g id="edge11" class="edge">
<title>Node4&#45;&gt;Node5</title>
<path fill="none" stroke="#9a32cd" stroke-dasharray="5,2" d="M299.28,-114.41C298.66,-107.58 299.48,-100.25 304,-95 322.05,-74.06 399.18,-69.11 446.74,-68.09"/>
<polygon fill="#9a32cd" stroke="#9a32cd" points="295.85,-115.14 301.09,-124.35 302.74,-113.88 295.85,-115.14"/>
<text text-anchor="middle" x="333.5" y="-98" font-family="Helvetica,sans-Serif" font-size="10.00"> conditions_</text>
</g>
<!-- Node5&#45;&gt;Node4 -->
<g id="edge4" class="edge">
<title>Node5&#45;&gt;Node4</title>
<path fill="none" stroke="#9a32cd" stroke-dasharray="5,2" d="M441.92,-79.3C426.08,-83.76 408.09,-89.21 392,-95 378.77,-99.76 344.65,-114.79 323,-124.46"/>
<polygon fill="#9a32cd" stroke="#9a32cd" points="443.27,-82.55 451.97,-76.51 441.4,-75.81 443.27,-82.55"/>
<text text-anchor="middle" x="415" y="-98" font-family="Helvetica,sans-Serif" font-size="10.00"> process_</text>
</g>
<!-- Node6 -->
<g id="node6" class="node">
<title>Node6</title>
<g id="a_node6"><a xlink:href="classfire_1_1Event.html" target="_top" xlink:title="Event class for interfacing with processors.">
<polygon fill="none" stroke="black" points="375,-124.5 375,-143.5 441,-143.5 441,-124.5 375,-124.5"/>
<text text-anchor="middle" x="408" y="-131.5" font-family="Helvetica,sans-Serif" font-size="10.00">fire::Event</text>
</a>
</g>
</g>
<!-- Node6&#45;&gt;Node5 -->
<g id="edge5" class="edge">
<title>Node6&#45;&gt;Node5</title>
<path fill="none" stroke="#9a32cd" stroke-dasharray="5,2" d="M426.11,-117.71C441.28,-104.91 462.39,-87.09 474.78,-76.63"/>
<polygon fill="#9a32cd" stroke="#9a32cd" points="423.77,-115.11 418.38,-124.23 428.28,-120.46 423.77,-115.11"/>
<text text-anchor="middle" x="470.5" y="-98" font-family="Helvetica,sans-Serif" font-size="10.00"> event_</text>
</g>
<!-- Node7 -->
<g id="node7" class="node">
<title>Node7</title>
<g id="a_node7"><a xlink:href="classfire_1_1h5_1_1Reader.html" target="_top" xlink:title="A HighFive::File specialized to fire&#39;s usecase.">
<polygon fill="none" stroke="black" points="362.5,-191.5 362.5,-210.5 453.5,-210.5 453.5,-191.5 362.5,-191.5"/>
<text text-anchor="middle" x="408" y="-198.5" font-family="Helvetica,sans-Serif" font-size="10.00">fire::h5::Reader</text>
</a>
</g>
</g>
<!-- Node7&#45;&gt;Node6 -->
<g id="edge6" class="edge">
<title>Node7&#45;&gt;Node6</title>
<path fill="none" stroke="#9a32cd" stroke-dasharray="5,2" d="M408,-181.04C408,-168.67 408,-153.12 408,-143.63"/>
<polygon fill="#9a32cd" stroke="#9a32cd" points="404.5,-181.23 408,-191.23 411.5,-181.23 404.5,-181.23"/>
<text text-anchor="middle" x="435" y="-165" font-family="Helvetica,sans-Serif" font-size="10.00"> input_file_</text>
</g>
<!-- Node8 -->
<g id="node8" class="node">
<title>Node8</title>
<g id="a_node8"><a xlink:href="classfire_1_1StorageControl.html" target="_top" xlink:title="Isolation of voting system deciding if events should be kept.">
<polygon fill="none" stroke="black" points="459.5,-124.5 459.5,-143.5 570.5,-143.5 570.5,-124.5 459.5,-124.5"/>
<text text-anchor="middle" x="515" y="-131.5" font-family="Helvetica,sans-Serif" font-size="10.00">fire::StorageControl</text>
</a>
</g>
</g>
<!-- Node8&#45;&gt;Node5 -->
<g id="edge7" class="edge">
<title>Node8&#45;&gt;Node5</title>
<path fill="none" stroke="#9a32cd" stroke-dasharray="5,2" d="M506.6,-114.79C500.83,-102.31 493.45,-86.31 488.98,-76.63"/>
<polygon fill="#9a32cd" stroke="#9a32cd" points="503.59,-116.62 510.95,-124.23 509.94,-113.69 503.59,-116.62"/>
<text text-anchor="middle" x="544.5" y="-98" font-family="Helvetica,sans-Serif" font-size="10.00"> storage_control_</text>
</g>
<!-- Node9 -->
<g id="node9" class="node">
<title>Node9</title>
<g id="a_node9"><a xlink:href="classfire_1_1h5_1_1Writer.html" target="_top" xlink:title="A HighFive::File specialized to fire&#39;s usecase.">
<polygon fill="none" stroke="black" points="589,-124.5 589,-143.5 675,-143.5 675,-124.5 589,-124.5"/>
<text text-anchor="middle" x="632" y="-131.5" font-family="Helvetica,sans-Serif" font-size="10.00">fire::h5::Writer</text>
</a>
</g>
</g>
<!-- Node9&#45;&gt;Node5 -->
<g id="edge8" class="edge">
<title>Node9&#45;&gt;Node5</title>
<path fill="none" stroke="#9a32cd" stroke-dasharray="5,2" d="M618.05,-116.74C610.71,-109.12 601.14,-100.52 591,-95 570.07,-83.61 544.18,-76.9 523.23,-73.01"/>
<polygon fill="#9a32cd" stroke="#9a32cd" points="615.74,-119.4 625.06,-124.43 620.91,-114.68 615.74,-119.4"/>
<text text-anchor="middle" x="637.5" y="-98" font-family="Helvetica,sans-Serif" font-size="10.00"> output_file_</text>
</g>
<!-- Node10 -->
<g id="node10" class="node">
<title>Node10</title>
<g id="a_node10"><a xlink:href="classfire_1_1RunHeader.html" target="_top" xlink:title="Container for run parameters.">
<polygon fill="none" stroke="black" points="693,-124.5 693,-143.5 785,-143.5 785,-124.5 693,-124.5"/>
<text text-anchor="middle" x="739" y="-131.5" font-family="Helvetica,sans-Serif" font-size="10.00">fire::RunHeader</text>
</a>
</g>
</g>
<!-- Node10&#45;&gt;Node5 -->
<g id="edge9" class="edge">
<title>Node10&#45;&gt;Node5</title>
<path fill="none" stroke="#9a32cd" stroke-dasharray="5,2" d="M718.34,-118.6C705.56,-110.39 688.49,-100.64 672,-95 622.34,-78.01 561.71,-71.71 523.22,-69.38"/>
<polygon fill="#9a32cd" stroke="#9a32cd" points="716.56,-121.62 726.82,-124.23 720.43,-115.78 716.56,-121.62"/>
<text text-anchor="middle" x="728" y="-98" font-family="Helvetica,sans-Serif" font-size="10.00"> run_header_</text>
</g>
<!-- Node11 -->
<g id="node11" class="node">
<title>Node11</title>
<g id="a_node11"><a xlink:href="classfire_1_1h5_1_1ParameterStorage.html" target="_top" xlink:title="Provides dynamic parameter storage by interfacing between a map to variants storing parameters and a ...">
<polygon fill="none" stroke="black" points="667,-191.5 667,-210.5 811,-210.5 811,-191.5 667,-191.5"/>
<text text-anchor="middle" x="739" y="-198.5" font-family="Helvetica,sans-Serif" font-size="10.00">fire::h5::ParameterStorage</text>
</a>
</g>
</g>
<!-- Node11&#45;&gt;Node10 -->
<g id="edge10" class="edge">
<title>Node11&#45;&gt;Node10</title>
<path fill="none" stroke="#9a32cd" stroke-dasharray="5,2" d="M739,-181.04C739,-168.67 739,-153.12 739,-143.63"/>
<polygon fill="#9a32cd" stroke="#9a32cd" points="735.5,-181.23 739,-191.23 742.5,-181.23 735.5,-181.23"/>
<text text-anchor="middle" x="771.5" y="-165" font-family="Helvetica,sans-Serif" font-size="10.00"> parameters_</text>
</g>
</g>
</svg>
