<?xml version="1.0" encoding="UTF-8" standalone="no"?>
<!DOCTYPE svg PUBLIC "-//W3C//DTD SVG 1.1//EN"
 "http://www.w3.org/Graphics/SVG/1.1/DTD/svg11.dtd">
<!-- Generated by graphviz version 2.43.0 (0)
 -->
<!-- Title: fire::h5::DataSet&lt; ParameterStorage &gt; Pages: 1 -->
<svg width="290pt" height="174pt"
 viewBox="0.00 0.00 289.50 174.00" xmlns="http://www.w3.org/2000/svg" xmlns:xlink="http://www.w3.org/1999/xlink">
<g id="graph0" class="graph" transform="scale(1 1) rotate(0) translate(4 170)">
<title>fire::h5::DataSet&lt; ParameterStorage &gt;</title>
<!-- Node1 -->
<g id="node1" class="node">
<title>Node1</title>
<g id="a_node1"><a xlink:title="DataSet specialization for ParameterStorage.">
<polygon fill="#bfbfbf" stroke="black" points="75,-0.5 75,-30.5 194,-30.5 194,-0.5 75,-0.5"/>
<text text-anchor="start" x="83" y="-18.5" font-family="Helvetica,sans-Serif" font-size="10.00">fire::h5::DataSet&lt;</text>
<text text-anchor="middle" x="134.5" y="-7.5" font-family="Helvetica,sans-Serif" font-size="10.00"> ParameterStorage &gt;</text>
</a>
</g>
</g>
<!-- Node2 -->
<g id="node2" class="node">
<title>Node2</title>
<g id="a_node2"><a xlink:href="classfire_1_1h5_1_1AbstractDataSet.html" target="_top" xlink:title=" ">
<polygon fill="none" stroke="black" points="66.5,-68.5 66.5,-98.5 202.5,-98.5 202.5,-68.5 66.5,-68.5"/>
<text text-anchor="start" x="74.5" y="-86.5" font-family="Helvetica,sans-Serif" font-size="10.00">fire::h5::AbstractDataSet</text>
<text text-anchor="middle" x="134.5" y="-75.5" font-family="Helvetica,sans-Serif" font-size="10.00">&lt; ParameterStorage &gt;</text>
</a>
</g>
</g>
<!-- Node2&#45;&gt;Node1 -->
<g id="edge1" class="edge">
<title>Node2&#45;&gt;Node1</title>
<path fill="none" stroke="midnightblue" d="M134.5,-58.03C134.5,-48.86 134.5,-38.74 134.5,-30.79"/>
<polygon fill="midnightblue" stroke="midnightblue" points="131,-58.18 134.5,-68.18 138,-58.18 131,-58.18"/>
</g>
<!-- Node3 -->
<g id="node3" class="node">
<title>Node3</title>
<g id="a_node3"><a xlink:href="classfire_1_1h5_1_1BaseDataSet.html" target="_top" xlink:title=" ">
<polygon fill="none" stroke="black" points="0,-146.5 0,-165.5 119,-165.5 119,-146.5 0,-146.5"/>
<text text-anchor="middle" x="59.5" y="-153.5" font-family="Helvetica,sans-Serif" font-size="10.00">fire::h5::BaseDataSet</text>
</a>
</g>
</g>
<!-- Node3&#45;&gt;Node2 -->
<g id="edge2" class="edge">
<title>Node3&#45;&gt;Node2</title>
<path fill="none" stroke="midnightblue" d="M76.05,-139.44C89.04,-127.23 106.96,-110.39 119.53,-98.58"/>
<polygon fill="midnightblue" stroke="midnightblue" points="73.59,-136.96 68.7,-146.36 78.38,-142.06 73.59,-136.96"/>
</g>
<!-- Node4 -->
<g id="node4" class="node">
<title>Node4</title>
<g id="a_node4"><a xlink:href="classfire_1_1h5_1_1ParameterStorage.html" target="_top" xlink:title="Provides dynamic parameter storage by interfacing between a map to variants storing parameters and a ...">
<polygon fill="none" stroke="black" points="137.5,-146.5 137.5,-165.5 281.5,-165.5 281.5,-146.5 137.5,-146.5"/>
<text text-anchor="middle" x="209.5" y="-153.5" font-family="Helvetica,sans-Serif" font-size="10.00">fire::h5::ParameterStorage</text>
</a>
</g>
</g>
<!-- Node4&#45;&gt;Node2 -->
<g id="edge3" class="edge">
<title>Node4&#45;&gt;Node2</title>
<path fill="none" stroke="#9a32cd" stroke-dasharray="5,2" d="M192.95,-139.44C179.96,-127.23 162.04,-110.39 149.47,-98.58"/>
<polygon fill="#9a32cd" stroke="#9a32cd" points="190.62,-142.06 200.3,-146.36 195.41,-136.96 190.62,-142.06"/>
<text text-anchor="middle" x="199.5" y="-120" font-family="Helvetica,sans-Serif" font-size="10.00"> handle_</text>
</g>
</g>
</svg>
