<?xml version="1.0" encoding="UTF-8" standalone="no"?>
<!DOCTYPE svg PUBLIC "-//W3C//DTD SVG 1.1//EN"
 "http://www.w3.org/Graphics/SVG/1.1/DTD/svg11.dtd">
<!-- Generated by graphviz version 2.43.0 (0)
 -->
<!-- Title: fire::Conditions Pages: 1 -->
<svg width="556pt" height="162pt"
 viewBox="0.00 0.00 556.00 162.00" xmlns="http://www.w3.org/2000/svg" xmlns:xlink="http://www.w3.org/1999/xlink">
<g id="graph0" class="graph" transform="scale(1 1) rotate(0) translate(4 158)">
<title>fire::Conditions</title>
<!-- Node1 -->
<g id="node1" class="node">
<title>Node1</title>
<g id="a_node1"><a xlink:title="Container and cache for conditions and conditions providers.">
<polygon fill="#bfbfbf" stroke="black" points="0,-67.5 0,-86.5 90,-86.5 90,-67.5 0,-67.5"/>
<text text-anchor="middle" x="45" y="-74.5" font-family="Helvetica,sans-Serif" font-size="10.00">fire::Conditions</text>
</a>
</g>
</g>
<!-- Node2 -->
<g id="node2" class="node">
<title>Node2</title>
<g id="a_node2"><a xlink:href="classfire_1_1Process.html" target="_top" xlink:title=" ">
<polygon fill="none" stroke="black" points="184,-0.5 184,-19.5 260,-19.5 260,-0.5 184,-0.5"/>
<text text-anchor="middle" x="222" y="-7.5" font-family="Helvetica,sans-Serif" font-size="10.00">fire::Process</text>
</a>
</g>
</g>
<!-- Node1&#45;&gt;Node2 -->
<g id="edge8" class="edge">
<title>Node1&#45;&gt;Node2</title>
<path fill="none" stroke="#9a32cd" stroke-dasharray="5,2" d="M37.72,-57.44C36.31,-50.62 36.45,-43.28 41,-38 59.05,-17.06 136.18,-12.11 183.74,-11.09"/>
<polygon fill="#9a32cd" stroke="#9a32cd" points="34.5,-58.86 40.81,-67.37 41.18,-56.78 34.5,-58.86"/>
<text text-anchor="middle" x="70.5" y="-41" font-family="Helvetica,sans-Serif" font-size="10.00"> conditions_</text>
</g>
<!-- Node2&#45;&gt;Node1 -->
<g id="edge1" class="edge">
<title>Node2&#45;&gt;Node1</title>
<path fill="none" stroke="#9a32cd" stroke-dasharray="5,2" d="M178.09,-22.36C162.44,-26.77 144.78,-32.17 129,-38 105.28,-46.76 78.84,-59.18 62.07,-67.41"/>
<polygon fill="#9a32cd" stroke="#9a32cd" points="179.34,-25.65 188.05,-19.61 177.48,-18.9 179.34,-25.65"/>
<text text-anchor="middle" x="152" y="-41" font-family="Helvetica,sans-Serif" font-size="10.00"> process_</text>
</g>
<!-- Node3 -->
<g id="node3" class="node">
<title>Node3</title>
<g id="a_node3"><a xlink:href="classfire_1_1Event.html" target="_top" xlink:title="Event class for interfacing with processors.">
<polygon fill="none" stroke="black" points="112,-67.5 112,-86.5 178,-86.5 178,-67.5 112,-67.5"/>
<text text-anchor="middle" x="145" y="-74.5" font-family="Helvetica,sans-Serif" font-size="10.00">fire::Event</text>
</a>
</g>
</g>
<!-- Node3&#45;&gt;Node2 -->
<g id="edge2" class="edge">
<title>Node3&#45;&gt;Node2</title>
<path fill="none" stroke="#9a32cd" stroke-dasharray="5,2" d="M163.11,-60.71C178.28,-47.91 199.39,-30.09 211.78,-19.63"/>
<polygon fill="#9a32cd" stroke="#9a32cd" points="160.77,-58.11 155.38,-67.23 165.28,-63.46 160.77,-58.11"/>
<text text-anchor="middle" x="207.5" y="-41" font-family="Helvetica,sans-Serif" font-size="10.00"> event_</text>
</g>
<!-- Node4 -->
<g id="node4" class="node">
<title>Node4</title>
<g id="a_node4"><a xlink:href="classfire_1_1h5_1_1Reader.html" target="_top" xlink:title="A HighFive::File specialized to fire&#39;s usecase.">
<polygon fill="none" stroke="black" points="99.5,-134.5 99.5,-153.5 190.5,-153.5 190.5,-134.5 99.5,-134.5"/>
<text text-anchor="middle" x="145" y="-141.5" font-family="Helvetica,sans-Serif" font-size="10.00">fire::h5::Reader</text>
</a>
</g>
</g>
<!-- Node4&#45;&gt;Node3 -->
<g id="edge3" class="edge">
<title>Node4&#45;&gt;Node3</title>
<path fill="none" stroke="#9a32cd" stroke-dasharray="5,2" d="M145,-124.04C145,-111.67 145,-96.12 145,-86.63"/>
<polygon fill="#9a32cd" stroke="#9a32cd" points="141.5,-124.23 145,-134.23 148.5,-124.23 141.5,-124.23"/>
<text text-anchor="middle" x="172" y="-108" font-family="Helvetica,sans-Serif" font-size="10.00"> input_file_</text>
</g>
<!-- Node5 -->
<g id="node5" class="node">
<title>Node5</title>
<g id="a_node5"><a xlink:href="classfire_1_1StorageControl.html" target="_top" xlink:title="Isolation of voting system deciding if events should be kept.">
<polygon fill="none" stroke="black" points="196.5,-67.5 196.5,-86.5 307.5,-86.5 307.5,-67.5 196.5,-67.5"/>
<text text-anchor="middle" x="252" y="-74.5" font-family="Helvetica,sans-Serif" font-size="10.00">fire::StorageControl</text>
</a>
</g>
</g>
<!-- Node5&#45;&gt;Node2 -->
<g id="edge4" class="edge">
<title>Node5&#45;&gt;Node2</title>
<path fill="none" stroke="#9a32cd" stroke-dasharray="5,2" d="M243.6,-57.79C237.83,-45.31 230.45,-29.31 225.98,-19.63"/>
<polygon fill="#9a32cd" stroke="#9a32cd" points="240.59,-59.62 247.95,-67.23 246.94,-56.69 240.59,-59.62"/>
<text text-anchor="middle" x="281.5" y="-41" font-family="Helvetica,sans-Serif" font-size="10.00"> storage_control_</text>
</g>
<!-- Node6 -->
<g id="node6" class="node">
<title>Node6</title>
<g id="a_node6"><a xlink:href="classfire_1_1h5_1_1Writer.html" target="_top" xlink:title="A HighFive::File specialized to fire&#39;s usecase.">
<polygon fill="none" stroke="black" points="326,-67.5 326,-86.5 412,-86.5 412,-67.5 326,-67.5"/>
<text text-anchor="middle" x="369" y="-74.5" font-family="Helvetica,sans-Serif" font-size="10.00">fire::h5::Writer</text>
</a>
</g>
</g>
<!-- Node6&#45;&gt;Node2 -->
<g id="edge5" class="edge">
<title>Node6&#45;&gt;Node2</title>
<path fill="none" stroke="#9a32cd" stroke-dasharray="5,2" d="M355.05,-59.74C347.71,-52.12 338.14,-43.52 328,-38 307.07,-26.61 281.18,-19.9 260.23,-16.01"/>
<polygon fill="#9a32cd" stroke="#9a32cd" points="352.74,-62.4 362.06,-67.43 357.91,-57.68 352.74,-62.4"/>
<text text-anchor="middle" x="374.5" y="-41" font-family="Helvetica,sans-Serif" font-size="10.00"> output_file_</text>
</g>
<!-- Node7 -->
<g id="node7" class="node">
<title>Node7</title>
<g id="a_node7"><a xlink:href="classfire_1_1RunHeader.html" target="_top" xlink:title="Container for run parameters.">
<polygon fill="none" stroke="black" points="430,-67.5 430,-86.5 522,-86.5 522,-67.5 430,-67.5"/>
<text text-anchor="middle" x="476" y="-74.5" font-family="Helvetica,sans-Serif" font-size="10.00">fire::RunHeader</text>
</a>
</g>
</g>
<!-- Node7&#45;&gt;Node2 -->
<g id="edge6" class="edge">
<title>Node7&#45;&gt;Node2</title>
<path fill="none" stroke="#9a32cd" stroke-dasharray="5,2" d="M455.34,-61.6C442.56,-53.39 425.49,-43.64 409,-38 359.34,-21.01 298.71,-14.71 260.22,-12.38"/>
<polygon fill="#9a32cd" stroke="#9a32cd" points="453.56,-64.62 463.82,-67.23 457.43,-58.78 453.56,-64.62"/>
<text text-anchor="middle" x="465" y="-41" font-family="Helvetica,sans-Serif" font-size="10.00"> run_header_</text>
</g>
<!-- Node8 -->
<g id="node8" class="node">
<title>Node8</title>
<g id="a_node8"><a xlink:href="classfire_1_1h5_1_1ParameterStorage.html" target="_top" xlink:title="Provides dynamic parameter storage by interfacing between a map to variants storing parameters and a ...">
<polygon fill="none" stroke="black" points="404,-134.5 404,-153.5 548,-153.5 548,-134.5 404,-134.5"/>
<text text-anchor="middle" x="476" y="-141.5" font-family="Helvetica,sans-Serif" font-size="10.00">fire::h5::ParameterStorage</text>
</a>
</g>
</g>
<!-- Node8&#45;&gt;Node7 -->
<g id="edge7" class="edge">
<title>Node8&#45;&gt;Node7</title>
<path fill="none" stroke="#9a32cd" stroke-dasharray="5,2" d="M476,-124.04C476,-111.67 476,-96.12 476,-86.63"/>
<polygon fill="#9a32cd" stroke="#9a32cd" points="472.5,-124.23 476,-134.23 479.5,-124.23 472.5,-124.23"/>
<text text-anchor="middle" x="508.5" y="-108" font-family="Helvetica,sans-Serif" font-size="10.00"> parameters_</text>
</g>
</g>
</svg>
