<?xml version="1.0" encoding="UTF-8" standalone="no"?>
<!DOCTYPE svg PUBLIC "-//W3C//DTD SVG 1.1//EN"
 "http://www.w3.org/Graphics/SVG/1.1/DTD/svg11.dtd">
<!-- Generated by graphviz version 2.43.0 (0)
 -->
<!-- Title: fire::Processor Pages: 1 -->
<svg width="457pt" height="229pt"
 viewBox="0.00 0.00 456.50 229.00" xmlns="http://www.w3.org/2000/svg" xmlns:xlink="http://www.w3.org/1999/xlink">
<g id="graph0" class="graph" transform="scale(1 1) rotate(0) translate(4 225)">
<title>fire::Processor</title>
<!-- Node1 -->
<g id="node1" class="node">
<title>Node1</title>
<g id="a_node1"><a xlink:title="Base class for all event processing components.">
<polygon fill="#bfbfbf" stroke="black" points="98.5,-0.5 98.5,-19.5 184.5,-19.5 184.5,-0.5 98.5,-0.5"/>
<text text-anchor="middle" x="141.5" y="-7.5" font-family="Helvetica,sans-Serif" font-size="10.00">fire::Processor</text>
</a>
</g>
</g>
<!-- Node2 -->
<g id="node2" class="node">
<title>Node2</title>
<g id="a_node2"><a xlink:href="classfire_1_1Process.html" target="_top" xlink:title=" ">
<polygon fill="none" stroke="black" points="172.5,-67.5 172.5,-86.5 248.5,-86.5 248.5,-67.5 172.5,-67.5"/>
<text text-anchor="middle" x="210.5" y="-74.5" font-family="Helvetica,sans-Serif" font-size="10.00">fire::Process</text>
</a>
</g>
</g>
<!-- Node2&#45;&gt;Node1 -->
<g id="edge1" class="edge">
<title>Node2&#45;&gt;Node1</title>
<path fill="none" stroke="#9a32cd" stroke-dasharray="5,2" d="M172.75,-62.92C166,-59.25 159.52,-54.66 154.5,-49 147.1,-40.65 143.87,-27.9 142.49,-19.5"/>
<polygon fill="#9a32cd" stroke="#9a32cd" points="171.49,-66.2 182.02,-67.38 174.52,-59.89 171.49,-66.2"/>
<text text-anchor="middle" x="177.5" y="-41" font-family="Helvetica,sans-Serif" font-size="10.00"> process_</text>
</g>
<!-- Node9 -->
<g id="node9" class="node">
<title>Node9</title>
<g id="a_node9"><a xlink:href="classfire_1_1Conditions.html" target="_top" xlink:title="Container and cache for conditions and conditions providers.">
<polygon fill="none" stroke="black" points="218.5,-0.5 218.5,-19.5 308.5,-19.5 308.5,-0.5 218.5,-0.5"/>
<text text-anchor="middle" x="263.5" y="-7.5" font-family="Helvetica,sans-Serif" font-size="10.00">fire::Conditions</text>
</a>
</g>
</g>
<!-- Node2&#45;&gt;Node9 -->
<g id="edge9" class="edge">
<title>Node2&#45;&gt;Node9</title>
<path fill="none" stroke="#9a32cd" stroke-dasharray="5,2" d="M204.63,-57.34C203.66,-50.8 203.94,-43.67 207.5,-38 212.84,-29.5 221.69,-23.61 230.79,-19.56"/>
<polygon fill="#9a32cd" stroke="#9a32cd" points="201.32,-58.55 207.07,-67.45 208.12,-56.91 201.32,-58.55"/>
<text text-anchor="middle" x="230.5" y="-41" font-family="Helvetica,sans-Serif" font-size="10.00"> process_</text>
</g>
<!-- Node3 -->
<g id="node3" class="node">
<title>Node3</title>
<g id="a_node3"><a xlink:href="classfire_1_1Event.html" target="_top" xlink:title="Event class for interfacing with processors.">
<polygon fill="none" stroke="black" points="12.5,-134.5 12.5,-153.5 78.5,-153.5 78.5,-134.5 12.5,-134.5"/>
<text text-anchor="middle" x="45.5" y="-141.5" font-family="Helvetica,sans-Serif" font-size="10.00">fire::Event</text>
</a>
</g>
</g>
<!-- Node3&#45;&gt;Node2 -->
<g id="edge2" class="edge">
<title>Node3&#45;&gt;Node2</title>
<path fill="none" stroke="#9a32cd" stroke-dasharray="5,2" d="M68.19,-129.26C81.84,-121.41 99.76,-111.79 116.5,-105 135.06,-97.47 156.49,-91.14 174.19,-86.51"/>
<polygon fill="#9a32cd" stroke="#9a32cd" points="66.34,-126.29 59.48,-134.37 69.88,-132.33 66.34,-126.29"/>
<text text-anchor="middle" x="135" y="-108" font-family="Helvetica,sans-Serif" font-size="10.00"> event_</text>
</g>
<!-- Node4 -->
<g id="node4" class="node">
<title>Node4</title>
<g id="a_node4"><a xlink:href="classfire_1_1h5_1_1Reader.html" target="_top" xlink:title="A HighFive::File specialized to fire&#39;s usecase.">
<polygon fill="none" stroke="black" points="0,-201.5 0,-220.5 91,-220.5 91,-201.5 0,-201.5"/>
<text text-anchor="middle" x="45.5" y="-208.5" font-family="Helvetica,sans-Serif" font-size="10.00">fire::h5::Reader</text>
</a>
</g>
</g>
<!-- Node4&#45;&gt;Node3 -->
<g id="edge3" class="edge">
<title>Node4&#45;&gt;Node3</title>
<path fill="none" stroke="#9a32cd" stroke-dasharray="5,2" d="M45.5,-191.04C45.5,-178.67 45.5,-163.12 45.5,-153.63"/>
<polygon fill="#9a32cd" stroke="#9a32cd" points="42,-191.23 45.5,-201.23 49,-191.23 42,-191.23"/>
<text text-anchor="middle" x="72.5" y="-175" font-family="Helvetica,sans-Serif" font-size="10.00"> input_file_</text>
</g>
<!-- Node5 -->
<g id="node5" class="node">
<title>Node5</title>
<g id="a_node5"><a xlink:href="classfire_1_1StorageControl.html" target="_top" xlink:title="Isolation of voting system deciding if events should be kept.">
<polygon fill="none" stroke="black" points="97,-134.5 97,-153.5 208,-153.5 208,-134.5 97,-134.5"/>
<text text-anchor="middle" x="152.5" y="-141.5" font-family="Helvetica,sans-Serif" font-size="10.00">fire::StorageControl</text>
</a>
</g>
</g>
<!-- Node5&#45;&gt;Node2 -->
<g id="edge4" class="edge">
<title>Node5&#45;&gt;Node2</title>
<path fill="none" stroke="#9a32cd" stroke-dasharray="5,2" d="M154.42,-124.12C155.83,-117.55 158.28,-110.46 162.5,-105 168.7,-96.98 177.99,-90.97 186.76,-86.69"/>
<polygon fill="#9a32cd" stroke="#9a32cd" points="150.91,-123.9 152.88,-134.31 157.83,-124.94 150.91,-123.9"/>
<text text-anchor="middle" x="205" y="-108" font-family="Helvetica,sans-Serif" font-size="10.00"> storage_control_</text>
</g>
<!-- Node6 -->
<g id="node6" class="node">
<title>Node6</title>
<g id="a_node6"><a xlink:href="classfire_1_1h5_1_1Writer.html" target="_top" xlink:title="A HighFive::File specialized to fire&#39;s usecase.">
<polygon fill="none" stroke="black" points="226.5,-134.5 226.5,-153.5 312.5,-153.5 312.5,-134.5 226.5,-134.5"/>
<text text-anchor="middle" x="269.5" y="-141.5" font-family="Helvetica,sans-Serif" font-size="10.00">fire::h5::Writer</text>
</a>
</g>
</g>
<!-- Node6&#45;&gt;Node2 -->
<g id="edge5" class="edge">
<title>Node6&#45;&gt;Node2</title>
<path fill="none" stroke="#9a32cd" stroke-dasharray="5,2" d="M261.27,-125.37C257.62,-118.58 252.91,-111.02 247.5,-105 241.01,-97.79 232.3,-91.32 224.97,-86.52"/>
<polygon fill="#9a32cd" stroke="#9a32cd" points="258.24,-127.12 265.84,-134.49 264.5,-123.98 258.24,-127.12"/>
<text text-anchor="middle" x="286" y="-108" font-family="Helvetica,sans-Serif" font-size="10.00"> output_file_</text>
</g>
<!-- Node7 -->
<g id="node7" class="node">
<title>Node7</title>
<g id="a_node7"><a xlink:href="classfire_1_1RunHeader.html" target="_top" xlink:title="Container for run parameters.">
<polygon fill="none" stroke="black" points="330.5,-134.5 330.5,-153.5 422.5,-153.5 422.5,-134.5 330.5,-134.5"/>
<text text-anchor="middle" x="376.5" y="-141.5" font-family="Helvetica,sans-Serif" font-size="10.00">fire::RunHeader</text>
</a>
</g>
</g>
<!-- Node7&#45;&gt;Node2 -->
<g id="edge6" class="edge">
<title>Node7&#45;&gt;Node2</title>
<path fill="none" stroke="#9a32cd" stroke-dasharray="5,2" d="M358.06,-128.02C347.59,-120.17 333.92,-110.97 320.5,-105 297.59,-94.81 270.22,-88.08 248.51,-83.88"/>
<polygon fill="#9a32cd" stroke="#9a32cd" points="355.98,-130.84 366.03,-134.2 360.27,-125.31 355.98,-130.84"/>
<text text-anchor="middle" x="372.5" y="-108" font-family="Helvetica,sans-Serif" font-size="10.00"> run_header_</text>
</g>
<!-- Node8 -->
<g id="node8" class="node">
<title>Node8</title>
<g id="a_node8"><a xlink:href="classfire_1_1h5_1_1ParameterStorage.html" target="_top" xlink:title="Provides dynamic parameter storage by interfacing between a map to variants storing parameters and a ...">
<polygon fill="none" stroke="black" points="304.5,-201.5 304.5,-220.5 448.5,-220.5 448.5,-201.5 304.5,-201.5"/>
<text text-anchor="middle" x="376.5" y="-208.5" font-family="Helvetica,sans-Serif" font-size="10.00">fire::h5::ParameterStorage</text>
</a>
</g>
</g>
<!-- Node8&#45;&gt;Node7 -->
<g id="edge7" class="edge">
<title>Node8&#45;&gt;Node7</title>
<path fill="none" stroke="#9a32cd" stroke-dasharray="5,2" d="M376.5,-191.04C376.5,-178.67 376.5,-163.12 376.5,-153.63"/>
<polygon fill="#9a32cd" stroke="#9a32cd" points="373,-191.23 376.5,-201.23 380,-191.23 373,-191.23"/>
<text text-anchor="middle" x="409" y="-175" font-family="Helvetica,sans-Serif" font-size="10.00"> parameters_</text>
</g>
<!-- Node9&#45;&gt;Node2 -->
<g id="edge8" class="edge">
<title>Node9&#45;&gt;Node2</title>
<path fill="none" stroke="#9a32cd" stroke-dasharray="5,2" d="M263.78,-29.77C263.07,-36.33 261.33,-43.43 257.5,-49 251.95,-57.06 243.15,-63.03 234.66,-67.27"/>
<polygon fill="#9a32cd" stroke="#9a32cd" points="267.28,-29.75 264.17,-19.62 260.29,-29.48 267.28,-29.75"/>
<text text-anchor="middle" x="292" y="-41" font-family="Helvetica,sans-Serif" font-size="10.00"> conditions_</text>
</g>
</g>
</svg>
