<?xml version="1.0" encoding="UTF-8" standalone="no"?>
<!DOCTYPE svg PUBLIC "-//W3C//DTD SVG 1.1//EN"
 "http://www.w3.org/Graphics/SVG/1.1/DTD/svg11.dtd">
<!-- Generated by graphviz version 2.43.0 (0)
 -->
<!-- Title: fire::h5::DataSet&lt; std::map&lt; KeyType, ValType &gt; &gt; Pages: 1 -->
<svg width="812pt" height="181pt"
 viewBox="0.00 0.00 812.00 181.00" xmlns="http://www.w3.org/2000/svg" xmlns:xlink="http://www.w3.org/1999/xlink">
<g id="graph0" class="graph" transform="scale(1 1) rotate(0) translate(4 177)">
<title>fire::h5::DataSet&lt; std::map&lt; KeyType, ValType &gt; &gt;</title>
<!-- Node1 -->
<g id="node1" class="node">
<title>Node1</title>
<g id="a_node1"><a xlink:title="Maps.">
<polygon fill="#bfbfbf" stroke="black" points="687,-69 687,-110 804,-110 804,-69 687,-69"/>
<text text-anchor="start" x="695" y="-98" font-family="Helvetica,sans-Serif" font-size="10.00">fire::h5::DataSet&lt;</text>
<text text-anchor="start" x="695" y="-87" font-family="Helvetica,sans-Serif" font-size="10.00"> std::map&lt; KeyType,</text>
<text text-anchor="middle" x="745.5" y="-76" font-family="Helvetica,sans-Serif" font-size="10.00"> ValType &gt; &gt;</text>
</a>
</g>
</g>
<!-- Node2 -->
<g id="node2" class="node">
<title>Node2</title>
<g id="a_node2"><a xlink:href="classfire_1_1h5_1_1AbstractDataSet.html" target="_top" xlink:title=" ">
<polygon fill="none" stroke="black" points="310,-142.5 310,-172.5 498,-172.5 498,-142.5 310,-142.5"/>
<text text-anchor="start" x="318" y="-160.5" font-family="Helvetica,sans-Serif" font-size="10.00">fire::h5::AbstractDataSet</text>
<text text-anchor="middle" x="404" y="-149.5" font-family="Helvetica,sans-Serif" font-size="10.00">&lt; std::map&lt; KeyType, ValType &gt; &gt;</text>
</a>
</g>
</g>
<!-- Node2&#45;&gt;Node1 -->
<g id="edge1" class="edge">
<title>Node2&#45;&gt;Node1</title>
<path fill="none" stroke="midnightblue" d="M508.68,-154.36C544.32,-151.69 584.23,-146.93 620,-138.5 647.92,-131.92 677.88,-120.28 701.41,-110"/>
<polygon fill="midnightblue" stroke="midnightblue" points="507.99,-150.9 498.26,-155.09 508.48,-157.88 507.99,-150.9"/>
</g>
<!-- Node3 -->
<g id="node3" class="node">
<title>Node3</title>
<g id="a_node3"><a xlink:href="classfire_1_1h5_1_1BaseDataSet.html" target="_top" xlink:title=" ">
<polygon fill="none" stroke="black" points="0,-85 0,-104 119,-104 119,-85 0,-85"/>
<text text-anchor="middle" x="59.5" y="-92" font-family="Helvetica,sans-Serif" font-size="10.00">fire::h5::BaseDataSet</text>
</a>
</g>
</g>
<!-- Node3&#45;&gt;Node2 -->
<g id="edge2" class="edge">
<title>Node3&#45;&gt;Node2</title>
<path fill="none" stroke="midnightblue" d="M85.52,-109.02C104.27,-119.15 130.91,-131.98 156,-138.5 205.85,-151.45 263.11,-156.45 309.94,-158.09"/>
<polygon fill="midnightblue" stroke="midnightblue" points="87.18,-105.94 76.74,-104.16 83.79,-112.07 87.18,-105.94"/>
</g>
<!-- Node5 -->
<g id="node5" class="node">
<title>Node5</title>
<g id="a_node5"><a xlink:href="classfire_1_1h5_1_1AbstractDataSet.html" target="_top" xlink:title=" ">
<polygon fill="none" stroke="black" points="156,-98.5 156,-128.5 292,-128.5 292,-98.5 156,-98.5"/>
<text text-anchor="start" x="164" y="-116.5" font-family="Helvetica,sans-Serif" font-size="10.00">fire::h5::AbstractDataSet</text>
<text text-anchor="middle" x="224" y="-105.5" font-family="Helvetica,sans-Serif" font-size="10.00">&lt; std::size_t &gt;</text>
</a>
</g>
</g>
<!-- Node3&#45;&gt;Node5 -->
<g id="edge5" class="edge">
<title>Node3&#45;&gt;Node5</title>
<path fill="none" stroke="midnightblue" d="M129.36,-102.55C138.14,-103.58 147.11,-104.63 155.86,-105.65"/>
<polygon fill="midnightblue" stroke="midnightblue" points="129.51,-99.04 119.17,-101.36 128.69,-106 129.51,-99.04"/>
</g>
<!-- Node7 -->
<g id="node7" class="node">
<title>Node7</title>
<g id="a_node7"><a xlink:href="classfire_1_1h5_1_1AbstractDataSet.html" target="_top" xlink:title=" ">
<polygon fill="none" stroke="black" points="156,-49.5 156,-79.5 292,-79.5 292,-49.5 156,-49.5"/>
<text text-anchor="start" x="164" y="-67.5" font-family="Helvetica,sans-Serif" font-size="10.00">fire::h5::AbstractDataSet</text>
<text text-anchor="middle" x="224" y="-56.5" font-family="Helvetica,sans-Serif" font-size="10.00">&lt; KeyType &gt;</text>
</a>
</g>
</g>
<!-- Node3&#45;&gt;Node7 -->
<g id="edge8" class="edge">
<title>Node3&#45;&gt;Node7</title>
<path fill="none" stroke="midnightblue" d="M122.29,-83.09C133.27,-81.07 144.76,-78.94 155.89,-76.89"/>
<polygon fill="midnightblue" stroke="midnightblue" points="121.56,-79.67 112.36,-84.93 122.83,-86.55 121.56,-79.67"/>
</g>
<!-- Node9 -->
<g id="node9" class="node">
<title>Node9</title>
<g id="a_node9"><a xlink:href="classfire_1_1h5_1_1AbstractDataSet.html" target="_top" xlink:title=" ">
<polygon fill="none" stroke="black" points="156,-0.5 156,-30.5 292,-30.5 292,-0.5 156,-0.5"/>
<text text-anchor="start" x="164" y="-18.5" font-family="Helvetica,sans-Serif" font-size="10.00">fire::h5::AbstractDataSet</text>
<text text-anchor="middle" x="224" y="-7.5" font-family="Helvetica,sans-Serif" font-size="10.00">&lt; ValType &gt;</text>
</a>
</g>
</g>
<!-- Node3&#45;&gt;Node9 -->
<g id="edge11" class="edge">
<title>Node3&#45;&gt;Node9</title>
<path fill="none" stroke="midnightblue" d="M83.83,-79.49C102.79,-67.68 130.48,-51.3 156,-39.5 162.84,-36.34 170.23,-33.32 177.51,-30.55"/>
<polygon fill="midnightblue" stroke="midnightblue" points="81.87,-76.59 75.27,-84.88 85.6,-82.51 81.87,-76.59"/>
</g>
<!-- Node4 -->
<g id="node4" class="node">
<title>Node4</title>
<g id="a_node4"><a xlink:href="classfire_1_1h5_1_1DataSet.html" target="_top" xlink:title=" ">
<polygon fill="none" stroke="black" points="516,-98.5 516,-128.5 620,-128.5 620,-98.5 516,-98.5"/>
<text text-anchor="start" x="524" y="-116.5" font-family="Helvetica,sans-Serif" font-size="10.00">fire::h5::DataSet&lt;</text>
<text text-anchor="middle" x="568" y="-105.5" font-family="Helvetica,sans-Serif" font-size="10.00"> std::size_t &gt;</text>
</a>
</g>
</g>
<!-- Node4&#45;&gt;Node1 -->
<g id="edge3" class="edge">
<title>Node4&#45;&gt;Node1</title>
<path fill="none" stroke="#9a32cd" stroke-dasharray="5,2" d="M630.23,-105.13C648.57,-102.62 668.62,-99.88 686.73,-97.4"/>
<polygon fill="#9a32cd" stroke="#9a32cd" points="629.67,-101.67 620.23,-106.49 630.62,-108.61 629.67,-101.67"/>
<text text-anchor="middle" x="653.5" y="-106.5" font-family="Helvetica,sans-Serif" font-size="10.00"> size_</text>
</g>
<!-- Node5&#45;&gt;Node4 -->
<g id="edge4" class="edge">
<title>Node5&#45;&gt;Node4</title>
<path fill="none" stroke="midnightblue" d="M302.41,-113.5C367.72,-113.5 459.36,-113.5 515.87,-113.5"/>
<polygon fill="midnightblue" stroke="midnightblue" points="302.16,-110 292.16,-113.5 302.16,-117 302.16,-110"/>
</g>
<!-- Node6 -->
<g id="node6" class="node">
<title>Node6</title>
<g id="a_node6"><a xlink:href="classfire_1_1h5_1_1DataSet.html" target="_top" xlink:title=" ">
<polygon fill="none" stroke="black" points="516,-49.5 516,-79.5 620,-79.5 620,-49.5 516,-49.5"/>
<text text-anchor="start" x="524" y="-67.5" font-family="Helvetica,sans-Serif" font-size="10.00">fire::h5::DataSet&lt;</text>
<text text-anchor="middle" x="568" y="-56.5" font-family="Helvetica,sans-Serif" font-size="10.00"> KeyType &gt;</text>
</a>
</g>
</g>
<!-- Node6&#45;&gt;Node1 -->
<g id="edge6" class="edge">
<title>Node6&#45;&gt;Node1</title>
<path fill="none" stroke="#9a32cd" stroke-dasharray="5,2" d="M630.23,-73.22C648.57,-75.83 668.62,-78.69 686.73,-81.27"/>
<polygon fill="#9a32cd" stroke="#9a32cd" points="630.63,-69.74 620.23,-71.8 629.64,-76.67 630.63,-69.74"/>
<text text-anchor="middle" x="653.5" y="-80.5" font-family="Helvetica,sans-Serif" font-size="10.00"> keys_</text>
</g>
<!-- Node7&#45;&gt;Node6 -->
<g id="edge7" class="edge">
<title>Node7&#45;&gt;Node6</title>
<path fill="none" stroke="midnightblue" d="M302.41,-64.5C367.72,-64.5 459.36,-64.5 515.87,-64.5"/>
<polygon fill="midnightblue" stroke="midnightblue" points="302.16,-61 292.16,-64.5 302.16,-68 302.16,-61"/>
</g>
<!-- Node8 -->
<g id="node8" class="node">
<title>Node8</title>
<g id="a_node8"><a xlink:href="classfire_1_1h5_1_1DataSet.html" target="_top" xlink:title=" ">
<polygon fill="none" stroke="black" points="516,-0.5 516,-30.5 620,-30.5 620,-0.5 516,-0.5"/>
<text text-anchor="start" x="524" y="-18.5" font-family="Helvetica,sans-Serif" font-size="10.00">fire::h5::DataSet&lt;</text>
<text text-anchor="middle" x="568" y="-7.5" font-family="Helvetica,sans-Serif" font-size="10.00"> ValType &gt;</text>
</a>
</g>
</g>
<!-- Node8&#45;&gt;Node1 -->
<g id="edge9" class="edge">
<title>Node8&#45;&gt;Node1</title>
<path fill="none" stroke="#9a32cd" stroke-dasharray="5,2" d="M614.18,-34.55C639.12,-45.07 670.13,-58.14 695.63,-68.9"/>
<polygon fill="#9a32cd" stroke="#9a32cd" points="615.51,-31.31 604.94,-30.65 612.79,-37.76 615.51,-31.31"/>
<text text-anchor="middle" x="653.5" y="-60.5" font-family="Helvetica,sans-Serif" font-size="10.00"> vals_</text>
</g>
<!-- Node9&#45;&gt;Node8 -->
<g id="edge10" class="edge">
<title>Node9&#45;&gt;Node8</title>
<path fill="none" stroke="midnightblue" d="M302.41,-15.5C367.72,-15.5 459.36,-15.5 515.87,-15.5"/>
<polygon fill="midnightblue" stroke="midnightblue" points="302.16,-12 292.16,-15.5 302.16,-19 302.16,-12"/>
</g>
</g>
</svg>
