<?xml version="1.0" encoding="UTF-8" standalone="no"?>
<!DOCTYPE svg PUBLIC "-//W3C//DTD SVG 1.1//EN"
 "http://www.w3.org/Graphics/SVG/1.1/DTD/svg11.dtd">
<!-- Generated by graphviz version 2.43.0 (0)
 -->
<!-- Title: Graphical Class Hierarchy Pages: 1 -->
<svg width="255pt" height="78pt"
 viewBox="0.00 0.00 255.00 77.50" xmlns="http://www.w3.org/2000/svg" xmlns:xlink="http://www.w3.org/1999/xlink">
<g id="graph0" class="graph" transform="scale(1 1) rotate(0) translate(4 73.5)">
<title>Graphical Class Hierarchy</title>
<!-- Node13 -->
<g id="node1" class="node">
<title>Node13</title>
<g id="a_node1"><a xlink:title=" ">
<polygon fill="none" stroke="#bfbfbf" points="0,-28 0,-47 65,-47 65,-28 0,-28"/>
<text text-anchor="middle" x="32.5" y="-35" font-family="Helvetica,sans-Serif" font-size="10.00">exception</text>
</a>
</g>
</g>
<!-- Node0 -->
<g id="node2" class="node">
<title>Node0</title>
<g id="a_node2"><a xlink:href="classfire_1_1Exception.html" target="_top" xlink:title="Standard base exception class with some useful output information.">
<polygon fill="none" stroke="black" points="131,-50 131,-69 217,-69 217,-50 131,-50"/>
<text text-anchor="middle" x="174" y="-57" font-family="Helvetica,sans-Serif" font-size="10.00">fire::Exception</text>
</a>
</g>
</g>
<!-- Node13&#45;&gt;Node0 -->
<g id="edge1" class="edge">
<title>Node13&#45;&gt;Node0</title>
<path fill="none" stroke="midnightblue" d="M75.15,-44.07C92.75,-46.84 113.23,-50.07 130.89,-52.86"/>
<polygon fill="midnightblue" stroke="midnightblue" points="75.58,-40.59 65.15,-42.49 74.49,-47.51 75.58,-40.59"/>
</g>
<!-- Node15 -->
<g id="node3" class="node">
<title>Node15</title>
<g id="a_node3"><a xlink:href="classfire_1_1Processor_1_1AbortEventException.html" target="_top" xlink:title="Specific exception used to abort an event. This inherits directly from std exception to try to keep i...">
<polygon fill="none" stroke="black" points="101,-0.5 101,-30.5 247,-30.5 247,-0.5 101,-0.5"/>
<text text-anchor="start" x="109" y="-18.5" font-family="Helvetica,sans-Serif" font-size="10.00">fire::Processor::AbortEvent</text>
<text text-anchor="middle" x="174" y="-7.5" font-family="Helvetica,sans-Serif" font-size="10.00">Exception</text>
</a>
</g>
</g>
<!-- Node13&#45;&gt;Node15 -->
<g id="edge2" class="edge">
<title>Node13&#45;&gt;Node15</title>
<path fill="none" stroke="midnightblue" d="M75.09,-30.94C83.23,-29.66 91.98,-28.28 100.78,-26.89"/>
<polygon fill="midnightblue" stroke="midnightblue" points="74.49,-27.49 65.15,-32.51 75.58,-34.41 74.49,-27.49"/>
</g>
</g>
</svg>
