<?xml version="1.0" encoding="UTF-8" standalone="no"?>
<!DOCTYPE svg PUBLIC "-//W3C//DTD SVG 1.1//EN"
 "http://www.w3.org/Graphics/SVG/1.1/DTD/svg11.dtd">
<!-- Generated by graphviz version 2.43.0 (0)
 -->
<!-- Title: include/fire/logging/Logger.h Pages: 1 -->
<svg width="1488pt" height="106pt"
 viewBox="0.00 0.00 1488.00 106.00" xmlns="http://www.w3.org/2000/svg" xmlns:xlink="http://www.w3.org/1999/xlink">
<g id="graph0" class="graph" transform="scale(1 1) rotate(0) translate(4 102)">
<title>include/fire/logging/Logger.h</title>
<!-- Node1 -->
<g id="node1" class="node">
<title>Node1</title>
<g id="a_node1"><a xlink:title="Interface to Boost.Logging.">
<polygon fill="#bfbfbf" stroke="black" points="660.5,-67.5 660.5,-97.5 770.5,-97.5 770.5,-67.5 660.5,-67.5"/>
<text text-anchor="start" x="668.5" y="-85.5" font-family="Helvetica,sans-Serif" font-size="10.00">include/fire/logging</text>
<text text-anchor="middle" x="715.5" y="-74.5" font-family="Helvetica,sans-Serif" font-size="10.00">/Logger.h</text>
</a>
</g>
</g>
<!-- Node2 -->
<g id="node2" class="node">
<title>Node2</title>
<g id="a_node2"><a xlink:title=" ">
<polygon fill="none" stroke="#bfbfbf" points="0,-6 0,-25 107,-25 107,-6 0,-6"/>
<text text-anchor="middle" x="53.5" y="-13" font-family="Helvetica,sans-Serif" font-size="10.00">boost/log/core.hpp</text>
</a>
</g>
</g>
<!-- Node1&#45;&gt;Node2 -->
<g id="edge1" class="edge">
<title>Node1&#45;&gt;Node2</title>
<path fill="none" stroke="midnightblue" d="M660.27,-79.47C554.28,-74.99 315.24,-62.09 116.5,-31 110.1,-30 103.38,-28.71 96.81,-27.32"/>
<polygon fill="midnightblue" stroke="midnightblue" points="97.2,-23.82 86.68,-25.07 95.68,-30.65 97.2,-23.82"/>
</g>
<!-- Node3 -->
<g id="node3" class="node">
<title>Node3</title>
<g id="a_node3"><a xlink:title=" ">
<polygon fill="none" stroke="#bfbfbf" points="125.5,-6 125.5,-25 269.5,-25 269.5,-6 125.5,-6"/>
<text text-anchor="middle" x="197.5" y="-13" font-family="Helvetica,sans-Serif" font-size="10.00">boost/log/expressions.hpp</text>
</a>
</g>
</g>
<!-- Node1&#45;&gt;Node3 -->
<g id="edge2" class="edge">
<title>Node1&#45;&gt;Node3</title>
<path fill="none" stroke="midnightblue" d="M660.17,-76.22C577.09,-68.04 415.26,-51.12 278.5,-31 270.07,-29.76 261.17,-28.31 252.47,-26.82"/>
<polygon fill="midnightblue" stroke="midnightblue" points="252.86,-23.33 242.41,-25.05 251.65,-30.22 252.86,-23.33"/>
</g>
<!-- Node4 -->
<g id="node4" class="node">
<title>Node4</title>
<g id="a_node4"><a xlink:title=" ">
<polygon fill="none" stroke="#bfbfbf" points="287.5,-0.5 287.5,-30.5 403.5,-30.5 403.5,-0.5 287.5,-0.5"/>
<text text-anchor="start" x="295.5" y="-18.5" font-family="Helvetica,sans-Serif" font-size="10.00">boost/log/sinks/sync</text>
<text text-anchor="middle" x="345.5" y="-7.5" font-family="Helvetica,sans-Serif" font-size="10.00">_frontend.hpp</text>
</a>
</g>
</g>
<!-- Node1&#45;&gt;Node4 -->
<g id="edge3" class="edge">
<title>Node1&#45;&gt;Node4</title>
<path fill="none" stroke="midnightblue" d="M660.34,-73.12C601.65,-64.02 505.83,-48.65 413.63,-31.17"/>
<polygon fill="midnightblue" stroke="midnightblue" points="414.05,-27.68 403.57,-29.25 412.74,-34.56 414.05,-27.68"/>
</g>
<!-- Node5 -->
<g id="node5" class="node">
<title>Node5</title>
<g id="a_node5"><a xlink:title=" ">
<polygon fill="none" stroke="#bfbfbf" points="422,-0.5 422,-30.5 551,-30.5 551,-0.5 422,-0.5"/>
<text text-anchor="start" x="430" y="-18.5" font-family="Helvetica,sans-Serif" font-size="10.00">boost/log/sinks/text</text>
<text text-anchor="middle" x="486.5" y="-7.5" font-family="Helvetica,sans-Serif" font-size="10.00">_ostream_backend.hpp</text>
</a>
</g>
</g>
<!-- Node1&#45;&gt;Node5 -->
<g id="edge4" class="edge">
<title>Node1&#45;&gt;Node5</title>
<path fill="none" stroke="midnightblue" d="M666.09,-67.48C630.85,-57.47 583.28,-43.97 545.96,-33.38"/>
<polygon fill="midnightblue" stroke="midnightblue" points="546.79,-29.97 536.21,-30.61 544.88,-36.71 546.79,-29.97"/>
</g>
<!-- Node6 -->
<g id="node6" class="node">
<title>Node6</title>
<g id="a_node6"><a xlink:title=" ">
<polygon fill="none" stroke="#bfbfbf" points="569,-0.5 569,-30.5 704,-30.5 704,-0.5 569,-0.5"/>
<text text-anchor="start" x="577" y="-18.5" font-family="Helvetica,sans-Serif" font-size="10.00">boost/log/sources/global</text>
<text text-anchor="middle" x="636.5" y="-7.5" font-family="Helvetica,sans-Serif" font-size="10.00">_logger_storage.hpp</text>
</a>
</g>
</g>
<!-- Node1&#45;&gt;Node6 -->
<g id="edge5" class="edge">
<title>Node1&#45;&gt;Node6</title>
<path fill="none" stroke="midnightblue" d="M698.36,-67.4C687.59,-58.54 673.52,-46.96 661.52,-37.09"/>
<polygon fill="midnightblue" stroke="midnightblue" points="663.55,-34.23 653.61,-30.58 659.11,-39.63 663.55,-34.23"/>
</g>
<!-- Node7 -->
<g id="node7" class="node">
<title>Node7</title>
<g id="a_node7"><a xlink:title=" ">
<polygon fill="none" stroke="#bfbfbf" points="722,-0.5 722,-30.5 867,-30.5 867,-0.5 722,-0.5"/>
<text text-anchor="start" x="730" y="-18.5" font-family="Helvetica,sans-Serif" font-size="10.00">boost/log/sources/severity</text>
<text text-anchor="middle" x="794.5" y="-7.5" font-family="Helvetica,sans-Serif" font-size="10.00">_channel_logger.hpp</text>
</a>
</g>
</g>
<!-- Node1&#45;&gt;Node7 -->
<g id="edge6" class="edge">
<title>Node1&#45;&gt;Node7</title>
<path fill="none" stroke="midnightblue" d="M732.64,-67.4C743.41,-58.54 757.48,-46.96 769.48,-37.09"/>
<polygon fill="midnightblue" stroke="midnightblue" points="771.89,-39.63 777.39,-30.58 767.45,-34.23 771.89,-39.63"/>
</g>
<!-- Node8 -->
<g id="node8" class="node">
<title>Node8</title>
<g id="a_node8"><a xlink:title=" ">
<polygon fill="none" stroke="#bfbfbf" points="885,-0.5 885,-30.5 1030,-30.5 1030,-0.5 885,-0.5"/>
<text text-anchor="start" x="893" y="-18.5" font-family="Helvetica,sans-Serif" font-size="10.00">boost/log/sources/severity</text>
<text text-anchor="middle" x="957.5" y="-7.5" font-family="Helvetica,sans-Serif" font-size="10.00">_feature.hpp</text>
</a>
</g>
</g>
<!-- Node1&#45;&gt;Node8 -->
<g id="edge7" class="edge">
<title>Node1&#45;&gt;Node8</title>
<path fill="none" stroke="midnightblue" d="M767.71,-67.48C805.12,-57.43 855.65,-43.86 895.17,-33.24"/>
<polygon fill="midnightblue" stroke="midnightblue" points="896.21,-36.59 904.96,-30.61 894.4,-29.82 896.21,-36.59"/>
</g>
<!-- Node9 -->
<g id="node9" class="node">
<title>Node9</title>
<g id="a_node9"><a xlink:title=" ">
<polygon fill="none" stroke="#bfbfbf" points="1048.5,-0.5 1048.5,-30.5 1184.5,-30.5 1184.5,-0.5 1048.5,-0.5"/>
<text text-anchor="start" x="1056.5" y="-18.5" font-family="Helvetica,sans-Serif" font-size="10.00">boost/log/utility/setup</text>
<text text-anchor="middle" x="1116.5" y="-7.5" font-family="Helvetica,sans-Serif" font-size="10.00">/common_attributes.hpp</text>
</a>
</g>
</g>
<!-- Node1&#45;&gt;Node9 -->
<g id="edge8" class="edge">
<title>Node1&#45;&gt;Node9</title>
<path fill="none" stroke="midnightblue" d="M770.62,-73.45C833.08,-64.21 938.2,-48.28 1038.12,-31.21"/>
<polygon fill="midnightblue" stroke="midnightblue" points="1038.82,-34.64 1048.09,-29.5 1037.64,-27.74 1038.82,-34.64"/>
</g>
<!-- Node10 -->
<g id="node10" class="node">
<title>Node10</title>
<g id="a_node10"><a xlink:title=" ">
<polygon fill="none" stroke="#bfbfbf" points="1202.5,-0.5 1202.5,-30.5 1338.5,-30.5 1338.5,-0.5 1202.5,-0.5"/>
<text text-anchor="start" x="1210.5" y="-18.5" font-family="Helvetica,sans-Serif" font-size="10.00">boost/log/sources/record</text>
<text text-anchor="middle" x="1270.5" y="-7.5" font-family="Helvetica,sans-Serif" font-size="10.00">_ostream.hpp</text>
</a>
</g>
</g>
<!-- Node1&#45;&gt;Node10 -->
<g id="edge9" class="edge">
<title>Node1&#45;&gt;Node10</title>
<path fill="none" stroke="midnightblue" d="M770.52,-77.14C857.81,-69.91 1033.56,-54.05 1192.18,-31.12"/>
<polygon fill="midnightblue" stroke="midnightblue" points="1192.72,-34.58 1202.11,-29.67 1191.71,-27.65 1192.72,-34.58"/>
</g>
<!-- Node11 -->
<g id="node11" class="node">
<title>Node11</title>
<g id="a_node11"><a xlink:title=" ">
<polygon fill="none" stroke="#bfbfbf" points="1357,-0.5 1357,-30.5 1480,-30.5 1480,-0.5 1357,-0.5"/>
<text text-anchor="start" x="1365" y="-18.5" font-family="Helvetica,sans-Serif" font-size="10.00">boost/log/utility/setup</text>
<text text-anchor="middle" x="1418.5" y="-7.5" font-family="Helvetica,sans-Serif" font-size="10.00">/file.hpp</text>
</a>
</g>
</g>
<!-- Node1&#45;&gt;Node11 -->
<g id="edge10" class="edge">
<title>Node1&#45;&gt;Node11</title>
<path fill="none" stroke="midnightblue" d="M770.7,-79.35C879.17,-74.64 1127.85,-61.41 1346.56,-31.01"/>
<polygon fill="midnightblue" stroke="midnightblue" points="1347.21,-34.46 1356.62,-29.6 1346.23,-27.52 1347.21,-34.46"/>
</g>
</g>
</svg>
