<?xml version="1.0" encoding="UTF-8" standalone="no"?>
<!DOCTYPE svg PUBLIC "-//W3C//DTD SVG 1.1//EN"
 "http://www.w3.org/Graphics/SVG/1.1/DTD/svg11.dtd">
<!-- Generated by graphviz version 2.43.0 (0)
 -->
<!-- Title: include/fire/RandomNumberSeedService.h Pages: 1 -->
<svg width="2678pt" height="565pt"
 viewBox="0.00 0.00 2677.68 565.00" xmlns="http://www.w3.org/2000/svg" xmlns:xlink="http://www.w3.org/1999/xlink">
<g id="graph0" class="graph" transform="scale(1 1) rotate(0) translate(4 561)">
<title>include/fire/RandomNumberSeedService.h</title>
<!-- Node1 -->
<g id="node1" class="node">
<title>Node1</title>
<g id="a_node1"><a xlink:title="Conditions object for random number seeds.">
<polygon fill="#bfbfbf" stroke="black" points="229.5,-526.5 229.5,-556.5 382.5,-556.5 382.5,-526.5 229.5,-526.5"/>
<text text-anchor="start" x="237.5" y="-544.5" font-family="Helvetica,sans-Serif" font-size="10.00">include/fire/RandomNumber</text>
<text text-anchor="middle" x="306" y="-533.5" font-family="Helvetica,sans-Serif" font-size="10.00">SeedService.h</text>
</a>
</g>
</g>
<!-- Node2 -->
<g id="node2" class="node">
<title>Node2</title>
<g id="a_node2"><a xlink:href="ConditionsObject_8h_source.html" target="_top" xlink:title=" ">
<polygon fill="none" stroke="black" points="70,-409 70,-428 198,-428 198,-409 70,-409"/>
<text text-anchor="middle" x="134" y="-416" font-family="Helvetica,sans-Serif" font-size="10.00">fire/ConditionsObject.h</text>
</a>
</g>
</g>
<!-- Node1&#45;&gt;Node2 -->
<g id="edge1" class="edge">
<title>Node1&#45;&gt;Node2</title>
<path fill="none" stroke="midnightblue" d="M285.93,-526.38C253.05,-503.25 188.01,-457.5 154.71,-434.07"/>
<polygon fill="midnightblue" stroke="midnightblue" points="156.41,-430.98 146.21,-428.09 152.38,-436.71 156.41,-430.98"/>
</g>
<!-- Node4 -->
<g id="node4" class="node">
<title>Node4</title>
<g id="a_node4"><a xlink:href="ConditionsProvider_8h_source.html" target="_top" xlink:title=" ">
<polygon fill="none" stroke="black" points="410,-470.5 410,-489.5 546,-489.5 546,-470.5 410,-470.5"/>
<text text-anchor="middle" x="478" y="-477.5" font-family="Helvetica,sans-Serif" font-size="10.00">fire/ConditionsProvider.h</text>
</a>
</g>
</g>
<!-- Node1&#45;&gt;Node4 -->
<g id="edge3" class="edge">
<title>Node1&#45;&gt;Node4</title>
<path fill="none" stroke="midnightblue" d="M346.76,-526.4C376.22,-516.21 415.59,-502.59 443.5,-492.93"/>
<polygon fill="midnightblue" stroke="midnightblue" points="444.92,-496.15 453.22,-489.57 442.63,-489.53 444.92,-496.15"/>
</g>
<!-- Node3 -->
<g id="node3" class="node">
<title>Node3</title>
<g id="a_node3"><a xlink:title=" ">
<polygon fill="none" stroke="#bfbfbf" points="993,-0.5 993,-19.5 1037,-19.5 1037,-0.5 993,-0.5"/>
<text text-anchor="middle" x="1015" y="-7.5" font-family="Helvetica,sans-Serif" font-size="10.00">string</text>
</a>
</g>
</g>
<!-- Node2&#45;&gt;Node3 -->
<g id="edge2" class="edge">
<title>Node2&#45;&gt;Node3</title>
<path fill="none" stroke="midnightblue" d="M112.47,-408.99C74.59,-392.45 0,-352.11 0,-291 0,-291 0,-291 0,-121 0,-19.7 809.34,-11.6 982.6,-11.03"/>
<polygon fill="midnightblue" stroke="midnightblue" points="982.87,-14.53 992.86,-11 982.85,-7.53 982.87,-14.53"/>
</g>
<!-- Node4&#45;&gt;Node2 -->
<g id="edge47" class="edge">
<title>Node4&#45;&gt;Node2</title>
<path fill="none" stroke="midnightblue" d="M425.97,-470.45C372.31,-461.58 286.25,-447.18 212,-434 204.64,-432.69 196.91,-431.29 189.27,-429.89"/>
<polygon fill="midnightblue" stroke="midnightblue" points="189.82,-426.43 179.35,-428.06 188.55,-433.31 189.82,-426.43"/>
</g>
<!-- Node5 -->
<g id="node5" class="node">
<title>Node5</title>
<g id="a_node5"><a xlink:title=" ">
<polygon fill="none" stroke="#bfbfbf" points="252,-56.5 252,-75.5 290,-75.5 290,-56.5 252,-56.5"/>
<text text-anchor="middle" x="271" y="-63.5" font-family="Helvetica,sans-Serif" font-size="10.00">map</text>
</a>
</g>
</g>
<!-- Node4&#45;&gt;Node5 -->
<g id="edge4" class="edge">
<title>Node4&#45;&gt;Node5</title>
<path fill="none" stroke="midnightblue" d="M421.21,-470.49C357.82,-457.39 264,-425.65 264,-352.5 264,-352.5 264,-352.5 264,-177 264,-144.88 267.01,-107.6 269.08,-85.73"/>
<polygon fill="midnightblue" stroke="midnightblue" points="272.59,-85.84 270.08,-75.55 265.62,-85.15 272.59,-85.84"/>
</g>
<!-- Node6 -->
<g id="node6" class="node">
<title>Node6</title>
<g id="a_node6"><a xlink:href="ConditionsIntervalOfValidity_8h_source.html" target="_top" xlink:title=" ">
<polygon fill="none" stroke="black" points="922,-403.5 922,-433.5 1058,-433.5 1058,-403.5 922,-403.5"/>
<text text-anchor="start" x="930" y="-421.5" font-family="Helvetica,sans-Serif" font-size="10.00">fire/ConditionsIntervalOf</text>
<text text-anchor="middle" x="990" y="-410.5" font-family="Helvetica,sans-Serif" font-size="10.00">Validity.h</text>
</a>
</g>
</g>
<!-- Node4&#45;&gt;Node6 -->
<g id="edge5" class="edge">
<title>Node4&#45;&gt;Node6</title>
<path fill="none" stroke="midnightblue" d="M546.25,-471.07C641.01,-460.06 812,-440.19 911.78,-428.59"/>
<polygon fill="midnightblue" stroke="midnightblue" points="912.28,-432.06 921.81,-427.42 911.47,-425.1 912.28,-432.06"/>
</g>
<!-- Node22 -->
<g id="node22" class="node">
<title>Node22</title>
<g id="a_node22"><a xlink:href="Parameters_8h_source.html" target="_top" xlink:title=" ">
<polygon fill="none" stroke="black" points="760,-112.5 760,-131.5 892,-131.5 892,-112.5 760,-112.5"/>
<text text-anchor="middle" x="826" y="-119.5" font-family="Helvetica,sans-Serif" font-size="10.00">fire/config/Parameters.h</text>
</a>
</g>
</g>
<!-- Node4&#45;&gt;Node22 -->
<g id="edge48" class="edge">
<title>Node4&#45;&gt;Node22</title>
<path fill="none" stroke="midnightblue" d="M524.29,-470.49C612.06,-453.02 794,-409.89 794,-352.5 794,-352.5 794,-352.5 794,-233 794,-199.33 807.99,-162.08 817.47,-140.72"/>
<polygon fill="midnightblue" stroke="midnightblue" points="820.67,-142.14 821.68,-131.59 814.32,-139.21 820.67,-142.14"/>
</g>
<!-- Node26 -->
<g id="node26" class="node">
<title>Node26</title>
<g id="a_node26"><a xlink:href="Exception_8h_source.html" target="_top" xlink:title=" ">
<polygon fill="none" stroke="black" points="1081.5,-56.5 1081.5,-75.5 1224.5,-75.5 1224.5,-56.5 1081.5,-56.5"/>
<text text-anchor="middle" x="1153" y="-63.5" font-family="Helvetica,sans-Serif" font-size="10.00">fire/exception/Exception.h</text>
</a>
</g>
</g>
<!-- Node4&#45;&gt;Node26 -->
<g id="edge49" class="edge">
<title>Node4&#45;&gt;Node26</title>
<path fill="none" stroke="midnightblue" d="M546.03,-478.04C900.2,-472.74 2519.53,-444.32 2590,-367 2970.19,50.16 1889.33,-269.8 1342,-132 1285.1,-117.67 1220.9,-93.91 1183.88,-79.43"/>
<polygon fill="midnightblue" stroke="midnightblue" points="1184.77,-76.02 1174.18,-75.61 1182.2,-82.53 1184.77,-76.02"/>
</g>
<!-- Node28 -->
<g id="node28" class="node">
<title>Node28</title>
<g id="a_node28"><a xlink:href="Factory_8h_source.html" target="_top" xlink:title=" ">
<polygon fill="none" stroke="black" points="120,-224.5 120,-243.5 236,-243.5 236,-224.5 120,-224.5"/>
<text text-anchor="middle" x="178" y="-231.5" font-family="Helvetica,sans-Serif" font-size="10.00">fire/factory/Factory.h</text>
</a>
</g>
</g>
<!-- Node4&#45;&gt;Node28 -->
<g id="edge50" class="edge">
<title>Node4&#45;&gt;Node28</title>
<path fill="none" stroke="midnightblue" d="M409.77,-472.93C351.55,-466.45 273.61,-454.27 250,-434 194.94,-386.74 181.98,-293.96 178.93,-254.02"/>
<polygon fill="midnightblue" stroke="midnightblue" points="182.41,-253.59 178.29,-243.83 175.43,-254.03 182.41,-253.59"/>
</g>
<!-- Node30 -->
<g id="node30" class="node">
<title>Node30</title>
<g id="a_node30"><a xlink:href="Logger_8h.html" target="_top" xlink:title="Interface to Boost.Logging.">
<polygon fill="none" stroke="black" points="1744,-409 1744,-428 1860,-428 1860,-409 1744,-409"/>
<text text-anchor="middle" x="1802" y="-416" font-family="Helvetica,sans-Serif" font-size="10.00">fire/logging/Logger.h</text>
</a>
</g>
</g>
<!-- Node4&#45;&gt;Node30 -->
<g id="edge55" class="edge">
<title>Node4&#45;&gt;Node30</title>
<path fill="none" stroke="midnightblue" d="M546.4,-475.93C774.3,-465.68 1506.26,-432.79 1733.83,-422.56"/>
<polygon fill="midnightblue" stroke="midnightblue" points="1734.13,-426.05 1743.96,-422.11 1733.82,-419.06 1734.13,-426.05"/>
</g>
<!-- Node41 -->
<g id="node41" class="node">
<title>Node41</title>
<g id="a_node41"><a xlink:href="RunHeader_8h_source.html" target="_top" xlink:title=" ">
<polygon fill="none" stroke="black" points="429,-342 429,-361 527,-361 527,-342 429,-342"/>
<text text-anchor="middle" x="478" y="-349" font-family="Helvetica,sans-Serif" font-size="10.00">fire/RunHeader.h</text>
</a>
</g>
</g>
<!-- Node4&#45;&gt;Node41 -->
<g id="edge66" class="edge">
<title>Node4&#45;&gt;Node41</title>
<path fill="none" stroke="midnightblue" d="M478,-470.31C478,-449.99 478,-399.05 478,-371.28"/>
<polygon fill="midnightblue" stroke="midnightblue" points="481.5,-371.26 478,-361.26 474.5,-371.26 481.5,-371.26"/>
</g>
<!-- Node7 -->
<g id="node7" class="node">
<title>Node7</title>
<g id="a_node7"><a xlink:title=" ">
<polygon fill="none" stroke="#bfbfbf" points="1243,-56.5 1243,-75.5 1303,-75.5 1303,-56.5 1243,-56.5"/>
<text text-anchor="middle" x="1273" y="-63.5" font-family="Helvetica,sans-Serif" font-size="10.00">iostream</text>
</a>
</g>
</g>
<!-- Node6&#45;&gt;Node7 -->
<g id="edge6" class="edge">
<title>Node6&#45;&gt;Node7</title>
<path fill="none" stroke="midnightblue" d="M1007.55,-403.21C1035.87,-380.18 1088.7,-337.28 1091,-336 1164.44,-295.3 1218.58,-319.16 1256,-244 1282.09,-191.59 1278.86,-119.7 1275.42,-85.95"/>
<polygon fill="midnightblue" stroke="midnightblue" points="1278.87,-85.23 1274.25,-75.7 1271.91,-86.03 1278.87,-85.23"/>
</g>
<!-- Node8 -->
<g id="node8" class="node">
<title>Node8</title>
<g id="a_node8"><a xlink:href="EventHeader_8h_source.html" target="_top" xlink:title=" ">
<polygon fill="none" stroke="black" points="936.5,-342 936.5,-361 1043.5,-361 1043.5,-342 936.5,-342"/>
<text text-anchor="middle" x="990" y="-349" font-family="Helvetica,sans-Serif" font-size="10.00">fire/EventHeader.h</text>
</a>
</g>
</g>
<!-- Node6&#45;&gt;Node8 -->
<g id="edge7" class="edge">
<title>Node6&#45;&gt;Node8</title>
<path fill="none" stroke="midnightblue" d="M990,-403.4C990,-394.06 990,-381.71 990,-371.52"/>
<polygon fill="midnightblue" stroke="midnightblue" points="993.5,-371.19 990,-361.19 986.5,-371.19 993.5,-371.19"/>
</g>
<!-- Node8&#45;&gt;Node3 -->
<g id="edge11" class="edge">
<title>Node8&#45;&gt;Node3</title>
<path fill="none" stroke="midnightblue" d="M1030.92,-341.97C1126.43,-321.5 1356,-268.77 1356,-235 1356,-235 1356,-235 1356,-121 1356,-86.11 1341.5,-74.62 1312,-56 1289.87,-42.03 1119.9,-22.31 1047.49,-14.44"/>
<polygon fill="midnightblue" stroke="midnightblue" points="1047.47,-10.91 1037.15,-13.32 1046.72,-17.87 1047.47,-10.91"/>
</g>
<!-- Node8&#45;&gt;Node5 -->
<g id="edge10" class="edge">
<title>Node8&#45;&gt;Node5</title>
<path fill="none" stroke="midnightblue" d="M936.24,-346.25C806.84,-335.18 482.12,-302.24 392,-244 376.05,-233.69 308.62,-127.31 281.94,-84.6"/>
<polygon fill="midnightblue" stroke="midnightblue" points="284.74,-82.49 276.49,-75.86 278.8,-86.2 284.74,-82.49"/>
</g>
<!-- Node8&#45;&gt;Node7 -->
<g id="edge9" class="edge">
<title>Node8&#45;&gt;Node7</title>
<path fill="none" stroke="midnightblue" d="M1026.11,-341.94C1095.79,-324.38 1242,-281.92 1242,-235 1242,-235 1242,-235 1242,-177 1242,-143.41 1255.56,-106.14 1264.74,-84.75"/>
<polygon fill="midnightblue" stroke="midnightblue" points="1267.94,-86.17 1268.82,-75.61 1261.55,-83.31 1267.94,-86.17"/>
</g>
<!-- Node9 -->
<g id="node9" class="node">
<title>Node9</title>
<g id="a_node9"><a xlink:title=" ">
<polygon fill="none" stroke="#bfbfbf" points="1170,-224.5 1170,-243.5 1214,-243.5 1214,-224.5 1170,-224.5"/>
<text text-anchor="middle" x="1192" y="-231.5" font-family="Helvetica,sans-Serif" font-size="10.00">ctime</text>
</a>
</g>
</g>
<!-- Node8&#45;&gt;Node9 -->
<g id="edge8" class="edge">
<title>Node8&#45;&gt;Node9</title>
<path fill="none" stroke="midnightblue" d="M1010.39,-341.88C1032.07,-332.47 1067.16,-316.51 1096,-300 1123.45,-284.29 1153.36,-263.38 1172.38,-249.57"/>
<polygon fill="midnightblue" stroke="midnightblue" points="1174.54,-252.32 1180.54,-243.59 1170.41,-246.68 1174.54,-252.32"/>
</g>
<!-- Node10 -->
<g id="node10" class="node">
<title>Node10</title>
<g id="a_node10"><a xlink:title=" ">
<polygon fill="none" stroke="#bfbfbf" points="1100.5,-224.5 1100.5,-243.5 1151.5,-243.5 1151.5,-224.5 1100.5,-224.5"/>
<text text-anchor="middle" x="1126" y="-231.5" font-family="Helvetica,sans-Serif" font-size="10.00">variant</text>
</a>
</g>
</g>
<!-- Node8&#45;&gt;Node10 -->
<g id="edge12" class="edge">
<title>Node8&#45;&gt;Node10</title>
<path fill="none" stroke="midnightblue" d="M1007.42,-341.92C1024.82,-332.88 1051.8,-317.53 1072,-300 1088.54,-285.64 1104.16,-265.92 1114.3,-251.98"/>
<polygon fill="midnightblue" stroke="midnightblue" points="1117.19,-253.95 1120.13,-243.77 1111.49,-249.9 1117.19,-253.95"/>
</g>
<!-- Node11 -->
<g id="node11" class="node">
<title>Node11</title>
<g id="a_node11"><a xlink:href="ParameterStorage_8h_source.html" target="_top" xlink:title=" ">
<polygon fill="none" stroke="black" points="916.5,-280.5 916.5,-299.5 1063.5,-299.5 1063.5,-280.5 916.5,-280.5"/>
<text text-anchor="middle" x="990" y="-287.5" font-family="Helvetica,sans-Serif" font-size="10.00">fire/h5/ParameterStorage.h</text>
</a>
</g>
</g>
<!-- Node8&#45;&gt;Node11 -->
<g id="edge13" class="edge">
<title>Node8&#45;&gt;Node11</title>
<path fill="none" stroke="midnightblue" d="M990,-341.98C990,-333.58 990,-320.48 990,-309.66"/>
<polygon fill="midnightblue" stroke="midnightblue" points="993.5,-309.51 990,-299.51 986.5,-309.51 993.5,-309.51"/>
</g>
<!-- Node11&#45;&gt;Node3 -->
<g id="edge18" class="edge">
<title>Node11&#45;&gt;Node3</title>
<path fill="none" stroke="midnightblue" d="M992.22,-280.15C999.36,-251.13 1021.73,-156.12 1029,-76 1029.8,-67.15 1030.34,-64.79 1029,-56 1027.63,-47 1024.81,-37.33 1022.05,-29.26"/>
<polygon fill="midnightblue" stroke="midnightblue" points="1025.31,-27.98 1018.6,-19.78 1018.73,-30.37 1025.31,-27.98"/>
</g>
<!-- Node11&#45;&gt;Node5 -->
<g id="edge17" class="edge">
<title>Node11&#45;&gt;Node5</title>
<path fill="none" stroke="midnightblue" d="M916.27,-287.32C770.55,-283.41 456.24,-271.82 416,-244 362.69,-207.14 398.49,-159.13 354,-112 339.05,-96.16 317.25,-84.63 299.74,-77.22"/>
<polygon fill="midnightblue" stroke="midnightblue" points="300.6,-73.79 290.01,-73.32 298,-80.29 300.6,-73.79"/>
</g>
<!-- Node11&#45;&gt;Node7 -->
<g id="edge16" class="edge">
<title>Node11&#45;&gt;Node7</title>
<path fill="none" stroke="midnightblue" d="M1001.09,-280.3C1043.98,-246.66 1199.22,-124.88 1253.83,-82.03"/>
<polygon fill="midnightblue" stroke="midnightblue" points="1256.27,-84.57 1261.98,-75.64 1251.95,-79.06 1256.27,-84.57"/>
</g>
<!-- Node11&#45;&gt;Node9 -->
<g id="edge15" class="edge">
<title>Node11&#45;&gt;Node9</title>
<path fill="none" stroke="midnightblue" d="M1022.95,-280.44C1057.23,-271.49 1112.43,-256.98 1160,-244 1160.1,-243.97 1160.2,-243.94 1160.3,-243.92"/>
<polygon fill="midnightblue" stroke="midnightblue" points="1161.27,-247.28 1169.98,-241.24 1159.41,-240.53 1161.27,-247.28"/>
</g>
<!-- Node11&#45;&gt;Node10 -->
<g id="edge19" class="edge">
<title>Node11&#45;&gt;Node10</title>
<path fill="none" stroke="midnightblue" d="M1011.55,-280.44C1034.03,-271.52 1069.49,-257.44 1094.98,-247.32"/>
<polygon fill="midnightblue" stroke="midnightblue" points="1096.55,-250.46 1104.55,-243.52 1093.97,-243.95 1096.55,-250.46"/>
</g>
<!-- Node12 -->
<g id="node12" class="node">
<title>Node12</title>
<g id="a_node12"><a xlink:title=" ">
<polygon fill="none" stroke="#bfbfbf" points="847,-56.5 847,-75.5 987,-75.5 987,-56.5 847,-56.5"/>
<text text-anchor="middle" x="917" y="-63.5" font-family="Helvetica,sans-Serif" font-size="10.00">boost/core/demangle.hpp</text>
</a>
</g>
</g>
<!-- Node11&#45;&gt;Node12 -->
<g id="edge14" class="edge">
<title>Node11&#45;&gt;Node12</title>
<path fill="none" stroke="midnightblue" d="M987.14,-280.3C976.37,-247.56 938.17,-131.38 923.14,-85.67"/>
<polygon fill="midnightblue" stroke="midnightblue" points="926.37,-84.29 919.92,-75.88 919.72,-86.48 926.37,-84.29"/>
</g>
<!-- Node13 -->
<g id="node13" class="node">
<title>Node13</title>
<g id="a_node13"><a xlink:href="DataSet_8h_source.html" target="_top" xlink:title=" ">
<polygon fill="none" stroke="black" points="425,-224.5 425,-243.5 523,-243.5 523,-224.5 425,-224.5"/>
<text text-anchor="middle" x="474" y="-231.5" font-family="Helvetica,sans-Serif" font-size="10.00">fire/h5/DataSet.h</text>
</a>
</g>
</g>
<!-- Node11&#45;&gt;Node13 -->
<g id="edge20" class="edge">
<title>Node11&#45;&gt;Node13</title>
<path fill="none" stroke="midnightblue" d="M916.34,-281.29C813.18,-270.5 627.69,-251.08 533.04,-241.18"/>
<polygon fill="midnightblue" stroke="midnightblue" points="533.38,-237.69 523.07,-240.13 532.65,-244.66 533.38,-237.69"/>
</g>
<!-- Node17 -->
<g id="node17" class="node">
<title>Node17</title>
<g id="a_node17"><a xlink:href="Reader_8h_source.html" target="_top" xlink:title=" ">
<polygon fill="none" stroke="black" points="531.5,-168.5 531.5,-187.5 624.5,-187.5 624.5,-168.5 531.5,-168.5"/>
<text text-anchor="middle" x="578" y="-175.5" font-family="Helvetica,sans-Serif" font-size="10.00">fire/h5/Reader.h</text>
</a>
</g>
</g>
<!-- Node11&#45;&gt;Node17 -->
<g id="edge45" class="edge">
<title>Node11&#45;&gt;Node17</title>
<path fill="none" stroke="midnightblue" d="M958.01,-280.46C884.24,-260.76 702.18,-212.15 619.74,-190.15"/>
<polygon fill="midnightblue" stroke="midnightblue" points="620.53,-186.73 609.97,-187.53 618.72,-193.5 620.53,-186.73"/>
</g>
<!-- Node11&#45;&gt;Node26 -->
<g id="edge46" class="edge">
<title>Node11&#45;&gt;Node26</title>
<path fill="none" stroke="midnightblue" d="M996.39,-280.3C1020.73,-247.15 1107.91,-128.41 1140.55,-83.96"/>
<polygon fill="midnightblue" stroke="midnightblue" points="1143.38,-86.02 1146.48,-75.88 1137.74,-81.87 1143.38,-86.02"/>
</g>
<!-- Node13&#45;&gt;Node5 -->
<g id="edge24" class="edge">
<title>Node13&#45;&gt;Node5</title>
<path fill="none" stroke="midnightblue" d="M470.41,-224.33C460.89,-202.39 432.92,-144.13 392,-112 384.47,-106.09 333.11,-88.03 299.77,-76.67"/>
<polygon fill="midnightblue" stroke="midnightblue" points="300.66,-73.27 290.07,-73.38 298.41,-79.9 300.66,-73.27"/>
</g>
<!-- Node14 -->
<g id="node14" class="node">
<title>Node14</title>
<g id="a_node14"><a xlink:title=" ">
<polygon fill="none" stroke="#bfbfbf" points="178,-168.5 178,-187.5 236,-187.5 236,-168.5 178,-168.5"/>
<text text-anchor="middle" x="207" y="-175.5" font-family="Helvetica,sans-Serif" font-size="10.00">memory</text>
</a>
</g>
</g>
<!-- Node13&#45;&gt;Node14 -->
<g id="edge21" class="edge">
<title>Node13&#45;&gt;Node14</title>
<path fill="none" stroke="midnightblue" d="M431.69,-224.44C380.76,-214.14 295.91,-196.98 246.34,-186.96"/>
<polygon fill="midnightblue" stroke="midnightblue" points="246.82,-183.48 236.32,-184.93 245.43,-190.34 246.82,-183.48"/>
</g>
<!-- Node15 -->
<g id="node15" class="node">
<title>Node15</title>
<g id="a_node15"><a xlink:title=" ">
<polygon fill="none" stroke="#bfbfbf" points="308.5,-56.5 308.5,-75.5 377.5,-75.5 377.5,-56.5 308.5,-56.5"/>
<text text-anchor="middle" x="343" y="-63.5" font-family="Helvetica,sans-Serif" font-size="10.00">type_traits</text>
</a>
</g>
</g>
<!-- Node13&#45;&gt;Node15 -->
<g id="edge22" class="edge">
<title>Node13&#45;&gt;Node15</title>
<path fill="none" stroke="midnightblue" d="M473.02,-224.29C470.17,-202.75 460.11,-146.25 430,-112 417.05,-97.27 398.1,-86.67 381.2,-79.48"/>
<polygon fill="midnightblue" stroke="midnightblue" points="382.12,-76.08 371.54,-75.63 379.53,-82.59 382.12,-76.08"/>
</g>
<!-- Node16 -->
<g id="node16" class="node">
<title>Node16</title>
<g id="a_node16"><a xlink:title=" ">
<polygon fill="none" stroke="#bfbfbf" points="395.5,-56.5 395.5,-75.5 442.5,-75.5 442.5,-56.5 395.5,-56.5"/>
<text text-anchor="middle" x="419" y="-63.5" font-family="Helvetica,sans-Serif" font-size="10.00">vector</text>
</a>
</g>
</g>
<!-- Node13&#45;&gt;Node16 -->
<g id="edge23" class="edge">
<title>Node13&#45;&gt;Node16</title>
<path fill="none" stroke="midnightblue" d="M475.72,-224.25C479.35,-203.56 486.05,-150.46 468,-112 462.31,-99.87 451.71,-89.49 441.82,-81.77"/>
<polygon fill="midnightblue" stroke="midnightblue" points="443.61,-78.74 433.46,-75.69 439.49,-84.4 443.61,-78.74"/>
</g>
<!-- Node13&#45;&gt;Node17 -->
<g id="edge25" class="edge">
<title>Node13&#45;&gt;Node17</title>
<path fill="none" stroke="midnightblue" d="M490.71,-224.32C507.31,-215.7 533,-202.36 552.22,-192.39"/>
<polygon fill="midnightblue" stroke="midnightblue" points="554.07,-195.37 561.33,-187.65 550.84,-189.16 554.07,-195.37"/>
</g>
<!-- Node21 -->
<g id="node21" class="node">
<title>Node21</title>
<g id="a_node21"><a xlink:href="Writer_8h_source.html" target="_top" xlink:title=" ">
<polygon fill="none" stroke="black" points="647.5,-168.5 647.5,-187.5 736.5,-187.5 736.5,-168.5 647.5,-168.5"/>
<text text-anchor="middle" x="692" y="-175.5" font-family="Helvetica,sans-Serif" font-size="10.00">fire/h5/Writer.h</text>
</a>
</g>
</g>
<!-- Node13&#45;&gt;Node21 -->
<g id="edge29" class="edge">
<title>Node13&#45;&gt;Node21</title>
<path fill="none" stroke="midnightblue" d="M508.54,-224.44C546.25,-215.1 606.74,-200.12 647.86,-189.93"/>
<polygon fill="midnightblue" stroke="midnightblue" points="648.75,-193.32 657.62,-187.52 647.07,-186.52 648.75,-193.32"/>
</g>
<!-- Node18 -->
<g id="node18" class="node">
<title>Node18</title>
<g id="a_node18"><a xlink:title=" ">
<polygon fill="none" stroke="#bfbfbf" points="520,-112.5 520,-131.5 630,-131.5 630,-112.5 520,-112.5"/>
<text text-anchor="middle" x="575" y="-119.5" font-family="Helvetica,sans-Serif" font-size="10.00">highfive/H5File.hpp</text>
</a>
</g>
</g>
<!-- Node17&#45;&gt;Node18 -->
<g id="edge26" class="edge">
<title>Node17&#45;&gt;Node18</title>
<path fill="none" stroke="midnightblue" d="M577.5,-168.08C577.11,-161.01 576.55,-150.86 576.05,-141.99"/>
<polygon fill="midnightblue" stroke="midnightblue" points="579.54,-141.54 575.49,-131.75 572.55,-141.93 579.54,-141.54"/>
</g>
<!-- Node19 -->
<g id="node19" class="node">
<title>Node19</title>
<g id="a_node19"><a xlink:href="Atomic_8h_source.html" target="_top" xlink:title=" ">
<polygon fill="none" stroke="black" points="648,-112.5 648,-131.5 742,-131.5 742,-112.5 648,-112.5"/>
<text text-anchor="middle" x="695" y="-119.5" font-family="Helvetica,sans-Serif" font-size="10.00">fire/h5/Atomic.h</text>
</a>
</g>
</g>
<!-- Node17&#45;&gt;Node19 -->
<g id="edge27" class="edge">
<title>Node17&#45;&gt;Node19</title>
<path fill="none" stroke="midnightblue" d="M596.54,-168.44C615.62,-159.64 645.57,-145.81 667.44,-135.72"/>
<polygon fill="midnightblue" stroke="midnightblue" points="668.93,-138.88 676.55,-131.52 666,-132.53 668.93,-138.88"/>
</g>
<!-- Node20 -->
<g id="node20" class="node">
<title>Node20</title>
<g id="a_node20"><a xlink:title=" ">
<polygon fill="none" stroke="#bfbfbf" points="460.5,-56.5 460.5,-75.5 599.5,-75.5 599.5,-56.5 460.5,-56.5"/>
<text text-anchor="middle" x="530" y="-63.5" font-family="Helvetica,sans-Serif" font-size="10.00">highfive/H5DataType.hpp</text>
</a>
</g>
</g>
<!-- Node19&#45;&gt;Node20 -->
<g id="edge28" class="edge">
<title>Node19&#45;&gt;Node20</title>
<path fill="none" stroke="midnightblue" d="M668.86,-112.44C640.98,-103.32 596.65,-88.81 565.6,-78.65"/>
<polygon fill="midnightblue" stroke="midnightblue" points="566.62,-75.3 556.02,-75.52 564.44,-81.95 566.62,-75.3"/>
</g>
<!-- Node21&#45;&gt;Node18 -->
<g id="edge30" class="edge">
<title>Node21&#45;&gt;Node18</title>
<path fill="none" stroke="midnightblue" d="M673.46,-168.44C654.38,-159.64 624.43,-145.81 602.56,-135.72"/>
<polygon fill="midnightblue" stroke="midnightblue" points="604,-132.53 593.45,-131.52 601.07,-138.88 604,-132.53"/>
</g>
<!-- Node21&#45;&gt;Node19 -->
<g id="edge44" class="edge">
<title>Node21&#45;&gt;Node19</title>
<path fill="none" stroke="midnightblue" d="M692.5,-168.08C692.89,-161.01 693.45,-150.86 693.95,-141.99"/>
<polygon fill="midnightblue" stroke="midnightblue" points="697.45,-141.93 694.51,-131.75 690.46,-141.54 697.45,-141.93"/>
</g>
<!-- Node21&#45;&gt;Node22 -->
<g id="edge31" class="edge">
<title>Node21&#45;&gt;Node22</title>
<path fill="none" stroke="midnightblue" d="M713.23,-168.44C735.38,-159.52 770.32,-145.44 795.44,-135.32"/>
<polygon fill="midnightblue" stroke="midnightblue" points="796.9,-138.5 804.87,-131.52 794.28,-132.01 796.9,-138.5"/>
</g>
<!-- Node22&#45;&gt;Node3 -->
<g id="edge36" class="edge">
<title>Node22&#45;&gt;Node3</title>
<path fill="none" stroke="midnightblue" d="M824.89,-112.13C823.69,-98.25 823.57,-71.42 838,-56 857.55,-35.11 937.48,-21.31 982.95,-14.99"/>
<polygon fill="midnightblue" stroke="midnightblue" points="983.47,-18.45 992.91,-13.65 982.53,-11.51 983.47,-18.45"/>
</g>
<!-- Node22&#45;&gt;Node5 -->
<g id="edge35" class="edge">
<title>Node22&#45;&gt;Node5</title>
<path fill="none" stroke="midnightblue" d="M759.76,-112.91C756.8,-112.59 753.87,-112.29 751,-112 553.7,-92.31 498.47,-114.36 299.99,-75.74"/>
<polygon fill="midnightblue" stroke="midnightblue" points="300.61,-72.29 290.13,-73.79 299.26,-79.16 300.61,-72.29"/>
</g>
<!-- Node22&#45;&gt;Node7 -->
<g id="edge33" class="edge">
<title>Node22&#45;&gt;Node7</title>
<path fill="none" stroke="midnightblue" d="M892.22,-115.96C973.02,-109.28 1113.63,-95.97 1233,-76 1233.1,-75.98 1233.2,-75.97 1233.3,-75.95"/>
<polygon fill="midnightblue" stroke="midnightblue" points="1233.75,-79.43 1242.93,-74.14 1232.46,-72.55 1233.75,-79.43"/>
</g>
<!-- Node22&#45;&gt;Node12 -->
<g id="edge40" class="edge">
<title>Node22&#45;&gt;Node12</title>
<path fill="none" stroke="midnightblue" d="M840.62,-112.32C854.95,-103.82 877.01,-90.73 893.75,-80.8"/>
<polygon fill="midnightblue" stroke="midnightblue" points="895.6,-83.77 902.42,-75.65 892.03,-77.75 895.6,-83.77"/>
</g>
<!-- Node22&#45;&gt;Node15 -->
<g id="edge37" class="edge">
<title>Node22&#45;&gt;Node15</title>
<path fill="none" stroke="midnightblue" d="M759.76,-112.97C756.8,-112.64 753.87,-112.31 751,-112 592.28,-94.65 548.89,-100.48 387.94,-76.16"/>
<polygon fill="midnightblue" stroke="midnightblue" points="388.09,-72.64 377.68,-74.59 387.03,-79.56 388.09,-72.64"/>
</g>
<!-- Node22&#45;&gt;Node16 -->
<g id="edge39" class="edge">
<title>Node22&#45;&gt;Node16</title>
<path fill="none" stroke="midnightblue" d="M759.82,-113.06C664.57,-101.63 496.12,-81.41 452.79,-75.59"/>
<polygon fill="midnightblue" stroke="midnightblue" points="453.07,-72.09 442.67,-74.1 452.05,-79.02 453.07,-72.09"/>
</g>
<!-- Node23 -->
<g id="node23" class="node">
<title>Node23</title>
<g id="a_node23"><a xlink:title=" ">
<polygon fill="none" stroke="#bfbfbf" points="617.5,-56.5 617.5,-75.5 652.5,-75.5 652.5,-56.5 617.5,-56.5"/>
<text text-anchor="middle" x="635" y="-63.5" font-family="Helvetica,sans-Serif" font-size="10.00">any</text>
</a>
</g>
</g>
<!-- Node22&#45;&gt;Node23 -->
<g id="edge32" class="edge">
<title>Node22&#45;&gt;Node23</title>
<path fill="none" stroke="midnightblue" d="M792.87,-112.47C761.65,-104.31 713.36,-91.37 662.53,-76.04"/>
<polygon fill="midnightblue" stroke="midnightblue" points="663.26,-72.6 652.68,-73.04 661.23,-79.3 663.26,-72.6"/>
</g>
<!-- Node24 -->
<g id="node24" class="node">
<title>Node24</title>
<g id="a_node24"><a xlink:title=" ">
<polygon fill="none" stroke="#bfbfbf" points="671,-56.5 671,-75.5 715,-75.5 715,-56.5 671,-56.5"/>
<text text-anchor="middle" x="693" y="-63.5" font-family="Helvetica,sans-Serif" font-size="10.00">limits</text>
</a>
</g>
</g>
<!-- Node22&#45;&gt;Node24 -->
<g id="edge34" class="edge">
<title>Node22&#45;&gt;Node24</title>
<path fill="none" stroke="midnightblue" d="M804.93,-112.44C782.94,-103.52 748.27,-89.44 723.34,-79.32"/>
<polygon fill="midnightblue" stroke="midnightblue" points="724.56,-76.04 713.98,-75.52 721.92,-82.52 724.56,-76.04"/>
</g>
<!-- Node25 -->
<g id="node25" class="node">
<title>Node25</title>
<g id="a_node25"><a xlink:title=" ">
<polygon fill="none" stroke="#bfbfbf" points="733.5,-56.5 733.5,-75.5 790.5,-75.5 790.5,-56.5 733.5,-56.5"/>
<text text-anchor="middle" x="762" y="-63.5" font-family="Helvetica,sans-Serif" font-size="10.00">typeinfo</text>
</a>
</g>
</g>
<!-- Node22&#45;&gt;Node25 -->
<g id="edge38" class="edge">
<title>Node22&#45;&gt;Node25</title>
<path fill="none" stroke="midnightblue" d="M815.72,-112.32C806.16,-104.26 791.72,-92.08 780.22,-82.37"/>
<polygon fill="midnightblue" stroke="midnightblue" points="782.37,-79.61 772.47,-75.83 777.86,-84.96 782.37,-79.61"/>
</g>
<!-- Node22&#45;&gt;Node26 -->
<g id="edge41" class="edge">
<title>Node22&#45;&gt;Node26</title>
<path fill="none" stroke="midnightblue" d="M877.81,-112.44C935.82,-102.87 1029.74,-87.36 1091.44,-77.17"/>
<polygon fill="midnightblue" stroke="midnightblue" points="1092.13,-80.6 1101.43,-75.52 1090.99,-73.69 1092.13,-80.6"/>
</g>
<!-- Node26&#45;&gt;Node3 -->
<g id="edge43" class="edge">
<title>Node26&#45;&gt;Node3</title>
<path fill="none" stroke="midnightblue" d="M1131.13,-56.44C1108.22,-47.48 1072.02,-33.31 1046.13,-23.18"/>
<polygon fill="midnightblue" stroke="midnightblue" points="1047.35,-19.9 1036.76,-19.52 1044.8,-26.42 1047.35,-19.9"/>
</g>
<!-- Node27 -->
<g id="node27" class="node">
<title>Node27</title>
<g id="a_node27"><a xlink:title=" ">
<polygon fill="none" stroke="#bfbfbf" points="1120.5,-0.5 1120.5,-19.5 1185.5,-19.5 1185.5,-0.5 1120.5,-0.5"/>
<text text-anchor="middle" x="1153" y="-7.5" font-family="Helvetica,sans-Serif" font-size="10.00">exception</text>
</a>
</g>
</g>
<!-- Node26&#45;&gt;Node27 -->
<g id="edge42" class="edge">
<title>Node26&#45;&gt;Node27</title>
<path fill="none" stroke="midnightblue" d="M1153,-56.08C1153,-49.01 1153,-38.86 1153,-29.99"/>
<polygon fill="midnightblue" stroke="midnightblue" points="1156.5,-29.75 1153,-19.75 1149.5,-29.75 1156.5,-29.75"/>
</g>
<!-- Node28&#45;&gt;Node3 -->
<g id="edge52" class="edge">
<title>Node28&#45;&gt;Node3</title>
<path fill="none" stroke="midnightblue" d="M174.53,-224.41C169.95,-211.8 163.1,-187.64 169,-168 186.17,-110.86 191.3,-85.78 243,-56 307.78,-18.69 844.16,-12.24 982.53,-11.19"/>
<polygon fill="midnightblue" stroke="midnightblue" points="982.91,-14.69 992.88,-11.12 982.86,-7.69 982.91,-14.69"/>
</g>
<!-- Node28&#45;&gt;Node14 -->
<g id="edge51" class="edge">
<title>Node28&#45;&gt;Node14</title>
<path fill="none" stroke="midnightblue" d="M182.79,-224.08C186.76,-216.69 192.53,-205.95 197.43,-196.81"/>
<polygon fill="midnightblue" stroke="midnightblue" points="200.65,-198.22 202.3,-187.75 194.49,-194.91 200.65,-198.22"/>
</g>
<!-- Node28&#45;&gt;Node26 -->
<g id="edge54" class="edge">
<title>Node28&#45;&gt;Node26</title>
<path fill="none" stroke="midnightblue" d="M236.38,-229.92C360.82,-223.1 648.64,-205.91 745,-188 888.02,-161.42 1052.39,-104.15 1120.67,-79.12"/>
<polygon fill="midnightblue" stroke="midnightblue" points="1122.23,-82.27 1130.41,-75.53 1119.81,-75.71 1122.23,-82.27"/>
</g>
<!-- Node29 -->
<g id="node29" class="node">
<title>Node29</title>
<g id="a_node29"><a xlink:title=" ">
<polygon fill="none" stroke="#bfbfbf" points="28.5,-168.5 28.5,-187.5 121.5,-187.5 121.5,-168.5 28.5,-168.5"/>
<text text-anchor="middle" x="75" y="-175.5" font-family="Helvetica,sans-Serif" font-size="10.00">unordered_map</text>
</a>
</g>
</g>
<!-- Node28&#45;&gt;Node29 -->
<g id="edge53" class="edge">
<title>Node28&#45;&gt;Node29</title>
<path fill="none" stroke="midnightblue" d="M161.45,-224.32C145.01,-215.7 119.57,-202.36 100.53,-192.39"/>
<polygon fill="midnightblue" stroke="midnightblue" points="101.99,-189.2 91.51,-187.65 98.74,-195.4 101.99,-189.2"/>
</g>
<!-- Node31 -->
<g id="node31" class="node">
<title>Node31</title>
<g id="a_node31"><a xlink:title=" ">
<polygon fill="none" stroke="#bfbfbf" points="2029.5,-342 2029.5,-361 2136.5,-361 2136.5,-342 2029.5,-342"/>
<text text-anchor="middle" x="2083" y="-349" font-family="Helvetica,sans-Serif" font-size="10.00">boost/log/core.hpp</text>
</a>
</g>
</g>
<!-- Node30&#45;&gt;Node31 -->
<g id="edge56" class="edge">
<title>Node30&#45;&gt;Node31</title>
<path fill="none" stroke="midnightblue" d="M1839.21,-408.96C1882.79,-398.94 1957.15,-381.83 2021,-367 2026.05,-365.83 2031.34,-364.6 2036.6,-363.37"/>
<polygon fill="midnightblue" stroke="midnightblue" points="2037.67,-366.71 2046.61,-361.03 2036.08,-359.9 2037.67,-366.71"/>
</g>
<!-- Node32 -->
<g id="node32" class="node">
<title>Node32</title>
<g id="a_node32"><a xlink:title=" ">
<polygon fill="none" stroke="#bfbfbf" points="2155,-342 2155,-361 2299,-361 2299,-342 2155,-342"/>
<text text-anchor="middle" x="2227" y="-349" font-family="Helvetica,sans-Serif" font-size="10.00">boost/log/expressions.hpp</text>
</a>
</g>
</g>
<!-- Node30&#45;&gt;Node32 -->
<g id="edge57" class="edge">
<title>Node30&#45;&gt;Node32</title>
<path fill="none" stroke="midnightblue" d="M1860.21,-409.52C1928.69,-400.01 2045.76,-383.33 2146,-367 2154.02,-365.69 2162.47,-364.25 2170.77,-362.8"/>
<polygon fill="midnightblue" stroke="midnightblue" points="2171.54,-366.22 2180.78,-361.03 2170.33,-359.33 2171.54,-366.22"/>
</g>
<!-- Node33 -->
<g id="node33" class="node">
<title>Node33</title>
<g id="a_node33"><a xlink:title=" ">
<polygon fill="none" stroke="#bfbfbf" points="2317,-336.5 2317,-366.5 2433,-366.5 2433,-336.5 2317,-336.5"/>
<text text-anchor="start" x="2325" y="-354.5" font-family="Helvetica,sans-Serif" font-size="10.00">boost/log/sinks/sync</text>
<text text-anchor="middle" x="2375" y="-343.5" font-family="Helvetica,sans-Serif" font-size="10.00">_frontend.hpp</text>
</a>
</g>
</g>
<!-- Node30&#45;&gt;Node33 -->
<g id="edge58" class="edge">
<title>Node30&#45;&gt;Node33</title>
<path fill="none" stroke="midnightblue" d="M1860.33,-413.84C1952.94,-407.56 2139.42,-392.97 2306.98,-367.04"/>
<polygon fill="midnightblue" stroke="midnightblue" points="2307.63,-370.48 2316.97,-365.48 2306.55,-363.57 2307.63,-370.48"/>
</g>
<!-- Node34 -->
<g id="node34" class="node">
<title>Node34</title>
<g id="a_node34"><a xlink:title=" ">
<polygon fill="none" stroke="#bfbfbf" points="2451.5,-336.5 2451.5,-366.5 2580.5,-366.5 2580.5,-336.5 2451.5,-336.5"/>
<text text-anchor="start" x="2459.5" y="-354.5" font-family="Helvetica,sans-Serif" font-size="10.00">boost/log/sinks/text</text>
<text text-anchor="middle" x="2516" y="-343.5" font-family="Helvetica,sans-Serif" font-size="10.00">_ostream_backend.hpp</text>
</a>
</g>
</g>
<!-- Node30&#45;&gt;Node34 -->
<g id="edge59" class="edge">
<title>Node30&#45;&gt;Node34</title>
<path fill="none" stroke="midnightblue" d="M1860.04,-415.15C1970.98,-410.18 2220.89,-396.65 2441.36,-366.97"/>
<polygon fill="midnightblue" stroke="midnightblue" points="2442.06,-370.41 2451.5,-365.59 2441.12,-363.47 2442.06,-370.41"/>
</g>
<!-- Node35 -->
<g id="node35" class="node">
<title>Node35</title>
<g id="a_node35"><a xlink:title=" ">
<polygon fill="none" stroke="#bfbfbf" points="1100.5,-336.5 1100.5,-366.5 1235.5,-366.5 1235.5,-336.5 1100.5,-336.5"/>
<text text-anchor="start" x="1108.5" y="-354.5" font-family="Helvetica,sans-Serif" font-size="10.00">boost/log/sources/global</text>
<text text-anchor="middle" x="1168" y="-343.5" font-family="Helvetica,sans-Serif" font-size="10.00">_logger_storage.hpp</text>
</a>
</g>
</g>
<!-- Node30&#45;&gt;Node35 -->
<g id="edge60" class="edge">
<title>Node30&#45;&gt;Node35</title>
<path fill="none" stroke="midnightblue" d="M1743.95,-414.13C1644.08,-407.93 1433.16,-393.01 1245.92,-367.19"/>
<polygon fill="midnightblue" stroke="midnightblue" points="1246.29,-363.71 1235.9,-365.8 1245.32,-370.64 1246.29,-363.71"/>
</g>
<!-- Node36 -->
<g id="node36" class="node">
<title>Node36</title>
<g id="a_node36"><a xlink:title=" ">
<polygon fill="none" stroke="#bfbfbf" points="1253.5,-336.5 1253.5,-366.5 1398.5,-366.5 1398.5,-336.5 1253.5,-336.5"/>
<text text-anchor="start" x="1261.5" y="-354.5" font-family="Helvetica,sans-Serif" font-size="10.00">boost/log/sources/severity</text>
<text text-anchor="middle" x="1326" y="-343.5" font-family="Helvetica,sans-Serif" font-size="10.00">_channel_logger.hpp</text>
</a>
</g>
</g>
<!-- Node30&#45;&gt;Node36 -->
<g id="edge61" class="edge">
<title>Node30&#45;&gt;Node36</title>
<path fill="none" stroke="midnightblue" d="M1743.98,-411C1668.89,-402.39 1533.78,-386.19 1408.95,-367.26"/>
<polygon fill="midnightblue" stroke="midnightblue" points="1409.24,-363.76 1398.83,-365.71 1408.19,-370.68 1409.24,-363.76"/>
</g>
<!-- Node37 -->
<g id="node37" class="node">
<title>Node37</title>
<g id="a_node37"><a xlink:title=" ">
<polygon fill="none" stroke="#bfbfbf" points="1416.5,-336.5 1416.5,-366.5 1561.5,-366.5 1561.5,-336.5 1416.5,-336.5"/>
<text text-anchor="start" x="1424.5" y="-354.5" font-family="Helvetica,sans-Serif" font-size="10.00">boost/log/sources/severity</text>
<text text-anchor="middle" x="1489" y="-343.5" font-family="Helvetica,sans-Serif" font-size="10.00">_feature.hpp</text>
</a>
</g>
</g>
<!-- Node30&#45;&gt;Node37 -->
<g id="edge62" class="edge">
<title>Node30&#45;&gt;Node37</title>
<path fill="none" stroke="midnightblue" d="M1760.76,-408.94C1711.54,-398.71 1628.19,-381.41 1566.75,-368.65"/>
<polygon fill="midnightblue" stroke="midnightblue" points="1567.2,-365.17 1556.7,-366.56 1565.78,-372.02 1567.2,-365.17"/>
</g>
<!-- Node38 -->
<g id="node38" class="node">
<title>Node38</title>
<g id="a_node38"><a xlink:title=" ">
<polygon fill="none" stroke="#bfbfbf" points="1580,-336.5 1580,-366.5 1716,-366.5 1716,-336.5 1580,-336.5"/>
<text text-anchor="start" x="1588" y="-354.5" font-family="Helvetica,sans-Serif" font-size="10.00">boost/log/utility/setup</text>
<text text-anchor="middle" x="1648" y="-343.5" font-family="Helvetica,sans-Serif" font-size="10.00">/common_attributes.hpp</text>
</a>
</g>
</g>
<!-- Node30&#45;&gt;Node38 -->
<g id="edge63" class="edge">
<title>Node30&#45;&gt;Node38</title>
<path fill="none" stroke="midnightblue" d="M1781.55,-408.87C1758.44,-399.12 1720.19,-382.97 1690.53,-370.45"/>
<polygon fill="midnightblue" stroke="midnightblue" points="1691.81,-367.19 1681.24,-366.53 1689.09,-373.64 1691.81,-367.19"/>
</g>
<!-- Node39 -->
<g id="node39" class="node">
<title>Node39</title>
<g id="a_node39"><a xlink:title=" ">
<polygon fill="none" stroke="#bfbfbf" points="1734,-336.5 1734,-366.5 1870,-366.5 1870,-336.5 1734,-336.5"/>
<text text-anchor="start" x="1742" y="-354.5" font-family="Helvetica,sans-Serif" font-size="10.00">boost/log/sources/record</text>
<text text-anchor="middle" x="1802" y="-343.5" font-family="Helvetica,sans-Serif" font-size="10.00">_ostream.hpp</text>
</a>
</g>
</g>
<!-- Node30&#45;&gt;Node39 -->
<g id="edge64" class="edge">
<title>Node30&#45;&gt;Node39</title>
<path fill="none" stroke="midnightblue" d="M1802,-408.73C1802,-400.54 1802,-387.92 1802,-376.71"/>
<polygon fill="midnightblue" stroke="midnightblue" points="1805.5,-376.59 1802,-366.59 1798.5,-376.59 1805.5,-376.59"/>
</g>
<!-- Node40 -->
<g id="node40" class="node">
<title>Node40</title>
<g id="a_node40"><a xlink:title=" ">
<polygon fill="none" stroke="#bfbfbf" points="1888.5,-336.5 1888.5,-366.5 2011.5,-366.5 2011.5,-336.5 1888.5,-336.5"/>
<text text-anchor="start" x="1896.5" y="-354.5" font-family="Helvetica,sans-Serif" font-size="10.00">boost/log/utility/setup</text>
<text text-anchor="middle" x="1950" y="-343.5" font-family="Helvetica,sans-Serif" font-size="10.00">/file.hpp</text>
</a>
</g>
</g>
<!-- Node30&#45;&gt;Node40 -->
<g id="edge65" class="edge">
<title>Node30&#45;&gt;Node40</title>
<path fill="none" stroke="midnightblue" d="M1821.65,-408.87C1843.77,-399.16 1880.31,-383.11 1908.75,-370.61"/>
<polygon fill="midnightblue" stroke="midnightblue" points="1910.31,-373.75 1918.06,-366.53 1907.5,-367.34 1910.31,-373.75"/>
</g>
<!-- Node41&#45;&gt;Node3 -->
<g id="edge68" class="edge">
<title>Node41&#45;&gt;Node3</title>
<path fill="none" stroke="midnightblue" d="M516.51,-341.98C613.74,-318.36 870.27,-242.5 996,-76 1006.17,-62.53 1010.91,-43.71 1013.11,-29.79"/>
<polygon fill="midnightblue" stroke="midnightblue" points="1016.58,-30.24 1014.39,-19.87 1009.64,-29.35 1016.58,-30.24"/>
</g>
<!-- Node41&#45;&gt;Node5 -->
<g id="edge67" class="edge">
<title>Node41&#45;&gt;Node5</title>
<path fill="none" stroke="midnightblue" d="M478.11,-341.78C477.82,-326.96 475,-296.83 458,-280 414.78,-237.22 369.75,-286.24 326,-244 302.94,-221.73 282.45,-126.89 274.51,-85.95"/>
<polygon fill="midnightblue" stroke="midnightblue" points="277.91,-85.1 272.61,-75.93 271.03,-86.41 277.91,-85.1"/>
</g>
<!-- Node41&#45;&gt;Node11 -->
<g id="edge71" class="edge">
<title>Node41&#45;&gt;Node11</title>
<path fill="none" stroke="midnightblue" d="M527.09,-344.79C614.62,-334.62 798.55,-313.25 906.35,-300.72"/>
<polygon fill="midnightblue" stroke="midnightblue" points="907.01,-304.17 916.54,-299.54 906.2,-297.22 907.01,-304.17"/>
</g>
<!-- Node41&#45;&gt;Node13 -->
<g id="edge70" class="edge">
<title>Node41&#45;&gt;Node13</title>
<path fill="none" stroke="midnightblue" d="M428.84,-349.17C392.57,-345.3 345.45,-333.55 321,-300 293.69,-262.53 360.91,-246.49 414.77,-239.74"/>
<polygon fill="midnightblue" stroke="midnightblue" points="415.46,-243.18 424.99,-238.55 414.65,-236.23 415.46,-243.18"/>
</g>
<!-- Node42 -->
<g id="node42" class="node">
<title>Node42</title>
<g id="a_node42"><a xlink:title=" ">
<polygon fill="none" stroke="#bfbfbf" points="330.5,-280.5 330.5,-299.5 449.5,-299.5 449.5,-280.5 330.5,-280.5"/>
<text text-anchor="middle" x="390" y="-287.5" font-family="Helvetica,sans-Serif" font-size="10.00">fire/version/Version.h</text>
</a>
</g>
</g>
<!-- Node41&#45;&gt;Node42 -->
<g id="edge69" class="edge">
<title>Node41&#45;&gt;Node42</title>
<path fill="none" stroke="midnightblue" d="M465.39,-341.98C451.28,-332.43 428.17,-316.81 411.25,-305.37"/>
<polygon fill="midnightblue" stroke="midnightblue" points="412.83,-302.21 402.58,-299.51 408.91,-308.01 412.83,-302.21"/>
</g>
</g>
</svg>
