<?xml version="1.0" encoding="UTF-8" standalone="no"?>
<!DOCTYPE svg PUBLIC "-//W3C//DTD SVG 1.1//EN"
 "http://www.w3.org/Graphics/SVG/1.1/DTD/svg11.dtd">
<!-- Generated by graphviz version 2.43.0 (0)
 -->
<!-- Title: fire::h5::DataSet&lt; std::vector&lt; ContentType &gt; &gt; Pages: 1 -->
<svg width="847pt" height="132pt"
 viewBox="0.00 0.00 847.00 132.00" xmlns="http://www.w3.org/2000/svg" xmlns:xlink="http://www.w3.org/1999/xlink">
<g id="graph0" class="graph" transform="scale(1 1) rotate(0) translate(4 128)">
<title>fire::h5::DataSet&lt; std::vector&lt; ContentType &gt; &gt;</title>
<!-- Node1 -->
<g id="node1" class="node">
<title>Node1</title>
<g id="a_node1"><a xlink:title="Vectors.">
<polygon fill="#bfbfbf" stroke="black" points="673,-49.5 673,-79.5 839,-79.5 839,-49.5 673,-49.5"/>
<text text-anchor="start" x="681" y="-67.5" font-family="Helvetica,sans-Serif" font-size="10.00">fire::h5::DataSet&lt;</text>
<text text-anchor="middle" x="756" y="-56.5" font-family="Helvetica,sans-Serif" font-size="10.00"> std::vector&lt; ContentType &gt; &gt;</text>
</a>
</g>
</g>
<!-- Node2 -->
<g id="node2" class="node">
<title>Node2</title>
<g id="a_node2"><a xlink:href="classfire_1_1h5_1_1AbstractDataSet.html" target="_top" xlink:title=" ">
<polygon fill="none" stroke="black" points="310,-93.5 310,-123.5 484,-123.5 484,-93.5 310,-93.5"/>
<text text-anchor="start" x="318" y="-111.5" font-family="Helvetica,sans-Serif" font-size="10.00">fire::h5::AbstractDataSet</text>
<text text-anchor="middle" x="397" y="-100.5" font-family="Helvetica,sans-Serif" font-size="10.00">&lt; std::vector&lt; ContentType &gt; &gt;</text>
</a>
</g>
</g>
<!-- Node2&#45;&gt;Node1 -->
<g id="edge1" class="edge">
<title>Node2&#45;&gt;Node1</title>
<path fill="none" stroke="midnightblue" d="M494.44,-101.21C529.62,-98.15 569.67,-94.2 606,-89.5 627.72,-86.69 651.12,-83.05 672.8,-79.43"/>
<polygon fill="midnightblue" stroke="midnightblue" points="493.84,-97.75 484.18,-102.09 494.44,-104.72 493.84,-97.75"/>
</g>
<!-- Node3 -->
<g id="node3" class="node">
<title>Node3</title>
<g id="a_node3"><a xlink:href="classfire_1_1h5_1_1BaseDataSet.html" target="_top" xlink:title=" ">
<polygon fill="none" stroke="black" points="0,-55 0,-74 119,-74 119,-55 0,-55"/>
<text text-anchor="middle" x="59.5" y="-62" font-family="Helvetica,sans-Serif" font-size="10.00">fire::h5::BaseDataSet</text>
</a>
</g>
</g>
<!-- Node3&#45;&gt;Node2 -->
<g id="edge2" class="edge">
<title>Node3&#45;&gt;Node2</title>
<path fill="none" stroke="midnightblue" d="M101.21,-76.86C118.03,-81.51 137.81,-86.42 156,-89.5 206.59,-98.05 263.84,-102.77 309.74,-105.37"/>
<polygon fill="midnightblue" stroke="midnightblue" points="101.74,-73.37 91.17,-74.01 99.83,-80.1 101.74,-73.37"/>
</g>
<!-- Node5 -->
<g id="node5" class="node">
<title>Node5</title>
<g id="a_node5"><a xlink:href="classfire_1_1h5_1_1AbstractDataSet.html" target="_top" xlink:title=" ">
<polygon fill="none" stroke="black" points="156,-49.5 156,-79.5 292,-79.5 292,-49.5 156,-49.5"/>
<text text-anchor="start" x="164" y="-67.5" font-family="Helvetica,sans-Serif" font-size="10.00">fire::h5::AbstractDataSet</text>
<text text-anchor="middle" x="224" y="-56.5" font-family="Helvetica,sans-Serif" font-size="10.00">&lt; std::size_t &gt;</text>
</a>
</g>
</g>
<!-- Node3&#45;&gt;Node5 -->
<g id="edge5" class="edge">
<title>Node3&#45;&gt;Node5</title>
<path fill="none" stroke="midnightblue" d="M129.36,-64.5C138.14,-64.5 147.11,-64.5 155.86,-64.5"/>
<polygon fill="midnightblue" stroke="midnightblue" points="129.17,-61 119.17,-64.5 129.17,-68 129.17,-61"/>
</g>
<!-- Node7 -->
<g id="node7" class="node">
<title>Node7</title>
<g id="a_node7"><a xlink:href="classfire_1_1h5_1_1AbstractDataSet.html" target="_top" xlink:title=" ">
<polygon fill="none" stroke="black" points="156,-0.5 156,-30.5 292,-30.5 292,-0.5 156,-0.5"/>
<text text-anchor="start" x="164" y="-18.5" font-family="Helvetica,sans-Serif" font-size="10.00">fire::h5::AbstractDataSet</text>
<text text-anchor="middle" x="224" y="-7.5" font-family="Helvetica,sans-Serif" font-size="10.00">&lt; ContentType &gt;</text>
</a>
</g>
</g>
<!-- Node3&#45;&gt;Node7 -->
<g id="edge8" class="edge">
<title>Node3&#45;&gt;Node7</title>
<path fill="none" stroke="midnightblue" d="M101.8,-52.05C123.51,-45.5 150.28,-37.43 173.13,-30.54"/>
<polygon fill="midnightblue" stroke="midnightblue" points="100.78,-48.7 92.22,-54.94 102.8,-55.4 100.78,-48.7"/>
</g>
<!-- Node4 -->
<g id="node4" class="node">
<title>Node4</title>
<g id="a_node4"><a xlink:href="classfire_1_1h5_1_1DataSet.html" target="_top" xlink:title=" ">
<polygon fill="none" stroke="black" points="502,-49.5 502,-79.5 606,-79.5 606,-49.5 502,-49.5"/>
<text text-anchor="start" x="510" y="-67.5" font-family="Helvetica,sans-Serif" font-size="10.00">fire::h5::DataSet&lt;</text>
<text text-anchor="middle" x="554" y="-56.5" font-family="Helvetica,sans-Serif" font-size="10.00"> std::size_t &gt;</text>
</a>
</g>
</g>
<!-- Node4&#45;&gt;Node1 -->
<g id="edge3" class="edge">
<title>Node4&#45;&gt;Node1</title>
<path fill="none" stroke="#9a32cd" stroke-dasharray="5,2" d="M616.48,-64.5C634.27,-64.5 653.98,-64.5 672.82,-64.5"/>
<polygon fill="#9a32cd" stroke="#9a32cd" points="616.25,-61 606.25,-64.5 616.25,-68 616.25,-61"/>
<text text-anchor="middle" x="639.5" y="-67.5" font-family="Helvetica,sans-Serif" font-size="10.00"> size_</text>
</g>
<!-- Node5&#45;&gt;Node4 -->
<g id="edge4" class="edge">
<title>Node5&#45;&gt;Node4</title>
<path fill="none" stroke="midnightblue" d="M302.23,-64.5C363.8,-64.5 448.29,-64.5 501.77,-64.5"/>
<polygon fill="midnightblue" stroke="midnightblue" points="302.17,-61 292.17,-64.5 302.17,-68 302.17,-61"/>
</g>
<!-- Node6 -->
<g id="node6" class="node">
<title>Node6</title>
<g id="a_node6"><a xlink:href="classfire_1_1h5_1_1DataSet.html" target="_top" xlink:title=" ">
<polygon fill="none" stroke="black" points="502,-0.5 502,-30.5 606,-30.5 606,-0.5 502,-0.5"/>
<text text-anchor="start" x="510" y="-18.5" font-family="Helvetica,sans-Serif" font-size="10.00">fire::h5::DataSet&lt;</text>
<text text-anchor="middle" x="554" y="-7.5" font-family="Helvetica,sans-Serif" font-size="10.00"> ContentType &gt;</text>
</a>
</g>
</g>
<!-- Node6&#45;&gt;Node1 -->
<g id="edge6" class="edge">
<title>Node6&#45;&gt;Node1</title>
<path fill="none" stroke="#9a32cd" stroke-dasharray="5,2" d="M616.16,-30.49C640.72,-36.5 668.97,-43.42 693.56,-49.45"/>
<polygon fill="#9a32cd" stroke="#9a32cd" points="616.79,-27.04 606.25,-28.06 615.13,-33.83 616.79,-27.04"/>
<text text-anchor="middle" x="639.5" y="-43.5" font-family="Helvetica,sans-Serif" font-size="10.00"> data_</text>
</g>
<!-- Node7&#45;&gt;Node6 -->
<g id="edge7" class="edge">
<title>Node7&#45;&gt;Node6</title>
<path fill="none" stroke="midnightblue" d="M302.23,-15.5C363.8,-15.5 448.29,-15.5 501.77,-15.5"/>
<polygon fill="midnightblue" stroke="midnightblue" points="302.17,-12 292.17,-15.5 302.17,-19 302.17,-12"/>
</g>
</g>
</svg>
