<?xml version="1.0" encoding="UTF-8" standalone="no"?>
<!DOCTYPE svg PUBLIC "-//W3C//DTD SVG 1.1//EN"
 "http://www.w3.org/Graphics/SVG/1.1/DTD/svg11.dtd">
<!-- Generated by graphviz version 2.43.0 (0)
 -->
<!-- Title: include/fire/logging/Logger.h Pages: 1 -->
<svg width="355pt" height="330pt"
 viewBox="0.00 0.00 355.04 330.00" xmlns="http://www.w3.org/2000/svg" xmlns:xlink="http://www.w3.org/1999/xlink">
<g id="graph0" class="graph" transform="scale(1 1) rotate(0) translate(4 326)">
<title>include/fire/logging/Logger.h</title>
<!-- Node1 -->
<g id="node1" class="node">
<title>Node1</title>
<g id="a_node1"><a xlink:title="Interface to Boost.Logging.">
<polygon fill="#bfbfbf" stroke="black" points="91,-291.5 91,-321.5 201,-321.5 201,-291.5 91,-291.5"/>
<text text-anchor="start" x="99" y="-309.5" font-family="Helvetica,sans-Serif" font-size="10.00">include/fire/logging</text>
<text text-anchor="middle" x="146" y="-298.5" font-family="Helvetica,sans-Serif" font-size="10.00">/Logger.h</text>
</a>
</g>
</g>
<!-- Node2 -->
<g id="node2" class="node">
<title>Node2</title>
<g id="a_node2"><a xlink:href="Conditions_8h_source.html" target="_top" xlink:title=" ">
<polygon fill="none" stroke="black" points="22,-174 22,-193 156,-193 156,-174 22,-174"/>
<text text-anchor="middle" x="89" y="-181" font-family="Helvetica,sans-Serif" font-size="10.00">include/fire/Conditions.h</text>
</a>
</g>
</g>
<!-- Node1&#45;&gt;Node2 -->
<g id="edge1" class="edge">
<title>Node1&#45;&gt;Node2</title>
<path fill="none" stroke="midnightblue" d="M126.62,-283.58C119.94,-275.12 112.91,-265.06 108,-255 97.77,-234.04 92.43,-206.79 90.24,-193.12"/>
<polygon fill="midnightblue" stroke="midnightblue" points="124.04,-285.95 133.09,-291.45 129.45,-281.51 124.04,-285.95"/>
</g>
<!-- Node3 -->
<g id="node3" class="node">
<title>Node3</title>
<g id="a_node3"><a xlink:href="Process_8h_source.html" target="_top" xlink:title=" ">
<polygon fill="none" stroke="black" points="0,-56.5 0,-75.5 120,-75.5 120,-56.5 0,-56.5"/>
<text text-anchor="middle" x="60" y="-63.5" font-family="Helvetica,sans-Serif" font-size="10.00">include/fire/Process.h</text>
</a>
</g>
</g>
<!-- Node1&#45;&gt;Node3 -->
<g id="edge9" class="edge">
<title>Node1&#45;&gt;Node3</title>
<path fill="none" stroke="midnightblue" d="M106.47,-286.48C74.67,-268.76 32.23,-239.04 13,-199 -8.49,-154.27 34.12,-97.01 52.31,-75.59"/>
<polygon fill="midnightblue" stroke="midnightblue" points="105.08,-289.7 115.54,-291.37 108.4,-283.54 105.08,-289.7"/>
</g>
<!-- Node5 -->
<g id="node5" class="node">
<title>Node5</title>
<g id="a_node5"><a xlink:href="Processor_8h_source.html" target="_top" xlink:title=" ">
<polygon fill="none" stroke="black" points="88.5,-112.5 88.5,-131.5 217.5,-131.5 217.5,-112.5 88.5,-112.5"/>
<text text-anchor="middle" x="153" y="-119.5" font-family="Helvetica,sans-Serif" font-size="10.00">include/fire/Processor.h</text>
</a>
</g>
</g>
<!-- Node1&#45;&gt;Node5 -->
<g id="edge10" class="edge">
<title>Node1&#45;&gt;Node5</title>
<path fill="none" stroke="midnightblue" d="M210.94,-294.37C240.33,-286.91 274.18,-274.71 300,-255 333.4,-229.51 362.94,-201.05 337,-168 322.18,-149.12 264.41,-137.13 217.51,-130.33"/>
<polygon fill="midnightblue" stroke="midnightblue" points="210.06,-290.98 201.16,-296.72 211.7,-297.79 210.06,-290.98"/>
</g>
<!-- Node6 -->
<g id="node6" class="node">
<title>Node6</title>
<g id="a_node6"><a xlink:href="ConditionsProvider_8h_source.html" target="_top" xlink:title=" ">
<polygon fill="none" stroke="black" points="117,-235.5 117,-254.5 291,-254.5 291,-235.5 117,-235.5"/>
<text text-anchor="middle" x="204" y="-242.5" font-family="Helvetica,sans-Serif" font-size="10.00">include/fire/ConditionsProvider.h</text>
</a>
</g>
</g>
<!-- Node1&#45;&gt;Node6 -->
<g id="edge6" class="edge">
<title>Node1&#45;&gt;Node6</title>
<path fill="none" stroke="midnightblue" d="M166.96,-284C176.84,-273.86 188.08,-262.33 195.56,-254.66"/>
<polygon fill="midnightblue" stroke="midnightblue" points="164.22,-281.8 159.75,-291.4 169.23,-286.68 164.22,-281.8"/>
</g>
<!-- Node2&#45;&gt;Node3 -->
<g id="edge2" class="edge">
<title>Node2&#45;&gt;Node3</title>
<path fill="none" stroke="midnightblue" d="M84.36,-164C78.02,-138.76 66.91,-94.52 62.21,-75.78"/>
<polygon fill="midnightblue" stroke="midnightblue" points="80.99,-164.97 86.82,-173.82 87.78,-163.27 80.99,-164.97"/>
</g>
<!-- Node2&#45;&gt;Node5 -->
<g id="edge4" class="edge">
<title>Node2&#45;&gt;Node5</title>
<path fill="none" stroke="midnightblue" d="M105.51,-167.15C117.71,-155.81 133.87,-140.78 143.85,-131.51"/>
<polygon fill="midnightblue" stroke="midnightblue" points="103.11,-164.6 98.17,-173.98 107.88,-169.73 103.11,-164.6"/>
</g>
<!-- Node4 -->
<g id="node4" class="node">
<title>Node4</title>
<g id="a_node4"><a xlink:href="fire_8cxx.html" target="_top" xlink:title="main definition for fire executable">
<polygon fill="none" stroke="black" points="23,-0.5 23,-19.5 97,-19.5 97,-0.5 23,-0.5"/>
<text text-anchor="middle" x="60" y="-7.5" font-family="Helvetica,sans-Serif" font-size="10.00">app/fire.cxx</text>
</a>
</g>
</g>
<!-- Node3&#45;&gt;Node4 -->
<g id="edge3" class="edge">
<title>Node3&#45;&gt;Node4</title>
<path fill="none" stroke="midnightblue" d="M60,-45.8C60,-36.91 60,-26.78 60,-19.75"/>
<polygon fill="midnightblue" stroke="midnightblue" points="56.5,-46.08 60,-56.08 63.5,-46.08 56.5,-46.08"/>
</g>
<!-- Node5&#45;&gt;Node3 -->
<g id="edge5" class="edge">
<title>Node5&#45;&gt;Node3</title>
<path fill="none" stroke="midnightblue" d="M129.19,-107.18C112.08,-97.24 89.53,-84.15 74.9,-75.65"/>
<polygon fill="midnightblue" stroke="midnightblue" points="127.65,-110.33 138.06,-112.32 131.17,-104.28 127.65,-110.33"/>
</g>
<!-- Node6&#45;&gt;Node2 -->
<g id="edge7" class="edge">
<title>Node6&#45;&gt;Node2</title>
<path fill="none" stroke="midnightblue" d="M178.62,-230.87C156.33,-219.33 124.56,-202.9 105.45,-193.01"/>
<polygon fill="midnightblue" stroke="midnightblue" points="177.03,-233.99 187.52,-235.48 180.25,-227.77 177.03,-233.99"/>
</g>
<!-- Node7 -->
<g id="node7" class="node">
<title>Node7</title>
<g id="a_node7"><a xlink:href="RandomNumberSeedService_8h.html" target="_top" xlink:title="Conditions object for random number seeds.">
<polygon fill="none" stroke="black" points="174.5,-168.5 174.5,-198.5 327.5,-198.5 327.5,-168.5 174.5,-168.5"/>
<text text-anchor="start" x="182.5" y="-186.5" font-family="Helvetica,sans-Serif" font-size="10.00">include/fire/RandomNumber</text>
<text text-anchor="middle" x="251" y="-175.5" font-family="Helvetica,sans-Serif" font-size="10.00">SeedService.h</text>
</a>
</g>
</g>
<!-- Node6&#45;&gt;Node7 -->
<g id="edge8" class="edge">
<title>Node6&#45;&gt;Node7</title>
<path fill="none" stroke="midnightblue" d="M217.01,-227.53C224.21,-218.42 233.06,-207.21 239.92,-198.52"/>
<polygon fill="midnightblue" stroke="midnightblue" points="214.19,-225.46 210.73,-235.48 219.68,-229.8 214.19,-225.46"/>
</g>
</g>
</svg>
